<svg xmlns="http://www.w3.org/2000/svg" xmlns:xlink="http://www.w3.org/1999/xlink" id="Calque_1" x="0" y="0" enable-background="new 0 0 32 32" version="1.1" viewBox="0 0 32 32" xml:space="preserve"><g><g><polygon fill="#F2F2F2" points="17.8 21 17.8 11.9 11.9 11.9 11.9 14.2 14.2 14.2 14.2 21 11.9 21 11.9 23.3 20.1 23.3 20.1 21"/><circle cx="16" cy="8.3" r="1.8" fill="#F2F2F2"/></g><path fill="#F2F2F2" d="M16,32C7.2,32,0,24.8,0,16C0,7.2,7.2,0,16,0c8.8,0,16,7.2,16,16C32,24.8,24.8,32,16,32L16,32z M16,4 C9.4,4,4,9.4,4,16s5.4,12,12,12s12-5.4,12-12S22.6,4,16,4z"/></g></svg>