<svg enable-background="new 0 0 32 32" viewBox="0 0 32 32" xmlns="http://www.w3.org/2000/svg">
  <path d="m26 24h-.4c0-.1-.1-.2-.1-.3-.7-1.6-1.5-2.8-3.5-3.4v-2.3c0-3.3-2.7-6-6-6s-6 2.7-6 6v2.3c-2 .6-2.9 1.8-3.5 3.4v.1c-3.7-.7-6.5-3.9-6.5-7.8v-2c0-4.4 3.6-8 8-8 .8 0 1.5.1 2.2.3.7-3.6 4-6.3 7.8-6.3 4.4 0 8 3.6 8 8 0 .7-.1 1.4-.3 2h.3c3.3 0 6 2.7 6 6v2c0 3.3-2.7 6-6 6z" fill="#ccc"/>
  <path d="m12 24h2v-6c0-1.1.9-2 2-2s2 .9 2 2v6h2c.8 0 1.5.5 1.8 1.2.1.2.1.4.1.6.1.6-.1 1.2-.6 1.6l-4 4c-.3.4-.8.6-1.3.6s-1-.2-1.4-.6l-4-4c-.4-.4-.6-1-.6-1.6 0-.2.1-.4.1-.6.4-.7 1.1-1.2 1.9-1.2z" fill="#f2f2f2"/>
  <rect fill="none" height="32" width="32"/>
</svg>
