<?xml version="1.0" encoding="utf-8"?>
<!-- Generator: Adobe Illustrator 18.1.0, SVG Export Plug-In . SVG Version: 6.00 Build 0)  -->
<!DOCTYPE svg PUBLIC "-//W3C//DTD SVG 1.1//EN" "http://www.w3.org/Graphics/SVG/1.1/DTD/svg11.dtd">
<svg version="1.1" id="Calque_1" xmlns="http://www.w3.org/2000/svg" xmlns:xlink="http://www.w3.org/1999/xlink" x="0px" y="0px"
	 viewBox="0 0 32 32" enable-background="new 0 0 32 32" xml:space="preserve">
<circle fill-rule="evenodd" clip-rule="evenodd" fill="#4D4D4D" cx="16" cy="16" r="12"/>
<path fill-rule="evenodd" clip-rule="evenodd" fill="#F2F2F2" d="M16,32C7.2,32,0,24.8,0,16C0,7.2,7.2,0,16,0c8.8,0,16,7.2,16,16
	C32,24.8,24.8,32,16,32z M16,4C9.4,4,4,9.4,4,16c0,6.6,5.4,12,12,12s12-5.4,12-12C28,9.4,22.6,4,16,4z"/>
<path fill-rule="evenodd" clip-rule="evenodd" fill="#FFFFFF" d="M16,6l2.9,6l6.6,1l-4.8,4.6l1.1,6.5L16,21l-5.9,3.1l1.1-6.5
	l-4.8-4.6l6.6-1L16,6z"/>
<g>
</g>
<g>
</g>
<g>
</g>
<g>
</g>
<g>
</g>
<g>
</g>
<g>
</g>
<g>
</g>
<g>
</g>
<g>
</g>
<g>
</g>
<g>
</g>
<g>
</g>
<g>
</g>
<g>
</g>
</svg>
