<svg enable-background="new 0 0 32 32" viewBox="0 0 32 32" xmlns="http://www.w3.org/2000/svg">
  <rect fill="none" height="32" width="32"/>
  <path d="m26 8h-10v-2c0-1.1-.9-2-2-2h-8c-1.1 0-2 .9-2 2v3 17c0 1.1.9 2 2 2h20c1.1 0 2-.9 2-2v-16c0-.4-.1-.7-.3-1-.3-.6-1-1-1.7-1z" fill="none"/>
  <path d="m6 0c-3.2999967 0-6 2.7000033-6 6v3 17c0 3.299997 2.7000033 6 6 6h20c3.299997 0 6-2.700003 6-6v-16c0-.2999997.000391-.7000003-.099609-1-.5-2.7999972-2.900394-5-5.900391-5h-6.400391c-.799999-2.2999977-2.999612-4-5.599609-4zm0 4h8c1.099999 0 2 .9000011 2 2v2h10c.699999 0 1.399219.4000006 1.699219 1 .2.2999997.300781.6000004.300781 1v16c0 1.099999-.900001 2-2 2h-20c-1.0999989 0-2-.900001-2-2v-17-3c0-1.0999989.9000011-2 2-2z" fill="#f2f2f2"/>
  <path clip-rule="evenodd" d="m19.283635 21.196352c-.312728.234545-.625454.312728-.938181.312728-.234546 0-.469091-.07819-.703637-.156365-.547272-.234544-.859999-.781818-.859999-1.407271v-1.485455-.07817c-4.925453 0-9.1472686 3.283635-10.4763592 7.818178-.3127272-1.016367-.4690908-2.032731-.4690908-3.127277 0-6.019996 4.925452-10.945449 10.94545-10.945449v-1.563635c0-.625454.312727-1.172727.859999-1.407272.234546-.07818.469091-.156364.703637-.156364.312727 0 .625453.07817.938181.312727l6.254542 4.690906c.390909.312728.625455.781818.625455 1.250909 0 .469092-.234546.938182-.625455 1.250908z" fill="#ccc" fill-rule="evenodd"/>
</svg>
