<svg enable-background="new 0 0 32 32" viewBox="0 0 32 32" xmlns="http://www.w3.org/2000/svg">
  <path d="m9.3515625 1.5410156c-.1080709-.0030557-.2164339-.0020899-.3242187.0019532-2.5868361.0970336-5.0429689 2.2118653-5.0429688 5.0019531v18.1562501c-.0000008 3.720117 4.367721 6.23969 7.587891 4.376953l15.6875-9.074219c3.218964-1.862042 3.218965-6.899679 0-8.761718l-15.6875-9.0742192c-.704412-.4074734-1.464207-.6055633-2.2207035-.6269532zm-.5625 3.5761719a1.4501239 1.4501239 0 0 1 .9765625.171875l15.689453 9.0742185a1.4543042 1.4543042 0 0 1 0 2.519531l-15.689453 9.074219a1.4501236 1.4501236 0 0 1 -2.1757812-1.255859v-18.1562501a1.4501239 1.4501239 0 0 1 1.1992187-1.4277344z" fill="#f2f2f2" stroke-linecap="round" stroke-linejoin="round" stroke-width=".999996"/>
</svg>
