<svg xmlns="http://www.w3.org/2000/svg" xmlns:xlink="http://www.w3.org/1999/xlink" width="64" height="64" version="1.1" viewBox="0 0 16.933 16.933"><defs><linearGradient id="linearGradient84726" x1="4.498" x2="12.435" y1="3.801" y2="9.568" gradientUnits="userSpaceOnUse"><stop offset="0" stop-color="#dedede"/><stop offset=".5" stop-color="#d2d2d2"/><stop offset="1" stop-color="silver"/></linearGradient></defs><g><path fill="#8f8f8f" d="m3.561 16.016s0-3.5642 4.9056-3.5642c4.9069 0 4.9056 3.5642 4.9056 3.5642z"/><path fill="#c2c2c2" d="m8.4667 12.452-4.9056 3.5642-3.0319-9.3311z"/><path fill="#7c7c7c" d="m8.4667 12.452 7.9375-5.7669-3.0319 9.3311z"/><path fill="#d3d3d3" d="m8.8308 12.716-0.36417 0.26458-0.36417-0.26458c0-0.26458 0.36417-0.26458 0.36417-0.26458s0.36417 0 0.36417 0.26458z"/><path fill="#bcbcbc" d="m8.4667 12.452s-2e-7 -5.7669 7.9375-5.7669l-0.22507 0.69269-0.91853 1.1965-0.91853 0.13819-0.91853 1.1965-0.91853 0.13819-0.91853 1.1965-0.91853 0.13819-0.91853 1.1965-0.91853 0.13819z"/><path fill="#dedede" d="m8.1025 12.716-0.91853-0.13819-0.91853-1.1965-0.91853-0.13819-0.91853-1.1965-0.91853-0.13819-0.91853-1.1965-0.91853-0.13819-0.91853-1.1965-0.22507-0.69269c7.9375 1e-7 7.9375 5.7669 7.9375 5.7669z"/><path fill="url(#linearGradient84726)" d="m0.52917 6.6846 7.9375 5.7669 7.9375-5.7669-7.9375-5.7669z"/></g><path fill-opacity="0" d="m0.75424 7.3773-0.22507-0.69269 7.9375 5.7669 7.9375-5.7669-0.22507 0.69269-7.7124 5.6034z"/></svg>