<svg enable-background="new 0 0 32 32" viewBox="0 0 32 32" xmlns="http://www.w3.org/2000/svg">
  <g clip-rule="evenodd" fill-rule="evenodd">
    <path d="m28 6c0-1.1-.9-2-2-2h-20c-1.1 0-2 .9-2 2v20c0 1.1.9 2 2 2h20c1.1 0 2-.9 2-2z" fill="#4d4d4d"/>
    <path d="m16 6.4 2.9 6 6.6 1-4.8 4.6 1.1 6.5-5.8-3.1-5.9 3.1 1.1-6.5-4.8-4.6 6.6-1z" fill="#fff"/>
    <path d="m26 32h-20c-3.3 0-6-2.7-6-6v-20c0-3.3 2.7-6 6-6h20c3.3 0 6 2.7 6 6v20c0 3.3-2.7 6-6 6zm2-26c0-1.1-.9-2-2-2h-20c-1.1 0-2 .9-2 2v20c0 1.1.9 2 2 2h20c1.1 0 2-.9 2-2z" fill="#f2f2f2"/>
  </g>
</svg>
