<svg enable-background="new 0 0 32 32" viewBox="0 0 32 32" xmlns="http://www.w3.org/2000/svg">
  <g clip-rule="evenodd" fill-rule="evenodd">
    <path d="m21.9 4h-10.3c-.8-2.3-3-4-5.6-4-3.3 0-6 2.7-6 6s2.7 6 6 6c2.6 0 4.8-1.7 5.6-4h10.3c1.1 0 2 .9 2 2v1.4h4v-1.4c0-3.3-2.7-6-6-6zm-15.9 4c-1.1 0-2-.9-2-2s.9-2 2-2 2 .9 2 2-.9 2-2 2z" fill="#f2f2f2"/>
    <path d="m23.9 20.6v1.4c0 1.1-.9 2-2 2h-10.3c-.8-2.3-3-4-5.6-4-3.3 0-6 2.7-6 6s2.7 6 6 6c2.6 0 4.8-1.7 5.6-4h10.3c3.3 0 6-2.7 6-6v-1.4zm-17.9 7.4c-1.1 0-2-.9-2-2s.9-2 2-2 2 .9 2 2-.9 2-2 2z" fill="#f2f2f2"/>
    <path d="m32 22h-12v-12h12zm-4-8h-4v4h4z" fill="#999"/>
  </g>
</svg>
