<svg xmlns="http://www.w3.org/2000/svg" xmlns:xlink="http://www.w3.org/1999/xlink" id="Calque_1" x="0" y="0" enable-background="new 0 0 32 32" version="1.1" viewBox="0 0 32 32" xml:space="preserve"><rect width="32" height="32" fill="none"/><path fill="#F2F2F2" d="M31.8,17.4c-0.4-0.9-1.2-1.4-2.1-1.4h-2.3c0-7.6-6.1-13.7-13.7-13.7C6.1,2.3,0,8.4,0,16	c0,7.6,6.1,13.7,13.7,13.7c2.5,0,4.8-0.7,6.8-1.8l-3.4-3.4c-1,0.4-2.2,0.7-3.4,0.7c-5,0-9.1-4.1-9.1-9.1s4.1-9.1,9.1-9.1	c5.1,0,9.1,4.1,9.1,9.1h-2.3c-0.9,0-1.8,0.6-2.1,1.4c-0.4,0.9-0.2,1.8,0.5,2.5l4.6,4.6c0.4,0.4,1,0.7,1.6,0.7c0.6,0,1.2-0.2,1.6-0.7	l4.6-4.6C32,19.2,32.2,18.3,31.8,17.4z"/></svg>