<svg enable-background="new 0 0 32 32" viewBox="0 0 32 32" xmlns="http://www.w3.org/2000/svg">
  <g clip-rule="evenodd" fill-rule="evenodd">
    <path d="m26 32h-20c-3.3 0-6-2.7-6-6v-20c0-3.3 2.7-6 6-6h20c3.3 0 6 2.7 6 6v20c0 3.3-2.7 6-6 6z" fill="#f2f2f2"/>
    <path d="m28 6c0-1.1-.9-2-2-2h-20c-1.1 0-2 .9-2 2v20c0 1.1.9 2 2 2h20c1.1 0 2-.9 2-2z" fill="#4d4d4d"/>
    <path d="m24 26h-16c-1.1 0-2-.9-2-2v-.7c.8-1.7 1.5-3.8 2-4.8 1.1-2.4 3.5 3.5 4.9 3.5 2.8 0 6.2-10.7 9.1-7.4 1.4 1.6 2.9 5.8 4 8.4v1c0 1.1-.9 2-2 2z" fill="#fff"/>
    <path d="m9 6c1.7 0 3 1.3 3 3s-1.3 3-3 3-3-1.3-3-3 1.3-3 3-3z" fill="#ccc"/>
  </g>
</svg>
