<svg xmlns="http://www.w3.org/2000/svg" xmlns:xlink="http://www.w3.org/1999/xlink" id="Calque_1" x="0" y="0" enable-background="new 0 0 32 32" version="1.1" viewBox="0 0 32 32" xml:space="preserve"><rect width="32" height="32" y="0" fill="none"/><path fill="#F2F2F2" fill-rule="evenodd" d="M26,32H6c-3.3,0-6-2.7-6-6V6c0-3.3,2.7-6,6-6h20c3.3,0,6,2.7,6,6	v20C32,29.3,29.3,32,26,32z M28,6c0-1.1-0.9-2-2-2H6C4.9,4,4,4.9,4,6v20c0,1.1,0.9,2,2,2h20c1.1,0,2-0.9,2-2V6z" clip-rule="evenodd"/><rect width="8" height="2" x="16" y="10" fill="#CCC" fill-rule="evenodd" clip-rule="evenodd"/><path fill="#FFF" fill-rule="evenodd" d="M8,18h6v6H8V18z M10,22h2v-2h-2V22z" clip-rule="evenodd"/><path fill="#FFF" fill-rule="evenodd" d="M8,8h6v6H8V8z M10,12h2v-2h-2V12z" clip-rule="evenodd"/><rect width="8" height="2" x="16" y="20" fill="#CCC" fill-rule="evenodd" clip-rule="evenodd"/></svg>