<?xml version="1.0" encoding="UTF-8" standalone="no"?>
<svg
   version="1.1"
   id="Calque_1"
   x="0px"
   y="0px"
   viewBox="0 0 32 32"
   enable-background="new 0 0 32 32"
   xml:space="preserve"
   xmlns="http://www.w3.org/2000/svg"
   xmlns:svg="http://www.w3.org/2000/svg"><defs
   id="defs45" />

<path
   id="path6"
   d="m 6,28 h 20 c 1.1,0 2,-0.9 2,-2 V 9 6 C 28,4.9 27.1,4 26,4 H 6 C 4.9,4 4,4.9 4,6 v 3 17 c 0,1.1 0.9,2 2,2 z"
   fill="none" /><path
   id="path8-7"
   d="M 6,0 C 2.7000033,0 0,2.7000033 0,6 v 3 17 c 0,3.299997 2.7000033,6 6,6 h 20 c 3.299997,0 6,-2.700003 6,-6 V 9 6 C 32,2.7000033 29.299997,0 26,0 Z m 0,4 h 20 c 1.099999,0 2,0.9000011 2,2 v 3 17 c 0,1.099999 -0.900001,2 -2,2 H 6 C 4.9000011,28 4,27.099999 4,26 V 9 6 C 4,4.9000011 4.9000011,4 6,4 Z"
   style="fill:#f2f2f2;fill-opacity:1" /><path
   style="fill:#ffffff;fill-opacity:1;stroke:none;stroke-width:1"
   d="m 16,7.1611009 -8.793231,0.045668 -0.045668,8.7932321 9.575474,8.838898 8.102324,-8.102324 z m -3.682875,2.9463001 c 1.219769,0 2.209725,0.989956 2.209725,2.209725 0,1.219769 -0.989956,2.209725 -2.209725,2.209725 -1.219766,0 -2.209724,-0.989956 -2.209724,-2.209725 0,-1.219769 0.989958,-2.209725 2.209724,-2.209725"
   id="path6042" /></svg>
