<svg xmlns="http://www.w3.org/2000/svg" xmlns:svg="http://www.w3.org/2000/svg" id="Calque_1" x="0" y="0" enable-background="new 0 0 32 32" version="1.1" viewBox="0 0 32 32" xml:space="preserve"><metadata id="metadata45"/><path id="path2" fill="#F2F2F2" fill-rule="evenodd" d="M26,32H6c-3.3,0-6-2.7-6-6V6c0-3.3,2.7-6,6-6h20c3.3,0,6,2.7,6,6 v20C32,29.3,29.3,32,26,32z" clip-rule="evenodd"/><path id="path4" fill="#4D4D4D" fill-rule="evenodd" d="M28,6c0-1.1-0.9-2-2-2H6C4.9,4,4,4.9,4,6v20c0,1.1,0.9,2,2,2h20 c1.1,0,2-0.9,2-2V6z" clip-rule="evenodd"/><g style="stroke:#fff;stroke-opacity:1" id="g881" transform="rotate(29.970903,16,16)"><ellipse id="path845" cx="16" cy="16" rx="8.947" ry="8.947" style="color:#000;display:inline;overflow:visible;visibility:visible;opacity:1;fill:none;fill-opacity:1;fill-rule:nonzero;stroke:#fff;stroke-width:2;stroke-linecap:butt;stroke-linejoin:round;stroke-miterlimit:4;stroke-dasharray:none;stroke-dashoffset:0;stroke-opacity:1;marker:none;enable-background:accumulate"/><ellipse id="path845-3" cx="16" cy="15.947" rx="3.492" ry="8.947" style="color:#000;display:inline;overflow:visible;visibility:visible;opacity:1;fill:none;fill-opacity:1;fill-rule:nonzero;stroke:#fff;stroke-width:2;stroke-linecap:butt;stroke-linejoin:round;stroke-miterlimit:4;stroke-dasharray:none;stroke-dashoffset:0;stroke-opacity:1;marker:none;enable-background:accumulate"/><path style="fill:none;fill-opacity:1;fill-rule:evenodd;stroke:#fff;stroke-width:2;stroke-linecap:butt;stroke-linejoin:miter;stroke-opacity:1" id="path870" d="M 8.1848294,12.430327 C 12.570183,14.790801 20.250652,13.785896 22.94338,12"/><path id="path872" d="M 8.2166335,20.492522 C 12.601987,18.132048 21.148735,17.776739 23.841463,19.562635" style="fill:none;fill-opacity:1;fill-rule:evenodd;stroke:#fff;stroke-width:2;stroke-linecap:butt;stroke-linejoin:miter;stroke-opacity:1"/></g></svg>