<svg enable-background="new 0 0 32 32" viewBox="0 0 32 32" xmlns="http://www.w3.org/2000/svg">
  <metadata/>
  <path clip-rule="evenodd" d="m26 32h-20c-3.3 0-6-2.7-6-6v-20c0-3.3 2.7-6 6-6h20c3.3 0 6 2.7 6 6v20c0 3.3-2.7 6-6 6z" fill="#f2f2f2" fill-rule="evenodd"/>
  <path clip-rule="evenodd" d="m28 6c0-1.1-.9-2-2-2h-20c-1.1 0-2 .9-2 2v20c0 1.1.9 2 2 2h20c1.1 0 2-.9 2-2z" fill="#4d4d4d" fill-rule="evenodd"/>
  <g fill="none" stroke="#fff" stroke-width="2" transform="matrix(.86627921 .49956013 -.49956013 .86627921 10.132495 -5.85343)">
    <ellipse cx="16" cy="16" rx="8.94737" ry="8.947369" stroke-linejoin="round"/>
    <ellipse cx="16" cy="15.947369" rx="3.491525" ry="8.947369" stroke-linejoin="round"/>
    <path d="m8.1848294 12.430327c4.3853536 2.360474 12.0658226 1.355569 14.7585506-.430327"/>
    <path d="m8.2166335 20.492522c4.3853535-2.360474 12.9321015-2.715783 15.6248295-.929887"/>
  </g>
</svg>
