<?xml version="1.0" encoding="utf-8"?>
<!-- Generator: Adobe Illustrator 18.1.0, SVG Export Plug-In . SVG Version: 6.00 Build 0)  -->
<!DOCTYPE svg PUBLIC "-//W3C//DTD SVG 1.1//EN" "http://www.w3.org/Graphics/SVG/1.1/DTD/svg11.dtd">
<svg version="1.1" id="Calque_1" xmlns="http://www.w3.org/2000/svg" xmlns:xlink="http://www.w3.org/1999/xlink" x="0px" y="0px"
	 viewBox="0 0 32 32" enable-background="new 0 0 32 32" xml:space="preserve">
<rect fill-rule="evenodd" clip-rule="evenodd" fill="none" width="32" height="32"/>
<path fill="#B6B5B6" d="M30,28H2c-1.1,0-2-0.9-2-2V8c0-1.1,0.9-2,2-2h28c1.1,0,2,0.9,2,2v18C32,27.1,31.1,28,30,28z"/>
<path fill="#FBFBFB" d="M30,27H2c-1.1,0-2-0.9-2-2V8c0-1.1,0.9-2,2-2h28c1.1,0,2,0.9,2,2v17C32,26.1,31.1,27,30,27z"/>
<g>
	<g id="_x37__9_">
		<g>
			<path fill="#585858" d="M18.9,21.7c-0.2-0.2-0.5-0.2-0.7,0l-1.6,1.6v-6.8c0-0.3-0.2-0.5-0.5-0.5c-0.3,0-0.5,0.2-0.5,0.5v6.8
				l-1.6-1.6c-0.2-0.2-0.5-0.2-0.7,0c-0.2,0.2-0.2,0.5,0,0.7l2.5,2.5C15.7,25,15.9,25,16,25c0.1,0,0.3,0,0.4-0.1l2.5-2.5
				C19.1,22.2,19.1,21.9,18.9,21.7z"/>
		</g>
	</g>
	<path fill="#585858" d="M18,19.5h2.5c1.3-0.8,2.6-2.1,2.5-3.5c-0.1-1.6-1.8-3.6-4.2-3.5C18.4,11,17.2,10,15.5,10
		c-2.2,0-3.5,1.9-3.5,4c-1.7,0.1-3,1.5-3,3c0,2.7,3,2.5,3,2.5s2,0,2,0c0.3,0,0.5,0.2,0.5,0.5s-0.2,0.5-0.5,0.5l-2,0
		c-2.2-0.1-4-1.4-4-3.5c0-1.8,1.3-3.3,3-3.8c0.2-2.3,2.1-4.2,4.5-4.2c1.8,0,3.3,1,4,2.5c2.5,0.1,4.5,2.2,4.5,4.7
		c0,1.9-1.8,3.5-3.5,4.2H18c-0.3,0-0.5-0.2-0.5-0.5S17.7,19.5,18,19.5z"/>
</g>
</svg>
