<?xml version="1.0" encoding="utf-8"?>
<!-- Generator: Adobe Illustrator 18.1.0, SVG Export Plug-In . SVG Version: 6.00 Build 0)  -->
<!DOCTYPE svg PUBLIC "-//W3C//DTD SVG 1.1//EN" "http://www.w3.org/Graphics/SVG/1.1/DTD/svg11.dtd">
<svg version="1.1" id="Calque_1" xmlns="http://www.w3.org/2000/svg" xmlns:xlink="http://www.w3.org/1999/xlink" x="0px" y="0px"
	 viewBox="0 0 24 24" enable-background="new 0 0 24 24" xml:space="preserve">
<rect fill="none" width="24" height="24"/>
<path fill-rule="evenodd" clip-rule="evenodd" fill="#E6E6E6" d="M22,7c0-0.6-0.4-1-1-1h-1.5v2h-7V6H11c-0.6,0-1,0.4-1,1v10
	c0,0.6,0.4,1,1,1h10c0.6,0,1-0.4,1-1V7z"/>
<g id="_x38__6_">
	<g>
		<path fill="#585858" d="M19.5,15h-7c-0.3,0-0.5,0.2-0.5,0.5c0,0.3,0.2,0.5,0.5,0.5h7c0.3,0,0.5-0.2,0.5-0.5
			C20,15.2,19.8,15,19.5,15z M21,5h-1.5V4h-1.3c-0.4-0.6-1.2-1-2.2-1s-1.7,0.4-2.2,1h-1.3v1H11C9.9,5,9,5.9,9,7v10c0,1.1,0.9,2,2,2
			h10c1.1,0,2-0.9,2-2V7C23,5.9,22.1,5,21,5z M13.5,5h1.1c0-0.6,0.6-1,1.4-1s1.4,0.4,1.4,1h1.1v2h-5V5z M22,17c0,0.6-0.4,1-1,1H11
			c-0.6,0-1-0.4-1-1V7c0-0.6,0.4-1,1-1h1.5v2h7V6H21c0.6,0,1,0.4,1,1V17z M19.5,12.5h-7c-0.3,0-0.5,0.2-0.5,0.5
			c0,0.3,0.2,0.5,0.5,0.5h7c0.3,0,0.5-0.2,0.5-0.5C20,12.7,19.8,12.5,19.5,12.5z M19.5,10h-7c-0.3,0-0.5,0.2-0.5,0.5
			c0,0.3,0.2,0.5,0.5,0.5h7c0.3,0,0.5-0.2,0.5-0.5C20,10.2,19.8,10,19.5,10z"/>
	</g>
</g>
<path fill-rule="evenodd" clip-rule="evenodd" fill="#FFFFFF" d="M18.5,5h-1.1c0-0.6-0.6-1-1.4-1c-0.8,0-1.4,0.4-1.4,1h-1.1v2h5V5z"
	/>
</svg>
