<?xml version="1.0" encoding="utf-8"?>
<!-- Generator: Adobe Illustrator 18.1.0, SVG Export Plug-In . SVG Version: 6.00 Build 0)  -->
<!DOCTYPE svg PUBLIC "-//W3C//DTD SVG 1.1//EN" "http://www.w3.org/Graphics/SVG/1.1/DTD/svg11.dtd">
<svg version="1.1" id="Calque_1" xmlns="http://www.w3.org/2000/svg" xmlns:xlink="http://www.w3.org/1999/xlink" x="0px" y="0px"
	 viewBox="0 0 32 32" enable-background="new 0 0 32 32" xml:space="preserve">
<rect fill-rule="evenodd" clip-rule="evenodd" fill="none" width="32" height="32"/>
<path fill="#B6B5B6" d="M30,28H2c-1.1,0-2-0.9-2-2V8c0-1.1,0.9-2,2-2h28c1.1,0,2,0.9,2,2v18C32,27.1,31.1,28,30,28z"/>
<path fill="#FBFBFB" d="M30,27H2c-1.1,0-2-0.9-2-2V8c0-1.1,0.9-2,2-2h28c1.1,0,2,0.9,2,2v17C32,26.1,31.1,27,30,27z"/>
<g>
	<rect x="8" y="9" fill="none" width="16" height="16"/>
	<path fill="#585858" d="M16,8.3c-4.4,0-8,3.6-8,8v8h1.9v-1.9V20v-3.7c0-3.4,2.8-6.1,6.1-6.1c3.4,0,6.1,2.8,6.1,6.1
		c0,3.3-2.6,6-5.9,6.1c-1,0-1.9-0.2-2.3-0.4v-2.6c0.6,0.4,1.3,0.6,2,0.6c2,0,3.7-1.6,3.7-3.7c0-2-1.6-3.7-3.7-3.7
		c-2,0-3.7,1.6-3.7,3.7v8h3.3c0.1,0,0.2,0,0.3,0c4.4,0,8-3.6,8-8S20.4,8.3,16,8.3z"/>
</g>
</svg>
