<?xml version="1.0" encoding="UTF-8" standalone="no"?>
<svg
   xmlns:dc="http://purl.org/dc/elements/1.1/"
   xmlns:cc="http://creativecommons.org/ns#"
   xmlns:rdf="http://www.w3.org/1999/02/22-rdf-syntax-ns#"
   xmlns:svg="http://www.w3.org/2000/svg"
   xmlns="http://www.w3.org/2000/svg"
   xml:space="preserve"
   enable-background="new 0 0 24 24"
   viewBox="0 0 24 24"
   y="0px"
   x="0px"
   id="Calque_1"
   version="1.1"><metadata
     id="metadata22"><rdf:RDF><cc:Work
         rdf:about=""><dc:format>image/svg+xml</dc:format><dc:type
           rdf:resource="http://purl.org/dc/dcmitype/StillImage" /><dc:title></dc:title></cc:Work></rdf:RDF></metadata><defs
     id="defs20" /><path
     id="path2"
     d="M21,20H9c-1.1,0-2-0.9-2-2V6c0-1.1,0.9-2,2-2h12c1.1,0,2,0.9,2,2  v12C23,19.1,22.1,20,21,20z"
     fill="#E6E6E6"
     clip-rule="evenodd"
     fill-rule="evenodd" /><rect
     id="rect4"
     height="24"
     width="24"
     fill="none" /><g
     id="_x36__8_"><g
       id="g8"><path
         style="fill:#585858"
         id="path6"
         d="M 21,4 H 9 C 7.9,4 7,4.9 7,6 v 12 c 0,1.1 0.9,2 2,2 h 12 c 1.1,0 2,-0.9 2,-2 V 6 C 23,4.9 22.1,4 21,4 Z m 1,14 -1,1 H 9 L 8,18 V 6 C 8,5.4 8.4,5 9,5 h 12 c 0.6,0 1,0.4 1,1 z" /></g></g><circle
     style="clip-rule:evenodd;fill:#ffffff;fill-rule:evenodd"
     id="circle11"
     r="1"
     cy="11.559504"
     cx="-3.8492424" /><g
     style="stroke:#585858;stroke-width:1.55746377;stroke-opacity:1"
     transform="matrix(0.55621145,0.32075232,-0.32075232,0.55621145,11.232654,-2.0314203)"
     id="g881"><ellipse
       ry="8.9473686"
       rx="8.9473696"
       cy="16"
       cx="16"
       id="path845"
       style="color:#000000;display:inline;overflow:visible;visibility:visible;opacity:1;fill:none;fill-opacity:1;fill-rule:nonzero;stroke:#585858;stroke-width:1.55746377;stroke-linecap:butt;stroke-linejoin:round;stroke-miterlimit:4;stroke-dasharray:none;stroke-dashoffset:0;stroke-opacity:1;marker:none;enable-background:accumulate" /><ellipse
       ry="8.9473686"
       rx="3.4915254"
       cy="15.947369"
       cx="16"
       id="path845-3"
       style="color:#000000;display:inline;overflow:visible;visibility:visible;opacity:1;fill:none;fill-opacity:1;fill-rule:nonzero;stroke:#585858;stroke-width:1.55746377;stroke-linecap:butt;stroke-linejoin:round;stroke-miterlimit:4;stroke-dasharray:none;stroke-dashoffset:0;stroke-opacity:1;marker:none;enable-background:accumulate" /><path
       style="fill:none;fill-opacity:1;fill-rule:evenodd;stroke:#585858;stroke-width:1.55746377;stroke-linecap:butt;stroke-linejoin:miter;stroke-opacity:1"
       d="M 8.1848294,12.430327 C 12.570183,14.790801 20.662272,13.548526 23.355,11.76263"
       id="path870" /><path
       id="path872"
       d="M 8.2166335,20.492522 C 12.601987,18.132048 21.148735,17.776739 23.841463,19.562635"
       style="fill:none;fill-opacity:1;fill-rule:evenodd;stroke:#585858;stroke-width:1.55746377;stroke-linecap:butt;stroke-linejoin:miter;stroke-opacity:1" /></g></svg>