<svg enable-background="new 0 0 32 32" viewBox="0 0 32 32" xmlns="http://www.w3.org/2000/svg">
  <circle cx="16" cy="16" fill="#f2f2f2" r="12"/>
  <polygon fill="#666" points="17.8 21 17.8 11.9 11.9 11.9 11.9 14.2 14.2 14.2 14.2 21 11.9 21 11.9 23.3 20.1 23.3 20.1 21"/>
  <circle cx="16" cy="8.3" fill="#666" r="1.8"/>
  <path d="m16 4c-4 0-7.6 2-9.7 5-1.5 2-2.3 4.4-2.3 7 0 6.6 5.4 12 12 12s12-5.4 12-12c0-2.6-.8-5-2.3-7-2.1-3-5.7-5-9.7-5z" fill="none"/>
  <path d="m16 4c4 0 7.6 2 9.7 5h4.6c-2.6-5.3-8-9-14.4-9s-11.7 3.7-14.3 9h4.6c2.2-3 5.8-5 9.8-5z" fill="#39b54a"/>
  <path d="m32 16c0-2.6-.6-4.9-1.6-7h-4.6c1.4 2 2.3 4.4 2.3 7 0 6.6-5.4 12-12 12-6.7 0-12.1-5.4-12.1-12 0-2.6.8-5 2.3-7h-4.7c-1 2.1-1.6 4.5-1.6 7 0 8.8 7.2 16 16 16s16-7.1 16-16z" fill="#8c6239"/>
</svg>
