<?xml version="1.0" encoding="utf-8"?>
<!-- Generator: Adobe Illustrator 18.1.0, SVG Export Plug-In . SVG Version: 6.00 Build 0)  -->
<!DOCTYPE svg PUBLIC "-//W3C//DTD SVG 1.1//EN" "http://www.w3.org/Graphics/SVG/1.1/DTD/svg11.dtd">
<svg version="1.1" id="Calque_1" xmlns="http://www.w3.org/2000/svg" xmlns:xlink="http://www.w3.org/1999/xlink" x="0px" y="0px"
	 viewBox="0 0 32 32" enable-background="new 0 0 32 32" xml:space="preserve">
<path fill="#F2F2F2" d="M28,10c0-1.1-0.9-2-2-2H16V6c0-1.1-0.9-2-2-2H6C4.9,4,4,4.9,4,6v20c0,1.1,0.9,2,2,2h20c1.1,0,2-0.9,2-2V10z"
	/>
<rect x="0" fill="none" width="32" height="32"/>
<g>
	<path fill="none" d="M26,8H16V6c0-1.1-0.9-2-2-2H6C4.9,4,4,4.9,4,6v3v17c0,1.1,0.9,2,2,2h20c1.1,0,2-0.9,2-2V10
		c0-0.4-0.1-0.7-0.3-1C27.4,8.4,26.7,8,26,8z"/>
	<path fill="#39B54A" d="M4,6c0-1.1,0.9-2,2-2h8c1.1,0,2,0.9,2,2v2h10c0.7,0,1.4,0.4,1.7,1h4.2C31.4,6.2,29,4,26,4h-6.4
		c-0.8-2.3-3-4-5.6-4H6C2.7,0,0,2.7,0,6v3h4V6z"/>
	<path fill="#8C6239" d="M27.7,9c0.2,0.3,0.3,0.6,0.3,1v16c0,1.1-0.9,2-2,2H6c-1.1,0-2-0.9-2-2V9H0v17c0,3.3,2.7,6,6,6h20
		c3.3,0,6-2.7,6-6V10c0-0.3,0-0.7-0.1-1H27.7z"/>
</g>
<path fill="#C1272D" d="M16,10.2l2.2,4.5l5,0.7L19.6,19l0.8,4.9L16,21.6l-4.4,2.3l0.8-4.9l-3.6-3.5l5-0.7L16,10.2z"/>
</svg>
