<svg enable-background="new 0 0 32 32" viewBox="0 0 32 32" xmlns="http://www.w3.org/2000/svg">
  <circle clip-rule="evenodd" cx="16" cy="16" fill="#f2f2f2" fill-rule="evenodd" r="12"/>
  <path d="m16 4c-4 0-7.6 2-9.7 5-1.5 2-2.3 4.4-2.3 7 0 6.6 5.4 12 12 12s12-5.4 12-12c0-2.6-.8-5-2.3-7-2.1-3-5.7-5-9.7-5z" fill="none"/>
  <path d="m16 4c4 0 7.6 2 9.7 5h4.6c-2.6-5.3-8-9-14.4-9-6.2 0-11.7 3.7-14.3 9h4.6c2.2-3 5.8-5 9.8-5z" fill="#39b54a"/>
  <path d="m25.7 9c1.4 2 2.3 4.4 2.3 7 0 6.6-5.4 12-12 12s-12-5.4-12-12c0-2.6.8-5 2.3-7h-4.7c-1 2.1-1.6 4.5-1.6 7 0 8.8 7.2 16 16 16s16-7.2 16-16c0-2.5-.6-4.9-1.6-7z" fill="#8c6239"/>
  <path clip-rule="evenodd" d="m16 6 2.9 6 6.6 1-4.8 4.6 1.1 6.5-5.8-3.1-5.9 3.1 1.1-6.5-4.8-4.6 6.6-1z" fill="#c1272d" fill-rule="evenodd"/>
</svg>
