<svg height="32" width="32" xmlns="http://www.w3.org/2000/svg">
  <metadata/>
  <path clip-rule="evenodd" d="m28 6c0-1.1-.9-2-2-2h-20c-1.1 0-2 .9-2 2v20c0 1.1.9 2 2 2h20c1.1 0 2-.9 2-2z" fill="#f2f2f2" fill-rule="evenodd"/>
  <g fill="#c1272d" transform="matrix(.0361121 0 0 .0361121 6.521838 6.021836)">
    <path d="m226.434 249.503c0-6.995-2.705-13.403-7.846-18.556l-156.788-156.782c-5.128-5.141-11.554-7.852-18.568-7.852-7.026 0-13.452 2.717-18.556 7.846l-16.83 16.83c-5.129 5.135-7.84 11.549-7.84 18.538 0 7.026 2.717 13.452 7.846 18.556l121.415 121.42-121.427 121.433c-5.129 5.135-7.84 11.555-7.84 18.55 0 7.02 2.717 13.439 7.846 18.544l16.775 16.774c5.116 5.165 11.555 7.895 18.611 7.895 7.044 0 13.47-2.723 18.556-7.846l156.813-156.8c5.128-5.14 7.833-11.549 7.833-18.55z"/>
    <path d="m498.866 384.951h-323.02c-7.203 0-13.611 2.583-18.581 7.528-4.896 4.92-7.484 11.327-7.484 18.531v21.536c0 7.252 2.607 13.672 7.491 18.543 4.915 4.927 11.34 7.528 18.574 7.528h323.02c7.239 0 13.659-2.607 18.531-7.497 4.927-4.908 7.533-11.334 7.533-18.58v-21.537c0-7.209-2.589-13.616-7.54-18.592-4.913-4.877-11.321-7.46-18.524-7.46z"/>
  </g>
  <path d="m6 28h20c1.1 0 2-.9 2-2v-17-3c0-1.1-.9-2-2-2h-20c-1.1 0-2 .9-2 2v3 17c0 1.1.9 2 2 2z" fill="none"/>
  <path d="m26 0h-20c-3.3 0-6 2.7-6 6v3h4v-3c0-1.1.9-2 2-2h20c1.1 0 2 .9 2 2v3h4v-3c0-3.3-2.7-6-6-6z" fill="#39b54a"/>
  <path d="m28 26c0 1.1-.9 2-2 2h-20c-1.1 0-2-.9-2-2v-17h-4v17c0 3.3 2.7 6 6 6h20c3.3 0 6-2.7 6-6v-17h-4z" fill="#8c6239"/>
</svg>
