<?xml version="1.0" encoding="UTF-8" standalone="no"?>
<svg
   version="1.1"
   id="Calque_1"
   x="0px"
   y="0px"
   viewBox="0 0 32 32"
   enable-background="new 0 0 32 32"
   xml:space="preserve"
   xmlns="http://www.w3.org/2000/svg"
   xmlns:svg="http://www.w3.org/2000/svg"><defs
   id="defs21">
</defs>
<circle
   fill="none"
   cx="8.9659033"
   cy="10"
   r="2"
   id="circle6" /><path
   fill="none"
   d="M 8.9659036,28 H 22.965904 c 1.1,0 2,-0.9 2,-2 V 15 14 H 6.9659036 v 1 11 c 0,1.1 0.9,2 2,2 z"
   id="path8" /><path
   fill="#39b54a"
   d="M 7.2338527,4.153846 V 8.9999996 H 9.9070509 21.936442 24.609641 V 4.153846 C 24.609641,1.8692307 22.805232,0 20.599844,0 H 11.24365 C 9.0382615,0 7.2338527,1.8692307 7.2338527,4.153846 Z"
   id="path10"
   style="stroke-width:0.999996" /><g
   id="g2238"
   transform="translate(0.0340962)"><path
     fill="#f2f2f2"
     d="m 6.9659036,26 c 0,1.1 0.9,2 2,2 H 22.965904 c 1.1,0 2,-0.9 2,-2 V 12.091433 H 6.9659036 Z"
     id="path2" /><path
     fill="#8c6239"
     d="m 24.965904,26 c 0,1.1 -0.9,2 -2,2 H 8.9659036 c -1.1,0 -2,-0.9 -2,-2 V 12.091433 h -4 V 26 c 0,3.3 2.7,6 6,6 H 22.965904 c 3.3,0 6,-2.7 6,-6 V 12.091433 h -4 z"
     id="path12" /></g>
<rect
   style="fill:#8c6239;fill-opacity:1;stroke:none;stroke-width:8.79999e-07;stroke-linecap:round;stroke-linejoin:round"
   id="rect587"
   width="32"
   height="4"
   x="0"
   y="9"
   rx="2"
   ry="2" /><rect
   style="fill:#000000;fill-opacity:0;stroke:none;stroke-width:0.000000879999;stroke-linecap:round;stroke-linejoin:round"
   id="rect2311"
   width="29.020048"
   height="4"
   x="1.4899759"
   y="7.1611009"/></svg>
