<svg enable-background="new 0 0 32 32" viewBox="0 0 32 32" xmlns="http://www.w3.org/2000/svg">
  <path d="m28 10c0-1.1-.9-2-2-2h-10v-2c0-1.1-.9-2-2-2h-8c-1.1 0-2 .9-2 2v20c0 1.1.9 2 2 2h20c1.1 0 2-.9 2-2z" fill="#f2f2f2"/>
  <rect fill="none" height="32" width="32"/>
  <path d="m26 8h-10v-2c0-1.1-.9-2-2-2h-8c-1.1 0-2 .9-2 2v3 17c0 1.1.9 2 2 2h20c1.1 0 2-.9 2-2v-16c0-.4-.1-.7-.3-1-.3-.6-1-1-1.7-1z" fill="none"/>
  <path d="m4 6c0-1.1.9-2 2-2h8c1.1 0 2 .9 2 2v2h10c.7 0 1.4.4 1.7 1h4.2c-.5-2.8-2.9-5-5.9-5h-6.4c-.8-2.3-3-4-5.6-4h-8c-3.3 0-6 2.7-6 6v3h4z" fill="#39b54a"/>
  <path d="m27.7 9c.2.3.3.6.3 1v16c0 1.1-.9 2-2 2h-20c-1.1 0-2-.9-2-2v-17h-4v17c0 3.3 2.7 6 6 6h20c3.3 0 6-2.7 6-6v-16c0-.3 0-.7-.1-1z" fill="#8c6239"/>
  <path clip-rule="evenodd" d="m19.283635 21.196352c-.312728.234545-.625454.312728-.938181.312728-.234546 0-.469091-.07819-.703637-.156365-.547272-.234544-.859999-.781818-.859999-1.407271v-1.485455-.07817c-4.925453 0-9.1472686 3.283635-10.4763592 7.818178-.3127272-1.016367-.4690908-2.032731-.4690908-3.127277 0-6.019996 4.925452-10.945449 10.94545-10.945449v-1.563635c0-.625454.312727-1.172727.859999-1.407272.234546-.07818.469091-.156364.703637-.156364.312727 0 .625453.07817.938181.312727l6.254542 4.690906c.390909.312728.625455.781818.625455 1.250909 0 .469092-.234546.938182-.625455 1.250908z" fill="#009245" fill-rule="evenodd"/>
</svg>
