<svg enable-background="new 0 0 32 32" viewBox="0 0 32 32" xmlns="http://www.w3.org/2000/svg">
  <metadata/>
  <circle cx="16" cy="16" fill="#f2f2f2" r="12"/>
  <path d="m16 4c-4 0-7.6 2-9.7 5-1.5 2-2.3 4.4-2.3 7 0 6.6 5.4 12 12 12s12-5.4 12-12c0-2.6-.8-5-2.3-7-2.1-3-5.7-5-9.7-5z" fill="none"/>
  <path d="m16 4c4 0 7.6 2 9.7 5h4.6c-2.6-5.3-8-9-14.4-9s-11.7 3.7-14.3 9h4.6c2.2-3 5.8-5 9.8-5z" fill="#39b54a"/>
  <path d="m32 16c0-2.6-.6-4.9-1.6-7h-4.6c1.4 2 2.3 4.4 2.3 7 0 6.6-5.4 12-12 12-6.7 0-12.1-5.4-12.1-12 0-2.6.8-5 2.3-7h-4.7c-1 2.1-1.6 4.5-1.6 7 0 8.8 7.2 16 16 16s16-7.1 16-16z" fill="#8c6239"/>
  <g fill="#666">
    <path d="m-20.968435 13.920532c0 .6381-.07293 1.239737-.218777 1.804911-.145852.565174-.401092 1.066538-.76572 1.504093-.401092.492249-.774836.902456-1.121233 1.230621-.346397.328166-.656332.6381-.929803.929803-.25524.273471-.464902.556059-.628985.847762-.145851.291703-.218777.656331-.218777 1.093885v.38286h-3.144921v-.984497c0-.601637.136736-1.221505.410207-1.859605.273471-.656332.756604-1.285316 1.449399-1.886953.346397-.309935.638099-.583406.875108-.820415.237009-.25524.428439-.492248.57429-.711025.145851-.237009.246124-.483133.300819-.738373.05469-.273471.08204-.57429.08204-.902456 0-.528711-.12762-.984497-.38286-1.367357-.237009-.401091-.656331-.601637-1.257968-.601637-1.057423 0-1.640829.692794-1.750218 2.078383h-3.06288c.01823-.747489.145853-1.431167.38286-2.051036.237009-.6381.565175-1.185043.984498-1.640829.419323-.474017.920687-.8386455 1.504092-1.0938855.601637-.25524 1.2762-.38286 2.023689-.38286.838646 0 1.567903.1367357 2.187771.4102072.619869.25524 1.130349.6198684 1.53144 1.0938853.401092.455786.692795 1.002729.875109 1.640829.200546.619869.300819 1.294432.30082 2.023689z" transform="translate(41.863574 -2.009264)"/>
    <circle cx="15.474584" cy="23.457342" r="1.8"/>
  </g>
</svg>
