<svg enable-background="new 0 0 32 32" viewBox="0 0 32 32" xmlns="http://www.w3.org/2000/svg">
  <metadata/>
  <path clip-rule="evenodd" d="m28 6c0-1.1-.9-2-2-2h-20c-1.1 0-2 .9-2 2v20c0 1.1.9 2 2 2h20c1.1 0 2-.9 2-2z" fill="#f2f2f2" fill-rule="evenodd"/>
  <path d="m6 28h20c1.1 0 2-.9 2-2v-17-3c0-1.1-.9-2-2-2h-20c-1.1 0-2 .9-2 2v3 17c0 1.1.9 2 2 2z" fill="none"/>
  <path d="m26 0h-20c-3.3 0-6 2.7-6 6v3h4v-3c0-1.1.9-2 2-2h20c1.1 0 2 .9 2 2v3h4v-3c0-3.3-2.7-6-6-6z" fill="#39b54a"/>
  <path d="m28 26c0 1.1-.9 2-2 2h-20c-1.1 0-2-.9-2-2v-17h-4v17c0 3.3 2.7 6 6 6h20c3.3 0 6-2.7 6-6v-17h-4z" fill="#8c6239"/>
  <path d="m9.1897919 10.114302c-.483841 0-.901102.341924-.996278.815883l-2.029453 10.155454c-.110056.55031.246086 1.083011.795382 1.193069.556201.113982 1.084021-.246085 1.193073-.79538l.651882-3.247121h2.8699321l.647785 3.247121c.110996.557485.658771.906193 1.197171.79538.549363-.110056.905437-.642759.795381-1.193069l-2.029453-10.155454c-.09517-.473959-.512431-.815883-.996274-.815883zm.614982 2.287746h.4345931l.811779 4.063002h-2.0581511zm10.9057381-2.7018343c-.561209 0-1.016777.4578073-1.016777 1.0208753v1.016774h-3.046227c-.561204 0-1.012672.457809-1.012672 1.020876 0 .563065.451466 1.016776 1.012672 1.016776h.274696c.577658 1.85973 1.425829 3.313572 2.37794 4.460692-.745862.684158-1.478369 1.245052-2.271343 1.873653-.437271.35118-.506831.995228-.155795 1.434967.349411.439057.990377.507857 1.426766.155794.861615-.682321 1.601995-1.252055 2.410742-1.996652.808748.744597 1.618828 1.314331 2.480441 1.996652.436393.352059 1.077353.283261 1.426766-.155794.351038-.439739.277375-1.083787-.159884-1.434967-.792979-.628601-1.591082-1.189495-2.336946-1.873653.952113-1.147188 1.869915-2.601029 2.447642-4.460692h.270592c.561209 0 1.016774-.453711 1.016774-1.016776 0-.563067-.455565-1.020876-1.016774-1.020876h-3.111838v-1.016774c0-.563068-.455567-1.0208753-1.016775-1.0208753zm-1.668658 4.0753013h3.402916c-.438423 1.181552-1.08891 2.13806-1.734258 2.951929-.645345-.813869-1.230238-1.770309-1.668658-2.951929z" fill="#c1272d"/>
</svg>
