<?xml version="1.0" encoding="UTF-8" standalone="no"?>
<svg
   version="1.1"
   id="Calque_1"
   x="0px"
   y="0px"
   viewBox="0 0 32 32"
   enable-background="new 0 0 32 32"
   xml:space="preserve"
   xmlns="http://www.w3.org/2000/svg"
   xmlns:svg="http://www.w3.org/2000/svg"><defs
   id="defs45" />

<path
   style="color:#000000;fill:#8c6239;fill-opacity:1;stroke-width:0.999996;stroke-linecap:round;stroke-linejoin:round;paint-order:markers stroke fill"
   d="M 9.0277705,1.5430089 C 6.4409319,1.6400426 3.9852419,3.7549517 3.985242,6.5450423 V 24.700962 c -8e-7,3.720121 4.3665092,6.239738 7.586682,4.376999 l 15.687475,-9.074438 c 3.218968,-1.862044 3.218969,-6.899 0,-8.761041 L 11.571924,2.1680429 C 10.766881,1.7023586 9.8900501,1.5106643 9.0277705,1.5430089 Z m 2.1691325,8.7399131 9.231137,5.34008 -9.231137,5.34008 z"
   id="path11889" /><path
   id="path11895"
   style="color:#000000;fill:#39b54a;fill-opacity:1;stroke-width:0.999996;stroke-linecap:round;stroke-linejoin:round;paint-order:markers stroke fill"
   d="M 9.3517318,1.541286 C 9.2436609,1.5382303 9.1355552,1.5390036 9.0277705,1.5430466 6.4409344,1.6400802 3.9852418,3.7549923 3.9852419,6.54508 V 9.6526439 H 24.511009 L 11.571923,2.1680807 C 10.867511,1.7606073 10.108228,1.5626759 9.3517318,1.541286 Z" /><path
   style="color:#000000;fill:#f2f2f2;stroke-width:8;stroke-linecap:round;stroke-linejoin:round;-inkscape-stroke:none;paint-order:markers stroke fill"
   d="M 25.454197,16.881861 9.7664962,25.956555 A 1.4501236,1.4501236 0 0 1 7.5902671,24.701314 V 6.544692 A 1.4501239,1.4501239 0 0 1 9.7664964,5.289451 l 15.6876996,9.074691 a 1.4543042,1.4543042 0 0 1 1e-6,2.517719 z"
   id="path11897" /></svg>
