<svg enable-background="new 0 0 32 32" viewBox="0 0 32 32" xmlns="http://www.w3.org/2000/svg">
  <g stroke-linecap="round" stroke-linejoin="round">
    <path d="m9.0277705 1.5430089c-2.5868386.0970337-5.0425286 2.2119428-5.0425285 5.0020334v18.1559197c-.0000008 3.720121 4.3665092 6.239738 7.586682 4.376999l15.687475-9.074438c3.218968-1.862044 3.218969-6.899 0-8.761041l-15.687475-9.0744391c-.805043-.4656843-1.6818739-.6573786-2.5441535-.625034zm2.1691325 8.7399131 9.231137 5.34008-9.231137 5.34008z" fill="#8c6239" stroke-width=".999996"/>
    <path d="m9.3517318 1.541286c-.1080709-.0030557-.2161766-.0022824-.3239613.0017606-2.5868361.0970336-5.0425287 2.2119457-5.0425286 5.0020334v3.1075639h20.5257671l-12.939086-7.4845632c-.704412-.4074734-1.463695-.6054048-2.2201912-.6267947z" fill="#39b54a" stroke-width=".999996"/>
    <path d="m25.454197 16.881861-15.6877008 9.074694a1.4501236 1.4501236 0 0 1 -2.1762291-1.255241v-18.156622a1.4501239 1.4501239 0 0 1 2.1762293-1.255241l15.6876996 9.074691a1.4543042 1.4543042 0 0 1 .000001 2.517719z" fill="#f2f2f2" stroke-width="8"/>
  </g>
</svg>
