<svg enable-background="new 0 0 32 32" viewBox="0 0 32 32" xmlns="http://www.w3.org/2000/svg">
  <path clip-rule="evenodd" d="m28 6c0-1.1-.9-2-2-2h-20c-1.1 0-2 .9-2 2v20c0 1.1.9 2 2 2h20c1.1 0 2-.9 2-2z" fill="#f2f2f2" fill-rule="evenodd"/>
  <path clip-rule="evenodd" d="m16 6.4 2.9 6 6.6 1-4.8 4.6 1.1 6.5-5.8-3.1-5.9 3.1 1.1-6.5-4.8-4.6 6.6-1z" fill="#c1272d" fill-rule="evenodd"/>
  <path d="m6 28h20c1.1 0 2-.9 2-2v-17-3c0-1.1-.9-2-2-2h-20c-1.1 0-2 .9-2 2v3 17c0 1.1.9 2 2 2z" fill="none"/>
  <path d="m26 0h-20c-3.3 0-6 2.7-6 6v3h4v-3c0-1.1.9-2 2-2h20c1.1 0 2 .9 2 2v3h4v-3c0-3.3-2.7-6-6-6z" fill="#39b54a"/>
  <path d="m28 26c0 1.1-.9 2-2 2h-20c-1.1 0-2-.9-2-2v-17h-4v17c0 3.3 2.7 6 6 6h20c3.3 0 6-2.7 6-6v-17h-4z" fill="#8c6239"/>
</svg>
