<svg enable-background="new 0 0 32 32" viewBox="0 0 32 32" xmlns="http://www.w3.org/2000/svg">
  <polygon fill="none" points="30 0 30 0 30 0"/>
  <polygon fill="none" points="2 0 2 0 2 0"/>
  <path d="m30 0c-.1 0-.1 0-.2 0-13.8.4-13.8 4-13.8 4s0-3.6-13.8-4c-.1 0-.1 0-.2 0-1.1 0-2 .9-2 2v7h32v-7c0-1.1-.9-2-2-2z" fill="#39b54a"/>
  <path d="m0 26c0 1.1.9 2 2 2 3.1.1 8.9.7 12.1 2.3.2 1 .9 1.7 1.9 1.7s1.8-.7 1.9-1.7c3.2-1.6 9-2.2 12.1-2.3 1.1 0 2-.9 2-2v-17h-32z" fill="#8c6239"/>
  <g clip-rule="evenodd" fill="#f2f2f2" fill-rule="evenodd">
    <path d="m14 6.3c-2.6-1.3-6.8-1.9-10-2.1v19.9c5.4.3 8.4 1.1 10 1.9z"/>
    <path d="m28 4.2c-3.2.2-7.4.8-10 2.1v19.7c1.6-.8 4.6-1.6 10-1.9z"/>
  </g>
</svg>
