<svg enable-background="new 0 0 32 32" viewBox="0 0 32 32" xmlns="http://www.w3.org/2000/svg">
  <rect fill="none" height="32" width="32"/>
  <circle cx="6" cy="4" fill="none" r="2"/>
  <path d="m26 0h-20c-3.3 0-6 2.7-6 6v3h32v-3c0-3.3-2.7-6-6-6zm-20 6c-1.1 0-2-.9-2-2s.9-2 2-2 2 .9 2 2-.9 2-2 2z" fill="#39b54a"/>
  <path d="m0 26c0 3.3 2.7 6 6 6h20c3.3 0 6-2.7 6-6v-17h-32z" fill="#8c6239"/>
  <path d="m28 8h-24v18c0 1.1.9 2 2 2h20c1.1 0 2-.9 2-2z" fill="#f2f2f2"/>
  <path d="m20 20h-2v2c0 1.1-.9 2-2 2s-2-.9-2-2v-2h-2c-1.1 0-2-.9-2-2s.9-2 2-2h2v-2c0-1.1.9-2 2-2s2 .9 2 2v2h2c1.1 0 2 .9 2 2s-.9 2-2 2z" fill="#009245"/>
</svg>
