<?xml version="1.0" encoding="utf-8"?>
<!-- Generator: Adobe Illustrator 18.1.0, SVG Export Plug-In . SVG Version: 6.00 Build 0)  -->
<!DOCTYPE svg PUBLIC "-//W3C//DTD SVG 1.1//EN" "http://www.w3.org/Graphics/SVG/1.1/DTD/svg11.dtd">
<svg version="1.1" id="Calque_1" xmlns="http://www.w3.org/2000/svg" xmlns:xlink="http://www.w3.org/1999/xlink" x="0px" y="0px"
	 viewBox="0 0 32 32" enable-background="new 0 0 32 32" xml:space="preserve">
<rect fill="none" width="32" height="32"/>
<g>
	<circle fill="none" cx="6" cy="4" r="2"/>
	<path fill="#39B54A" d="M26,0H6C2.7,0,0,2.7,0,6v3h32V6C32,2.7,29.3,0,26,0z M6,6C4.9,6,4,5.1,4,4c0-1.1,0.9-2,2-2c1.1,0,2,0.9,2,2
		C8,5.1,7.1,6,6,6z"/>
	<path fill="#8C6239" d="M0,26c0,3.3,2.7,6,6,6h20c3.3,0,6-2.7,6-6V9H0V26z"/>
</g>
<path fill="#F2F2F2" d="M28,8H4v18c0,1.1,0.9,2,2,2h20c1.1,0,2-0.9,2-2V8z"/>
<path fill="#009245" d="M20,20h-2v2c0,1.1-0.9,2-2,2s-2-0.9-2-2v-2h-2c-1.1,0-2-0.9-2-2s0.9-2,2-2h2v-2c0-1.1,0.9-2,2-2s2,0.9,2,2v2
	h2c1.1,0,2,0.9,2,2S21.1,20,20,20z"/>
</svg>
