<svg enable-background="new 0 0 32 32" viewBox="0 0 32 32" xmlns="http://www.w3.org/2000/svg">
  <polygon fill="none" points="0 6 0 6 0 26 0 26 0 9"/>
  <polygon fill="none" points="32 6 32 9 32 26 32 26 32 6"/>
  <path d="m32 9v-3c0-3.3-2.7-6-6-6h-20c-3.3 0-6 2.7-6 6v3z" fill="#39b54a"/>
  <path d="m0 9v17c0 3.3 2.7 6 6 6h20c3.3 0 6-2.7 6-6v-17z" fill="#8c6239"/>
  <g clip-rule="evenodd" fill-rule="evenodd">
    <path d="m28 6c0-1.1-.9-2-2-2h-20c-1.1 0-2 .9-2 2v20c0 1.1.9 2 2 2h20c1.1 0 2-.9 2-2z" fill="#f2f2f2"/>
    <g fill="#666">
      <rect height="2" width="16" x="8" y="16"/>
      <rect height="2" width="16" x="8" y="12"/>
      <rect height="2" width="16" x="8" y="8"/>
      <rect height="2" width="8" x="8" y="20"/>
    </g>
  </g>
</svg>
