<svg xmlns="http://www.w3.org/2000/svg" xmlns:xlink="http://www.w3.org/1999/xlink" id="Calque_1" x="0" y="0" enable-background="new 0 0 32 32" version="1.1" viewBox="0 0 32 32" xml:space="preserve"><g><rect width="20" height="0" x="6" y="0" fill="none"/><polygon fill="none" points="0 6 0 6 0 26 0 26 0 9"/><polygon fill="none" points="32 6 32 9 32 26 32 26 32 6"/><path fill="#39B54A" d="M32,9V6c0-3.3-2.7-6-6-6H6C2.7,0,0,2.7,0,6v3H32z"/><path fill="#8C6239" d="M0,9v17c0,3.3,2.7,6,6,6h20c3.3,0,6-2.7,6-6V9H0z"/></g><path fill="#F2F2F2" fill-rule="evenodd" d="M28,6c0-1.1-0.9-2-2-2H6C4.9,4,4,4.9,4,6v20c0,1.1,0.9,2,2,2h20	c1.1,0,2-0.9,2-2V6z" clip-rule="evenodd"/><g><rect width="16" height="2" x="8" y="16" fill="#666" fill-rule="evenodd" clip-rule="evenodd"/><rect width="16" height="2" x="8" y="12" fill="#666" fill-rule="evenodd" clip-rule="evenodd"/><rect width="16" height="2" x="8" y="8" fill="#666" fill-rule="evenodd" clip-rule="evenodd"/><rect width="8" height="2" x="8" y="20" fill="#666" fill-rule="evenodd" clip-rule="evenodd"/></g></svg>