<svg enable-background="new -463 265 32 32" viewBox="-463 265 32 32" xmlns="http://www.w3.org/2000/svg">
  <rect fill="none" height="32" width="32" x="-463" y="265"/>
  <path d="m-447 265c-8.8 0-16 7.2-16 16v16h15.3.7c8.8 0 16-7.2 16-16s-7.2-16-16-16z" fill="#f15a24"/>
  <path d="m-447 268.7c-6.8 0-12.3 5.5-12.3 12.3v7.3 5 3.7h4.9v-16c0-4.1 3.3-7.3 7.3-7.3s7.3 3.3 7.3 7.3c0 4.1-3.3 7.3-7.3 7.3-1.5 0-2.9-.4-4-1.2v5.3c.8.5 2.5.8 4.6.8 6.5-.3 11.7-5.7 11.7-12.3.1-6.7-5.4-12.2-12.2-12.2z" fill="#fff"/>
</svg>
