<svg xmlns="http://www.w3.org/2000/svg" xmlns:xlink="http://www.w3.org/1999/xlink" id="Calque_1" x="0" y="0" enable-background="new -463 265 32 32" version="1.1" viewBox="-463 265 32 32" xml:space="preserve"><rect width="32" height="32" x="-463" y="265" fill="none"/><path fill="#F15A24" d="M-447,265c-8.8,0-16,7.2-16,16v16h15.3c0.2,0,0.4,0,0.7,0c8.8,0,16-7.2,16-16S-438.2,265-447,265L-447,265z"/><path fill="#FFF" d="M-447,268.7c-6.8,0-12.3,5.5-12.3,12.3v7.3v5v3.7h4.9v-16c0-4.1,3.3-7.3,7.3-7.3s7.3,3.3,7.3,7.3	c0,4.1-3.3,7.3-7.3,7.3c-1.5,0-2.9-0.4-4-1.2v5.3c0.8,0.5,2.5,0.8,4.6,0.8c6.5-0.3,11.7-5.7,11.7-12.3	C-434.7,274.2-440.2,268.7-447,268.7L-447,268.7z"/></svg>