<?xml version="1.0" encoding="utf-8"?>
<!-- Generator: Adobe Illustrator 18.1.0, SVG Export Plug-In . SVG Version: 6.00 Build 0)  -->
<!DOCTYPE svg PUBLIC "-//W3C//DTD SVG 1.1//EN" "http://www.w3.org/Graphics/SVG/1.1/DTD/svg11.dtd">
<svg version="1.1" id="Calque_1" xmlns="http://www.w3.org/2000/svg" xmlns:xlink="http://www.w3.org/1999/xlink" x="0px" y="0px"
	 viewBox="-463 265 32 32" enable-background="new -463 265 32 32" xml:space="preserve">
<path fill-rule="evenodd" clip-rule="evenodd" fill="#8C6239" d="M-441.1,269h-10.3c-0.8-2.3-3-4-5.6-4c-3.3,0-6,2.7-6,6s2.7,6,6,6
	c2.6,0,4.8-1.7,5.6-4h10.3c1.1,0,2,0.9,2,2v1.4h4V275C-435.1,271.7-437.8,269-441.1,269z M-457,273c-1.1,0-2-0.9-2-2s0.9-2,2-2
	c1.1,0,2,0.9,2,2S-455.9,273-457,273z"/>
<path fill-rule="evenodd" clip-rule="evenodd" fill="#754C24" d="M-439.1,285.6v1.4c0,1.1-0.9,2-2,2h-10.3c-0.8-2.3-3-4-5.6-4
	c-3.3,0-6,2.7-6,6s2.7,6,6,6c2.6,0,4.8-1.7,5.6-4h10.3c3.3,0,6-2.7,6-6v-1.4H-439.1z M-457,293c-1.1,0-2-0.9-2-2s0.9-2,2-2
	c1.1,0,2,0.9,2,2S-455.9,293-457,293z"/>
<g>
	<path fill-rule="evenodd" clip-rule="evenodd" fill="#C1272D" d="M-431,287h-12v-12h12V287z M-435,279h-4v4h4V279z"/>
</g>
</svg>
