<svg xmlns="http://www.w3.org/2000/svg" xmlns:xlink="http://www.w3.org/1999/xlink" id="Calque_1" x="0" y="0" enable-background="new -463 265 32 32" version="1.1" viewBox="-463 265 32 32" xml:space="preserve"><path fill="#8C6239" fill-rule="evenodd" d="M-441.1,269h-10.3c-0.8-2.3-3-4-5.6-4c-3.3,0-6,2.7-6,6s2.7,6,6,6	c2.6,0,4.8-1.7,5.6-4h10.3c1.1,0,2,0.9,2,2v1.4h4V275C-435.1,271.7-437.8,269-441.1,269z M-457,273c-1.1,0-2-0.9-2-2s0.9-2,2-2	c1.1,0,2,0.9,2,2S-455.9,273-457,273z" clip-rule="evenodd"/><path fill="#754C24" fill-rule="evenodd" d="M-439.1,285.6v1.4c0,1.1-0.9,2-2,2h-10.3c-0.8-2.3-3-4-5.6-4	c-3.3,0-6,2.7-6,6s2.7,6,6,6c2.6,0,4.8-1.7,5.6-4h10.3c3.3,0,6-2.7,6-6v-1.4H-439.1z M-457,293c-1.1,0-2-0.9-2-2s0.9-2,2-2	c1.1,0,2,0.9,2,2S-455.9,293-457,293z" clip-rule="evenodd"/><g><path fill="#C1272D" fill-rule="evenodd" d="M-431,287h-12v-12h12V287z M-435,279h-4v4h4V279z" clip-rule="evenodd"/></g></svg>