<svg enable-background="new 0 0 32 32" viewBox="0 0 32 32" xmlns="http://www.w3.org/2000/svg">
  <g clip-rule="evenodd" fill-rule="evenodd">
    <path d="m28 10c0-1.1-.9-2-2-2h-20c-1.1 0-2 .9-2 2v16c0 1.1.9 2 2 2h20c1.1 0 2-.9 2-2z" fill="#f2f2f2"/>
    <path d="m26 4h-4v-2c0-1.1-.9-2-2-2h-8c-1.1 0-2 .9-2 2v2h-4c-3 0-5.4 2.2-5.9 5h4.2c.3-.6 1-1 1.7-1h20c.7 0 1.4.4 1.7 1h4.2c-.5-2.8-2.9-5-5.9-5zm-6 0h-8v-1c0-.6.4-1 1-1h6c.6 0 1 .4 1 1z" fill="#39b54a"/>
    <path d="m31.9 9h-4.2c.2.3.3.6.3 1v4h-24v-4c0-.4.1-.7.3-1h-4.2c-.1.3-.1.7-.1 1v16c0 3.3 2.7 6 6 6h20c3.3 0 6-2.7 6-6v-16c0-.3 0-.7-.1-1zm-17.6 7h3.4c.2.3.3.6.3 1 0 1.1-.9 2-2 2s-2-.9-2-2c0-.4.1-.7.3-1zm11.7 12h-20c-1.1 0-2-.9-2-2v-10h8.1c-.1.3-.1.7-.1 1 0 2.2 1.8 4 4 4s4-1.8 4-4c0-.3-.1-.7-.1-1h8.1v10c0 1.1-.9 2-2 2z" fill="#8c6239"/>
  </g>
</svg>
