<svg enable-background="new 0 0 32 32" viewBox="0 0 32 32" xmlns="http://www.w3.org/2000/svg">
  <rect fill="none" height="32" width="32"/>
  <polygon fill="none" points="26 0 6 0 6 0 26 0"/>
  <path d="m26 0h-20c-3.3 0-6 2.7-6 6v3h32v-3c0-3.3-2.7-6-6-6z" fill="#39b54a"/>
  <path d="m0 26c0 3.3 2.7 6 6 6h20c3.3 0 6-2.7 6-6v-17h-32z" fill="#8c6239"/>
  <g clip-rule="evenodd" fill-rule="evenodd">
    <path d="m28 6c0-1.1-.9-2-2-2h-20c-1.1 0-2 .9-2 2v20c0 1.1.9 2 2 2h20c1.1 0 2-.9 2-2z" fill="#f2f2f2"/>
    <rect fill="#666" height="2" width="8" x="16" y="10"/>
    <rect height="6" width="6" x="8" y="18"/>
    <rect fill="#f2f2f2" height="2" width="2" x="10" y="20"/>
    <rect height="6" width="6" x="8" y="8"/>
    <rect fill="#f2f2f2" height="2" width="2" x="10" y="10"/>
    <rect fill="#666" height="2" width="8" x="16" y="20"/>
  </g>
</svg>
