<?xml version="1.0" encoding="UTF-8" standalone="no"?>
<svg
   xml:space="preserve"
   enable-background="new 0 0 32 32"
   viewBox="0 0 32 32"
   y="0px"
   x="0px"
   id="Calque_1"
   version="1.1"
   sodipodi:docname="shaderpacks.svg"
   inkscape:version="1.1 (c4e8f9ed74, 2021-05-24)"
   xmlns:inkscape="http://www.inkscape.org/namespaces/inkscape"
   xmlns:sodipodi="http://sodipodi.sourceforge.net/DTD/sodipodi-0.dtd"
   xmlns="http://www.w3.org/2000/svg"
   xmlns:svg="http://www.w3.org/2000/svg"
   xmlns:rdf="http://www.w3.org/1999/02/22-rdf-syntax-ns#"
   xmlns:cc="http://creativecommons.org/ns#"
   xmlns:dc="http://purl.org/dc/elements/1.1/"><sodipodi:namedview
     id="namedview14"
     pagecolor="#ffffff"
     bordercolor="#666666"
     borderopacity="1.0"
     inkscape:pageshadow="2"
     inkscape:pageopacity="0.0"
     inkscape:pagecheckerboard="0"
     showgrid="false"
     inkscape:zoom="14.584077"
     inkscape:cx="24.478752"
     inkscape:cy="13.165043"
     inkscape:window-width="2399"
     inkscape:window-height="1183"
     inkscape:window-x="2321"
     inkscape:window-y="798"
     inkscape:window-maximized="0"
     inkscape:current-layer="Calque_1" /><metadata
     id="metadata19"><rdf:RDF><cc:Work
         rdf:about=""><dc:format>image/svg+xml</dc:format><dc:type
           rdf:resource="http://purl.org/dc/dcmitype/StillImage" /></cc:Work></rdf:RDF></metadata><defs
     id="defs17"><linearGradient
   id="linearGradient3249"
   inkscape:swatch="solid"><stop
     style="stop-color:#000000;stop-opacity:1;"
     offset="0"
     id="stop3247" /></linearGradient>
	
	
	

		
	</defs><g
     id="g6"><path
       id="path2"
       d="M26,0H6C2.7,0,0,2.7,0,6v3h32V6C32,2.7,29.3,0,26,0z"
       fill="#39B54A" /><path
       id="path4"
       d="M0,26c0,3.3,2.7,6,6,6h20c3.3,0,6-2.7,6-6V9H0V26z"
       fill="#8C6239" /></g><path
     fill="#F2F2F2"
     fill-rule="evenodd"
     clip-rule="evenodd"
     id="path8"
     d="M28,6c0-1.1-0.9-2-2-2H6C4.9,4,4,4.9,4,6v20c0,1.1,0.9,2,2,2h20  c1.1,0,2-0.9,2-2V6z" /><rect
     x="6.0678372"
     y="6.0678444"
     fill-rule="evenodd"
     clip-rule="evenodd"
     fill="none"
     width="19.864313"
     height="19.864313"
     id="rect838"
     style="stroke-width:1.98049" /><path
     id="polygon840"
     style="clip-rule:evenodd;fill:#294eab;fill-rule:evenodd;stroke-width:3.19043"
     transform="matrix(0.62075979,0,0,0.62075979,293.47962,-158.4335)"
     d="m -433,272.1 v 17.8 l -14,7.1 v -17.8 z" /><path
     id="polygon842"
     style="clip-rule:evenodd;fill:#39b54a;fill-rule:evenodd;stroke-width:3.19043"
     transform="matrix(0.62075979,0,0,0.62075979,293.47962,-158.4335)"
     d="m -461,272.1 v 17.8 l 14,7.1 v -17.8 z" /><path
     id="polygon844"
     style="clip-rule:evenodd;fill:#ed4c31;fill-rule:evenodd;stroke-width:3.19043"
     transform="matrix(0.62075979,0,0,0.62075979,293.47962,-158.4335)"
     d="m -447,265 -14,7.1 14,7.1 14,-7.1 z" /></svg>
