<svg enable-background="new 0 0 32 32" viewBox="0 0 32 32" xmlns="http://www.w3.org/2000/svg">
  <metadata/>
  <path d="m26 0h-20c-3.3 0-6 2.7-6 6v3h32v-3c0-3.3-2.7-6-6-6z" fill="#39b54a"/>
  <path d="m0 26c0 3.3 2.7 6 6 6h20c3.3 0 6-2.7 6-6v-17h-32z" fill="#8c6239"/>
  <g clip-rule="evenodd">
    <path d="m28 6c0-1.1-.9-2-2-2h-20c-1.1 0-2 .9-2 2v20c0 1.1.9 2 2 2h20c1.1 0 2-.9 2-2z" fill="#f2f2f2" fill-rule="evenodd"/>
    <rect fill="none" height="19.864313" stroke-width="1.98049" width="19.864313" x="6.067837" y="6.067844"/>
    <g fill-rule="evenodd" stroke-width="3.19043" transform="matrix(.62075979 0 0 .62075979 293.47962 -158.4335)">
      <path d="m-433 272.1v17.8l-14 7.1v-17.8z" fill="#294eab"/>
      <path d="m-461 272.1v17.8l14 7.1v-17.8z" fill="#39b54a"/>
      <path d="m-447 265-14 7.1 14 7.1 14-7.1z" fill="#ed4c31"/>
    </g>
  </g>
</svg>
