<?xml version="1.0" encoding="UTF-8" standalone="no"?>
<!-- Generator: Adobe Illustrator 18.1.0, SVG Export Plug-In . SVG Version: 6.00 Build 0)  -->

<svg
   version="1.1"
   id="Calque_1"
   x="0px"
   y="0px"
   viewBox="0 0 32 32"
   enable-background="new 0 0 32 32"
   xml:space="preserve"
   sodipodi:docname="shared-content.svg"
   inkscape:version="1.4.4 (dcaf3e7d9e, 2026-05-05)"
   xmlns:inkscape="http://www.inkscape.org/namespaces/inkscape"
   xmlns:sodipodi="http://sodipodi.sourceforge.net/DTD/sodipodi-0.dtd"
   xmlns="http://www.w3.org/2000/svg"
   xmlns:svg="http://www.w3.org/2000/svg"><defs
   id="defs8" /><sodipodi:namedview
   id="namedview8"
   pagecolor="#ffffff"
   bordercolor="#999999"
   borderopacity="1"
   inkscape:showpageshadow="2"
   inkscape:pageopacity="0"
   inkscape:pagecheckerboard="0"
   inkscape:deskcolor="#d1d1d1"
   inkscape:zoom="11.313709"
   inkscape:cx="10.871767"
   inkscape:cy="31.466252"
   inkscape:window-width="2560"
   inkscape:window-height="1371"
   inkscape:window-x="0"
   inkscape:window-y="0"
   inkscape:window-maximized="1"
   inkscape:current-layer="Calque_1" />
<rect
   x="0.011469662"
   y="0.011519462"
   fill="none"
   width="15.809691"
   height="15.809691"
   id="rect1"
   style="stroke-width:0.494052" />
<polygon
   fill="none"
   points="26,0 6,0 "
   id="polygon1"
   transform="matrix(0.49405287,0,0,0.49405287,0.01147057,0.0115199)" />
<path
   fill="#39b54a"
   d="M 12.856846,0.0115199 H 2.9757873 c -1.6303742,0 -2.96431673,1.3339425 -2.96431673,2.9643168 V 4.457995 H 15.821163 V 2.9758367 c 0,-1.6303742 -1.333942,-2.9643168 -2.964317,-2.9643168 z"
   id="path1"
   style="stroke-width:0.494052" />
<path
   fill="#8c6239"
   d="m 0.01147057,12.856897 c 0,1.630374 1.33394243,2.964317 2.96431673,2.964317 h 9.8810587 c 1.630375,0 2.964317,-1.333943 2.964317,-2.964317 V 4.457995 H 0.01147057 Z"
   id="path2"
   style="stroke-width:0.494052" />
<path
   fill-rule="evenodd"
   clip-rule="evenodd"
   fill="#f2f2f2"
   d="m 13.84495,2.9758367 c 0,-0.543456 -0.444648,-0.9881035 -0.988104,-0.9881035 H 2.9757873 c -0.543456,0 -0.9881035,0.4446475 -0.9881035,0.9881035 v 9.8810603 c 0,0.543456 0.4446475,0.988103 0.9881035,0.988103 h 9.8810587 c 0.543456,0 0.988104,-0.444647 0.988104,-0.988103 z"
   id="path3"
   style="stroke-width:0.494052" />
<rect
   x="7.916317"
   y="4.9520493"
   fill-rule="evenodd"
   clip-rule="evenodd"
   fill="#666666"
   width="3.9524229"
   height="0.98810571"
   id="rect3"
   style="stroke-width:0.494052" />
<rect
   x="3.9638939"
   y="8.9044695"
   fill-rule="evenodd"
   clip-rule="evenodd"
   width="2.9643171"
   height="2.9643171"
   id="rect4"
   style="stroke-width:0.494052" />
<rect
   x="4.9519997"
   y="9.8925781"
   fill-rule="evenodd"
   clip-rule="evenodd"
   fill="#f2f2f2"
   width="0.98810571"
   height="0.98810571"
   id="rect5"
   style="stroke-width:0.494052" />
<rect
   x="3.9638939"
   y="3.963943"
   fill-rule="evenodd"
   clip-rule="evenodd"
   width="2.9643171"
   height="2.9643171"
   id="rect6"
   style="stroke-width:0.494052" />
<rect
   x="4.9519997"
   y="4.9520493"
   fill-rule="evenodd"
   clip-rule="evenodd"
   fill="#f2f2f2"
   width="0.98810571"
   height="0.98810571"
   id="rect7"
   style="stroke-width:0.494052" />
<rect
   x="7.916317"
   y="9.8925781"
   fill-rule="evenodd"
   clip-rule="evenodd"
   fill="#666666"
   width="3.9524229"
   height="0.98810571"
   id="rect8"
   style="stroke-width:0.494052" /><rect
   x="16.180176"
   y="16.181252"
   fill="none"
   width="15.809691"
   height="15.809691"
   id="rect1-6"
   style="stroke-width:0.494052" /><polygon
   fill="none"
   points="6,0 26,0 "
   id="polygon1-7"
   transform="matrix(0.49405287,0,0,0.49405287,16.180175,16.181253)" /><path
   fill="#39b54a"
   d="m 29.025551,16.181253 h -9.881059 c -1.630375,0 -2.964317,1.333943 -2.964317,2.964317 v 1.482159 H 31.989868 V 19.14557 c 0,-1.630374 -1.333942,-2.964317 -2.964317,-2.964317 z"
   id="path1-5"
   style="stroke-width:0.494052" /><path
   fill="#8c6239"
   d="m 16.180175,29.02663 c 0,1.630374 1.333942,2.964317 2.964317,2.964317 h 9.881059 c 1.630375,0 2.964317,-1.333943 2.964317,-2.964317 V 20.627729 H 16.180175 Z"
   id="path2-3"
   style="stroke-width:0.494052" /><path
   fill-rule="evenodd"
   clip-rule="evenodd"
   fill="#f2f2f2"
   d="m 30.013655,19.14557 c 0,-0.543456 -0.444648,-0.988103 -0.988104,-0.988103 h -9.881059 c -0.543456,0 -0.988104,0.444647 -0.988104,0.988103 v 9.88106 c 0,0.543456 0.444648,0.988103 0.988104,0.988103 h 9.881059 c 0.543456,0 0.988104,-0.444647 0.988104,-0.988103 z"
   id="path3-5"
   style="stroke-width:0.494052" /><rect
   x="24.085022"
   y="21.121782"
   fill-rule="evenodd"
   clip-rule="evenodd"
   fill="#666666"
   width="3.9524229"
   height="0.98810571"
   id="rect3-6"
   style="stroke-width:0.494052" /><rect
   x="20.132599"
   y="25.074202"
   fill-rule="evenodd"
   clip-rule="evenodd"
   width="2.9643171"
   height="2.9643171"
   id="rect4-2"
   style="stroke-width:0.494052" /><rect
   x="21.120705"
   y="26.062311"
   fill-rule="evenodd"
   clip-rule="evenodd"
   fill="#f2f2f2"
   width="0.98810571"
   height="0.98810571"
   id="rect5-9"
   style="stroke-width:0.494052" /><rect
   x="20.132599"
   y="20.133677"
   fill-rule="evenodd"
   clip-rule="evenodd"
   width="2.9643171"
   height="2.9643171"
   id="rect6-1"
   style="stroke-width:0.494052" /><rect
   x="21.120705"
   y="21.121782"
   fill-rule="evenodd"
   clip-rule="evenodd"
   fill="#f2f2f2"
   width="0.98810571"
   height="0.98810571"
   id="rect7-2"
   style="stroke-width:0.494052" /><rect
   x="24.085022"
   y="26.062311"
   fill-rule="evenodd"
   clip-rule="evenodd"
   fill="#666666"
   width="3.9524229"
   height="0.98810571"
   id="rect8-7"
   style="stroke-width:0.494052" />
<path
   fill-rule="evenodd"
   clip-rule="evenodd"
   fill="#009245"
   d="m 20.660457,10.620565 c -0.151023,-0.201364 -0.201364,-0.402727 -0.201364,-0.60409 0,-0.1510225 0.05035,-0.3020455 0.100682,-0.4530685 0.151022,-0.352386 0.503409,-0.553749 0.906136,-0.553749 h 0.956477 0.05033 c 0,-3.171476 -2.114317,-5.889883 -5.034088,-6.745678 0.654434,-0.201364 1.308866,-0.302046 2.013639,-0.302046 3.876247,0 7.047723,3.171476 7.047723,7.047724 h 1.006818 c 0.402726,0 0.755113,0.201363 0.906135,0.553749 0.05034,0.151023 0.100682,0.302046 0.100682,0.4530685 0,0.201363 -0.05033,0.402726 -0.201363,0.60409 l -3.020452,4.027271 c -0.201364,0.251705 -0.503409,0.402728 -0.805455,0.402728 -0.302046,0 -0.604091,-0.151023 -0.805453,-0.402728 z"
   id="path22733"
   style="stroke-width:0.643895" /><path
   fill-rule="evenodd"
   clip-rule="evenodd"
   fill="#009245"
   d="m 10.66567,21.648749 c 0.151023,0.201364 0.201364,0.402727 0.201364,0.60409 0,0.151022 -0.05035,0.302045 -0.100682,0.453068 -0.151022,0.352386 -0.503409,0.553749 -0.906136,0.553749 H 8.903739 8.853409 c 0,3.171476 2.114317,5.889883 5.034088,6.745678 -0.654434,0.201364 -1.308866,0.302046 -2.013639,0.302046 -3.876247,0 -7.047723,-3.171476 -7.047723,-7.047724 H 3.819317 c -0.402726,0 -0.755113,-0.201363 -0.906135,-0.553749 C 2.862842,22.554884 2.8125,22.403861 2.8125,22.252839 c 0,-0.201363 0.05033,-0.402726 0.201363,-0.60409 L 6.034315,17.621478 C 6.235679,17.369773 6.537724,17.21875 6.83977,17.21875 c 0.302046,0 0.604091,0.151023 0.805453,0.402728 z"
   id="path22733-9"
   style="stroke-width:0.643895" /></svg>
