<?xml version="1.0" encoding="utf-8"?>
<!-- Generator: Adobe Illustrator 18.1.0, SVG Export Plug-In . SVG Version: 6.00 Build 0)  -->
<!DOCTYPE svg PUBLIC "-//W3C//DTD SVG 1.1//EN" "http://www.w3.org/Graphics/SVG/1.1/DTD/svg11.dtd">
<svg version="1.1" id="Calque_1" xmlns="http://www.w3.org/2000/svg" xmlns:xlink="http://www.w3.org/1999/xlink" x="0px" y="0px"
	 viewBox="0 0 32 32" enable-background="new 0 0 32 32" xml:space="preserve">
<g>
	<path fill="#39B54A" d="M26,0h-9.1C17.6,1.2,18,2.6,18,4h8c1.1,0,2,0.9,2,2v3h4V6C32,2.7,29.3,0,26,0z"/>
	<path fill="#8C6239" d="M28,26c0,1.1-0.9,2-2,2H6c-1.1,0-2-0.9-2-2v-4.5l-4-3V26c0,3.3,2.7,6,6,6h20c3.3,0,6-2.7,6-6V9h-4V26z"/>
</g>
<path fill-rule="evenodd" clip-rule="evenodd" fill="#009245" d="M8.8,17.6C9.2,17.9,9.6,18,10,18c0.3,0,0.6-0.1,0.9-0.2
	c0.7-0.3,1.1-1,1.1-1.8v-1.9V14c6.3,0,11.7,4.2,13.4,10c0.4-1.3,0.6-2.6,0.6-4c0-7.7-6.3-14-14-14V4c0-0.8-0.4-1.5-1.1-1.8
	C10.6,2.1,10.3,2,10,2C9.6,2,9.2,2.1,8.8,2.4l-8,6C0.3,8.8,0,9.4,0,10c0,0.6,0.3,1.2,0.8,1.6L8.8,17.6z"/>
</svg>
