<?xml version="1.0" encoding="utf-8"?>
<!-- Generator: Adobe Illustrator 18.1.0, SVG Export Plug-In . SVG Version: 6.00 Build 0)  -->
<!DOCTYPE svg PUBLIC "-//W3C//DTD SVG 1.1//EN" "http://www.w3.org/Graphics/SVG/1.1/DTD/svg11.dtd">
<svg version="1.1" id="Calque_1" xmlns="http://www.w3.org/2000/svg" xmlns:xlink="http://www.w3.org/1999/xlink" x="0px" y="0px"
	 viewBox="0 0 32 32" enable-background="new 0 0 32 32" xml:space="preserve">
<g>
	<path fill="none" d="M26,0H6C2.6,0,0,2.6,0,6v20c0,3.4,2.6,6,6,6h20c3.4,0,6-2.6,6-6V6C32,2.6,29.4,0,26,0z M28,26c0,1.2-0.8,2-2,2
		H6c-1.2,0-2-0.8-2-2V6c0-1.2,0.8-2,2-2h20c1.2,0,2,0.8,2,2V26z M21,10.4l-7,7l-2.8-2.8c-0.8-0.8-2-0.8-2.8,0s-0.8,2,0,2.8l4.2,4.2
		c0.8,0.8,2,0.8,2.8,0l8.4-8.4c0.8-0.8,0.8-2,0-2.8S21.8,9.6,21,10.4z"/>
</g>
<path fill="#39B54A" d="M26,0H6C2.6,0,0,2.6,0,6v20c0,3.4,2.6,6,6,6h20c3.4,0,6-2.6,6-6V6C32,2.6,29.4,0,26,0z"/>
<path fill="#39B54A" d="M28,26c0,1.2-0.8,2-2,2H6c-1.2,0-2-0.8-2-2V6c0-1.2,0.8-2,2-2h20c1.2,0,2,0.8,2,2V26z"/>
<path fill="#FFFFFF" d="M21,10.4l-7,7l-2.8-2.8c-0.8-0.8-2-0.8-2.8,0s-0.8,2,0,2.8l4.2,4.2c0.8,0.8,2,0.8,2.8,0l8.4-8.4
	c0.8-0.8,0.8-2,0-2.8S21.8,9.6,21,10.4z"/>
</svg>
