<svg enable-background="new 0 0 32 32" viewBox="0 0 32 32" xmlns="http://www.w3.org/2000/svg">
  <path d="m8.9659036 28h14.0000004c1.1 0 2-.9 2-2v-11-1h-18.0000004v1 11c0 1.1.9 2 2 2z" fill="none"/>
  <rect fill="none" height="4" width="29.020048" x="1.489976" y="7.161101"/>
  <path clip-rule="evenodd" d="m28 6c0-1.1-.9-2-2-2h-20c-1.1 0-2 .9-2 2v20c0 1.1.9 2 2 2h20c1.1 0 2-.9 2-2z" fill="#f2f2f2" fill-rule="evenodd"/>
  <path d="m6 28h20c1.1 0 2-.9 2-2v-17-3c0-1.1-.9-2-2-2h-20c-1.1 0-2 .9-2 2v3 17c0 1.1.9 2 2 2z" fill="none"/>
  <path d="m26 0h-20c-3.3 0-6 2.7-6 6v3h4v-3c0-1.1.9-2 2-2h20c1.1 0 2 .9 2 2v3h4v-3c0-3.3-2.7-6-6-6z" fill="#39b54a"/>
  <path d="m28 26c0 1.1-.9 2-2 2h-20c-1.1 0-2-.9-2-2v-17h-4v17c0 3.3 2.7 6 6 6h20c3.3 0 6-2.7 6-6v-17h-4z" fill="#8c6239"/>
  <path d="m16 7.1611009-8.793231.045668-.045668 8.7932321 9.575474 8.838898 8.102324-8.102324zm-3.682875 2.9463001c1.219769 0 2.209725.989956 2.209725 2.209725s-.989956 2.209725-2.209725 2.209725c-1.219766 0-2.209724-.989956-2.209724-2.209725s.989958-2.209725 2.209724-2.209725" fill="#009245"/>
</svg>
