<?xml version="1.0" encoding="UTF-8" standalone="no"?>
<svg
   version="1.1"
   id="Calque_1"
   x="0px"
   y="0px"
   viewBox="0 0 32 32"
   enable-background="new 0 0 32 32"
   xml:space="preserve"
   xmlns="http://www.w3.org/2000/svg"
   xmlns:svg="http://www.w3.org/2000/svg"><defs
   id="defs45" />

<g
   id="g7954"><path
     fill="none"
     d="M 8.9659036,28 H 22.965904 c 1.1,0 2,-0.9 2,-2 V 15 14 H 6.9659036 v 1 11 c 0,1.1 0.9,2 2,2 z"
     id="path8" /><rect
     style="fill:#000000;fill-opacity:0;stroke:none;stroke-width:0.000000879999;stroke-linecap:round;stroke-linejoin:round"
     id="rect2311"
     width="29.020048"
     height="4"
     x="1.4899759"
     y="7.1611009" /><path
     id="path2-6"
     d="M 28,6 C 28,4.9 27.1,4 26,4 H 6 C 4.9,4 4,4.9 4,6 v 20 c 0,1.1 0.9,2 2,2 h 20 c 1.1,0 2,-0.9 2,-2 z"
     fill="#f2f2f2"
     clip-rule="evenodd"
     fill-rule="evenodd" /><g
     id="g12"><path
       id="path6"
       d="m 6,28 h 20 c 1.1,0 2,-0.9 2,-2 V 9 6 C 28,4.9 27.1,4 26,4 H 6 C 4.9,4 4,4.9 4,6 v 3 17 c 0,1.1 0.9,2 2,2 z"
       fill="none" /><path
       id="path8-7"
       d="M 26,0 H 6 C 2.7,0 0,2.7 0,6 V 9 H 4 V 6 C 4,4.9 4.9,4 6,4 h 20 c 1.1,0 2,0.9 2,2 v 3 h 4 V 6 C 32,2.7 29.3,0 26,0 Z"
       fill="#39b54a" /><path
       id="path10-5"
       d="m 28,26 c 0,1.1 -0.9,2 -2,2 H 6 C 4.9,28 4,27.1 4,26 V 9 H 0 v 17 c 0,3.3 2.7,6 6,6 h 20 c 3.3,0 6,-2.7 6,-6 V 9 h -4 z"
       fill="#8c6239" /></g><path
     style="fill:#009245;fill-opacity:1;stroke:none;stroke-width:1"
     d="m 16,7.1611009 -8.793231,0.045668 -0.045668,8.7932321 9.575474,8.838898 8.102324,-8.102324 z m -3.682875,2.9463001 c 1.219769,0 2.209725,0.989956 2.209725,2.209725 0,1.219769 -0.989956,2.209725 -2.209725,2.209725 -1.219766,0 -2.209724,-0.989956 -2.209724,-2.209725 0,-1.219769 0.989958,-2.209725 2.209724,-2.209725"
     id="path6042" /></g></svg>
