<svg enable-background="new 0 0 32 32" viewBox="0 0 32 32" xmlns="http://www.w3.org/2000/svg">
  <path d="m28 10c0-1.1-.9-2-2-2h-10v-2c0-1.1-.9-2-2-2h-8c-1.1 0-2 .9-2 2v20c0 1.1.9 2 2 2h20c1.1 0 2-.9 2-2z" fill="#f2f2f2"/>
  <rect fill="none" height="32" width="32"/>
  <path d="m26 8h-10v-2c0-1.1-.9-2-2-2h-8c-1.1 0-2 .9-2 2v3 17c0 1.1.9 2 2 2h20c1.1 0 2-.9 2-2v-16c0-.4-.1-.7-.3-1-.3-.6-1-1-1.7-1z" fill="none"/>
  <path d="m4 6c0-1.1.9-2 2-2h8c1.1 0 2 .9 2 2v2h10c.7 0 1.4.4 1.7 1h4.2c-.5-2.8-2.9-5-5.9-5h-6.4c-.8-2.3-3-4-5.6-4h-8c-3.3 0-6 2.7-6 6v3h4z" fill="#39b54a"/>
  <path d="m27.7 9c.2.3.3.6.3 1v16c0 1.1-.9 2-2 2h-20c-1.1 0-2-.9-2-2v-17h-4v17c0 3.3 2.7 6 6 6h20c3.3 0 6-2.7 6-6v-16c0-.3 0-.7-.1-1z" fill="#8c6239"/>
</svg>
