<?xml version="1.0" encoding="utf-8"?>
<!-- Generator: Adobe Illustrator 26.5.0, SVG Export Plug-In . SVG Version: 6.00 Build 0)  -->
<svg version="1.1" id="Logo" xmlns="http://www.w3.org/2000/svg" xmlns:xlink="http://www.w3.org/1999/xlink" x="0px" y="0px"
	 viewBox="0 0 346.6 94.4" style="enable-background:new 0 0 346.6 94.4;" xml:space="preserve">
<style type="text/css">
	.st0{fill:#FFFFFF;}
	.st1{fill:url(#SVGID_1_);}
	.st2{opacity:0.1;fill:#5DAA3F;enable-background:new    ;}
	.st3{opacity:0.2;fill:#10454F;enable-background:new    ;}
</style>
<g id="Text">
	<path class="st0" d="M151.1,20c-0.9-1.5-2.2-2.7-3.8-3.6s-3.5-1.3-5.7-1.3H129v29.1h7.9v-8.6h4.4c2.2,0,4.2-0.4,5.8-1.2
		c1.7-0.8,3-2,3.9-3.5s1.4-3.3,1.4-5.4C152.4,23.3,152,21.5,151.1,20z M143.7,27.5c-0.4,0.6-0.9,1.1-1.5,1.4
		c-0.7,0.3-1.5,0.5-2.4,0.5H137v-8h2.8c0.9,0,1.7,0.2,2.4,0.5s1.2,0.8,1.5,1.4c0.4,0.6,0.5,1.3,0.5,2.1S144,26.9,143.7,27.5z"/>
	<path class="st0" d="M177.3,30.3c0.9-1.4,1.4-3.2,1.4-5.3s-0.5-3.8-1.3-5.3c-0.9-1.5-2.2-2.6-3.8-3.4c-1.6-0.8-3.5-1.2-5.7-1.2
		h-12.6v29.1h7.9v-9.6h2.7l5.1,9.6h8.6l-5.9-10.9C175.2,32.6,176.4,31.6,177.3,30.3z M163.2,21.4h2.8c0.9,0,1.7,0.1,2.4,0.4
		s1.2,0.6,1.5,1.2c0.4,0.5,0.5,1.2,0.5,2s-0.2,1.5-0.5,2s-0.9,0.9-1.5,1.1c-0.7,0.2-1.5,0.3-2.4,0.3h-2.8V21.4z"/>
	<rect x="182" y="15.1" class="st0" width="7.9" height="29.1"/>
	<path class="st0" d="M215.9,40.5c0.9-1.3,1.4-2.9,1.4-4.9c0-1.1-0.2-2.1-0.5-3.1s-0.9-1.8-1.6-2.5s-1.7-1.4-2.8-2s-2.5-1-4.1-1.3
		l-2.4-0.5c-0.7-0.1-1.3-0.3-1.8-0.5s-0.9-0.4-1.2-0.6s-0.6-0.5-0.7-0.8c-0.1-0.3-0.2-0.6-0.2-0.9c0-0.4,0.1-0.8,0.4-1.1
		s0.6-0.6,1.1-0.8c0.5-0.2,1.2-0.3,2-0.3c1.3,0,2.2,0.3,2.9,0.8c0.6,0.5,1,1.3,1.1,2.2h7.6c0-1.9-0.5-3.6-1.4-5s-2.3-2.5-4-3.3
		s-3.7-1.2-6.1-1.2c-2.3,0-4.3,0.4-6.1,1.2s-3.2,1.9-4.2,3.2s-1.5,3-1.5,4.9c0,2.3,0.7,4.1,2.2,5.4s3.5,2.2,6.1,2.8l2.9,0.6
		c1.1,0.2,1.9,0.5,2.6,0.8c0.6,0.3,1.1,0.6,1.4,0.9c0.3,0.3,0.4,0.7,0.4,1.2s-0.2,0.9-0.5,1.3c-0.3,0.4-0.7,0.7-1.3,0.9
		s-1.3,0.3-2.1,0.3c-1,0-1.9-0.2-2.6-0.5s-1.3-0.8-1.7-1.4c-0.4-0.6-0.6-1.4-0.7-2.2H193c0,2.4,0.5,4.4,1.6,6c1,1.6,2.5,2.7,4.4,3.5
		s4.1,1.1,6.6,1.1s4.6-0.3,6.3-1C213.6,42.8,214.9,41.8,215.9,40.5z"/>
	<polygon class="st0" points="246.1,27.4 246.1,44.2 253.8,44.2 253.8,15.1 244,15.1 237.3,31.6 236.9,31.6 230.2,15.1 220.3,15.1 
		220.3,44.2 228,44.2 228,27.3 228.3,27.3 234.8,44 239.4,44 245.9,27.4 	"/>
	<polygon class="st0" points="134.8,50.1 130.4,50.1 130.4,79.2 148,79.2 148,75.4 134.8,75.4 	"/>
	<path class="st0" d="M162.7,50.1l-10.5,29.1h4.7l2.7-7.7H171l2.7,7.7h4.7l-10.5-29.1H162.7z M160.8,67.8l4.3-12.4h0.2l4.3,12.4
		H160.8z"/>
	<path class="st0" d="M201.1,68.9c0,1.3-0.3,2.5-0.9,3.5c-0.6,1-1.4,1.8-2.5,2.4s-2.4,0.9-3.8,0.9c-1.5,0-2.7-0.3-3.8-0.9
		s-1.9-1.4-2.5-2.4s-0.9-2.2-0.9-3.5V50.1h-4.4v19.1c0,2,0.5,3.8,1.4,5.4c1,1.6,2.3,2.8,4,3.7c1.7,0.9,3.8,1.3,6.1,1.3
		s4.4-0.4,6.1-1.3c1.7-0.9,3.1-2.1,4-3.7c1-1.6,1.4-3.4,1.4-5.4V50.1h-4.4v18.8H201.1z"/>
	<polygon class="st0" points="231,71.5 230.8,71.5 216,50.1 211.9,50.1 211.9,79.2 216.3,79.2 216.3,57.9 216.6,57.9 231.4,79.2 
		235.4,79.2 235.4,50.1 231,50.1 	"/>
	<path class="st0" d="M249.5,55c1.3-0.8,2.8-1.3,4.5-1.3c0.9,0,1.8,0.1,2.6,0.4c0.8,0.3,1.6,0.6,2.3,1.1c0.7,0.5,1.2,1.1,1.7,1.8
		s0.8,1.6,1,2.5h4.4c-0.2-1.6-0.7-3-1.4-4.2s-1.6-2.2-2.7-3.1c-1.1-0.8-2.3-1.5-3.6-1.9s-2.8-0.7-4.3-0.7c-2.5,0-4.7,0.6-6.7,1.8
		s-3.5,2.9-4.7,5.1c-1.1,2.2-1.7,4.9-1.7,8c0,3.1,0.6,5.8,1.7,8s2.7,4,4.7,5.1c2,1.2,4.2,1.8,6.7,1.8c1.6,0,3.1-0.2,4.4-0.7
		s2.6-1.1,3.6-2c1.1-0.9,1.9-1.9,2.6-3.1s1.1-2.5,1.4-3.9h-4.4c-0.2,0.9-0.5,1.7-1,2.5c-0.5,0.7-1,1.3-1.7,1.8s-1.4,0.9-2.3,1.1
		c-0.8,0.3-1.7,0.4-2.6,0.4c-1.7,0-3.1-0.4-4.5-1.2c-1.3-0.8-2.4-2.1-3.1-3.7c-0.8-1.6-1.1-3.6-1.1-6c0-2.3,0.4-4.3,1.1-6
		S248.2,55.8,249.5,55z"/>
	<polygon class="st0" points="290.1,62.7 275.6,62.7 275.6,50.1 271.2,50.1 271.2,79.2 275.6,79.2 275.6,66.5 290.1,66.5 
		290.1,79.2 294.5,79.2 294.5,50.1 290.1,50.1 	"/>
	<polygon class="st0" points="305.3,66.5 318.2,66.5 318.2,62.7 305.3,62.7 305.3,53.9 319.1,53.9 319.1,50.1 300.9,50.1 
		300.9,79.2 319.3,79.2 319.3,75.4 305.3,75.4 	"/>
	<path class="st0" d="M346.6,79.2l-6.4-11.8c0.3-0.1,0.6-0.2,0.9-0.4c1.5-0.7,2.6-1.8,3.4-3.1c0.7-1.3,1.1-2.9,1.1-4.7
		s-0.4-3.4-1.1-4.7c-0.7-1.4-1.9-2.4-3.3-3.2c-1.5-0.8-3.4-1.2-5.6-1.2H325v29.1h4.4v-11h6c0.1,0,0.2,0,0.3,0l5.9,11
		C341.6,79.2,346.6,79.2,346.6,79.2z M329.4,53.9h5.5c1.4,0,2.6,0.2,3.5,0.6c0.9,0.4,1.6,1,2,1.9c0.4,0.8,0.6,1.8,0.6,2.9
		c0,1.1-0.2,2-0.6,2.8s-1.1,1.4-2,1.8c-0.9,0.4-2.1,0.6-3.5,0.6h-5.6V53.9H329.4z"/>
</g>
<g id="Icon">
	
		<linearGradient id="SVGID_1_" gradientUnits="userSpaceOnUse" x1="0" y1="28.85" x2="108.9" y2="28.85" gradientTransform="matrix(1 0 0 -1 0 96)">
		<stop  offset="0" style="stop-color:#5DA93F"/>
		<stop  offset="1" style="stop-color:#10454F"/>
	</linearGradient>
	<polygon class="st1" points="54.4,94.4 0,67.1 54.4,39.9 108.9,67.1 	"/>
	<g>
		<polygon class="st2" points="0,67.1 54.4,0 54.4,94.4 		"/>
		<polygon class="st3" points="54.4,0 108.9,67.1 54.4,94.4 		"/>
	</g>
</g>
</svg>
