<svg width="8" height="8" fill="none" xmlns="http://www.w3.org/2000/svg"><path d="M2 1.5V2H1v4.5h6V2H6v-.5H4.5V2h-1v-.5H2Zm-.5 1h5V6h-5V2.5Z" fill="#232629"/><path d="M3.93 4.37s-.19-.364-.183-.63c.005-.19.434-.378.603-.651.168-.273-.022-.54-.022-.54s.043.197-.07.4c-.112.203-.525.322-.686.672-.16.35.357.75.357.75Z" fill="#232629"/><path d="M4.637 3.264s-.645.246-.645.525c0 .28.175.372.203.463.028.091-.049.245-.049.245s.252-.175.21-.378c-.042-.203-.238-.267-.126-.47.075-.136.407-.385.407-.385Z" fill="#232629"/><path d="M3.859 4.741c.595-.021.812-.209.812-.209-.385.105-1.407.098-1.415.021-.006-.077.316-.14.316-.14s-.505 0-.546.126c-.043.126.238.223.833.202ZM4.72 5.036s.583-.124.526-.44c-.07-.386-.477-.169-.477-.169s.288 0 .316.175c.028.175-.364.434-.364.434ZM4.434 4.868s-.147.038-.364.063c-.292.033-.645.007-.673-.042-.028-.05.05-.077.05-.077-.35.084-.16.23.251.26.352.023.876-.106.876-.106l-.14-.098ZM3.53 5.174s-.159.004-.168.088c-.01.084.098.159.49.182.392.024.668-.107.668-.107l-.178-.107s-.112.023-.285.046c-.173.024-.527-.018-.541-.051-.014-.032.014-.051.014-.051Z" fill="#232629"/><path d="M5.057 5.552c.06-.065-.019-.117-.019-.117s.028.033-.009.07c-.037.037-.378.13-.924.158-.546.028-1.14-.05-1.159-.121-.018-.07.304-.126.304-.126-.037.005-.485.014-.5.136-.013.12.197.22 1.037.22.84 0 1.21-.155 1.27-.22Z" fill="#232629"/><path d="M4.73 5.828c-.368.074-1.489.027-1.489.027s.728.173 1.56.029c.397-.07.42-.262.42-.262s-.122.13-.49.206Z" fill="#232629"/></svg>