<svg width="1000" height="1000" viewBox="0 0 1000 1000" fill="none" xmlns="http://www.w3.org/2000/svg">
<path d="M479.6 536.2C479.6 536.2 425 430.9 427 354C428.5 299 552.4 244.7 601.1 165.8C649.7 86.9 595 10 595 10C595 10 607.2 66.7 574.8 125.3C542.4 184 422.9 218.5 376.4 319.6C329.9 420.9 479.6 536.2 479.6 536.2Z" fill="#232629"/>
<path d="M684.099 216.4C684.099 216.4 497.899 287.3 497.899 368.2C497.899 449.2 548.499 475.5 556.599 501.8C564.699 528.2 542.399 572.7 542.399 572.7C542.399 572.7 615.199 522.1 602.999 463.4C590.799 404.7 534.199 386.4 566.599 327.8C588.399 288.4 684.099 216.4 684.099 216.4Z" fill="#232629"/>
<path d="M459.399 643.2C631.499 637.1 694.2 582.8 694.2 582.8C582.9 613.1 287.399 611.1 285.299 588.9C283.299 566.6 376.399 548.4 376.399 548.4C376.399 548.4 230.7 548.4 218.6 584.8C206.4 621.2 287.499 649.2 459.399 643.2Z" fill="#232629"/>
<path d="M708.399 728.5C708.399 728.5 876.799 692.6 860.099 601.1C839.899 489.7 722.499 552.5 722.499 552.5C722.499 552.5 805.599 552.5 813.599 603.1C821.699 653.6 708.399 728.5 708.399 728.5Z" fill="#232629"/>
<path d="M625.4 679.9C625.4 679.9 583 691 520.1 698.1C435.8 707.6 333.9 700.1 325.8 685.9C317.8 671.7 340 663.7 340 663.7C238.8 688 294.2 730.4 412.8 738.6C514.5 745.5 665.9 708.2 665.9 708.2L625.4 679.9Z" fill="#232629"/>
<path d="M364.299 768.3C364.299 768.3 318.399 769.6 315.699 793.9C313.099 818 343.999 839.7 457.299 846.5C570.599 853.2 650.299 815.5 650.299 815.5L598.999 784.4C598.999 784.4 566.599 791.2 516.699 797.9C466.699 804.7 364.299 792.5 360.199 783.1C356.199 773.7 364.299 768.3 364.299 768.3Z" fill="#232629"/>
<path d="M805.5 877.6C823 858.7 800.099 843.8 800.099 843.8C800.099 843.8 808.2 853.3 797.5 864C786.7 874.8 688.199 901.7 530.299 909.8C372.499 917.9 201.1 895 195.6 874.7C190.3 854.5 283.4 838.3 283.4 838.3C272.6 839.6 143.1 842.3 139 877.5C135 912.5 195.7 940.9 438.6 940.9C681.4 941 788 896.4 805.5 877.6Z" fill="#232629"/>
<path d="M711.099 957.2C604.499 978.7 280.699 965.2 280.699 965.2C280.699 965.2 491.099 1015.2 731.299 973.4C846.099 953.4 852.799 897.8 852.799 897.8C852.799 897.8 817.699 935.6 711.099 957.2Z" fill="#232629"/>
</svg>
