<svg viewBox="0 0 27.9 32" xmlns="http://www.w3.org/2000/svg">
  <title>Matrix (protocol) logo</title>
  <g fill="#232629" transform="translate(-.095 .005)">
    <path d="m27.1 31.2v-30.5h-2.19v-.732h3.04v32h-3.04v-.732z"/>
    <path d="m8.23 10.4v1.54h.044c.385-.564.893-1.03 1.49-1.37.58-.323 1.25-.485 1.99-.485.72 0 1.38.14 1.97.42.595.279 1.05.771 1.36 1.48.338-.5.796-.941 1.38-1.32.58-.383 1.27-.574 2.06-.574.602 0 1.16.074 1.67.22.514.148.954.383 1.32.707.366.323.653.746.859 1.27.205.522.308 1.15.308 1.89v7.63h-3.13v-6.46c0-.383-.015-.743-.044-1.08-.0209-.307-.103-.607-.242-.882-.133-.251-.336-.458-.584-.596-.257-.146-.606-.22-1.05-.22-.44 0-.796.085-1.07.253-.272.17-.485.39-.639.662-.159.287-.264.602-.308.927-.052.347-.078.697-.078 1.05v6.35h-3.13v-6.4c0-.338-.007-.673-.021-1-.0114-.314-.0749-.623-.188-.916-.108-.277-.3-.512-.55-.673-.258-.168-.636-.253-1.14-.253-.198.0083-.394.042-.584.1-.258.0745-.498.202-.705.374-.228.184-.422.449-.584.794-.161.346-.242.798-.242 1.36v6.62h-3.13v-11.4z"/>
    <path d="m.936.732v30.5h2.19v.732h-3.04v-32h3.03v.732z"/>
  </g>
</svg>
