<svg viewBox="0 0 16 16" xmlns="http://www.w3.org/2000/svg">
  <path d="m14 8c0 1.1088173-.319333 2.140071-.84375 3.03125l-2.6875-2.6875.71875-.71875 1.625 1.625c.05109-.19534.097716-.3898623.125-.59375.007789-.0524063.025184-.1032787.03125-.15625.01707-.1680854.03125-.327411.03125-.5 0-2.761424-2.238576-5-5-5-.243024 0-.4855082.02845-.71875.0625-.1362493.019955-.2738032.031786-.40625.0625-.2865815.06695-.547624.166647-.8125.28125-.030675.013272-.063399.017376-.09375.03125-.09166.040961-.163333.108255-.25.15625-.008.00445-.02305-.00433-.03125 0l-.71875-.75c.891179-.524417 1.922432-.84375 3.03125-.84375 3.313709 0 6 2.686293 6 6zm-2.96875 5.15625c-.891179.524417-1.922432.84375-3.03125.84375-3.313709 0-6-2.686293-6-6 0-1.1088173.319333-2.140071.84375-3.03125l.75.75 1.90625 1.9375-.6875.6875-1.625-1.59375c-.05109.19534-.09772.3898623-.125.59375-.0078.052406-.02518.1032787-.03125.15625-.01707.1680854-.03125.327411-.03125.5s.01418.3319146.03125.5c.01707.1680853.029198.337256.0625.5.466231 2.278415 2.490004 4 4.90625 4 .2482626 0 .4801862-.02756.71875-.0625.1362493-.01995.2738032-.03179.40625-.0625.2865815-.06695.547624-.166647.8125-.28125.030718-.01299.063349-.01766.09375-.03125.08886-.04062.164735-.108612.25-.15625h.03125z" fill="#232629"/>
</svg>
