<svg viewBox="0 0 16 16" xmlns="http://www.w3.org/2000/svg">
  <path d="m8 2c-3.3137085 0-6 2.6862868-6 6 0 3.313713 2.6862915 6 6 6 3.313708 0 6-2.686287 6-6 0-3.3137132-2.686292-6-6-6zm0 1c.172589 0 .3319146.01418.5.03125.0403398.0039663.0849592-.0049224.125 0 .0526214.0066683.1041519.0229591.15625.03125.1436522.0225796.2670253.0592241.40625.09375.2565966.0632969.5107233.1487945.75.25.131926.0557998.249149.1209856.375.1875-.000075.009.0008.02025 0 .03125.02898.013.04478.06675.09375.09375.01798.01.01431.02225.03125.03125.02898.016.06849.0335.0625.0625-.008.04-.06575.0315-.09375.0625.0038.058-.04754.05475-.0625.09375.009.025.05854.0325.0625.0625-.0049.032-.07452.0295-.0625.0625.05401.042.105254.01.15625 0 .111991-.014.212253-.0055.28125-.0625-.009-.053.09974-.04565.09375-.09375.02866.0208822.0653.0413168.09375.0625-.010763.01008-.019172.02585-.03125.03125-.02101.01-.04349.01925-.0625.03125-.028.018-.06172.0415-.09375.0625-.02299.016-.069746.09375-.09375.09375-.02899 0-.07275-.03725-.09375-.03125-.03003.01-.02856.0505-.0625.0625-.06599.024-.195755-.0365-.21875.0625.028.057.137505.0305.1875.0625.03102.02.08575.091.09375.125.008.028.01199.1575 0 .1875-.03102.08-.126762.0635-.21875.0625h-.0625c-.154984-.01-.305001-.07975-.375.03125.00495.085.01903.14475 0 .21875-.01397.054-.096748.10965-.09375.15625.0011.024.056505.05975.0625.09375.00385.018-.00807.0455 0 .0625.026015.049.0790035-.01.125 0 .044.01.09375.0758.09375.125 0 .035-.00925.0911-.03125.125-.044.066-.124503.05775-.1875.09375-.051975.03-.062748.10465-.09375.15625-.033.056-.075517.07615-.0625.15625-.04499.089-.094512.1445-.1875.1875-.027005.012-.068753.01325-.09375.03125-.02002.014-.034478.06175-.0625.09375-.03498.039-.074753.06375-.09375.09375-.014025.023-.01629.06175-.03125.09375-.022.042-.065756.05155-.09375.09375-.01298.02-.01728.06775-.03125.09375-.03201.058-.068501.10525-.0625.15625.00495.048.059502.04975.0625.09375.00275.024-.03224.0355-.03125.0625.0011.038.02828.06375.03125.09375.00699.074-.04853.10565-.0625.15625-.00699.024.006.0425 0 .0625-.01199.037-.061499.0808-.0625.125-.0011.031.05953.04975.0625.09375.0022.029-.037245.06575-.03125.09375.011.054.1142575.11425.15625.15625.056997.057.131258.09625.15625.15625.02101.051.023533.1494.0625.1875.028985.028.088007.0325.125.0625.03498.027.056753.0325.09375.0625.060995.048.153002.16325.25.15625.050985-.01.099254-.0525.15625-.0625.059-.01.127506-.03625.1875-.03125.04598.01.108253.03425.15625.03125.04999-.01.099259-.00625.15625-.03125.099-.043.262266-.11445.40625-.09375.109989.016.110505.1385.1875.1875.08799.01.148757-.017.21875 0 .05302.013.120001.0834.125.125.005.043-.05651.0978-.0625.125-.01397.058.00996.11925 0 .15625-.008.029-.03224.06475-.03125.09375 0 .026.03548.0908.0625.125.033.042.085.0798.125.125.07299.084.105254.17025.15625.28125.01298.028-.01199.05775 0 .09375-.022.1679-.077509.28285-.1875.46875-.05198.06-.126001.1126-.125.1875-.0038.18.10175.29475.09375.46875-.01798.2339.01804.2501 0 .375.079.04.02299.1669 0 .25-.03399.099-.07475.1215-.09375.1875.053083.023143.128521.013592.1875 0-.029796.031374-.063157.063157-.09375.09375-.226206.226206-.483998.445293-.75.625-.516043.348632-1.0900087.613448-1.71875.75-.343539.074611-.6966113.09375-1.0625.09375-.1903331 0-.3781349-.010041-.5625-.03125-.1468611-.016761-.2947861-.033297-.4375-.0625-.2831745-.057946-.5489719-.177634-.8125-.28125-.0093696-.01715-.0333756-.042382-.03125-.0625.051975-.022.149506.074.1875 0 .01903-.035-.025025-.12125 0-.15625.017985-.024.119257-.02425.15625-.03125.05302-.01.126253-.01725.15625-.03125.033-.021.068501-.09465.0625-.15625-.00275-.029-.039565-.0365-.0625-.0625-.018975-.022.01298-.0415 0-.0625-.02398-.035-.083751-.04275-.09375-.09375.071995-.014.1772615.06025.28125.03125.049005-.014.133249-.11015.15625-.15625.00699-.014-.00798-.0445 0-.0625.00902-.018.028225-.0525.03125-.0625.00698-.027-.006-.01325 0-.03125.017985-.051.063747-.0887.09375-.125.02299-.028.072723-.06475.09375-.09375.02398-.031.0153-.0345.03125-.0625.015015-.091-.05325-.1701-.03125-.25.02398-.09.163012-.1465.25-.1875.029975-.014.068752-.02225.09375-.03125.059994-.021.1315045-.0425.1875-.0625.093995-.034.110248-.1016.15625-.1875.022-.04.058485-.0957.0625-.125.00385-.026-.00495-.0315 0-.0625.00495-.029-.007975-.05975 0-.09375.011-.043.03125-.1396.03125-.1875 0-.04-.03026-.05775-.03125-.09375-.00699-.13.045762-.1165.09375-.1875.02398-.035.04556-.0999.0625-.125.080993-.12.228749-.16175.21875-.34375-.00385-.06-.049772-.19975-.09375-.21875-.025025-.011-.0567515-.01825-.09375-.03125-.1179915-.044-.2207645-.1775-.34375-.1875h-.0625c-.048015 0-.1022565-.02425-.15625-.03125-.03399-.01-.1050015.01-.125 0-.03102-.015-.03753-.07675-.0625-.09375-.02002-.014-.062757-.02025-.09375-.03125-.049005-.018-.0680035-.0585-.125-.0625-.017985 0-.042518.01-.0625 0-.03102-.01-.064754-.01325-.09375-.03125-.03597-.022-.078752-.0315-.09375-.0625.033-.1079-.07175-.1245-.09375-.1875-.01001-.029.01001-.099 0-.125-.01298-.037-.052748-.06275-.09375-.09375-.071995-.056-.115757-.08085-.21875-.09375-.04598-.01-.1012555.01-.15625 0-.057992-.01-.1435055-.04375-.1875-.09375-.04202-.049-.056756-.1019-.09375-.125-.03498-.022-.0697535-.0395-.09375-.0625-.011-.01-.02124-.00825-.03125-.03125-.017985-.037-.05325-.04875-.03125-.09375-.039985-.02-.019507.03825-.0625.03125-.038995-.055-.0682615-.10975-.15625-.09375-.039985.01-.078003.09275-.125.09375-.038995 0-.074004-.08575-.125-.09375-.038995-.01-.0980005.03625-.125.03125-.04301-.01-.054777-.0365-.09375-.0625-.028985-.019-.07775-.0635-.09375-.0625-.049995 0-.0872585.0989-.15625.0625-.03399-.043.071268-.05375.03125-.09375-.029975-.029-.038487.01725-.0625.03125-.027995.018-.062757.02025-.09375.03125-.068998.026-.1335065.0335-.1875.0625-.049995.026-.064753.04245-.09375.09375-.02299.042-.058753.123-.09375.125-.04202 0-.0557505-.0455-.09375-.0625-.1149885-.05-.1862595.02925-.28125.03125-.087994 0-.2227485-.13575-.21875-.21875.00275-.051.025255-.1245.03125-.1875.00495-.05.061565-.11065.0625-.15625.0011-.062-.116254-.08665-.15625-.09375-.093995-.017-.2055085.042-.3125 0-.02002-.034.01926-.05975.03125-.09375.00698-.018-.00699-.0415 0-.0625.01199-.032.078757-.05975.09375-.09375.011-.026-.011-.06075 0-.09375.01298-.036.059475-.06775.0625-.09375.00385-.034-.03555-.07175-.0625-.09375-.082995.01-.1395015.00725-.1875.03125-.107987.049-.0785065.18475-.1875.21875-.037015.012-.083002.02425-.125.03125-.018315.01-.04198-.002-.0625 0 .0019463-.0101164-.0020057-.0211556 0-.03125.0046623-.0227842.0262789-.0398299.03125-.0625.0712653-.3249965.1813949-.6395656.3125-.9375h.03125c.038005.01.060755.0595.09375.0625.091993.01.111501-.0848.1875-.125.077996.011.116506-.01.1875 0 .048015.01.118256.0585.15625.0625.03201 0 .032498-.03525.0625-.03125.029975.01.08875.05775.09375.09375.00495.045-.044285.10665-.03125.15625.047025.048.1517545.06575.21875.09375.044-.037.00698-.10425 0-.15625-.0011-.023.00275-.07275 0-.09375-.00495-.036-.03125-.06275-.03125-.09375 0-.143.1227585-.1941.21875-.25.040975-.024.0890025-.07575.125-.09375.050985-.025.0830025-.00725.125-.03125.075988-.043.1285015-.10755.1875-.15625.027005-.065-.00275-.15475 0-.21875.027005-.017.064782 0 .09375 0 .04598-.01.067746-.06775.09375-.09375.015015-.015.044482-.01625.0625-.03125.04598-.036.053737-.07775.09375-.09375.014025-.01.040473-.02425.0625-.03125.03003-.01.077007-.01325.125-.03125.03102-.011.112999-.01825.125-.03125.015015-.015-.00385-.07075 0-.09375.02398-.1129.180259-.11815.28125-.15625.069993-.026.1407545-.10775.21875-.09375-.015015.054-.075501.0599-.0625.125.016995.091.124251-.01825.15625-.03125.060995-.026.1700025-.06375.25-.09375.069993-.025.190989-.0444.125-.125-.055-.01-.0770065.0425-.125.0625-.033.01-.034522-.02825-.0625-.03125-.027005 0-.035473.03625-.0625.03125-.027005-.01-.058502-.06075-.0625-.09375-.011-.084.05976-.09435.09375-.15625-.02299-.076-.1235075-.0325-.1875-.0625.00699-.045.040757-.08375.09375-.09375.04301-.01.1615015.00825.1875.03125.015015.013-.0229405.0415 0 .0625.026015.023.059754.01.09375 0 .01199-.057-.072499-.0255-.0625-.0625.067991-.044.198255-.02025.28125-.03125.048015-.01.113251-.0395.15625-.0625.039985-.023.0517515-.06925.09375-.03125.01199.041-.008315.07175-.03125.09375-.076994.068-.158756.13985-.21875.21875.037015.036.094254.02425.15625.03125.02398.01.068747-.005.09375 0 .03003.01.069748-.01.09375 0 .04202.01.051757.09375.09375.09375.067996 0 .039023-.0798 0-.125.01199-.047.0483-.0918.03125-.125-.03102-.062-.1502495.0185-.15625-.0625-.00385-.05.044493-.05575.0625-.09375-.00798-.096.072499-.1005.0625-.1875-.00495-.036-.037492-.0285-.0625-.0625-.01298-.018-.01629-.07975-.03125-.09375-.051975-.044-.1502495-.00955-.15625-.09375-.00275-.05.00698-.10265 0-.15625-.00699-.051-.049772-.20875-.09375-.21875-.055995-.012-.0892545.0937-.15625.125-.03597.017-.119257.03725-.15625.03125-.02398-.01-.059497-.0155-.0625-.0625-.00396-.0424.0468466-.0612828.0625-.09375.0039134-.0081168-.001991-.02003 0-.03125.0725664-.0202483.1449664-.0452285.21875-.0625.0419167-.0097202.0826866-.0225914.125-.03125.0298771-.0062221.0636852.0057069.09375 0 .1335544-.0247621.2691958-.0485814.40625-.0625.1662387-.0174688.3289018-.03125.5-.03125zm-2.03125.46875c-.0318338.1825739-.2027474.2552706-.40625.25-.04598.044-.00628.1265-.03125.1875-.02101.051-.105259.09775-.15625.09375-.037015 0-.09375-.05875-.09375-.09375 0-.043.068271-.04455.03125-.09375.00165-.01.020855-.02125.03125-.03125.0202401-.0127451.0421033-.018757.0625-.03125.1812025-.1115166.3669614-.1931721.5625-.28125zm4.1875.1875c-.01843.01-.01503.02125-.03125.03125-.03801.023-.06474.0515-.09375.0625-.04097.015-.087746.0255-.09375.0625-.00495.031.032295.0335.03125.0625-.015015.037-.02322.04875-.03125.09375.050985.083.155758-.01825.21875-.03125.028-.01.0475-.00725.0625-.03125.01699-.027.01831-.05555.03125-.09375.01403-.042.06751-.05675.0625-.09375-.0038-.037-.094256-.0675-.15625-.0625zm-5.46875.625c.0474118.038097.1140588.1206.03125.15625-.01001.01-.1322535.03525-.15625.03125-.00968 0-.0227663-.024-.03125-.03125.0516629-.0503077.1024569-.1081967.15625-.15625zm.1875.1875c.02398 0 .034483.0605.0625.0625.027005 0 .046473-.03525.0625-.03125.04202.011.071268.0938.03125.125-.033.01-.038537-.03525-.0625-.03125-.067996.012-.1052545.16025-.15625.15625-.048015-.01-.080272-.12125-.03125-.15625.0011-.03-.002035-.0315 0-.0625.015015-.018.053732-.0655.09375-.0625zm-.25.03125c.014025 0 .026245-.01.03125 0-.00698.053-.021542.06875-.0625.09375-.070994.043-.133249.096-.15625.1875-.00699.027-.0910045.10045-.125.09375-.078996-.017.044515-.1646.0625-.1875.02002-.025.039526-.0335.0625-.0625.02299-.028.040555-.07775.0625-.09375.02398-.017.0830075-.03325.125-.03125zm6.78125.15625c.07899-.01.120252.0774.15625.125.02998.039.107246.0978.15625.125.028.015.06275.0485.09375.0625.06499.029.184496.1235.1875.1875.0011.032-.03626.06375-.03125.09375.04901.01.09275-.0758.09375-.125.09191.1300064.170602.2676596.25.40625.0375.0654567.090444.1200457.125.1875-.04411.013-.05541.0195-.0625.0625-.01001.056.02149.14635-.0625.15625-.05297.01-.11451-.0455-.1875-.0625-.02998-.01-.06975.01-.09375 0-.055-.018-.04675-.0917-.09375-.125-.02701-.019-.113247-.0575-.15625-.0625-.02701 0-.03452.01-.0625 0-.03399-.01-.097001.014-.125 0-.02701-.017-.08674-.07075-.09375-.09375-.011-.037.09175-.06245.09375-.09375.0022-.024-.02625-.05675-.03125-.09375-.0038-.022.0049-.0475 0-.0625-.007-.026-.05276-.03025-.09375-.03125-.03603 0-.06276 0-.09375 0-.044 0-.132506-.004-.1875 0-.033 0-.06275-.003-.09375 0-.08699.01-.150753-.01-.21875 0-.04901 0-.141504.0415-.1875.0625-.02299.011-.03249.01625-.0625.03125-.01397.01-.04446.02325-.0625.03125-.02799.013-.06675.0545-.09375.0625-.03899.01-.08526-.01-.15625 0-.05098 0-.123999-.03275-.125-.09375-.0011-.093.162011-.0455.25-.0625.033-.01.05373-.0385.09375-.0625.01903-.011.01326-.01925.03125-.03125.02997-.021.08875-.06975.09375-.09375.0038-.022-.00302-.0455 0-.0625.0038-.021.0355-.0345.0625-.0625.04202-.042.072997-.0978.125-.125.03498-.018.07775-.0335.09375-.0625.0038-.032-.0011-.0325 0-.0625.022-.02.04452-.02725.0625-.03125.05401-.012.093259.003.15625 0 .027 0 .06475.013.09375 0 .02398-.016.0385-.0505.0625-.0625.02601-.014.06172-.02925.09375-.03125zm.5625.59375h-.125c-.044 0-.099001-.023-.125 0 .03702.06.104505.07875.1875.09375.02998-.022.04853-.05545.0625-.09375zm-6.84375-.5625h.09375c.025025 0 .052501-.01.0625 0-.016005.066-.166753.05525-.21875.03125.00275-.025.030468-.02725.0625-.03125zm-.21875.125c-.0436828.0317816-.0869188.0720833-.15625.09375-.038005.012-.086748.01075-.09375-.03125-.00803-.052.059738-.02625.09375-.03125.044-.01.105254-.02925.15625-.03125zm6.5 0c-.033.011-.04901.08375 0 .09375.02299-.014.0373-.05075.03125-.09375-.01298-.014-.02129-.01-.03125 0zm-.0625.15625c.0011.056.011.10765 0 .15625.03201.062.109006.01075.125-.03125.01903-.104-.0145-.138-.0625-.125-.016.01-.04556-.013-.0625 0zm-8.28125 2.34375c.056364.051.0887925.12285.15625.15625.025025.013.061751.02325.09375.03125.026015.01.037513-.008.0625 0 .05302.018.1142575.0435.15625.0625.063998.028.1325.12425.1875.15625.00275.032-.01001.06975 0 .09375.026015.035.0517465.06975.09375.09375.050985.028.0770065.07155.125.09375.016995.01.036463-.01.0625 0 .065994.02.099253.11055.15625.09375.037015-.011.025255-.05775.03125-.09375.025025-.027.054722-.0625.09375-.0625.06199 0 .070749.09565.09375.15625.01298.034.053535.05775.0625.09375.015015.062.01298.24425 0 .28125-.016005.046-.0870005.04345-.125.09375-.017985.024-.01728.07675-.03125.09375-.02398.029-.044477.0345-.0625.0625-.01001.015-.022285.0415-.03125.0625-.03003.064-.087514.1105-.0625.1875.01001.031.0625.05675.0625.09375 0 .044-.086749.0768-.09375.125-.00495.035.020305.0783.03125.125.00798.035.072751.07075.09375.09375.03498.039.061751.10675.09375.15625.062991.097.094265.2175.15625.3125.033.049.103.0734.125.125.011.026-.01001.06975 0 .09375.03597.081.200257.17885.28125.21875.038005.019.090009.01125.125.03125.05302.03.160506.10965.1875.15625.02398.042.01926.15185.03125.21875.015015.088-.00385.1549 0 .25.00275.052.03125.0734.03125.125 0 .018.0011.07475 0 .09375-.0011.062.00495.1245 0 .1875-.00275.034-.0022.06475 0 .09375.00275.031.02927.0345.03125.0625.0022.029-.034275.07075-.03125.09375.00699.063.050499.09815.0625.15625.01001.046.037245.16375.03125.21875-.00385.029-.027235.06075-.03125.09375-.00275.026.00385.0385 0 .0625-.00275.023.00594.0435 0 .0625-.0318457-.020479-.0624049-.041324-.09375-.0625-.2660017-.179707-.5237945-.398794-.75-.625-.0305934-.030593-.0639541-.062376-.09375-.09375-.1805809-.190147-.3508625-.408318-.5-.625-.0135135-.019634-.0180112-.042665-.03125-.0625-.1730464-.259267-.3146857-.522134-.4375-.8125-.0088555-.0209367-.0226728-.0414187-.03125-.0625-.1053774-.2589989-.1889264-.5339815-.25-.8125-.0115264-.0525648-.0213919-.1030802-.03125-.15625-.0247621-.1335544-.0485814-.2691958-.0625-.40625-.01707-.1680854-.03125-.327411-.03125-.5 0-.2376418.030436-.4586961.0625-.6875zm1.9375.53125c.048015-.022.038995.0555 0 .0625-.037015.01-.03597-.0445 0-.0625z" fill="#232629"/>
</svg>
