<?xml version="1.0" encoding="utf-8"?>
<!-- Generator: Adobe Illustrator 18.1.0, SVG Export Plug-In . SVG Version: 6.00 Build 0)  -->
<!DOCTYPE svg PUBLIC "-//W3C//DTD SVG 1.1//EN" "http://www.w3.org/Graphics/SVG/1.1/DTD/svg11.dtd">
<svg version="1.1" id="Calque_1" xmlns="http://www.w3.org/2000/svg" xmlns:xlink="http://www.w3.org/1999/xlink" x="0px" y="0px"
	 viewBox="0 0 32 32" enable-background="new 0 0 32 32" xml:space="preserve">
<g id="_x37__7_">
	<g>
		<path fill="#3366CC" d="M21.7,25.4c-0.4-0.4-1-0.4-1.4,0L17,28.7V15c0-0.6-0.4-1-1-1c-0.6,0-1,0.4-1,1v13.6l-3.3-3.2
			c-0.4-0.4-1-0.4-1.4,0c-0.4,0.4-0.4,1,0,1.4l4.9,4.9c0.2,0.2,0.5,0.3,0.8,0.3c0.3,0,0.6-0.1,0.8-0.3l4.9-4.9
			C22.1,26.4,22.1,25.8,21.7,25.4z"/>
	</g>
</g>
<path fill="#3366CC" d="M20,21h5c2.7-1.5,5.1-4.2,5-7c-0.2-3.3-3.5-7.2-8.5-7c-0.8-2.9-3.1-5-6.5-5c-4.3,0-7,3.9-7,8
	c-3.3,0.2-6,3-6,6c0,5.4,6,5,6,5s4,0,4,0c0.6,0,1,0.4,1,1s-0.4,1-1,1l-4,0c-4.5-0.2-8-2.7-8-7c0-3.6,2.5-6.7,6-7.7
	C6.4,3.7,10.3,0,15,0c3.5,0,6.6,2.1,8.1,5c5,0.3,8.9,4.4,8.9,9.5c0,3.9-3.6,7-7,8.5h-5c-0.6,0-1-0.4-1-1S19.4,21,20,21z"/>
</svg>
