<?xml version="1.0" encoding="utf-8"?>
<!-- Generator: Adobe Illustrator 18.1.0, SVG Export Plug-In . SVG Version: 6.00 Build 0)  -->
<!DOCTYPE svg PUBLIC "-//W3C//DTD SVG 1.1//EN" "http://www.w3.org/Graphics/SVG/1.1/DTD/svg11.dtd">
<svg version="1.1" id="Calque_1" xmlns="http://www.w3.org/2000/svg" xmlns:xlink="http://www.w3.org/1999/xlink" x="0px" y="0px"
	 viewBox="0 0 32 32" enable-background="new 0 0 32 32" xml:space="preserve">
<g>
	<g>
		<path fill="#3366CC" d="M21.9,24.6L16,21.3l-5.9,3.3l1.1-6.9l-4.8-4.9l6.6-1l3-6.4l3,6.4l6.6,1l-4.8,4.9L21.9,24.6z M10.6,14.2
			l2.8,2.8l-0.6,3.9L16,19l3.3,1.8L18.7,17l2.8-2.8l-3.8-0.6L16,10.1l-1.6,3.5L10.6,14.2z"/>
	</g>
	<path fill-rule="evenodd" clip-rule="evenodd" fill="#3366CC" d="M28,32H4c-2.2,0-4-1.8-4-4V4c0-2.2,1.8-4,4-4h24c2.2,0,4,1.8,4,4
		v24C32,30.2,30.2,32,28,32z M30,4c0-1.1-0.9-2-2-2H4C2.9,2,2,2.9,2,4v24c0,1.1,0.9,2,2,2h24c1.1,0,2-0.9,2-2V4z"/>
</g>
</svg>
