<?xml version="1.0" encoding="utf-8"?>
<!-- Generator: Adobe Illustrator 18.1.0, SVG Export Plug-In . SVG Version: 6.00 Build 0)  -->
<!DOCTYPE svg PUBLIC "-//W3C//DTD SVG 1.1//EN" "http://www.w3.org/Graphics/SVG/1.1/DTD/svg11.dtd">
<svg version="1.1" id="Calque_1" xmlns="http://www.w3.org/2000/svg" xmlns:xlink="http://www.w3.org/1999/xlink" x="0px" y="0px"
	 viewBox="0 0 32 32" enable-background="new 0 0 32 32" xml:space="preserve">
<g>
	<path fill-rule="evenodd" clip-rule="evenodd" fill="#3366CC" d="M26,26H14l-4,6l-4-6c-3.3,0-6-2.7-6-6V6c0-3.3,2.7-6,6-6h20
		c3.3,0,6,2.7,6,6v14C32,23.3,29.3,26,26,26z M28,6c0-1.1-0.9-2-2-2H6C4.9,4,4,4.9,4,6v14c0,1.1,0.9,2,2,2h1.3l2.7,4l2.7-4H26
		c1.1,0,2-0.9,2-2V6z"/>
	<rect x="8" y="12" fill-rule="evenodd" clip-rule="evenodd" fill="#3366CC" width="16" height="2"/>
	<rect x="8" y="8" fill-rule="evenodd" clip-rule="evenodd" fill="#3366CC" width="16" height="2"/>
	<rect x="8" y="16" fill-rule="evenodd" clip-rule="evenodd" fill="#3366CC" width="8" height="2"/>
</g>
</svg>
