<?xml version="1.0" encoding="utf-8"?>
<!-- Generator: Adobe Illustrator 18.1.0, SVG Export Plug-In . SVG Version: 6.00 Build 0)  -->
<!DOCTYPE svg PUBLIC "-//W3C//DTD SVG 1.1//EN" "http://www.w3.org/Graphics/SVG/1.1/DTD/svg11.dtd">
<svg version="1.1" id="Calque_1" xmlns="http://www.w3.org/2000/svg" xmlns:xlink="http://www.w3.org/1999/xlink" x="0px" y="0px"
	 viewBox="0 0 32 32" enable-background="new 0 0 32 32" xml:space="preserve">
<g>
	<rect y="0" fill="none" width="32" height="32"/>
	<path fill="#3366CC" d="M16,0C7.2,0,0,7.2,0,16v16h3.7v-3.7v-5V16C3.7,9.2,9.2,3.7,16,3.7c6.8,0,12.3,5.5,12.3,12.3
		c0,6.6-5.2,12-11.7,12.3c-2.1,0-3.8-0.4-4.6-0.8v-5.3c1.2,0.8,2.5,1.2,4,1.2c4.1,0,7.3-3.3,7.3-7.3c0-4.1-3.3-7.3-7.3-7.3
		c-4.1,0-7.3,3.3-7.3,7.3v16h6.7c0.2,0,0.4,0,0.7,0c8.8,0,16-7.2,16-16S24.8,0,16,0z"/>
</g>
</svg>
