<?xml version="1.0" encoding="utf-8"?>
<!-- Generator: Adobe Illustrator 18.1.0, SVG Export Plug-In . SVG Version: 6.00 Build 0)  -->
<!DOCTYPE svg PUBLIC "-//W3C//DTD SVG 1.1//EN" "http://www.w3.org/Graphics/SVG/1.1/DTD/svg11.dtd">
<svg version="1.1" id="Calque_1" xmlns="http://www.w3.org/2000/svg" xmlns:xlink="http://www.w3.org/1999/xlink" x="0px" y="0px"
	 viewBox="0 0 32 32" enable-background="new 0 0 32 32" xml:space="preserve">
<g id="_x36__21_">
	<g>
		<path fill="#3366CC" d="M28,0H4C1.8,0,0,1.8,0,4v24c0,2.2,1.8,4,4,4h24c2.2,0,4-1.8,4-4V4C32,1.8,30.2,0,28,0z M4,30
			c-1.1,0-2-0.9-2-2v-0.9l7.9-7.1L20,30H4z M30,28c0,1.1-0.9,2-2,2h-5.2l-7.4-7.5L24,14l6,6V28z M30,17.1L24,11l-9.9,10.1L10,17
			l-8,7.3V4c0-1.1,0.9-2,2-2h24c1.1,0,2,0.9,2,2V17.1z M8,4C5.8,4,4,5.8,4,8s1.8,4,4,4c2.2,0,4-1.8,4-4S10.2,4,8,4z M8,10
			c-1.1,0-2-0.9-2-2c0-1.1,0.9-2,2-2c1.1,0,2,0.9,2,2C10,9.1,9.1,10,8,10z"/>
	</g>
</g>
</svg>
