<?xml version="1.0" encoding="UTF-8" standalone="no"?>
<!-- Created with Inkscape (http://www.inkscape.org/) -->

<svg
   xmlns:dc="http://purl.org/dc/elements/1.1/"
   xmlns:cc="http://creativecommons.org/ns#"
   xmlns:rdf="http://www.w3.org/1999/02/22-rdf-syntax-ns#"
   xmlns:svg="http://www.w3.org/2000/svg"
   xmlns="http://www.w3.org/2000/svg"
   xmlns:xlink="http://www.w3.org/1999/xlink"
   xmlns:sodipodi="http://sodipodi.sourceforge.net/DTD/sodipodi-0.dtd"
   xmlns:inkscape="http://www.inkscape.org/namespaces/inkscape"
   id="svg2"
   version="1.1"
   inkscape:version="0.48.5 r10040"
   width="64"
   height="64"
   sodipodi:docname="status-bad.svg">
  <metadata
     id="metadata8">
    <rdf:RDF>
      <cc:Work
         rdf:about="">
        <dc:format>image/svg+xml</dc:format>
        <dc:type
           rdf:resource="http://purl.org/dc/dcmitype/StillImage" />
        <dc:title></dc:title>
      </cc:Work>
    </rdf:RDF>
  </metadata>
  <defs
     id="defs6">
    <linearGradient
       inkscape:collect="always"
       id="linearGradient3008">
      <stop
         style="stop-color:#c10000;stop-opacity:1"
         offset="0"
         id="stop3010" />
      <stop
         id="stop3022"
         offset="0.21875"
         style="stop-color:#840000;stop-opacity:1" />
      <stop
         id="stop3018"
         offset="0.37499997"
         style="stop-color:#750000;stop-opacity:1" />
      <stop
         style="stop-color:#810000;stop-opacity:1"
         offset="0.734375"
         id="stop3024" />
      <stop
         style="stop-color:#950000;stop-opacity:1"
         offset="1"
         id="stop3012" />
    </linearGradient>
    <linearGradient
       inkscape:collect="always"
       xlink:href="#linearGradient3008"
       id="linearGradient3036"
       gradientUnits="userSpaceOnUse"
       gradientTransform="translate(-8,0)"
       x1="20"
       y1="0"
       x2="20"
       y2="64" />
  </defs>
  <sodipodi:namedview
     pagecolor="#ffffff"
     bordercolor="#666666"
     borderopacity="1"
     objecttolerance="10"
     gridtolerance="10"
     guidetolerance="10"
     inkscape:pageopacity="0"
     inkscape:pageshadow="2"
     inkscape:window-width="1613"
     inkscape:window-height="1026"
     id="namedview4"
     showgrid="true"
     inkscape:snap-bbox="true"
     inkscape:bbox-paths="true"
     inkscape:snap-bbox-edge-midpoints="true"
     inkscape:bbox-nodes="true"
     inkscape:snap-bbox-midpoints="true"
     inkscape:snap-smooth-nodes="true"
     inkscape:object-nodes="true"
     inkscape:zoom="10.429825"
     inkscape:cx="19.535963"
     inkscape:cy="27.534384"
     inkscape:window-x="1677"
     inkscape:window-y="-4"
     inkscape:window-maximized="1"
     inkscape:current-layer="svg2">
    <inkscape:grid
       type="xygrid"
       id="grid2987" />
  </sodipodi:namedview>
  <path
     style="color:#000000;fill:url(#linearGradient3036);fill-opacity:1;fill-rule:nonzero;stroke:none;stroke-width:0.50000000000000000;marker:none;visibility:visible;display:inline;overflow:visible;enable-background:accumulate"
     d="M 12 0 C 5.352 0 0 5.352 0 12 L 0 52 C 0 58.648 5.352 64 12 64 L 52 64 C 58.648 64 64 58.648 64 52 L 64 12 C 64 5.352 58.648 0 52 0 L 12 0 z M 12 8 L 52 8 C 54.216 8 56 9.784 56 12 L 56 52 C 56 54.216 54.216 56 52 56 L 12 56 C 9.784 56 8 54.216 8 52 L 8 12 C 8 9.784 9.784 8 12 8 z M 23.09375 19 C 22.044339 19 20.988173 19.386827 20.1875 20.1875 C 18.586153 21.788847 18.586153 24.398653 20.1875 26 L 26.65625 32 L 20.1875 38 C 18.586153 39.601347 18.586153 42.211153 20.1875 43.8125 C 20.988173 44.613173 22.044339 45 23.09375 45 C 24.143161 45 25.199327 44.613173 26 43.8125 L 32 37.5 L 38 43.8125 C 38.800673 44.613173 39.856839 45 40.90625 45 C 41.955661 45 43.011827 44.613173 43.8125 43.8125 C 45.413847 42.211153 45.413847 39.601347 43.8125 38 L 37.34375 32 L 43.8125 26 C 45.413847 24.398653 45.413847 21.788847 43.8125 20.1875 C 43.011827 19.386827 41.955661 19 40.90625 19 C 39.856839 19 38.800673 19.386827 38 20.1875 L 32 26.5 L 26 20.1875 C 25.199327 19.386827 24.143161 19 23.09375 19 z "
     id="rect2989" />
</svg>
