<?xml version="1.0" encoding="utf-8"?>
<!-- Generator: Adobe Illustrator 18.1.0, SVG Export Plug-In . SVG Version: 6.00 Build 0)  -->
<!DOCTYPE svg PUBLIC "-//W3C//DTD SVG 1.1//EN" "http://www.w3.org/Graphics/SVG/1.1/DTD/svg11.dtd">
<svg version="1.1" id="Calque_1" xmlns="http://www.w3.org/2000/svg" xmlns:xlink="http://www.w3.org/1999/xlink" x="0px" y="0px"
	 viewBox="0 0 32 32" enable-background="new 0 0 32 32" xml:space="preserve">
<g id="_x36__4_">
	<g>
		<path fill="#3366CC" d="M28,4H14c0-2.2-1.8-4-4-4H4C1.8,0,0,1.8,0,4v24c0,2.2,1.8,4,4,4h24c2.2,0,4-1.8,4-4V8C32,5.8,30.2,4,28,4z
			 M30,28c0,1.1-0.9,2-2,2H4c-1.1,0-2-0.9-2-2V12h28V28z M30,10H2V4c0-1.1,0.9-2,2-2h6c1.1,0,2,0.9,2,2v2h16c1.1,0,2,0.9,2,2V10z"/>
	</g>
</g>
</svg>
