<?xml version="1.0" encoding="UTF-8" standalone="no"?>
<svg
   sodipodi:docname="Eclipse_Adoptium_Logo_A_only_no_outline.svg"
   inkscape:version="1.3 (0e150ed6c4, 2023-07-21)"
   id="svg8"
   version="1.1"
   viewBox="0 0 800 800"
   height="800"
   width="800"
   inkscape:export-filename="Eclipse_Adoptium_Logo.png"
   inkscape:export-xdpi="61.439999"
   inkscape:export-ydpi="61.439999"
   xmlns:inkscape="http://www.inkscape.org/namespaces/inkscape"
   xmlns:sodipodi="http://sodipodi.sourceforge.net/DTD/sodipodi-0.dtd"
   xmlns="http://www.w3.org/2000/svg"
   xmlns:svg="http://www.w3.org/2000/svg"
   xmlns:rdf="http://www.w3.org/1999/02/22-rdf-syntax-ns#"
   xmlns:cc="http://creativecommons.org/ns#"
   xmlns:dc="http://purl.org/dc/elements/1.1/">
  <defs
     id="defs2">
    <clipPath
       clipPathUnits="userSpaceOnUse"
       id="clipPath242">
      <path
         d="m 987.855,678.469 -0.019,-0.008 -107.453,233.098 -81.121,-175.989 235.718,-106.09 0.01,0.02 c -21.01,10.078 -37.838,27.52 -47.135,48.969 z"
         id="path240" />
    </clipPath>
    <linearGradient
       x1="0"
       y1="0"
       x2="1"
       y2="0"
       gradientUnits="userSpaceOnUse"
       gradientTransform="matrix(-481.882,253.823,253.823,481.882,1152.35,658.95)"
       spreadMethod="pad"
       id="linearGradient248">
      <stop
         style="stop-opacity:1;stop-color:#421644"
         offset="0"
         id="stop244" />
      <stop
         style="stop-opacity:1;stop-color:#151530"
         offset="1"
         id="stop246" />
    </linearGradient>
    <clipPath
       clipPathUnits="userSpaceOnUse"
       id="clipPath258">
      <path
         d="m 1164.62,758.102 0.08,0.039 -194.618,422.029 c -0.547,1.32 -1.184,2.59 -1.789,3.88 l -1.453,3.16 -0.059,-0.03 c -0.324,0.65 -0.703,1.27 -1.054,1.9 7.382,-13.68 11.589,-29.34 11.589,-45.98 0,-14.34 -3.191,-27.91 -8.777,-40.15 l 0.059,-0.03 -88.215,-191.361 107.453,-233.098 0.019,0.008 c 14.915,-34.387 49.125,-58.457 89.005,-58.457 53.57,0 96.99,43.429 96.99,97 0,14.707 -3.37,28.597 -9.23,41.09 z"
         id="path256" />
    </clipPath>
    <linearGradient
       x1="0"
       y1="0"
       x2="1"
       y2="0"
       gradientUnits="userSpaceOnUse"
       gradientTransform="matrix(265.274,-595.434,-595.434,-265.274,846.292,1230.46)"
       spreadMethod="pad"
       id="linearGradient264">
      <stop
         style="stop-opacity:1;stop-color:#a21058"
         offset="0"
         id="stop260" />
      <stop
         style="stop-opacity:1;stop-color:#421644"
         offset="1"
         id="stop262" />
    </linearGradient>
    <clipPath
       clipPathUnits="userSpaceOnUse"
       id="clipPath274">
      <path
         d="m 880.316,1240.11 c -37.687,0 -70.273,-21.54 -86.328,-52.93 l -0.058,0.03 -1.457,-3.16 c -0.606,-1.29 -1.239,-2.56 -1.785,-3.88 l -194.622,-422.029 0.079,-0.039 c -5.86,-12.493 -9.227,-26.383 -9.227,-41.09 0,-53.571 43.418,-97 96.992,-97 39.871,0 74.09,24.07 89.004,58.457 l 0.02,-0.008 195.664,424.459 -0.059,0.03 c 5.586,12.24 8.777,25.81 8.777,40.15 0,53.58 -43.425,97.01 -97,97.01 z"
         id="path272" />
    </clipPath>
    <linearGradient
       x1="0"
       y1="0"
       x2="1"
       y2="0"
       gradientUnits="userSpaceOnUse"
       gradientTransform="matrix(259.548,595.434,595.434,-259.548,649.304,625.36)"
       spreadMethod="pad"
       id="linearGradient280">
      <stop
         style="stop-opacity:1;stop-color:#ee1a6d"
         offset="0"
         id="stop276" />
      <stop
         style="stop-opacity:1;stop-color:#a21058"
         offset="1"
         id="stop278" />
    </linearGradient>
  </defs>
  <sodipodi:namedview
     height="100mm"
     inkscape:window-maximized="1"
     inkscape:window-y="-8"
     inkscape:window-x="1912"
     inkscape:window-height="1057"
     inkscape:window-width="1920"
     showgrid="false"
     inkscape:document-rotation="0"
     inkscape:current-layer="g216"
     inkscape:document-units="px"
     inkscape:cy="396.88538"
     inkscape:cx="322.07976"
     inkscape:zoom="0.72187089"
     inkscape:pageshadow="2"
     inkscape:pageopacity="0.0"
     borderopacity="1.0"
     bordercolor="#666666"
     pagecolor="#494949"
     id="base"
     inkscape:showpageshadow="0"
     inkscape:pagecheckerboard="1"
     inkscape:deskcolor="#505050" />
  <metadata
     id="metadata5">
    <rdf:RDF>
      <cc:Work
         rdf:about="">
        <dc:format>image/svg+xml</dc:format>
        <dc:type
           rdf:resource="http://purl.org/dc/dcmitype/StillImage" />
      </cc:Work>
    </rdf:RDF>
  </metadata>
  <g
     id="layer1"
     inkscape:groupmode="layer"
     inkscape:label="Layer 1">
    <g
       inkscape:export-ydpi="96"
       inkscape:export-xdpi="96"
       transform="matrix(0.0826697,0,0,-0.0826697,-36.864228,126.62103)"
       id="g216">
      <g
         id="g236"
         transform="matrix(13.679999,0,0,13.679976,-6760.5652,-16025.746)">
        <g
           clip-path="url(#clipPath242)"
           id="g238">
          <path
             id="path250"
             style="fill:url(#linearGradient248);fill-opacity:1;fill-rule:nonzero;stroke:none"
             d="m 987.855,678.469 -0.019,-0.008 -107.453,233.098 -81.121,-175.989 235.718,-106.09 0.01,0.02 c -21.01,10.078 -37.838,27.52 -47.135,48.969" />
        </g>
      </g>
      <g
         id="g252"
         transform="matrix(13.679999,0,0,13.679976,-6760.5652,-16025.746)">
        <g
           clip-path="url(#clipPath258)"
           id="g254">
          <path
             id="path266"
             style="fill:url(#linearGradient264);fill-opacity:1;fill-rule:nonzero;stroke:none"
             d="m 1164.62,758.102 0.08,0.039 -194.618,422.029 c -0.547,1.32 -1.184,2.59 -1.789,3.88 l -1.453,3.16 -0.059,-0.03 c -0.324,0.65 -0.703,1.27 -1.054,1.9 7.382,-13.68 11.589,-29.34 11.589,-45.98 0,-14.34 -3.191,-27.91 -8.777,-40.15 l 0.059,-0.03 -88.215,-191.361 107.453,-233.098 0.019,0.008 c 14.915,-34.387 49.125,-58.457 89.005,-58.457 53.57,0 96.99,43.429 96.99,97 0,14.707 -3.37,28.597 -9.23,41.09" />
        </g>
      </g>
      <g
         id="g268"
         transform="matrix(1.2000009,0,0,1.1999989,-853.84911,665.71675)">
        <g
           clip-path="url(#clipPath274)"
           id="g270"
           transform="matrix(11.39999,0,0,11.39999,-4922.2595,-13909.564)">
          <path
             id="path282"
             style="fill:url(#linearGradient280);fill-opacity:1;fill-rule:nonzero;stroke:none"
             d="m 880.316,1240.11 c -37.687,0 -70.273,-21.54 -86.328,-52.93 l -0.058,0.03 -1.457,-3.16 c -0.606,-1.29 -1.239,-2.56 -1.785,-3.88 l -194.622,-422.029 0.079,-0.039 c -5.86,-12.493 -9.227,-26.383 -9.227,-41.09 0,-53.571 43.418,-97 96.992,-97 39.871,0 74.09,24.07 89.004,58.457 l 0.02,-0.008 195.664,424.459 -0.059,0.03 c 5.586,12.24 8.777,25.81 8.777,40.15 0,53.58 -43.425,97.01 -97,97.01" />
        </g>
      </g>
    </g>
  </g>
</svg>
