<svg clip-rule="evenodd" fill-rule="evenodd" stroke-linejoin="round" stroke-miterlimit="2" viewBox="0 0 2084 2084" xmlns="http://www.w3.org/2000/svg">
  <g fill-rule="nonzero">
    <path d="m1041.67 81.38 272.437 159.032-825.246 478.685-272.438-157.971zm87.28 371.074 274.024-159.032 463.937 271.945-276.14 153.73z" fill="#3b3b3b"/>
    <path d="m216.42 561.126v961.081l825.247 479.746v-317.003l-551.222-321.774-1.587-644.079z" fill="#2e2e2e"/>
    <path d="m1866.91 1517.97-825.246 483.986v-317.003l550.164-320.714-1.058-645.139 276.14-153.73z" fill="#333"/>
    <path d="m1590.77 719.097-549.106 310.112v165.393l214.246-122.984v488.757l138.599-81.106v-489.818l196.261-115.563z" fill="#89c236"/>
    <path d="m488.858 719.097 1.587 644.079 152.353 90.118v-198.79l230.645 132.527v199.319l168.753 98.6v-655.741zm383.527 531.166-227.471-131.466v-150.02l227.471 127.225z" fill="#7baf31"/>
  </g>
</svg>
