<svg xmlns="http://www.w3.org/2000/svg" xmlns:svg="http://www.w3.org/2000/svg" xmlns:xlink="http://www.w3.org/1999/xlink" id="svg2" width="32" height="32" version="1.1"><defs id="defs4"><linearGradient id="linearGradient4218"><stop id="stop4220" offset="0" style="stop-color:#000;stop-opacity:.18222222"/><stop id="stop4222" offset="1" style="stop-color:#fff;stop-opacity:0"/></linearGradient><linearGradient id="linearGradient4204"><stop style="stop-color:#fff;stop-opacity:.2" id="stop4206" offset="0"/><stop style="stop-color:#fff;stop-opacity:0" id="stop4208" offset="1"/></linearGradient><linearGradient id="linearGradient3928"><stop style="stop-color:#e20;stop-opacity:1" id="stop3930" offset="0"/><stop style="stop-color:#5d0000;stop-opacity:1" id="stop3932" offset="1"/></linearGradient><linearGradient id="linearGradient3914"><stop style="stop-color:#d41e00;stop-opacity:1" id="stop3916" offset="0"/><stop style="stop-color:#560000;stop-opacity:1" id="stop3918" offset="1"/></linearGradient><filter id="filter3982" width="1.277" height="1.277" x="-.138" y="-.138"><feGaussianBlur id="feGaussianBlur3984" stdDeviation=".173"/></filter><radialGradient id="radialGradient4007" cx="50" cy="1039.874" r="5" fx="50" fy="1039.874" gradientTransform="matrix(1.1999988,1.6000096,-0.64514251,0.48385298,660.86724,457.21535)" gradientUnits="userSpaceOnUse" xlink:href="#linearGradient3928"/><radialGradient id="radialGradient4009" cx="53.469" cy="1036.837" r="4.032" fx="53.469" fy="1036.837" gradientTransform="matrix(1.9840484,3.4721317,-1.0766621,0.61522625,1063.4143,213.8808)" gradientUnits="userSpaceOnUse" xlink:href="#linearGradient3914"/><filter id="filter4097"><feGaussianBlur id="feGaussianBlur4099" stdDeviation=".556"/></filter><filter id="filter4161"><feGaussianBlur id="feGaussianBlur4163" stdDeviation=".123"/></filter><radialGradient id="radialGradient4174" cx="49.743" cy="1033.588" r="5" fx="49.743" fy="1033.588" gradientTransform="matrix(-1.195069,-1.6036951,1.3789506,-1.0275877,-1295.4553,2174.0912)" gradientUnits="userSpaceOnUse" xlink:href="#linearGradient3928"/><linearGradient id="linearGradient4212" x1="70.5" x2="69" y1="1035.362" y2="1036.862" gradientUnits="userSpaceOnUse" xlink:href="#linearGradient4204"/><linearGradient id="linearGradient4216" x1="84" x2="85" y1="1035.362" y2="1034.362" gradientTransform="translate(-15,-1.5)" gradientUnits="userSpaceOnUse" xlink:href="#linearGradient4218"/><radialGradient id="radialGradient4237" cx="49.743" cy="1033.588" r="5" fx="49.743" fy="1033.588" gradientTransform="matrix(-1.195069,-1.6036951,1.3789506,-1.0275877,-1295.4553,2174.0912)" gradientUnits="userSpaceOnUse" xlink:href="#linearGradient3928"/><linearGradient id="linearGradient4239" x1="70.5" x2="69" y1="1035.362" y2="1036.862" gradientUnits="userSpaceOnUse" xlink:href="#linearGradient4204"/><linearGradient id="linearGradient4241" x1="84" x2="85" y1="1035.362" y2="1034.362" gradientTransform="translate(-15,-1.5)" gradientUnits="userSpaceOnUse" xlink:href="#linearGradient4218"/></defs><metadata id="metadata7"/><g id="layer1" transform="translate(0,-1020.3622)"><path id="rect4013" d="m 10.25,1022.0497 0,4 -4,4 -4,0 0,2 4,0 0,2 c 2e-6,1.4503 0.117423,2.7742 0.3125,4 l -4.3125,0 0,2 4.75,0 c 0.379006,1.4252 0.851671,2.6914 1.46875,3.7813 l -2.21875,2.2187 0,2 2,0 1.875,-1.875 c 1.218087,1.3481 2.651451,2.2896 4.125,2.9375 l 0,2.9375 2,0 0,-2.25 c 5.000011,1.25 10.000061,-0.7499 10,-3.75 2.599309,0 4.428024,-3.7452 4.0625,-8 l 1.9375,0 0,-2 -2.25,0 c -0.338089,-1.3524 -0.923138,-2.7153 -1.78125,-3.9687 l 2.03125,-2.0313 0,-2 -2,0 -1.875,1.875 c -1.104498,-0.9979 -2.47625,-1.8385 -4.125,-2.5 l 0,-3.375 -2,0 0,2.75 c -1.736548,-0.4618 -3.716809,-0.75 -6,-0.75 l -2,0 0,-4 -2,0 z" style="opacity:.69037655;fill:#000;fill-opacity:1;stroke:none;filter:url(#filter4097)"/><g id="g3986" transform="matrix(2,0,0,2,-89,-1043.3622)"><rect id="rect3876" width="1" height="3" x="51" y="24" transform="translate(0,1020.3622)" style="fill:#000;fill-opacity:1;stroke:none"/><rect id="rect3874" width="2.5" height="1" x="45.5" y="1040.362" style="fill:#000;fill-opacity:1;stroke:none"/><path id="path3878" d="m 46.5,24.5 1,0.5 2,-2 0.5,0 -1,-1 z" transform="translate(0,1020.3622)" style="fill:#000;stroke:none"/><rect id="rect3870" width="2" height="1" x="58" y="19" transform="translate(0,1020.3622)" style="fill:#000;fill-opacity:1;stroke:none"/><path id="path3868" d="M 57,16.5 58.5,15 59,16 57.5,17.5 C 56.533856,16.56406 55.788428,17.105786 57,16.5 z" transform="translate(0,1020.3622)" style="fill:#000;stroke:none"/><path id="path3866" d="m 47,18 0,-2 2,-2 2,0 c 0.815212,1.242754 1.053351,2.549628 0,4 -1.239551,0.522502 -2.476067,1.061913 -4,0 z" transform="translate(0,1020.3622)" style="fill:#333;stroke:none"/><rect id="rect3872" width="1" height="2" x="54" y="13" transform="translate(0,1020.3622)" style="fill:#000;fill-opacity:1;stroke:none"/><rect id="rect3880" width="1" height="3" x="49" y="12" transform="translate(0,1020.3622)" style="fill:#000;fill-opacity:1;stroke:none"/><rect id="rect3882" width="3" height="1" x="45" y="16" transform="translate(0,1020.3622)" style="fill:#000;fill-opacity:1;stroke:none"/><path style="opacity:.80753138;fill:#1a1a1a;stroke:none;filter:url(#filter3982)" id="path3948" d="m 47.75,1039.1747 0.140625,-2.1562 0.640625,-1.2032 1.125,-0.8125 2.03125,-0.062 -0.21875,3.9375 z"/><g id="g4232" transform="translate(-17,5.5)"><path id="path4165" d="m 68,1028.8622 c 0.803076,1.5119 0.470137,2.7762 0,4 -1.461682,0.7487 -2.788281,0.7094 -4,0 1.5e-5,10 10.000061,9.0001 10,6 3.000056,0 4.000023,-10 -6,-10 z" style="fill:url(#radialGradient4237);fill-opacity:1;stroke:none"/><path style="fill:url(#linearGradient4239);fill-opacity:1;stroke:none" id="path4194" d="m 68,1032.8622 6,6 c 6.1e-5,3.0001 -9.999985,4 -10,-6 1.211719,0.7094 2.538318,0.7487 4,0 z"/><path id="path4196" d="m 68,1032.8622 5.999942,6 c 3.000056,0 4.000029,-10 -5.999994,-10 0.803076,1.5119 0.470189,2.7762 5.2e-5,4 z" style="fill:url(#linearGradient4241);fill-opacity:1;stroke:none"/></g><path id="path3936" d="M 54,16.5 C 54,16.776142 53.776142,17 53.5,17 53.223858,17 53,16.776142 53,16.5 53,16.223858 53.223858,16 53.5,16 c 0.276142,0 0.5,0.223858 0.5,0.5 z" transform="matrix(1.5,0,0,1.5,-27.5,1011.8622)" style="fill:#000;fill-opacity:1;stroke:none"/><path id="path3938" d="M 56,18.5 C 56,18.776142 55.776142,19 55.5,19 55.223858,19 55,18.776142 55,18.5 55,18.223858 55.223858,18 55.5,18 c 0.276142,0 0.5,0.223858 0.5,0.5 z" transform="matrix(1.5,0,0,1.5,-28,1010.8622)" style="fill:#000;fill-opacity:1;stroke:none"/><path id="path3940" d="M 50,20.5 C 50,20.776142 49.776142,21 49.5,21 49.223858,21 49,20.776142 49,20.5 49,20.223858 49.223858,20 49.5,20 c 0.276142,0 0.5,0.223858 0.5,0.5 z" transform="matrix(1.5,0,0,1.5,-25,1009.3622)" style="fill:#000;fill-opacity:1;stroke:none"/><path id="path3942" d="M 52,22.5 C 52,22.776142 51.776142,23 51.5,23 51.223858,23 51,22.776142 51,22.5 51,22.223858 51.223858,22 51.5,22 c 0.276142,0 0.5,0.223858 0.5,0.5 z" transform="matrix(1.5,0,0,1.5,-26,1008.8622)" style="fill:#000;fill-opacity:1;stroke:none"/><path id="path3944" d="M 54,23.5 C 54,23.776142 53.776142,24 53.5,24 53.223858,24 53,23.776142 53,23.5 53,23.223858 53.223858,23 53.5,23 c 0.276142,0 0.5,0.223858 0.5,0.5 z" transform="matrix(1.5,0,0,1.5,-26.5,1009.3622)" style="fill:#000;fill-opacity:1;stroke:none"/><path id="path3946" d="M 57,20.5 C 57,20.776142 56.776142,21 56.5,21 56.223858,21 56,20.776142 56,20.5 56,20.223858 56.223858,20 56.5,20 c 0.276142,0 0.5,0.223858 0.5,0.5 z" transform="matrix(1.5,0,0,1.5,-27.5,1010.3622)" style="fill:#000;fill-opacity:1;stroke:none"/></g></g></svg>