<svg height="32" width="32" xmlns="http://www.w3.org/2000/svg" xmlns:xlink="http://www.w3.org/1999/xlink">
  <filter id="a" height="1.276543" width="1.276543" x="-.138272" y="-.138272">
    <feGaussianBlur stdDeviation=".17283951"/>
  </filter>
  <filter id="b">
    <feGaussianBlur stdDeviation=".55555556"/>
  </filter>
  <radialGradient id="c" cx="49.742828" cy="1033.5878" gradientTransform="matrix(-1.195069 -1.6036951 1.3789506 -1.0275877 -1295.4553 2174.0912)" gradientUnits="userSpaceOnUse" r="5">
    <stop offset="0" stop-color="#e20"/>
    <stop offset="1" stop-color="#5d0000"/>
  </radialGradient>
  <linearGradient id="d" gradientUnits="userSpaceOnUse" x1="70.5" x2="69" y1="1035.3622" y2="1036.8622">
    <stop offset="0" stop-color="#fff" stop-opacity=".2"/>
    <stop offset="1" stop-color="#fff" stop-opacity="0"/>
  </linearGradient>
  <linearGradient id="e" gradientUnits="userSpaceOnUse" x1="69" x2="70" y1="1033.8622" y2="1032.8622">
    <stop offset="0" stop-opacity=".182222"/>
    <stop offset="1" stop-color="#fff" stop-opacity="0"/>
  </linearGradient>
  <metadata/>
  <g transform="translate(0 -1020.3622)">
    <path d="m10.25 1022.0497v4l-4 4h-4v2h4v2c.000002 1.4503.117423 2.7742.3125 4h-4.3125v2h4.75c.379006 1.4252.851671 2.6914 1.46875 3.7813l-2.21875 2.2187v2h2l1.875-1.875c1.218087 1.3481 2.651451 2.2896 4.125 2.9375v2.9375h2v-2.25c5.000011 1.25 10.000061-.7499 10-3.75 2.599309 0 4.428024-3.7452 4.0625-8h1.9375v-2h-2.25c-.338089-1.3524-.923138-2.7153-1.78125-3.9687l2.03125-2.0313v-2h-2l-1.875 1.875c-1.104498-.9979-2.47625-1.8385-4.125-2.5v-3.375h-2v2.75c-1.736548-.4618-3.716809-.75-6-.75h-2v-4z" filter="url(#b)" opacity=".690377"/>
    <g transform="matrix(2 0 0 2 -89 -1043.3622)">
      <rect height="3" width="1" x="51" y="1044.3622"/>
      <rect height="1" width="2.5" x="45.5" y="1040.3622"/>
      <path d="m46.5 24.5 1 .5 2-2h.5l-1-1z" transform="translate(0 1020.3622)"/>
      <rect height="1" width="2" x="58" y="1039.3622"/>
      <path d="m57 16.5 1.5-1.5.5 1-1.5 1.5c-.966144-.93594-1.711572-.394214-.5-1z" transform="translate(0 1020.3622)"/>
      <path d="m47 18v-2l2-2h2c.815212 1.242754 1.053351 2.549628 0 4-1.239551.522502-2.476067 1.061913-4 0z" fill="#333" transform="translate(0 1020.3622)"/>
      <rect height="2" width="1" x="54" y="1033.3622"/>
      <rect height="3" width="1" x="49" y="1032.3622"/>
      <rect height="1" width="3" x="45" y="1036.3622"/>
      <path d="m47.75 1039.1747.140625-2.1562.640625-1.2032 1.125-.8125 2.03125-.062-.21875 3.9375z" fill="#1a1a1a" filter="url(#a)" opacity=".807531"/>
      <g transform="translate(-17 5.5)">
        <path d="m68 1028.8622c.803076 1.5119.470137 2.7762 0 4-1.461682.7487-2.788281.7094-4 0 .000015 10 10.000061 9.0001 10 6 3.000056 0 4.000023-10-6-10z" fill="url(#c)"/>
        <path d="m68 1032.8622 6 6c.000061 3.0001-9.999985 4-10-6 1.211719.7094 2.538318.7487 4 0z" fill="url(#d)"/>
        <path d="m68 1032.8622 5.999942 6c3.000056 0 4.000029-10-5.999994-10 .803076 1.5119.470189 2.7762.000052 4z" fill="url(#e)"/>
      </g>
      <path d="m54 16.5c0 .276142-.223858.5-.5.5s-.5-.223858-.5-.5.223858-.5.5-.5.5.223858.5.5z" transform="matrix(1.5 0 0 1.5 -27.5 1011.8622)"/>
      <path d="m56 18.5c0 .276142-.223858.5-.5.5s-.5-.223858-.5-.5.223858-.5.5-.5.5.223858.5.5z" transform="matrix(1.5 0 0 1.5 -28 1010.8622)"/>
      <path d="m50 20.5c0 .276142-.223858.5-.5.5s-.5-.223858-.5-.5.223858-.5.5-.5.5.223858.5.5z" transform="matrix(1.5 0 0 1.5 -25 1009.3622)"/>
      <path d="m52 22.5c0 .276142-.223858.5-.5.5s-.5-.223858-.5-.5.223858-.5.5-.5.5.223858.5.5z" transform="matrix(1.5 0 0 1.5 -26 1008.8622)"/>
      <path d="m54 23.5c0 .276142-.223858.5-.5.5s-.5-.223858-.5-.5.223858-.5.5-.5.5.223858.5.5z" transform="matrix(1.5 0 0 1.5 -26.5 1009.3622)"/>
      <path d="m57 20.5c0 .276142-.223858.5-.5.5s-.5-.223858-.5-.5.223858-.5.5-.5.5.223858.5.5z" transform="matrix(1.5 0 0 1.5 -27.5 1010.3622)"/>
    </g>
  </g>
</svg>
