<svg height="128" width="128" xmlns="http://www.w3.org/2000/svg" xmlns:xlink="http://www.w3.org/1999/xlink">
  <linearGradient id="a">
    <stop offset="0" stop-color="#fff"/>
    <stop offset="1" stop-color="#fff" stop-opacity="0"/>
  </linearGradient>
  <linearGradient id="b" gradientTransform="matrix(1.0033404 0 0 1 -8.237468 8)" gradientUnits="userSpaceOnUse" x1="71.9995" x2="71.9995" y1="14.2578" y2="19.9583">
    <stop offset=".25" stop-color="#71a8f5" stop-opacity="0"/>
    <stop offset="1" stop-color="#0057ae"/>
  </linearGradient>
  <filter id="c" height="1.768" width="1.0512" x="-.0256" y="-.384">
    <feGaussianBlur stdDeviation="1.28"/>
  </filter>
  <linearGradient id="d" gradientUnits="userSpaceOnUse" x1="64.000505" x2="64.000505" y1="104" y2="8.000488">
    <stop offset="0" stop-color="#00479e"/>
    <stop offset=".0769" stop-color="#2c72c7"/>
    <stop offset=".58579999" stop-color="#6ea1df"/>
    <stop offset=".96450001" stop-color="#adcbee"/>
  </linearGradient>
  <linearGradient id="e" gradientUnits="userSpaceOnUse" x1="32.413761" x2="32.413761" xlink:href="#a" y1="28.5" y2="34.472866"/>
  <linearGradient id="f" gradientTransform="matrix(1.0033876 0 0 1 -8.243876 8)" gradientUnits="userSpaceOnUse" x1="72.0005" x2="72.0005" y1="96" y2="20.0005">
    <stop offset="0" stop-color="#cfe7ff"/>
    <stop offset=".5917" stop-color="#71a8f5"/>
    <stop offset="1" stop-color="#2c72c7"/>
  </linearGradient>
  <clipPath id="g">
    <path d="m133.86613 100.978c-.07325 1.391-1.27028 2.522-2.667 2.522h-114.386178c-1.397716 0-2.593752-1.132-2.667005-2.521 0 0-3.637281-70.012-3.637281-70.022-.047153-.656.164557-1.272.597018-1.737.43346-.464 1.034488-.719 1.693719-.719h122.413277c.65922 0 1.26025.255 1.69071.718.43045.463.63915 1.079.58798 1.747z"/>
  </clipPath>
  <filter id="h" height="1.830275" width="1.024714" x="-.012357" y="-.415138">
    <feGaussianBlur stdDeviation=".65388509"/>
  </filter>
  <linearGradient id="i" gradientTransform="matrix(1.0033808 0 0 1 -8.2378 8)" gradientUnits="userSpaceOnUse" x1="122.74438" x2="122.74438" y1="96.721588" y2="20">
    <stop offset="0" stop-color="#88c4ff"/>
    <stop offset=".13053299" stop-color="#b3d9ff"/>
    <stop offset=".72006166" stop-color="#71a8f5"/>
    <stop offset="1" stop-color="#508ed9"/>
  </linearGradient>
  <radialGradient id="j" cx="41.233166" cy="39.832623" fx="41.409943" fy="44.369892" gradientTransform="matrix(1 0 0 .75 0 9.958156)" gradientUnits="userSpaceOnUse" r="8.131728" xlink:href="#K"/>
  <filter id="k">
    <feGaussianBlur stdDeviation=".24178075"/>
  </filter>
  <radialGradient id="l" cx="122.69361" cy="52.672272" fx="122.55822" fy="51.026066" gradientTransform="matrix(1.2538745 -.4598801 .2575547 .7022291 -43.321636 71.69735)" gradientUnits="userSpaceOnUse" r="3.188384" xlink:href="#a"/>
  <radialGradient id="m" cx="121.58587" cy="52.85474" gradientTransform="matrix(2.2248115 -.5961364 .2773621 1.0351295 -163.57967 70.62501)" gradientUnits="userSpaceOnUse" r="3.188384" xlink:href="#a"/>
  <filter id="n" height="1.212691" width="1.230764" x="-.115382" y="-.106346">
    <feGaussianBlur stdDeviation=".25849222"/>
  </filter>
  <filter id="o" height="1.335828" width="1.364364" x="-.182182" y="-.167914">
    <feGaussianBlur stdDeviation=".40814561"/>
  </filter>
  <radialGradient id="p" cx="64.101562" cy="48.703125" gradientTransform="matrix(1 0 0 .6476898 0 17.158608)" gradientUnits="userSpaceOnUse" r="56.812496" xlink:href="#K"/>
  <filter id="q">
    <feGaussianBlur stdDeviation=".3785028"/>
  </filter>
  <radialGradient id="r" cx="26.573795" cy="73.493042" fx="35.587811" fy="102.79941" gradientTransform="matrix(4.6812453 -.00000053 .00000004 .3172375 -85.242554 44.725131)" gradientUnits="userSpaceOnUse" r="60.700562" xlink:href="#L"/>
  <filter id="s">
    <feGaussianBlur stdDeviation=".26585998"/>
  </filter>
  <radialGradient id="t" cx="64.35347" cy="106.71302" gradientTransform="matrix(.4443044 .00000001 0 .1825067 35.563425 89.646593)" gradientUnits="userSpaceOnUse" r="60.700505" xlink:href="#L"/>
  <radialGradient id="u" cx="64.07962" cy="66.197433" gradientTransform="matrix(1 0 0 .9554688 0 2.947853)" gradientUnits="userSpaceOnUse" r="60.700504" xlink:href="#J"/>
  <filter id="v">
    <feGaussianBlur stdDeviation=".23739589"/>
  </filter>
  <linearGradient id="w" gradientUnits="userSpaceOnUse" x1="64.07962" x2="64.07962" xlink:href="#J" y1="-14.227339" y2="120.44466"/>
  <radialGradient id="x" cx="64.35347" cy="98.207405" gradientTransform="matrix(.09135844 -.00000003 .00000005 .1392616 58.276716 94.261412)" gradientUnits="userSpaceOnUse" r="60.700505" xlink:href="#L"/>
  <linearGradient id="y" gradientUnits="userSpaceOnUse" spreadMethod="reflect" x1="28.637825" x2="31.289474" y1="120.84999" y2="122.08743">
    <stop offset="0" stop-color="#faff64"/>
    <stop offset="1" stop-color="#faff64" stop-opacity="0"/>
  </linearGradient>
  <filter id="z">
    <feGaussianBlur stdDeviation=".18346262"/>
  </filter>
  <filter id="A" height="1.310137" width="1.356338" x="-.178169" y="-.155069">
    <feGaussianBlur stdDeviation=".46259975"/>
  </filter>
  <linearGradient id="B" gradientUnits="userSpaceOnUse" spreadMethod="reflect" x1="63.948792" x2="67.219337" xlink:href="#a" y1="12.034382" y2="12.034382"/>
  <filter id="C">
    <feGaussianBlur stdDeviation=".11157909"/>
  </filter>
  <filter id="D">
    <feGaussianBlur stdDeviation=".55939545"/>
  </filter>
  <linearGradient id="E" gradientUnits="userSpaceOnUse" x1="64.88614" x2="64.88614" y1="122.5867" y2="37.969955">
    <stop offset="0" stop-color="#fffc07"/>
    <stop offset="1" stop-color="#fffc07" stop-opacity="0"/>
  </linearGradient>
  <linearGradient id="F" gradientUnits="userSpaceOnUse" x1="177.42397" x2="177.60074" xlink:href="#a" y1="22.377773" y2="93.022789"/>
  <linearGradient id="G" gradientUnits="userSpaceOnUse" x1="223.730038" x2="162.406248" xlink:href="#a" y1="77.530925" y2="30.98865"/>
  <linearGradient id="H" gradientUnits="userSpaceOnUse" x1="49.13569" x2="49.13569" xlink:href="#a" y1="28.149843" y2="116.41813"/>
  <radialGradient id="I" cx="69.526619" cy="60.115833" fy="89.655701" gradientTransform="matrix(.9439139 -.3301918 .332644 .9509241 -16.097695 27.249949)" gradientUnits="userSpaceOnUse" r="111.65377">
    <stop offset="0" stop-color="#ff0"/>
    <stop offset="1" stop-color="#ffb66d"/>
  </radialGradient>
  <linearGradient id="J" gradientUnits="userSpaceOnUse" x1="95.693398" x2="32.308601" y1="141.1738" y2="77.789001">
    <stop offset="0" stop-color="#ffc60a"/>
    <stop offset="1" stop-color="#b03b00"/>
  </linearGradient>
  <linearGradient id="K">
    <stop offset="0" stop-color="#f4ff3f"/>
    <stop offset="1" stop-color="#fff" stop-opacity="0"/>
  </linearGradient>
  <linearGradient id="L">
    <stop offset="0" stop-color="#7e0000"/>
    <stop offset="1" stop-color="#673400" stop-opacity="0"/>
  </linearGradient>
  <linearGradient id="M" gradientUnits="userSpaceOnUse" spreadMethod="reflect" x1="71.624469" x2="70.47935" y1="84.144539" y2="111.343011">
    <stop offset="0" stop-color="#fff" stop-opacity=".55036"/>
    <stop offset="1" stop-color="#fff" stop-opacity="0"/>
  </linearGradient>
  <radialGradient id="N" cx="66.977158" cy="54.133701" gradientTransform="matrix(1.6011045 0 0 1.0874708 -40.260269 -12.584491)" gradientUnits="userSpaceOnUse" r="41.380203">
    <stop offset="0" stop-color="#ffda36"/>
    <stop offset="1" stop-color="#ffda36" stop-opacity="0"/>
  </radialGradient>
  <filter id="O">
    <feGaussianBlur stdDeviation="2.160955"/>
  </filter>
  <metadata/>
  <path d="m117.983 19c.009-1.65-1.33301-3-2.98301-3h-70.038983l-6.586001-6.586c-.778001-.778-2.314-1.414-3.414006-1.414h-20.961002c-2.200002 0-3.999999 1.8-3.999999 4v7s1 85-2.999999 85h114c-4.00001 0-3.017-85-3.017-85z" fill="url(#d)"/>
  <g filter="url(#c)" opacity=".6" transform="matrix(1.0033404 0 0 1 -8.237468 8)">
    <path d="m132 95.146667c0 1.730666-3.6 3.146666-8 3.146666h-104c-4.4 0-8-1.416-8-3.146666 0-1.730667 3.6-3.146667 8-3.146667h104c4.4 0 8 1.416 8 3.146667z"/>
  </g>
  <path d="m124.36598 101.004c-.08629 1.648-1.51209 2.996-3.16767 2.996h-114.385404c-1.655577 0-3.081384-1.348-3.168678-2.996l-3.636246-70.012c-.120405-1.645 1.135826-2.992 2.791402-2.992h122.412446c1.65558 0 2.90579 1.346 2.77937 2.991z" fill="url(#i)" opacity=".9"/>
  <path d="m10.580094 28c-.029008-4.391-.064007-7.608-.080016-9v-7c0-1.93 1.570252-3.5 3.500549-3.5h20.964294c.972156 0 2.374373.581 3.061486 1.268l6.73305 6.732h70.257023c.66411 0 1.28821.26 1.75928.733s.72911 1.1.72511 1.764c0 0 .07201-.072.10902-.109-.12202.607-.13502 2.174-.16302 6.273l-.01 2.839h.49207c.031-5.532.07101-9 .07101-9 .00901-1.65-1.33321-3-2.98347-3h-70.049982l-6.587035-6.586c-.778123-.778-2.314364-1.414-3.414542-1.414h-20.964294c-2.200347 0-4.000627 1.8-4.000627 4v7s.041009 3.468.073018 9z" fill="#5293ee"/>
  <path d="m9.8848616 22c.00903 1.75.01806 3.755.02609 6h108.1841584c.00903-2.245.01806-4.25.02609-6z" fill="url(#b)" opacity=".5"/>
  <path clip-path="url(#g)" d="m12.8125 28.5c-.659231 0-1.28529.254751-1.71875.71875-.432461.465-.640903 1.093999-.59375 1.75 0 .000187.059992 1.264038.0625 1.3125.085237-.394993.252787-.763085.53125-1.0625.43346-.463999 1.059519-.71875 1.71875-.71875h122.40625c.65922.000001 1.25704.25575 1.6875.71875.27717.298127.44814.664466.53125 1.0625l.0625-1.3125c.05117-.668-.1633-1.287-.59375-1.75-.43046-.463-1.02828-.718749-1.6875-.71875z" fill="url(#e)" filter="url(#h)" transform="translate(-10)"/>
  <path d="m125.21268 28h-122.413277c-1.655588 0-2.9118267 1.347-2.791421 2.992l3.637281 70.012c.086284 1.648 1.512101 2.996 3.167689 2.996h114.386178c1.65559 0 3.0814-1.348 3.16769-2.996l3.62424-70.013c.12743-1.645-1.12279-2.991-2.77838-2.991zm-1.34655 72.978c-.07325 1.391-1.27028 2.522-2.667 2.522h-114.386178c-1.397716 0-2.593752-1.132-2.667005-2.521 0 0-3.637281-70.012-3.637281-70.022-.047153-.656.164557-1.272.597018-1.737.43346-.464 1.034488-.719 1.693719-.719h122.413277c.65922 0 1.26025.255 1.69071.718.43045.463.63915 1.079.58798 1.747z" fill="url(#f)"/>
  <path d="m65.931929 44.786008c-10.756188-.151741-14.888764 26.192899-30.029761 26.192899l61.848283 2.413593c-15.978413 0-18.412796-28.417373-31.818522-28.606492z" fill="url(#N)" fill-rule="evenodd" filter="url(#O)" transform="matrix(1.0562371 0 0 1.0562371 -3.696859 -4.225266)"/>
  <g transform="matrix(.6943204 0 0 .6943204 21.245436 37.651516)">
    <g>
      <path d="m64.03125 8.2c-7.868432.0100117-17.202689 26.554451-23.5625 31.1875-6.35981 4.633048-34.4842926 5.388582-36.90625 12.875-2.4219574 7.486417 19.902749 24.551024 22.34375 32.03125 2.441001 7.48023-5.49658 34.44565.875 39.0625s29.506568-11.33374 37.375-11.34375 31.046441 15.88305 37.40625 11.25c6.35981-4.63305-1.671956-31.576086.75-39.0625 2.42196-7.486417 24.72225-24.61352 22.28125-32.09375-2.441-7.480229-30.565921-8.164401-36.9375-12.78125-6.37158-4.616848-15.756565-31.1350121-23.625-31.125zm0 3.90625c.176796.139173 1.53651.806014 3.125 2.75 1.81542 2.221697 3.875176 5.553809 5.90625 9.09375 2.031073 3.53994 4.051482 7.298819 6.03125 10.5625 1.979769 3.263682 3.66137 6.016491 6.3125 7.9375 2.651126 1.921009 5.78206 2.66637 9.5 3.53125 3.717942.864879 7.90981 1.609902 11.90625 2.4375 3.99644.827597 7.79215 1.748037 10.46875 2.78125 2.34202.904061 3.4372 2.000764 3.625 2.125-.08007.208062-.32953 1.669782-1.6875 3.78125-1.55196 2.413106-4.07345 5.411931-6.8125 8.4375-2.73904 3.025566-5.69534 6.108596-8.1875 9-2.49216 2.891405-4.586006 5.353751-5.59375 8.46875-1.007744 3.114995-.732607 6.321766-.40625 10.125.326357 3.803238.895872 8.03716 1.34375 12.09375.44788 4.05658.74928 7.94763.59375 10.8125-.13609 2.50677-.81474 3.8472-.875 4.0625-.223807-.00839-1.728488.26402-4.15625-.375-2.774583-.73032-6.401101-2.23621-10.125-3.90625-3.723897-1.67003-7.573741-3.52331-11.09375-5-3.520008-1.4767-6.47605-2.69166-9.75-2.6875-3.273947.00417-6.265009 1.2331-9.78125 2.71875-3.516239 1.48565-7.342863 3.35174-11.0625 5.03125-3.719638 1.6795-7.352284 3.16888-10.125 3.90625-2.426127.6452-3.900592.39713-4.125.40625-.058488-.2136-.76378-1.5561-.90625-4.0625-.162822-2.86447.124949-6.75479.5625-10.8125.437549-4.0577.995823-8.289698 1.3125-12.09375.316678-3.804052.578168-7.043825-.4375-10.15625-1.015668-3.112427-3.125487-5.552447-5.625-8.4375-2.499512-2.885048-5.440762-5.950161-8.1875-8.96875-2.746738-3.018592-5.285649-5.997101-6.84375-8.40625-1.3633382-2.108004-1.5782947-3.605101-1.65625-3.8125.0149539.087785.9868526-1.123215 3.5625-2.125 2.673955-1.040023 6.50568-1.974735 10.5-2.8125 3.99432-.837763 8.190522-1.563161 11.90625-2.4375 3.71573-.874337 6.853767-1.63475 9.5-3.5625 2.646234-1.927752 4.309794-4.700042 6.28125-7.96875 1.971455-3.268708 3.977941-7.017403 6-10.5625 2.022058-3.545097 4.065243-6.89869 5.875-9.125 1.583537-1.948021 2.951215-2.611698 3.125-2.75z" fill="url(#u)" filter="url(#v)"/>
      <path d="m153.09403 94.713757c-8.55745 12.383133-60.477658-1.70046-74.679399 3.287761-14.201741 4.988222-45.911151 48.445882-60.332603 44.133872-14.4214534-4.31202-17.0713902-58.043145-26.2040499-70.008359-9.1326591-11.965213-60.2621021-28.693497-60.6176031-43.7416-.3555-15.048104 49.926959-34.1721736 58.484406-46.555303 8.557447-12.38313 8.6671236-66.179444 22.868864-71.167664 14.201742-4.988221 47.927947 36.923576 62.3494 41.235595 14.421453 4.312018 65.618675-12.207649 74.751335-.242435s-20.30585 56.9921987-19.95035 72.040303c.3555 15.048103 31.88745 58.634701 23.33 71.01783z" fill="url(#I)" transform="matrix(.4934214 .1726044 -.1726044 .4934214 42.377875 49.908537)"/>
      <path d="m64.03125 8c-7.868432.0100117-17.202689 26.554451-23.5625 31.1875-6.35981 4.633048-34.484293 5.388582-36.90625 12.875-2.421957 7.486417 19.902749 24.551024 22.34375 32.03125 2.441001 7.48023-5.49658 34.44565.875 39.0625s29.506568-11.33374 37.375-11.34375 31.046441 15.88305 37.40625 11.25c6.35981-4.63305-1.671956-31.576086.75-39.0625 2.42196-7.486417 24.72225-24.61352 22.28125-32.09375-2.441-7.480229-30.565921-8.164401-36.9375-12.78125-6.37158-4.616848-15.756565-31.1350121-23.625-31.125zm0 3.90625c.176796.139173 1.53651.806014 3.125 2.75 1.81542 2.221697 3.875176 5.553809 5.90625 9.09375 2.031073 3.53994 4.051482 7.298819 6.03125 10.5625 1.979769 3.263682 3.66137 6.016491 6.3125 7.9375 2.651126 1.921009 5.78206 2.66637 9.5 3.53125 3.717942.864879 7.90981 1.609902 11.90625 2.4375 3.99644.827597 7.79215 1.748037 10.46875 2.78125 2.34202.904061 3.4372 2.000764 3.625 2.125-.08007.208062-.32953 1.669782-1.6875 3.78125-1.55196 2.413106-4.07345 5.411931-6.8125 8.4375-2.73904 3.025566-5.69534 6.108596-8.1875 9-2.49216 2.891405-4.586006 5.353751-5.59375 8.46875-1.007744 3.114995-.732607 6.321766-.40625 10.125.326357 3.803238.895872 8.03716 1.34375 12.09375.44788 4.05658.74928 7.94763.59375 10.8125-.13609 2.50677-.81474 3.8472-.875 4.0625-.223807-.00839-1.728488.26402-4.15625-.375-2.774583-.73032-6.401101-2.23621-10.125-3.90625-3.723897-1.67003-7.573741-3.52331-11.09375-5-3.520008-1.4767-6.47605-2.69166-9.75-2.6875-3.273947.00417-6.265009 1.2331-9.78125 2.71875-3.516239 1.48565-7.342863 3.35174-11.0625 5.03125-3.719638 1.6795-7.352284 3.16888-10.125 3.90625-2.426127.6452-3.900592.39713-4.125.40625-.058488-.2136-.76378-1.5561-.90625-4.0625-.162822-2.86447.124949-6.75479.5625-10.8125.437549-4.0577.995823-8.289698 1.3125-12.09375.316678-3.804052.578168-7.043825-.4375-10.15625-1.015668-3.112427-3.125487-5.552447-5.625-8.4375-2.499512-2.885048-5.440762-5.950161-8.1875-8.96875-2.746738-3.018592-5.285649-5.997101-6.84375-8.40625-1.363338-2.108004-1.578295-3.605101-1.65625-3.8125.014954.087785.986853-1.123215 3.5625-2.125 2.673955-1.040023 6.50568-1.974735 10.5-2.8125 3.99432-.837763 8.190522-1.563161 11.90625-2.4375 3.71573-.874337 6.853767-1.63475 9.5-3.5625 2.646234-1.927752 4.309794-4.700042 6.28125-7.96875 1.971455-3.268708 3.977941-7.017403 6-10.5625 2.022058-3.545097 4.065243-6.89869 5.875-9.125 1.583537-1.948021 2.951215-2.611698 3.125-2.75z" fill="url(#w)"/>
      <path d="m60.98796 9.471226c1.858531-1.2569238 3.901947-1.4507558 6.231378 0l-3.18198 6.14299z" fill="url(#B)" fill-rule="evenodd" filter="url(#A)"/>
      <path d="m64.039064 11.90625c-.17379.138302-1.54147.801979-3.125 2.75-1.80976 2.22631-3.85294 5.579903-5.875 9.125s-4.02855 7.293792-6 10.5625c-1.97146 3.268708-3.63502 6.040998-6.28125 7.96875-2.64624 1.92775-5.78427 2.688163-9.5 3.5625-3.71573.874339-7.91193 1.599737-11.90625 2.4375-3.99432.837765-7.82605 1.772477-10.5 2.8125-2.5756509 1.001785-3.5475509 2.212785-3.5625009 2.125.07795.207399.29291 1.704496 1.65625 3.8125 1.5581009 2.409149 4.0970109 5.387658 6.8437509 8.40625 2.74674 3.018589 5.68799 6.083702 8.1875 8.96875 2.49951 2.885053 4.60933 5.325073 5.625 8.4375.26358.807722.41834 1.636238.53125 2.46875 2.40784.087329 4.82912.15625 7.28125.15625 27.04242 0 51.56006-5.392866 69.499996-14.15625 1.79977-1.973709 3.69378-4.004839 5.5-6 2.73905-3.025569 5.26053-6.024394 6.8125-8.4375 1.35797-2.111468 1.60742-3.573188 1.6875-3.78125-.1878-.124236-1.28299-1.220939-3.625-2.125-2.6766-1.033213-6.47232-1.953653-10.46875-2.78125-3.99644-.827598-8.188316-1.572621-11.906246-2.4375-3.71794-.86488-6.84888-1.610241-9.5-3.53125-2.65113-1.921009-4.33273-4.673818-6.3125-7.9375-1.97977-3.263681-4.00018-7.02256-6.03125-10.5625-2.03108-3.539941-4.09083-6.872053-5.90625-9.09375-1.58849-1.943986-2.94821-2.610827-3.125-2.75z" fill="url(#p)"/>
      <path d="m44.96875 33.9375-.78125 1.28125c-.010403.000766-.020847.000766-.03125 0l-1.34375 1.71875-1.28125 1.53125c-.009303.011473-.019777.021947-.03125.03125l-1.46875 1.21875c-.009303.011473-.019777.021947-.03125.03125l-2.875 1.28125c-.009303.011473-.019777.021947-.03125.03125l-3.21875.90625-.5 3.65625 1.75-.40625v.03125l4.59375-1.5h.03125l3.0625-1.6875.0625-.03125 2.90625-2.9375.03125-.03125 3.15625-5.03125z" fill="url(#j)" fill-rule="evenodd" filter="url(#k)" opacity=".643564" transform="translate(0 .3)"/>
      <path d="m64.039064 11.90625c-.17379.138302-1.54147.801979-3.125 2.75-1.80976 2.22631-3.85294 5.579903-5.875 9.125s-4.02855 7.293792-6 10.5625c-1.97146 3.268708-3.63502 6.040998-6.28125 7.96875-2.64624 1.92775-5.78427 2.688163-9.5 3.5625-3.71573.874339-7.91193 1.599737-11.90625 2.4375-3.99432.837765-7.82605 1.772477-10.5 2.8125-2.5756509 1.001785-3.5475509 2.212785-3.5625009 2.125.07795.207399.29291 1.704496 1.65625 3.8125 1.5581009 2.409149 4.0970109 5.387658 6.8437509 8.40625 2.74674 3.018589 5.68799 6.083702 8.1875 8.96875 2.49951 2.885053 4.60933 5.325073 5.625 8.4375.26358.807722.41834 1.636238.53125 2.46875 2.40784.087329 4.82912.15625 7.28125.15625 27.04242 0 51.56006-5.392866 69.499996-14.15625 1.79977-1.973709 3.69378-4.004839 5.5-6 2.73905-3.025569 5.26053-6.024394 6.8125-8.4375 1.35797-2.111468 1.60742-3.573188 1.6875-3.78125-.1878-.124236-1.28299-1.220939-3.625-2.125-2.6766-1.033213-6.47232-1.953653-10.46875-2.78125-3.99644-.827598-8.188316-1.572621-11.906246-2.4375-3.71794-.86488-6.84888-1.610241-9.5-3.53125-2.65113-1.921009-4.33273-4.673818-6.3125-7.9375-1.97977-3.263681-4.00018-7.02256-6.03125-10.5625-2.03108-3.539941-4.09083-6.872053-5.90625-9.09375-1.58849-1.943986-2.94821-2.610827-3.125-2.75z" fill="url(#H)"/>
      <path d="m44.96875 33.9375-.78125 1.28125c-.010403.000766-.020847.000766-.03125 0l-1.34375 1.71875-1.28125 1.53125c-.009303.011473-.019777.021947-.03125.03125l-1.46875 1.21875c-.009303.011473-.019777.021947-.03125.03125l-2.875 1.28125c-.009303.011473-.019777.021947-.03125.03125l-3.21875.90625-.5 3.65625 1.75-.40625v.03125l4.59375-1.5h.03125l3.0625-1.6875.0625-.03125 2.90625-2.9375.03125-.03125 3.15625-5.03125z" fill="url(#j)" fill-rule="evenodd" filter="url(#k)" opacity=".643564" transform="matrix(-1 0 0 1 128.125 .3)"/>
      <g transform="translate(-132.29928)">
        <path d="m196.34375 11.90625c-.17379.138302-1.54147.801979-3.125 2.75-1.80976 2.22631-3.85294 5.579903-5.875 9.125s-4.02855 7.293792-6 10.5625c-1.97146 3.268708-3.63502 6.040998-6.28125 7.96875-2.64624 1.92775-5.78427 2.688163-9.5 3.5625-3.71573.874339-7.91193 1.599737-11.90625 2.4375-3.99432.837765-7.82605 1.772477-10.5 2.8125-2.57565 1.001785-3.54755 2.212785-3.5625 2.125.03002.079884.12153.388731.25.8125.41575-.36252 1.4161-1.199905 3.3125-1.9375 2.67395-1.040023 6.50568-1.974735 10.5-2.8125 3.99432-.837763 8.19052-1.563161 11.90625-2.4375 3.71573-.874337 6.85376-1.63475 9.5-3.5625 2.64623-1.927752 4.30979-4.700042 6.28125-7.96875 1.97145-3.268708 3.97794-7.017403 6-10.5625s4.06524-6.89869 5.875-9.125c1.58353-1.948021 2.95121-2.611698 3.125-2.75.17679.139173 1.53651.806014 3.125 2.75 1.81542 2.221697 3.87517 5.553809 5.90625 9.09375 2.03107 3.53994 4.05148 7.298819 6.03125 10.5625 1.97977 3.263682 3.66137 6.016491 6.3125 7.9375 2.65112 1.921009 5.78206 2.66637 9.5 3.53125 3.71793.864879 7.90981 1.609902 11.90625 2.4375 3.99643.827597 7.79215 1.748037 10.46875 2.78125 1.92073.74144 2.9755 1.579608 3.40625 1.9375.13371-.415016.18802-.732649.21875-.8125-.1878-.124236-1.28299-1.220939-3.625-2.125-2.6766-1.033213-6.47232-1.953653-10.46875-2.78125-3.99644-.827598-8.18832-1.572621-11.90625-2.4375-3.71794-.86488-6.84888-1.610241-9.5-3.53125-2.65113-1.921009-4.33273-4.673818-6.3125-7.9375-1.97977-3.263681-4.00018-7.02256-6.03125-10.5625-2.03108-3.539941-4.09083-6.872053-5.90625-9.09375-1.58849-1.943986-2.94821-2.610827-3.125-2.75z" fill="url(#F)"/>
        <path d="m246.78125 49.937636c.64344.20483 1.2572.44189 1.8125.65625 2.34201.90406 3.4372 2.00077 3.625 2.125-.08008.20807-.32953 1.66979-1.6875 3.78125-1.55197 2.41311-4.07345 5.41193-6.8125 8.4375-1.80622 1.99516-3.70023 4.02629-5.5 6-17.93994 8.76339-42.45758 14.15625-69.5 14.15625-2.12442 0-4.22307-.05438-6.3125-.125.01215.08285.02.16705.03125.25 2.40784.08733 4.82912.15625 7.28125.15625 27.04242 0 51.56006-5.39286 69.5-14.15625 1.79977-1.97371 3.69378-4.00484 5.5-6 2.73905-3.02557 5.26053-6.02439 6.8125-8.4375 1.35797-2.11146 1.60742-3.57318 1.6875-3.78125-.1878-.12423-1.28299-1.22094-3.625-2.125-.83507-.32235-1.78746-.6365-2.8125-.9375z" fill="url(#G)"/>
      </g>
      <path d="m25.190679 119.77989c1.224 2.96249 2.050483 4.33908 6.098796 3.53553l-.651119-3.10534-1.55859.18852-.818055-1.82519z" fill="url(#M)" fill-rule="evenodd" filter="url(#z)" opacity=".771536"/>
      <path d="m26.03125 94.25c-1.047495 10.8642-3.81183 25.60075.75 28.90625 6.37158 4.61685 29.506568-11.33374 37.375-11.34375s31.046441 15.88305 37.40625 11.25c4.54029-3.30755 1.74565-17.96066.65625-28.8125h-3.875c.334114 3.457156.820899 7.17777 1.21875 10.78125.44788 4.05658.74928 7.94763.59375 10.8125-.13609 2.50677-.81474 3.8472-.875 4.0625-.223807-.00839-1.728488.26402-4.15625-.375-2.774583-.73032-6.401101-2.23621-10.125-3.90625-3.723897-1.67003-7.573741-3.52331-11.09375-5-3.520008-1.4767-6.47605-2.69166-9.75-2.6875-3.273947.00417-6.265009 1.2331-9.78125 2.71875-3.516239 1.48565-7.342863 3.35174-11.0625 5.03125-3.719638 1.6795-7.352284 3.16888-10.125 3.90625-2.426127.6452-3.900592.39713-4.125.40625-.058488-.2136-.76378-1.5561-.90625-4.0625-.162822-2.86447.124949-6.75479.5625-10.8125.392136-3.63655.862243-7.391973 1.1875-10.875z" fill="url(#x)"/>
      <path d="m64.125001 11.90625c-.17379.138302-1.54147.801979-3.125 2.75-1.80976 2.22631-3.85294 5.579903-5.875 9.125s-4.02855 7.293792-6 10.5625c-1.97146 3.268708-3.63502 6.040998-6.28125 7.96875-2.64624 1.92775-5.78427 2.688163-9.5 3.5625-3.71573.874339-7.91193 1.599737-11.90625 2.4375-3.99432.837765-7.82605 1.772477-10.5 2.8125-2.5756504 1.001785-3.5475504 2.212785-3.5625004 2.125.07795.207399.29291 1.704496 1.65625 3.8125 1.5581004 2.409149 4.0970104 5.387658 6.8437504 8.40625 2.74674 3.018589 5.68799 6.083702 8.1875 8.96875 2.49951 2.885053 4.60933 5.325073 5.625 8.4375 1.01567 3.112425.75418 6.352198.4375 10.15625s-.87495 8.03605-1.3125 12.09375c-.43755 4.05771-.72532 7.94803-.5625 10.8125.14247 2.5064.84776 3.8489.90625 4.0625.22441-.00912 1.69887.23895 4.125-.40625 2.77271-.73737 6.40536-2.22675 10.125-3.90625 3.71963-1.67951 7.54626-3.5456 11.0625-5.03125s6.5073-2.71458 9.78125-2.71875c3.27395-.00416 6.22999 1.2108 9.75 2.6875 3.52001 1.47669 7.36985 3.32997 11.09375 5 3.7239 1.67004 7.3504 3.17593 10.125 3.90625 2.42776.63902 3.93243.36661 4.15625.375.06026-.2153.738899-1.55573.874999-4.0625.15553-2.86487-.14588-6.75592-.593749-10.8125-.44788-4.05659-1.01741-8.290512-1.34375-12.09375-.32636-3.803234-.60151-7.010005.40625-10.125 1.00774-3.114999 3.101579-5.577345 5.593749-8.46875 2.49216-2.891404 5.44845-5.974434 8.1875-9 2.73905-3.025569 5.26053-6.024394 6.8125-8.4375 1.35797-2.111468 1.60742-3.573188 1.6875-3.78125-.1878-.124236-1.28299-1.220939-3.625-2.125-2.6766-1.033213-6.47232-1.953653-10.46875-2.78125-3.99644-.827598-8.188319-1.572621-11.906249-2.4375-3.71794-.86488-6.84888-1.610241-9.5-3.53125-2.65113-1.921009-4.33273-4.673818-6.3125-7.9375-1.97977-3.263681-4.00018-7.02256-6.03125-10.5625-2.03108-3.539941-4.09083-6.872053-5.90625-9.09375-1.58849-1.943986-2.94821-2.610827-3.125-2.75z" style="fill:none;stroke-linecap:round;stroke-linejoin:round;stroke-dashoffset:4;filter:url(#D);stroke:url(#E)"/>
      <g fill-rule="evenodd">
        <g transform="matrix(-1 0 0 1 128.17175 0)">
          <path d="m122.34464 49.937924-3.44715 3.005204.70711 2.032932 4.33103.795495c.33275-1.944544 1.0275-3.889087-1.59099-5.833631z" fill="url(#m)" filter="url(#o)" opacity=".608911"/>
          <path d="m122.34464 49.937924-3.44715 3.005204.70711 2.032932 4.33103.795495c.33275-1.944544 1.0275-3.889087-1.59099-5.833631z" fill="url(#l)" filter="url(#n)" opacity=".608911"/>
        </g>
        <path d="m122.34464 49.937924-3.44715 3.005204.70711 2.032932 4.33103.795495c.33275-1.944544 1.0275-3.889087-1.59099-5.833631z" fill="url(#m)" filter="url(#o)" opacity=".608911"/>
        <path d="m122.34464 49.937924-3.44715 3.005204.70711 2.032932 4.33103.795495c.33275-1.944544 1.0275-3.889087-1.59099-5.833631z" fill="url(#l)" filter="url(#n)" opacity=".608911"/>
      </g>
      <path d="m64.125001 11.90625c-.17379.138302-1.54147.801979-3.125 2.75-1.80976 2.22631-3.85294 5.579903-5.875 9.125s-4.02855 7.293792-6 10.5625c-1.97146 3.268708-3.63502 6.040998-6.28125 7.96875-2.64624 1.92775-5.78427 2.688163-9.5 3.5625-3.71573.874339-7.91193 1.599737-11.90625 2.4375-3.99432.837765-7.82605 1.772477-10.5 2.8125-2.5756504 1.001785-3.5475504 2.212785-3.5625004 2.125.07795.207399.29291 1.704496 1.65625 3.8125 1.5581004 2.409149 4.0970104 5.387658 6.8437504 8.40625 2.74674 3.018589 5.68799 6.083702 8.1875 8.96875 2.49951 2.885053 4.60933 5.325073 5.625 8.4375 1.01567 3.112425.75418 6.352198.4375 10.15625s-.87495 8.03605-1.3125 12.09375c-.43755 4.05771-.72532 7.94803-.5625 10.8125.14247 2.5064.84776 3.8489.90625 4.0625.22441-.00912 1.69887.23895 4.125-.40625 2.77271-.73737 6.40536-2.22675 10.125-3.90625 3.71963-1.67951 7.54626-3.5456 11.0625-5.03125s6.5073-2.71458 9.78125-2.71875c3.27395-.00416 6.22999 1.2108 9.75 2.6875 3.52001 1.47669 7.36985 3.32997 11.09375 5 3.7239 1.67004 7.3504 3.17593 10.125 3.90625 2.42776.63902 3.93243.36661 4.15625.375.06026-.2153.738899-1.55573.874999-4.0625.15553-2.86487-.14588-6.75592-.593749-10.8125-.44788-4.05659-1.01741-8.290512-1.34375-12.09375-.32636-3.803234-.60151-7.010005.40625-10.125 1.00774-3.114999 3.101579-5.577345 5.593749-8.46875 2.49216-2.891404 5.44845-5.974434 8.1875-9 2.73905-3.025569 5.26053-6.024394 6.8125-8.4375 1.35797-2.111468 1.60742-3.573188 1.6875-3.78125-.1878-.124236-1.28299-1.220939-3.625-2.125-2.6766-1.033213-6.47232-1.953653-10.46875-2.78125-3.99644-.827598-8.188319-1.572621-11.906249-2.4375-3.71794-.86488-6.84888-1.610241-9.5-3.53125-2.65113-1.921009-4.33273-4.673818-6.3125-7.9375-1.97977-3.263681-4.00018-7.02256-6.03125-10.5625-2.03108-3.539941-4.09083-6.872053-5.90625-9.09375-1.58849-1.943986-2.94821-2.610827-3.125-2.75z" style="fill:none;stroke-width:.6;stroke-linecap:round;stroke-linejoin:round;stroke-dashoffset:4;filter:url(#C);stroke:url(#E)"/>
      <path d="m25.190679 119.77989c1.224 2.96249 2.050483 4.33908 6.098796 3.53553l-.651119-3.10534-1.55859.18852-.818055-1.82519z" fill="url(#y)" fill-rule="evenodd" filter="url(#z)" opacity=".771536" transform="matrix(-1 0 0 1 128.10515 0)"/>
      <path d="m26.03125 94.25c-1.047495 10.8642-3.81183 25.60075.75 28.90625 6.37158 4.61685 29.506568-12.33374 37.375-12.34375s31.046441 16.88305 37.40625 12.25c4.54029-3.30755 1.74565-17.96066.65625-28.8125h-3.875c.334114 3.457156.820899 7.17777 1.21875 10.78125.44788 4.05658.74928 7.94763.59375 10.8125-.13609 2.50677-.81474 3.8472-.875 4.0625-.223807-.00839-1.728488.26402-4.15625-.375-2.774583-.73032-6.401101-2.23621-10.125-3.90625-3.723897-1.67003-7.573741-3.52331-11.09375-5-3.520008-1.4767-6.47605-2.69166-9.75-2.6875-3.273947.00417-6.265009 1.2331-9.78125 2.71875-3.516239 1.48565-7.342863 3.35174-11.0625 5.03125-3.719638 1.6795-7.352284 3.16888-10.125 3.90625-2.426127.6452-3.900592.39713-4.125.40625-.058488-.2136-.76378-1.5561-.90625-4.0625-.162822-2.86447.124949-6.75479.5625-10.8125.392136-3.63655.862243-7.391973 1.1875-10.875z" fill="url(#t)" filter="url(#s)"/>
      <path d="m3.96875 51.25c-.1615018.263327-.315071.53066-.40625.8125-2.1520006 6.651965 15.229007 20.85413 20.84375 29.1875.660494.969734 1.475744 2.310003 1.745652 3.800699 1.50494-.302113 3.424139-2.408678 2.754348-3.800699-1.137602-2.37433-2.894057-4.453864-4.9375-6.8125-2.499512-2.885048-5.440762-5.950161-8.1875-8.96875-2.746738-3.018592-5.285649-5.997101-6.84375-8.40625-1.363338-2.108004-1.578295-3.605101-1.65625-3.8125.0143126.08402.9153714-1.026662 3.25-2zm113.90625 0c1.92397.844675 2.86059 1.762104 3.03125 1.875-.08007.208062-.32953 1.669782-1.6875 3.78125-1.55196 2.413106-4.07345 5.411931-6.8125 8.4375-2.73904 3.025566-5.69534 6.108596-8.1875 9-2.05738 2.386971-3.84125 4.495509-4.96875 6.90625-.860642 2.440958 1.94084 3.499904 2.83854 3.579728.32877-1.455806.98591-2.528505 1.66146-3.579728 5.53341-8.336152 23.02026-22.674014 20.84375-29.34375-.07341-.224951-.19393-.443299-.3125-.65625z" fill="url(#r)" filter="url(#q)" opacity=".841584"/>
    </g>
    <g>
      <path d="m64.03125 8.2c-7.868432.0100117-17.202689 26.554451-23.5625 31.1875-6.35981 4.633048-34.4842926 5.388582-36.90625 12.875-2.4219574 7.486417 19.902749 24.551024 22.34375 32.03125 2.441001 7.48023-5.49658 34.44565.875 39.0625s29.506568-11.33374 37.375-11.34375 31.046441 15.88305 37.40625 11.25c6.35981-4.63305-1.671956-31.576086.75-39.0625 2.42196-7.486417 24.72225-24.61352 22.28125-32.09375-2.441-7.480229-30.565921-8.164401-36.9375-12.78125-6.37158-4.616848-15.756565-31.1350121-23.625-31.125zm0 3.90625c.176796.139173 1.53651.806014 3.125 2.75 1.81542 2.221697 3.875176 5.553809 5.90625 9.09375 2.031073 3.53994 4.051482 7.298819 6.03125 10.5625 1.979769 3.263682 3.66137 6.016491 6.3125 7.9375 2.651126 1.921009 5.78206 2.66637 9.5 3.53125 3.717942.864879 7.90981 1.609902 11.90625 2.4375 3.99644.827597 7.79215 1.748037 10.46875 2.78125 2.34202.904061 3.4372 2.000764 3.625 2.125-.08007.208062-.32953 1.669782-1.6875 3.78125-1.55196 2.413106-4.07345 5.411931-6.8125 8.4375-2.73904 3.025566-5.69534 6.108596-8.1875 9-2.49216 2.891405-4.586006 5.353751-5.59375 8.46875-1.007744 3.114995-.732607 6.321766-.40625 10.125.326357 3.803238.895872 8.03716 1.34375 12.09375.44788 4.05658.74928 7.94763.59375 10.8125-.13609 2.50677-.81474 3.8472-.875 4.0625-.223807-.00839-1.728488.26402-4.15625-.375-2.774583-.73032-6.401101-2.23621-10.125-3.90625-3.723897-1.67003-7.573741-3.52331-11.09375-5-3.520008-1.4767-6.47605-2.69166-9.75-2.6875-3.273947.00417-6.265009 1.2331-9.78125 2.71875-3.516239 1.48565-7.342863 3.35174-11.0625 5.03125-3.719638 1.6795-7.352284 3.16888-10.125 3.90625-2.426127.6452-3.900592.39713-4.125.40625-.058488-.2136-.76378-1.5561-.90625-4.0625-.162822-2.86447.124949-6.75479.5625-10.8125.437549-4.0577.995823-8.289698 1.3125-12.09375.316678-3.804052.578168-7.043825-.4375-10.15625-1.015668-3.112427-3.125487-5.552447-5.625-8.4375-2.499512-2.885048-5.440762-5.950161-8.1875-8.96875-2.746738-3.018592-5.285649-5.997101-6.84375-8.40625-1.3633382-2.108004-1.5782947-3.605101-1.65625-3.8125.0149539.087785.9868526-1.123215 3.5625-2.125 2.673955-1.040023 6.50568-1.974735 10.5-2.8125 3.99432-.837763 8.190522-1.563161 11.90625-2.4375 3.71573-.874337 6.853767-1.63475 9.5-3.5625 2.646234-1.927752 4.309794-4.700042 6.28125-7.96875 1.971455-3.268708 3.977941-7.017403 6-10.5625 2.022058-3.545097 4.065243-6.89869 5.875-9.125 1.583537-1.948021 2.951215-2.611698 3.125-2.75z" fill="url(#u)" filter="url(#v)"/>
      <path d="m153.09403 94.713757c-8.55745 12.383133-60.477658-1.70046-74.679399 3.287761-14.201741 4.988222-45.911151 48.445882-60.332603 44.133872-14.4214534-4.31202-17.0713902-58.043145-26.2040499-70.008359-9.1326591-11.965213-60.2621021-28.693497-60.6176031-43.7416-.3555-15.048104 49.926959-34.1721736 58.484406-46.555303 8.557447-12.38313 8.6671236-66.179444 22.868864-71.167664 14.201742-4.988221 47.927947 36.923576 62.3494 41.235595 14.421453 4.312018 65.618675-12.207649 74.751335-.242435s-20.30585 56.9921987-19.95035 72.040303c.3555 15.048103 31.88745 58.634701 23.33 71.01783z" fill="url(#I)" transform="matrix(.4934214 .1726044 -.1726044 .4934214 42.377875 49.908537)"/>
      <path d="m64.03125 8c-7.868432.0100117-17.202689 26.554451-23.5625 31.1875-6.35981 4.633048-34.484293 5.388582-36.90625 12.875-2.421957 7.486417 19.902749 24.551024 22.34375 32.03125 2.441001 7.48023-5.49658 34.44565.875 39.0625s29.506568-11.33374 37.375-11.34375 31.046441 15.88305 37.40625 11.25c6.35981-4.63305-1.671956-31.576086.75-39.0625 2.42196-7.486417 24.72225-24.61352 22.28125-32.09375-2.441-7.480229-30.565921-8.164401-36.9375-12.78125-6.37158-4.616848-15.756565-31.1350121-23.625-31.125zm0 3.90625c.176796.139173 1.53651.806014 3.125 2.75 1.81542 2.221697 3.875176 5.553809 5.90625 9.09375 2.031073 3.53994 4.051482 7.298819 6.03125 10.5625 1.979769 3.263682 3.66137 6.016491 6.3125 7.9375 2.651126 1.921009 5.78206 2.66637 9.5 3.53125 3.717942.864879 7.90981 1.609902 11.90625 2.4375 3.99644.827597 7.79215 1.748037 10.46875 2.78125 2.34202.904061 3.4372 2.000764 3.625 2.125-.08007.208062-.32953 1.669782-1.6875 3.78125-1.55196 2.413106-4.07345 5.411931-6.8125 8.4375-2.73904 3.025566-5.69534 6.108596-8.1875 9-2.49216 2.891405-4.586006 5.353751-5.59375 8.46875-1.007744 3.114995-.732607 6.321766-.40625 10.125.326357 3.803238.895872 8.03716 1.34375 12.09375.44788 4.05658.74928 7.94763.59375 10.8125-.13609 2.50677-.81474 3.8472-.875 4.0625-.223807-.00839-1.728488.26402-4.15625-.375-2.774583-.73032-6.401101-2.23621-10.125-3.90625-3.723897-1.67003-7.573741-3.52331-11.09375-5-3.520008-1.4767-6.47605-2.69166-9.75-2.6875-3.273947.00417-6.265009 1.2331-9.78125 2.71875-3.516239 1.48565-7.342863 3.35174-11.0625 5.03125-3.719638 1.6795-7.352284 3.16888-10.125 3.90625-2.426127.6452-3.900592.39713-4.125.40625-.058488-.2136-.76378-1.5561-.90625-4.0625-.162822-2.86447.124949-6.75479.5625-10.8125.437549-4.0577.995823-8.289698 1.3125-12.09375.316678-3.804052.578168-7.043825-.4375-10.15625-1.015668-3.112427-3.125487-5.552447-5.625-8.4375-2.499512-2.885048-5.440762-5.950161-8.1875-8.96875-2.746738-3.018592-5.285649-5.997101-6.84375-8.40625-1.363338-2.108004-1.578295-3.605101-1.65625-3.8125.014954.087785.986853-1.123215 3.5625-2.125 2.673955-1.040023 6.50568-1.974735 10.5-2.8125 3.99432-.837763 8.190522-1.563161 11.90625-2.4375 3.71573-.874337 6.853767-1.63475 9.5-3.5625 2.646234-1.927752 4.309794-4.700042 6.28125-7.96875 1.971455-3.268708 3.977941-7.017403 6-10.5625 2.022058-3.545097 4.065243-6.89869 5.875-9.125 1.583537-1.948021 2.951215-2.611698 3.125-2.75z" fill="url(#w)"/>
      <path d="m60.98796 9.471226c1.858531-1.2569238 3.901947-1.4507558 6.231378 0l-3.18198 6.14299z" fill="url(#B)" fill-rule="evenodd" filter="url(#A)"/>
      <path d="m64.039064 11.90625c-.17379.138302-1.54147.801979-3.125 2.75-1.80976 2.22631-3.85294 5.579903-5.875 9.125s-4.02855 7.293792-6 10.5625c-1.97146 3.268708-3.63502 6.040998-6.28125 7.96875-2.64624 1.92775-5.78427 2.688163-9.5 3.5625-3.71573.874339-7.91193 1.599737-11.90625 2.4375-3.99432.837765-7.82605 1.772477-10.5 2.8125-2.5756509 1.001785-3.5475509 2.212785-3.5625009 2.125.07795.207399.29291 1.704496 1.65625 3.8125 1.5581009 2.409149 4.0970109 5.387658 6.8437509 8.40625 2.74674 3.018589 5.68799 6.083702 8.1875 8.96875 2.49951 2.885053 4.60933 5.325073 5.625 8.4375.26358.807722.41834 1.636238.53125 2.46875 2.40784.087329 4.82912.15625 7.28125.15625 27.04242 0 51.56006-5.392866 69.499996-14.15625 1.79977-1.973709 3.69378-4.004839 5.5-6 2.73905-3.025569 5.26053-6.024394 6.8125-8.4375 1.35797-2.111468 1.60742-3.573188 1.6875-3.78125-.1878-.124236-1.28299-1.220939-3.625-2.125-2.6766-1.033213-6.47232-1.953653-10.46875-2.78125-3.99644-.827598-8.188316-1.572621-11.906246-2.4375-3.71794-.86488-6.84888-1.610241-9.5-3.53125-2.65113-1.921009-4.33273-4.673818-6.3125-7.9375-1.97977-3.263681-4.00018-7.02256-6.03125-10.5625-2.03108-3.539941-4.09083-6.872053-5.90625-9.09375-1.58849-1.943986-2.94821-2.610827-3.125-2.75z" fill="url(#p)"/>
      <path d="m44.96875 33.9375-.78125 1.28125c-.010403.000766-.020847.000766-.03125 0l-1.34375 1.71875-1.28125 1.53125c-.009303.011473-.019777.021947-.03125.03125l-1.46875 1.21875c-.009303.011473-.019777.021947-.03125.03125l-2.875 1.28125c-.009303.011473-.019777.021947-.03125.03125l-3.21875.90625-.5 3.65625 1.75-.40625v.03125l4.59375-1.5h.03125l3.0625-1.6875.0625-.03125 2.90625-2.9375.03125-.03125 3.15625-5.03125z" fill="url(#j)" fill-rule="evenodd" filter="url(#k)" opacity=".643564" transform="translate(0 .3)"/>
      <path d="m64.039064 11.90625c-.17379.138302-1.54147.801979-3.125 2.75-1.80976 2.22631-3.85294 5.579903-5.875 9.125s-4.02855 7.293792-6 10.5625c-1.97146 3.268708-3.63502 6.040998-6.28125 7.96875-2.64624 1.92775-5.78427 2.688163-9.5 3.5625-3.71573.874339-7.91193 1.599737-11.90625 2.4375-3.99432.837765-7.82605 1.772477-10.5 2.8125-2.5756509 1.001785-3.5475509 2.212785-3.5625009 2.125.07795.207399.29291 1.704496 1.65625 3.8125 1.5581009 2.409149 4.0970109 5.387658 6.8437509 8.40625 2.74674 3.018589 5.68799 6.083702 8.1875 8.96875 2.49951 2.885053 4.60933 5.325073 5.625 8.4375.26358.807722.41834 1.636238.53125 2.46875 2.40784.087329 4.82912.15625 7.28125.15625 27.04242 0 51.56006-5.392866 69.499996-14.15625 1.79977-1.973709 3.69378-4.004839 5.5-6 2.73905-3.025569 5.26053-6.024394 6.8125-8.4375 1.35797-2.111468 1.60742-3.573188 1.6875-3.78125-.1878-.124236-1.28299-1.220939-3.625-2.125-2.6766-1.033213-6.47232-1.953653-10.46875-2.78125-3.99644-.827598-8.188316-1.572621-11.906246-2.4375-3.71794-.86488-6.84888-1.610241-9.5-3.53125-2.65113-1.921009-4.33273-4.673818-6.3125-7.9375-1.97977-3.263681-4.00018-7.02256-6.03125-10.5625-2.03108-3.539941-4.09083-6.872053-5.90625-9.09375-1.58849-1.943986-2.94821-2.610827-3.125-2.75z" fill="url(#H)"/>
      <path d="m44.96875 33.9375-.78125 1.28125c-.010403.000766-.020847.000766-.03125 0l-1.34375 1.71875-1.28125 1.53125c-.009303.011473-.019777.021947-.03125.03125l-1.46875 1.21875c-.009303.011473-.019777.021947-.03125.03125l-2.875 1.28125c-.009303.011473-.019777.021947-.03125.03125l-3.21875.90625-.5 3.65625 1.75-.40625v.03125l4.59375-1.5h.03125l3.0625-1.6875.0625-.03125 2.90625-2.9375.03125-.03125 3.15625-5.03125z" fill="url(#j)" fill-rule="evenodd" filter="url(#k)" opacity=".643564" transform="matrix(-1 0 0 1 128.125 .3)"/>
      <g transform="translate(-132.29928)">
        <path d="m196.34375 11.90625c-.17379.138302-1.54147.801979-3.125 2.75-1.80976 2.22631-3.85294 5.579903-5.875 9.125s-4.02855 7.293792-6 10.5625c-1.97146 3.268708-3.63502 6.040998-6.28125 7.96875-2.64624 1.92775-5.78427 2.688163-9.5 3.5625-3.71573.874339-7.91193 1.599737-11.90625 2.4375-3.99432.837765-7.82605 1.772477-10.5 2.8125-2.57565 1.001785-3.54755 2.212785-3.5625 2.125.03002.079884.12153.388731.25.8125.41575-.36252 1.4161-1.199905 3.3125-1.9375 2.67395-1.040023 6.50568-1.974735 10.5-2.8125 3.99432-.837763 8.19052-1.563161 11.90625-2.4375 3.71573-.874337 6.85376-1.63475 9.5-3.5625 2.64623-1.927752 4.30979-4.700042 6.28125-7.96875 1.97145-3.268708 3.97794-7.017403 6-10.5625s4.06524-6.89869 5.875-9.125c1.58353-1.948021 2.95121-2.611698 3.125-2.75.17679.139173 1.53651.806014 3.125 2.75 1.81542 2.221697 3.87517 5.553809 5.90625 9.09375 2.03107 3.53994 4.05148 7.298819 6.03125 10.5625 1.97977 3.263682 3.66137 6.016491 6.3125 7.9375 2.65112 1.921009 5.78206 2.66637 9.5 3.53125 3.71793.864879 7.90981 1.609902 11.90625 2.4375 3.99643.827597 7.79215 1.748037 10.46875 2.78125 1.92073.74144 2.9755 1.579608 3.40625 1.9375.13371-.415016.18802-.732649.21875-.8125-.1878-.124236-1.28299-1.220939-3.625-2.125-2.6766-1.033213-6.47232-1.953653-10.46875-2.78125-3.99644-.827598-8.18832-1.572621-11.90625-2.4375-3.71794-.86488-6.84888-1.610241-9.5-3.53125-2.65113-1.921009-4.33273-4.673818-6.3125-7.9375-1.97977-3.263681-4.00018-7.02256-6.03125-10.5625-2.03108-3.539941-4.09083-6.872053-5.90625-9.09375-1.58849-1.943986-2.94821-2.610827-3.125-2.75z" fill="url(#F)"/>
        <path d="m246.78125 49.937636c.64344.20483 1.2572.44189 1.8125.65625 2.34201.90406 3.4372 2.00077 3.625 2.125-.08008.20807-.32953 1.66979-1.6875 3.78125-1.55197 2.41311-4.07345 5.41193-6.8125 8.4375-1.80622 1.99516-3.70023 4.02629-5.5 6-17.93994 8.76339-42.45758 14.15625-69.5 14.15625-2.12442 0-4.22307-.05438-6.3125-.125.01215.08285.02.16705.03125.25 2.40784.08733 4.82912.15625 7.28125.15625 27.04242 0 51.56006-5.39286 69.5-14.15625 1.79977-1.97371 3.69378-4.00484 5.5-6 2.73905-3.02557 5.26053-6.02439 6.8125-8.4375 1.35797-2.11146 1.60742-3.57318 1.6875-3.78125-.1878-.12423-1.28299-1.22094-3.625-2.125-.83507-.32235-1.78746-.6365-2.8125-.9375z" fill="url(#G)"/>
      </g>
      <path d="m25.190679 119.77989c1.224 2.96249 2.050483 4.33908 6.098796 3.53553l-.651119-3.10534-1.55859.18852-.818055-1.82519z" fill="url(#M)" fill-rule="evenodd" filter="url(#z)" opacity=".771536"/>
      <path d="m26.03125 94.25c-1.047495 10.8642-3.81183 25.60075.75 28.90625 6.37158 4.61685 29.506568-11.33374 37.375-11.34375s31.046441 15.88305 37.40625 11.25c4.54029-3.30755 1.74565-17.96066.65625-28.8125h-3.875c.334114 3.457156.820899 7.17777 1.21875 10.78125.44788 4.05658.74928 7.94763.59375 10.8125-.13609 2.50677-.81474 3.8472-.875 4.0625-.223807-.00839-1.728488.26402-4.15625-.375-2.774583-.73032-6.401101-2.23621-10.125-3.90625-3.723897-1.67003-7.573741-3.52331-11.09375-5-3.520008-1.4767-6.47605-2.69166-9.75-2.6875-3.273947.00417-6.265009 1.2331-9.78125 2.71875-3.516239 1.48565-7.342863 3.35174-11.0625 5.03125-3.719638 1.6795-7.352284 3.16888-10.125 3.90625-2.426127.6452-3.900592.39713-4.125.40625-.058488-.2136-.76378-1.5561-.90625-4.0625-.162822-2.86447.124949-6.75479.5625-10.8125.392136-3.63655.862243-7.391973 1.1875-10.875z" fill="url(#x)"/>
      <path d="m64.125001 11.90625c-.17379.138302-1.54147.801979-3.125 2.75-1.80976 2.22631-3.85294 5.579903-5.875 9.125s-4.02855 7.293792-6 10.5625c-1.97146 3.268708-3.63502 6.040998-6.28125 7.96875-2.64624 1.92775-5.78427 2.688163-9.5 3.5625-3.71573.874339-7.91193 1.599737-11.90625 2.4375-3.99432.837765-7.82605 1.772477-10.5 2.8125-2.5756504 1.001785-3.5475504 2.212785-3.5625004 2.125.07795.207399.29291 1.704496 1.65625 3.8125 1.5581004 2.409149 4.0970104 5.387658 6.8437504 8.40625 2.74674 3.018589 5.68799 6.083702 8.1875 8.96875 2.49951 2.885053 4.60933 5.325073 5.625 8.4375 1.01567 3.112425.75418 6.352198.4375 10.15625s-.87495 8.03605-1.3125 12.09375c-.43755 4.05771-.72532 7.94803-.5625 10.8125.14247 2.5064.84776 3.8489.90625 4.0625.22441-.00912 1.69887.23895 4.125-.40625 2.77271-.73737 6.40536-2.22675 10.125-3.90625 3.71963-1.67951 7.54626-3.5456 11.0625-5.03125s6.5073-2.71458 9.78125-2.71875c3.27395-.00416 6.22999 1.2108 9.75 2.6875 3.52001 1.47669 7.36985 3.32997 11.09375 5 3.7239 1.67004 7.3504 3.17593 10.125 3.90625 2.42776.63902 3.93243.36661 4.15625.375.06026-.2153.738899-1.55573.874999-4.0625.15553-2.86487-.14588-6.75592-.593749-10.8125-.44788-4.05659-1.01741-8.290512-1.34375-12.09375-.32636-3.803234-.60151-7.010005.40625-10.125 1.00774-3.114999 3.101579-5.577345 5.593749-8.46875 2.49216-2.891404 5.44845-5.974434 8.1875-9 2.73905-3.025569 5.26053-6.024394 6.8125-8.4375 1.35797-2.111468 1.60742-3.573188 1.6875-3.78125-.1878-.124236-1.28299-1.220939-3.625-2.125-2.6766-1.033213-6.47232-1.953653-10.46875-2.78125-3.99644-.827598-8.188319-1.572621-11.906249-2.4375-3.71794-.86488-6.84888-1.610241-9.5-3.53125-2.65113-1.921009-4.33273-4.673818-6.3125-7.9375-1.97977-3.263681-4.00018-7.02256-6.03125-10.5625-2.03108-3.539941-4.09083-6.872053-5.90625-9.09375-1.58849-1.943986-2.94821-2.610827-3.125-2.75z" style="fill:none;stroke-linecap:round;stroke-linejoin:round;stroke-dashoffset:4;filter:url(#D);stroke:url(#E)"/>
      <g fill-rule="evenodd">
        <g transform="matrix(-1 0 0 1 128.17175 0)">
          <path d="m122.34464 49.937924-3.44715 3.005204.70711 2.032932 4.33103.795495c.33275-1.944544 1.0275-3.889087-1.59099-5.833631z" fill="url(#m)" filter="url(#o)" opacity=".608911"/>
          <path d="m122.34464 49.937924-3.44715 3.005204.70711 2.032932 4.33103.795495c.33275-1.944544 1.0275-3.889087-1.59099-5.833631z" fill="url(#l)" filter="url(#n)" opacity=".608911"/>
        </g>
        <path d="m122.34464 49.937924-3.44715 3.005204.70711 2.032932 4.33103.795495c.33275-1.944544 1.0275-3.889087-1.59099-5.833631z" fill="url(#m)" filter="url(#o)" opacity=".608911"/>
        <path d="m122.34464 49.937924-3.44715 3.005204.70711 2.032932 4.33103.795495c.33275-1.944544 1.0275-3.889087-1.59099-5.833631z" fill="url(#l)" filter="url(#n)" opacity=".608911"/>
      </g>
      <path d="m64.125001 11.90625c-.17379.138302-1.54147.801979-3.125 2.75-1.80976 2.22631-3.85294 5.579903-5.875 9.125s-4.02855 7.293792-6 10.5625c-1.97146 3.268708-3.63502 6.040998-6.28125 7.96875-2.64624 1.92775-5.78427 2.688163-9.5 3.5625-3.71573.874339-7.91193 1.599737-11.90625 2.4375-3.99432.837765-7.82605 1.772477-10.5 2.8125-2.5756504 1.001785-3.5475504 2.212785-3.5625004 2.125.07795.207399.29291 1.704496 1.65625 3.8125 1.5581004 2.409149 4.0970104 5.387658 6.8437504 8.40625 2.74674 3.018589 5.68799 6.083702 8.1875 8.96875 2.49951 2.885053 4.60933 5.325073 5.625 8.4375 1.01567 3.112425.75418 6.352198.4375 10.15625s-.87495 8.03605-1.3125 12.09375c-.43755 4.05771-.72532 7.94803-.5625 10.8125.14247 2.5064.84776 3.8489.90625 4.0625.22441-.00912 1.69887.23895 4.125-.40625 2.77271-.73737 6.40536-2.22675 10.125-3.90625 3.71963-1.67951 7.54626-3.5456 11.0625-5.03125s6.5073-2.71458 9.78125-2.71875c3.27395-.00416 6.22999 1.2108 9.75 2.6875 3.52001 1.47669 7.36985 3.32997 11.09375 5 3.7239 1.67004 7.3504 3.17593 10.125 3.90625 2.42776.63902 3.93243.36661 4.15625.375.06026-.2153.738899-1.55573.874999-4.0625.15553-2.86487-.14588-6.75592-.593749-10.8125-.44788-4.05659-1.01741-8.290512-1.34375-12.09375-.32636-3.803234-.60151-7.010005.40625-10.125 1.00774-3.114999 3.101579-5.577345 5.593749-8.46875 2.49216-2.891404 5.44845-5.974434 8.1875-9 2.73905-3.025569 5.26053-6.024394 6.8125-8.4375 1.35797-2.111468 1.60742-3.573188 1.6875-3.78125-.1878-.124236-1.28299-1.220939-3.625-2.125-2.6766-1.033213-6.47232-1.953653-10.46875-2.78125-3.99644-.827598-8.188319-1.572621-11.906249-2.4375-3.71794-.86488-6.84888-1.610241-9.5-3.53125-2.65113-1.921009-4.33273-4.673818-6.3125-7.9375-1.97977-3.263681-4.00018-7.02256-6.03125-10.5625-2.03108-3.539941-4.09083-6.872053-5.90625-9.09375-1.58849-1.943986-2.94821-2.610827-3.125-2.75z" style="fill:none;stroke-width:.6;stroke-linecap:round;stroke-linejoin:round;stroke-dashoffset:4;stroke:url(#E);filter:url(#C)"/>
      <path d="m25.190679 119.77989c1.224 2.96249 2.050483 4.33908 6.098796 3.53553l-.651119-3.10534-1.55859.18852-.818055-1.82519z" fill="url(#y)" fill-rule="evenodd" filter="url(#z)" opacity=".771536" transform="matrix(-1 0 0 1 128.10515 0)"/>
      <path d="m26.03125 94.25c-1.047495 10.8642-3.81183 25.60075.75 28.90625 6.37158 4.61685 29.506568-12.33374 37.375-12.34375s31.046441 16.88305 37.40625 12.25c4.54029-3.30755 1.74565-17.96066.65625-28.8125h-3.875c.334114 3.457156.820899 7.17777 1.21875 10.78125.44788 4.05658.74928 7.94763.59375 10.8125-.13609 2.50677-.81474 3.8472-.875 4.0625-.223807-.00839-1.728488.26402-4.15625-.375-2.774583-.73032-6.401101-2.23621-10.125-3.90625-3.723897-1.67003-7.573741-3.52331-11.09375-5-3.520008-1.4767-6.47605-2.69166-9.75-2.6875-3.273947.00417-6.265009 1.2331-9.78125 2.71875-3.516239 1.48565-7.342863 3.35174-11.0625 5.03125-3.719638 1.6795-7.352284 3.16888-10.125 3.90625-2.426127.6452-3.900592.39713-4.125.40625-.058488-.2136-.76378-1.5561-.90625-4.0625-.162822-2.86447.124949-6.75479.5625-10.8125.392136-3.63655.862243-7.391973 1.1875-10.875z" fill="url(#t)" filter="url(#s)"/>
      <path d="m3.96875 51.25c-.1615018.263327-.315071.53066-.40625.8125-2.1520006 6.651965 15.229007 20.85413 20.84375 29.1875.660494.969734 1.475744 2.310003 1.745652 3.800699 1.50494-.302113 3.424139-2.408678 2.754348-3.800699-1.137602-2.37433-2.894057-4.453864-4.9375-6.8125-2.499512-2.885048-5.440762-5.950161-8.1875-8.96875-2.746738-3.018592-5.285649-5.997101-6.84375-8.40625-1.363338-2.108004-1.578295-3.605101-1.65625-3.8125.0143126.08402.9153714-1.026662 3.25-2zm113.90625 0c1.92397.844675 2.86059 1.762104 3.03125 1.875-.08007.208062-.32953 1.669782-1.6875 3.78125-1.55196 2.413106-4.07345 5.411931-6.8125 8.4375-2.73904 3.025566-5.69534 6.108596-8.1875 9-2.05738 2.386971-3.84125 4.495509-4.96875 6.90625-.860642 2.440958 1.94084 3.499904 2.83854 3.579728.32877-1.455806.98591-2.528505 1.66146-3.579728 5.53341-8.336152 23.02026-22.674014 20.84375-29.34375-.07341-.224951-.19393-.443299-.3125-.65625z" fill="url(#r)" filter="url(#q)" opacity=".841584"/>
    </g>
  </g>
</svg>
