<svg height="48" width="48" xmlns="http://www.w3.org/2000/svg" xmlns:xlink="http://www.w3.org/1999/xlink">
  <linearGradient id="a">
    <stop offset="0" stop-color="#fff"/>
    <stop offset="1" stop-color="#fff" stop-opacity="0"/>
  </linearGradient>
  <linearGradient id="b" gradientTransform="matrix(1.5436745 0 0 1.5436393 -63.017183 37.419463)" gradientUnits="userSpaceOnUse" x1="62.771355" x2="62.579906" xlink:href="#a" y1="-13.185048" y2="7.459964"/>
  <linearGradient id="c" gradientTransform="matrix(.7287372 0 0 .7287206 15.796514 14.228326)" gradientUnits="userSpaceOnUse" x1="15.046636" x2="15.046636" y1="44.787998" y2="3.885126">
    <stop offset="0" stop-color="#42770c"/>
    <stop offset="1" stop-color="#789e2d"/>
  </linearGradient>
  <radialGradient id="d" cx="62.200348" cy="-8.506054" gradientTransform="matrix(-5.9025587 -.0000001 .00000004 -2.3442794 400.1412 4.190328)" gradientUnits="userSpaceOnUse" r="9.755283">
    <stop offset="0" stop-color="#a7cc5c"/>
    <stop offset="1" stop-color="#789e2d"/>
  </radialGradient>
  <linearGradient id="e">
    <stop offset="0"/>
    <stop offset="1" stop-opacity="0"/>
  </linearGradient>
  <radialGradient id="f" cx="6.702713" cy="73.615715" gradientTransform="scale(1.902215 .525703)" gradientUnits="userSpaceOnUse" r="7.228416" xlink:href="#e"/>
  <linearGradient id="g" gradientUnits="userSpaceOnUse" x1="322.26392" x2="329.12961" xlink:href="#a" y1="55.34375" y2="64.329506"/>
  <linearGradient id="h" gradientUnits="userSpaceOnUse" x1="325.65164" x2="328.24478" xlink:href="#n" y1="62.475075" y2="61.084908"/>
  <linearGradient id="i">
    <stop offset="0" stop-color="#c17d11"/>
    <stop offset="1" stop-color="#e9b96e"/>
  </linearGradient>
  <linearGradient id="j" gradientTransform="matrix(.1516675 0 0 .1638445 300.96358 54.165417)" gradientUnits="userSpaceOnUse" x1="251.94502" x2="161.94502" xlink:href="#i" y1="18.836056" y2="46.195984"/>
  <linearGradient id="k" gradientTransform="matrix(.8365572 0 0 1 52.219983 0)" gradientUnits="userSpaceOnUse" x1="334.77948" x2="327.34198" xlink:href="#e" y1="69.490768" y2="69.490768"/>
  <linearGradient id="l" gradientUnits="userSpaceOnUse" x1="316.42142" x2="304.1875" xlink:href="#a" y1="58.144356" y2="67.203125"/>
  <radialGradient id="m" cx="318.26694" cy="81.264877" gradientTransform="matrix(11.694835 -3.1336215 .2338827 .8728621 -3435.8358 1012.645)" gradientUnits="userSpaceOnUse" r="15.375" xlink:href="#a"/>
  <linearGradient id="n">
    <stop offset="0" stop-color="#c17d11"/>
    <stop offset="1" stop-color="#c17d11" stop-opacity="0"/>
  </linearGradient>
  <linearGradient id="o" gradientUnits="userSpaceOnUse" x1="317" x2="313.625" xlink:href="#n" y1="65.25" y2="62.475075"/>
  <radialGradient id="p" cx="93.23716" cy="132.00948" gradientTransform="matrix(.194642 -.362756 .2778653 .17262 263.08914 83.463419)" gradientUnits="userSpaceOnUse" r="48.719242">
    <stop offset="0" stop-color="#eeeeec"/>
    <stop offset="1" stop-color="#e9b96e"/>
  </radialGradient>
  <linearGradient id="q" gradientTransform="matrix(.914635 0 0 1 27.274119 0)" gradientUnits="userSpaceOnUse" x1="314.81003" x2="321.78522" xlink:href="#e" y1="69.553268" y2="69.490768"/>
  <radialGradient id="r" cx="321.375" cy="70.5" gradientTransform="matrix(1 0 0 .4274194 0 40.366935)" gradientUnits="userSpaceOnUse" r="15.5" xlink:href="#a"/>
  <radialGradient id="s" cx="320.7493" cy="70.499977" gradientTransform="matrix(1.1851374 0 0 .1612901 -56.76846 59.129051)" gradientUnits="userSpaceOnUse" r="15.500023">
    <stop offset="0" stop-color="#faefde"/>
    <stop offset=".68321055" stop-color="#e9b96e"/>
    <stop offset="1" stop-color="#e9b96e" stop-opacity="0"/>
  </radialGradient>
  <radialGradient id="t" cx="321.7785" cy="96.847473" gradientTransform="matrix(4.6140944 0 0 .6613562 -1154.7032 27.949324)" gradientUnits="userSpaceOnUse" r="15.5">
    <stop offset="0" stop-color="#e9b96e"/>
    <stop offset="1" stop-color="#e9b96e" stop-opacity="0"/>
  </radialGradient>
  <linearGradient id="u" gradientTransform="matrix(.1549758 0 0 .1517241 299.35074 56.193103)" gradientUnits="userSpaceOnUse" x1="174.01562" x2="30" xlink:href="#i" y1="236" y2="64"/>
  <linearGradient id="v" gradientTransform="matrix(.159975 0 0 .1765787 298.70076 53.371862)" gradientUnits="userSpaceOnUse" x1="52" x2="52" y1="40.482288" y2="76.67421">
    <stop offset="0" stop-color="#ebd3ad"/>
    <stop offset="1" stop-color="#e9b96e"/>
  </linearGradient>
  <linearGradient id="w" gradientTransform="matrix(1.179548 0 0 1 -4.219389 0)" gradientUnits="userSpaceOnUse" x1="17.554192" x2="17.554192" y1="46.000275" y2="34.999718">
    <stop offset="0" stop-opacity="0"/>
    <stop offset=".5"/>
    <stop offset="1" stop-opacity="0"/>
  </linearGradient>
  <radialGradient id="x" cx="5" cy="41.5" gradientTransform="matrix(.99001 0 0 1.1 -14.88523 -86.15)" gradientUnits="userSpaceOnUse" r="5" xlink:href="#e"/>
  <radialGradient id="y" cx="5" cy="41.5" gradientTransform="matrix(.990017 0 0 1.1 32.1147 -5.15)" gradientUnits="userSpaceOnUse" r="5" xlink:href="#e"/>
  <metadata/>
  <g opacity=".4" transform="matrix(1.000001 0 0 1.2727273 -.000005 -12.545454)">
    <rect fill="url(#y)" height="11" opacity="1" width="4.935218" x="37.064781" y="35"/>
    <rect fill="url(#x)" height="11" opacity="1" transform="scale(-1)" width="4.935184" x="-9.935184" y="-46"/>
    <rect fill="url(#w)" height="11" opacity="1" width="27.129599" x="9.935184" y="35"/>
  </g>
  <g enable-background="new" transform="translate(-296.00045 -50)">
    <path d="m322.875 54.40625c-.22574.059667-.38093.266585-.375.5l.09375 6.59375h-4.1875l.03125-2.5625c.00418-.140759-.04509-.288544-.15625-.375-.11117-.086456-.27085-.101205-.40625-.0625l-11.375 3c-.14053.04996-.24632.167506-.28125.3125l-.0625.21875c-.09686.168963-.19309.344585-.25.53125l-2.34375 7.53125c-.04844.113939-.0625.211936-.0625.34375-.0019.021168.0019.041389 0 .0625v20.34375c0 .527252.43699 1.656249.96875 1.65625h30.0625c.53176 0 .96875-1.128996.96875-1.65625v-20.34375l-.0625-.40625-.03125-.09375c-.00334-.033028.01009-.061218 0-.09375l-2.46875-8.125c-.026-.097046-.08041-.184105-.15625-.25l-9.46875-7.03125c-.12321-.097826-.28503-.132502-.4375-.09375z" fill="url(#v)" fill-rule="evenodd" stroke="#8f5902" stroke-dashoffset=".7" stroke-linecap="round"/>
    <rect fill="#fff" height="1" opacity=".189189" width="23.340202" x="309" y="66"/>
    <g fill-rule="evenodd">
      <path d="m304.92985 70c-.51514 0-.92985.406014-.92985.910345v19.572413.606896c0 .504331.41471.910345.92985.910346h29.1403c.51515 0 .92985-.406016.92985-.910346v-20.179309c0-.504331-.4147-.910345-.92985-.910345z" fill="url(#u)"/>
      <path d="m304.92985 70c-.51514 0-.92985.406014-.92985.910345v19.572413.606896c0 .504331.41471.910345.92985.910346h29.1403c.51515 0 .92985-.406016.92985-.910346v-20.179309c0-.504331-.4147-.910345-.92985-.910345z" fill="url(#t)" opacity=".815315"/>
      <path d="m304.71875 68-.6875 2.25c.00033.010414.00033.020836 0 .03125-.02168.051-.03125.059991-.03125.15625.00033.010414.00033.020836 0 .03125.00297-.033097-.00048.020918 0 .03125s.0049-.02314 0 .03125v2.46875h31v-2.4375-.0625l-.03125-.25-.03125-.09375-.65625-2.15625z" fill="url(#s)" opacity=".5"/>
    </g>
    <rect fill="url(#r)" height="1" opacity=".623306" width="31" x="304" y="70"/>
    <path d="m307.9375 61.90625c-.11711 0-.1826.048162-.28125.1875-.09864.139338-.18612.364653-.25.59375l-2.125 7.40625h18.21875v-8.1875z" fill="url(#q)" fill-rule="evenodd" opacity=".369369"/>
    <rect fill="#c17d11" height="1" opacity=".396396" width="23.340202" x="309" y="65"/>
    <path d="m317.875 59.09375-11.15625 2.9375-2.46875 7.78125 13.5-2.9375z" fill="url(#p)" fill-rule="evenodd"/>
    <g fill="none">
      <path d="m317.875 58.5-11.375 3c-.14053.04996-.24632.167506-.28125.3125l-2.5625 8.0625c-.04452.146945-.00948.306469.09252.421228.10201.114759.25633.16826.40748.141272l13.8125-3.03125c.20365-.046162.34708-.228714.34375-.4375l.125-8.03125c.00418-.140759-.05905-.275067-.1702-.361523-.11116-.086456-.2569-.114682-.3923-.075977z" stroke="url(#o)"/>
      <path d="m323.65625 56.125.0625 5.34375c.01143.30458-.10238.600552-.31493.819006-.21255.218453-.50529.340327-.81007.337244h-4.1875c-.29923.002829-.58702-.114788-.79862-.326383-.21159-.211595-.32921-.49939-.32638-.798617l.03125-1.71875-10.125 2.65625c.00015.010416.00015.020834 0 .03125-.0182.042933-.03907.084682-.0625.125-.08954.156194-.14467.243274-.15625.28125.00015.010416.00015.020834 0 .03125l-2.34375 7.53125c0-.031541.00678.027733 0 .0625v.03125c.01558-.173544.01949-.154006 0 .0625v20.25c0-.044248.05696.334517.15625.53125h29.4375c.09929-.196733.15625-.575496.15625-.53125v-20.34375-.0625l-.03125-.09375c-.01764-.071701-.02811-.144978-.03125-.21875l-2.375-7.8125z" opacity=".369369" stroke="url(#m)" stroke-dashoffset=".7" stroke-linecap="round"/>
      <path d="m317.5625 59.5-10.59375 2.78125-2.28125 7.125 12.75-2.8125z" opacity=".531532" stroke="url(#l)"/>
    </g>
    <path d="m323.0625 61.90625v8.1875h10.65625l-2.125-7.53125c-.06131-.220339-.13082-.426301-.21875-.53125-.08792-.104949-.16684-.125-.3125-.125z" fill="url(#k)" fill-rule="evenodd" opacity=".369369"/>
    <path d="m323 54.90625.125 8.125 11.8125 7.03125-2.46875-8.125z" fill="url(#j)" fill-rule="evenodd"/>
    <path d="m322.875 54.40625c-.22574.059667-.38093.266585-.375.5l.125 8.125c-.00079.180018.09451.346788.25.4375l11.8125 7.03125c.18026.096275.40081.074158.55836-.055994.15756-.130151.22091-.342565.16039-.537756l-2.46875-8.125c-.026-.097046-.08041-.184105-.15625-.25l-9.46875-7.03125c-.12321-.097826-.28503-.132502-.4375-.09375z" fill="none" stroke="url(#h)"/>
    <path d="m323.46875 55.84375.125 6.90625 10.53125 6.28125-2.09375-6.8125z" fill="none" opacity=".252252" stroke="url(#g)"/>
    <g fill="#fff">
      <path d="m323 54.90625.125 8.125 11.8125 7.03125-10.875-7.24908-.0625-6.31434 8.46875 5.43842z" fill-rule="evenodd" opacity=".369369"/>
      <rect height="1" opacity=".207207" width="3" x="319" y="62"/>
    </g>
  </g>
  <path d="m26.5 38.700001a13.75 3.8 0 1 1 -27.5 0 13.75 3.8 0 1 1 27.5 0z" fill="url(#f)" opacity=".5" transform="matrix(1.0181818 0 0 1.0526316 20.018182 3.263156)"/>
  <path d="m47.500174 31.999486c0 8.008483-6.492428 14.500689-14.499991 14.500689-8.008298 0-14.500358-6.49228-14.500358-14.500689 0-8.008116 6.49206-14.499661 14.500358-14.499661 8.007563 0 14.499991 6.491545 14.499991 14.499661z" fill="url(#d)" stroke="url(#c)" stroke-width=".99965"/>
  <path d="m46.500204 31.99952c0 7.456198-6.044692 13.500685-13.500034 13.500685-7.456024 0-13.500375-6.044555-13.500375-13.500685 0-7.455854 6.044351-13.499725 13.500375-13.499725 7.455342 0 13.500034 6.043871 13.500034 13.499725z" fill="none" opacity=".6" stroke="url(#b)" stroke-width=".999591"/>
  <path d="m23.5 32.5 9.5-10 9.5 10h-5.75v9h-7.5v-9z" fill="#fff" stroke="#fff"/>
</svg>
