<svg xmlns="http://www.w3.org/2000/svg" xmlns:svg="http://www.w3.org/2000/svg" xmlns:xlink="http://www.w3.org/1999/xlink" id="svg2" width="64" height="64" version="1.1"><defs id="defs4"><linearGradient id="linearGradient3931"><stop offset="0" style="stop-color:#fff;stop-opacity:0" id="stop3933"/><stop offset=".7" style="stop-color:#fff;stop-opacity:.10396039" id="stop3939"/><stop offset="1" style="stop-color:#fff;stop-opacity:.14356436" id="stop3935"/></linearGradient><linearGradient id="linearGradient3900"><stop offset="0" style="stop-color:#f6f6f6;stop-opacity:1" id="stop3902"/><stop offset=".757" style="stop-color:#494949;stop-opacity:1" id="stop3904"/><stop offset="1" style="stop-color:#2c2c2c;stop-opacity:1" id="stop3906"/></linearGradient><linearGradient id="linearGradient3808"><stop offset="0" style="stop-color:#333;stop-opacity:1" id="stop3810"/><stop offset="1" style="stop-color:#c8c8c8;stop-opacity:1" id="stop3812"/></linearGradient><linearGradient id="linearGradient3030"><stop offset="0" style="stop-color:#000;stop-opacity:1" id="stop3032"/><stop offset=".757" style="stop-color:#333;stop-opacity:1" id="stop3038"/><stop offset="1" style="stop-color:#4d4d4d;stop-opacity:1" id="stop3034"/></linearGradient><radialGradient id="radialGradient3036" cx="29.382" cy="14.243" r="16.375" fx="29.382" fy="14.243" gradientTransform="matrix(1.3519242,1.8838281,-1.5359217,1.1022493,15.935733,948.08165)" gradientUnits="userSpaceOnUse" xlink:href="#linearGradient3030"/><linearGradient id="linearGradient3824" x1="30" x2="34" y1="1033.862" y2="1033.862" gradientTransform="matrix(1.5,0,0,1,-16,4)" gradientUnits="userSpaceOnUse" xlink:href="#linearGradient3808"/><linearGradient id="linearGradient3834" x1="32" x2="32" y1="1043.362" y2="1039.362" gradientTransform="matrix(0.82142857,0,0,1.500001,6.7142857,-522.68214)" gradientUnits="userSpaceOnUse" xlink:href="#linearGradient3808"/><radialGradient id="radialGradient3844" cx="30.725" cy="1039.813" r="3" fx="30.725" fy="1039.813" gradientTransform="matrix(6.479993,1.9525666,-10.415476,2.1794781,10657.845,-1282.8793)" gradientUnits="userSpaceOnUse" xlink:href="#linearGradient3900"/><radialGradient id="radialGradient3852" cx="30.725" cy="1039.813" r="3" fx="30.725" fy="1039.813" gradientTransform="matrix(2.5191507,2.9862959,-4.0491019,3.333339,4186.8847,-2518.44)" gradientUnits="userSpaceOnUse" xlink:href="#linearGradient3900"/><radialGradient id="radialGradient3857" cx="30.725" cy="1039.813" r="3" fx="30.725" fy="1039.813" gradientTransform="matrix(-2.5191507,2.9863064,4.0491022,3.3333507,-4122.8849,-2518.4524)" gradientUnits="userSpaceOnUse" xlink:href="#linearGradient3900"/><radialGradient id="radialGradient3937" cx="31.946" cy="21.977" r="19.25" fx="31.946" fy="21.977" gradientTransform="matrix(-0.69414478,2.3073251,-1.6952184,-0.67174747,96.941544,960.82172)" gradientUnits="userSpaceOnUse" xlink:href="#linearGradient3900"/></defs><metadata id="metadata7"/><g id="layer1" transform="translate(0,-988.36218)"><rect style="color:#000;display:inline;overflow:visible;visibility:visible;fill:url(#radialGradient3036);fill-opacity:1;fill-rule:nonzero;stroke:#000;stroke-width:1.25954175;stroke-opacity:1;marker:none;enable-background:accumulate" id="rect2997" width="53.74" height="53.74" x="5.63" y="992.992" rx=".707" ry=".707"/></g><g id="g1021" transform="translate(1.7703716e-7,-0.42472956)"><g style="fill:green" id="g899" transform="matrix(0.08572572,0,0,0.08572572,9.999999,10.424713)"><g style="fill:green" id="g867"><g style="fill:green" id="g865"><path style="fill:green" id="path860" d="m 226.434,249.503 c 0,-6.995 -2.705,-13.403 -7.846,-18.556 L 61.8,74.165 c -5.128,-5.141 -11.554,-7.852 -18.568,-7.852 -7.026,0 -13.452,2.717 -18.556,7.846 l -16.83,16.83 c -5.129,5.135 -7.84,11.549 -7.84,18.538 0,7.026 2.717,13.452 7.846,18.556 L 129.267,249.503 7.84,370.936 C 2.711,376.071 0,382.491 0,389.486 c 0,7.02 2.717,13.439 7.846,18.544 l 16.775,16.774 c 5.116,5.165 11.555,7.895 18.611,7.895 7.044,0 13.47,-2.723 18.556,-7.846 l 156.813,-156.8 c 5.128,-5.14 7.833,-11.549 7.833,-18.55 z"/><path style="fill:green" id="path862" d="m 498.866,384.951 h -323.02 c -7.203,0 -13.611,2.583 -18.581,7.528 -4.896,4.92 -7.484,11.327 -7.484,18.531 v 21.536 c 0,7.252 2.607,13.672 7.491,18.543 4.915,4.927 11.34,7.528 18.574,7.528 h 323.02 c 7.239,0 13.659,-2.607 18.531,-7.497 4.927,-4.908 7.533,-11.334 7.533,-18.58 v -21.537 c 0,-7.209 -2.589,-13.616 -7.54,-18.592 -4.913,-4.877 -11.321,-7.46 -18.524,-7.46 z"/></g></g></g><g id="g914" transform="matrix(0.08572572,0,0,0.08572572,9.9999994,8.4247072)" style="fill:#0f0"><g id="g856" style="fill:#0f0"><g id="g854" style="fill:#0f0"><path id="path850" d="m 226.434,249.503 c 0,-6.995 -2.705,-13.403 -7.846,-18.556 L 61.8,74.165 c -5.128,-5.141 -11.554,-7.852 -18.568,-7.852 -7.026,0 -13.452,2.717 -18.556,7.846 l -16.83,16.83 c -5.129,5.135 -7.84,11.549 -7.84,18.538 0,7.026 2.717,13.452 7.846,18.556 L 129.267,249.503 7.84,370.936 C 2.711,376.071 0,382.491 0,389.486 c 0,7.02 2.717,13.439 7.846,18.544 l 16.775,16.774 c 5.116,5.165 11.555,7.895 18.611,7.895 7.044,0 13.47,-2.723 18.556,-7.846 l 156.813,-156.8 c 5.128,-5.14 7.833,-11.549 7.833,-18.55 z" style="fill:#0f0"/><path id="path852" d="m 498.866,384.951 h -323.02 c -7.203,0 -13.611,2.583 -18.581,7.528 -4.896,4.92 -7.484,11.327 -7.484,18.531 v 21.536 c 0,7.252 2.607,13.672 7.491,18.543 4.915,4.927 11.34,7.528 18.574,7.528 h 323.02 c 7.239,0 13.659,-2.607 18.531,-7.497 4.927,-4.908 7.533,-11.334 7.533,-18.58 v -21.537 c 0,-7.209 -2.589,-13.616 -7.54,-18.592 -4.913,-4.877 -11.321,-7.46 -18.524,-7.46 z" style="fill:#0f0"/></g></g></g></g></svg>