<svg height="33.866665mm" viewBox="0 0 33.866665 33.866665" width="33.866665mm" xmlns="http://www.w3.org/2000/svg" xmlns:xlink="http://www.w3.org/1999/xlink">
  <linearGradient id="a" gradientUnits="userSpaceOnUse" x1="-147.302559" x2="-124.548392" y1="132.700364" y2="132.700364">
    <stop offset="0" stop-color="#bf0303"/>
    <stop offset=".375" stop-color="#fc3d3d"/>
    <stop offset=".75" stop-color="#bf0303"/>
    <stop offset="1" stop-color="#bf0303"/>
  </linearGradient>
  <linearGradient id="b" gradientUnits="userSpaceOnUse" x1="-147.01929" x2="-124.811488" y1="124.276559" y2="124.276559">
    <stop offset="0" stop-color="#9c0f0f" stop-opacity=".283019"/>
    <stop offset=".5" stop-color="#9c0f0f"/>
    <stop offset="1" stop-color="#9c0f0f" stop-opacity=".198113"/>
  </linearGradient>
  <linearGradient id="c" gradientUnits="userSpaceOnUse" x1="-149.623244" x2="-122.207269" y1="119.699533" y2="119.699533">
    <stop offset="0" stop-color="#d50303"/>
    <stop offset=".5" stop-color="#feaeae"/>
    <stop offset="1" stop-color="#d50303"/>
  </linearGradient>
  <linearGradient id="d" gradientUnits="userSpaceOnUse" x1="-134.693521" x2="-134.693521" y1="116.493333" y2="123.023796">
    <stop offset="0" stop-color="#950000"/>
    <stop offset="1" stop-color="#350000"/>
  </linearGradient>
  <linearGradient id="e" gradientUnits="userSpaceOnUse" x1="-141.934528" x2="-129.895986" xlink:href="#f" y1="136.517691" y2="136.517691"/>
  <linearGradient id="f">
    <stop offset="0" stop-color="#390000"/>
    <stop offset=".375" stop-color="#da0303"/>
    <stop offset=".75" stop-color="#7b0101"/>
    <stop offset="1" stop-color="#390000"/>
  </linearGradient>
  <linearGradient id="g" gradientUnits="userSpaceOnUse" x1="-141.934528" x2="-129.895986" xlink:href="#f" y1="136.609952" y2="136.609952"/>
  <linearGradient id="h" gradientUnits="userSpaceOnUse" x1="-141.934528" x2="-129.895986" xlink:href="#f" y1="130.951124" y2="130.951124"/>
  <radialGradient id="i" cx="63.912209" cy="115.70919" fy="115.7093" gradientTransform="matrix(1 0 0 .197802 0 92.82166)" gradientUnits="userSpaceOnUse" r="63.912209">
    <stop offset="0"/>
    <stop offset="1" stop-opacity="0"/>
  </radialGradient>
  <g transform="translate(152.84859 -113.948021)">
    <g stroke-width=".264583">
      <g fill="#004d00">
        <path d="m-135.91552 144.90744c-3.41895 0-6.36323-.76173-8.22219-1.87536-.49954-.0998-.96044-.2032-1.37795-.3048 1.48722 1.68248 5.14376 2.97391 9.60014 2.97391 4.45664 0 8.11318-1.29143 9.6004-2.97391-.41751.10186-.87841.20505-1.37795.3048-1.85896 1.11363-4.80298 1.87536-8.22245 1.87536z" opacity=".1"/>
        <path d="m-135.91552 145.17203c-3.80127 0-7.01569-.94112-8.80295-2.26192-.27993-.0606-.54743-.12198-.79719-.18283 1.48722 1.68248 5.14376 2.97391 9.60014 2.97391 4.45664 0 8.11318-1.29143 9.6004-2.97391-.24976.0608-.51726.1225-.79718.18283-1.78727 1.3208-5.00169 2.26192-8.80322 2.26192z" opacity=".2"/>
        <path d="m-135.91552 145.43661c-4.1447 0-7.59513-1.11786-9.25433-2.62784-.11748-.027-.23442-.0542-.34581-.0818 1.48722 1.68249 5.14376 2.97392 9.60014 2.97392 4.45664 0 8.11318-1.29143 9.6004-2.97392-.11138.0275-.22833.0548-.34607.0818-1.65894 1.50998-5.10937 2.62784-9.25433 2.62784z" opacity=".3"/>
      </g>
      <path d="m-147.30256 119.69953 1.05833 21.36828c0 2.41274 4.47384 4.63338 10.31849 4.63338 5.84517 0 10.31901-2.22064 10.31901-4.63338l1.05834-21.36828z" fill="url(#a)"/>
      <rect fill="none" height="33.866665" width="33.866665" x="-152.84859" y="113.94802"/>
      <path d="m-124.84059 122.62688.0291-.322c-1.12712 2.10397-5.6679 3.67851-11.1043 3.67851-5.43586 0-9.9769-1.57454-11.1035-3.67851l.0288.322c1.17792 2.07539 5.68801 3.62135 11.07466 3.62135 5.38745-.00026 9.89727-1.54596 11.0752-3.62135z" fill="url(#b)" opacity=".5"/>
      <ellipse cx="-135.91525" cy="119.69953" fill="url(#c)" rx="11.377083" ry="4.696354"/>
      <path d="m-146.34804 119.44606c0 1.9222 4.19206 3.97986 10.43252 3.97986 6.24073 0 10.43305-2.05766 10.43305-3.97986 0-1.92193-4.19232-3.71528-10.43305-3.71528-6.24046 0-10.43252 1.79361-10.43252 3.71528z" fill="url(#d)" opacity=".727778"/>
      <path d="m-135.91552 115.73801c-6.24046 0-10.43252 1.92905-10.43252 3.73061 0 .47023.28786.94865.82074 1.39978-.0302-.13616-.0453-.27207-.0453-.40773 0-2.65478 5.59455-4.47464 9.65703-4.47464 7.90334 0 11.98846 2.51962 9.65755 4.47464-.10375.087-.0153.27157-.0455.40773.53313-.45088.821-.92955.821-1.39978 0-1.80132-4.19232-3.73061-10.43305-3.73061z" opacity=".494444"/>
    </g>
    <g fill="#555" transform="matrix(.26458333 0 0 .26458333 -152.84859 113.94802)">
      <path d="m63.999 32.22c-21.36 0-36.348-6.18-38.912-12.556-.258.642-.393 1.286-.393 1.925 0 6.994 15.793 14.482 39.305 14.482 23.513 0 39.307-7.488 39.307-14.482 0-.639-.136-1.283-.394-1.925-2.562 6.376-17.552 12.556-38.913 12.556z" opacity=".1"/>
      <path d="m63.999 33.184c-21.897 0-37.093-6.496-39.077-13.037-.147.481-.228.964-.228 1.443 0 6.994 15.793 14.482 39.305 14.482 23.513 0 39.307-7.488 39.307-14.482 0-.479-.082-.962-.228-1.443-1.983 6.541-17.18 13.037-39.079 13.037z" opacity=".15"/>
      <path d="m63.999 34.146c-22.435 0-37.832-6.818-39.195-13.519-.065.321-.109.642-.109.962 0 6.994 15.793 14.482 39.305 14.482 23.513 0 39.307-7.488 39.307-14.482 0-.32-.044-.641-.11-.962-1.364 6.701-16.762 13.519-39.198 13.519z" opacity=".2"/>
      <path d="m63.999 35.109c-22.973 0-38.568-7.148-39.271-14-.017.161-.034.321-.034.481 0 6.994 15.793 14.482 39.305 14.482 23.513 0 39.307-7.488 39.307-14.482 0-.16-.018-.32-.034-.481-.704 6.851-16.299 14-39.273 14z" opacity=".25"/>
    </g>
    <g stroke-width=".264583">
      <path d="m-139.65779 133.54386-2.07539.27648c-.11033.0148-.20214.0968-.22595.20559-.004.0196-.006.0389-.006.0587 0 .0886.0437.17304.12091.22199 0 0 .42333.26776.66067.41778-.22728.47334-.6657 1.50389-.6657 2.19233 0 .11033.0114.2122.0368.3011.40323 1.76503 1.81531 2.08624 2.23838 2.14233.045.006.0937.0116.14208.0114.948.068 1.91452.10927 2.87284.12276.0722.001.14155-.0275.19235-.0788s.0781-.12118.0759-.19315l-.0389-1.33561c-.004-.14156-.11907-.25506-.26062-.25718-1.0459-.0151-2.09841-.063-3.1287-.1434-.008-.00053-.0241-.00053-.0325-.00053-.0894.002-.28787-.0352-.32676-.32306.14023-.3638.43524-1.00912.60431-1.36684.0132.008.51064.31883.51064.31883.0963.0603.22093.054.30877-.0183.0878-.072.12039-.1905.0799-.2966l-.79666-2.09179c-.0442-.11483-.16431-.18018-.28602-.16404zm.47546 5.68774c-.0243.0458-.0616.0807-.10478.10478.0397-.0214.0767-.0519.10478-.10478zm-.18627.12727c-.0217.004-.0413.014-.064.0127.0222-.00027.0426-.009.064-.0127z" fill="url(#e)"/>
      <path d="m-131.65414 133.01786-1.30969.79058c-.0823.0497-.12806.13758-.12806.22728 0 .0434.0109.0873.0333.12779.52229.94112.98028 1.88145 1.36155 2.79532.003.007.0135.0265.0172.0336.0151.028.0328.0733.0328.127 0 .0815-.0529.18257-.20717.27676-.40719.0392-1.1348.0815-1.5404.10186.0198-.24394.0431-.52863.0431-.52863.00052-.007.00079-.0146.00079-.0217 0-.10425-.0611-.1995-.15769-.24209-.10345-.0453-.22384-.0204-.30057.0619l-1.44251 1.55284c-.0897.0966-.0939.24447-.0111.34687l1.19459 1.47426c.068.0839.18045.11826.28364.0865.10345-.032.177-.12329.186-.23098 0 0 .0439-.53313.0529-.64214.92101-.0299 2.02935-.13917 2.47597-.4789.96811-.67574 1.20517-1.55072 1.20517-2.20054 0-.38893-.0847-.69717-.14869-.83423-.36407-.90302-.7882-1.81583-1.27027-2.72203-.0341-.064-.0937-.11113-.16351-.13044-.0699-.0193-.14526-.008-.20743.0291z" fill="url(#g)"/>
      <path d="m-137.7004 129.01816c-.10319.0844-.61569.51832-.55933.77708-.0154-.0704-.00079-.14314.0392-.20294-.61595.92049-1.18057 1.84785-1.67852 2.7567-.0696.12673-.0254.28548.10028.35666l1.34488.7612c.12673.0717.28707.0273.3593-.0998.53419-.93636 1.14459-1.90367 1.81478-2.87496.005-.007.0146-.0249.0188-.0325.0008-.001.0807-.13997.2167-.17542.0825-.0214.18388.0101.29368.0709.26644.39767.69956 1.11733.92393 1.49436-.15849.0791-.57706.28734-.57706.28734-.0905.0452-.14631.13758-.14631.2368 0 .0108.00079.022.002.0328.0138.11139.0966.20214.20612.22596l2.2217.48762c.12303.0273.24871-.0357.29977-.15055l.92366-2.08359c.0455-.10266.0209-.22251-.0608-.29951-.0818-.077-.20373-.0937-.30321-.0421 0 0-.42598.22067-.69321.35904-.33232-.6932-1.22555-1.97696-1.81451-2.22197-1.42187-.62838-2.4474-.059-2.93185.33682zm4.88527 2.27197c0-.0148-.0132-.0455-.0167-.0645.003.0148.0193.0235.0193.0386 0 .0161-.002.0323-.005.0487.001-.007.002-.0146.002-.0228z" fill="url(#h)"/>
      <g fill="#fff">
        <path d="m-139.74034 137.74994c-.00026.00079-.57309.0283-.61277-.61278.18573-.50482.76094-1.72111.76993-1.72111.25665.16007.50906.31856.75883.47413-.25162-.69162-.51594-1.38589-.79375-2.08465-.70882.10715-1.40414.19923-2.08465.27781.29157.18494.57891.36698.86227.54557-.0275-.001-.9144 1.82986-.71807 2.51619.43471 1.90077 2.13809 1.97062 2.14259 1.96241.95118.0683 1.905.10875 2.86015.12224-.0127-.44582-.0262-.89059-.0389-1.33562-1.05092-.0151-2.10052-.0627-3.14563-.14419z"/>
        <path d="m-131.45279 136.8575c.003-.0008.2794.48392-.30507.79613-.56171.0593-1.92378.12647-1.92431.12197.023-.27596.0672-.82682.0672-.82682-.48101.51541-.9615 1.03293-1.44198 1.55204.3982.48922.79719.98108 1.19539 1.47532.0238-.2921.0487-.58473.0722-.87736 0-.005 1.99893-.006 2.56064-.43259 1.60179-1.11866.99404-2.74426.96149-2.73553-.35586-.89588-.77232-1.79017-1.24909-2.68658-.44477.27041-.88265.5342-1.31075.79137.52335.94377.9824 1.88278 1.37425 2.82205z"/>
        <path d="m-136.4976 130.3416c-.003-.00053.30612-.58552.92471-.19817.36486.53366 1.11919 1.81557 1.11919 1.81557-.27675.13838-.55483.27649-.83185.41434.74163.1606 1.48326.32253 2.22356.48815.30771-.69241.61569-1.38668.9234-2.08332 0 0-.62971.32755-.93928.48604.0201-.00053-1.03928-2.02645-1.79228-2.33945-2.02301-.89323-3.16124.80566-3.13082.81412-.61462.91837-1.16919 1.82907-1.66634 2.73659.45693.26194.90434.51408 1.34249.75988.54637-.95647 1.15464-1.91876 1.82722-2.89375z"/>
      </g>
    </g>
    <path d="m127.82442 115.70919a63.91221 12.641975 0 1 1 -127.82442 0 63.91221 12.641975 0 1 1 127.82442 0z" fill="url(#i)" opacity=".381395" transform="matrix(.26494687 0 0 .10857521 -152.848596 133.878931)"/>
  </g>
</svg>
