<svg fill="none" viewBox="0 0 71 71" xmlns="http://www.w3.org/2000/svg" xmlns:xlink="http://www.w3.org/1999/xlink">
  <clipPath id="a">
    <rect height="55" width="71"/>
  </clipPath>
  <g clip-path="url(#a)" transform="translate(0 8.0294)">
    <path d="m60.104 4.8978c-4.5253-2.0764-9.378-3.6062-14.452-4.4824-.0924-.01691-.1847.025349-.2323.10987-.6241 1.11-1.3154 2.5581-1.7995 3.6963-5.4572-.817-10.886-.817-16.232 0-.4842-1.1635-1.2006-2.5863-1.8275-3.6963-.0476-.0817-.1399-.12396-.2323-.10987-5.071.87338-9.9237 2.4032-14.452 4.4824-.0392.0169-.0728.0451-.0951.0817-9.2046 13.751-11.726 27.165-10.489 40.412.005597.0648.041978.1268.092353.1662 6.0729 4.4598 11.956 7.1673 17.729 8.9619.0924.0282.1903-.0056.2491-.0817 1.3657-1.865 2.5831-3.8315 3.6269-5.8995.0616-.1211.0028-.2648-.1231-.3127-1.931-.7325-3.7697-1.6256-5.5384-2.6398-.1399-.0817-.1511-.2818-.0224-.3776.3722-.2789.7445-.5691 1.0999-.8621.0643-.0535.1539-.0648.2295-.031 11.62 5.3051 24.199 5.3051 35.682 0 .0756-.0366.1652-.0253.2323.0282.3555.293.7277.586 1.1027.8649.1287.0958.1203.2959-.0196.3776-1.7687 1.0339-3.6074 1.9073-5.5412 2.637-.1259.0479-.1819.1944-.1203.3155 1.0662 2.0651 2.2836 4.0316 3.6241 5.8967.056.0789.1567.1127.2491.0845 5.8014-1.7946 11.684-4.5021 17.757-8.9619.0532-.0394.0868-.0986.0924-.1634 1.4804-15.315-2.4796-28.618-10.498-40.412-.0196-.0394-.0531-.0676-.0923-.0845zm-36.379 32.428c-3.4983 0-6.3808-3.2117-6.3808-7.156s2.8266-7.156 6.3808-7.156c3.5821 0 6.4367 3.2399 6.3807 7.156 0 3.9443-2.8266 7.156-6.3807 7.156zm23.592 0c-3.4982 0-6.3807-3.2117-6.3807-7.156s2.8265-7.156 6.3807-7.156c3.5822 0 6.4367 3.2399 6.3808 7.156 0 3.9443-2.7986 7.156-6.3808 7.156z" fill="#5865f2"/>
  </g>
</svg>
