<?xml version="1.0" encoding="UTF-8" standalone="no"?>
<!-- Created with Inkscape (http://www.inkscape.org/) -->

<svg
   height="128"
   id="svg2811"
   version="1.0"
   width="128"
   xmlns:xlink="http://www.w3.org/1999/xlink"
   xmlns="http://www.w3.org/2000/svg"
   xmlns:svg="http://www.w3.org/2000/svg"
   xmlns:rdf="http://www.w3.org/1999/02/22-rdf-syntax-ns#"
   xmlns:cc="http://creativecommons.org/ns#"
   xmlns:dc="http://purl.org/dc/elements/1.1/">
  <metadata
     id="metadata2">
    <rdf:RDF>
      <cc:Work
         rdf:about="">
        <dc:description />
        <dc:subject>
          <rdf:Bag>
            <rdf:li>unsorted</rdf:li>
          </rdf:Bag>
        </dc:subject>
        <dc:publisher>
          <cc:Agent
             rdf:about="http://www.openclipart.org/">
            <dc:title>Open Clip Art Library, Source: Oxygen Icons, Source: Oxygen Icons, Source: Oxygen Icons, Source: Oxygen Icons</dc:title>
          </cc:Agent>
        </dc:publisher>
        <dc:creator>
          <cc:Agent>
            <dc:title />
          </cc:Agent>
        </dc:creator>
        <dc:rights>
          <cc:Agent>
            <dc:title />
          </cc:Agent>
        </dc:rights>
        <dc:date />
        <dc:format>image/svg+xml</dc:format>
        <dc:type
           rdf:resource="http://purl.org/dc/dcmitype/StillImage" />
        <cc:license
           rdf:resource="http://creativecommons.org/licenses/by-sa/3.0/ or http://creativecommons.org/licenses/LGPL/2.1/" />
        <dc:language>en</dc:language>
      </cc:Work>
    </rdf:RDF>
  </metadata>
  <defs
     id="defs2813">
    <linearGradient
       gradientTransform="matrix(1.0033808,0,0,1,-8.2378002,8)"
       gradientUnits="userSpaceOnUse"
       id="linearGradient2937"
       x1="122.74438"
       x2="122.39215"
       y1="96.721588"
       y2="20.043535">
      <stop
         id="stop2939"
         offset="0"
         style="stop-color:#72b4f4;stop-opacity:1" />
      <stop
         id="stop2941"
         offset="0.13053299"
         style="stop-color:#b3d9ff;stop-opacity:1" />
      <stop
         id="stop2943"
         offset="0.34621301"
         style="stop-color:#b3d9ff;stop-opacity:1" />
      <stop
         id="stop2945"
         offset="0.72006166"
         style="stop-color:#71a8f5;stop-opacity:1" />
      <stop
         id="stop2947"
         offset="1"
         style="stop-color:#508ed9;stop-opacity:1" />
    </linearGradient>
    <linearGradient
       gradientTransform="translate(242.00093,332.5)"
       gradientUnits="userSpaceOnUse"
       id="linearGradient2927"
       x1="-178"
       x2="-178"
       y1="-228.3945"
       y2="-304.61469">
      <stop
         id="stop2929"
         offset="0"
         style="stop-color:#cfe7ff;stop-opacity:1" />
      <stop
         id="stop2931"
         offset="0.1"
         style="stop-color:#71a8f5;stop-opacity:1" />
      <stop
         id="stop2933"
         offset="1"
         style="stop-color:#2c72c7;stop-opacity:1" />
    </linearGradient>
    <linearGradient
       id="linearGradient2822">
      <stop
         id="stop2824"
         offset="0"
         style="stop-color:#ffffff;stop-opacity:1" />
      <stop
         id="stop2826"
         offset="1"
         style="stop-color:#ffffff;stop-opacity:0" />
    </linearGradient>
    <linearGradient
       gradientTransform="matrix(1.0033404,0,0,1,-8.2374684,8)"
       gradientUnits="userSpaceOnUse"
       id="XMLID_9_"
       x1="71.999496"
       x2="71.999496"
       y1="14.2578"
       y2="19.9583">
      <stop
         id="stop46"
         offset="0.25"
         style="stop-color:#71a8f5;stop-opacity:0" />
      <stop
         id="stop48"
         offset="1"
         style="stop-color:#0057ae;stop-opacity:1" />
    </linearGradient>
    <filter
       height="1.768"
       id="filter2807"
       width="1.0512"
       x="-0.025599999"
       y="-0.38399999">
      <feGaussianBlur
         id="feGaussianBlur2809"
         stdDeviation="1.28" />
    </filter>
    <linearGradient
       gradientTransform="translate(-6.999995,8)"
       gradientUnits="userSpaceOnUse"
       id="XMLID_6_"
       x1="72.000504"
       x2="72.000504"
       y1="96"
       y2="0.00048828119">
      <stop
         id="stop7"
         offset="0"
         style="stop-color:#00479e;stop-opacity:1" />
      <stop
         id="stop9"
         offset="0.0769"
         style="stop-color:#2c72c7;stop-opacity:1" />
      <stop
         id="stop11"
         offset="0.58579999"
         style="stop-color:#6ea1df;stop-opacity:1" />
      <stop
         id="stop13"
         offset="0.96450001"
         style="stop-color:#adcbee;stop-opacity:1" />
    </linearGradient>
    <linearGradient
       gradientTransform="matrix(1.0033808,0,0,1,-8.2378,8)"
       gradientUnits="userSpaceOnUse"
       id="linearGradient3109"
       x1="122.74438"
       x2="122.74438"
       xlink:href="#linearGradient2937"
       y1="96"
       y2="20" />
    <linearGradient
       gradientTransform="translate(242.00093,332.5)"
       gradientUnits="userSpaceOnUse"
       id="linearGradient2923"
       x1="-168.99216"
       x2="-168.99216"
       xlink:href="#linearGradient2822"
       y1="-300.5"
       y2="-296.48441" />
    <linearGradient
       gradientTransform="translate(242.00093,332.5)"
       gradientUnits="userSpaceOnUse"
       id="linearGradient2925"
       x1="-178"
       x2="-178"
       xlink:href="#linearGradient2927"
       y1="-228.5"
       y2="-304.61469" />
    <linearGradient
       gradientTransform="translate(242.00093,364.5)"
       gradientUnits="userSpaceOnUse"
       id="linearGradient2197"
       x1="-168.99216"
       x2="-168.99216"
       xlink:href="#linearGradient2822"
       y1="-300.5"
       y2="-296.48441" />
    <linearGradient
       gradientTransform="matrix(1,0,0,0.7368421,242.00093,284.36842)"
       gradientUnits="userSpaceOnUse"
       id="linearGradient2201"
       x1="-178"
       x2="-178"
       xlink:href="#linearGradient2927"
       y1="-228.5"
       y2="-304.61469" />
    <linearGradient
       gradientTransform="matrix(1.0033404,0,0,1,-7.2374684,40)"
       gradientUnits="userSpaceOnUse"
       id="linearGradient2204"
       x1="71.999496"
       x2="71.999496"
       xlink:href="#XMLID_9_"
       y1="14.2578"
       y2="19.9583" />
    <linearGradient
       gradientTransform="matrix(1.0033808,0,0,0.7368421,-8.2378,45.263158)"
       gradientUnits="userSpaceOnUse"
       id="linearGradient2207"
       x1="122.74438"
       x2="122.74438"
       xlink:href="#linearGradient2937"
       y1="96"
       y2="20" />
    <linearGradient
       gradientTransform="translate(-6.999995,20)"
       gradientUnits="userSpaceOnUse"
       id="linearGradient2212"
       x1="72.000504"
       x2="72.000504"
       xlink:href="#XMLID_6_"
       y1="96"
       y2="0.00048828119" />
    <linearGradient
       gradientUnits="userSpaceOnUse"
       id="linearGradient10213"
       x1="98.617439"
       x2="91.228737"
       xlink:href="#linearGradient10207"
       y1="106.41443"
       y2="99.254974" />
    <radialGradient
       cx="102"
       cy="112.3047"
       fx="102"
       fy="112.3047"
       gradientTransform="matrix(1.295034,1.3831431e-7,-1.3627884e-7,1.2946006,-30.093452,-33.119615)"
       gradientUnits="userSpaceOnUse"
       id="radialGradient9437"
       r="139.55859"
       xlink:href="#XMLID_8_" />
    <clipPath
       clipPathUnits="userSpaceOnUse"
       id="clipPath7084">
      <path
         d="M 72,88 L 40,120 L 32,120 L 32,80 L 72,80 L 72,88 z"
         id="path7086"
         style="fill:#000000;fill-opacity:1;fill-rule:evenodd;stroke:none;stroke-width:1px;stroke-linecap:butt;stroke-linejoin:miter;stroke-opacity:1" />
    </clipPath>
    <radialGradient
       cx="102"
       cy="112.3047"
       gradientUnits="userSpaceOnUse"
       id="XMLID_8_"
       r="139.55859">
      <stop
         id="stop41"
         offset="0"
         style="stop-color:#b7b8b9;stop-opacity:1;" />
      <stop
         id="stop47"
         offset="0.18851049"
         style="stop-color:#ECECEC" />
      <stop
         id="stop49"
         offset="0.25718147"
         style="stop-color:#FAFAFA" />
      <stop
         id="stop51"
         offset="0.30111277"
         style="stop-color:#FFFFFF" />
      <stop
         id="stop53"
         offset="0.5313"
         style="stop-color:#FAFAFA" />
      <stop
         id="stop55"
         offset="0.8449"
         style="stop-color:#EBECEC" />
      <stop
         id="stop57"
         offset="1"
         style="stop-color:#E1E2E3" />
    </radialGradient>
    <linearGradient
       gradientUnits="userSpaceOnUse"
       id="XMLID_12_"
       x1="96"
       x2="88.000198"
       y1="104"
       y2="96.000198">
      <stop
         id="stop83"
         offset="0"
         style="stop-color:#888A85" />
      <stop
         id="stop85"
         offset="0.0072"
         style="stop-color:#8C8E89" />
      <stop
         id="stop87"
         offset="0.0673"
         style="stop-color:#ABACA9" />
      <stop
         id="stop89"
         offset="0.1347"
         style="stop-color:#C5C6C4" />
      <stop
         id="stop91"
         offset="0.2652576"
         style="stop-color:#DBDBDA" />
      <stop
         id="stop93"
         offset="0.37646064"
         style="stop-color:#EBEBEB" />
      <stop
         id="stop95"
         offset="0.48740286"
         style="stop-color:#F7F7F6" />
      <stop
         id="stop97"
         offset="0.6324091"
         style="stop-color:#FDFDFD" />
      <stop
         id="stop99"
         offset="1"
         style="stop-color:#FFFFFF" />
    </linearGradient>
    <linearGradient
       id="linearGradient10207">
      <stop
         id="stop10209"
         offset="0"
         style="stop-color:#a2a2a2;stop-opacity:1;" />
      <stop
         id="stop10211"
         offset="1"
         style="stop-color:#ffffff;stop-opacity:1;" />
    </linearGradient>
    <linearGradient
       gradientTransform="matrix(1.0172054,0,0,1.5,246.03226,514.75)"
       gradientUnits="userSpaceOnUse"
       id="linearGradient3385"
       x1="-168.99216"
       x2="-168.99216"
       xlink:href="#linearGradient2822"
       y1="-300.5"
       y2="-296.48441" />
    <linearGradient
       gradientTransform="matrix(1,0,0,0.7368421,242.00093,284.36842)"
       gradientUnits="userSpaceOnUse"
       id="linearGradient3387"
       x1="-178"
       x2="-178"
       xlink:href="#linearGradient2927"
       y1="-232.84966"
       y2="-304.61469" />
    <linearGradient
       xlink:href="#linearGradient9732"
       id="linearGradient3302"
       gradientUnits="userSpaceOnUse"
       gradientTransform="matrix(1.0017056,0,0,1.0011229,34.393692,27.039518)"
       x1="66.635262"
       y1="48.579208"
       x2="13.134155"
       y2="48.579208" />
    <linearGradient
       id="linearGradient9732">
      <stop
         id="stop9734"
         offset="0"
         style="stop-color:white;stop-opacity:1;" />
      <stop
         style="stop-color:white;stop-opacity:1;"
         offset="0.5"
         id="stop9740" />
      <stop
         id="stop9736"
         offset="1"
         style="stop-color:white;stop-opacity:0;" />
    </linearGradient>
    <linearGradient
       xlink:href="#linearGradient3317"
       id="linearGradient3299"
       gradientUnits="userSpaceOnUse"
       gradientTransform="matrix(1.464058,0,0,1.464058,34.761082,27.326693)"
       x1="49.087219"
       y1="28.30368"
       x2="-3.3878942"
       y2="29.14728" />
    <linearGradient
       id="linearGradient3317">
      <stop
         style="stop-color:#646464;stop-opacity:1;"
         offset="0"
         id="stop3319" />
      <stop
         id="stop3321"
         offset="0.086"
         style="stop-color:#7e7e7e;stop-opacity:1;" />
      <stop
         id="stop3323"
         offset="0.86000001"
         style="stop-color:#999;stop-opacity:0.58762884;" />
      <stop
         style="stop-color:white;stop-opacity:0;"
         offset="1"
         id="stop3325" />
    </linearGradient>
  </defs>
  <path
     d="M 118.983,31 C 118.992,29.35 117.64999,28 115.99999,28 L 40.961007,28 C 40.961007,28 32.061006,20 30.961,20 L 14.999998,20 C 12.799996,20 10.999999,21.8 10.999999,24 L 10.999999,31 C 10.999999,31 11.999999,116 8,116 L 122,116 C 117.99999,116 118.983,31 118.983,31 z "
     id="path15"
     style="fill:url(#linearGradient2212)" />
  <g
     id="g17"
     style="opacity:0.6;filter:url(#filter2807)"
     transform="matrix(1.0033404,0,0,1,-8.2374684,20)">
    <path
       d="M 132,96 C 132,98.2 128.4,100 124,100 L 20,100 C 15.6,100 12,98.2 12,96 C 12,93.8 15.6,92 20,92 L 124,92 C 128.4,92 132,93.8 132,96 z "
       id="path19" />
  </g>
  <path
     d="M 10.884862,54 C 10.893892,55.75 10.902922,57.755 10.910952,60 L 119.09511,60 C 119.10414,57.755 119.11317,55.75 119.1212,54 L 10.884862,54 z "
     id="path50"
     style="opacity:0.5;fill:url(#linearGradient2204)" />
  <path
     d="M 119.99722,31 C 120.00622,29.35 118.66422,28 117.01422,28 L 42.975222,28 L 36.389222,21.414 C 35.611222,20.636 34.075222,20 32.975222,20 L 12.014222,20 C 9.8142222,20 8.0142222,21.8 8.0142222,24 C 8.0142222,24 7.9822222,54.499299 8.0142222,60.031299 L 12.014222,60.031299 C 12.014222,53.222299 12.014222,24 12.014222,24 L 32.901222,23.997 C 33.083222,24.019 33.470222,24.179 33.560222,24.243 L 41.318222,32 C 41.318222,32 114.02722,32 115.99922,32 C 115.99922,32.435 116.00022,56.400299 116.00222,60.031299 L 120.01422,60.031299 C 120.04522,54.499299 119.99722,31 119.99722,31 z "
     id="path2896"
     style="fill:#5e95e3;fill-opacity:1" />
  <path
     d="M 124.36598,113.79242 C 124.27969,115.00674 122.85389,116 121.19831,116 L 6.812906,116 C 5.157329,116 3.731522,115.00674 3.644228,113.79242 L 0.007982,62.204632 C -0.112423,60.992526 1.143808,60 2.799384,60 L 125.21183,60 C 126.86741,60 128.11762,60.991789 127.9912,62.203895 L 124.36598,113.79242 z "
     id="path30"
     style="opacity:0.9;fill:url(#linearGradient2207);fill-opacity:1" />
  <path
     d="M 125.21293,60 L 2.7999261,60 C 1.1449261,60 -0.11207393,60.992526 0.0079260701,62.204632 L 3.6439261,113.79242 C 3.7309261,115.00674 5.1569261,116 6.8129261,116 L 121.19793,116 C 122.85393,116 124.27993,115.00674 124.36593,113.79242 L 127.99093,62.203895 C 128.11893,60.991789 126.86793,60 125.21293,60 z M 120.41393,113.05263 C 118.87493,113.05263 9.1349261,113.05263 7.5979261,113.05263 C 7.2299261,107.83726 4.5229261,70.627562 4.0659261,64.149246 C 6.5189261,64.149246 121.45793,64.149246 123.93493,64.149246 C 123.81393,65.85872 120.49293,111.92821 120.41393,113.05263 z "
     id="path2894"
     style="fill:url(#linearGradient3387)" />
  <path
     d="M 4,64 C 4.0273488,64.775875 4.1802721,68.801119 4.2225137,70 C 7.123925,70 122.78934,70 125.71499,70 C 125.74343,69.191222 125.93026,64.204735 125.9375,64 C 123.41788,64 6.4952049,64 4,64 z "
     id="path2908"
     style="fill:url(#linearGradient3385);fill-opacity:1;opacity:0.835" />
  <path
     style="fill:url(#linearGradient3302);fill-opacity:1"
     d="m 69.898474,103.45771 5.856232,5.85623 30.761814,-32.21825 -30.761814,-32.2003 -5.856232,5.85623 11.712465,17.5687 H 40.617313 v 17.56869 h 40.993626 z"
     id="polygon3477_2_" />
  <path
     style="fill:url(#linearGradient3299);fill-opacity:1;stroke:none"
     d="m 75.800458,39.03916 c -1.573495,-0.0241 -3.090514,0.58597 -4.209166,1.69281 l -5.856231,5.85624 C 63.749307,48.56552 63.442452,51.67243 65.003031,54 l 5.627473,8.46409 H 40.617313 v 29.281159 h 30.013191 l -5.627473,8.464081 c -1.56058,2.32757 -1.253725,5.43448 0.73203,7.4118 l 5.856231,5.85623 c 1.121886,1.12264 2.668011,1.76444 4.254918,1.73857 1.586907,-0.0259 3.078725,-0.71721 4.163416,-1.87583 L 110.75484,81.13083 c 2.16677,-2.26455 2.16677,-5.83354 0,-8.09808 L 80.009626,40.86923 c -1.095643,-1.15728 -2.615555,-1.81812 -4.209168,-1.83007 z m -0.04583,5.85623 30.745222,32.20928 -30.745222,32.20927 -5.856231,-5.85623 11.712464,-17.5687 H 40.617236 V 68.32032 h 40.993625 l -11.712459,-17.5687 5.856231,-5.85623 z"
     id="path3616" />
</svg>
