<svg xmlns="http://www.w3.org/2000/svg" xml:space="preserve" width="32" height="32" viewBox="164.072 372.466 32 32"><path fill="#1e2d41" d="m192.211 382.794-12.908-.631 15.769-.012v-1.271h-17.78v4.775c0 .04-.52-3.12-.639-4.003h-1.398v4.445c0 .042-.598-3.714-.661-4.184h-9.522c.649.562 4.23 3.615 6.776 4.871 1.276.63 2.842.635 4.235.674.708.02 1.45.074 1.98.598.769.763.94 1.946.277 2.841-.656.885-2.502 1.077-2.502 1.077l-1.538 1.887v2.191h3.497l.108-2.165 3.024-2.144c-.323.258-1.043.95-2.125 2.615a5.974 5.974 0 0 0-.584 1.19c.764-.647 2.333-1.09 4.146-1.09 1.81 0 3.378.442 4.143 1.088a5.963 5.963 0 0 0-.583-1.188c-1.082-1.666-1.802-2.357-2.125-2.615l3.024 2.144.109 2.165h3.262v-2.19l-1.537-1.888s-2.277-.145-2.873-1.076c-1.717-2.684.721-6.85 6.425-8.104z" style="stroke-width:.341115"/></svg>