<svg height="159.99788" width="160.00024" xmlns="http://www.w3.org/2000/svg" xmlns:xlink="http://www.w3.org/1999/xlink">
  <linearGradient id="a" gradientTransform="matrix(0 -126.08191 -126.08191 0 113.7417 390.27905)" gradientUnits="userSpaceOnUse" spreadMethod="pad" x1="0" x2="1" y1="0" y2="0">
    <stop offset="0" stop-color="#dfe3e5"/>
    <stop offset="1" stop-color="#bcc5ca"/>
  </linearGradient>
  <linearGradient id="b" gradientTransform="matrix(0 68.061096 68.061096 0 113.7417 266.44751)" gradientUnits="userSpaceOnUse" spreadMethod="pad" x1="113.341" x2="114.54707" y1="267.14597" y2="417.25464">
    <stop offset="0" stop-color="#fff"/>
    <stop offset="1" stop-color="#838383"/>
  </linearGradient>
  <metadata/>
  <g transform="matrix(1.25 0 0 -1.25 -62.177255 488.682504)">
    <path d="m71.121479 387.39443c-9.563 0-17.336-7.8193-17.336-17.42155v-85.75999c0-9.61029 7.773-17.42255 17.336-17.42255h85.327991c9.562 0 17.336 7.81226 17.336 17.42255v85.75999c0 9.60225-7.774 17.42155-17.336 17.42155z" fill="#fff"/>
    <path d="m0 0h-85.328c-11.735 0-21.336-9.6-21.336-21.334v-85.32c0-11.742 9.601-21.336 21.336-21.336h85.328c11.734 0 21.336 9.594 21.336 21.336v85.32c0 11.734-9.602 21.334-21.336 21.334m0-1c11.211 0 20.336-9.123 20.336-20.334v-85.32c0-11.219-9.125-20.336-20.336-20.336h-85.328c-11.215 0-20.336 9.117-20.336 20.336v85.32c0 11.211 9.121 20.334 20.336 20.334z" fill="#b3b1b3" transform="translate(156.4058 390.9377)"/>
    <path d="m71.078 390.946c-11.735 0-21.336-9.6-21.336-21.334v-85.329c0-11.742 9.601-21.335 21.336-21.335h85.328c11.734 0 21.336 9.593 21.336 21.335v85.329c0 11.734-9.602 21.334-21.336 21.334zm-17.336-106.663v85.329c0 9.554 7.773 17.334 17.336 17.334h85.328c9.562 0 17.336-7.78 17.336-17.334v-85.329c0-9.562-7.774-17.335-17.336-17.335h-85.328c-9.563 0-17.336 7.773-17.336 17.335" fill="url(#a)"/>
    <path d="m71.078 386.946c-9.563 0-17.336-7.78-17.336-17.334v-85.329c0-9.562 7.773-17.335 17.336-17.335h85.328c9.562 0 17.336 7.773 17.336 17.335v85.329c0 9.554-7.774 17.334-17.336 17.334zm-13.336-102.663v85.329c0 7.351 5.984 13.336 13.336 13.336h85.328c7.351 0 13.336-5.985 13.336-13.336v-85.329c0-7.351-5.985-13.335-13.336-13.335h-85.328c-7.352 0-13.336 5.984-13.336 13.335" fill="url(#b)" opacity=".699997"/>
    <g fill="#fff">
      <path d="m0 0c-2.18-.91-2.281-.98-4.141-2.281-.148-.223-.613-2.258 1.102-3.602 2.082-1.633 7.559-3.285 15.098-3.285 4.445 0 11.136.598 17.898 3.434l-.129.882c-3.148-.57-6.539-.843-10.34-.843-5.386 0-10.515.539-16.183 1.187-2.727.309-4.086.895-4.282 1.836-.148.692.414 1.289.852 1.641-.07.281.02.633.117 1 0 .008 0 .023.008.031m12.059-9.969c-6.692 0-12.957 1.391-15.59 3.457-1.414 1.106-1.586 2.551-1.567 3.317.016.601.18 1.343.5 1.57 2.02 1.414 2.067 1.437 4.754 2.539l.235.051c.152 0 .289-.067.382-.184.188-.242.106-.566-.007-1.011-.047-.176-.133-.504-.118-.606-.007.07-.105.168-.214.168l.308-.73c-.422-.243-1.008-.766-.937-1.11.039-.191.422-.844 3.593-1.211 5.641-.64 10.743-1.179 16.09-1.179 3.918 0 7.383.296 10.598.906l.469-.336.242-1.594-.242-.426c-6.985-2.992-13.914-3.621-18.496-3.621" transform="translate(99.772903 299.7866)"/>
      <path d="m0 0s-3.941-2.289 2.809-3.063c8.175-.933 17.8-1.976 26.808-.269l.238-1.598c-13.5-5.785-29.367-3.609-33.687-.215-2.016 1.586-1.367 4.043-1.078 4.243 2 1.398 2 1.398 4.672 2.5.597.242-.563-1.821.238-1.598" transform="translate(100.3159 298.73581)"/>
      <path d="m0 0c-.293-.156-.641-.32-1.016-.492-2.539-1.18-4.589-2.36-3.949-4.93.457-1.84 6.442-3.797 16.621-3.797 7.43 0 15.282 1.086 22.149 3.059l-.121.84c-4.723-.883-9.606-1.313-14.914-1.313-6.184 0-11.832.586-16.372 1.055-2.457.25-3.785.871-4.062 1.89-.336 1.211 1.023 2.399 1.434 2.723.132.371.214.742.23.965m11.656-10.016c-8.113 0-16.64 1.36-17.398 4.399-.852 3.422 2.304 4.883 4.39 5.851.383.18.739.344 1.032.5.414.227.781.164.976-.117.336-.484-.011-1.539-.179-1.969l-.133-.179c-.383-.285-1.43-1.25-1.239-1.946.102-.367.676-1.031 3.372-1.304 4.523-.469 10.152-1.051 16.293-1.051 5.41 0 10.371.449 15.171 1.371l.473-.332.234-1.598-.281-.441c-7.023-2.055-15.09-3.184-22.711-3.184" transform="translate(97.741699 311.24749)"/>
      <path d="m0 0s-4.426-3.273 2.332-3.969c8.734-.906 19.641-1.969 31.578.328l.238-1.593c-18.253-5.344-38.582-3.18-39.605.925-.922 3.7 3.383 4.899 5.219 5.903.851.469.484-.953.238-1.594" transform="translate(97.847199 310.0366)"/>
      <path d="m0 0c-.09 0-.25-.031-.512-.18-.707-.402-1.515-.84-2.394-1.312-6.344-3.43-16.961-9.168-18.367-16.887-.633-3.465.656-7.07 3.828-10.726 2.808-3.231.652-6.844-.633-9l-.242-.407c-.328-.562-.446-.922-.481-1.148 1.52.879 6.508 4.047 7.524 8.23.461 1.907.035 3.801-1.27 5.637l-.687.957c-2.258 3.137-4.207 5.84-3.532 9.004.86 4.023 5.973 8.508 17.082 14.969.004.289-.043.656-.175.804-.032.036-.067.059-.141.059m-18.871-40.613-.324.183-.11-.136c-.234.187-.679.804.293 2.461l.246.41c1.25 2.097 3.145 5.269.719 8.066-3.34 3.844-4.691 7.68-4.016 11.391 1.477 8.101 12.305 13.953 18.774 17.449.875.473 1.68.91 2.383 1.305.699.402 1.273.371 1.644-.043.469-.524.375-1.508.364-1.618l-.196-.304c-10.879-6.309-16.086-10.797-16.89-14.555-.602-2.812 1.164-5.262 3.398-8.363l.688-.961c1.445-2.035 1.914-4.152 1.398-6.293-1.281-5.281-8.082-8.844-8.371-8.992" transform="translate(136.40581 358.5717)"/>
      <path d="m0 0c2.793-3.211.277-6.891-.918-8.938-.937-1.597-.391-1.945-.391-1.945s12.641 6.524 6.832 14.696c-5.421 7.617-9.574 11.402 12.926 24.457 0 0 .242 2.207-1.414 1.269-8.164-4.609-30.164-14.406-17.035-29.539" transform="translate(118.6597 329.2006)"/>
      <path d="m0 0c-4.941-.07-14.234-4.152-14.438-6.926-.078-1.09 1.547-1.957 4.571-2.449 10.109-1.641 20.023-2.469 29.476-2.469 20.106 0 34.25 3.938 36.305 7.746.219.403.289.793.203 1.168-.676-.711-2.32-1.84-6.316-3.054-6.61-2-21.028-3.454-34.289-3.454-10.922 0-19.16.969-23.196 2.719-.918.403-1.355.91-1.293 1.508.204 2.047 6.704 3.531 6.766 3.547 1.633.351 2.777.41 3.336.414.055.328 0 .617-.16.836-.192.266-.535.414-.965.414m19.609-12.648c-9.492 0-19.453.835-29.601 2.484-3.594.582-5.36 1.691-5.242 3.297.257 3.508 10.101 7.594 15.195 7.664.734 0 1.305-.262 1.652-.738.356-.497.43-1.004.207-1.696l-.41-.129h-.238c-.512 0-1.61-.195-3.211-.539-2.414-.519-6.055-2.011-6.145-2.914-.019-.199.286-.496.821-.726 3.933-1.715 12.058-2.676 22.875-2.676 13.191 0 27.511 1.432 34.058 3.412 5.657 1.719 6.231 3.202 6.235 3.218l.718.105c.54-.817.571-1.717.094-2.592-2.137-3.961-15.836-8.17-37.008-8.17" transform="translate(90.905807 292.3256)"/>
      <path d="m0 0s-.367-1.629-6.5-3.492c-11.664-3.531-46.965-5.203-57.211-.75-3.68 1.605 3.227 3.828 5.398 4.297 2.266.484 3.563.398 3.563.398.375 1.141-.242 2.07-1.469 2.055-7.062-.102-22.769-8.078-9.898-10.172 41.191-6.676 70.078 1.621 66.117 7.664" transform="translate(147.09331 290.21631)"/>
      <path d="m0 0h-.133c-2.879 0-10.93-1.609-16.5-4.305-.695-.336-.59-.871-.383-1.672.055-.214.094-.351.102-.484.086-1.477 7.898-3.043 20.367-3.043 9.969 0 19.508 1.014 26.188 2.764 1.078.742 2.308 1.913 3.187 2.8-2.656-.911-8.211-2.61-13.82-3.083-5.403-.453-11.055-.701-15.918-.701-3.746 0-6.848.153-8.981.434-3.007.406-4.371 1-4.418 1.938-.105 2.059 7.961 4.188 10.801 4.872.059.234.094.355-.019.523-.075.105-.231-.043-.473-.043m3.453-10.281c-2.14 0-20.953.109-21.164 3.82-.004.102-.043.231-.082.383-.168.664-.527 2.047.813 2.695 5.73 2.774 13.761 4.352 16.789 4.578.777.075 1.152-.25 1.324-.504.43-.628.086-1.55.043-1.656l-.278-.238c-5.066-1.203-10.457-3.141-10.406-4.11 0-.023.074-.695 3.727-1.179 2.093-.281 5.164-.43 8.871-.43 4.84 0 10.473.25 15.848.699 7.609.641 15.132 3.586 15.207 3.614l.441-.637c-.102-.113-2.551-2.82-4.547-4.184l-.125-.054c-6.75-1.778-16.394-2.797-26.461-2.797" transform="translate(101.40581 322.55999)"/>
      <path d="m0 0s-18.754-4.457-6.641-6.074c5.114-.684 15.313-.528 24.809.269 7.762.653 15.316 3.645 15.316 3.645s-2.496-2.774-4.476-4.125c-16.664-4.383-46.906-3.141-47.125.664-.031.547-.821 2.055.508 2.695 5.699 2.758 13.75 4.321 16.64 4.539 1.657.125.969-1.613.969-1.613" transform="translate(102.2104 321.7436)"/>
      <path d="m0 0-.367.68c.09.086.242.258.281.359l.359-.141c11.25 3.071 13.993 7.801 14.618 10.368.609 2.5-.219 5.004-2.282 6.867-2.695 2.445-6.703 3.133-10.48 1.812-.098-.039-.152-.078-.16-.101-.024-.125.164-.418.375-.656.328.109.984.304 2.019.523 3.262.687 6.711-.977 7.68-3.695.699-1.965.949-7.25-11.809-13.883l-.367.711c12.199 6.34 12.051 11.136 11.422 12.906-.91 2.551-4.211 3.711-6.762 3.18-1.461-.309-2.136-.575-2.144-.578l-.422.078c-.152.14-.914.886-.773 1.578.046.219.203.523.675.687 4.051 1.43 8.371.672 11.285-1.968 2.282-2.071 3.204-4.856 2.52-7.649-.676-2.777-3.613-7.91-15.668-11.078" transform="translate(135.56979 302.0444)"/>
      <path d="m0 0c19.359 10.059 10.645 18.129 4.391 16.828-1.524-.32-2.211-.594-2.211-.594s-1.321 1.211-.239 1.594c12.364 4.344 23.762-13.133-2.097-19.937 0 0 .297.269.39.511" transform="translate(135.6245 304.5366)"/>
      <path d="m0 0c1.715-10.453-5.746-16.297-12.973-21.953-3.843-3.008-7.468-5.848-9.785-9.324-4.574-6.864 2.379-14.461 10.973-22.301-.016.066-.031.137-.043.203-.145.656-.27 1.227-.836 2.043-.41.598-.84 1.199-1.277 1.809-4.758 6.636-10.149 14.16 2.75 24.351 8.101 6.399 12.39 12.633 12.746 18.531.183 3.008-.754 5.282-1.555 6.641m-11.215-55.172c-9.359 8.438-17.332 16.649-12.207 24.336 2.387 3.586 6.234 6.602 9.957 9.512 7.438 5.824 15.133 11.847 12.305 22.965l.672.379c.125-.129 3.164-3.231 2.843-8.684-.359-6.145-4.75-12.582-13.046-19.133-12.305-9.719-7.375-16.601-2.602-23.262.438-.613.875-1.218 1.289-1.82.652-.945.801-1.613.957-2.324.098-.453.203-.922.465-1.512z" transform="translate(124.9565 376.80999)"/>
      <path d="m0 0s10.723-10.723-10.168-27.219c-13.789-10.89-6.187-18.664-1.391-25.621 1.032-1.496.711-2.246 1.383-3.769-9.781 8.82-16.961 16.586-12.14 23.82 7.066 10.609 26.648 15.758 22.316 32.789" transform="translate(124.18311 378.5444)"/>
      <path d="m0 0c.625-.367 3.828-1.914 14.234-2.582 3.352-.215 6.875-.324 10.481-.324 16.652 0 36.281 2.457 36.89 9.375-.05.344-.144.57-.199.609-.125-.172-.265-.297-.429-.437-1.68-1.469-5.606-4.914-14.254-6.539-4.864-.915-10.977-1.379-18.168-1.379-10.891 0-21.703 1.078-28.192 2.09-.164-.008-.203-.024-.222-.051-.125-.145-.153-.504-.141-.762m24.719-4.094h-.004c-3.621 0-7.164.305-10.527.52-12.211.781-14.719 2.859-14.821 2.945l-.14.295c-.016.105-.141 1.075.304 1.595.235.261.551.391.957.328 6.457-1.007 17.223-2.072 28.067-2.072 7.14 0 13.203.464 18.019 1.367 8.434 1.59 12.246 4.927 13.871 6.357.172.148.321.278.45.383.187.156.378.923.574.923.492 0 .828-.641.937-.641h-.031l.031-.968c-.578-7.485-19.847-11.032-37.687-11.032" transform="translate(89.905807 281.85381)"/>
      <path d="m0 0c18.582-1.188 47.117.664 47.797 9.457 0 0-.149 1.434-.859.844-1.422-1.184-5.118-5.063-14.5-6.828-13.547-2.547-34.622-1.094-46.223.715-1.043.16-.805-1.434-.805-1.434s2.371-1.969 14.59-2.754" transform="translate(104.1167 278.87331)"/>
    </g>
    <path d="m0 0s-3.941-2.289 2.809-3.063c8.175-.937 12.359-.804 21.371.899 0 0 2.367-1.484 5.675-2.766-20.207-8.664-45.722.496-29.855 4.93" fill="#5382a1" transform="translate(100.07761 300.3334)"/>
    <path d="m0 0s-4.422-3.273 2.336-3.969c8.734-.902 15.633-.976 27.57 1.321 0 0 1.649-1.672 4.242-2.586-24.421-7.145-51.628-.563-34.148 5.234" fill="#5382a1" transform="translate(97.608902 311.63031)"/>
    <path d="m0 0c4.98-5.73-1.309-10.887-1.309-10.887s12.641 6.524 6.832 14.696c-5.421 7.617-9.574 11.406 12.93 24.461 0 0-35.328-8.829-18.453-28.27" fill="#f8981d" transform="translate(118.4214 330.79831)"/>
    <g fill="#5382a1">
      <path d="m0 0s2.922-2.406-3.215-4.27c-11.66-3.531-48.535-4.597-58.777-.14-3.68 1.605 3.226 3.824 5.398 4.293 2.262.488 3.559.398 3.559.398-4.098 2.883-26.473-5.664-11.367-8.113 41.191-6.676 75.086 3.008 64.402 7.832" transform="translate(145.14011 291.9819)"/>
      <path d="m0 0s-18.758-4.457-6.645-6.078c5.114-.68 15.313-.524 24.809.273 7.766.649 15.555 2.047 15.555 2.047s-2.735-1.176-4.711-2.527c-19.051-5.012-55.84-2.676-45.25 2.441 8.961 4.336 16.242 3.844 16.242 3.844" transform="translate(101.9761 323.34131)"/>
      <path d="m0 0c19.359 10.059 10.406 19.727 4.156 18.422-1.527-.32-2.215-.594-2.215-.594s.571.895 1.653 1.274c12.367 4.347 21.871-12.813-3.985-19.614 0 0 .297.27.391.512" transform="translate(135.6245 304.5366)"/>
    </g>
    <path d="m0 0s10.723-10.723-10.168-27.223c-16.75-13.226-3.824-20.769-.004-29.39-9.781 8.824-16.961 16.59-12.144 23.82 7.066 10.613 26.648 15.758 22.316 32.793" fill="#f8981d" transform="translate(123.94479 380.142)"/>
    <path d="m0 0c18.582-1.188 47.121.664 47.801 9.453 0 0-1.301-3.336-15.36-5.98-15.863-2.985-35.429-2.637-47.031-.723 0 0 2.375-1.969 14.59-2.75" fill="#5382a1" transform="translate(103.8784 277.2709)"/>
  </g>
</svg>
