<svg xmlns="http://www.w3.org/2000/svg" xmlns:svg="http://www.w3.org/2000/svg" id="svg2" width="128" height="128" version="1.1" viewBox="0 0 128 128" xml:space="preserve"><metadata id="metadata8"/><g id="g10" transform="matrix(1.3333333,0,0,-1.3333333,0,128.00004)"><g id="g12" transform="scale(0.1)"><g id="g888" transform="matrix(0.0334181,0,0,0.0334181,77.111273,13.149509)"><g id="g14" transform="scale(1.69573)" style="fill:#06c;fill-opacity:1"><path d="M 7103.55,14358.7 1603.03,16300 V 4328.22 l 5500.52,1779.59 v 8250.89" style="fill:#06c;fill-opacity:1;fill-rule:nonzero;stroke:none" id="path16"/></g><g id="g18" transform="scale(1.69635)"><path d="M 6968.96,14359.4 12678,16300 V 4332.6 L 6968.96,6111.53 v 8247.87" style="fill:#fff;fill-opacity:1;fill-rule:nonzero;stroke:none" id="path20"/></g><g id="g22" transform="scale(1.49453)"><path d="M 200.466,2533.04 7910.06,5102.75 V 16300 L 200.466,13730.3 V 2533.04" style="fill:#fff;fill-opacity:1;fill-rule:nonzero;stroke:none" id="path24"/></g><g id="g26" transform="scale(1.20038)" style="fill:#039;fill-opacity:1"><path d="M 14222.2,2943.15 15582.6,705.027 16300,2784.12 14222.2,2943.15" style="fill:#039;fill-opacity:1;fill-rule:nonzero;stroke:none" id="path28"/></g><g id="g30" transform="scale(1.16442)" style="fill:#039;fill-opacity:1"><path d="m 3621.88,15967.1 c -52.56,51.6 68.45,-421.7 236.85,-592 298.61,-301.3 531.85,-340.1 656.04,-345.1 274.81,-11 613.95,68.5 815.34,152.9 194.86,83.1 536.31,257.4 665.56,511.7 27.4,54.4 102.2,145.7 55.22,371.2 -35.64,173.5 -146.08,234.2 -280.74,224.6 -134.66,-9.1 -542.33,-117.8 -739.51,-178.5 -197.26,-59.8 -603.56,-183.5 -780.64,-221.9 -176.65,-38.3 -566.12,17.8 -628.12,77.1" style="fill:#039;fill-opacity:1;fill-rule:nonzero;stroke:none" id="path32"/></g><g id="g34" transform="scale(1.0917)" style="fill:#039;fill-opacity:1"><path d="m 9188.43,10995.1 c -83.18,30.2 -1803.98,743 -2047.91,859.8 -199.6,96 -689.02,302.9 -919.3,396.9 648.62,1000.1 1058.07,1754.8 1112.58,1869.8 100.85,210.3 787.39,1553.7 803.42,1636.4 15.57,83.8 35.08,393.4 19.97,467 -15.11,75 -266.83,-69.2 -608.59,-185.1 -342.31,-115.4 -992.86,-538.5 -1244.12,-591.5 -252.17,-52.6 -1058.07,-357.9 -1470.46,-494.7 -412.38,-136.9 -1192.45,-375 -1513.33,-461.6 -321.33,-86.7 -601.81,-93.5 -781.53,-148 0,0 23.91,-251.8 71.63,-327.2 47.18,-75.5 217.19,-260.5 414.86,-312.2 197.67,-52 524.87,-31.2 673.9,2.9 148.95,34.6 406.98,160.7 441.61,215.7 34.99,56 -18.05,228.4 40.85,280.5 59.45,51.6 844.83,235.2 1141.34,324.7 296.51,91.2 1431.53,482.1 1585.42,462.2 C 6860.04,14829 5947.06,13020.6 5653.02,12481.1 5358.89,11941.7 3650.37,9568.39 3286.62,9150.14 3010.54,8832.19 2341.49,8018.6 2109.74,7835.03 c 58.44,-16.12 472.75,19.42 548.23,66.14 470.36,289.73 1253.82,1265 1506.09,1562.06 749.84,879.37 1408.63,1803.07 1931.02,2595.77 h 0.56 c 101.76,-42.4 924.61,-712.8 1139.32,-861.4 214.71,-148.5 1062.01,-621.2 1245.58,-699.7 183.57,-79.4 889.07,-404.6 918.75,-294.5 29.68,111 -127.6,760.1 -210.86,791.7" style="fill:#039;fill-opacity:1;fill-rule:nonzero;stroke:none" id="path36"/></g><g id="g38" transform="scale(1.12147)" style="fill:#039;fill-opacity:1"><path d="m 5073.69,1979.54 c 160.5,-98.08 312.09,-178.34 481.51,-258.59 338.84,-169.42 722.26,-347.76 1087.85,-481.51 499.35,-187.25 998.69,-338.838 1498.03,-454.757 276.43,-62.418 579.6,-115.919 873.85,-160.504 26.76,0 820.35,-98.085 980.86,-98.085 h 802.51 c 312.1,26.751 606.4,44.584 918.4,89.169 249.7,35.667 526.1,80.251 793.6,142.669 196.2,44.584 401.3,89.169 597.5,151.587 187.2,53.501 401.2,124.831 606.3,196.171 133.8,44.58 276.4,107 419.1,160.5 115.9,53.5 258.6,115.92 392.3,169.42 160.6,71.34 347.8,169.42 526.1,258.59 142.7,71.34 303.2,160.5 454.8,249.67 115.9,62.42 383.4,267.51 526.1,267.51 160.5,0 267.5,-142.67 267.5,-267.51 0,-258.59 -347.8,-338.84 -508.3,-454.76 -169.4,-115.92 -374.5,-205.08 -552.8,-303.17 -356.7,-187.253 -722.3,-347.756 -1070,-481.509 -454.8,-169.42 -954.1,-329.923 -1400,-436.926 -169.4,-35.667 -338.8,-80.251 -508.2,-107.002 C 12171.5,142.67 11244.1,0 10985.6,0 H 9808.53 c -312.09,26.7505 -642.01,62.4179 -954.1,107.002 -276.42,44.584 -570.68,98.086 -847.1,160.503 -214,44.585 -445.84,107.003 -650.93,169.421 -356.67,98.085 -704.43,222.921 -1043.27,356.674 -615.26,231.84 -1257.28,535.01 -1863.62,936.27 -107,71.33 -115.92,142.67 -115.92,222.92 0,133.75 98.08,258.59 258.59,258.59 142.67,0 428.01,-205.09 481.51,-231.84" style="fill:#039;fill-opacity:1;fill-rule:evenodd;stroke:none" id="path40"/></g><g id="g42" transform="scale(1.51227)" style="fill:#039;fill-opacity:1"><path d="M 8014.44,16134.7 V 5025.56 c -6.61,-33.07 -19.84,-66.13 -46.29,-99.19 -13.22,-19.84 -39.67,-46.29 -59.51,-52.9 C 7743.33,4807.34 297.566,2307.79 198.377,2307.79 c -79.351,0 -152.089,52.9 -191.76442,138.86 0,6.62 -6.61258,13.23 -6.61258,26.45 v 11115.7 c 13.2252,33.1 19.8377,79.4 46.288,105.8 52.9006,72.8 145.477,86 204.99,105.8 112.414,39.7 7445.762,2499.6 7551.562,2499.6 66.13,0 211.6,-46.3 211.6,-165.3 z M 7611.07,5190.87 403.367,2790.51 V 13423.5 L 7611.07,15823.9 V 5190.87" style="fill:#039;fill-opacity:1;fill-rule:evenodd;stroke:none" id="path44"/></g><g id="g46" transform="scale(1.71411)" style="fill:#039;fill-opacity:1"><path d="M 12723.8,16113.3 V 4311.27 c -5.8,-134.18 -99.2,-192.52 -186.7,-192.52 -75.8,0 -624.2,186.69 -717.6,215.86 -735,227.52 -1475.9,455.05 -2205.18,682.57 -163.35,52.51 -332.54,105.01 -490.05,157.52 -140.02,40.83 -291.7,87.5 -431.71,134.18 -624.23,192.52 -1260.13,385.04 -1884.36,595.06 -23.34,5.83 -81.68,87.51 -81.68,105.01 v 8243.35 c 11.67,29.2 23.34,64.2 52.51,87.5 46.67,52.5 2047.71,717.6 2835.29,980.1 210.02,75.8 2841.08,980.1 2922.78,980.1 105,0 186.7,-75.8 186.7,-186.7 z M 12367.9,4532.96 7076.56,6178.13 V 14083.1 L 12367.9,15880 V 4532.96" style="fill:#039;fill-opacity:1;fill-rule:evenodd;stroke:none" id="path48"/></g><g id="g50" transform="scale(1.48515)" style="fill:#06c;fill-opacity:1"><path d="M 16235.4,2378.81 8076.61,4979.28 8110.74,16300 16235.4,13714.1 V 2378.81" style="fill:#06c;fill-opacity:1;fill-rule:nonzero;stroke:none" id="path52"/></g><g id="g54" transform="scale(1.33098)"><path d="m 12990.3,14581.8 1172.9,-355.3 2136.8,-7701.24 -1204.8,365.52 -432.8,1581.01 -2489.7,754.63 -535.4,-1287.92 -1205.1,365.6 z m 536.2,-2038.8 -893.6,-2159.8 1642.8,-497.94 -749.2,2657.74" style="fill:#fff;fill-opacity:1;fill-rule:evenodd;stroke:none" id="path56"/></g></g></g></g></svg>