<?xml version="1.0" encoding="UTF-8" standalone="no"?>
<svg
   width="512"
   height="512"
   xmlns="http://www.w3.org/2000/svg"
   xmlns:svg="http://www.w3.org/2000/svg">
  <circle
     fill="yellow"
     cx="256"
     cy="256"
     r="256" />
  <path
     fill="black"
     stroke-width="2.64731"
     d="m 342.24837,373.64366 c -15.43477,-5.19615 -32.58805,-14.3443 -41.44947,-22.10604 -9.39854,-8.23237 -30.03204,-33.36935 -33.99948,-41.42062 l -4.05465,-8.22771 -10.52604,14.26724 C 205.0947,380.03047 123.09434,390.72968 66.000084,340.45448 38.280369,316.04532 23.175253,272.83787 29.385002,235.71905 c 3.214212,-19.213 15.790729,-47.1054 27.894359,-61.86468 9.795111,-11.94427 33.875283,-26.26122 56.174899,-33.39887 14.27927,-4.57053 19.26272,-5.03525 39.3502,-3.66966 36.4988,2.48207 60.08838,13.56988 88.05324,41.39019 l 13.48358,13.41393 8.35933,-10.06954 c 7.48851,-9.02046 22.92048,-20.87774 41.75764,-32.08483 8.23478,-4.89918 34.55142,-13.02935 48.00417,-14.83015 41.59923,-5.56828 99.37584,28.05426 117.99325,68.66565 16.70075,36.43044 17.90847,70.1483 3.89189,108.65666 -11.93268,32.78346 -50.95329,59.41279 -93.02897,63.48718 -9.113,0.88223 -18.16786,2.00988 -20.12192,2.5069 -1.95406,0.49704 -10.48076,-1.42895 -18.9483,-4.27943 z m 16.6757,-6.52882 c 2.39218,-4.41175 2.19643,-4.623 -2.15331,-2.32671 -6.39328,3.37732 -8.5574,7.17803 -4.08713,7.17803 1.98493,0 4.79326,-2.18381 6.24042,-4.85255 z m 12.73337,1.0096 c 0.82142,-2.11239 0.88435,-4.44252 0.13849,-5.17749 -1.75235,-1.7303 -8.859,2.69328 -10.06482,6.26351 -1.45116,4.29681 8.24487,3.23566 9.92504,-1.08727 z m 10.78752,1.59362 c 1.91632,-1.196 2.76164,-2.88901 1.87855,-3.75975 -2.16747,-2.14034 -8.91561,0.5809 -8.91561,3.59509 0,2.96976 2.45229,3.02569 7.03706,0.15532 z m -34.45103,-3.9862 c 2.32388,-5.97742 -2.14417,-8.67472 -6.78342,-4.09551 -3.25688,3.21484 -3.43569,4.38099 -0.91361,5.95937 4.55678,2.85171 5.99956,2.50069 7.69703,-1.86386 z m 47.21884,0.3914 c 0.80064,-2.05955 0.0316,-3.50683 -1.86186,-3.50683 -1.77376,0 -3.83856,1.57804 -4.58839,3.50683 -0.80066,2.0596 -0.0315,3.50688 1.86184,3.50688 1.77378,0 3.83857,-1.57806 4.58841,-3.50688 z m 10.98618,-1.16802 c 0,-1.28604 -1.12889,-2.33914 -2.5083,-2.33914 -1.37973,0 -1.84958,1.0531 -1.04454,2.33914 0.80505,1.28608 1.93394,2.33916 2.5083,2.33916 0.57436,0 1.04454,-1.05308 1.04454,-2.33916 z m -69.36235,-5.54841 c -1.10875,-3.33784 -13.53657,-4.9327 -13.53657,-1.73648 0,3.35556 7.38171,7.0339 11.20761,5.58475 1.76214,-0.66788 2.81013,-2.39816 2.32892,-3.84796 z m 79.64672,-0.18635 c 0.8787,-2.26151 0.1794,-2.95736 -2.10136,-2.09375 -1.88011,0.71136 -2.82898,2.23661 -2.1083,3.38789 1.81529,2.89828 2.68296,2.63113 4.20963,-1.2954 z m 11.03249,-2.31742 c 0,-0.56847 -1.06594,-1.68058 -2.36856,-2.47584 -1.30261,-0.79524 -2.36855,-0.32928 -2.36855,1.03134 0,1.36063 1.06594,2.47585 2.36855,2.47585 1.30262,0 2.36856,-0.46285 2.36856,-1.03135 z m -107.11188,-4.22912 c 1.69004,-2.04092 1.44677,-3.80787 -0.80534,-5.85502 -2.6172,-2.3795 -3.67475,-2.10615 -5.60052,1.44451 -3.59402,6.62852 1.6035,10.2059 6.40586,4.40897 z m 44.54283,-2.97905 c -1.36714,-5.37662 -1.09113,-5.64907 3.10374,-3.06296 3.65833,2.25529 5.38482,2.19935 8.40361,-0.27959 3.27842,-2.68395 3.58028,-2.54726 2.20178,0.99718 -1.40302,3.60842 -0.958,3.77152 3.64999,1.33576 4.13045,-2.18073 6.05919,-2.11548 9.05977,0.31377 3.34515,2.7057 3.63959,2.42301 2.40351,-2.3081 -1.16099,-4.44593 -0.82172,-4.91313 1.92985,-2.6591 2.62316,2.14965 3.66557,1.89181 4.86525,-1.19288 2.44408,-6.2868 -1.94936,-8.16837 -11.45272,-4.90474 -8.10906,2.78646 -9.09098,2.63426 -12.54453,-1.93533 -2.06074,-2.72433 -3.26682,-3.90413 -2.68012,-2.61872 0.58663,1.28607 -1.57927,2.49444 -4.81325,2.68708 -5.81024,0.34479 -5.82155,0.31063 -0.95705,-3.05362 2.70752,-1.8732 4.88901,-4.65906 4.8476,-6.19333 -0.041,-1.547 -1.47696,-0.9661 -3.22181,1.30161 -1.73066,2.24907 -4.09479,4.11729 -5.25388,4.14865 -1.15911,0.0311 -3.98709,3.78489 -6.28445,8.34016 -2.29742,4.55557 -3.31227,7.7552 -2.25558,7.11032 1.05682,-0.64614 3.46942,-0.18639 5.36128,1.01269 2.99358,1.90116 2.9788,2.48206 -0.11333,4.48601 -3.00051,1.94463 -2.86864,2.30809 0.84882,2.33916 3.52837,0.0287 4.104,-1.13387 2.90105,-5.86559 z m 45.56804,2.89519 c 1.90279,-2.2615 1.45557,-3.00703 -1.8093,-3.00703 -2.56055,0 -3.85816,1.23013 -3.1682,3.00703 0.64264,1.65263 1.45681,3.00702 1.80931,3.00702 0.35248,0 1.77814,-1.35128 3.16819,-3.00702 z m -271.76723,-1.67126 c 1.19623,0 2.17472,-1.46314 2.17472,-3.25339 0,-4.06785 -11.68403,-7.19013 -14.92715,-3.98895 -3.23576,3.19401 2.71316,10.22107 7.21046,8.51753 1.85178,-0.70205 4.34572,-1.27675 5.54186,-1.27675 z m 17.82254,-4.6811 c 0.1857,-5.18714 -0.81509,-7.00812 -3.85493,-7.00812 -6.48618,0 -10.66385,6.22902 -7.05569,10.52025 5.08446,6.04732 10.63088,4.26172 10.91062,-3.51213 z m 13.63132,3.51213 c 0.74997,-1.92909 2.42929,-3.50685 3.73187,-3.50685 1.30262,0 1.82222,1.40721 1.15407,3.12384 -1.05053,2.7026 4.00042,3.45901 10.83724,1.62465 0.65146,-0.18636 -4.13784,-2.92314 -10.64264,-6.10382 -10.97548,-5.36916 -12.0383,-5.50024 -14.76323,-1.82349 -2.1596,2.91694 -2.24364,4.78766 -0.31787,7.07803 3.4814,4.14057 8.3119,3.95075 10.00054,-0.39141 z m 265.60426,1.16803 c 0.80506,-1.28605 0.33517,-2.33913 -1.04455,-2.33913 -1.37941,0 -2.50829,1.05308 -2.50829,2.33913 0,1.28608 0.46987,2.33914 1.04454,2.33914 0.57435,0 1.70325,-1.05306 2.5083,-2.33914 z m -84.09176,-8.18266 c 0.25492,3.7246 7.11812,-6.34489 7.07794,-10.38265 -0.0315,-3.20646 -0.3116,-3.22325 -2.33238,-0.12426 -1.69569,2.59077 -2.30562,2.69951 -2.33237,0.41627 -0.0273,-2.31739 -0.96525,-2.1714 -3.75827,0.58401 -2.04691,2.01919 -6.04399,3.74513 -8.88201,3.83211 l -5.16,0.1553 5.36836,2.55351 c 3.88415,1.8483 5.00282,3.9048 4.04615,7.43989 -1.0798,3.9893 -0.66783,3.81347 2.2455,-0.95986 1.96227,-3.21485 3.63933,-4.79293 3.72695,-3.50687 z m 71.06479,7.15163 c 0,-0.56537 -1.06596,-1.6806 -2.36856,-2.47583 -1.30262,-0.79523 -2.36858,-0.32929 -2.36858,1.03134 0,1.36063 1.06596,2.47582 2.36858,2.47582 1.3026,0 2.36856,-0.46284 2.36856,-1.03133 z m -299.95735,-4.78982 c 1.59213,-4.09551 -7.98282,-7.26344 -14.46108,-4.78481 -3.87092,1.48177 -3.84078,1.81414 0.44752,4.92802 5.95677,4.32727 12.30091,4.26234 14.01368,-0.15533 z m 80.87211,-6.47349 c -4.30937,-2.37953 -8.29465,-0.37277 -8.29465,4.17632 0,2.11235 1.41403,2.75849 3.94138,1.80172 2.88344,-1.09349 3.47204,-0.60265 2.19295,1.82658 -0.96178,1.82657 -0.0598,1.26431 2.00348,-1.24879 3.33774,-4.0651 3.35504,-4.78888 0.15738,-6.55553 z m 9.2621,8.54269 c 2.0532,-0.7766 3.14307,-2.35466 2.42237,-3.50684 -1.9868,-3.17355 -5.09935,-2.51 -6.62447,1.41341 -1.52356,3.91878 -1.13238,4.11356 4.202,2.09374 z m -20.42834,-5.91682 c 0.86515,-4.43382 -6.36707,-7.86427 -9.68166,-4.59255 -3.42266,3.37824 0.0913,10.0459 4.82115,9.14688 2.26879,-0.43178 4.45592,-2.48203 4.86051,-4.55433 z m 115.37728,3.20368 c 4.23947,-3.0754 3.89426,-7.9702 -0.50323,-7.13424 -2.29869,0.438 -4.53648,2.62493 -4.97262,4.85877 -0.82929,4.25022 1.44769,5.19613 5.4757,2.27392 z m 104.03523,-0.69585 c 2.31129,1.8918 3.73337,2.10306 3.73337,0.54984 0,-1.37926 -1.77785,-3.49007 -3.95037,-4.69011 -3.25519,-1.79862 -2.60019,-2.47581 3.72218,-3.84544 4.21992,-0.91331 8.30686,-1.03756 9.08217,-0.27958 0.77545,0.76417 -1.07729,1.39167 -4.11692,1.39167 -7.6729,0 -4.7478,2.15588 4.34266,3.20058 4.12501,0.47527 7.50003,-0.0621 7.50003,-1.16804 0,-1.11829 -1.06595,-2.03159 -2.36854,-2.03159 -1.30264,0 -0.23605,-2.10308 2.36854,-4.67582 2.60555,-2.57216 4.75341,-5.99077 4.77338,-7.59804 0.0269,-2.16519 0.56143,-2.10305 2.06011,0.21744 2.96748,4.62179 10.93049,2.30188 10.93049,-3.1844 0,-3.32792 -1.84549,-4.85349 -6.51349,-5.38345 -3.87339,-0.44113 -6.51348,0.38831 -6.51348,2.04092 0,1.9198 -0.91456,2.05336 -2.96054,0.42559 -5.19546,-4.13249 -13.60072,0.83564 -13.76929,8.13606 -0.14475,6.22623 -0.24233,6.27967 -2.29207,1.2457 -1.17831,-2.89211 -2.77233,-5.26014 -3.54246,-5.26014 -0.77011,0 -0.74181,1.05309 0.063,2.33914 0.80504,1.28607 0.34712,2.33915 -1.01748,2.33915 -5.54049,0 -11.25996,7.49211 -10.13882,13.28127 0.78301,4.04302 1.71144,4.92835 3.00365,2.86413 1.51288,-2.4168 2.58321,-2.40128 5.60359,0.0621 z m -297.0713,-11.8262 c 0,-2.60942 -1.68154,-4.40588 -4.14494,-4.427 -3.5768,-0.0311 -3.65795,-0.37588 -0.59227,-2.51622 3.15801,-2.20554 3.15801,-2.3671 0,-1.46311 -2.26093,0.64923 -3.37945,3.47517 -3.07607,7.77603 0.42771,6.06189 0.15736,6.33681 -2.62977,2.66842 -5.157908,-6.79315 -12.51692,-4.02344 -9.554702,3.596 2.073052,5.33191 19.997412,0.27958 19.997412,-5.63381 z m 31.45399,6.33059 c 3.86839,-2.89829 3.6244,-3.2428 -2.96053,-4.19678 -3.94704,-0.57158 -7.17644,-0.78281 -7.17644,-0.46597 0,2.27701 3.1638,7.95495 4.39832,7.89472 0.83777,-0.0311 3.42009,-1.49422 5.73879,-3.23134 z m 33.18848,0.21747 c 0.7207,-1.85457 -1.53864,-4.1033 -5.66794,-5.64192 -5.48632,-2.04403 -6.86662,-1.91667 -6.86662,0.6306 0,1.75203 1.86532,4.26017 4.14495,5.57077 5.54377,3.18723 6.97045,3.09091 8.38961,-0.55915 z m 42.74657,-2.19937 c -0.87554,-1.39789 -0.40504,-1.76445 1.09334,-0.84806 1.44644,0.88224 5.32497,-0.70824 8.61892,-3.53575 5.89057,-5.05539 5.91174,-5.19304 1.28875,-8.38924 -2.58508,-1.78622 -4.70014,-5.37103 -4.70014,-7.96427 0,-5.63323 -6.51175,-5.19397 -10.26725,0.69272 -3.62678,5.6851 2.08032,12.03681 8.00367,8.90773 2.73806,-1.44762 4.86019,-1.47246 5.73898,-0.0621 1.84553,2.948 -6.92996,7.47624 -11.28807,5.8255 -1.88042,-0.71137 -4.05577,0.3448 -4.83432,2.34536 -0.77861,2.00364 -0.32037,3.64138 1.01842,3.64138 1.33881,0 1.78289,1.04064 0.98697,2.31117 -0.82867,1.32335 0.11957,1.71786 2.21527,0.92263 2.01419,-0.7642 2.97063,-2.49136 2.12561,-3.84143 z m -92.18724,1.52525 c 6.23244,-2.36086 4.2099,-5.59468 -3.49889,-5.59468 -4.87354,0 -6.69213,-0.88225 -5.55538,-2.6995 1.04863,-1.67436 0.64958,-2.06579 -1.05085,-1.02821 -1.95722,1.19285 -2.03811,2.96973 -0.28323,6.2057 2.61907,4.83053 4.42681,5.3726 10.38779,3.11484 z m 30.81833,-0.65234 c 0.71348,-1.14006 -0.8831,-2.63426 -3.54841,-3.32296 -3.97428,-1.02512 -4.34331,-0.65234 -2.05197,2.07201 3.27085,3.88987 3.86471,4.0225 5.6003,1.25188 z m 141.09455,-3.91069 c 0,-3.85786 -3.7433,-4.50962 -5.92133,-1.03133 -1.93175,3.08469 0.90041,7.46257 3.71651,5.74472 1.21259,-0.73934 2.2049,-2.86104 2.2049,-4.714 z m 139.7439,3.7827 c 0,-3.91939 -4.2007,-4.88982 -5.59883,-1.29228 -0.82486,2.1217 0.007,3.4935 2.12027,3.4935 1.91317,0 3.47846,-0.99094 3.47846,-2.19934 z M 212.9451,331.05471 c 2.13379,-3.21456 3.58878,-5.98052 3.23305,-6.14609 -0.35564,-0.15532 -3.54718,-0.4784 -7.09214,-0.69273 -6.76248,-0.41004 -9.73782,3.2605 -7.43808,9.17612 2.04093,5.24987 6.93222,4.23747 11.29717,-2.33915 z m 122.19763,-1.18977 c 0,-2.43235 1.86533,-5.49403 4.14495,-6.80466 2.27982,-1.31092 3.37132,-2.4137 2.42584,-2.45407 -0.9454,-0.0311 -5.14906,1.98809 -9.34115,4.50432 -6.26351,3.75974 -6.90938,4.84512 -3.62369,6.08956 2.19893,0.83252 3.30689,2.61874 2.46171,3.96848 -0.89724,1.43204 -0.39906,1.76134 1.19783,0.78592 1.50403,-0.9164 2.73457,-3.65784 2.73457,-6.08955 z m -137.37536,1.46311 c 0,-1.77998 -2.13159,-3.78425 -4.73706,-4.45679 -4.58889,-1.18354 -6.60485,2.73056 -3.15807,6.13241 2.78556,2.74922 7.89513,1.66507 7.89513,-1.67436 z m 151.38683,-2.02536 c 1.10876,-2.89211 1.46154,-5.78638 0.78365,-6.42912 -0.67791,-0.64301 -1.68845,0.0933 -2.24552,1.62157 -0.55705,1.53458 -2.27632,2.49759 -3.82067,2.13725 -1.5443,-0.36037 -2.00819,-0.21746 -1.03132,0.32618 3.35165,1.85142 1.77783,5.7674 -1.77659,4.42107 -1.95408,-0.73933 -3.5528,-0.32618 -3.5528,0.91952 0,4.6463 9.66728,2.15897 11.64294,-2.99462 z m 37.00956,2.76781 c 2.5492,-4.07129 -0.35405,-4.93365 -3.60269,-1.06861 -1.86817,2.22112 -2.04788,3.5634 -0.47743,3.5634 1.38536,0 3.2213,-1.12141 4.07999,-2.49447 z m 15.29811,-2.18072 c 0,-1.28604 -1.12859,-2.33913 -2.50832,-2.33913 -1.3794,0 -1.84958,1.05309 -1.04454,2.33913 0.80504,1.28609 1.93395,2.33915 2.5083,2.33915 0.57437,0 1.04456,-1.05306 1.04456,-2.33915 z M 97.477557,328.47325 c 2.810773,-0.74554 5.606563,-3.22666 6.213223,-5.51641 0.83211,-3.14091 0.0136,-3.8821 -3.33383,-3.01634 -2.440325,0.6306 -4.43683,-0.0295 -4.43683,-1.46625 0,-4.267 -4.375338,-2.96975 -7.131812,2.11238 -4.145704,7.64619 -1.04202,10.4628 8.689249,7.88601 z m 197.224973,-1.88249 c 1.69505,-2.01608 1.89113,-3.83708 0.50387,-4.68326 -3.70941,-2.2615 -9.60744,1.09035 -8.21571,4.66865 1.63465,4.20456 4.18488,4.20923 7.71194,0.014 z m -154.96438,-3.16702 c 5.62341,-4.07781 1.49208,-12.13096 -6.26006,-12.2021 -5.80357,-0.0621 -7.56649,7.03455 -2.66315,10.70727 4.88028,3.65536 5.74427,3.8001 8.92314,1.4942 z m 192.56233,-1.01579 c 3.51391,-3.46835 3.67092,-6.54592 0.3339,-6.54592 -1.3797,0 -1.84957,1.0531 -1.04451,2.33915 0.80502,1.28609 0.38802,2.33917 -0.92686,2.33917 -1.3149,0 -3.24854,-1.51285 -4.29709,-3.36273 -1.50373,-2.65289 -2.48251,-2.15895 -4.63195,2.33916 -2.45385,5.13245 -2.20459,5.70061 2.49948,5.70061 2.87368,0 6.50379,-1.26121 8.06703,-2.8051 z M 86.445953,320.53788 c 0,-1.28608 2.316649,-4.62458 5.148313,-7.41942 3.754375,-3.7057 4.075,-4.6752 1.184298,-3.5802 -2.746232,1.04067 -3.989811,0.27958 -4.04798,-2.51618 -0.06301,-3.06609 -0.822035,-2.70262 -3.200227,1.53146 l -3.116341,5.54841 -1.380341,-5.21012 c -0.775779,-2.92626 -2.745912,-4.76157 -4.497532,-4.18595 -4.118937,1.35443 -4.557898,11.15741 -0.499464,11.15741 1.831349,0 2.583205,1.47246 1.791699,3.50688 -0.94605,2.43232 0.163652,3.50684 3.62715,3.50684 2.744636,0 4.990503,-1.05308 4.990503,-2.33913 z m 73.505077,-1.07174 c -1.32433,-1.57497 -1.70638,-3.55563 -0.84909,-4.40181 0.85729,-0.84496 -1.81656,-1.5377 -5.94191,-1.5377 -5.62638,0 -7.50039,1.04376 -7.50039,4.1822 0,3.18535 1.99029,4.23468 8.34965,4.40214 6.33475,0.15531 7.76862,-0.47219 5.9419,-2.64359 z m 152.85583,1.33578 c -0.71406,-1.14007 0.44063,-1.92911 2.56591,-1.75203 2.12562,0.18637 4.33455,-0.99408 4.90896,-2.60321 0.66123,-1.85143 -1.20127,-2.92316 -5.07428,-2.92316 -4.53971,0 -6.11874,1.2053 -6.11874,4.67581 0,2.57213 1.12888,4.6758 2.5083,4.6758 1.37972,0 1.92388,-0.93193 1.20978,-2.07508 z m 144.3157,-0.24854 c -0.80502,-1.28604 0.46423,-2.35466 2.82084,-2.37329 3.63286,-0.0306 3.74421,-0.37899 0.73201,-2.30189 -3.01214,-1.92287 -2.90103,-2.27079 0.73205,-2.30186 2.3566,-0.0187 3.62599,-1.08727 2.82083,-2.37332 -1.87951,-3.00082 -9.94261,-3.03502 -11.81244,-0.0621 -1.42318,2.27393 2.55233,11.738 4.92993,11.738 0.6823,0 0.58191,-1.05307 -0.22346,-2.33915 z m -333.41612,-4.53912 c 2.44786,-3.86875 2.16557,-4.76 -1.91254,-6.03765 -6.49165,-2.03473 -12.69039,3.03188 -9.03324,7.38025 3.747,4.4565 7.5737,3.98712 10.94568,-1.34197 z m 52.74408,-1.30471 c 0,-3.69602 -1.33661,-5.84444 -3.63617,-5.84444 -3.03323,0 -3.16521,0.8729 -0.79653,5.26012 2.58791,4.79356 2.48531,4.97185 -1.15502,2.00677 -3.48708,-2.83928 -3.80519,-2.76473 -2.50295,0.58399 2.34181,6.0234 8.09069,4.59723 8.09069,-2.00674 z m 37.66239,0.58403 3.27383,-5.26016 -5.66475,4.65099 c -3.11569,2.55659 -6.10881,4.92494 -6.6516,5.26013 -0.54289,0.33547 0.53313,0.60884 2.39092,0.60884 1.85777,0 4.85101,-2.36709 6.6516,-5.26011 z m 73.659,-1.10589 c 0,-2.21802 -1.36302,-2.96976 -3.74651,-2.0658 -2.06046,0.77973 -4.19229,1.41966 -4.7371,1.41966 -0.54478,0 -0.99041,1.47864 -0.99041,3.28817 0,2.13721 1.65825,2.86102 4.7371,2.06576 2.60521,-0.67408 4.73705,-2.78958 4.73705,-4.70717 z m 97.65437,0.12426 c 15.82551,-6.09299 22.76308,-11.92376 29.6869,-24.94998 5.51446,-10.3749 6.41948,-14.88576 6.44804,-32.14046 0.0304,-18.25622 -0.57341,-20.93585 -6.67234,-29.62298 -11.93107,-16.99345 -36.2321,-28.30399 -61.32243,-28.541 -15.24369,-0.15535 -32.95045,9.43393 -45.45717,24.58835 -10.87998,13.18342 -11.15076,13.89325 -9.70066,25.42216 2.64613,21.03834 11.96244,42.19351 23.67027,53.74977 14.32164,14.13617 42.97972,19.33634 63.34739,11.49414 z m -193.97443,-6.79876 c -0.71315,-1.83593 -2.3626,-3.33571 -3.66545,-3.33571 -1.30264,0 -1.77596,1.52528 -1.05149,3.38757 0.93754,2.41063 0.17939,2.95735 -2.62977,1.89182 -3.49465,-1.32333 -3.54867,-1.06861 -0.47144,2.22111 4.03936,4.32076 9.90291,1.19598 7.81811,-4.16697 z m 51.3178,3.65813 c 0,-4.07842 -0.61025,-4.31951 -4.64259,-1.83279 -3.34937,2.06577 -3.84421,3.36271 -1.77628,4.65967 4.66645,2.92626 6.419,2.15586 6.419,-2.82688 z M 108.9228,303.5562 c -1.99343,-1.09966 -5.79039,-1.32333 -8.43806,-0.49392 -3.82412,1.19909 -4.246164,2.18382 -2.052299,4.79261 1.518845,1.80795 3.706689,2.70883 4.861789,2.00364 1.15503,-0.70514 2.13411,0.0933 2.17533,1.78 0.0472,1.8794 1.42757,1.2954 3.5763,-1.50974 3.09808,-4.04394 3.0839,-4.80035 -0.12275,-6.57197 z m 325.66236,8.21933 c -0.0189,-0.96299 -0.93787,-3.1574 -2.04001,-4.87337 -1.52352,-2.37333 -2.31318,-1.95086 -3.29477,1.75203 -0.85666,3.23316 -0.16996,4.87337 2.03999,4.87337 1.83198,0 3.31475,-0.78904 3.29479,-1.75203 z m 15.76007,-5.01068 c 1.54841,-3.07849 2.26062,-7.02242 1.5824,-8.76699 -1.66013,-4.27074 -10.01119,-4.04116 -11.70729,0.31996 -0.74681,1.92288 -2.11928,3.02878 -3.04991,2.4603 -0.93062,-0.56847 -1.22236,2.1248 -0.64862,5.98362 0.8255,5.5512 2.08311,6.86741 6.0256,6.30576 2.74026,-0.3914 6.24938,-3.22789 7.79782,-6.30515 z m -166.46539,0.27957 c 1.11599,-0.60577 0.61904,-1.96014 -1.10496,-3.01322 -3.17275,-1.93535 -9.21435,1.37304 -9.21435,5.04699 0,1.79244 5.1272,0.78284 10.31913,-2.0347 z m 22.29761,-0.0621 c 0.51549,-1.52527 -0.57248,-2.77715 -2.41797,-2.77715 -1.8455,0 -3.35545,1.60603 -3.35545,3.57175 0,4.0415 4.34187,3.44321 5.77332,-0.79522 z m 11.93459,0.15531 c -0.43903,-2.24905 -2.36792,-4.09117 -4.28616,-4.09117 -1.91852,0 -3.84719,1.84212 -4.28622,4.09117 -0.56017,2.87035 0.71883,4.09117 4.28622,4.09117 3.56735,0 4.84624,-1.22082 4.28616,-4.09117 z m -141.19998,-6.90346 c 6.56937,-3.52922 15.24229,-11.1546 20.49365,-18.0186 8.67817,-11.34314 28.78417,-46.48379 28.78417,-50.30812 0,-3.57395 -14.20788,-16.38645 -27.4262,-24.73283 -18.97241,-11.97941 -40.25018,-16.88355 -56.27842,-12.97128 -16.61867,4.05668 -29.66277,11.82154 -38.87842,23.14326 -9.851038,12.10267 -12.423785,18.97101 -12.423785,33.16711 0,10.58455 5.678947,32.28023 9.160755,34.99774 0.82364,0.64303 2.65371,3.23257 4.0665,5.75439 5.87308,10.48297 31.53232,18.49355 51.77291,16.16248 5.13668,-0.59022 14.46465,-3.82899 20.72884,-7.19421 z m 50.526,6.42038 c -0.77012,-1.23014 -2.96463,-1.64328 -4.87687,-0.91951 -4.89602,1.85457 -4.31908,3.15459 1.39987,3.15459 2.68234,0 4.24693,-1.00647 3.47697,-2.23662 z m 240.02632,-7.34081 c -1.78004,-1.1028 -5.23489,-1.39169 -7.67774,-0.63994 -2.89478,0.89155 -3.87717,0.46598 -2.82082,-1.22084 0.89128,-1.42273 4.22236,-2.58764 7.40222,-2.58764 6.30191,0 6.46117,-0.21746 4.34391,-5.65341 -0.79059,-2.03472 -3.72183,-3.71409 -6.51351,-3.73396 -3.85901,-0.0272 -4.28331,-0.53117 -1.76996,-2.10306 1.81812,-1.13695 2.65431,-3.74201 1.85776,-5.79038 -0.9942,-2.55661 0.72795,-4.83517 5.49471,-7.26816 7.59829,-3.87838 7.47533,-10.52055 -0.19511,-10.52055 -3.77969,0 -4.0857,-0.88224 -2.09823,-6.04077 2.76605,-7.18116 1.28342,-10.32426 -4.86908,-10.32426 -7.62032,0 -9.51569,7.1271 -4.56631,17.17053 l 4.40782,8.94498 -5.73057,-3.70628 c -7.45993,-4.82462 -7.80637,-4.72584 -6.53043,1.86075 0.8422,4.34931 2.19641,5.29367 6.18504,4.31389 5.00116,-1.22702 4.99358,-1.16179 -0.3676,3.21921 -5.56517,4.54814 -5.21606,14.30175 0.39307,10.98407 1.51253,-0.89466 1.33002,0.0932 -0.41259,2.20245 -2.3802,2.89832 -2.49508,4.96783 -0.48277,8.6794 1.45335,2.68085 1.88546,6.08273 0.9602,7.56046 -1.08169,1.72717 -0.40945,2.20555 1.88169,1.33576 1.96007,-0.74245 5.05078,-0.44423 6.86797,0.66478 2.17816,1.32955 4.01473,0.76109 5.38996,-1.66505 1.38507,-2.44166 0.9986,-4.35304 -1.15028,-5.6851 z m -395.675313,1.95087 c 0.523688,-2.68398 -0.702765,-4.06445 -3.610185,-4.06445 -2.847255,0 -4.403213,1.67747 -4.403213,4.75067 0,5.82892 6.856779,5.24179 8.013398,-0.68652 z m 168.657033,1.72718 c 2.53067,-3.01012 2.33207,-3.3096 -1.28276,-1.94154 -2.94262,1.11524 -3.74226,0.7673 -2.5637,-1.1152 1.75171,-2.7989 -1.37375,-3.86129 -3.93035,-1.33885 -1.78634,1.76445 0.51614,7.95401 2.95835,7.95401 1.00392,0 3.17222,-1.60291 4.81866,-3.5606 z M 78.281126,299.73837 c -0.736439,-1.17733 1.25e-4,-2.60939 1.636524,-3.1869 1.636532,-0.5778 2.247082,-1.82347 1.356751,-2.77093 -0.89034,-0.94746 -2.755666,-1.03135 -4.144951,-0.18638 -3.269047,1.9943 -3.282541,8.27864 -0.01782,8.27864 1.379401,0 1.90593,-0.96299 1.169489,-2.13722 z m 19.661193,-0.95678 c 3.887531,-4.62362 -1.379734,-9.09844 -7.132481,-6.05941 -3.576762,1.88871 -3.837191,2.92937 -1.4134,5.64625 3.749263,4.20239 5.297036,4.27726 8.546025,0.41316 z m 179.779911,-5.26604 c -2.3311,-2.30185 -6.53009,1.23016 -6.53009,5.49313 0,3.56866 0.31157,3.56214 4.00395,-0.0933 2.20208,-2.17452 3.33893,-4.60872 2.52623,-5.41082 z m 20.21013,3.68517 c 1.42221,-5.36823 8.78788,-6.4095 8.78788,-1.24257 0,2.09062 -1.38855,2.90762 -3.55281,2.08753 -1.95407,-0.73933 -3.5528,-0.18639 -3.5528,1.24256 0,3.1257 8.63974,3.47393 10.54876,0.42559 1.57767,-2.51933 -3.35345,-14.20264 -5.9945,-14.20264 -0.98506,0 -2.33142,1.31403 -2.99234,2.92316 -0.92496,2.24906 -1.73253,2.17141 -3.51111,-0.34172 -1.49805,-2.11549 -3.8508,-2.61871 -6.69386,-1.43205 -3.9257,1.64018 -3.76749,1.99122 1.51348,3.36303 4.00236,1.04066 4.95375,2.10615 2.96054,3.32296 -3.35567,2.04714 -3.9975,8.52935 -0.84437,8.52935 1.15091,0 2.64959,-2.10307 3.33108,-4.67581 z m -90.69082,0 c -1.9541,-1.24568 -5.15159,-2.26457 -7.10565,-2.26457 -3.15802,0 -3.15802,0.24849 0,2.26457 1.9541,1.24568 5.15158,2.2646 7.10565,2.2646 3.15806,0 3.15806,-0.24852 0,-2.2646 z m 79.74088,-1.06549 c 0,-1.8732 -0.88813,-2.86104 -1.97389,-2.19938 -1.08548,0.66168 -1.97394,2.19316 -1.97394,3.40406 0,1.20837 0.88815,2.19932 1.97394,2.19932 1.08544,0 1.97389,-1.53145 1.97389,-3.404 z M 73.588183,291.52371 c 3.97875,-3.92749 4.44233,-8.3498 0.875217,-8.3498 -1.3794,0 -1.965404,0.8667 -1.301978,1.92599 0.663426,1.05928 -1.105595,1.84832 -3.931228,1.75513 -3.086745,-0.0933 -5.472722,1.46002 -5.977278,3.91818 -1.032582,5.03147 5.516469,5.50769 10.335231,0.75175 z m 19.96341,-6.01191 c 0,-3.84358 -8.492777,-7.04696 -11.310098,-4.26637 -4.244282,4.18965 1.690669,11.52147 7.039039,8.69616 2.349036,-1.24257 4.271059,-3.23442 4.271059,-4.42979 z m 179.466807,2.77406 c 0.57689,-1.70854 -0.50606,-2.23043 -2.81262,-1.35751 -2.06298,0.78283 -3.75071,2.44787 -3.75071,3.70319 0,3.07226 5.38317,1.14937 6.56333,-2.34537 z m 175.81428,0.7238 c 0,-5.09268 -3.54383,-5.92242 -6.3501,-1.48798 -2.07651,3.28196 -1.71805,4.11046 1.8946,4.37914 2.45072,0.18639 4.45562,-1.11831 4.45562,-2.89207 z M 62.760579,284.2031 c 0,-1.85144 -1.499003,-3.36894 -3.331063,-3.36894 -2.158651,0 -2.897612,1.6371 -2.099167,4.6497 1.347934,5.08775 5.430319,4.12506 5.430319,-1.27982 z M 474.88818,272.92578 c -2.91459,-2.93248 -9.47574,0.0621 -9.47574,4.32821 0,1.96948 1.86533,5.44495 4.14498,7.72353 3.9607,3.95946 4.2169,3.82931 5.76368,-2.92315 0.89036,-3.88615 0.69555,-7.99443 -0.43304,-9.12952 z m -208.43311,10.24628 c 0,-1.28606 -1.06595,-2.33914 -2.36858,-2.33914 -1.30261,0 -2.36856,1.05308 -2.36856,2.33914 0,1.28606 1.06595,2.33915 2.36856,2.33915 1.30263,0 2.36858,-1.05309 2.36858,-2.33915 z M 69.887324,278.53013 c 1.560998,2.49134 3.248074,2.50379 9.234285,0.0621 8.454159,-3.45654 10.282199,-11.77868 2.587293,-11.77868 -3.502998,0 -4.737102,1.55943 -4.737102,5.9827 0,3.39316 -1.025349,5.35703 -2.368563,4.53756 -1.30262,-0.79525 -2.368563,-3.48666 -2.368563,-5.98268 0,-5.51393 -7.545982,-6.14112 -11.879575,-0.98785 -2.448186,2.91074 -2.180678,4.43071 1.486408,8.44081 4.066371,4.44656 4.547291,4.5177 5.303868,0.78593 0.633216,-3.12383 1.288138,-3.37547 2.741825,-1.05308 z m 216.700316,1.94151 c 1.30261,-0.12425 5.29963,0.54672 8.88202,1.49109 6.67883,1.75823 7.80933,0.2485 5.07583,-6.78259 -0.79059,-2.03473 -3.18887,-3.71408 -5.32925,-3.73362 -2.84754,-0.0265 -3.09335,-0.53742 -0.91647,-1.90116 3.01658,-1.88873 2.49761,-14.58969 -1.21762,-29.81185 -1.86723,-7.65023 -12.87084,-22.02339 -16.86027,-22.02339 -5.4132,0 -5.17317,5.78324 0.78365,18.88527 3.46827,7.62846 6.73181,16.05222 7.25226,18.72001 0.52054,2.66844 1.55123,6.73164 2.29083,9.03134 0.91173,2.83617 -0.64517,5.46765 -4.83779,8.17925 -5.52101,3.57054 -6.60409,3.62148 -10.12684,0.4753 -2.16967,-1.93842 -8.88317,-5.61242 -14.91907,-8.16591 -12.87291,-5.44621 -19.89358,-13.58445 -15.85883,-18.38295 1.45115,-1.72718 1.97895,-3.78925 1.17265,-4.58511 -0.80632,-0.79525 -2.13571,0.27959 -2.95426,2.37953 -0.8186,2.10616 -2.54861,3.18129 -3.84486,2.39195 -1.37629,-0.83873 -1.28972,0.3821 0.20769,2.93559 4.71378,8.03761 8.51181,11.8088 15.67182,15.56138 3.90809,2.04714 10.30314,6.80466 14.21124,10.56935 5.00265,4.819 8.85812,6.57073 13.02698,5.9187 3.25672,-0.50946 6.9872,-1.02825 8.28987,-1.15249 z m 4.7371,-4.31423 c -1.85275,-2.95732 1.28278,-2.95732 5.92133,0 3.06191,1.95395 2.99927,2.27081 -0.45223,2.30187 -2.20272,0.0198 -4.6639,-1.0158 -5.46901,-2.30187 z m -7.18848,-33.31498 c -2.63857,-7.62755 -3.06817,-15.7807 -0.83178,-15.7807 3.01184,0 6.83585,8.41471 6.83585,15.04263 0,7.4023 -3.548,7.83877 -6.00418,0.73932 z m 3.63565,-6.29114 c 0,-1.20843 -0.88811,-2.74299 -1.9739,-3.40407 -1.08546,-0.66166 -1.9739,0.32619 -1.9739,2.19938 0,1.87318 0.88812,3.40402 1.9739,3.40402 1.08548,0 1.9739,-0.99095 1.9739,-2.19933 z m -26.05395,39.60612 c 0,-1.28606 -0.44563,-2.33913 -0.99041,-2.33913 -0.54477,0 -2.90798,-0.72692 -5.25165,-1.61537 -3.80601,-1.44138 -3.88991,-1.20217 -0.78586,2.24907 3.95692,4.39842 7.02806,5.14239 7.02802,1.70232 z m 217.90572,-15.33429 c 0,-6.42786 -0.92936,-10.09157 -2.34148,-9.23016 -1.34261,0.82009 -1.73977,-0.12426 -0.93095,-2.19937 2.03655,-5.23868 -3.20892,-4.47233 -6.11855,0.89466 -3.30126,6.08862 -3.19462,6.43032 2.4636,7.89067 2.97127,0.76727 4.73713,2.95422 4.46431,5.53288 -0.57971,5.47725 -0.20141,7.77105 1.27838,7.77105 0.65148,0 1.18429,-4.79633 1.18429,-10.6585 z M 69.44773,260.63673 c -1.305451,-6.54682 -8.007173,-9.21741 -12.356566,-4.92433 -4.217752,4.16292 -5.132798,7.51323 -1.436374,5.25825 1.302618,-0.79525 2.368563,-0.33237 2.368563,1.03135 0,1.36061 2.742759,2.47582 6.095036,2.47582 4.385028,0 5.880148,-1.07792 5.329207,-3.84078 z m 10.883178,2.423 c 5.558138,-2.10615 4.770614,-10.2705 -0.99042,-10.2705 -3.473845,0 -4.737091,1.55944 -4.737091,5.84477 0,6.36385 0.201415,6.51917 5.727636,4.42573 z m -9.533863,-16.30629 c 2.185077,-5.62017 1.767142,-7.3663 -2.115217,-8.83688 -4.400312,-1.66817 -11.064271,0.64303 -9.421914,3.26673 0.664995,1.0624 0.110148,2.60319 -1.236526,3.42361 -3.812053,2.32671 -0.315031,5.84444 5.80773,5.84444 3.040487,0 6.175105,-1.66504 6.965837,-3.6979 z m 10.911857,-5.6944 c -2.505159,-1.55944 -4.425818,-1.0562 -6.513337,1.69921 -4.101773,5.41702 1.558167,8.9074 6.513337,4.0163 3.158029,-3.11698 3.158029,-3.75227 0,-5.71647 z m 185.672968,1.02821 c 1.71081,-4.40025 -6.51759,-4.43783 -10.2098,-0.0311 -2.11805,2.51933 -2.04818,3.52332 0.30212,4.33131 4.23667,1.45692 8.37067,-0.33238 9.90768,-4.2847 z m 209.30833,-4.75532 c -0.54825,-6.54063 -5.26451,-7.34829 -8.7195,-1.49419 -2.11712,3.58793 -2.42301,3.62302 -2.48627,0.27957 -0.0819,-4.3953 5.53698,-9.7511 7.84364,-7.47441 0.8573,0.84495 1.55849,0.31065 1.55849,-1.18975 0,-1.50043 -0.79936,-2.80822 -1.77627,-2.90762 -0.9769,-0.0932 -3.64144,-0.53122 -5.92098,-0.96302 -2.27949,-0.43181 -5.17814,0.96612 -6.44143,3.10023 -2.1086,3.56589 -2.30279,3.54909 -2.36888,-0.21744 -0.0881,-5.00322 -5.53879,-5.35052 -9.527,-0.60886 -2.39502,2.8486 -1.90813,4.54689 2.67067,9.31123 3.08014,3.20491 7.99824,5.84537 10.9293,5.86744 2.93097,0.0233 5.32921,0.99405 5.32921,2.15899 0,1.16488 2.10987,1.57493 4.68876,0.90706 3.21814,-0.82941 4.54184,-2.96045 4.22045,-6.79473 z m -24.30472,3.76718 c -0.80505,-1.28606 -2.5297,-2.33916 -3.83237,-2.33916 -1.30263,0 -1.70987,1.0531 -0.90482,2.33916 0.80504,1.28605 2.52969,2.33914 3.83234,2.33914 1.30263,0 1.70987,-1.05309 0.90485,-2.33914 z m -195.40457,-1.03135 c 0,-0.56537 -1.06597,-1.68058 -2.36859,-2.47582 -1.3026,-0.79525 -2.36855,-0.32928 -2.36855,1.03133 0,1.36061 1.06595,2.47584 2.36855,2.47584 1.30262,0 2.36859,-0.46287 2.36859,-1.03135 z M 74.603264,235.25404 c 0,-1.92911 -1.598761,-3.50687 -3.55281,-3.50687 -1.954076,0 -3.286344,-0.94748 -2.960545,-2.10305 0.325729,-1.15872 -0.473653,-2.26461 -1.776584,-2.4603 -4.876295,-0.73623 -3.53302,6.20511 1.680593,8.68374 2.983835,1.41964 5.691414,2.64978 6.017089,2.73677 0.325728,0.0933 0.592293,-1.41964 0.592293,-3.34844 z m 11.842689,-3.50687 c 0,-2.57213 -1.421248,-4.67581 -3.158022,-4.67581 -4.454956,0 -6.201694,2.24907 -4.715259,6.0734 1.933316,4.97279 7.873281,3.91846 7.873281,-1.39789 z m 173.807227,-1.28916 c 0.85791,-2.2056 0.43052,-3.03189 -1.09019,-2.10307 -1.37531,0.83872 -3.08643,-0.68342 -3.8019,-3.3854 -1.48957,-5.62233 -3.80657,-6.21814 -7.42874,-1.91046 -3.37766,4.01726 0.42897,9.76229 5.25685,7.93383 2.08562,-0.78901 3.79183,-0.41627 3.79183,0.82943 0,3.42021 1.68562,2.71815 3.27228,-1.36371 z m 9.91834,1.02821 c 0.89507,-1.42895 0.2329,-3.44969 -1.47004,-4.4888 -1.70355,-1.04065 -3.3589,-3.6482 -3.67849,-5.79752 -0.80002,-5.38128 -1.71334,-5.91154 -5.74226,-3.3354 -2.92843,1.87319 -2.62443,2.88589 1.90657,6.35796 4.25657,3.26112 4.7799,4.73327 2.48688,6.99662 -2.29301,2.26149 -2.08593,2.86725 0.98287,2.86725 2.13756,0 4.61915,-1.16802 5.51426,-2.60011 z m 172.79069,-8.65048 c -0.67949,-0.67101 -1.23528,0.0622 -1.23528,1.6464 0,1.57497 -1.06594,2.2149 -2.36854,1.41966 -2.77992,-1.69613 -2.94263,-0.68965 -0.78492,4.85969 1.38445,3.56091 1.83764,3.39535 3.60367,-1.31712 1.11095,-2.96356 1.46439,-5.93889 0.78491,-6.60957 z m -367.531511,0.65547 c -0.733929,-1.88874 -2.856386,-3.43201 -4.716981,-3.43201 -2.664411,0 -2.836872,1.0065 -0.811983,4.74135 2.850712,5.25765 7.641,4.12318 5.529018,-1.31092 z m 16.083533,-8.67535 c -2.428355,-2.36401 -3.68201,-2.05025 -6.411799,1.59981 -4.365096,5.83761 0.754383,9.90113 5.979101,4.74572 2.794681,-2.75853 2.877141,-3.96478 0.432733,-6.34461 z m 197.053278,2.3205 c -1.06563,-6.9811 -0.88718,-7.23925 2.19418,-3.17881 3.05874,4.03058 3.48823,4.07408 4.87972,0.4939 1.06026,-2.72743 -0.0881,-4.52359 -3.76399,-5.88854 -2.90926,-1.08105 -5.62511,-1.09967 -6.03498,-0.0311 -0.40977,1.05618 -2.27509,1.34199 -4.14496,0.6337 -1.86972,-0.70823 -3.39975,-0.54983 -3.39975,0.35414 0,1.83592 9.33374,15.22279 10.6131,15.22279 0.44909,0 0.29583,-3.41895 -0.34336,-7.59803 z m -41.06078,-0.83563 c 0,-1.79242 -1.53267,-3.25649 -3.40561,-3.25649 -1.87949,0 -3.25449,1.97881 -3.0685,4.41891 0.38427,5.0374 6.474,3.94425 6.474,-1.1618 z m 221.15154,-2.03471 c -1.53991,-3.96041 -9.25619,-6.84192 -12.6988,-4.742 -3.92503,2.39506 -2.70593,10.11953 1.75519,11.12229 5.99785,1.34822 12.47906,-2.42923 10.94361,-6.38029 z m -388.795376,1.69922 c 0.591357,-2.24908 0.626921,-5.40646 0.07873,-7.01371 -1.139591,-3.34315 -10.075597,-4.03123 -10.075597,-0.77661 0,1.18043 -0.611173,3.71871 -1.357998,5.64036 -1.199075,3.08469 0.967441,4.55683 8.77971,5.96901 0.825181,0.15532 1.983974,-1.56876 2.575019,-3.81998 z M 451.2012,215.65458 c 0,-2.41368 -1.59878,-5.69907 -3.55279,-7.29981 -1.95407,-1.59981 -3.5528,-4.32261 -3.5528,-6.04885 0,-4.01819 -8.81266,-8.7294 -13.21208,-7.0631 -3.8516,1.46001 -4.54764,9.7781 -0.9992,11.94301 1.30259,0.79524 2.36854,0.55604 2.36854,-0.53433 0,-1.08723 2.24458,-2.14654 4.9881,-2.34844 4.66193,-0.34795 4.73508,-0.0934 1.11818,3.84978 -3.60673,3.9337 -3.50301,4.47328 1.52546,7.93355 7.28503,5.01286 11.31652,4.85908 11.31652,-0.43181 z M 258.34076,212.3192 c 0.37892,-2.54729 -1.02849,-3.96443 -3.93799,-3.96443 -2.49004,0 -4.52749,1.40099 -4.52749,3.117 0,7.14542 7.41865,7.88787 8.46548,0.84806 z m -157.99411,-2.42611 c 1.45086,-1.72719 1.94591,-3.82062 1.10025,-4.65563 -1.777524,-1.75513 -7.895117,2.69329 -7.895117,5.74132 0,3.07848 3.805339,2.46963 6.795027,-1.08414 z M 88.447566,203.455 c -4.039641,-2.46343 -6.825937,-0.38211 -5.174375,3.86532 1.067848,2.74608 2.080288,2.89833 4.745763,0.71449 2.649608,-2.17141 2.743079,-3.16918 0.428634,-4.58137 z m 158.949714,5.01594 c 2.94608,-1.839 2.97597,-3.01322 0.20772,-8.11804 -2.50043,-4.61182 -3.95568,-5.37818 -6.40395,-3.37266 -4.0018,3.27822 -4.16032,13.72424 -0.20771,13.6764 1.62835,-0.0195 4.5102,-1.00338 6.40404,-2.18693 z m -11.73325,-4.9299 c 0,-2.6467 -1.06596,-4.16356 -2.36857,-3.36895 -1.30263,0.79526 -2.36857,0.3293 -2.36857,-1.03132 0,-1.36063 1.53581,-2.47583 3.413,-2.47583 5.01171,0 6.89588,-4.37293 3.5823,-8.31377 -2.05764,-2.44787 -3.74172,-2.73366 -5.863,-0.99405 -4.11387,3.36985 -5.96747,14.53532 -3.00084,18.07572 3.66404,4.37327 6.6056,3.53078 6.6056,-1.8918 z m 66.3554,1.8918 c 0.0247,-1.9788 0.8403,-1.78929 2.52372,0.58403 1.96855,2.77405 2.18791,2.45096 1.05179,-1.55633 -0.78963,-2.78647 -0.32668,-5.74008 1.02912,-6.56732 1.35579,-0.82632 2.46488,-0.61507 2.46488,0.47216 0,1.08726 2.13158,1.97571 4.73711,1.97571 2.60521,0 4.73704,-0.82632 4.73704,-1.8359 0,-1.00959 -1.5358,-1.8359 -3.41301,-1.8359 -1.87728,0 -4.1837,-1.23016 -5.12565,-2.73679 -1.15156,-1.83899 -0.42141,-2.24596 2.22883,-1.24257 2.16777,0.82011 3.94134,0.41317 3.94134,-0.91017 0,-1.32025 1.06595,-1.75204 2.36855,-0.9568 1.30262,0.79525 2.36856,0.41627 2.36856,-0.83874 0,-1.255 0.5942,-3.81315 1.32024,-5.68104 2.04347,-5.25641 -6.53285,-7.38028 -10.1399,-2.51 -1.66264,2.24597 -3.02318,2.82685 -3.02318,1.29538 0,-4.93985 -5.83918,-2.92316 -8.609,2.97286 -2.00443,4.26729 -2.00443,5.99853 0,6.81084 1.47822,0.59957 0.89411,1.17115 -1.29759,1.27365 -2.19199,0.0934 -4.66682,2.30499 -5.49974,4.89421 -0.83305,2.59077 -2.5209,4.09583 -3.75106,3.34531 -1.23024,-0.75177 -1.63086,-2.33295 -0.89065,-3.514 0.74022,-1.18356 -0.2266,-1.5532 -2.14668,-0.82632 -1.92104,0.72693 -4.12013,2.93561 -4.88697,4.90943 -0.88625,2.28012 -0.30528,3.18347 1.59341,2.48203 1.64313,-0.60885 5.11921,-0.27959 7.72463,0.74556 7.08642,2.76785 10.65417,2.51931 10.69469,-0.74245 z m 152.97361,-4.86808 c 0.17626,-4.59566 -0.91457,-6.2368 -4.14494,-6.2368 -3.01375,0 -4.38395,1.70543 -4.38395,5.45523 0,10.61344 8.12357,11.35774 8.52889,0.78281 z m 9.06928,3.37979 c 0.71377,-1.14007 -0.20457,-3.30306 -2.03874,-4.80627 -2.6817,-2.19626 -3.17698,-1.90426 -2.52372,1.48798 0.44721,2.32052 0.89443,4.48477 0.99418,4.80597 0.39718,1.27986 2.34213,0.46908 3.56819,-1.48798 z m -352.74668,-2.60319 c 0.80502,-1.28607 -0.19828,-2.33914 -2.22884,-2.33914 -2.03086,0 -3.69258,1.05307 -3.69258,2.33914 0,1.28608 1.00303,2.33915 2.22883,2.33915 1.22582,0 2.88753,-1.05307 3.69259,-2.33915 z m 155.13943,-0.12426 c 0,-1.36061 1.23054,-1.72407 2.73457,-0.80767 1.73347,1.0562 2.09004,0.63992 0.97342,-1.14315 -1.34857,-2.15279 -2.54416,-2.17143 -5.10304,-0.0622 -3.94471,3.23133 -4.21958,4.5028 -0.97343,4.5028 1.30263,0 2.36858,-1.11521 2.36858,-2.47583 z m 156.32365,0.27958 c 0,-3.15707 -4.31772,-5.34556 -7.14426,-3.62117 -1.32401,0.80767 -1.79387,2.44789 -1.04453,3.6448 1.77785,2.83927 8.18872,2.82064 8.18872,-0.0237 z M 79.340373,197.40583 c 0,-1.71474 -0.951712,-3.11731 -2.115216,-3.11731 -1.163201,0 -2.660315,1.4041 -3.32701,3.11731 -0.66657,1.71474 0.286399,3.11699 2.115216,3.11699 1.829772,0 3.32701,-1.401 3.32701,-3.11699 z m 146.849507,-3.13101 c 0,-2.71811 -9.28744,-4.51362 -10.8062,-2.0875 -0.73517,1.17422 0.32354,2.76473 2.35251,3.53232 2.02897,0.76729 2.95804,2.60319 2.06393,4.07474 -0.89382,1.47244 0.17938,1.23323 2.3821,-0.53121 2.20427,-1.76447 4.00745,-4.00919 4.00745,-4.98772 z m -132.639956,1.84835 c 0.0022,-2.50689 -8.624579,-6.56888 -10.345322,-4.87057 -3.486666,3.4416 -1.074452,7.19233 4.42398,6.87887 3.2558,-0.18637 5.920417,-1.09033 5.921342,-2.00986 z m 28.424166,-1.83589 c 0,-1.28608 -1.06596,-2.33917 -2.36858,-2.33917 -1.30262,0 -2.36854,1.05309 -2.36854,2.33917 0,1.28603 1.06592,2.33914 2.36854,2.33914 1.30262,0 2.36858,-1.05311 2.36858,-2.33914 z m 156.07451,-0.87293 c 1.4845,-1.76445 2.0658,-4.84043 1.29097,-6.83291 -1.74983,-4.50092 -7.51647,-6.88325 -9.39579,-3.88182 -0.7698,1.23016 -0.006,2.25218 1.70042,2.27082 2.31599,0.0268 2.23007,0.5778 -0.33927,2.18383 -1.89176,1.18043 -4.55645,1.50973 -5.92135,0.73 -1.36493,-0.7797 -0.4513,0.86981 2.03054,3.66126 5.26971,5.93018 6.96739,6.22809 10.63433,1.86696 z m -173.83856,-1.46624 c -0.80506,-1.28606 -3.59552,-2.33915 -6.200947,-2.33915 -2.605545,0 -4.078327,1.05309 -3.273224,2.33915 0.805058,1.28606 3.59552,2.33917 6.200921,2.33917 2.60522,0 4.07836,-1.05311 3.27325,-2.33917 z m 227.92178,-7.45482 c -4.91308,-3.08158 -6.46325,-2.14032 -6.46325,3.9253 0,5.57696 0.19828,5.65528 4.68687,1.86074 3.47067,-2.93246 3.9316,-4.43473 1.77626,-5.78604 z m 83.97203,2.277 c -1.08642,-7.30539 -3.20228,-8.16059 -7.51135,-3.03498 -3.82384,4.54783 -1.75107,9.54826 3.95825,9.54826 3.59933,0 4.32397,-1.32955 3.5531,-6.51264 z m 14.84196,5.37292 c 0.73769,-1.17733 0.26434,-4.93675 -1.05148,-8.3529 -2.70186,-7.01466 -10.09288,-7.3194 -11.42901,-0.47219 -1.47066,7.53716 8.75806,14.76894 12.48042,8.82415 z m 13.78922,0.85426 c 4.25676,-1.61225 2.61245,-11.90636 -2.19233,-13.72642 -2.18825,-0.82941 -2.81609,-0.31994 -1.73443,1.41033 1.12576,1.79863 0.39656,2.21488 -2.16964,1.24569 -5.76879,-2.18384 -7.43818,2.65909 -2.69777,7.8307 4.70003,5.12624 4.25439,4.9619 8.79427,3.24219 z m -40.90465,-5.44122 c 0,-5.35459 5.90939,-10.5911 10.14244,-8.98787 2.23293,0.84495 3.06758,-1.36373 2.99076,-7.91366 -0.0819,-7.05256 -1.03415,-9.08819 -4.25122,-9.0941 -3.06063,-0.006 -4.19387,1.97881 -4.33196,7.5909 -0.10387,4.17879 -0.72448,6.28277 -1.38163,4.67549 -0.65715,-1.606 -4.70629,-2.92315 -8.99829,-2.92315 -5.23207,0 -8.8744,-1.58118 -11.05319,-4.79385 -2.86768,-4.23065 -3.77751,-4.41053 -7.74375,-1.53148 -3.3996,2.46651 -4.09559,4.82897 -2.85764,9.69767 1.4266,5.61086 2.45574,6.23341 8.0233,4.85412 3.51271,-0.86979 7.18042,-2.81441 8.15054,-4.31919 1.08138,-1.67745 1.77786,-0.74553 1.8002,2.40751 0.0189,2.82996 1.90153,6.21659 4.1812,7.5272 2.55773,1.46935 2.95772,2.41061 1.04457,2.45409 -1.70515,0.0311 -2.4419,1.12142 -1.63655,2.40749 2.41546,3.85756 5.92136,2.64357 5.92136,-2.05026 z m -295.13202,-0.68343 c -1.19531,-1.91046 -0.34337,-2.22109 2.82079,-1.03134 3.50156,1.31714 3.89581,1.07172 1.73191,-1.08102 -1.54086,-1.53148 -4.70848,-2.06582 -7.03928,-1.18046 -3.60794,1.36683 -3.7196,1.9291 -0.75121,3.78146 4.62752,2.889 5.28907,2.78958 3.23767,-0.48769 z m 106.50534,-0.77039 c 1.72968,-4.44904 -1.01812,-4.47857 -6.91735,-0.0622 -4.50415,3.36273 -4.49443,3.43418 0.47807,3.50686 2.79185,0.0311 5.68933,-1.50352 6.43916,-3.43231 z m 15.10394,-1.16802 c 0.33739,-1.9291 -0.47271,-5.08462 -1.80017,-7.0134 -2.06327,-2.99771 -3.09242,-2.70881 -7.08997,1.99743 -2.57184,3.02877 -4.04844,6.50644 -3.28118,7.73192 2.11049,3.3708 11.47227,1.28297 12.17148,-2.71503 z m 122.75595,-6.27065 c -2.95077,-6.289 -5.02268,-6.82982 -6.97061,-1.82039 -2.03936,5.24583 3.30696,12.90787 6.77514,9.7101 1.97234,-1.81728 2.02615,-3.98927 0.19511,-7.89065 z m 38.55819,5.22346 c 0.52337,-2.66534 -0.33016,-3.78954 -2.36857,-3.11948 -1.75266,0.57469 -3.55511,2.92314 -4.00519,5.21415 -0.52338,2.6653 0.33013,3.78954 2.36857,3.11949 1.75267,-0.57781 3.55513,-2.92317 4.00519,-5.21416 z m -290.1745,0.0622 c 1.85715,-4.77708 -3.911019,-9.01365 -7.478351,-5.4925 -1.532354,1.51285 -2.785874,4.11759 -2.785874,5.78917 0,4.12441 8.642511,3.87465 10.264225,-0.31065 z m 98.68861,-3.81191 c 0,-1.08415 -1.73565,-2.92938 -3.85693,-4.10206 -2.63703,-1.45692 -3.01154,-2.64668 -1.18429,-3.76097 3.96833,-2.4199 3.29408,-5.12748 -2.92813,-11.75444 -5.62345,-5.98921 -11.2723,-8.51537 -6.80467,-3.04432 3.01152,3.68859 -0.1259,12.28288 -5.58616,15.2986 -3.75394,2.0751 -3.6846,2.46651 0.86106,4.86685 4.0797,2.15587 5.11572,1.89804 5.92731,-1.46935 0.77704,-3.22604 1.54276,-2.74297 3.64896,2.30188 1.79358,4.29591 3.85262,5.93516 6.29418,5.01038 1.99561,-0.75485 3.62861,-2.2615 3.62858,-3.34627 z m 11.84274,-2.47584 c 0,-4.57422 -1.91191,-5.32661 -7.83446,-3.08158 -1.98082,0.74865 -2.99831,3.15551 -2.35786,5.57295 1.49177,5.63071 10.19241,3.50532 10.19241,-2.49137 z m 78.0078,3.96257 c 2.15739,-2.5659 2.0938,-4.43103 -0.2801,-8.18233 -3.63496,-5.74539 -5.13435,-5.99793 -8.91472,-1.50042 -2.09539,2.49135 -2.14857,4.60093 -0.20772,8.18265 3.07512,5.67113 5.56133,6.06813 9.40114,1.50041 z m 84.84807,1.47248 c 3.3059,2.69636 3.35737,2.47271 0.47994,-2.09067 -3.54906,-5.62575 -7.11729,-5.02153 -6.82509,1.15559 0.12274,2.58769 0.61148,2.91076 1.41465,0.93196 1.00332,-2.46961 1.90436,-2.46961 4.93061,0 z m -251.85159,-6.72327 c 1.70418,-4.3835 0.13533,-7.02241 -6.15186,-10.34322 -3.86299,-2.04092 -4.64215,-1.92287 -3.74093,0.57159 0.62593,1.73341 0.10699,5.1241 -1.15471,7.53779 -1.61358,3.08778 -1.40679,4.9293 0.69741,6.21287 3.85118,2.34846 8.59944,0.52499 10.35014,-3.97935 z m 219.17144,2.84239 c 2.26973,-2.69948 1.97737,-4.54317 -1.42726,-8.99813 l -4.28176,-5.60305 -4.43078,5.5599 c -2.43685,3.05672 -3.82935,7.10721 -3.0943,8.9981 1.71554,4.41269 9.53856,4.43816 13.234,0.0311 z M 133.1424,177.1066 c -1.29066,-3.82124 -6.43123,-4.56089 -6.43123,-0.92573 0,1.82037 1.62835,3.31207 3.6186,3.31207 1.99027,0 3.25589,-1.07481 2.81263,-2.38572 z m 39.90829,-5.64502 c -0.79752,-0.78595 -3.28991,0.497 -5.5386,2.8517 -2.24867,2.35467 -2.82992,3.59009 -1.29159,2.74608 1.53831,-0.84494 3.64501,-0.21744 4.68151,1.42275 1.3835,2.17451 2.1124,1.82349 2.74149,-1.31401 0.47145,-2.35158 0.20457,-4.91813 -0.5929,-5.70561 z m 157.35494,-4.28844 c 0,-2.10306 -11.29187,0.31063 -13.78616,2.93558 -2.12306,2.24284 -1.58333,3.72088 2.35285,6.44213 4.76063,3.29157 5.32268,3.12259 8.27049,-2.48516 1.73945,-3.3096 3.16273,-6.41137 3.16273,-6.89286 z m 36.69432,7.25478 c 11.70817,-11.18631 13.8541,-14.92398 10.71337,-18.65915 -3.15968,-3.75815 -8.333,-5.00571 -6.1235,-1.47556 0.71411,1.14005 -0.55516,1.92908 -2.8208,1.75204 -3.11412,-0.24853 -4.11711,1.48176 -4.10974,7.0603 0.006,4.0595 -0.79402,6.8904 -1.77626,6.29116 -0.98256,-0.59953 -1.78603,-3.59538 -1.78603,-6.65834 0,-3.06295 -1.06596,-6.21877 -2.36857,-7.01372 -1.31487,-0.80145 -2.38461,0.95679 -2.40474,3.95357 -0.0189,2.96975 -1.0115,6.9196 -2.20334,8.77912 -2.6021,4.05949 1.08357,12.02843 5.18351,11.20741 1.54149,-0.31064 5.00478,-2.66534 7.69639,-5.23683 z m -259.3371,-0.12435 c 0,-2.00365 -1.06596,-2.99461 -2.36855,-2.19935 -1.30263,0.79524 -2.36856,2.43543 -2.36856,3.64478 0,1.20839 1.06593,2.19936 2.36856,2.19936 1.30259,0 2.36855,-1.6402 2.36855,-3.64479 z m 37.89664,1.16801 c 0,-2.58144 -6.78712,-4.59845 -8.14965,-2.42302 -0.65776,1.04999 -0.69174,2.40751 -0.0755,3.01636 1.77247,1.74892 8.22545,1.28295 8.22545,-0.59334 z m 14.68494,-0.32926 c -1.56319,-1.5439 -2.84221,-3.85759 -2.84221,-5.14334 0,-1.35132 1.15249,-1.20219 2.73144,0.35725 3.37159,3.32793 11.47984,-0.35414 11.47984,-5.2123 0,-4.9467 -4.33018,-6.59281 -8.22586,-3.12695 -1.89869,1.6899 -5.08818,4.42792 -7.08747,6.08583 -3.89522,3.23038 -5.10584,8.67936 -1.43005,6.43684 1.21259,-0.73932 2.87429,-0.27957 3.69259,1.03134 0.81826,1.30782 2.17091,2.37643 3.00588,2.37643 0.83494,0 0.23918,-1.26121 -1.32405,-2.8051 z m 59.92408,0.46906 c 0.80507,-1.28608 0.27066,-2.33913 -1.18428,-2.33913 -1.45652,0 -1.98934,-1.0531 -1.18429,-2.33916 0.80506,-1.28606 -0.19826,-2.33915 -2.22884,-2.33915 -4.13131,0 -4.29412,0.40693 -2.25494,5.6537 1.63433,4.20426 4.6915,4.81095 6.85221,1.36064 z m 93.55737,1.30781 c 0,-0.56537 -1.06597,-1.68058 -2.3686,-2.47582 -1.30258,-0.79526 -2.36853,-0.32931 -2.36853,1.03131 0,1.36065 1.06595,2.47586 2.36853,2.47586 1.30263,0 2.3686,-0.46286 2.3686,-1.03135 z m 114.70377,-7.56356 c -5.08924,-3.67335 -9.30376,-2.91695 -9.30376,1.67127 0,3.75817 11.41122,7.13176 12.76077,3.77246 0.50479,-1.25812 -1.05084,-3.70629 -3.45701,-5.44279 z m -124.17795,1.16491 c 3.87931,-3.2344 4.90036,-5.29026 2.96057,-5.96156 -1.62836,-0.56226 -2.96057,-2.51621 -2.96057,-4.33691 0,-4.47451 -3.144,-4.16571 -9.5271,0.93504 -4.52501,3.61684 -4.90356,5.00635 -2.54762,9.35164 3.39113,6.25418 4.58525,6.25544 12.07469,0.0111 z m -97.06265,-0.80766 c 1.64787,-1.96016 2.31128,-4.23936 1.47444,-5.06537 -0.83713,-0.8263 -1.52164,-0.15532 -1.52164,1.51284 0,2.29566 -0.77829,2.37641 -3.26352,0.3417 -2.56433,-2.09992 -3.53177,-1.66194 -4.51536,2.05027 -1.49868,5.6565 3.43193,6.38836 7.82637,1.16181 z m -69.53062,-2.43855 c 2.26752,-5.83297 -2.67921,-8.93756 -7.17302,-4.50187 -2.13096,2.10307 -3.87424,4.80101 -3.87424,5.99514 0,3.68235 9.53626,2.39193 11.04726,-1.49421 z m 13.82241,-2.18073 c 0,-6.96244 -9.24582,-6.26693 -10.25588,0.77039 -0.65052,4.5326 0.14476,5.31794 4.7371,4.67582 3.67917,-0.51567 5.51878,-2.32983 5.51878,-5.44745 z m 30.87423,3.37389 c 1.83954,-2.93868 -0.60615,-13.90969 -3.08895,-13.85843 -4.7045,0.0933 -7.10488,4.07625 -5.97583,9.90612 1.24691,6.43873 6.16531,8.58309 9.06485,3.95231 z m 169.17561,-2.0347 c 3.07072,-5.66304 0.80977,-11.87001 -4.30652,-11.8228 -3.39971,0.0311 -3.44252,0.35103 -0.33863,2.54107 2.90452,2.04714 2.65242,2.3143 -1.38165,1.45379 -5.38133,-1.14625 -6.93092,4.17197 -2.74243,9.41252 3.29045,4.11664 5.93772,3.6386 8.76948,-1.58428 z m 53.33471,-2.05336 c 1.94997,-5.01625 -0.80001,-7.46664 -8.38039,-7.46664 -5.17573,0 -6.96583,1.10279 -6.96583,4.28627 0,2.3578 0.68607,4.96315 1.52419,5.79071 2.64265,2.60941 12.51801,0.74245 13.82188,-2.60941 z m -279.53964,-2.95112 c -1.75897,-2.80822 -8.18873,-2.83618 -8.18873,-0.0311 0,2.53488 5.14056,4.67642 7.73638,3.22479 0.99829,-0.55916 1.20191,-1.99432 0.45225,-3.19154 z m 92.47423,2.50069 c -0.80507,-1.28609 -2.52971,-2.33915 -3.8324,-2.33915 -1.3026,0 -1.70986,1.05306 -0.90479,2.33915 0.80504,1.28605 2.52969,2.33915 3.83237,2.33915 1.30262,0 1.70986,-1.0531 0.90482,-2.33915 z m -55.82737,-4.3683 c 3.15822,-5.82486 0.2801,-8.32864 -3.66874,-3.19341 -3.73971,4.86097 -4.09149,7.56171 -0.98507,7.56171 1.25698,0 3.35104,-1.96638 4.65376,-4.3683 z m 156.67614,1.93221 c 3.56949,-1.8856 4.08832,-3.40092 2.29618,-6.70616 -1.27334,-2.34847 -1.55346,-5.10231 -0.62219,-6.11906 0.93123,-1.01583 -0.25808,-1.1556 -2.64554,-0.31066 -2.38617,0.84806 -4.84732,1.54082 -5.46897,1.54082 -0.62156,0 -0.47931,1.04064 0.31662,2.31119 0.82991,1.32642 -0.11959,1.71783 -2.22883,0.91949 -2.41547,-0.91641 -3.67584,-0.0622 -3.67584,2.50378 0,2.14344 1.05366,3.25213 2.3415,2.46652 1.34259,-0.82011 1.73975,0.12425 0.93094,2.19936 -1.63056,4.19429 2.10923,4.70345 8.75623,1.19286 z m -176.64207,-4.61056 c 0.80505,-1.28608 0.33518,-2.33915 -1.04455,-2.33915 -1.37971,0 -2.5083,1.05307 -2.5083,2.33915 0,1.28606 0.46989,2.33916 1.04455,2.33916 0.57437,0 1.70324,-1.0531 2.5083,-2.33916 z m 244.35443,-1.06862 c 0,-1.87318 -1.42097,-3.94425 -3.15807,-4.60219 -3.56596,-1.35131 -3.74595,-0.90085 -1.72025,4.31049 1.80364,4.63946 4.87844,4.82336 4.87844,0.2796 z m -51.65704,-1.01271 c 2.01638,-1.2612 2.61908,-3.86129 1.61669,-6.978 -1.86564,-5.8025 -3.51918,-6.11564 -9.50013,-1.79861 -8.02256,5.79039 -0.58378,14.07248 7.88337,8.77692 z m 76.13195,-1.28607 c 0,-0.56846 -1.06595,-1.68057 -2.36855,-2.47582 -1.30262,-0.79523 -2.36857,-0.32929 -2.36857,1.03134 0,1.36061 1.06595,2.47584 2.36857,2.47584 1.3026,0 2.36855,-0.46285 2.36855,-1.03136 z m -59.2135,-3.45372 c 0,-5.32848 -3.24978,-9.54268 -7.35905,-9.54268 -3.20354,0 -4.48369,1.66818 -4.48369,5.84477 0,4.67581 1.1843,5.84476 5.92138,5.84476 3.25675,0 5.92136,-0.9661 5.92136,-2.14653 z m 52.10786,-0.18641 c 0,-1.28604 -1.59875,-2.33912 -3.55281,-2.33912 -1.95407,0 -3.55277,1.05308 -3.55277,2.33912 0,1.28608 1.59875,2.33916 3.55277,2.33916 1.95409,0 3.55281,-1.05308 3.55281,-2.33916 z m -39.10926,-4.09115 c -0.4365,-2.24908 -0.87489,-4.88021 -0.97466,-5.84477 -0.23919,-2.31429 -2.96055,-2.16519 -7.03985,0.3852 -4.47892,2.7989 -1.50531,9.55167 4.20616,9.55167 3.10595,0 4.34392,-1.32955 3.80838,-4.09148 z m 13.05533,-0.58403 c 2.22537,-4.10422 1.80113,-4.67581 -3.4695,-4.67581 -8.52986,0 -8.2505,6.01967 0.4255,9.16679 0.28011,0.0934 1.64978,-1.91977 3.04395,-4.49098 z m 16.10847,0.21747 c 0.79623,-2.36091 -0.30844,-2.91073 -3.94865,-1.9726 -2.91082,0.75176 -5.05419,0.21744 -5.05419,-1.28295 0,-1.72098 -0.98478,-1.61536 -2.94104,0.31685 -2.34213,2.31118 -2.2216,3.35838 0.59227,5.14022 4.63503,2.9356 9.96729,1.90115 11.35161,-2.20245 z" />
</svg>
