<?xml version="1.0" encoding="UTF-8" standalone="no"?>
<svg
   version="1.1"
   width="800"
   height="800"
   viewBox="0 0 800 800"
   xml:space="preserve"
   style="scroll-behavior: auto !important;"
   id="svg4"
   sodipodi:docname="Mojang_Studios_Logo_(2020,_icon).svg"
   inkscape:export-filename="Mojang_Studios_Logo_(2020,_icon).png"
   inkscape:export-xdpi="61.439999"
   inkscape:export-ydpi="61.439999"
   inkscape:version="1.3 (0e150ed6c4, 2023-07-21)"
   xmlns:inkscape="http://www.inkscape.org/namespaces/inkscape"
   xmlns:sodipodi="http://sodipodi.sourceforge.net/DTD/sodipodi-0.dtd"
   xmlns="http://www.w3.org/2000/svg"
   xmlns:svg="http://www.w3.org/2000/svg"><sodipodi:namedview
   id="namedview4"
   pagecolor="#505050"
   bordercolor="#ffffff"
   borderopacity="1"
   inkscape:showpageshadow="0"
   inkscape:pageopacity="0"
   inkscape:pagecheckerboard="1"
   inkscape:deskcolor="#505050"
   inkscape:zoom="1.46625"
   inkscape:cx="374.08355"
   inkscape:cy="369.30946"
   inkscape:window-width="2560"
   inkscape:window-height="1369"
   inkscape:window-x="6392"
   inkscape:window-y="802"
   inkscape:window-maximized="1"
   inkscape:current-layer="g3" />&#10;<desc
   id="desc1">Created with Fabric.js 3.6.3</desc>&#10;<defs
   id="defs1">&#10;</defs>&#10;<g
   transform="matrix(2 0 0 2 399.75 399.75)"
   id="g4">&#10;<g
   style=""
   id="g3">&#10;		<g
   transform="matrix(3.37 0 0 3.37 0 0)"
   id="g1">&#10;<polygon
   style="display:inline;opacity:1;fill:#f0313b;fill-rule:nonzero;stroke:#f0313b;stroke-width:8;stroke-linecap:butt;stroke-linejoin:round;stroke-miterlimit:4;stroke-dashoffset:0"
   vector-effect="non-scaling-stroke"
   points="50,50 50,-50 -50,-50 -50,50 "
   id="polygon1" />&#10;</g>&#10;		<g
   transform="matrix(3.78 0 0 3.78 0.01 0)"
   id="g2">&#10;<path
   style="stroke: none; stroke-width: 1; stroke-dasharray: none; stroke-linecap: butt; stroke-dashoffset: 0; stroke-linejoin: miter; stroke-miterlimit: 4; fill: rgb(255,255,255); fill-rule: nonzero; opacity: 1;"
   vector-effect="non-scaling-stroke"
   transform=" translate(-44.68, -41.16)"
   d="M 13.51988 41.11152 q 0 -12.31086 0.0047 -24.62173 c 0.00469 -2.87722 0.16418 -3.03875 3.01027 -3.04146 q 21.527 -0.02051 43.054 -0.01353 c 2.06114 0.0004 2.36366 0.32134 2.39718 2.42144 c 0.0238 1.49194 -0.01523 2.98567 0.03993 4.47616 a 6.77817 6.77817 0 0 0 6.69647 6.91868 c 1.65784 0.11443 3.328 0.04044 4.99213 0.07612 c 1.797 0.03852 2.04939 0.30467 2.12207 2.13943 c 0.01137 0.28664 0.01239 0.57383 0.01247 0.86076 q 0.00432 17.64834 0.00423 35.29668 c -0.00158 3.2118 -0.0499 3.24957 -3.28974 3.26017 q -3.78871 0.01236 -7.57745 -0.01166 c -2.96088 -0.02069 -3.03087 -0.09046 -3.032 -2.98084 q -0.00659 -16.87367 -0.00343 -33.74735 c 0 -0.40175 0.01018 -0.80387 -0.00321 -1.20519 a 3.329 3.329 0 0 0 -3.548 -3.56756 c -1.08962 -0.032 -2.18238 -0.03167 -3.27158 0.01034 a 3.34773 3.34773 0 0 0 -3.482 3.47659 c -0.03516 0.62965 -0.02128 1.26231 -0.02172 1.8936 q -0.00641 9.21165 -0.01056 18.42326 c -0.00046 0.68869 0.01794 1.37909 -0.02307 2.06567 c -0.075 1.25525 -0.44257 1.71282 -1.65149 1.72825 q -5.25132 0.06705 -10.50391 -0.00754 c -1.2165 -0.01879 -1.58169 -0.48679 -1.66785 -1.72683 c -0.03575 -0.51435 -0.01843 -1.03265 -0.019 -1.54914 q -0.0112 -9.81428 -0.0222 -19.62854 a 13.12088 13.12088 0 0 0 -0.05025 -1.71908 a 3.25128 3.25128 0 0 0 -3.10179 -2.93609 a 33.39881 33.39881 0 0 0 -3.95853 0.00271 a 3.1568 3.1568 0 0 0 -3.15611 3.21043 c -0.05842 1.26029 -0.03349 2.52474 -0.03457 3.78735 q -0.01343 15.66842 -0.02277 31.33681 c -0.00035 0.45913 0.01748 0.92 -0.01557 1.377 c -0.09 1.24451 -0.45629 1.713 -1.67232 1.72878 q -5.25117 0.06813 -10.50381 -0.01831 c -1.23915 -0.02079 -1.58295 -0.457 -1.6812 -1.71692 c -0.04454 -0.5709 -0.02489 -1.1472 -0.025 -1.72107 q -0.00183 -12.13872 -0.00083 -24.27744 Z"
   stroke-linecap="round"
   id="path1" />&#10;</g>&#10;</g>&#10;</g>&#10;</svg>
