<svg xmlns="http://www.w3.org/2000/svg" xmlns:svg="http://www.w3.org/2000/svg" xmlns:xlink="http://www.w3.org/1999/xlink" id="svg249" width="48" height="48" version="1.0"><metadata/><defs id="defs3"><linearGradient id="linearGradient3656"><stop id="stop3658" offset="0" style="stop-color:#fff;stop-opacity:1"/><stop id="stop3660" offset="1" style="stop-color:#fff;stop-opacity:0"/></linearGradient><linearGradient id="linearGradient4253" x1="-26.754" x2="-24.75" y1="11.566" y2="9.688" gradientUnits="userSpaceOnUse" xlink:href="#linearGradient3656"/><linearGradient id="linearGradient3520"><stop id="stop3522" offset="0" style="stop-color:#000;stop-opacity:.41295547"/><stop id="stop3524" offset="1" style="stop-color:#000;stop-opacity:0"/></linearGradient><linearGradient id="linearGradient4273" x1="-18.589" x2="-28.789" y1="11.053" y2="14.07" gradientTransform="matrix(0.9223058,0,0,0.9185751,-92.447368,1.3256997)" gradientUnits="userSpaceOnUse" xlink:href="#linearGradient3520"/><linearGradient id="linearGradient3671"><stop id="stop3673" offset="0" style="stop-color:#fff;stop-opacity:1"/><stop id="stop3691" offset=".475" style="stop-color:#fff;stop-opacity:1"/><stop id="stop3675" offset="1" style="stop-color:#fff;stop-opacity:0"/></linearGradient><radialGradient id="radialGradient4276" cx="-26.305" cy="10.108" r="7.042" fx="-26.305" fy="10.108" gradientTransform="matrix(0.4073362,-0.2798276,0.7510293,1.0932492,-115.18484,-8.4378699)" gradientUnits="userSpaceOnUse" xlink:href="#linearGradient3671"/><linearGradient id="linearGradient3741"><stop id="stop3743" offset="0" style="stop-color:#fff;stop-opacity:1"/><stop id="stop3745" offset="1" style="stop-color:#fff;stop-opacity:0"/></linearGradient><radialGradient id="radialGradient4247" cx="4" cy="5.3" r="17" fx="4" fy="5.3" gradientTransform="matrix(1.8860258,0,0,1.1764706,-3.5441033,-4.2352941)" gradientUnits="userSpaceOnUse" xlink:href="#linearGradient3741"/><linearGradient id="linearGradient3613"><stop id="stop3615" offset="0" style="stop-color:#888a85;stop-opacity:1"/><stop id="stop3617" offset="1" style="stop-color:#babdb6;stop-opacity:1"/></linearGradient><linearGradient id="linearGradient4282" x1="-47.5" x2="-62.75" y1="49.021" y2="-22.502" gradientTransform="translate(-90,0)" gradientUnits="userSpaceOnUse" xlink:href="#linearGradient3613"/><linearGradient id="linearGradient3683"><stop id="stop3685" offset="0" style="stop-color:#f6f6f5;stop-opacity:1"/><stop id="stop3689" offset="1" style="stop-color:#d3d7cf;stop-opacity:1"/></linearGradient><radialGradient id="radialGradient4280" cx="-30.25" cy="35.357" r="18" fx="-30.25" fy="35.357" gradientTransform="matrix(3.9957492,0,0,1.9350367,0.62141,-31.167422)" gradientUnits="userSpaceOnUse" xlink:href="#linearGradient3683"/><linearGradient id="linearGradient4241" x1="25.058" x2="25.058" y1="47.028" y2="39.999" gradientUnits="userSpaceOnUse" xlink:href="#linearGradient3702"/><radialGradient id="radialGradient4239" cx="4.993" cy="43.5" r="2.5" fx="4.993" fy="43.5" gradientTransform="matrix(2.003784,0,0,1.4,-20.01187,-104.4)" gradientUnits="userSpaceOnUse" xlink:href="#linearGradient3688"/><radialGradient id="radialGradient4237" cx="4.993" cy="43.5" r="2.5" fx="4.993" fy="43.5" gradientTransform="matrix(2.003784,0,0,1.4,27.98813,-17.4)" gradientUnits="userSpaceOnUse" xlink:href="#linearGradient3688"/><linearGradient id="linearGradient3702"><stop id="stop3704" offset="0" style="stop-color:black;stop-opacity:0"/><stop id="stop3710" offset=".5" style="stop-color:black;stop-opacity:1"/><stop id="stop3706" offset="1" style="stop-color:black;stop-opacity:0"/></linearGradient><linearGradient id="linearGradient4235" x1="25.058" x2="25.058" y1="47.028" y2="39.999" gradientUnits="userSpaceOnUse" xlink:href="#linearGradient3702"/><radialGradient id="radialGradient4233" cx="4.993" cy="43.5" r="2.5" fx="4.993" fy="43.5" gradientTransform="matrix(2.003784,0,0,1.4,-20.01187,-104.4)" gradientUnits="userSpaceOnUse" xlink:href="#linearGradient3688"/><linearGradient id="linearGradient3688"><stop id="stop3690" offset="0" style="stop-color:black;stop-opacity:1"/><stop id="stop3692" offset="1" style="stop-color:black;stop-opacity:0"/></linearGradient><radialGradient id="radialGradient4231" cx="4.993" cy="43.5" r="2.5" fx="4.993" fy="43.5" gradientTransform="matrix(2.003784,0,0,1.4,27.98813,-17.4)" gradientUnits="userSpaceOnUse" xlink:href="#linearGradient3688"/><linearGradient id="linearGradient2378"><stop id="stop2380" offset="0" style="stop-color:#fff;stop-opacity:1"/><stop id="stop4146" offset=".25" style="stop-color:#fefede;stop-opacity:.91836733"/><stop id="stop2386" offset=".5" style="stop-color:#f5f328;stop-opacity:1"/><stop id="stop2382" offset="1" style="stop-color:#f5f32d;stop-opacity:.12234043"/></linearGradient><radialGradient id="radialGradient3271" cx="38.659" cy="9.341" r="8.342" fx="38.659" fy="9.341" gradientUnits="userSpaceOnUse" xlink:href="#linearGradient2378"/></defs><g id="layer5" style="display:inline"><g id="g4425" style="display:inline" transform="translate(150,0)"><rect id="rect2503" width="48" height="48" style="opacity:0;fill:#000;fill-opacity:1;stroke:none;stroke-width:1;stroke-miterlimit:4;stroke-dasharray:none;display:inline" x="-150" y="0"/><g id="g4408"><g id="g3697" style="opacity:.65587045;display:inline" transform="matrix(1.0464281,0,0,0.8888889,-151.18571,5.7222396)"><g id="g3699" style="opacity:.4" transform="matrix(1.052632,0,0,1.285713,-1.263158,-13.42854)"><rect id="rect3701" width="5" height="7" style="opacity:1;fill:url(#radialGradient4231);fill-opacity:1;stroke:none;stroke-width:1;stroke-linecap:round;stroke-linejoin:miter;stroke-miterlimit:4;stroke-dasharray:none;stroke-opacity:1" x="38" y="40"/><rect id="rect3703" height="7" style="opacity:1;fill:url(#radialGradient4233);fill-opacity:1;stroke:none;stroke-width:1;stroke-linecap:round;stroke-linejoin:miter;stroke-miterlimit:4;stroke-dasharray:none;stroke-opacity:1" width="5" x="-10" y="-47" transform="scale(-1,-1)"/><rect id="rect3705" width="28" height="7" style="opacity:1;fill:url(#linearGradient4235);fill-opacity:1;stroke:none;stroke-width:1;stroke-linecap:round;stroke-linejoin:miter;stroke-miterlimit:4;stroke-dasharray:none;stroke-opacity:1" x="10" y="40"/></g></g><g id="g3713" style="display:inline" transform="matrix(0.9548466,0,0,0.5555562,-148.98776,19.888875)"><g id="g3715" style="opacity:.4" transform="matrix(1.052632,0,0,1.285713,-1.263158,-13.42854)"><rect id="rect3717" width="5" height="7" style="opacity:1;fill:url(#radialGradient4237);fill-opacity:1;stroke:none;stroke-width:1;stroke-linecap:round;stroke-linejoin:miter;stroke-miterlimit:4;stroke-dasharray:none;stroke-opacity:1" x="38" y="40"/><rect id="rect3719" height="7" style="opacity:1;fill:url(#radialGradient4239);fill-opacity:1;stroke:none;stroke-width:1;stroke-linecap:round;stroke-linejoin:miter;stroke-miterlimit:4;stroke-dasharray:none;stroke-opacity:1" width="5" x="-10" y="-47" transform="scale(-1,-1)"/><rect id="rect3721" width="28" height="7" style="opacity:1;fill:url(#linearGradient4241);fill-opacity:1;stroke:none;stroke-width:1;stroke-linecap:round;stroke-linejoin:miter;stroke-miterlimit:4;stroke-dasharray:none;stroke-opacity:1" x="10" y="40"/></g></g><path id="path3499" d="M -141.47614,3.5 C -141.47614,3.5 -124,3.5 -122.5,3.5 C -118.62295,3.5729425 -116,6 -113.5,8.5 C -111,11 -108.89232,13.752625 -108.5,17.5 C -108.5,19 -108.5,42.476142 -108.5,42.476142 C -108.5,43.597359 -109.40264,44.5 -110.52385,44.5 L -141.47614,44.5 C -142.59736,44.5 -143.5,43.597359 -143.5,42.476142 L -143.5,5.523858 C -143.5,4.402641 -142.59736,3.5 -141.47614,3.5 z" style="fill:url(#radialGradient4280);fill-opacity:1;stroke:url(#linearGradient4282);stroke-width:1;stroke-miterlimit:4;display:inline"/><path id="path3735" d="M 8.53125,4 C 7.6730803,4 7,4.6730802 7,5.53125 L 7,42.46875 C 7,43.32692 7.6730802,44 8.53125,44 L 39.46875,44 C 40.326919,44 41,43.326918 41,42.46875 C 41,42.46875 41,19 41,17.5 C 41,16.10803 40.513021,13.200521 38.65625,11.34375 C 36.65625,9.34375 35.65625,8.34375 33.65625,6.34375 C 31.799479,4.4869792 28.89197,4 27.5,4 C 26,4 8.53125,4 8.53125,4 z" style="opacity:.68016196;fill:url(#radialGradient4247);fill-opacity:1;stroke:none;stroke-width:1;stroke-miterlimit:4;display:inline" transform="translate(-150,0)"/><path id="path3666" d="M -122.5,4 C -123.88889,4 -122.54207,4.4970883 -121.15625,5.125 C -119.77043,5.7529117 -116.18337,8.3400517 -117,12 C -112.67669,11.569417 -110.32087,15.122378 -110,16.28125 C -109.67913,17.440122 -109,18.888889 -109,17.5 C -108.97167,13.694419 -111.84543,11.068299 -113.84375,8.84375 C -115.84207,6.6192012 -118.84621,4.4767615 -122.5,4 z" style="fill:url(#radialGradient4276);fill-opacity:1;stroke:none;stroke-width:1;stroke-miterlimit:4;display:inline"/><path id="path3625" d="M -121.39912,5.0143528 C -120.47682,5.0143528 -118.39068,11.210015 -119.31298,15.343603 C -115.01802,14.915844 -110.4596,15.43178 -110,16.28125 C -110.32087,15.122378 -112.67669,11.569417 -117,12 C -116.13534,8.124761 -120.18657,5.3827023 -121.39912,5.0143528 z" style="opacity:.87854249;fill:url(#linearGradient4273);fill-opacity:1;stroke:none;stroke-width:1;stroke-miterlimit:4;display:inline"/><path id="path3650" d="M -51.46875,4.5 C -52.051916,4.5 -52.5,4.9480842 -52.5,5.53125 L -52.5,42.46875 C -52.5,43.051915 -52.051914,43.5 -51.46875,43.5 L -20.53125,43.5 C -19.948085,43.5 -19.5,43.051914 -19.5,42.46875 C -19.5,42.46875 -19.5,19 -19.5,17.5 C -19.5,16.220971 -19.980469,13.394531 -21.6875,11.6875 C -23.6875,9.6875 -24.6875,8.6875 -26.6875,6.6875 C -28.394531,4.9804687 -31.220971,4.5 -32.5,4.5 C -34,4.5 -51.46875,4.5 -51.46875,4.5 z" style="fill:none;fill-opacity:1;stroke:url(#linearGradient4253);stroke-width:1;stroke-miterlimit:4;display:inline" transform="translate(-90,0)"/></g></g><g id="g14103"><path id="path2388" d="M 47.000506 9.3411446 A 8.341651 8.341651 0 1 1 30.317204,9.3411446 A 8.341651 8.341651 0 1 1 47.000506 9.3411446 z" style="fill:url(#radialGradient3271);fill-opacity:1;fill-rule:evenodd;stroke:none;stroke-width:1px;stroke-linecap:butt;stroke-linejoin:miter;stroke-opacity:1" transform="matrix(1.14985,0,0,1.14985,-7.595328,0.490895)"/><path id="path1345" d="M 44.520054,15.50279 C 44.012883,16.381236 39.925351,15.341967 38.998703,15.754538 C 38.072055,16.167108 36.109289,19.900142 35.117113,19.689249 C 34.124936,19.478355 33.850222,15.26973 33.171495,14.515926 C 32.492767,13.762123 28.335913,13.048993 28.229885,12.040207 C 28.123857,11.031421 32.041607,9.4696164 32.548778,8.5911701 C 33.055949,7.7127238 32.449637,3.5389508 33.376285,3.1263806 C 34.302933,2.7138103 36.998949,5.957187 37.991126,6.1680807 C 38.983302,6.3789743 42.765436,4.5125708 43.444163,5.2663741 C 44.122891,6.0201775 41.871371,9.5864995 41.977399,10.595285 C 42.083426,11.604071 45.027225,14.624343 44.520054,15.50279 z" style="opacity:1;color:#000;fill:#fff;fill-opacity:1;fill-rule:evenodd;stroke:none;stroke-width:.5;stroke-linecap:butt;stroke-linejoin:miter;marker:none;marker-start:none;marker-mid:none;marker-end:none;stroke-miterlimit:4;stroke-dasharray:none;stroke-dashoffset:0;stroke-opacity:1;visibility:visible;display:inline;overflow:visible" transform="matrix(0.674116,0.299577,-0.299577,0.674116,15.46413,-7.192469)"/></g></g></svg>