<svg height="48" width="48" xmlns="http://www.w3.org/2000/svg" xmlns:xlink="http://www.w3.org/1999/xlink">
  <linearGradient id="a">
    <stop offset="0" stop-color="#fff"/>
    <stop offset="1" stop-color="#fff" stop-opacity="0"/>
  </linearGradient>
  <linearGradient id="b" gradientUnits="userSpaceOnUse" x1="-26.753757" x2="-24.75" xlink:href="#a" y1="11.566258" y2="9.687501"/>
  <linearGradient id="c" gradientTransform="matrix(.9223058 0 0 .9185751 -92.447368 1.3257)" gradientUnits="userSpaceOnUse" x1="-18.588562" x2="-28.789402" y1="11.052948" y2="14.069944">
    <stop offset="0" stop-opacity=".412955"/>
    <stop offset="1" stop-opacity="0"/>
  </linearGradient>
  <radialGradient id="d" cx="-26.305403" cy="10.108011" gradientTransform="matrix(.4073362 -.2798276 .7510293 1.0932492 -115.18484 -8.43787)" gradientUnits="userSpaceOnUse" r="7.042104">
    <stop offset="0" stop-color="#fff"/>
    <stop offset=".47533694" stop-color="#fff"/>
    <stop offset="1" stop-color="#fff" stop-opacity="0"/>
  </radialGradient>
  <radialGradient id="e" cx="4" cy="5.3" gradientTransform="matrix(1.8860258 0 0 1.1764706 -3.544103 -4.235294)" gradientUnits="userSpaceOnUse" r="17" xlink:href="#a"/>
  <linearGradient id="f" gradientUnits="userSpaceOnUse" x1="-137.5" x2="-152.75" y1="49.020683" y2="-22.502075">
    <stop offset="0" stop-color="#888a85"/>
    <stop offset="1" stop-color="#babdb6"/>
  </linearGradient>
  <radialGradient id="g" cx="-30.249996" cy="35.357208" gradientTransform="matrix(3.9957492 0 0 1.9350367 .62141 -31.167422)" gradientUnits="userSpaceOnUse" r="18.000002">
    <stop offset="0" stop-color="#f6f6f5"/>
    <stop offset="1" stop-color="#d3d7cf"/>
  </radialGradient>
  <linearGradient id="h" gradientUnits="userSpaceOnUse" x1="25.058096" x2="25.058096" y1="47.027729" y2="39.999443">
    <stop offset="0" stop-opacity="0"/>
    <stop offset=".5"/>
    <stop offset="1" stop-opacity="0"/>
  </linearGradient>
  <radialGradient id="i" cx="4.992979" cy="43.5" gradientTransform="matrix(2.003784 0 0 1.4 -20.01187 -104.4)" gradientUnits="userSpaceOnUse" r="2.5" xlink:href="#k"/>
  <radialGradient id="j" cx="4.992979" cy="43.5" gradientTransform="matrix(2.003784 0 0 1.4 27.98813 -17.4)" gradientUnits="userSpaceOnUse" r="2.5" xlink:href="#k"/>
  <linearGradient id="k">
    <stop offset="0"/>
    <stop offset="1" stop-opacity="0"/>
  </linearGradient>
  <radialGradient id="l" cx="38.658855" cy="9.341145" gradientUnits="userSpaceOnUse" r="8.341651">
    <stop offset="0" stop-color="#fff"/>
    <stop offset=".25" stop-color="#fefede" stop-opacity=".918367"/>
    <stop offset=".5" stop-color="#f5f328"/>
    <stop offset="1" stop-color="#f5f32d" stop-opacity=".12234"/>
  </radialGradient>
  <metadata/>
  <rect height="48" opacity="0" width="48"/>
  <g transform="translate(150)">
    <g opacity=".262348" transform="matrix(1.1015037 0 0 1.14285601 -152.507514 -6.21424)">
      <rect fill="url(#j)" height="7" opacity="1" width="5" x="38" y="40"/>
      <rect fill="url(#i)" height="7" opacity="1" transform="scale(-1)" width="5" x="-10" y="-47"/>
      <rect fill="url(#h)" height="7.000001" opacity="1" width="28" x="10" y="40"/>
    </g>
    <g opacity=".4" transform="matrix(1.00510209 0 0 .71428583 -150.193882 12.428566)">
      <rect fill="url(#j)" height="7" opacity="1" width="5" x="38" y="40"/>
      <rect fill="url(#i)" height="7" opacity="1" transform="scale(-1)" width="5" x="-10" y="-47"/>
      <rect fill="url(#h)" height="7.000001" opacity="1" width="28" x="10" y="40"/>
    </g>
    <path d="m-141.47614 3.5h18.97614c3.87705.0729425 6.5 2.5 9 5s4.60768 5.252625 5 9v24.976142c0 1.121217-.90264 2.023858-2.02385 2.023858h-30.95229c-1.12122 0-2.02386-.902641-2.02386-2.023858v-36.952284c0-1.121217.90264-2.023858 2.02386-2.023858z" fill="url(#g)" stroke="url(#f)"/>
    <path d="m8.53125 4c-.8581697 0-1.53125.6730802-1.53125 1.53125v36.9375c0 .85817.6730802 1.53125 1.53125 1.53125h30.9375c.858169 0 1.53125-.673082 1.53125-1.53125 0 0 0-23.46875 0-24.96875 0-1.39197-.486979-4.299479-2.34375-6.15625-2-2-3-3-5-5-1.856771-1.8567708-4.76428-2.34375-6.15625-2.34375-1.5 0-18.96875 0-18.96875 0z" fill="url(#e)" opacity=".680162" transform="translate(-150)"/>
    <path d="m-122.5 4c-1.38889 0-.04207.4970883 1.34375 1.125s4.97288 3.2150517 4.15625 6.875c4.32331-.430583 6.67913 3.122378 7 4.28125s1 2.607639 1 1.21875c.02833-3.805581-2.84543-6.431701-4.84375-8.65625-1.99832-2.2245488-5.00246-4.3669885-8.65625-4.84375z" fill="url(#d)"/>
    <path d="m-121.39912 5.0143528c.9223 0 3.00844 6.1956622 2.08614 10.3292502 4.29496-.427759 8.85338.088177 9.31298.937647-.32087-1.158872-2.67669-4.711833-7-4.28125.86466-3.875239-3.18657-6.6172977-4.39912-6.9856472z" fill="url(#c)" opacity=".878542"/>
    <path d="m-51.46875 4.5c-.583166 0-1.03125.4480842-1.03125 1.03125v36.9375c0 .583165.448086 1.03125 1.03125 1.03125h30.9375c.583165 0 1.03125-.448086 1.03125-1.03125 0 0 0-23.46875 0-24.96875 0-1.279029-.480469-4.105469-2.1875-5.8125-2-2-3-3-5-5-1.707031-1.7070313-4.533471-2.1875-5.8125-2.1875-1.5 0-18.96875 0-18.96875 0z" fill="none" stroke="url(#b)" transform="translate(-90)"/>
  </g>
  <g fill-rule="evenodd">
    <path d="m47.000506 9.3411446a8.341651 8.341651 0 1 1 -16.683302 0 8.341651 8.341651 0 1 1 16.683302 0z" fill="url(#l)" transform="matrix(1.14985 0 0 1.14985 -7.595328 .490895)"/>
    <path d="m44.520054 15.50279c-.507171.878446-4.594703-.160823-5.521351.251748-.926648.41257-2.889414 4.145604-3.88159 3.934711-.992177-.210894-1.266891-4.419519-1.945618-5.173323-.678728-.753803-4.835582-1.466933-4.94161-2.475719s3.811722-2.5705906 4.318893-3.4490369-.099141-5.0522193.827507-5.4647895c.926648-.4125703 3.622664 2.8308064 4.614841 3.0417001.992176.2108936 4.77431-1.6555099 5.453037-.9017066.678728.7538034-1.572792 4.3201254-1.466764 5.3289109.106027 1.008786 3.049826 4.029058 2.542655 4.907505z" fill="#fff" transform="matrix(.674116 .299577 -.299577 .674116 15.46413 -7.192469)"/>
  </g>
</svg>
