<svg height="128" width="128" xmlns="http://www.w3.org/2000/svg" xmlns:xlink="http://www.w3.org/1999/xlink">
  <filter id="a" height="1.201482" width="1.226667" x="-.113333" y="-.100741">
    <feGaussianBlur stdDeviation="1.5111111"/>
  </filter>
  <filter id="b">
    <feGaussianBlur stdDeviation="3.6378601"/>
  </filter>
  <linearGradient id="c" gradientUnits="userSpaceOnUse" x1="88.388351" x2="99.525276" y1="94.942757" y2="103.95837">
    <stop offset="0" stop-color="#fff7d8"/>
    <stop offset="1" stop-color="#ffeca0"/>
  </linearGradient>
  <metadata/>
  <g transform="translate(0 64)">
    <path d="m16 8h96v76c-9.14072 13.804136-19.955033 25.58254-32 36h-64z" filter="url(#b)" transform="translate(0 -64)"/>
    <path d="m16 8h96v76c-9.14072 13.804136-19.955033 25.58254-32 36h-64z" fill="#fff6d3" transform="translate(0 -64)"/>
    <path d="m68-28h36v56l-16 20h-20z" fill="none"/>
    <path d="m24 36h36v36h-36z" fill="#fff6d3" transform="translate(0 -64)"/>
    <path d="m68 36h36v57l-16 19h-20z" fill="#fff6d3" transform="translate(0 -64)"/>
    <path d="m85.522922 28.087287c10.776129-2.237495 16.459218-3.968982 24.927058-7.162436-9.14072 13.804136-18.717599 23.637996-30.762566 34.055456 3.811966-12.352483 6.400335-21.215422 5.835508-26.89302z" filter="url(#a)" opacity=".411765"/>
    <g fill="#008000" transform="scale(1.3146517 .76065775)">
      <path d="m30.25786-47.327461h-2.845319l-6.874782-17.090472v17.090472h-2.281973v-21.034427h3.042631l6.84592 17.090472v-17.090472h2.281973v21.034427"/>
      <path d="m37.27223-56.530023v6.573259h7.606577l.818953 2.629303h-10.707504v-21.034427h10.649209l-.760658 2.629303h-7.606577l.0038 6.512419h7.602816l-.000039 2.690143"/>
      <path d="m60.091962-50.290057.760658-18.071831h2.281973l-1.521316 21.034427h-3.04263l-2.281974-7.88791-2.277041 7.88791h-3.047563l-1.61189-21.034427h2.368129l.765077 18.405124 3.042631-9.202562h1.521315z"/>
      <path d="m67.201805-51.228789c1.498704 1.191317 3.283103 1.786974 5.3532 1.786972 1.124022.000002 1.990463-.331929 2.599324-.995793.608839-.672953.913263-1.586899.913275-2.741842-.000012-.336472-.04684-.650214-.140504-.941229-.08431-.291-.192033-.545633-.323158-.763896-.13115-.218249-.318487-.431957-.562017-.641127-.234183-.209154-.449623-.377393-.646317-.504718-.196716-.1364-.45899-.281905-.786822-.436511-.318486-.15459-.585443-.272812-.800874-.354666-.206079-.08183-.487089-.190965-.843023-.327385-.346583-.1364-.604173-.240981-.772772-.313742-.580755-.236435-1.067835-.445597-1.461242-.627488-.384048-.190962-.810244-.450141-1.278584-.777536-.468351-.327373-.843028-.668397-1.124032-1.023075-.28101-.354653-.519866-.795713-.716571-1.323177-.187339-.536533-.281009-1.127643-.281007-1.773331-.000002-1.700561.594798-3.019191 1.784399-3.955891 1.189595-.945755 2.721087-1.418643 4.594479-1.418664 2.360456.000021 4.201056.504737 5.521806 1.514151l-.983527 1.964305c-1.217713-.918476-2.683637-1.377724-4.397774-1.377741-1.105305.000017-1.985796.295573-2.641474.886664-.646325.582034-.969483 1.386852-.969477 2.414458-.000006.400151.08429.773005.252905 1.118562.168601.336492.369989.618405.604168.845743.234168.218269.543277.436525.927327.654768.393404.218268.735296.386507 1.025679.504717.290365.109139.66036.250096 1.10998.422871.449605.163703.777446.291019.983528.381948.562005.245549 1.044402.472898 1.44719.682049.402767.20008.833645.472899 1.292638.81846.468332.336489.847692.691155 1.13808 1.064.290362.372862.529218.832109.716571 1.377741.196691.536553.295042 1.123115.295058 1.75969-.000016 1.955213-.585447 3.446628-1.756299 4.474248-1.161511 1.018529-2.753887 1.527792-4.777134 1.527793-2.519709-.000001-4.6179-.541094-6.294577-1.623281z"/>
    </g>
    <path d="m88.181818 93.090909c12.190342-1.353611 16.764562-5.543902 23.818182-9.090909-9.14072 13.804136-19.955033 25.58254-32 36 4.69585-10.93827 8.746645-21.231493 8.181818-26.909091z" fill="url(#c)" transform="translate(0 -64)"/>
    <rect fill="#accc74" height="36" width="36" x="24" y="12"/>
    <g fill="#333" transform="matrix(.60097005 0 0 .60097012 3.508811 25.221343)">
      <rect height="16" width="16" x="40" y="-16"/>
      <rect height="16" width="16" x="72" y="-16"/>
      <path d="m56 64v8h-8v24h8v-8h16v8h8v-24h-8v-8z" transform="translate(0 -64)"/>
    </g>
    <g fill="none">
      <path d="m24 32h80" stroke="#000" transform="translate(0 -64)"/>
      <rect height="36.058208" stroke="#666" stroke-width=".901455" width="36.058205" x="23.941793" y="12"/>
      <rect height="32" width="36" x="24" y="-28"/>
    </g>
  </g>
</svg>
