<svg height="64" width="64" xmlns="http://www.w3.org/2000/svg" xmlns:xlink="http://www.w3.org/1999/xlink">
  <linearGradient id="a">
    <stop offset="0" stop-color="#f6f6f6"/>
    <stop offset=".75714284" stop-color="#494949"/>
    <stop offset="1" stop-color="#2c2c2c"/>
  </linearGradient>
  <linearGradient id="b">
    <stop offset="0" stop-color="#333"/>
    <stop offset="1" stop-color="#c8c8c8"/>
  </linearGradient>
  <radialGradient id="c" cx="24" cy="16" gradientTransform="matrix(1.1497507 1.7246237 -1.4656488 .97709922 19.856365 -41.024557)" gradientUnits="userSpaceOnUse" r="16.375">
    <stop offset="0" stop-color="#36c536"/>
    <stop offset=".75714284" stop-color="#1f721f"/>
    <stop offset="1" stop-color="#134513"/>
  </radialGradient>
  <linearGradient id="d" gradientTransform="matrix(1.5 0 0 1 -16 0)" gradientUnits="userSpaceOnUse" x1="30" x2="34" xlink:href="#b" y1="1033.8622" y2="1033.8622"/>
  <linearGradient id="e" gradientTransform="matrix(.82142857 0 0 1.500001 6.714286 -522.68214)" gradientUnits="userSpaceOnUse" x1="32" x2="32" xlink:href="#b" y1="1043.3622" y2="1039.3622"/>
  <radialGradient id="f" cx="30.724609" cy="1039.813" gradientTransform="matrix(2.9033547 2.9862934 -4.666644 3.3333362 4792.8997 -2518.4369)" gradientUnits="userSpaceOnUse" r="3" xlink:href="#a"/>
  <radialGradient id="g" cx="30.724609" cy="1039.813" gradientTransform="matrix(2.5191507 2.9862959 -4.0491019 3.333339 4186.8847 -2518.44)" gradientUnits="userSpaceOnUse" r="3" xlink:href="#a"/>
  <radialGradient id="h" cx="30.724609" cy="1039.813" gradientTransform="matrix(-2.5191507 2.9863064 4.0491022 3.3333507 -4122.8849 -2518.4524)" gradientUnits="userSpaceOnUse" r="3" xlink:href="#a"/>
  <radialGradient id="i" cx="31.964285" cy="25.25" gradientTransform="matrix(.97517967 .03814675 -.04025373 1.0289295 1.809772 -1.949805)" gradientUnits="userSpaceOnUse" r="19.25">
    <stop offset="0" stop-color="#fff" stop-opacity="0"/>
    <stop offset=".69999999" stop-color="#fff" stop-opacity=".180392"/>
    <stop offset="1" stop-color="#fff" stop-opacity=".361111"/>
  </radialGradient>
  <metadata/>
  <g transform="translate(0 -988.36218)">
    <g stroke="#000" stroke-width=".75">
      <rect fill="url(#d)" height="13.000005" rx=".707105" width="6" x="29" y="1027.3622"/>
      <rect fill="url(#e)" height="6.000008" rx=".707105" width="46" x="10" y="1036.3622"/>
      <rect fill="url(#c)" height="32" rx=".707105" transform="translate(0 988.36218)" width="32" x="16" y="8"/>
    </g>
    <g fill="#112b00">
      <rect height="6" width="6" x="23" y="1003.3622"/>
      <rect height="6" width="6" x="35" y="1003.3622"/>
      <path d="m29 1009.3622v3h-3v9h3v-3h6v3h3v-9h-3v-3z"/>
    </g>
    <rect height="2.999996" width="6" x="29" y="1009.3622"/>
    <rect height="2.999996" width="3" x="26" y="1012.3622"/>
    <rect height="2.999996" width="3" x="35" y="1012.3622"/>
    <path d="m35 1003.3622v6h3v-3h3v-3h-3z"/>
    <path d="m23 1003.3622v3 3h3v-3h3v-3h-3z"/>
    <g stroke="#000">
      <rect fill="url(#f)" height="8.000005" rx=".707105" stroke-width=".763763" width="14" x="25" y="1035.3622"/>
      <path d="m51 1035.3622h5l6.073683 4-6.073683 4h-5c-.59482 0-1.073683-.4205-1.073683-.9428v-6.1144c0-.5223.478876-.9428 1.073683-.9428z" fill="url(#g)" stroke-width=".711436"/>
      <path d="m13 1035.3622h-5l-6.0736829 4 6.0736829 4h5c.59482 0 1.073683-.4205 1.073683-.9428v-6.1144c0-.5223-.478877-.9428-1.073683-.9428z" fill="url(#h)" stroke-width=".711437"/>
      <rect fill="url(#i)" height="38" rx=".707105" stroke-width=".5" transform="translate(0 988.36218)" width="38" x="13" y="5"/>
    </g>
  </g>
</svg>
