<svg xmlns="http://www.w3.org/2000/svg" xmlns:svg="http://www.w3.org/2000/svg" xmlns:xlink="http://www.w3.org/1999/xlink" id="svg2" width="64" height="64" version="1.1"><defs id="defs4"><linearGradient id="linearGradient3931"><stop id="stop3933" style="stop-color:#fff;stop-opacity:0" offset="0"/><stop id="stop3939" style="stop-color:#fff;stop-opacity:.18039216" offset=".7"/><stop id="stop3935" style="stop-color:#fff;stop-opacity:.3611111" offset="1"/></linearGradient><linearGradient id="linearGradient3900"><stop id="stop3902" style="stop-color:#f6f6f6;stop-opacity:1" offset="0"/><stop id="stop3904" style="stop-color:#494949;stop-opacity:1" offset=".757"/><stop id="stop3906" style="stop-color:#2c2c2c;stop-opacity:1" offset="1"/></linearGradient><linearGradient id="linearGradient3808"><stop id="stop3810" style="stop-color:#333;stop-opacity:1" offset="0"/><stop id="stop3812" style="stop-color:#c8c8c8;stop-opacity:1" offset="1"/></linearGradient><linearGradient id="linearGradient3030"><stop id="stop3032" style="stop-color:#36c536;stop-opacity:1" offset="0"/><stop id="stop3038" style="stop-color:#1f721f;stop-opacity:1" offset=".757"/><stop id="stop3034" style="stop-color:#134513;stop-opacity:1" offset="1"/></linearGradient><radialGradient id="radialGradient3036" cx="24" cy="16" r="16.375" fx="24" fy="16" gradientTransform="matrix(1.1497507,1.7246237,-1.4656488,0.97709922,19.856365,-41.024557)" gradientUnits="userSpaceOnUse" xlink:href="#linearGradient3030"/><linearGradient id="linearGradient3824" x1="30" x2="34" y1="1033.862" y2="1033.862" gradientTransform="matrix(1.5,0,0,1,-16,0)" gradientUnits="userSpaceOnUse" xlink:href="#linearGradient3808"/><linearGradient id="linearGradient3834" x1="32" x2="32" y1="1043.362" y2="1039.362" gradientTransform="matrix(0.82142857,0,0,1.500001,6.7142857,-522.68214)" gradientUnits="userSpaceOnUse" xlink:href="#linearGradient3808"/><radialGradient id="radialGradient3844" cx="30.725" cy="1039.813" r="3" fx="30.725" fy="1039.813" gradientTransform="matrix(2.9033547,2.9862934,-4.666644,3.3333362,4792.8997,-2518.4369)" gradientUnits="userSpaceOnUse" xlink:href="#linearGradient3900"/><radialGradient id="radialGradient3852" cx="30.725" cy="1039.813" r="3" fx="30.725" fy="1039.813" gradientTransform="matrix(2.5191507,2.9862959,-4.0491019,3.333339,4186.8847,-2518.44)" gradientUnits="userSpaceOnUse" xlink:href="#linearGradient3900"/><radialGradient id="radialGradient3857" cx="30.725" cy="1039.813" r="3" fx="30.725" fy="1039.813" gradientTransform="matrix(-2.5191507,2.9863064,4.0491022,3.3333507,-4122.8849,-2518.4524)" gradientUnits="userSpaceOnUse" xlink:href="#linearGradient3900"/><radialGradient id="radialGradient3937" cx="31.964" cy="25.25" r="19.25" fx="31.964" fy="25.25" gradientTransform="matrix(0.97517967,0.03814675,-0.04025373,1.0289295,1.809772,-1.9498045)" gradientUnits="userSpaceOnUse" xlink:href="#linearGradient3931"/></defs><metadata id="metadata7"/><g id="layer1" transform="translate(0,-988.36218)"><rect id="rect3028" width="6" height="13" x="29" y="1027.362" rx=".707" ry=".707" style="color:#000;fill:url(#linearGradient3824);fill-opacity:1;fill-rule:nonzero;stroke:#000;stroke-width:.75;marker:none;visibility:visible;display:inline;overflow:visible;enable-background:accumulate"/><rect id="rect2991" width="46" height="6" x="10" y="1036.362" rx=".707" ry=".707" style="color:#000;fill:url(#linearGradient3834);fill-opacity:1;fill-rule:nonzero;stroke:#000;stroke-width:.75;marker:none;visibility:visible;display:inline;overflow:visible;enable-background:accumulate"/><rect id="rect2997" width="32" height="32" x="16" y="8" rx=".707" ry=".707" transform="translate(0,988.36218)" style="color:#000;fill:url(#radialGradient3036);fill-opacity:1;fill-rule:nonzero;stroke:#000;stroke-width:.75;stroke-opacity:1;marker:none;visibility:visible;display:inline;overflow:visible;enable-background:accumulate"/><rect id="rect3001" width="6" height="6" x="23" y="1003.362" style="color:#000;fill:#112b00;fill-opacity:1;fill-rule:nonzero;stroke:none;stroke-width:.75;marker:none;visibility:visible;display:inline;overflow:visible;enable-background:accumulate"/><rect id="rect3003" width="6" height="6" x="35" y="1003.362" style="color:#000;fill:#112b00;fill-opacity:1;fill-rule:nonzero;stroke:none;stroke-width:.75;marker:none;visibility:visible;display:inline;overflow:visible;enable-background:accumulate"/><path id="rect3005" d="m 29,1009.3622 0,3 -3,0 0,9 3,0 0,-3 6,0 0,3 3,0 0,-9 -3,0 0,-3 -6,0 z" style="color:#000;fill:#112b00;fill-opacity:1;fill-rule:nonzero;stroke:none;stroke-width:.75;marker:none;visibility:visible;display:inline;overflow:visible;enable-background:accumulate"/><rect id="rect3011" width="6" height="3" x="29" y="1009.362" style="color:#000;fill:#000;fill-opacity:1;fill-rule:nonzero;stroke:none;stroke-width:.75;marker:none;visibility:visible;display:inline;overflow:visible;enable-background:accumulate"/><rect id="rect3013" width="3" height="3" x="26" y="1012.362" style="color:#000;fill:#000;fill-opacity:1;fill-rule:nonzero;stroke:none;stroke-width:.75;marker:none;visibility:visible;display:inline;overflow:visible;enable-background:accumulate"/><rect id="rect3015" width="3" height="3" x="35" y="1012.362" style="color:#000;fill:#000;fill-opacity:1;fill-rule:nonzero;stroke:none;stroke-width:.75;marker:none;visibility:visible;display:inline;overflow:visible;enable-background:accumulate"/><path id="rect3017" d="m 35,1003.3622 0,6 3,0 0,-3 3,0 0,-3 -3,0 -3,0 z" style="color:#000;fill:#000;fill-opacity:1;fill-rule:nonzero;stroke:none;stroke-width:.75;marker:none;visibility:visible;display:inline;overflow:visible;enable-background:accumulate"/><path id="rect3021" d="m 23,1003.3622 0,3 0,3 3,0 0,-3 3,0 0,-3 -3,0 -3,0 z" style="color:#000;fill:#000;fill-opacity:1;fill-rule:nonzero;stroke:none;stroke-width:.75;marker:none;visibility:visible;display:inline;overflow:visible;enable-background:accumulate"/><rect id="rect3836" width="14" height="8" x="25" y="1035.362" rx=".707" ry=".707" style="color:#000;fill:url(#radialGradient3844);fill-opacity:1;fill-rule:nonzero;stroke:#000;stroke-width:.76376289;marker:none;visibility:visible;display:inline;overflow:visible;enable-background:accumulate"/><path id="rect3850" d="m 51,1035.3622 5,0 6.073683,4 -6.073683,4 -5,0 c -0.59482,0 -1.073683,-0.4205 -1.073683,-0.9428 l 0,-6.1144 c 0,-0.5223 0.478876,-0.9428 1.073683,-0.9428 z" style="color:#000;fill:url(#radialGradient3852);fill-opacity:1;fill-rule:nonzero;stroke:#000;stroke-width:.71143585;marker:none;visibility:visible;display:inline;overflow:visible;enable-background:accumulate"/><path id="path3855" d="m 13,1035.3622 -5,0 -6.0736829,4 6.0736829,4 5,0 c 0.59482,0 1.073683,-0.4205 1.073683,-0.9428 l 0,-6.1144 c 0,-0.5223 -0.478877,-0.9428 -1.073683,-0.9428 z" style="color:#000;fill:url(#radialGradient3857);fill-opacity:1;fill-rule:nonzero;stroke:#000;stroke-width:.71143711;marker:none;visibility:visible;display:inline;overflow:visible;enable-background:accumulate"/><rect id="rect3927" width="38" height="38" x="13" y="5" rx=".707" ry=".707" transform="translate(0,988.36218)" style="color:#000;fill:url(#radialGradient3937);fill-opacity:1;fill-rule:nonzero;stroke:#000;stroke-width:.5;stroke-miterlimit:4;stroke-opacity:1;stroke-dasharray:none;marker:none;visibility:visible;display:inline;overflow:visible;enable-background:accumulate"/></g></svg>