<?xml version="1.0" encoding="UTF-8" standalone="no"?>
<svg
   width="32"
   height="32"
   version="1.1"
   id="svg610"
   sodipodi:docname="quilt-loader.svg"
   inkscape:version="1.2.2 (b0a8486541, 2022-12-01)"
   xmlns:inkscape="http://www.inkscape.org/namespaces/inkscape"
   xmlns:sodipodi="http://sodipodi.sourceforge.net/DTD/sodipodi-0.dtd"
   xmlns="http://www.w3.org/2000/svg"
   xmlns:svg="http://www.w3.org/2000/svg">
  <defs
     id="defs614" />
  <sodipodi:namedview
     id="namedview612"
     pagecolor="#ffffff"
     bordercolor="#666666"
     borderopacity="1.0"
     inkscape:showpageshadow="2"
     inkscape:pageopacity="0.0"
     inkscape:pagecheckerboard="0"
     inkscape:deskcolor="#d1d1d1"
     showgrid="false"
     inkscape:zoom="9.27"
     inkscape:cx="5.1240561"
     inkscape:cy="18.662352"
     inkscape:window-width="1920"
     inkscape:window-height="1011"
     inkscape:window-x="0"
     inkscape:window-y="32"
     inkscape:window-maximized="1"
     inkscape:current-layer="svg610" />
  <path
     d="m 9.6700715,5.9303528 c 0,0.2594651 0.2143021,0.4737672 0.4737675,0.4737672 h 0.805847 V 8.2026643 H 10.143839 A 0.4719961,0.4719961 0 0 0 9.6833547,8.6764315 c 0,0.2568083 0.2036756,0.4675683 0.4604843,0.4711105 h 0.805847 v 1.383223 c 0,0.232013 -0.186851,0.418863 -0.418864,0.418863 H 9.1511414 V 10.143781 A 0.4719961,0.4719961 0 0 0 8.6764887,9.6700142 0.4719961,0.4719961 0 0 0 8.2027215,10.143781 v 0.805847 H 6.4050628 v -0.805847 a 0.47465274,0.47465274 0 1 0 -0.9484199,0 v 0.805847 H 4.0760764 A 0.42063442,0.42063442 0 0 1 3.6545565,10.530765 V 4.0760192 c 0,-0.2320131 0.1895068,-0.42152 0.4215199,-0.42152 h 6.4556316 c 0.230242,0 0.417978,0.1895069 0.417978,0.42152 v 1.381452 H 10.143839 A 0.4719961,0.4719961 0 0 0 9.6700715,5.9312384 Z m 0,0"
     style="fill:#9722ff;fill-opacity:1;fill-rule:nonzero;stroke:none;stroke-width:0.885546"
     id="path592" />
  <path
     d="m 17.912735,5.9303528 c 0,0.2594651 0.21076,0.4737672 0.473767,0.4737672 h 0.805847 v 1.7985443 h -0.805847 a 0.47288164,0.47288164 0 0 0 0,0.9448777 h 0.805847 v 1.383223 c 0,0.232013 -0.185964,0.418863 -0.417978,0.418863 H 12.316083 A 0.41797778,0.41797778 0 0 1 11.89722,10.530765 V 9.147542 h 0.805847 a 0.46579728,0.46579728 0 0 0 0.418863,-0.2320131 0.47819492,0.47819492 0 0 0 0,-0.4808515 0.46579728,0.46579728 0 0 0 -0.418863,-0.2320131 H 11.89722 V 6.4050056 h 0.805847 A 0.47553828,0.47553828 0 0 0 13.12193,5.6877132 0.46579728,0.46579728 0 0 0 12.703067,5.4565857 H 11.89722 V 4.0760192 a 0.42151997,0.42151997 0 0 1 0.418863,-0.4224055 h 6.454746 c 0.232013,0 0.418864,0.1903924 0.418864,0.4224055 v 1.381452 h -0.805847 a 0.4719961,0.4719961 0 0 0 -0.471111,0.4737672 z m 0,0"
     style="fill:#dc29dd;fill-opacity:1;fill-rule:nonzero;stroke:none;stroke-width:0.885546"
     id="path594" />
  <path
     d="m 27.432356,4.0760192 v 6.4556318 c 0,0.230242 -0.185965,0.417977 -0.418863,0.417977 H 25.633812 V 10.143781 A 0.48173711,0.48173711 0 0 0 25.398257,9.7213759 0.47111055,0.47111055 0 0 0 24.685392,10.143781 v 0.805847 h -1.797659 v -0.805847 a 0.48173711,0.48173711 0 0 0 -0.235555,-0.4224051 0.47819492,0.47819492 0 0 0 -0.480852,0 0.47819492,0.47819492 0 0 0 -0.232013,0.4224051 v 0.805847 h -1.380566 a 0.42329106,0.42329106 0 0 1 -0.42152,-0.418863 V 9.1510842 h 0.809389 A 0.47553828,0.47553828 0 0 0 21.365479,8.4346774 0.47288164,0.47288164 0 0 0 20.946616,8.2026643 H 20.137227 V 6.4050056 h 0.809389 a 0.47420996,0.47420996 0 0 0 0,-0.9484199 H 20.137227 V 4.0760192 c 0,-0.2320131 0.190392,-0.42152 0.42152,-0.42152 h 6.455631 c 0.231128,0 0.417978,0.1895069 0.417978,0.42152 z m 0,0"
     style="fill:#27a2fd;fill-opacity:1;fill-rule:nonzero;stroke:none;stroke-width:0.885546"
     id="path596" />
  <path
     d="m 10.949686,12.316026 v 6.454746 c 0,0.232013 -0.186851,0.418863 -0.418864,0.418863 H 9.1511414 v -0.805847 a 0.47465274,0.47465274 0 0 0 -0.9475344,0 v 0.805847 H 6.4032917 V 18.383788 A 0.47553828,0.47553828 0 0 0 5.6868849,17.964925 0.47288164,0.47288164 0 0 0 5.4557573,18.382903 V 19.18875 H 4.0760764 A 0.42063442,0.42063442 0 0 1 3.6545565,18.770772 v -6.455631 c 0,-0.230242 0.1895068,-0.417978 0.4215199,-0.417978 h 1.381452 v 0.805847 a 0.4737672,0.4737672 0 0 0 0.9475344,0 v -0.805847 h 1.7976587 v 0.805847 a 0.47243887,0.47243887 0 1 0 0.9448777,0 v -0.805847 h 1.3832228 a 0.41886333,0.41886333 0 0 1 0.418864,0.418863 z m 0,0"
     style="fill:#dc29dd;fill-opacity:1;fill-rule:nonzero;stroke:none;stroke-width:0.885546"
     id="path598" />
  <path
     d="m 17.912735,14.17036 a 0.47376719,0.47376719 0 0 0 0.473767,0.473767 h 0.805847 v 1.798544 h -0.805847 a 0.47465274,0.47465274 0 0 0 0,0.947535 h 0.805847 v 1.380566 c 0,0.232013 -0.185964,0.418863 -0.417978,0.418863 h -1.384108 v -0.805847 a 0.48173711,0.48173711 0 0 0 -0.23467,-0.422405 0.47819492,0.47819492 0 0 0 -0.480851,0 0.48527929,0.48527929 0 0 0 -0.232014,0.42152 v 0.805847 h -1.798544 v -0.805847 a 0.4719961,0.4719961 0 0 0 -0.473767,-0.473767 0.4719961,0.4719961 0 0 0 -0.474653,0.473767 V 19.18875 H 12.316083 A 0.43391761,0.43391761 0 0 1 12.01854,19.068316 0.43391761,0.43391761 0 0 1 11.89722,18.770772 v -6.455631 c 0,-0.230242 0.18685,-0.417978 0.418863,-0.417978 h 6.454746 c 0.232013,0 0.418864,0.18685 0.418864,0.418863 v 1.379681 h -0.805847 a 0.47376719,0.47376719 0 0 0 -0.471111,0.474653 z m 0,0"
     style="fill:#27a2fd;fill-opacity:1;fill-rule:nonzero;stroke:none;stroke-width:0.885546"
     id="path600" />
  <path
     d="m 27.432356,12.316026 v 6.454746 c 0,0.232013 -0.185965,0.418863 -0.418863,0.418863 h -6.454746 a 0.42063442,0.42063442 0 0 1 -0.42152,-0.418863 v -1.380566 h 0.805847 a 0.47730938,0.47730938 0 0 0 0.422405,-0.715522 0.48173711,0.48173711 0 0 0 -0.422405,-0.232013 h -0.805847 v -1.798544 h 0.805847 a 0.47730938,0.47730938 0 0 0 0.422405,-0.235555 0.4719961,0.4719961 0 0 0 0,-0.47731 0.47730938,0.47730938 0 0 0 -0.422405,-0.235555 h -0.805847 v -1.379681 c 0,-0.232013 0.190392,-0.418863 0.42152,-0.418863 h 1.380566 v 0.805847 a 0.46933946,0.46933946 0 0 0 0.470225,0.460484 c 0.259465,0 0.467569,-0.203676 0.473768,-0.460484 v -0.805847 h 1.799429 v 0.805847 a 0.4737675,0.4737675 0 0 0 0.947535,0 v -0.805847 h 1.380566 a 0.41886333,0.41886333 0 0 1 0.42152,0.418863 z m 0,0"
     style="fill:#3344ff;fill-opacity:1;fill-rule:nonzero;stroke:none;stroke-width:0.885546"
     id="path602" />
  <path
     d="m 9.6700715,22.413023 c 0,0.259465 0.2143021,0.470225 0.4737675,0.470225 h 0.805847 v 1.802972 h -0.805847 a 0.47376719,0.47376719 0 0 0 -0.4737675,0.46934 c 0,0.263893 0.2143021,0.474653 0.4737675,0.474653 h 0.805847 v 1.380566 c 0,0.231128 -0.186851,0.42152 -0.418864,0.42152 H 4.0760764 A 0.42329106,0.42329106 0 0 1 3.6545565,27.010779 V 20.55869 c 0,-0.231128 0.1895068,-0.42152 0.4215199,-0.42152 h 1.381452 v 0.805847 a 0.46225509,0.46225509 0 0 0 0.2311276,0.418863 0.46225509,0.46225509 0 0 0 0.4808515,0 0.4719961,0.4719961 0 0 0 0.2355553,-0.418863 V 20.13717 h 1.7976587 v 0.805847 a 0.47243887,0.47243887 0 1 0 0.9448777,0 V 20.13717 h 1.3832228 c 0.232013,0 0.418864,0.190392 0.418864,0.42152 v 1.377024 h -0.805847 a 0.47819492,0.47819492 0 0 0 -0.4737675,0.478195 z m 0,0"
     style="fill:#9722ff;fill-opacity:1;fill-rule:nonzero;stroke:none;stroke-width:0.885546"
     id="path604" />
  <path
     d="m 19.189693,20.55869 v 6.455631 c 0,0.231128 -0.186851,0.417978 -0.418864,0.417978 H 12.315198 A 0.41797778,0.41797778 0 0 1 11.89722,27.013436 v -1.379681 h 0.805847 a 0.4737675,0.4737675 0 0 0 0,-0.947535 H 11.89722 v -1.799429 h 0.805847 A 0.47553828,0.47553828 0 0 0 13.12193,22.171269 0.46579728,0.46579728 0 0 0 12.703067,21.939256 H 11.89722 V 20.55869 a 0.42151997,0.42151997 0 0 1 0.418863,-0.422406 h 1.379681 v 0.806733 c 0,0.263007 0.211646,0.473767 0.474653,0.473767 a 0.4719961,0.4719961 0 0 0 0.473767,-0.473767 V 20.13717 h 1.798544 v 0.805847 a 0.47553828,0.47553828 0 0 0 0.232014,0.418863 0.46225509,0.46225509 0 0 0 0.480851,0 0.4719961,0.4719961 0 0 0 0.23467,-0.418863 V 20.13717 h 1.380566 a 0.42151997,0.42151997 0 0 1 0.418864,0.42152 z m 0,0"
     style="fill:#3344ff;fill-opacity:1;fill-rule:nonzero;stroke:none;stroke-width:0.885546"
     id="path606" />
  <path
     d="m 20.43477,24.997047 4.562334,-4.562334 a 0.42417661,0.42417661 0 0 1 0.595087,0 l 4.562334,4.562334 a 0.41797778,0.41797778 0 0 1 0,0.595087 l -4.562334,4.562334 a 0.41797778,0.41797778 0 0 1 -0.595087,0 L 20.43477,25.592134 a 0.42417661,0.42417661 0 0 1 0,-0.595087 z m 0,0"
     style="fill:#9722ff;fill-opacity:1;fill-rule:nonzero;stroke:none;stroke-width:0.885546"
     id="path608" />
</svg>
