<svg xmlns="http://www.w3.org/2000/svg" xmlns:svg="http://www.w3.org/2000/svg" id="svg21775" width="360" height="360" x="0" y="0" enable-background="new 0 0 120 40" version="1.1" viewBox="0 0 360 360" xml:space="preserve"><metadata id="metadata21839"/><g id="Layer_2" transform="matrix(12.584949,0,0,12.584949,-584.34689,27.734702)"><circle id="circle21800" cx="49.684" cy="11.836" r="2.702" style="fill:#fff;stroke:#000;stroke-width:1.10000002"/><circle id="circle21802" cx="71.786" cy="11.836" r="2.702" style="fill:#fff;stroke:#000;stroke-width:1.10000002"/><path id="path21804" d="m 68.226,2.352 c 0,0 0,0 -5.404,-1.272 l -1.986,6.278" style="fill:none;stroke:#000;stroke-width:1.10000002;stroke-linecap:round;stroke-linejoin:round"/><circle id="circle21808" cx="70.431" cy="2.789" r="2.13" style="fill:#fff;stroke:#000;stroke-width:1.10000002"/><ellipse id="ellipse21820" cx="60.676" cy="15.552" rx="12.238" ry="7.987" style="fill:#fff;stroke:#000;stroke-width:1.10000002"/><g id="g21824"><path style="fill:#ff4500;stroke:none" id="circle21826" d="m 135.90625,159.65625 c -13.67995,0 -25.15625,11.4763 -25.15625,25.15625 0,13.67995 11.4763,24.78125 25.15625,24.78125 13.67995,0 24.78125,-11.1013 24.78125,-24.78125 0,-13.67995 -11.1013,-25.15625 -24.78125,-25.15625 z" transform="matrix(0.07946,0,0,0.07946,45.637601,-0.68559946)"/><path style="fill:#ff4500;stroke:none" id="circle21828" d="m 244.46875,159.65625 c -13.68691,0 -25.1875,11.46934 -25.1875,25.15625 0,13.68691 11.50059,24.78125 25.1875,24.78125 13.68692,0 24.78125,-11.09434 24.78125,-24.78125 0,-13.68691 -11.09433,-25.15625 -24.78125,-25.15625 z" transform="matrix(0.07946,0,0,0.07946,45.637601,-0.68559946)"/><path id="path21830" d="m 56.507,19.229 c 1.066,1.066 2.786,1.271 4.212,1.271" style="fill:none;stroke:#000;stroke-width:1.10000002;stroke-linecap:round"/><path id="path21832" d="M 64.963,19.229 C 63.896,20.295 62.177,20.5 60.75,20.5" style="fill:none;stroke:#000;stroke-width:1.10000002;stroke-linecap:round"/></g><circle style="fill:#fff;stroke:#000;stroke-width:1.10000002" id="circle4162" cx="49.684" cy="11.836" r="2.702"/><circle style="fill:#fff;stroke:#000;stroke-width:1.10000002" id="circle4164" cx="71.786" cy="11.836" r="2.702"/><path style="fill:none;stroke:#000;stroke-width:1.10000002;stroke-linecap:round;stroke-linejoin:round" id="path4166" d="m 68.226,2.352 c 0,0 0,0 -5.404,-1.272 l -1.986,6.278"/><circle style="fill:#fff;stroke:#000;stroke-width:1.10000002" id="circle4168" cx="70.431" cy="2.789" r="2.13"/><ellipse style="fill:#fff;stroke:#000;stroke-width:1.10000002" id="ellipse4170" cx="60.676" cy="15.552" rx="12.238" ry="7.987"/><g id="g4172"><path id="path4174" d="m 135.90625,159.65625 c -13.67995,0 -25.15625,11.4763 -25.15625,25.15625 0,13.67995 11.4763,24.78125 25.15625,24.78125 13.67995,0 24.78125,-11.1013 24.78125,-24.78125 0,-13.67995 -11.1013,-25.15625 -24.78125,-25.15625 z" transform="matrix(0.07946,0,0,0.07946,45.637601,-0.68559946)" style="fill:#ff4500;stroke:none"/><path id="path4176" d="m 244.46875,159.65625 c -13.68691,0 -25.1875,11.46934 -25.1875,25.15625 0,13.68691 11.50059,24.78125 25.1875,24.78125 13.68692,0 24.78125,-11.09434 24.78125,-24.78125 0,-13.68691 -11.09433,-25.15625 -24.78125,-25.15625 z" transform="matrix(0.07946,0,0,0.07946,45.637601,-0.68559946)" style="fill:#ff4500;stroke:none"/><path style="fill:none;stroke:#000;stroke-width:1.10000002;stroke-linecap:round" id="path4178" d="m 56.507,19.229 c 1.066,1.066 2.786,1.271 4.212,1.271"/><path style="fill:none;stroke:#000;stroke-width:1.10000002;stroke-linecap:round" id="path4180" d="M 64.963,19.229 C 63.896,20.295 62.177,20.5 60.75,20.5"/></g><circle id="circle4182" cx="49.684" cy="11.836" r="2.702" style="fill:#fff;stroke:#000;stroke-width:1.10000002"/><circle id="circle4184" cx="71.786" cy="11.836" r="2.702" style="fill:#fff;stroke:#000;stroke-width:1.10000002"/><path id="path4186" d="m 68.226,2.352 c 0,0 0,0 -5.404,-1.272 l -1.986,6.278" style="fill:none;stroke:#000;stroke-width:1.10000002;stroke-linecap:round;stroke-linejoin:round"/><circle id="circle4188" cx="70.431" cy="2.789" r="2.13" style="fill:#fff;stroke:#000;stroke-width:1.10000002"/><ellipse id="ellipse4190" cx="60.676" cy="15.552" rx="12.238" ry="7.987" style="fill:#fff;stroke:#000;stroke-width:1.10000002"/><g id="g4192"><path style="fill:#ff4500;stroke:none" id="path4194" d="m 135.90625,159.65625 c -13.67995,0 -25.15625,11.4763 -25.15625,25.15625 0,13.67995 11.4763,24.78125 25.15625,24.78125 13.67995,0 24.78125,-11.1013 24.78125,-24.78125 0,-13.67995 -11.1013,-25.15625 -24.78125,-25.15625 z" transform="matrix(0.07946,0,0,0.07946,45.637601,-0.68559946)"/><path style="fill:#ff4500;stroke:none" id="path4196" d="m 244.46875,159.65625 c -13.68691,0 -25.1875,11.46934 -25.1875,25.15625 0,13.68691 11.50059,24.78125 25.1875,24.78125 13.68692,0 24.78125,-11.09434 24.78125,-24.78125 0,-13.68691 -11.09433,-25.15625 -24.78125,-25.15625 z" transform="matrix(0.07946,0,0,0.07946,45.637601,-0.68559946)"/><path id="path4198" d="m 56.507,19.229 c 1.066,1.066 2.786,1.271 4.212,1.271" style="fill:none;stroke:#000;stroke-width:1.10000002;stroke-linecap:round"/><path id="path4200" d="M 64.963,19.229 C 63.896,20.295 62.177,20.5 60.75,20.5" style="fill:none;stroke:#000;stroke-width:1.10000002;stroke-linecap:round"/></g></g></svg>