<svg enable-background="new 0 0 120 40" height="360" viewBox="0 0 360 360.00001" width="360" xmlns="http://www.w3.org/2000/svg">
  <metadata/>
  <g transform="matrix(12.584949 0 0 12.584949 -584.34689 27.734702)">
    <g stroke="#000" stroke-width="1.1">
      <circle cx="49.683998" cy="11.836" fill="#fff" r="2.702"/>
      <circle cx="71.786003" cy="11.836" fill="#fff" r="2.702"/>
      <path d="m68.226 2.352s0 0-5.404-1.272l-1.986 6.278" fill="none" stroke-linecap="round" stroke-linejoin="round"/>
      <g fill="#fff">
        <circle cx="70.431" cy="2.789" r="2.13"/>
        <ellipse cx="60.675999" cy="15.552" rx="12.238" ry="7.987"/>
      </g>
    </g>
    <path d="m135.90625 159.65625c-13.67995 0-25.15625 11.4763-25.15625 25.15625s11.4763 24.78125 25.15625 24.78125 24.78125-11.1013 24.78125-24.78125-11.1013-25.15625-24.78125-25.15625z" fill="#ff4500" transform="matrix(.07946 0 0 .07946 45.637601 -.685599)"/>
    <path d="m244.46875 159.65625c-13.68691 0-25.1875 11.46934-25.1875 25.15625s11.50059 24.78125 25.1875 24.78125c13.68692 0 24.78125-11.09434 24.78125-24.78125s-11.09433-25.15625-24.78125-25.15625z" fill="#ff4500" transform="matrix(.07946 0 0 .07946 45.637601 -.685599)"/>
    <g stroke="#000" stroke-width="1.1">
      <path d="m56.507 19.229c1.066 1.066 2.786 1.271 4.212 1.271" fill="none" stroke-linecap="round"/>
      <path d="m64.963 19.229c-1.067 1.066-2.786 1.271-4.213 1.271" fill="none" stroke-linecap="round"/>
      <circle cx="49.683998" cy="11.836" fill="#fff" r="2.702"/>
      <circle cx="71.786003" cy="11.836" fill="#fff" r="2.702"/>
      <path d="m68.226 2.352s0 0-5.404-1.272l-1.986 6.278" fill="none" stroke-linecap="round" stroke-linejoin="round"/>
      <g fill="#fff">
        <circle cx="70.431" cy="2.789" r="2.13"/>
        <ellipse cx="60.675999" cy="15.552" rx="12.238" ry="7.987"/>
      </g>
    </g>
    <path d="m135.90625 159.65625c-13.67995 0-25.15625 11.4763-25.15625 25.15625s11.4763 24.78125 25.15625 24.78125 24.78125-11.1013 24.78125-24.78125-11.1013-25.15625-24.78125-25.15625z" fill="#ff4500" transform="matrix(.07946 0 0 .07946 45.637601 -.685599)"/>
    <path d="m244.46875 159.65625c-13.68691 0-25.1875 11.46934-25.1875 25.15625s11.50059 24.78125 25.1875 24.78125c13.68692 0 24.78125-11.09434 24.78125-24.78125s-11.09433-25.15625-24.78125-25.15625z" fill="#ff4500" transform="matrix(.07946 0 0 .07946 45.637601 -.685599)"/>
    <g stroke="#000" stroke-width="1.1">
      <path d="m56.507 19.229c1.066 1.066 2.786 1.271 4.212 1.271" fill="none" stroke-linecap="round"/>
      <path d="m64.963 19.229c-1.067 1.066-2.786 1.271-4.213 1.271" fill="none" stroke-linecap="round"/>
      <circle cx="49.683998" cy="11.836" fill="#fff" r="2.702"/>
      <circle cx="71.786003" cy="11.836" fill="#fff" r="2.702"/>
      <path d="m68.226 2.352s0 0-5.404-1.272l-1.986 6.278" fill="none" stroke-linecap="round" stroke-linejoin="round"/>
      <g fill="#fff">
        <circle cx="70.431" cy="2.789" r="2.13"/>
        <ellipse cx="60.675999" cy="15.552" rx="12.238" ry="7.987"/>
      </g>
    </g>
    <path d="m135.90625 159.65625c-13.67995 0-25.15625 11.4763-25.15625 25.15625s11.4763 24.78125 25.15625 24.78125 24.78125-11.1013 24.78125-24.78125-11.1013-25.15625-24.78125-25.15625z" fill="#ff4500" transform="matrix(.07946 0 0 .07946 45.637601 -.685599)"/>
    <path d="m244.46875 159.65625c-13.68691 0-25.1875 11.46934-25.1875 25.15625s11.50059 24.78125 25.1875 24.78125c13.68692 0 24.78125-11.09434 24.78125-24.78125s-11.09433-25.15625-24.78125-25.15625z" fill="#ff4500" transform="matrix(.07946 0 0 .07946 45.637601 -.685599)"/>
    <g fill="none" stroke="#000" stroke-linecap="round" stroke-width="1.1">
      <path d="m56.507 19.229c1.066 1.066 2.786 1.271 4.212 1.271"/>
      <path d="m64.963 19.229c-1.067 1.066-2.786 1.271-4.213 1.271"/>
    </g>
  </g>
</svg>
