<svg xmlns="http://www.w3.org/2000/svg" xmlns:svg="http://www.w3.org/2000/svg" id="svg2" width="256" height="256" version="1.1"><metadata id="metadata7"/><g id="layer1" transform="translate(0,-796.36218)"><g id="g3009" style="fill:#000"><path id="rect2987" d="M 24 8 C 15.136 8 8 15.136 8 24 L 8 232 C 8 240.864 15.136 248 24 248 L 232 248 C 240.864 248 248 240.864 248 232 L 248 24 C 248 15.136 240.864 8 232 8 L 24 8 z M 24 16 L 232 16 C 236.432 16 240 19.568 240 24 L 240 232 C 240 236.432 236.432 240 232 240 L 24 240 C 19.568 240 16 236.432 16 232 L 16 24 C 16 19.568 19.568 16 24 16 z" transform="translate(0,796.36218)" style="opacity:.75;color:#000;fill:#000;fill-opacity:1;fill-rule:nonzero;stroke:none;stroke-width:.75;marker:none;visibility:visible;display:inline;overflow:visible;enable-background:accumulate"/><path style="fill:#000;opacity:.75;stroke:none" id="path2996" d="m 85.749999,937.9006 c 0,24.30067 18.915811,43.99997 42.249991,43.99997 23.33419,0 42.25001,-19.6993 42.25001,-43.99997 0,-24.30069 -18.91582,-43.99999 -42.25001,-43.99999 -23.33418,0 -42.249991,19.6993 -42.249991,43.99999 z M 219,863.43909 h -45.5 c -3.25,-13.53846 -6.50001,-27.07691 -19.5,-27.07691 h -52 c -13.000001,0 -16.250001,13.53845 -19.500001,27.07691 H 37 c -7.15,0 -13,6.09231 -13,13.53846 v 121.84603 c 0,7.44632 5.85,13.53862 13,13.53862 h 182 c 7.15,0 13,-6.0923 13,-13.53862 V 876.97755 c 0,-7.44615 -5.85,-13.53846 -13,-13.53846 z m -91.00001,134.53849 c -31.860147,0 -57.687491,-26.89678 -57.687491,-60.07698 0,-33.1798 25.827344,-60.0769 57.687491,-60.0769 31.86057,0 57.68751,26.8971 57.68751,60.0769 0,33.1802 -25.82653,60.07698 -57.68751,60.07698 z M 219,904.05445 h -26 v -13.53846 h 26 v 13.53846 z"/></g></g></svg>