<svg height="256" width="256" xmlns="http://www.w3.org/2000/svg">
  <metadata/>
  <g transform="translate(0 -796.36218)">
    <path d="m24 8c-8.864 0-16 7.136-16 16v208c0 8.864 7.136 16 16 16h208c8.864 0 16-7.136 16-16v-208c0-8.864-7.136-16-16-16zm0 8h208c4.432 0 8 3.568 8 8v208c0 4.432-3.568 8-8 8h-208c-4.432 0-8-3.568-8-8v-208c0-4.432 3.568-8 8-8z" opacity=".75" transform="translate(0 796.36218)"/>
    <path d="m85.749999 937.9006c0 24.30067 18.915811 43.99997 42.249991 43.99997 23.33419 0 42.25001-19.6993 42.25001-43.99997 0-24.30069-18.91582-43.99999-42.25001-43.99999-23.33418 0-42.249991 19.6993-42.249991 43.99999zm133.250001-74.46151h-45.5c-3.25-13.53846-6.50001-27.07691-19.5-27.07691h-52c-13.000001 0-16.250001 13.53845-19.500001 27.07691h-45.499999c-7.15 0-13 6.09231-13 13.53846v121.84603c0 7.44632 5.85 13.53862 13 13.53862h182c7.15 0 13-6.0923 13-13.53862v-121.84603c0-7.44615-5.85-13.53846-13-13.53846zm-91.00001 134.53849c-31.860147 0-57.687491-26.89678-57.687491-60.07698 0-33.1798 25.827344-60.0769 57.687491-60.0769 31.86057 0 57.68751 26.8971 57.68751 60.0769 0 33.1802-25.82653 60.07698-57.68751 60.07698zm91.00001-93.92313h-26v-13.53846h26z" opacity=".75"/>
  </g>
</svg>
