<svg height="128" width="128" xmlns="http://www.w3.org/2000/svg" xmlns:xlink="http://www.w3.org/1999/xlink">
  <radialGradient id="a" cx="64" cy="35.686314" gradientTransform="matrix(2.1360441 0 0 1.446027 -72.706823 -26.184217)" gradientUnits="userSpaceOnUse" r="40">
    <stop offset="0" stop-color="#646661"/>
    <stop offset="1" stop-color="#111"/>
  </radialGradient>
  <clipPath id="b">
    <path d="m13.8125 8c-3.228333 0-5.8125 2.584167-5.8125 5.8125v100.375c0 3.22833 2.584167 5.8125 5.8125 5.8125h100.375c3.22833 0 5.8125-2.58417 5.8125-5.8125v-100.375c0-3.228333-2.58417-5.8125-5.8125-5.8125zm8 8h84.375c3.22833 0 5.8125 2.584167 5.8125 5.8125v84.375c0 3.22833-2.58417 5.8125-5.8125 5.8125h-84.375c-3.228334 0-5.8125-2.58417-5.8125-5.8125v-84.375c0-3.228334 2.584167-5.8125 5.8125-5.8125z"/>
  </clipPath>
  <filter id="c" height="1.096" width="1.096" x="-.048" y="-.048">
    <feGaussianBlur stdDeviation="2"/>
  </filter>
  <metadata/>
  <rect clip-path="url(#b)" filter="url(#c)" height="100" opacity=".7" rx="7.434851" width="100" x="14" y="14"/>
  <rect fill="#eee" height="96" opacity=".7" rx="5.626373" width="96" x="16" y="16"/>
  <rect fill="url(#a)" height="80" rx="5.626373" width="80" x="24" y="24"/>
  <rect fill="none" height="95" opacity=".7" rx="5.626373" stroke="#fff" stroke-linecap="round" stroke-linejoin="round" width="95" x="16.5" y="16.5"/>
  <path d="m44.03125 40 11.3125 11.3125c-11.876179 7.722557-19.608831 20.391169 2 42-4.609704-18.438816 3.534286-27.291385 13.40625-26.59375l13.25 13.25v-6.65625-33.3125z" fill="#fff" fill-rule="evenodd"/>
</svg>
