<svg height="32" width="32" xmlns="http://www.w3.org/2000/svg" xmlns:xlink="http://www.w3.org/1999/xlink">
  <filter id="a" color-interpolation-filters="sRGB">
    <feGaussianBlur stdDeviation=".52592593"/>
  </filter>
  <radialGradient id="b" cx="3.937153" cy="7.501665" gradientTransform="matrix(1.4496779 1.5407764 -.90127514 .84794135 4.990613 -4.92558)" gradientUnits="userSpaceOnUse" r="2.5">
    <stop offset="0" stop-color="#f1ab00"/>
    <stop offset="1" stop-color="#c39a00"/>
  </radialGradient>
  <metadata/>
  <g transform="translate(0 -1020.3622)">
    <path d="m8 9.5a2.5 2.5 0 1 1 -5 0 2.5 2.5 0 1 1 5 0z" fill="url(#b)" transform="matrix(6.4 0 0 6.4 -19.2 975.5622)"/>
    <path d="m31 16a15 15 0 1 1 -30 0 15 15 0 1 1 30 0z" fill="#fc0" transform="matrix(.93333333 0 0 .93333444 1.066667 1021.4288)"/>
    <path d="m7.5 1034.3622h17v4h-17z" fill="none" filter="url(#a)" stroke="#000"/>
    <path d="m7.5 1034.3622h17v4h-17z" fill="#fff" stroke="#000"/>
    <path d="m7.5 1038.3622v-4h17v4z" fill="#fff" opacity=".548872"/>
    <path d="m8 9.5a2.5 2.5 0 1 1 -5 0 2.5 2.5 0 1 1 5 0z" fill="url(#b)" transform="matrix(6.4 0 0 6.4 -170.62857 989.56227)"/>
    <path d="m31 16a15 15 0 1 1 -30 0 15 15 0 1 1 30 0z" fill="#fc0" transform="matrix(.93333333 0 0 .93333444 -150.3619 1035.4289)"/>
    <path d="m-144.92857 1051.3623 3-3 4.5 4.5 9.5-9.5 3 3-12.5 12.5z" fill="none" filter="url(#a)" stroke="#000"/>
    <g fill="#fff">
      <path d="m-144.92857 1051.3623 3-3 4.5 4.5 9.5-9.5 3 3-12.5 12.5z" stroke="#000"/>
      <path d="m-144.92857 1051.3623 3-3 4.5 4.5 9.5-9.5 3 3-12.5 12.5z" opacity=".548872"/>
    </g>
  </g>
</svg>
