<svg xmlns="http://www.w3.org/2000/svg" xmlns:svg="http://www.w3.org/2000/svg" xmlns:xlink="http://www.w3.org/1999/xlink" id="svg2" width="32" height="32" version="1.1"><defs id="defs4"><linearGradient id="linearGradient3827"><stop id="stop3829" style="stop-color:#b80000;stop-opacity:1" offset="0"/><stop id="stop3831" style="stop-color:#600000;stop-opacity:1" offset="1"/></linearGradient><linearGradient id="linearGradient3801"><stop id="stop3803" style="stop-color:#f1ab00;stop-opacity:1" offset="0"/><stop id="stop3805" style="stop-color:#c39a00;stop-opacity:1" offset="1"/></linearGradient><linearGradient id="linearGradient3005"><stop id="stop3007" style="stop-color:#fff;stop-opacity:1" offset="0"/><stop id="stop3781" style="stop-color:#fff;stop-opacity:.49803922" offset=".814"/><stop id="stop3009" style="stop-color:#fff;stop-opacity:0" offset="1"/></linearGradient><filter id="filter3797" color-interpolation-filters="sRGB"><feGaussianBlur id="feGaussianBlur3799" stdDeviation=".526"/></filter><radialGradient id="radialGradient3807" cx="3.937" cy="7.502" r="2.5" fx="3.937" fy="7.502" gradientTransform="matrix(1.4496779,1.5407764,-0.90127514,0.84794135,4.9906134,-4.9255796)" gradientUnits="userSpaceOnUse" xlink:href="#linearGradient3801"/><radialGradient id="radialGradient3823" cx="3.937" cy="7.502" r="2.5" fx="3.937" fy="7.502" gradientTransform="matrix(1.4496779,1.5407764,-0.90127514,0.84794135,4.9906134,-4.9255796)" gradientUnits="userSpaceOnUse" xlink:href="#linearGradient3827"/><radialGradient id="radialGradient3786" cx="3.937" cy="7.502" r="2.5" fx="3.937" fy="7.502" gradientTransform="matrix(1.4496779,1.5407764,-0.90127514,0.84794135,4.9906134,-4.9255796)" gradientUnits="userSpaceOnUse" xlink:href="#linearGradient3801"/></defs><metadata id="metadata7"/><g id="layer1" transform="translate(0,-1020.3622)"><path id="path2997" d="m 8,9.5 a 2.5,2.5 0 1 1 -5,0 2.5,2.5 0 1 1 5,0 z" transform="matrix(6.4,0,0,6.4,-19.2,975.5622)" style="color:#000;fill:url(#radialGradient3807);fill-opacity:1;fill-rule:nonzero;stroke:none;stroke-width:.5;marker:none;visibility:visible;display:inline;overflow:visible;enable-background:accumulate"/><path id="path2999" d="M 31,16 A 15,15 0 1 1 1,16 15,15 0 1 1 31,16 z" transform="matrix(0.93333333,0,0,0.93333444,1.0666666,1021.4288)" style="color:#000;fill:#fc0;fill-opacity:1;fill-rule:nonzero;stroke:none;stroke-width:.5;marker:none;visibility:visible;display:inline;overflow:visible;enable-background:accumulate"/><g id="g3010"><path id="path3787" d="m 7.5,1034.3622 17,0 0,4 -17,0 z" style="fill:none;stroke:#000;stroke-width:1px;stroke-linecap:butt;stroke-linejoin:miter;stroke-opacity:1;filter:url(#filter3797)"/><path id="path3001" d="m 7.5,1034.3622 17,0 0,4 -17,0 z" style="fill:#fff;stroke:#000;stroke-width:1px;stroke-linecap:butt;stroke-linejoin:miter;stroke-opacity:1"/><path id="path3809" d="m 7.5,1038.3622 0,-4 17,0 0,4 z" style="opacity:.54887217;fill:#fff;stroke:none"/></g><path id="path3776" d="m 8,9.5 a 2.5,2.5 0 1 1 -5,0 2.5,2.5 0 1 1 5,0 z" transform="matrix(6.4,0,0,6.4,-170.62857,989.56227)" style="color:#000;fill:url(#radialGradient3786);fill-opacity:1;fill-rule:nonzero;stroke:none;stroke-width:.5;marker:none;visibility:visible;display:inline;overflow:visible;enable-background:accumulate"/><path id="path3778" d="M 31,16 A 15,15 0 1 1 1,16 15,15 0 1 1 31,16 z" transform="matrix(0.93333333,0,0,0.93333444,-150.3619,1035.4289)" style="color:#000;fill:#fc0;fill-opacity:1;fill-rule:nonzero;stroke:none;stroke-width:.5;marker:none;visibility:visible;display:inline;overflow:visible;enable-background:accumulate"/><path id="path3780" d="m -144.92857,1051.3623 3,-3 4.5,4.5 9.5,-9.5 3,3 -12.5,12.5 z" style="fill:none;stroke:#000;stroke-width:1px;stroke-linecap:butt;stroke-linejoin:miter;stroke-opacity:1;filter:url(#filter3797)"/><path id="path3782" d="m -144.92857,1051.3623 3,-3 4.5,4.5 9.5,-9.5 3,3 -12.5,12.5 z" style="fill:#fff;stroke:#000;stroke-width:1px;stroke-linecap:butt;stroke-linejoin:miter;stroke-opacity:1"/><path id="path3784" d="m -144.92857,1051.3623 3,-3 4.5,4.5 9.5,-9.5 3,3 -12.5,12.5 z" style="opacity:.54887217;fill:#fff;stroke:none"/></g></svg>