<svg height="32" width="32" xmlns="http://www.w3.org/2000/svg" xmlns:xlink="http://www.w3.org/1999/xlink">
  <radialGradient id="a" cx="3.937153" cy="7.501665" gradientTransform="matrix(1.4496779 1.5407764 -.90127514 .84794135 4.990613 -4.92558)" gradientUnits="userSpaceOnUse" r="2.5">
    <stop offset="0" stop-color="#0071f1"/>
    <stop offset="1" stop-color="#007ec3"/>
  </radialGradient>
  <metadata/>
  <g transform="translate(0 -1020.3622)">
    <path d="m8 9.5a2.5 2.5 0 1 1 -5 0 2.5 2.5 0 1 1 5 0z" fill="url(#a)" transform="matrix(6.4 0 0 6.4 -19.2 975.5622)"/>
    <path d="m31 16a15 15 0 1 1 -30 0 15 15 0 1 1 30 0z" fill="#009cff" transform="matrix(.93333333 0 0 .93333444 1.066667 1021.4288)"/>
    <g fill="#fff">
      <path d="m10.455414 1028.3241v16.0761l13.544586-8.038z" fill-rule="evenodd" stroke="#000" stroke-width=".95251"/>
      <path d="m10.5 1044.3622v-16l13.5 8z" opacity=".548872"/>
    </g>
  </g>
</svg>
