<svg height="32" width="32" xmlns="http://www.w3.org/2000/svg" xmlns:xlink="http://www.w3.org/1999/xlink">
  <filter id="a" color-interpolation-filters="sRGB">
    <feGaussianBlur stdDeviation=".5"/>
  </filter>
  <radialGradient id="b" cx="3.937153" cy="7.501665" gradientTransform="matrix(1.4496779 1.5407764 -.90127514 .84794135 4.990613 -4.92558)" gradientUnits="userSpaceOnUse" r="2.5">
    <stop offset="0" stop-color="#b80000"/>
    <stop offset="1" stop-color="#600000"/>
  </radialGradient>
  <metadata/>
  <g transform="translate(-381.14286 -467.79075)">
    <path d="m8 9.5c0 1.380712-1.1192881 2.5-2.5 2.5s-2.5-1.119288-2.5-2.5c0-1.3807119 1.1192881-2.5 2.5-2.5s2.5 1.1192881 2.5 2.5z" fill="url(#b)" transform="matrix(6.4 0 0 6.4 361.94286 422.99075)"/>
    <path d="m31 16c0 8.284271-6.715729 15-15 15-8.2842712 0-15-6.715729-15-15 0-8.2842712 6.7157288-15 15-15 8.284271 0 15 6.7157288 15 15z" fill="#df0000" transform="matrix(.93333333 0 0 .93333444 382.20952 468.85732)"/>
    <path d="m392.64286 476.29082-3 3 4.5 4.5-4.5 4.5 3 3 4.5-4.5 4.5 4.5 3-3-4.5-4.5 4.5-4.5-3-3-4.5 4.5z" fill="none" filter="url(#a)" stroke="#000"/>
    <g fill="#fff">
      <path d="m392.64286 476.29082-3 3 4.5 4.5-4.5 4.5 3 3 4.5-4.5 4.5 4.5 3-3-4.5-4.5 4.5-4.5-3-3-4.5 4.5z" stroke="#000"/>
      <path d="m392.64286 476.29082-3 3 4.5 4.5-4.5 4.5 3 3 4.5-4.5 4.5 4.5 3-3-4.5-4.5 4.5-4.5-3-3-4.5 4.5z" opacity=".518797"/>
    </g>
  </g>
</svg>
