<svg xmlns="http://www.w3.org/2000/svg" xmlns:svg="http://www.w3.org/2000/svg" xmlns:xlink="http://www.w3.org/1999/xlink" id="svg3891" width="32" height="32" version="1.1"><defs id="defs3893"><filter id="filter3850" color-interpolation-filters="sRGB"><feGaussianBlur id="feGaussianBlur3852" stdDeviation=".5"/></filter><radialGradient id="radialGradient3823" cx="3.937" cy="7.502" r="2.5" fx="3.937" fy="7.502" gradientTransform="matrix(1.4496779,1.5407764,-0.90127514,0.84794135,4.9906134,-4.9255796)" gradientUnits="userSpaceOnUse" xlink:href="#linearGradient3827"/><linearGradient id="linearGradient3827"><stop id="stop3829" offset="0" style="stop-color:#b80000;stop-opacity:1"/><stop id="stop3831" offset="1" style="stop-color:#600000;stop-opacity:1"/></linearGradient><radialGradient id="radialGradient3889" cx="3.937" cy="7.502" r="2.5" fx="3.937" fy="7.502" gradientTransform="matrix(1.4496779,1.5407764,-0.90127514,0.84794135,4.9906134,-4.9255796)" gradientUnits="userSpaceOnUse" xlink:href="#linearGradient3827"/></defs><metadata id="metadata3896"/><g id="layer1" transform="translate(-381.14286,-467.79075)"><path id="path3811" d="M 8,9.5 C 8,10.880712 6.8807119,12 5.5,12 4.1192881,12 3,10.880712 3,9.5 3,8.1192881 4.1192881,7 5.5,7 6.8807119,7 8,8.1192881 8,9.5 z" transform="matrix(6.4,0,0,6.4,361.94286,422.99075)" style="color:#000;fill:url(#radialGradient3889);fill-opacity:1;fill-rule:nonzero;stroke:none;stroke-width:.5;marker:none;visibility:visible;display:inline;overflow:visible;enable-background:accumulate"/><path id="path3813" d="M 31,16 C 31,24.284271 24.284271,31 16,31 7.7157288,31 1,24.284271 1,16 1,7.7157288 7.7157288,1 16,1 24.284271,1 31,7.7157288 31,16 z" transform="matrix(0.93333333,0,0,0.93333444,382.20952,468.85732)" style="color:#000;fill:#df0000;fill-opacity:1;fill-rule:nonzero;stroke:none;stroke-width:.5;marker:none;visibility:visible;display:inline;overflow:visible;enable-background:accumulate"/><path id="path3840" d="m 392.64286,476.29082 -3,3 4.5,4.5 -4.5,4.5 3,3 4.5,-4.5 4.5,4.5 3,-3 -4.5,-4.5 4.5,-4.5 -3,-3 -4.5,4.5 -4.5,-4.5 z" style="fill:none;stroke:#000;filter:url(#filter3850)"/><path style="fill:#fff;stroke:#000" id="path3819" d="m 392.64286,476.29082 -3,3 4.5,4.5 -4.5,4.5 3,3 4.5,-4.5 4.5,4.5 3,-3 -4.5,-4.5 4.5,-4.5 -3,-3 -4.5,4.5 -4.5,-4.5 z"/><path id="path3854" d="m 392.64286,476.29082 -3,3 4.5,4.5 -4.5,4.5 3,3 4.5,-4.5 4.5,4.5 3,-3 -4.5,-4.5 4.5,-4.5 -3,-3 -4.5,4.5 -4.5,-4.5 z" style="opacity:.51879697;fill:#fff;stroke:none"/></g></svg>