<svg xmlns="http://www.w3.org/2000/svg" xmlns:svg="http://www.w3.org/2000/svg" xmlns:xlink="http://www.w3.org/1999/xlink" id="svg2" width="32" height="32" version="1.1"><defs id="defs4"><linearGradient id="linearGradient3827"><stop id="stop3829" offset="0" style="stop-color:#b80000;stop-opacity:1"/><stop id="stop3831" offset="1" style="stop-color:#600000;stop-opacity:1"/></linearGradient><linearGradient id="linearGradient3801"><stop style="stop-color:#00b81a;stop-opacity:1" id="stop3803" offset="0"/><stop style="stop-color:#00600d;stop-opacity:1" id="stop3805" offset="1"/></linearGradient><linearGradient id="linearGradient3005"><stop style="stop-color:#fff;stop-opacity:1" id="stop3007" offset="0"/><stop id="stop3781" offset=".814" style="stop-color:#fff;stop-opacity:.49803922"/><stop style="stop-color:#fff;stop-opacity:0" id="stop3009" offset="1"/></linearGradient><filter id="filter3797"><feGaussianBlur id="feGaussianBlur3799" stdDeviation=".526"/></filter><radialGradient id="radialGradient3807" cx="3.937" cy="7.502" r="2.5" fx="3.937" fy="7.502" gradientTransform="matrix(1.4496779,1.5407764,-0.90127514,0.84794135,4.9906134,-4.9255796)" gradientUnits="userSpaceOnUse" xlink:href="#linearGradient3801"/><radialGradient id="radialGradient3823" cx="3.937" cy="7.502" r="2.5" fx="3.937" fy="7.502" gradientTransform="matrix(1.4496779,1.5407764,-0.90127514,0.84794135,4.9906134,-4.9255796)" gradientUnits="userSpaceOnUse" xlink:href="#linearGradient3827"/><filter id="filter3850"><feGaussianBlur id="feGaussianBlur3852" stdDeviation=".5"/></filter></defs><metadata id="metadata7"/><g id="layer1" transform="translate(0,-1020.3622)"><path style="opacity:1;color:#000;fill:url(#radialGradient3807);fill-opacity:1;fill-rule:nonzero;stroke:none;stroke-width:.5;marker:none;visibility:visible;display:inline;overflow:visible;enable-background:accumulate;stroke-miterlimit:4;stroke-dasharray:none" id="path2997" d="m 8,9.5 a 2.5,2.5 0 1 1 -5,0 2.5,2.5 0 1 1 5,0 z" transform="matrix(6.4,0,0,6.4,-19.2,975.5622)"/><path style="color:#000;fill:#00c900;fill-opacity:1;fill-rule:nonzero;stroke:none;stroke-width:.5;marker:none;visibility:visible;display:inline;overflow:visible;enable-background:accumulate" id="path2999" d="M 31,16 A 15,15 0 1 1 1,16 15,15 0 1 1 31,16 z" transform="matrix(0.93333333,0,0,0.93333444,1.0666666,1021.4288)"/><path id="path3787" d="m 6.5,1037.3622 3,-3 4.5,4.5 9.5,-9.5 3,3 -12.5,12.5 z" style="fill:none;stroke:#000;stroke-width:1px;stroke-linecap:butt;stroke-linejoin:miter;stroke-opacity:1;filter:url(#filter3797)"/><path style="fill:#fff;stroke:#000;stroke-width:1px;stroke-linecap:butt;stroke-linejoin:miter;stroke-opacity:1" id="path3001" d="m 6.5,1037.3622 3,-3 4.5,4.5 9.5,-9.5 3,3 -12.5,12.5 z"/><path id="path3809" d="m 6.5,1037.3622 3,-3 4.5,4.5 9.5,-9.5 3,3 -12.5,12.5 z" style="fill:#fff;stroke:none;stroke-width:1px;stroke-linecap:butt;stroke-linejoin:miter;stroke-opacity:1;opacity:.54887218"/></g></svg>