<svg height="33.866665mm" viewBox="0 0 33.866665 33.866665" width="33.866665mm" xmlns="http://www.w3.org/2000/svg" xmlns:xlink="http://www.w3.org/1999/xlink">
  <radialGradient id="a" cx="63.912209" cy="115.70919" fx="42.094791" fy="115.7093" gradientTransform="matrix(1 0 0 .197802 0 92.82166)" gradientUnits="userSpaceOnUse" r="63.912209" xlink:href="#b"/>
  <linearGradient id="b">
    <stop offset="0"/>
    <stop offset="1" stop-opacity="0"/>
  </linearGradient>
  <radialGradient id="c" cx="-52.250774" cy="128.00081" gradientTransform="matrix(1.844258 0 0 1.606667 44.38044 -98.18508)" gradientUnits="userSpaceOnUse" r="36.937431" spreadMethod="reflect">
    <stop offset="0" stop-color="#fff"/>
    <stop offset=".42597079" stop-color="#fff"/>
    <stop offset=".5892781" stop-color="#f1f1f1"/>
    <stop offset=".80219781" stop-color="#eaeaea"/>
    <stop offset="1" stop-color="#dfdfdf"/>
  </radialGradient>
  <linearGradient id="d" gradientUnits="userSpaceOnUse" x1="33.867196" x2="76.30328" xlink:href="#e" y1="78.308331" y2="78.308331"/>
  <linearGradient id="e">
    <stop offset="0" stop-color="#dd6a0e"/>
    <stop offset="1" stop-color="#ffb66d"/>
  </linearGradient>
  <linearGradient id="f" gradientUnits="userSpaceOnUse" x1="25.118709" x2="-35.713639" y1="60.783764" y2="112.020319">
    <stop offset="0"/>
    <stop offset=".5" stop-color="#7f7f7f" stop-opacity=".33935"/>
    <stop offset="1" stop-color="#fff"/>
  </linearGradient>
  <linearGradient id="g" gradientUnits="userSpaceOnUse" x1="34.664116" x2="77.1002" xlink:href="#e" y1="79.105251" y2="79.105251"/>
  <linearGradient id="h" gradientUnits="userSpaceOnUse" x1="96.582608" x2="96.542454" xlink:href="#i" y1="14.480095" y2="23.034377"/>
  <linearGradient id="i">
    <stop offset="0" stop-color="#fff"/>
    <stop offset="1" stop-color="#fff" stop-opacity="0"/>
  </linearGradient>
  <linearGradient id="j" gradientTransform="matrix(.965789 0 0 .944211 3.248297 -.448682)" gradientUnits="userSpaceOnUse" x1="111.30237" x2="108.5625" xlink:href="#k" y1="-18.911451" y2="26.541067"/>
  <linearGradient id="k" gradientUnits="userSpaceOnUse" x1="17.0464" x2="17.0464" y1="7.6074" y2="3.1118">
    <stop offset="0" stop-color="#eee"/>
    <stop offset=".2909" stop-color="#cecece"/>
    <stop offset=".85" stop-color="#888"/>
    <stop offset="1" stop-color="#555"/>
  </linearGradient>
  <linearGradient id="l" gradientUnits="userSpaceOnUse" x1="65.073738" x2="62.605522" xlink:href="#i" y1="53.097416" y2="102.24165"/>
  <linearGradient id="m" gradientTransform="matrix(1 0 0 .989491 .144757 .128566)" gradientUnits="userSpaceOnUse" x1="112.14121" x2="108.5625" xlink:href="#k" y1=".229723" y2="41.496986"/>
  <linearGradient id="n" gradientUnits="userSpaceOnUse" x1="236.57014" x2="2.61567" xlink:href="#i" y1="-50.274925" y2="111.73157"/>
  <linearGradient id="o" gradientUnits="userSpaceOnUse" x1="95.915977" x2="32.102207" xlink:href="#i" y1="-33.667568" y2="129.69464"/>
  <radialGradient id="p" cx="99.498825" cy="33.076019" fx="92.406448" fy="33.504173" gradientTransform="matrix(.381766 .111574 -.139672 .47791 70.02209 5.232857)" gradientUnits="userSpaceOnUse" r="17.845808" xlink:href="#b"/>
  <linearGradient id="q" gradientUnits="userSpaceOnUse" x1="32.688357" x2="75.124441" xlink:href="#e" y1="77.129491" y2="77.129491"/>
  <linearGradient id="r" gradientUnits="userSpaceOnUse" x1="96.686058" x2="109.04183" xlink:href="#b" y1="28.999111" y2="41.42416"/>
  <g transform="matrix(.26458333 0 0 .26458333 -.015073 -.079963)">
    <path d="m50.892799 3.2812959v-2.79470843z" fill="#fff" fill-opacity=".756881"/>
    <path d="m127.82442 115.70919a63.91221 12.641975 0 1 1 -127.82442 0 63.91221 12.641975 0 1 1 127.82442 0z" fill="url(#a)" opacity=".381395" transform="matrix(1 0 0 .416667 .144757 74.63816)"/>
    <g transform="matrix(.99373 0 0 .99373 .00097 .76812)">
      <path d="m65.957252 16.860398c-3.049556-.275801-6.186939.749438-8.53125 3.09375l-54.125 54.09375c-4.19508499 4.195085-4.19508509 10.961163 0 15.15625l30.15625 30.156252c4.195085 4.19509 10.961166 4.19508 15.15625 0l54.093758-54.125002c2.49083-2.490832 3.13273-5.870037 3.125-9.09375l-.0625-28.6875c0-5.932749-4.786-10.71875-10.718753-10.71875 0 0-28.607642.09192-29.093755.125zm28.843755 5.125c3.66262-.16143 6.156253 2.485447 6.156253 5.5625s-2.485453 5.5625-5.562503 5.5625c-3.07706.000001-5.59375-2.485447-5.59375-5.5625 0-2.884737 2.18203-5.438298 5-5.5625z"/>
      <rect fill="url(#c)" height="44.167801" rx="7.898235" transform="matrix(.70710678 -.70710678 .70710678 .70710678 0 0)" width="73.874908" x="-51.673248" y="64.655273"/>
      <g fill="none">
        <path d="m75.885718 57.507812-41.600979 41.600982" opacity=".356557" stroke="url(#d)" stroke-width="6.681"/>
        <g stroke="url(#f)" stroke-dashoffset="4" stroke-linecap="round" stroke-linejoin="round">
          <rect height="44.167801" opacity=".229508" rx="7.898235" stroke-width="3" transform="matrix(.70710678 -.70710678 .70710678 .70710678 0 0)" width="73.874908" x="-51.673248" y="64.655273"/>
          <rect height="44.167801" opacity=".229508" rx="7.898235" stroke-width="4.7" transform="matrix(.70710678 -.70710678 .70710678 .70710678 0 0)" width="73.874908" x="-51.673248" y="64.655273"/>
          <rect height="44.167801" opacity=".229508" rx="7.898235" stroke-width="1.5" transform="matrix(.70710678 -.70710678 .70710678 .70710678 0 0)" width="73.874908" x="-51.673248" y="64.655273"/>
        </g>
        <path d="m76.682637 58.304731-41.600979 41.600987" opacity=".356557" stroke="url(#g)" stroke-width="4.281"/>
      </g>
      <path d="m95.974287 17.823297c-10.492771 0-20.733943-.08387-31.226713-.08387-1.762073 0-4.255833.942555-5.871767 2.558489-1.660248 1.726659-3.404362 3.117855-5.064611 4.844513 2.414223-2.414222 7.212846-5.724904 11.093084-5.724904 7.421011 0 27.351047-.0983 31.070007-.03189 3.71177 0 7.055473 2.121104 8.954723 5.410703-.68877-1.943344-4.67334-6.973043-8.954723-6.973043z" fill="url(#h)" fill-rule="evenodd"/>
      <path d="m100.82818 26.326961c-1.890153-1.727837-3.415423-4.670514-3.415423-7.920927 0-3.533359 1.96775-6.823917 4.142823-9.4743797 2.17506-2.6504632 5.28768-4.1241296 7.58345-4.64867 2.29577-.5245403 5.79507-.1221965 7.97013 1.534343 2.17508 1.6565394 3.47363 4.2591447 3.47363 7.7925027 0 3.533359-2.02809 6.984823-4.20316 9.635286-2.17507 2.650461-5.98704 4.450271-8.28282 4.974812-.90522.206827-1.39525.258815-2.34919.16418v3.641114c.90698-.07736 1.37675-.178048 2.34919-.400232 5.41187-1.236508 9.82659-4.36931 12.70617-7.878262 2.87957-3.508952 4.52714-7.616269 4.52714-11.71412 0-4.0978497-1.64757-7.4555617-4.52714-9.6486567-2.22718-1.69622208-5.36254-2.77457075-9.175-2.59658065-1.11678.0521386-2.30504.22146591-3.53117.50161219-5.41185 1.23650756-9.856773 4.39881646-12.736353 7.90776816-2.87957 3.508952-4.49695 7.586762-4.49695 11.684613-.00001 4.09785 1.61738 7.485066 4.49695 9.678163.53992.411206 2.4878 1.271962 1.78068 1.091745-.0068-.0017 1.96319 1.251665 1.85535.684439 1.810883-.738325 2.208813-3.477697 1.831693-5.00875z" fill="url(#j)"/>
      <path d="m90.5625 16.75c-8.068686.0274-24.229165.100191-24.59375.125-3.049557-.2758-6.186939.749438-8.53125 3.09375l-49.59375 49.5625c11.529551 1.982326 27.892323 4.585247 51.125 7.96875 8.273982 1.204986 18.293655 2.036346 28.90625 2.59375l14.84375-14.84375c2.49083-2.490831 3.13273-5.870037 3.125-9.09375l-.0625-28.6875c0-5.932748-4.786-10.71875-10.71875-10.71875-.000001 0-1.810438-.0091-4.5 0zm4.3125 5.21875c3.6158-.116775 6.09375 2.540736 6.09375 5.59375 0 3.077054-2.48545 5.5625-5.5625 5.5625-3.077063.000002-5.59375-2.485447-5.59375-5.5625-.000003-2.884736 2.18203-5.438298 5-5.5625.02861-.0013.03403-.03033.0625-.03125z" fill="url(#l)" opacity=".110656"/>
      <path d="m97.375359 32.751517c2.10015-.773731 3.390351-2.538598 3.560031-4.734753-1.957113-1.810695-3.290633-4.723021-3.290633-8.129308-.00001-3.702801 2.03744-7.151156 4.289563-9.9287217 2.25211-2.7775654 5.47498-4.3219011 7.85207-4.8715958 2.3771-.5496945 6.00035-.1280564 8.25246 1.6079222 2.25212 1.7359783 3.59667 4.4633913 3.59667 8.1661903 0 3.702801-2.09993 7.319779-4.35205 10.097344-2.25211 2.777565-6.19911 4.663684-8.57621 5.213379-.93729.216746-1.96089.315625-2.94862.216451v3.815723c.93911-.08107 1.94173-.230984 2.94862-.463824 5.60357-1.295804 10.17467-4.578839 13.15625-8.256062 2.98157-3.677222 4.6875-7.981505 4.6875-12.275868 0-4.2943614-1.70593-7.8130918-4.6875-10.1113563-2.30607-1.7775641-5.5525-2.90762479-9.5-2.72109918-1.15634.0546388-2.38669.23208625-3.65625.52566685-5.60356 1.29580413-10.205933 4.60976093-13.187503 8.28698383-2.98158 3.6772228-4.65625 7.9505838-4.65625 12.2449458-.00001 4.294362 1.67467 7.844014 4.65625 10.142279.55904.430925 1.186172.832604 1.855602 1.175703z" fill="url(#m)"/>
      <path d="m87.21875 16.75c-8.50359.03263-20.930988.103292-21.25.125-3.049557-.2758-6.186939.749438-8.53125 3.09375l-49.59375 49.5625c6.512962 1.119802 14.566555 2.45529 24.53125 4 11.012521-17.30544 27.351155-37.289448 38.8125-46.875 4.644801-3.884621 11.982929-7.180912 20.34375-9.90625-.306904.000624-.632555-.0011-.96875 0-1.008586.0034-2.128951-.0047-3.34375 0zm18.375 8.6875c-1.5547.686392-3.10706 1.369523-4.625 2.0625.0003.0238 0 .03865 0 .0625 0 3.077054-2.48545 5.5625-5.5625 5.5625-1.334195.000001-2.567233-.469835-3.53125-1.25-6.682325 3.356446-12.081361 6.518861-14.59375 9.03125-8.240797 8.240798-15.526075 23.751079-20.6875 36.25.784476.114764 1.574287.227138 2.375.34375 8.273982 1.204986 18.293655 2.036346 28.90625 2.59375l14.84375-14.84375c2.49083-2.490831 3.13273-5.870037 3.125-9.09375l-.0625-28.6875c0-.695244-.0619-1.373359-.1875-2.03125z" fill="url(#n)" opacity=".20082"/>
      <path d="m100.93539 27.951048c-1.957113-1.829927-3.290633-4.773185-3.290633-8.21565-.00001-3.742128 1.49788-7.442934 3.750003-10.2499997 2.25211-2.8070662 4.93541-4.475717 7.3125-5.03125 2.3771-.5555328 5.02914-.1294165 7.28125 1.625 2.25212 1.7544162 3.8125 4.7266227 3.8125 8.4687497 0 3.742128-1.56038 7.505434-3.8125 10.3125-2.25211 2.807065-4.90415 4.413217-7.28125 4.96875-.93729.219048-1.91852.318977-2.90625.21875v4.15625c.93911-.08193 1.89936-.233437 2.90625-.46875 5.60357-1.309567 10.17467-4.627471 13.15625-8.34375 2.98157-3.716278 4.6875-8.066277 4.6875-12.40625 0-4.3399723-1.70593-7.8960753-4.6875-10.2187497-2.30607-1.79644362-5.5525-2.93850675-9.5-2.75000004-1.15634.05521916-2.38669.23455125-3.65625.53125001-5.60356 1.30956683-10.205933 4.65872133-13.187503 8.37500003-2.98158 3.7162787-4.65625 8.0350267-4.65625 12.3749997-.00001 4.339973 1.67467 7.927325 4.65625 10.25.55904.435502 1.17432.809507 1.84375 1.15625.0064.0033.0248-.0033.03125 0 2.0689-.781949 3.370953-2.53362 3.540633-4.7531z" fill="none"/>
      <path d="m87.21875 16.75c-8.50359.03263-20.930988.103292-21.25.125-3.049557-.2758-6.186939.749438-8.53125 3.09375l-49.59375 49.5625c6.512962 1.119802 51.882405-33.289448 63.34375-42.875 4.644801-3.884621 11.982929-7.180912 20.34375-9.90625-.306904.000624-.632555-.0011-.96875 0-1.008586.0034-2.128951-.0047-3.34375 0zm18.375 8.6875c-1.5547.686392-3.10706 1.369523-4.625 2.0625.0003.0238 0 .03865 0 .0625 0 3.077054-2.48545 5.5625-5.5625 5.5625-1.334195.000001-2.567233-.469835-3.53125-1.25-6.682325 3.356446-12.081361 6.518861-14.59375 9.03125-8.240797 8.240798-.01884 38.630096 10.59375 39.1875l14.84375-14.84375c2.49083-2.490831 3.13273-5.870037 3.125-9.09375l-.0625-28.6875c0-.695244-.0619-1.373359-.1875-2.03125z" fill="url(#o)" opacity=".143443"/>
      <path d="m90.96875 26.46875c.743967 2.297267 2.100743 4.216351 3.96875 5.65625.555536.428222 1.147267.846552 1.8125 1.1875 2.656083-.950513 4.01114-3.505137 3.46875-6.40625-.15257-.139467-.321073-.282994-.46875-.4375zm21.71875 0c-1.83753 1.211058-3.85538 2.017967-5.28125 2.34375-.89954.205529-1.36454.250292-2.3125.15625v1.96875 1.65625 2.1875c.93322-.08056 1.93692-.23737 2.9375-.46875 5.36542-1.24073 9.78487-4.350662 12.75-7.84375z" fill="url(#p)" opacity=".606557" transform="matrix(1.00631 0 0 1.00631 -.000976 -.772966)"/>
      <path d="m74.706878 56.328972-41.600979 41.600987" fill="none" opacity=".356557" stroke="url(#q)" stroke-width="10.0168"/>
    </g>
    <path d="m89.656712 30.354292c.49124 2.325735 2.588013 4.056766 5.131181 4.056767 2.543162 0 4.679407-1.731031 5.170643-4.056767-.854771 1.932015-2.866287 3.291339-5.170643 3.291339-2.30436 0-4.276402-1.359324-5.131181-3.291339z" fill="#c5c5c5" opacity=".536885"/>
    <path d="m100.18163 26.901091c1.15086 4.050666 3.65645 3.092196 4.93347 6.825449v2.355173c-4.56581-1.437505-6.222135-1.137689-8.429042-2.759676 2.139037-.83309 4.052592-2.587176 3.495572-6.420946z" fill="url(#r)" fill-rule="evenodd" opacity=".303279"/>
  </g>
</svg>
