<svg xmlns="http://www.w3.org/2000/svg" width="2546.7" height="2526" version="1.1" viewBox="0 0 1491.6 1479.7"><metadata/><path fill="#1389d2" stroke="#000" stroke-width="27.532" d="m658.25 18.964c159.05-19.094 324.19 14.764 461.94 96.756 143.3 84.188 256.41 218.77 313.51 374.94 62.353 168.13 58.63 359.69-10.432 525.21-63.691 154.53-182.78 285.02-330.23 363.42-149.71 80.709-327.85 105.84-494.33 71.979-172.46-34.279-331.02-133.53-437.23-273.73-96.759-126.04-149.83-284.84-147.76-443.82 0.548-167.95 63.08-334.56 172.34-462 118.05-139.77 290.39-232.01 472.19-252.75m-120.67 181.49c-131.41 49.538-243.48 148.49-308.51 273-60.641 114.51-80.038 249.94-54.906 377.02 25.076 130.19 97.609 250.19 200.16 334.01 101.76 84.247 232.92 131.9 365.06 132.75-0.795-37.831-0.366-75.591-1.04-113.42-0.792-31.415-30.866-53.744-59.722-58.563-0.917 28.305 0.119 62.895-24.771 82.113-23.731 16.288-55.638 15.919-82.479 8.782-27.149-7.626-42.216-35.808-43.011-62.532-1.647-40.565-0.244-81.196-0.729-121.83-10.86-0.059-21.781-0.059-32.702-0.059-0.06-35.442-0.06-70.892 0-106.27 10.92-0.065 21.84-0.125 32.762-0.125 0-12.076 0-24.093-0.06-36.115-14.033-4.635-30.263-10.188-35.934-25.379-14.033-33.186 3.417-70.462-10.188-103.89-13.911-35.203-27.759-74.125-14.825-111.89 7.992-26.598 34.042-43.56 61.007-45.694-0.06-76.808 0-153.55-0.06-230.36-0.429-40.754 16.288-82.725 48.924-108.16 37.215-29.525 86.57-37.092 132.81-36.786 102.92 0.061 203.7 48.864 270.2 126.89-0.124 18.362 0 36.727-0.124 55.149-92.185 0.061-184.36-0.063-276.54 0-10.006-1.828-19.523 7.505-17.754 17.569 0.304 58.812-0.549 117.68-0.308 176.49 17.021 0.061 34.104 0.304 51.125-0.488 2.866-11.774 6.038-23.425 9.454-35.019 74.982 18.424 149.89 36.789 224.81 55.335-2.502 8.6-4.938 17.266-7.382 25.927-6.588 2.5-13.177 5.001-19.767 7.504-2.621 203.15-4.331 406.36-6.648 609.51 176.25-60.091 319.8-208.83 369.76-388.73 39.415-137.02 25.262-288.62-39.527-415.7-63.628-126.65-175.58-227.98-307.72-279.1-133.78-52.65-287.09-53.321-421.36-1.954m140.74 710.66c0 11.401 0 22.817 0.063 34.221 10.125 0.06 20.253 0.06 30.381 0.06 0.061 35.448 0.061 70.896 0 106.34-10.128 0-20.315 0-30.442 0.059v32.333c19.949 0.06 39.961 0.06 59.909-0.061-0.917-57.646-0.365-115.31-1.283-172.95a9391.2 9391.2 0 0 0-58.628 0z"/></svg>