<svg height="128" width="128" xmlns="http://www.w3.org/2000/svg" xmlns:xlink="http://www.w3.org/1999/xlink">
  <filter id="a" height="1.768" width="1.0512" x="-.0256" y="-.384">
    <feGaussianBlur stdDeviation="1.28"/>
  </filter>
  <linearGradient id="b" gradientTransform="matrix(1.0033404 0 0 1 -7.237468 40)" gradientUnits="userSpaceOnUse" x1="71.999496" x2="71.999496" y1="14.2578" y2="19.9583">
    <stop offset=".25" stop-color="#71a8f5" stop-opacity="0"/>
    <stop offset="1" stop-color="#0057ae"/>
  </linearGradient>
  <linearGradient id="c" gradientTransform="matrix(1.0033808 0 0 .7368421 -8.2378 45.263158)" gradientUnits="userSpaceOnUse" x1="122.74438" x2="122.74438" y1="96" y2="20">
    <stop offset="0" stop-color="#72b4f4"/>
    <stop offset=".13053299" stop-color="#b3d9ff"/>
    <stop offset=".34621301" stop-color="#b3d9ff"/>
    <stop offset=".72006166" stop-color="#71a8f5"/>
    <stop offset="1" stop-color="#508ed9"/>
  </linearGradient>
  <linearGradient id="d" gradientUnits="userSpaceOnUse" x1="65.000509" x2="65.000509" y1="116" y2="20.000488">
    <stop offset="0" stop-color="#00479e"/>
    <stop offset=".0769" stop-color="#2c72c7"/>
    <stop offset=".58579999" stop-color="#6ea1df"/>
    <stop offset=".96450001" stop-color="#adcbee"/>
  </linearGradient>
  <linearGradient id="e" gradientTransform="matrix(1.0172054 0 0 1.5 246.03226 514.75)" gradientUnits="userSpaceOnUse" x1="-168.99216" x2="-168.99216" y1="-300.5" y2="-296.48441">
    <stop offset="0" stop-color="#fff"/>
    <stop offset="1" stop-color="#fff" stop-opacity="0"/>
  </linearGradient>
  <linearGradient id="f" gradientTransform="matrix(1 0 0 .7368421 242.00093 284.36842)" gradientUnits="userSpaceOnUse" x1="-178" x2="-178" y1="-232.84966" y2="-304.61469">
    <stop offset="0" stop-color="#cfe7ff"/>
    <stop offset=".1" stop-color="#71a8f5"/>
    <stop offset="1" stop-color="#2c72c7"/>
  </linearGradient>
  <metadata/>
  <path d="m118.983 31c.009-1.65-1.33301-3-2.98301-3h-75.038983s-8.900001-8-10.000007-8h-15.961002c-2.200002 0-3.999999 1.8-3.999999 4v7s1 85-2.999999 85h114c-4.00001 0-3.017-85-3.017-85z" fill="url(#d)"/>
  <g filter="url(#a)" opacity=".6" transform="matrix(1.0033404 0 0 1 -8.237468 20)">
    <path d="m132 96c0 2.2-3.6 4-8 4h-104c-4.4 0-8-1.8-8-4s3.6-4 8-4h104c4.4 0 8 1.8 8 4z"/>
  </g>
  <path d="m10.884862 54c.00903 1.75.01806 3.755.02609 6h108.184158c.00903-2.245.01806-4.25.02609-6z" fill="url(#b)" opacity=".5"/>
  <path d="m119.99722 31c.009-1.65-1.333-3-2.983-3h-74.038998l-6.586-6.586c-.778-.778-2.314-1.414-3.414-1.414h-20.961c-2.1999998 0-3.9999998 1.8-3.9999998 4 0 0-.032 30.499299 0 36.031299h3.9999998c0-6.809 0-36.031299 0-36.031299l20.887-.003c.182.022.569.182.659.246l7.758 7.757h74.680998c0 .435.001 24.400299.003 28.031299h4.012c.031-5.532-.017-29.031299-.017-29.031299z" fill="#5e95e3"/>
  <path d="m124.36598 113.79242c-.08629 1.21432-1.51209 2.20758-3.16767 2.20758h-114.385404c-1.655577 0-3.081384-.99326-3.168678-2.20758l-3.636246-51.587788c-.120405-1.212106 1.135826-2.204632 2.791402-2.204632h122.412446c1.65558 0 2.90579.991789 2.77937 2.203895z" fill="url(#c)" opacity=".9"/>
  <path d="m125.21293 60h-122.4130039c-1.655 0-2.91200003.992526-2.79200003 2.204632l3.63600003 51.587788c.087 1.21432 1.513 2.20758 3.169 2.20758h114.3850039c1.656 0 3.082-.99326 3.168-2.20758l3.625-51.588525c.128-1.212106-1.123-2.203895-2.778-2.203895zm-4.799 53.05263c-1.539 0-111.2790039 0-112.8160039 0-.368-5.21537-3.075-42.425068-3.532-48.903384h119.8690039c-.121 1.709474-3.442 47.778964-3.521 48.903384z" fill="url(#f)"/>
  <path d="m4 64c.0273488.775875.1802721 4.801119.2225137 6h121.4924763c.02844-.808778.21527-5.795265.22251-6-2.51962 0-119.4422951 0-121.9375 0z" fill="url(#e)" opacity=".835"/>
</svg>
