<svg xmlns="http://www.w3.org/2000/svg" xmlns:cc="http://web.resource.org/cc/" xmlns:svg="http://www.w3.org/2000/svg" xmlns:xlink="http://www.w3.org/1999/xlink" id="svg2811" width="128" height="128" version="1.0"><metadata/><defs id="defs2813"><linearGradient id="linearGradient2937" x1="122.744" x2="122.392" y1="96.722" y2="20.044" gradientTransform="matrix(1.0033808,0,0,1,-8.2378002,8)" gradientUnits="userSpaceOnUse"><stop id="stop2939" offset="0" style="stop-color:#72b4f4;stop-opacity:1"/><stop id="stop2941" offset=".131" style="stop-color:#b3d9ff;stop-opacity:1"/><stop id="stop2943" offset=".346" style="stop-color:#b3d9ff;stop-opacity:1"/><stop id="stop2945" offset=".72" style="stop-color:#71a8f5;stop-opacity:1"/><stop id="stop2947" offset="1" style="stop-color:#508ed9;stop-opacity:1"/></linearGradient><linearGradient id="linearGradient2927" x1="-178" x2="-178" y1="-228.394" y2="-304.615" gradientTransform="translate(242.00093,332.5)" gradientUnits="userSpaceOnUse"><stop id="stop2929" offset="0" style="stop-color:#cfe7ff;stop-opacity:1"/><stop id="stop2931" offset=".1" style="stop-color:#71a8f5;stop-opacity:1"/><stop id="stop2933" offset="1" style="stop-color:#2c72c7;stop-opacity:1"/></linearGradient><linearGradient id="linearGradient2822"><stop id="stop2824" offset="0" style="stop-color:#fff;stop-opacity:1"/><stop id="stop2826" offset="1" style="stop-color:#fff;stop-opacity:0"/></linearGradient><linearGradient id="XMLID_9_" x1="71.999" x2="71.999" y1="14.258" y2="19.958" gradientTransform="matrix(1.0033404,0,0,1,-8.2374684,8)" gradientUnits="userSpaceOnUse"><stop id="stop46" offset=".25" style="stop-color:#71a8f5;stop-opacity:0"/><stop id="stop48" offset="1" style="stop-color:#0057ae;stop-opacity:1"/></linearGradient><filter id="filter2807" width="1.051" height="1.768" x="-.026" y="-.384"><feGaussianBlur id="feGaussianBlur2809" stdDeviation="1.28"/></filter><linearGradient id="XMLID_6_" x1="72.001" x2="72.001" y1="96" y2="0" gradientTransform="translate(-6.999995,8)" gradientUnits="userSpaceOnUse"><stop id="stop7" offset="0" style="stop-color:#00479e;stop-opacity:1"/><stop id="stop9" offset=".077" style="stop-color:#2c72c7;stop-opacity:1"/><stop id="stop11" offset=".586" style="stop-color:#6ea1df;stop-opacity:1"/><stop id="stop13" offset=".965" style="stop-color:#adcbee;stop-opacity:1"/></linearGradient><linearGradient id="linearGradient3109" x1="122.744" x2="122.744" y1="96" y2="20" gradientTransform="matrix(1.0033808,0,0,1,-8.2378,8)" gradientUnits="userSpaceOnUse" xlink:href="#linearGradient2937"/><linearGradient id="linearGradient2923" x1="-168.992" x2="-168.992" y1="-300.5" y2="-296.484" gradientTransform="translate(242.00093,332.5)" gradientUnits="userSpaceOnUse" xlink:href="#linearGradient2822"/><linearGradient id="linearGradient2925" x1="-178" x2="-178" y1="-228.5" y2="-304.615" gradientTransform="translate(242.00093,332.5)" gradientUnits="userSpaceOnUse" xlink:href="#linearGradient2927"/><linearGradient id="linearGradient2197" x1="-168.992" x2="-168.992" y1="-300.5" y2="-296.484" gradientTransform="translate(242.00093,364.5)" gradientUnits="userSpaceOnUse" xlink:href="#linearGradient2822"/><linearGradient id="linearGradient2201" x1="-178" x2="-178" y1="-228.5" y2="-304.615" gradientTransform="matrix(1,0,0,0.7368421,242.00093,284.36842)" gradientUnits="userSpaceOnUse" xlink:href="#linearGradient2927"/><linearGradient id="linearGradient2204" x1="71.999" x2="71.999" y1="14.258" y2="19.958" gradientTransform="matrix(1.0033404,0,0,1,-7.2374684,40)" gradientUnits="userSpaceOnUse" xlink:href="#XMLID_9_"/><linearGradient id="linearGradient2207" x1="122.744" x2="122.744" y1="96" y2="20" gradientTransform="matrix(1.0033808,0,0,0.7368421,-8.2378,45.263158)" gradientUnits="userSpaceOnUse" xlink:href="#linearGradient2937"/><linearGradient id="linearGradient2212" x1="72.001" x2="72.001" y1="96" y2="0" gradientTransform="translate(-6.999995,20)" gradientUnits="userSpaceOnUse" xlink:href="#XMLID_6_"/><filter id="filter2770"><feGaussianBlur id="feGaussianBlur2772" stdDeviation="2.079"/></filter><linearGradient id="linearGradient10213" x1="98.617" x2="91.229" y1="106.414" y2="99.255" gradientUnits="userSpaceOnUse" xlink:href="#linearGradient10207"/><radialGradient id="radialGradient9437" cx="102" cy="112.305" r="139.559" fx="102" fy="112.305" gradientTransform="matrix(1.295034,1.3831431e-7,-1.3627884e-7,1.2946006,-30.093452,-33.119615)" gradientUnits="userSpaceOnUse" xlink:href="#XMLID_8_"/><clipPath id="clipPath7084" clipPathUnits="userSpaceOnUse"><path id="path7086" d="M 72,88 L 40,120 L 32,120 L 32,80 L 72,80 L 72,88 z" style="fill:#000;fill-opacity:1;fill-rule:evenodd;stroke:none;stroke-width:1px;stroke-linecap:butt;stroke-linejoin:miter;stroke-opacity:1"/></clipPath><filter id="filter6697" width="1.384" height="1.384" x="-.192" y="-.192"><feGaussianBlur id="feGaussianBlur6699" stdDeviation="1.945"/></filter><radialGradient id="XMLID_8_" cx="102" cy="112.305" r="139.559" gradientUnits="userSpaceOnUse"><stop id="stop41" offset="0" style="stop-color:#b7b8b9;stop-opacity:1"/><stop id="stop47" offset=".189" style="stop-color:#ececec"/><stop id="stop49" offset=".257" style="stop-color:#fafafa"/><stop id="stop51" offset=".301" style="stop-color:#fff"/><stop id="stop53" offset=".531" style="stop-color:#fafafa"/><stop id="stop55" offset=".845" style="stop-color:#ebecec"/><stop id="stop57" offset="1" style="stop-color:#e1e2e3"/></radialGradient><linearGradient id="XMLID_12_" x1="96" x2="88" y1="104" y2="96" gradientUnits="userSpaceOnUse"><stop id="stop83" offset="0" style="stop-color:#888a85"/><stop id="stop85" offset=".007" style="stop-color:#8c8e89"/><stop id="stop87" offset=".067" style="stop-color:#abaca9"/><stop id="stop89" offset=".135" style="stop-color:#c5c6c4"/><stop id="stop91" offset=".265" style="stop-color:#dbdbda"/><stop id="stop93" offset=".376" style="stop-color:#ebebeb"/><stop id="stop95" offset=".487" style="stop-color:#f7f7f6"/><stop id="stop97" offset=".632" style="stop-color:#fdfdfd"/><stop id="stop99" offset="1" style="stop-color:#fff"/></linearGradient><linearGradient id="linearGradient10207"><stop id="stop10209" offset="0" style="stop-color:#a2a2a2;stop-opacity:1"/><stop id="stop10211" offset="1" style="stop-color:#fff;stop-opacity:1"/></linearGradient><linearGradient id="linearGradient3385" x1="-168.992" x2="-168.992" y1="-300.5" y2="-296.484" gradientTransform="matrix(1.0172054,0,0,1.5,246.03226,514.75)" gradientUnits="userSpaceOnUse" xlink:href="#linearGradient2822"/><linearGradient id="linearGradient3387" x1="-178" x2="-178" y1="-232.85" y2="-304.615" gradientTransform="matrix(1,0,0,0.7368421,242.00093,284.36842)" gradientUnits="userSpaceOnUse" xlink:href="#linearGradient2927"/></defs><path id="path15" d="M 118.983,31 C 118.992,29.35 117.64999,28 115.99999,28 L 40.961007,28 C 40.961007,28 32.061006,20 30.961,20 L 14.999998,20 C 12.799996,20 10.999999,21.8 10.999999,24 L 10.999999,31 C 10.999999,31 11.999999,116 8,116 L 122,116 C 117.99999,116 118.983,31 118.983,31 z" style="fill:url(#linearGradient2212)"/><g id="g17" style="opacity:.6;filter:url(#filter2807)" transform="matrix(1.0033404,0,0,1,-8.2374684,20)"><path id="path19" d="M 132,96 C 132,98.2 128.4,100 124,100 L 20,100 C 15.6,100 12,98.2 12,96 C 12,93.8 15.6,92 20,92 L 124,92 C 128.4,92 132,93.8 132,96 z"/></g><path id="path50" d="M 10.884862,54 C 10.893892,55.75 10.902922,57.755 10.910952,60 L 119.09511,60 C 119.10414,57.755 119.11317,55.75 119.1212,54 L 10.884862,54 z" style="opacity:.5;fill:url(#linearGradient2204)"/><path id="path2896" d="M 119.99722,31 C 120.00622,29.35 118.66422,28 117.01422,28 L 42.975222,28 L 36.389222,21.414 C 35.611222,20.636 34.075222,20 32.975222,20 L 12.014222,20 C 9.8142222,20 8.0142222,21.8 8.0142222,24 C 8.0142222,24 7.9822222,54.499299 8.0142222,60.031299 L 12.014222,60.031299 C 12.014222,53.222299 12.014222,24 12.014222,24 L 32.901222,23.997 C 33.083222,24.019 33.470222,24.179 33.560222,24.243 L 41.318222,32 C 41.318222,32 114.02722,32 115.99922,32 C 115.99922,32.435 116.00022,56.400299 116.00222,60.031299 L 120.01422,60.031299 C 120.04522,54.499299 119.99722,31 119.99722,31 z" style="fill:#5e95e3;fill-opacity:1"/><path id="path30" d="M 124.36598,113.79242 C 124.27969,115.00674 122.85389,116 121.19831,116 L 6.812906,116 C 5.157329,116 3.731522,115.00674 3.644228,113.79242 L 0.007982,62.204632 C -0.112423,60.992526 1.143808,60 2.799384,60 L 125.21183,60 C 126.86741,60 128.11762,60.991789 127.9912,62.203895 L 124.36598,113.79242 z" style="opacity:.9;fill:url(#linearGradient2207);fill-opacity:1"/><path id="path2894" d="M 125.21293,60 L 2.7999261,60 C 1.1449261,60 -0.11207393,60.992526 0.0079260701,62.204632 L 3.6439261,113.79242 C 3.7309261,115.00674 5.1569261,116 6.8129261,116 L 121.19793,116 C 122.85393,116 124.27993,115.00674 124.36593,113.79242 L 127.99093,62.203895 C 128.11893,60.991789 126.86793,60 125.21293,60 z M 120.41393,113.05263 C 118.87493,113.05263 9.1349261,113.05263 7.5979261,113.05263 C 7.2299261,107.83726 4.5229261,70.627562 4.0659261,64.149246 C 6.5189261,64.149246 121.45793,64.149246 123.93493,64.149246 C 123.81393,65.85872 120.49293,111.92821 120.41393,113.05263 z" style="fill:url(#linearGradient3387)"/><path id="path2908" d="M 4,64 C 4.0273488,64.775875 4.1802721,68.801119 4.2225137,70 C 7.123925,70 122.78934,70 125.71499,70 C 125.74343,69.191222 125.93026,64.204735 125.9375,64 C 123.41788,64 6.4952049,64 4,64 z" style="fill:url(#linearGradient3385);fill-opacity:1;opacity:.835"/></svg>