<svg xmlns="http://www.w3.org/2000/svg" xmlns:svg="http://www.w3.org/2000/svg" id="svg4" width="24" height="24" fill="#757575" version="1.1" viewBox="0 0 24 24"><metadata id="metadata10"/><g id="g503"><path id="path491" fill="none" d="M 0,0 H 24 V 24 H 0 Z"/><path id="path493" d="M 8.7,15.9 4.8,12 8.7,8.1 C 9.09,7.71 9.09,7.09 8.7,6.7 8.31,6.31 7.69,6.31 7.3,6.7 l -4.59,4.59 c -0.39,0.39 -0.39,1.02 0,1.41 l 4.59,4.6 c 0.39,0.39 1.01,0.39 1.4,0 0.39,-0.39 0.39,-1.01 0,-1.4 z m 6.6,0 3.9,-3.9 -3.9,-3.9 c -0.39,-0.39 -0.39,-1.01 0,-1.4 0.39,-0.39 1.01,-0.39 1.4,0 l 4.59,4.59 c 0.39,0.39 0.39,1.02 0,1.41 l -4.59,4.6 c -0.39,0.39 -1.01,0.39 -1.4,0 -0.39,-0.39 -0.39,-1.01 0,-1.4 z"/></g></svg>