<svg xmlns="http://www.w3.org/2000/svg" width="24" height="24" fill="#757575" viewBox="0 0 24 24"><path d="M10.14,11.63a1.15,1.15,0,1,0,1,1.14A1.1,1.1,0,0,0,10.14,11.63Zm3.75,0a1.15,1.15,0,1,0,1,1.14A1.1,1.1,0,0,0,13.89,11.63Z"/><path d="M18.89,3H5.11A2.11,2.11,0,0,0,3,5.12V19a2.11,2.11,0,0,0,2.11,2.12H16.77l-.55-1.9,1.32,1.22,1.24,1.15,2.21,2V5.12A2.11,2.11,0,0,0,18.89,3Zm-4,13.43s-.37-.44-.68-.83a3.25,3.25,0,0,0,1.86-1.22,5.89,5.89,0,0,1-1.18.61,6.77,6.77,0,0,1-1.49.44,7.21,7.21,0,0,1-2.66,0A8.63,8.63,0,0,1,9.25,15a6,6,0,0,1-.75-.35l-.09-.05,0,0-.29-.17a3.2,3.2,0,0,0,1.8,1.21l-.69.85a3.73,3.73,0,0,1-3.14-1.56,13.77,13.77,0,0,1,1.48-6,5.09,5.09,0,0,1,2.89-1.08l.1.12A6.94,6.94,0,0,0,7.82,9.26s.23-.12.61-.3a7.72,7.72,0,0,1,2.33-.65l.17,0a8.7,8.7,0,0,1,2.08,0,8.38,8.38,0,0,1,3.1,1A6.85,6.85,0,0,0,13.55,8l.14-.16a5.09,5.09,0,0,1,2.89,1.08,13.77,13.77,0,0,1,1.48,6A3.76,3.76,0,0,1,14.92,16.43Z"/></svg>