<?xml version="1.0" encoding="UTF-8" standalone="no"?>
<svg
   fill="#757575"
   height="24"
   viewBox="0 0 24 24"
   width="24"
   version="1.1"
   id="svg4"
   xmlns="http://www.w3.org/2000/svg"
   xmlns:svg="http://www.w3.org/2000/svg">
  <defs
     id="defs8" />
  <path
     id="path2"
     d="M 4 4 C 2.9000011 4 2.0097656 4.9000011 2.0097656 6 L 2 18 C 2 19.099999 2.9000011 20 4 20 L 20 20 C 21.099999 20 22 19.099999 22 18 L 22 8 C 22 6.9000011 21.099999 6 20 6 L 12 6 L 10 4 L 4 4 z M 12.537109 9.9082031 L 13.185547 10.298828 L 17.554688 12.929688 L 13.185547 15.5625 L 12.537109 15.953125 L 11.755859 14.65625 L 12.404297 14.265625 L 13.349609 13.695312 L 6.4453125 13.695312 L 6.4453125 12.166016 L 13.351562 12.166016 L 12.404297 11.595703 L 11.755859 11.205078 L 12.537109 9.9082031 z " />
</svg>
