<svg fill="#757575" height="24" viewBox="0 0 24 24" width="24" xmlns="http://www.w3.org/2000/svg">
  <metadata/>
  <path d="m5 3c-1.11 0-2 .89-2 2v14c0 1.104569.895431 2 2 2h14c1.104569 0 2-.895431 2-2v-14c0-1.11-.9-2-2-2zm10.359375 4.505859c.400344 0 .726563.326845.726563.728516v.724609h2.21875c.400344 0 .726562.326845.726562.728516 0 .401669-.326217.726562-.726562.726562h-.191407c-.412128 1.326612-1.066893 2.363281-1.746093 3.181641.53207.488052 1.100334.887517 1.666015 1.335938.311924.250518.365651.709744.115235 1.023437-.249259.313205-.708226.362473-1.019532.111328-.614642-.486742-1.192601-.892661-1.769531-1.423828-.576929.531167-1.104107.937086-1.71875 1.423828-.311303.251148-.768322.201879-1.017578-.111328-.250416-.313693-.200604-.772919.111328-1.023437.565677-.448421 1.087072-.847886 1.619141-1.335938-.679199-.818312-1.283234-1.854981-1.695313-3.181641h-.197265c-.400344 0-.720704-.324893-.720704-.726562 0-.401671.320361-.728516.720704-.728516h2.173828v-.724609c0-.401671.324264-.728516.724609-.728516zm-8.216797.294922h1.496094c.345155 0 .643047.243927.710937.582031l1.447266 7.244141c.07851.39257-.174512.773053-.566406.851563-.384074.07905-.774336-.168718-.853516-.566407l-.462891-2.316406h-2.046874l-.464844 2.316406c-.077793.391846-.454791.647717-.851563.566407-.391847-.078511-.644916-.458993-.566406-.851563l1.447266-7.244141c.067895-.338104.365784-.582031.710937-.582031zm.4375 1.632813-.578125 2.898437h1.466797l-.578125-2.898437zm6.589844.980468c.312752.842923.729088 1.524886 1.189453 2.105469.460366-.580583.925527-1.262594 1.238281-2.105469z"/>
</svg>
