<?xml version="1.0" encoding="UTF-8"?>
<svg width="24" height="24" fill="#757575" version="1.1" viewBox="0 0 24 24" xmlns="http://www.w3.org/2000/svg"><path d="m20 4h-16v16h16zm0 18h-16c-1.1046 0-2-0.89543-2-2v-16c0-1.1046 0.89543-2 2-2h16c1.1046 0 2 0.89543 2 2v16c0 1.1046-0.89543 2-2 2z"/><path d="m7.2 18c-0.225 0-0.45-0.075-0.6-0.15-0.375-0.225-0.6-0.6-0.6-1.05v-9.6c0-0.45 0.225-0.825 0.6-1.05 0.225-0.15 0.375-0.15 0.6-0.15 0.15 0 0.375 0.075 0.525 0.15l9.6 4.8c0.375 0.225 0.675 0.6 0.675 1.05 0 0.45-0.225 0.9-0.675 1.05l-9.6 4.8c-0.15 0.075-0.375 0.15-0.525 0.15z" clip-rule="evenodd" fill="#757575" fill-rule="evenodd" stroke-width=".99999"/></svg>
