<svg xmlns="http://www.w3.org/2000/svg" width="24" height="24" fill="#757575" viewBox="0 0 24 24"><path d="M20,11.86a1.76,1.76,0,0,0-1.75-1.75,1.73,1.73,0,0,0-1.22.51,9,9,0,0,0-4.67-1.38l1-3.16L16,6.71s0,0,0,0a1.46,1.46,0,1,0,.1-.53l-2.89-.68a.25.25,0,0,0-.29.17L11.83,9.23a9.16,9.16,0,0,0-4.88,1.36,1.75,1.75,0,1,0-2.07,2.79,3,3,0,0,0-.06.58C4.82,16.58,8,18.7,12,18.7s7.14-2.13,7.14-4.74a2.94,2.94,0,0,0-.05-.55A1.74,1.74,0,0,0,20,11.86ZM8.51,13.08a1.06,1.06,0,1,1,1.06,1.06A1.06,1.06,0,0,1,8.51,13.08Zm6.06,3.14A3.48,3.48,0,0,1,12,17h0a3.48,3.48,0,0,1-2.56-.79.25.25,0,0,1,.35-.35,3,3,0,0,0,2.2.65h0a3,3,0,0,0,2.2-.65.25.25,0,1,1,.35.35Zm-.13-2.08a1.06,1.06,0,1,1,1.06-1.06A1.06,1.06,0,0,1,14.44,14.14Z"/></svg>