<?xml version="1.0" encoding="UTF-8" standalone="no"?>
<svg
   height="24px"
   viewBox="0 0 24 24"
   width="24px"
   fill="#000000"
   version="1.1"
   id="svg136"
   sodipodi:docname="server.svg"
   inkscape:version="1.2.1 (9c6d41e4, 2022-07-14)"
   xmlns:inkscape="http://www.inkscape.org/namespaces/inkscape"
   xmlns:sodipodi="http://sodipodi.sourceforge.net/DTD/sodipodi-0.dtd"
   xmlns="http://www.w3.org/2000/svg"
   xmlns:svg="http://www.w3.org/2000/svg">
  <defs
     id="defs140" />
  <sodipodi:namedview
     id="namedview138"
     pagecolor="#ffffff"
     bordercolor="#666666"
     borderopacity="1.0"
     inkscape:showpageshadow="2"
     inkscape:pageopacity="0.0"
     inkscape:pagecheckerboard="0"
     inkscape:deskcolor="#d1d1d1"
     showgrid="false"
     inkscape:zoom="42.791667"
     inkscape:cx="12.222006"
     inkscape:cy="12.257059"
     inkscape:window-width="1748"
     inkscape:window-height="1161"
     inkscape:window-x="9"
     inkscape:window-y="33"
     inkscape:window-maximized="0"
     inkscape:current-layer="svg136" />
  <path
     d="M0 0h24v24H0V0z"
     fill="none"
     id="path132" />
  <path
     d="M19 15v4H5v-4h14m1-2H4c-.55 0-1 .45-1 1v6c0 .55.45 1 1 1h16c.55 0 1-.45 1-1v-6c0-.55-.45-1-1-1zM7 18.5c-.82 0-1.5-.67-1.5-1.5s.68-1.5 1.5-1.5 1.5.67 1.5 1.5-.67 1.5-1.5 1.5zM19 5v4H5V5h14m1-2H4c-.55 0-1 .45-1 1v6c0 .55.45 1 1 1h16c.55 0 1-.45 1-1V4c0-.55-.45-1-1-1zM7 8.5c-.82 0-1.5-.67-1.5-1.5S6.18 5.5 7 5.5s1.5.68 1.5 1.5S7.83 8.5 7 8.5z"
     id="path134"
     style="fill:#757575;fill-opacity:1" />
</svg>
