<svg height="24" viewBox="0 0 24 24" width="24" xmlns="http://www.w3.org/2000/svg">
  <path d="m0 0h24v24h-24z" fill="none"/>
  <path d="m19 15v4h-14v-4zm1-2h-16c-.55 0-1 .45-1 1v6c0 .55.45 1 1 1h16c.55 0 1-.45 1-1v-6c0-.55-.45-1-1-1zm-13 5.5c-.82 0-1.5-.67-1.5-1.5s.68-1.5 1.5-1.5 1.5.67 1.5 1.5-.67 1.5-1.5 1.5zm12-13.5v4h-14v-4zm1-2h-16c-.55 0-1 .45-1 1v6c0 .55.45 1 1 1h16c.55 0 1-.45 1-1v-6c0-.55-.45-1-1-1zm-13 5.5c-.82 0-1.5-.67-1.5-1.5s.68-1.5 1.5-1.5 1.5.68 1.5 1.5-.67 1.5-1.5 1.5z" fill="#757575"/>
</svg>
