<svg fill="#757575" height="24" viewBox="0 0 24 24" width="24" xmlns="http://www.w3.org/2000/svg">
  <path d="m5 3c-1.1 0-2 .9-2 2v2l2-2 2-2zm6.880859 0-1.9999996 2h2.8300786l2-2zm7.628907.0800781-1.919922 1.9199219h1.410156v1.4179688l1.929688-1.9277344c-.190001-.69-.729922-1.2301563-1.419922-1.4101563zm1.490234 6.2089844-2 1.9999995v2.830079l2-2zm-16 .5917969-2 1.9999996v2.830079l2-2zm16 7.1191406-2 2-2 2h2c.55 0 1.050156-.219844 1.410156-.589844.37-.36.589844-.860156.589844-1.410156zm-16 .589844-1.9199219 1.919922c.09.34.2697657.65039.5097657.90039.25.24.5603906.419766.9003906.509766l1.921875-1.919922h-1.4121094zm6.289062 1.410156-1.9999995 2h2.8300785l2-2z"/>
  <g fill="none" stroke="#757575" stroke-linejoin="round">
    <path d="m7 9v8h8v-8z"/>
    <path d="m7 9 2-2h8l-2 2z"/>
    <path d="m17 7v8l-2 2v-8z"/>
  </g>
</svg>
