<?xml version="1.0" encoding="utf-8"?>
<!-- Generator: Adobe Illustrator 18.1.0, SVG Export Plug-In . SVG Version: 6.00 Build 0)  -->
<!DOCTYPE svg PUBLIC "-//W3C//DTD SVG 1.1//EN" "http://www.w3.org/Graphics/SVG/1.1/DTD/svg11.dtd">
<svg version="1.1" id="Calque_1" xmlns="http://www.w3.org/2000/svg" xmlns:xlink="http://www.w3.org/1999/xlink" x="0px" y="0px"
	 viewBox="0 0 32 32" enable-background="new 0 0 32 32" xml:space="preserve">
<rect fill-rule="evenodd" clip-rule="evenodd" fill="none" width="32" height="32"/>
<path fill="#B6B5B6" d="M30,28H2c-1.1,0-2-0.9-2-2V8c0-1.1,0.9-2,2-2h28c1.1,0,2,0.9,2,2v18C32,27.1,31.1,28,30,28z"/>
<path fill="#FBFBFB" d="M30,27H2c-1.1,0-2-0.9-2-2V8c0-1.1,0.9-2,2-2h28c1.1,0,2,0.9,2,2v17C32,26.1,31.1,27,30,27z"/>
<path fill-rule="evenodd" clip-rule="evenodd" fill="#585858" d="M22,25H10c-1.1,0-2-0.9-2-2V11c0-1.1,0.9-2,2-2h3c1.1,0,2,0.9,2,2
	h7c1.1,0,2,0.9,2,2v10C24,24.1,23.1,25,22,25z M9,23c0,0.6,0.4,1,1,1h12c0.6,0,1-0.4,1-1V13c0-0.6-0.4-1-1-1h-8v-1c0-0.6-0.4-1-1-1
	h-3c-0.6,0-1,0.4-1,1V23z"/>
<g>
	<path fill="#585858" d="M19,23l-3-1.6L13,23l0.6-3.5l-2.4-2.4l3.3-0.5l1.5-3.2l1.5,3.2l3.3,0.5l-2.4,2.4L19,23z M13.3,17.8l1.4,1.4
		l-0.3,1.9l1.7-0.9l1.7,0.9l-0.3-1.9l1.4-1.4l-1.9-0.3L16,15.8l-0.8,1.7L13.3,17.8z"/>
</g>
</svg>
