<?xml version="1.0" encoding="utf-8"?>
<!-- Generator: Adobe Illustrator 18.1.0, SVG Export Plug-In . SVG Version: 6.00 Build 0)  -->
<!DOCTYPE svg PUBLIC "-//W3C//DTD SVG 1.1//EN" "http://www.w3.org/Graphics/SVG/1.1/DTD/svg11.dtd">
<svg version="1.1" id="Calque_1" xmlns="http://www.w3.org/2000/svg" xmlns:xlink="http://www.w3.org/1999/xlink" x="0px" y="0px"
	 viewBox="0 0 24 24" enable-background="new 0 0 24 24" xml:space="preserve">
<rect fill="none" width="24" height="24"/>
<g>
	<g>
		<g>
			<path fill="#585858" d="M17.2,18.4h-5.4l-2.8-6.1L9.4,12c0,0,1-0.8,2.2-0.9c0.3,0,0.5,0.2,0.5,0.5c0,0.3-0.2,0.5-0.5,0.5
				c-0.6,0-1,0.3-1.3,0.5l2.2,4.8h4.1l2.4-5.1c0.3-0.8,1.1-1.2,2-1.1c0.9,0.2,1.4,0.9,1.4,1.7c-0.1,1.8-1.4,2.4-1.4,2.4
				c-0.3,0.1-0.6,0-0.7-0.3c-0.1-0.3,0-0.6,0.3-0.7c0,0,0.7-0.4,0.8-1.6c0-0.4-0.3-0.6-0.6-0.6c-0.1,0-0.6-0.1-0.8,0.4l0,0
				L17.2,18.4z"/>
		</g>
		<path fill="#585858" d="M21.6,17.4c-0.3,0-0.5,0.2-0.5,0.5c0,0.4-2.2,1.5-6.6,1.5S8,18.3,8,17.9c0-0.3,0.7-0.7,2.2-1l-0.4-0.9
			C8.1,16.3,7,17,7,17.9c0,1.7,3.9,2.5,7.6,2.5s7.6-0.8,7.6-2.5C22.1,17.6,21.9,17.4,21.6,17.4z"/>
		<g>
			<rect x="10.4" y="13.3" fill="#585858" width="8.2" height="1"/>
		</g>
		<g>
			<rect x="11.3" y="15.3" fill="#585858" width="6.6" height="1"/>
		</g>
	</g>
	<g>
		<g>
			<polygon fill="#999999" points="18,12.4 15.5,11 13,12.4 13.5,9.5 11.5,7.4 14.2,7 15.5,4.4 16.7,7 19.5,7.4 17.5,9.5 			"/>
		</g>
	</g>
</g>
</svg>
