<?xml version="1.0" encoding="utf-8"?>
<!-- Generator: Adobe Illustrator 18.1.0, SVG Export Plug-In . SVG Version: 6.00 Build 0)  -->
<!DOCTYPE svg PUBLIC "-//W3C//DTD SVG 1.1//EN" "http://www.w3.org/Graphics/SVG/1.1/DTD/svg11.dtd">
<svg version="1.1" id="Calque_1" xmlns="http://www.w3.org/2000/svg" xmlns:xlink="http://www.w3.org/1999/xlink" x="0px" y="0px"
	 viewBox="0 0 24 24" enable-background="new 0 0 24 24" xml:space="preserve">
<rect fill="none" width="24" height="24"/>
<g>
	<g>
		<path fill="#585858" d="M18,18.2h-5.3l-2.8-6.1l0.3-0.2c0,0,1-0.8,2.2-0.9c0.3,0,0.5,0.2,0.5,0.5c0,0.3-0.2,0.5-0.5,0.5
			c-0.6,0-1,0.3-1.3,0.5l2.2,4.8h4l2.3-5.1c0.3-0.8,1.1-1.2,1.9-1.1c0.9,0.2,1.4,0.9,1.4,1.7c-0.1,1.8-1.3,2.4-1.4,2.4
			c-0.3,0.1-0.6,0-0.7-0.3c-0.1-0.3,0-0.6,0.3-0.7c0,0,0.7-0.4,0.8-1.5c0-0.4-0.3-0.6-0.6-0.6c-0.1,0-0.6-0.1-0.8,0.4l0,0L18,18.2z"
			/>
	</g>
	<g>
		<path fill="#999999" d="M14.9,11.4c-0.1,0-0.3-0.1-0.4-0.2c-1-1.1-1.5-2.4-1.4-3.3c0.1-0.9,1.1-2.6,3-3.6c0.2-0.1,0.6,0,0.7,0.2
			c0.1,0.2,0,0.6-0.2,0.7C15,5.9,14.1,7.4,14.1,8c-0.1,0.5,0.3,1.5,1.2,2.6c0.2,0.2,0.2,0.5,0,0.7C15.1,11.4,15,11.4,14.9,11.4z"/>
	</g>
	<g>
		<path fill="#999999" d="M16.5,12.5c-0.1,0-0.2,0-0.3-0.1c-0.2-0.2-0.3-0.5-0.1-0.7c0.1-0.1,0.2-0.2,0.3-0.3
			c0.5-0.4,0.5-0.6,0.3-0.9c0-0.1-0.2-0.2-0.3-0.3c-0.4-0.5-1.1-1.1-1.1-2c0-1,1.1-2,3.7-3.4c0.2-0.1,0.6,0,0.7,0.2
			c0.1,0.2,0,0.6-0.2,0.7c-2.8,1.6-3.1,2.3-3.1,2.5c0,0.4,0.5,0.9,0.8,1.3c0.2,0.2,0.3,0.3,0.4,0.4c0.7,1.1-0.1,1.8-0.4,2.2
			c-0.1,0.1-0.1,0.1-0.2,0.2C16.8,12.4,16.7,12.5,16.5,12.5z"/>
	</g>
	<path fill="#585858" d="M22.3,17.2c-0.3,0-0.5,0.2-0.5,0.5c0,0.4-2.2,1.5-6.5,1.5s-6.5-1-6.5-1.5c0-0.2,0.7-0.7,2.1-1l-0.4-0.9
		c-1.6,0.4-2.7,1-2.7,2c0,1.7,3.9,2.5,7.5,2.5s7.5-0.8,7.5-2.5C22.8,17.4,22.6,17.2,22.3,17.2z"/>
	<g>
		<rect x="11.2" y="13.2" fill="#585858" width="8.2" height="1"/>
	</g>
	<g>
		<rect x="12" y="15.2" fill="#585858" width="6.6" height="1"/>
	</g>
</g>
</svg>
