<?xml version="1.0" encoding="utf-8"?>
<!-- Generator: Adobe Illustrator 18.1.0, SVG Export Plug-In . SVG Version: 6.00 Build 0)  -->
<!DOCTYPE svg PUBLIC "-//W3C//DTD SVG 1.1//EN" "http://www.w3.org/Graphics/SVG/1.1/DTD/svg11.dtd">
<svg version="1.1" id="Calque_1" xmlns="http://www.w3.org/2000/svg" xmlns:xlink="http://www.w3.org/1999/xlink" x="0px" y="0px"
	 viewBox="0 0 24 24" enable-background="new 0 0 24 24" xml:space="preserve">
<rect fill="none" width="24" height="24"/>
<g id="_x37__11_">
	<g>
		<path fill="#585858" d="M21,4c0,0-2.9,0.8-5.5,1.5c-0.3,0-0.7,0-1,0C12,4.8,9,4,9,4C7.9,4,7,4.9,7,6v10.5c0,1.1,0.9,1.7,2,2
			c0,0,2.7,0.8,5.5,1.5h1c2.8-0.8,5.5-1.5,5.5-1.5c1-0.3,2-0.9,2-2V6C23,4.9,22.1,4,21,4z M14.5,19C11.8,18.3,9,17.5,9,17.5
			c-0.6-0.2-1-0.4-1-1V6c0-0.6,0.4-1,1-1l5.5,1.5V19z M22,16.5c0,0.6-0.5,0.8-1,1c0,0-2.7,0.8-5.5,1.5V6.5L21,5c0.6,0,1,0.4,1,1
			V16.5z"/>
	</g>
</g>
<path fill-rule="evenodd" clip-rule="evenodd" fill="#E6E6E6" d="M9,5C8.4,5,8,5.4,8,6v10.5c0,0.6,0.4,0.8,1,1c0,0,2.8,0.8,5.5,1.5
	V6.5L9,5z"/>
<path fill-rule="evenodd" clip-rule="evenodd" fill="#F2F2F2" d="M22,6c0-0.6-0.4-1-1-1l-5.5,1.5V19c2.8-0.7,5.5-1.5,5.5-1.5
	c0.5-0.2,1-0.4,1-1V6z"/>
</svg>
