<?xml version="1.0" encoding="utf-8"?>
<!-- Generator: Adobe Illustrator 18.1.0, SVG Export Plug-In . SVG Version: 6.00 Build 0)  -->
<!DOCTYPE svg PUBLIC "-//W3C//DTD SVG 1.1//EN" "http://www.w3.org/Graphics/SVG/1.1/DTD/svg11.dtd">
<svg version="1.1" id="Calque_1" xmlns="http://www.w3.org/2000/svg" xmlns:xlink="http://www.w3.org/1999/xlink" x="0px" y="0px"
	 viewBox="0 0 24 24" enable-background="new 0 0 24 24" xml:space="preserve">
<rect fill="none" width="24" height="24"/>
<path fill="#585858" d="M15.9,4.4l-7,3.6v8.9l7,3.6l7-3.6V7.9L15.9,4.4z M21.2,8.2l-5.3,2.7l-5.3-2.7l5.3-2.7L21.2,8.2z M9.9,9
	l5.5,2.8V19l-5.5-2.8V9z M16.4,19v-7.2L21.9,9v7.2L16.4,19z"/>
<polygon fill="#FFFFFF" points="21.2,8.2 15.9,10.9 10.5,8.2 15.9,5.5 "/>
<polygon fill="#F2F2F2" points="9.9,9 15.4,11.8 15.4,19 9.9,16.2 "/>
<polygon fill="#CCCCCC" points="16.4,19 16.4,11.8 21.9,9 21.9,16.2 "/>
</svg>
