<?xml version="1.0" encoding="utf-8"?>
<!-- Generator: Adobe Illustrator 18.1.0, SVG Export Plug-In . SVG Version: 6.00 Build 0)  -->
<!DOCTYPE svg PUBLIC "-//W3C//DTD SVG 1.1//EN" "http://www.w3.org/Graphics/SVG/1.1/DTD/svg11.dtd">
<svg version="1.1" id="Calque_1" xmlns="http://www.w3.org/2000/svg" xmlns:xlink="http://www.w3.org/1999/xlink" x="0px" y="0px"
	 viewBox="0 0 24 24" enable-background="new 0 0 24 24" xml:space="preserve">
<path fill="#585858" d="M6.9,4.4v16h16v-16H6.9z M21.9,5.4l0,14h-14v-14H21.9z"/>
<rect fill="none" width="24" height="24"/>
<rect x="7.9" y="5.4" fill="#F2F2F2" width="14" height="14"/>
<polygon fill="#999999" points="7.9,7.4 7.9,6.9 8.9,6.9 8.9,7.9 9.9,7.9 9.9,7.4 10.9,7.4 10.9,8.9 11.9,8.9 11.9,6.4 12.9,6.4 
	12.9,7.4 13.9,7.4 13.9,6.9 14.9,6.9 14.9,8.9 15.9,8.9 15.9,7.4 16.9,7.4 16.9,8.4 17.9,8.4 17.9,7.4 18.9,7.4 18.9,6.9 19.9,6.9 
	19.9,7.4 21.4,7.4 21.4,6.9 21.9,6.9 21.9,7.4 22.9,7.4 22.9,4.4 6.9,4.4 6.9,7.4 "/>
<g>
	<path fill="#585858" d="M14.9,13.6c-0.9,0.9-1.9,2-3.4,2c-1.5,0-2.6-1.1-2.6-2.7c0-1.4,1.2-2.7,2.8-2.7c1.3,0,2.4,1.1,3.2,2
		c0.9-0.9,1.9-2,3.4-2c1.6,0,2.6,1.1,2.6,2.7c0,1.4-1.2,2.7-2.8,2.7C16.7,15.6,15.7,14.5,14.9,13.6z M14.1,12.9
		c-0.7-0.7-1.5-1.6-2.5-1.6c-0.9,0-1.6,0.7-1.6,1.6c0,0.9,0.7,1.6,1.6,1.6C12.6,14.5,13.4,13.6,14.1,12.9z M19.7,12.9
		c0-0.9-0.7-1.6-1.5-1.6c-1,0-1.9,0.9-2.6,1.6c0.7,0.7,1.5,1.6,2.5,1.6C19,14.5,19.7,13.7,19.7,12.9z"/>
</g>
</svg>
