<?xml version="1.0" encoding="utf-8"?>
<!-- Generator: Adobe Illustrator 18.1.0, SVG Export Plug-In . SVG Version: 6.00 Build 0)  -->
<!DOCTYPE svg PUBLIC "-//W3C//DTD SVG 1.1//EN" "http://www.w3.org/Graphics/SVG/1.1/DTD/svg11.dtd">
<svg version="1.1" id="Calque_1" xmlns="http://www.w3.org/2000/svg" xmlns:xlink="http://www.w3.org/1999/xlink" x="0px" y="0px"
	 viewBox="0 0 16 16" enable-background="new 0 0 16 16" xml:space="preserve">
<path fill-rule="evenodd" clip-rule="evenodd" fill="#FFFFFF" d="M13,13H7l-2,3l-2-3l0,0c-1.7,0-3-1.3-3-3V3c0-1.7,1.3-3,3-3h10
	c1.7,0,3,1.3,3,3v7C16,11.7,14.7,13,13,13z"/>
<g>
	<g>
		<path fill-rule="evenodd" clip-rule="evenodd" fill="#585858" d="M13,0H3C1.3,0,0,1.3,0,3v7c0,1.7,1.3,3,3,3l2,3l2-3h6
			c1.7,0,3-1.3,3-3V3C16,1.3,14.7,0,13,0z M8,10H3V9h5V10z M13,8H3V7h10V8z M13,6H3V5h10V6z M13,4H3V3h10V4z"/>
	</g>
</g>
</svg>
