<?xml version="1.0" encoding="utf-8"?>
<!-- Generator: Adobe Illustrator 18.1.0, SVG Export Plug-In . SVG Version: 6.00 Build 0)  -->
<!DOCTYPE svg PUBLIC "-//W3C//DTD SVG 1.1//EN" "http://www.w3.org/Graphics/SVG/1.1/DTD/svg11.dtd">
<svg version="1.1" id="Calque_1" xmlns="http://www.w3.org/2000/svg" xmlns:xlink="http://www.w3.org/1999/xlink" x="0px" y="0px"
	 viewBox="0 0 24 24" enable-background="new 0 0 24 24" xml:space="preserve">
<rect fill="none" width="24" height="24"/>
<path fill-rule="evenodd" clip-rule="evenodd" fill="#E6E6E6" d="M22,17c0,0.6-0.4,1-1,1H9c-0.6,0-1-0.4-1-1v-5.5h5.1
	c0,0.2-0.1,0.3-0.1,0.5c0,1.1,0.9,2,2,2s2-0.9,2-2c0-0.2,0-0.3-0.1-0.5H22V17z"/>
<path fill-rule="evenodd" clip-rule="evenodd" fill="#E6E6E6" d="M22,10.5H8V8c0-0.6,0.4-1,1-1h12c0.6,0,1,0.4,1,1V10.5z"/>
<path fill-rule="evenodd" clip-rule="evenodd" fill="#585858" d="M21,6h-3V5c0-0.6-0.4-1-1-1h-4c-0.6,0-1,0.4-1,1v1H9
	C7.9,6,7,6.9,7,8v9c0,1.1,0.9,2,2,2h12c1.1,0,2-0.9,2-2V8C23,6.9,22.1,6,21,6z M13,5.5C13,5.2,13.2,5,13.5,5h3C16.8,5,17,5.2,17,5.5
	V6c-0.3,0-3.7,0-4,0V5.5z M22,17c0,0.6-0.4,1-1,1H9c-0.6,0-1-0.4-1-1v-5.5h5.1c0,0.2-0.1,0.3-0.1,0.5c0,1.1,0.9,2,2,2s2-0.9,2-2
	c0-0.2,0-0.3-0.1-0.5H22V17z M14,12c0-0.2,0.1-0.4,0.1-0.5h1.7c0.1,0.1,0.1,0.3,0.1,0.5c0,0.6-0.4,1-1,1S14,12.6,14,12z M22,10.5H8
	V8c0-0.6,0.4-1,1-1h12c0.6,0,1,0.4,1,1V10.5z"/>
<path fill-rule="evenodd" clip-rule="evenodd" fill="#FFFFFF" d="M14,12c0-0.2,0.1-0.4,0.1-0.5h1.7c0.1,0.1,0.1,0.3,0.1,0.5
	c0,0.6-0.4,1-1,1S14,12.6,14,12z"/>
</svg>
