<?xml version="1.0" encoding="utf-8"?>
<!-- Generator: Adobe Illustrator 18.1.0, SVG Export Plug-In . SVG Version: 6.00 Build 0)  -->
<!DOCTYPE svg PUBLIC "-//W3C//DTD SVG 1.1//EN" "http://www.w3.org/Graphics/SVG/1.1/DTD/svg11.dtd">
<svg version="1.1" id="Calque_1" xmlns="http://www.w3.org/2000/svg" xmlns:xlink="http://www.w3.org/1999/xlink" x="0px" y="0px"
	 viewBox="0 0 32 32" enable-background="new 0 0 32 32" xml:space="preserve">
<rect fill-rule="evenodd" clip-rule="evenodd" fill="none" width="32" height="32"/>
<path fill="#B6B5B6" d="M30,28.4H2c-1.1,0-2-0.9-2-2v-18c0-1.1,0.9-2,2-2h28c1.1,0,2,0.9,2,2v18C32,27.5,31.1,28.4,30,28.4z"/>
<path fill="#FBFBFB" d="M30,27.4H2c-1.1,0-2-0.9-2-2v-17c0-1.1,0.9-2,2-2h28c1.1,0,2,0.9,2,2v17C32,26.5,31.1,27.4,30,27.4z"/>
<g id="_x36__6_">
	<g>
		<path fill="#585858" d="M22,11.4h-7c0-1.1-0.9-2-2-2h-3c-1.1,0-2,0.9-2,2v12c0,1.1,0.9,2,2,2h12c1.1,0,2-0.9,2-2v-10
			C24,12.3,23.1,11.4,22,11.4z M23,23.4c0,0.6-0.4,1-1,1H10c-0.6,0-1-0.4-1-1v-8h14V23.4z M23,14.4H9v-3c0-0.6,0.4-1,1-1h3
			c0.6,0,1,0.4,1,1v1h8c0.6,0,1,0.4,1,1V14.4z"/>
	</g>
</g>
</svg>
