<?xml version="1.0" encoding="UTF-8" standalone="no"?>
<!-- Created with Inkscape (http://www.inkscape.org/) -->

<svg
   xmlns:dc="http://purl.org/dc/elements/1.1/"
   xmlns:cc="http://creativecommons.org/ns#"
   xmlns:rdf="http://www.w3.org/1999/02/22-rdf-syntax-ns#"
   xmlns:svg="http://www.w3.org/2000/svg"
   xmlns="http://www.w3.org/2000/svg"
   xmlns:xlink="http://www.w3.org/1999/xlink"
   xmlns:sodipodi="http://sodipodi.sourceforge.net/DTD/sodipodi-0.dtd"
   xmlns:inkscape="http://www.inkscape.org/namespaces/inkscape"
   width="32"
   height="32"
   id="svg2"
   version="1.1"
   inkscape:version="0.48.3.1 r9886"
   sodipodi:docname="bug.svg"
   inkscape:export-filename="/home/peterix/projects/MultiMC4/src/resources/tbaricons/ReportBug.png"
   inkscape:export-xdpi="90"
   inkscape:export-ydpi="90">
  <defs
     id="defs4">
    <linearGradient
       id="linearGradient4218">
      <stop
         id="stop4220"
         offset="0"
         style="stop-color:#000000;stop-opacity:0.18222222" />
      <stop
         id="stop4222"
         offset="1"
         style="stop-color:#ffffff;stop-opacity:0" />
    </linearGradient>
    <linearGradient
       id="linearGradient4204">
      <stop
         style="stop-color:#ffffff;stop-opacity:0.2;"
         offset="0"
         id="stop4206" />
      <stop
         style="stop-color:#ffffff;stop-opacity:0;"
         offset="1"
         id="stop4208" />
    </linearGradient>
    <linearGradient
       id="linearGradient3928">
      <stop
         style="stop-color:#ee2200;stop-opacity:1;"
         offset="0"
         id="stop3930" />
      <stop
         style="stop-color:#5d0000;stop-opacity:1"
         offset="1"
         id="stop3932" />
    </linearGradient>
    <linearGradient
       id="linearGradient3914">
      <stop
         style="stop-color:#d41e00;stop-opacity:1;"
         offset="0"
         id="stop3916" />
      <stop
         style="stop-color:#560000;stop-opacity:1"
         offset="1"
         id="stop3918" />
    </linearGradient>
    <filter
       inkscape:collect="always"
       id="filter3982"
       x="-0.1382716"
       width="1.2765432"
       y="-0.1382716"
       height="1.2765432">
      <feGaussianBlur
         inkscape:collect="always"
         stdDeviation="0.17283951"
         id="feGaussianBlur3984" />
    </filter>
    <radialGradient
       inkscape:collect="always"
       xlink:href="#linearGradient3928"
       id="radialGradient4007"
       gradientUnits="userSpaceOnUse"
       gradientTransform="matrix(1.1999988,1.6000096,-0.64514251,0.48385298,660.86724,457.21535)"
       cx="50"
       cy="1039.8744"
       fx="50"
       fy="1039.8744"
       r="5" />
    <radialGradient
       inkscape:collect="always"
       xlink:href="#linearGradient3914"
       id="radialGradient4009"
       gradientUnits="userSpaceOnUse"
       gradientTransform="matrix(1.9840484,3.4721317,-1.0766621,0.61522625,1063.4143,213.8808)"
       cx="53.469341"
       cy="1036.8372"
       fx="53.469341"
       fy="1036.8372"
       r="4.0321208" />
    <filter
       inkscape:collect="always"
       id="filter4097">
      <feGaussianBlur
         inkscape:collect="always"
         stdDeviation="0.55555556"
         id="feGaussianBlur4099" />
    </filter>
    <filter
       inkscape:collect="always"
       id="filter4161">
      <feGaussianBlur
         inkscape:collect="always"
         stdDeviation="0.12345679"
         id="feGaussianBlur4163" />
    </filter>
    <radialGradient
       inkscape:collect="always"
       xlink:href="#linearGradient3928"
       id="radialGradient4174"
       gradientUnits="userSpaceOnUse"
       gradientTransform="matrix(-1.195069,-1.6036951,1.3789506,-1.0275877,-1295.4553,2174.0912)"
       cx="49.742828"
       cy="1033.5878"
       fx="49.742828"
       fy="1033.5878"
       r="5" />
    <linearGradient
       inkscape:collect="always"
       xlink:href="#linearGradient4204"
       id="linearGradient4212"
       x1="70.5"
       y1="1035.3622"
       x2="69"
       y2="1036.8622"
       gradientUnits="userSpaceOnUse" />
    <linearGradient
       inkscape:collect="always"
       xlink:href="#linearGradient4218"
       id="linearGradient4216"
       x1="84"
       y1="1035.3622"
       x2="85"
       y2="1034.3622"
       gradientUnits="userSpaceOnUse"
       gradientTransform="translate(-15,-1.5)" />
    <radialGradient
       inkscape:collect="always"
       xlink:href="#linearGradient3928"
       id="radialGradient4237"
       gradientUnits="userSpaceOnUse"
       gradientTransform="matrix(-1.195069,-1.6036951,1.3789506,-1.0275877,-1295.4553,2174.0912)"
       cx="49.742828"
       cy="1033.5878"
       fx="49.742828"
       fy="1033.5878"
       r="5" />
    <linearGradient
       inkscape:collect="always"
       xlink:href="#linearGradient4204"
       id="linearGradient4239"
       gradientUnits="userSpaceOnUse"
       x1="70.5"
       y1="1035.3622"
       x2="69"
       y2="1036.8622" />
    <linearGradient
       inkscape:collect="always"
       xlink:href="#linearGradient4218"
       id="linearGradient4241"
       gradientUnits="userSpaceOnUse"
       gradientTransform="translate(-15,-1.5)"
       x1="84"
       y1="1035.3622"
       x2="85"
       y2="1034.3622" />
  </defs>
  <sodipodi:namedview
     id="base"
     pagecolor="#ffffff"
     bordercolor="#666666"
     borderopacity="1.0"
     inkscape:pageopacity="0.0"
     inkscape:pageshadow="2"
     inkscape:zoom="1"
     inkscape:cx="-143.08597"
     inkscape:cy="-12.323554"
     inkscape:document-units="px"
     inkscape:current-layer="g3986"
     showgrid="false"
     inkscape:window-width="1607"
     inkscape:window-height="1030"
     inkscape:window-x="1676"
     inkscape:window-y="-3"
     inkscape:window-maximized="1">
    <inkscape:grid
       type="xygrid"
       id="grid2985"
       empspacing="4"
       visible="true"
       enabled="true"
       snapvisiblegridlinesonly="true" />
  </sodipodi:namedview>
  <metadata
     id="metadata7">
    <rdf:RDF>
      <cc:Work
         rdf:about="">
        <dc:format>image/svg+xml</dc:format>
        <dc:type
           rdf:resource="http://purl.org/dc/dcmitype/StillImage" />
        <dc:title></dc:title>
      </cc:Work>
    </rdf:RDF>
  </metadata>
  <g
     inkscape:label="Layer 1"
     inkscape:groupmode="layer"
     id="layer1"
     transform="translate(0,-1020.3622)">
    <path
       inkscape:connector-curvature="0"
       id="rect4013"
       d="m 10.25,1022.0497 0,4 -4,4 -4,0 0,2 4,0 0,2 c 2e-6,1.4503 0.117423,2.7742 0.3125,4 l -4.3125,0 0,2 4.75,0 c 0.379006,1.4252 0.851671,2.6914 1.46875,3.7813 l -2.21875,2.2187 0,2 2,0 1.875,-1.875 c 1.218087,1.3481 2.651451,2.2896 4.125,2.9375 l 0,2.9375 2,0 0,-2.25 c 5.000011,1.25 10.000061,-0.7499 10,-3.75 2.599309,0 4.428024,-3.7452 4.0625,-8 l 1.9375,0 0,-2 -2.25,0 c -0.338089,-1.3524 -0.923138,-2.7153 -1.78125,-3.9687 l 2.03125,-2.0313 0,-2 -2,0 -1.875,1.875 c -1.104498,-0.9979 -2.47625,-1.8385 -4.125,-2.5 l 0,-3.375 -2,0 0,2.75 c -1.736548,-0.4618 -3.716809,-0.75 -6,-0.75 l -2,0 0,-4 -2,0 z"
       style="opacity:0.69037655;fill:#000000;fill-opacity:1;stroke:none;filter:url(#filter4097)" />
    <g
       id="g3986"
       transform="matrix(2,0,0,2,-89,-1043.3622)">
      <rect
         transform="translate(0,1020.3622)"
         y="24"
         x="51"
         height="3"
         width="1"
         id="rect3876"
         style="fill:#000000;fill-opacity:1;stroke:none" />
      <rect
         y="1040.3622"
         x="45.5"
         height="1"
         width="2.5"
         id="rect3874"
         style="fill:#000000;fill-opacity:1;stroke:none" />
      <path
         transform="translate(0,1020.3622)"
         inkscape:connector-curvature="0"
         id="path3878"
         d="m 46.5,24.5 1,0.5 2,-2 0.5,0 -1,-1 z"
         style="fill:#000000;stroke:none"
         sodipodi:nodetypes="cccccc" />
      <rect
         transform="translate(0,1020.3622)"
         y="19"
         x="58"
         height="1"
         width="2"
         id="rect3870"
         style="fill:#000000;fill-opacity:1;stroke:none" />
      <path
         transform="translate(0,1020.3622)"
         inkscape:connector-curvature="0"
         id="path3868"
         d="M 57,16.5 58.5,15 59,16 57.5,17.5 C 56.533856,16.56406 55.788428,17.105786 57,16.5 z"
         style="fill:#000000;stroke:none"
         sodipodi:nodetypes="ccccc" />
      <path
         transform="translate(0,1020.3622)"
         inkscape:connector-curvature="0"
         id="path3866"
         d="m 47,18 0,-2 2,-2 2,0 c 0.815212,1.242754 1.053351,2.549628 0,4 -1.239551,0.522502 -2.476067,1.061913 -4,0 z"
         style="fill:#333333;stroke:none"
         sodipodi:nodetypes="cccccc" />
      <rect
         transform="translate(0,1020.3622)"
         y="13"
         x="54"
         height="2"
         width="1"
         id="rect3872"
         style="fill:#000000;fill-opacity:1;stroke:none" />
      <rect
         transform="translate(0,1020.3622)"
         y="12"
         x="49"
         height="3"
         width="1"
         id="rect3880"
         style="fill:#000000;fill-opacity:1;stroke:none" />
      <rect
         transform="translate(0,1020.3622)"
         y="16"
         x="45"
         height="1"
         width="3"
         id="rect3882"
         style="fill:#000000;fill-opacity:1;stroke:none" />
      <path
         sodipodi:nodetypes="ccccccc"
         style="opacity:0.80753138;fill:#1a1a1a;stroke:none;filter:url(#filter3982)"
         d="m 47.75,1039.1747 0.140625,-2.1562 0.640625,-1.2032 1.125,-0.8125 2.03125,-0.062 -0.21875,3.9375 z"
         id="path3948"
         inkscape:connector-curvature="0" />
      <g
         id="g4232"
         transform="translate(-17,5.5)">
        <path
           inkscape:connector-curvature="0"
           id="path4165"
           d="m 68,1028.8622 c 0.803076,1.5119 0.470137,2.7762 0,4 -1.461682,0.7487 -2.788281,0.7094 -4,0 1.5e-5,10 10.000061,9.0001 10,6 3.000056,0 4.000023,-10 -6,-10 z"
           style="fill:url(#radialGradient4237);fill-opacity:1;stroke:none" />
        <path
           style="fill:url(#linearGradient4239);fill-opacity:1;stroke:none"
           d="m 68,1032.8622 6,6 c 6.1e-5,3.0001 -9.999985,4 -10,-6 1.211719,0.7094 2.538318,0.7487 4,0 z"
           id="path4194"
           inkscape:connector-curvature="0"
           sodipodi:nodetypes="cccc" />
        <path
           sodipodi:nodetypes="cccc"
           inkscape:connector-curvature="0"
           id="path4196"
           d="m 68,1032.8622 5.999942,6 c 3.000056,0 4.000029,-10 -5.999994,-10 0.803076,1.5119 0.470189,2.7762 5.2e-5,4 z"
           style="fill:url(#linearGradient4241);fill-opacity:1;stroke:none" />
      </g>
      <path
         transform="matrix(1.5,0,0,1.5,-27.5,1011.8622)"
         d="m 54,16.5 a 0.5,0.5 0 1 1 -1,0 0.5,0.5 0 1 1 1,0 z"
         sodipodi:ry="0.5"
         sodipodi:rx="0.5"
         sodipodi:cy="16.5"
         sodipodi:cx="53.5"
         id="path3936"
         style="fill:#000000;fill-opacity:1;stroke:none"
         sodipodi:type="arc" />
      <path
         transform="matrix(1.5,0,0,1.5,-28,1010.8622)"
         d="m 56,18.5 a 0.5,0.5 0 1 1 -1,0 0.5,0.5 0 1 1 1,0 z"
         sodipodi:ry="0.5"
         sodipodi:rx="0.5"
         sodipodi:cy="18.5"
         sodipodi:cx="55.5"
         id="path3938"
         style="fill:#000000;fill-opacity:1;stroke:none"
         sodipodi:type="arc" />
      <path
         transform="matrix(1.5,0,0,1.5,-25,1009.3622)"
         d="m 50,20.5 a 0.5,0.5 0 1 1 -1,0 0.5,0.5 0 1 1 1,0 z"
         sodipodi:ry="0.5"
         sodipodi:rx="0.5"
         sodipodi:cy="20.5"
         sodipodi:cx="49.5"
         id="path3940"
         style="fill:#000000;fill-opacity:1;stroke:none"
         sodipodi:type="arc" />
      <path
         transform="matrix(1.5,0,0,1.5,-26,1008.8622)"
         d="m 52,22.5 a 0.5,0.5 0 1 1 -1,0 0.5,0.5 0 1 1 1,0 z"
         sodipodi:ry="0.5"
         sodipodi:rx="0.5"
         sodipodi:cy="22.5"
         sodipodi:cx="51.5"
         id="path3942"
         style="fill:#000000;fill-opacity:1;stroke:none"
         sodipodi:type="arc" />
      <path
         transform="matrix(1.5,0,0,1.5,-26.5,1009.3622)"
         d="m 54,23.5 a 0.5,0.5 0 1 1 -1,0 0.5,0.5 0 1 1 1,0 z"
         sodipodi:ry="0.5"
         sodipodi:rx="0.5"
         sodipodi:cy="23.5"
         sodipodi:cx="53.5"
         id="path3944"
         style="fill:#000000;fill-opacity:1;stroke:none"
         sodipodi:type="arc" />
      <path
         transform="matrix(1.5,0,0,1.5,-27.5,1010.3622)"
         d="m 57,20.5 a 0.5,0.5 0 1 1 -1,0 0.5,0.5 0 1 1 1,0 z"
         sodipodi:ry="0.5"
         sodipodi:rx="0.5"
         sodipodi:cy="20.5"
         sodipodi:cx="56.5"
         id="path3946"
         style="fill:#000000;fill-opacity:1;stroke:none"
         sodipodi:type="arc" />
    </g>
  </g>
</svg>
