<?xml version="1.0" encoding="UTF-8" standalone="no"?>
<!-- Created with Inkscape (http://www.inkscape.org/) -->

<svg
   xmlns:dc="http://purl.org/dc/elements/1.1/"
   xmlns:cc="http://creativecommons.org/ns#"
   xmlns:rdf="http://www.w3.org/1999/02/22-rdf-syntax-ns#"
   xmlns:svg="http://www.w3.org/2000/svg"
   xmlns="http://www.w3.org/2000/svg"
   xmlns:xlink="http://www.w3.org/1999/xlink"
   xmlns:sodipodi="http://sodipodi.sourceforge.net/DTD/sodipodi-0.dtd"
   xmlns:inkscape="http://www.inkscape.org/namespaces/inkscape"
   width="32"
   height="32"
   id="svg2"
   version="1.1"
   inkscape:version="0.48.3.1 r9886"
   sodipodi:docname="creeper.svg">
  <defs
     id="defs4">
    <linearGradient
       id="linearGradient3917">
      <stop
         id="stop3919"
         offset="0"
         style="stop-color:#115008;stop-opacity:1;" />
      <stop
         style="stop-color:#39c228;stop-opacity:1;"
         offset="0.49999952"
         id="stop3921" />
      <stop
         id="stop3923"
         offset="1"
         style="stop-color:#c7f7c2;stop-opacity:1;" />
    </linearGradient>
    <linearGradient
       id="linearGradient3892">
      <stop
         style="stop-color:#1a1a1a;stop-opacity:1;"
         offset="0"
         id="stop3894" />
      <stop
         style="stop-color:#1a1a1a;stop-opacity:0;"
         offset="1"
         id="stop3896" />
    </linearGradient>
    <linearGradient
       id="linearGradient3871">
      <stop
         style="stop-color:#115008;stop-opacity:1;"
         offset="0"
         id="stop3873" />
      <stop
         id="stop3900"
         offset="0.5"
         style="stop-color:#39c228;stop-opacity:1;" />
      <stop
         style="stop-color:#c7f7c2;stop-opacity:1;"
         offset="1"
         id="stop3875" />
    </linearGradient>
    <filter
       inkscape:collect="always"
       id="filter3867">
      <feGaussianBlur
         inkscape:collect="always"
         stdDeviation="0.792"
         id="feGaussianBlur3869" />
    </filter>
    <linearGradient
       inkscape:collect="always"
       xlink:href="#linearGradient3892"
       id="linearGradient3898"
       x1="16"
       y1="31"
       x2="16"
       y2="26"
       gradientUnits="userSpaceOnUse" />
    <linearGradient
       inkscape:collect="always"
       xlink:href="#linearGradient3871"
       id="linearGradient5605"
       gradientUnits="userSpaceOnUse"
       gradientTransform="translate(0,1020.3622)"
       x1="27"
       y1="26"
       x2="5"
       y2="3" />
    <linearGradient
       inkscape:collect="always"
       xlink:href="#linearGradient3871-3"
       id="linearGradient5605-2"
       gradientUnits="userSpaceOnUse"
       gradientTransform="translate(0,1020.3622)"
       x1="27"
       y1="26"
       x2="5"
       y2="3" />
    <linearGradient
       id="linearGradient3871-3">
      <stop
         style="stop-color:#115008;stop-opacity:1;"
         offset="0"
         id="stop3873-5" />
      <stop
         id="stop3900-7"
         offset="0.5"
         style="stop-color:#39c228;stop-opacity:1;" />
      <stop
         style="stop-color:#c7f7c2;stop-opacity:1;"
         offset="1"
         id="stop3875-9" />
    </linearGradient>
    <linearGradient
       inkscape:collect="always"
       xlink:href="#linearGradient3917"
       id="linearGradient3147"
       x1="31"
       y1="1052.3622"
       x2="4"
       y2="1024.3622"
       gradientUnits="userSpaceOnUse"
       spreadMethod="reflect" />
    <filter
       color-interpolation-filters="sRGB"
       inkscape:collect="always"
       id="filter4028"
       x="-0.14708571"
       width="1.2941715"
       y="-0.25740001"
       height="1.5148">
      <feGaussianBlur
         inkscape:collect="always"
         stdDeviation="0.429"
         id="feGaussianBlur4030" />
    </filter>
    <filter
       color-interpolation-filters="sRGB"
       inkscape:collect="always"
       id="filter4056">
      <feGaussianBlur
         inkscape:collect="always"
         stdDeviation="0.676"
         id="feGaussianBlur4058" />
    </filter>
    <filter
       inkscape:collect="always"
       id="filter5711"
       x="-0.1728"
       width="1.3456"
       y="-0.3456"
       height="1.6912">
      <feGaussianBlur
         inkscape:collect="always"
         stdDeviation="0.144"
         id="feGaussianBlur5713" />
    </filter>
    <filter
       inkscape:collect="always"
       id="filter5719"
       x="-0.18"
       width="1.36"
       y="-0.36"
       height="1.72">
      <feGaussianBlur
         inkscape:collect="always"
         stdDeviation="0.15"
         id="feGaussianBlur5721" />
    </filter>
    <filter
       inkscape:collect="always"
       id="filter5723"
       x="-0.21"
       width="1.42"
       y="-0.28"
       height="1.56">
      <feGaussianBlur
         inkscape:collect="always"
         stdDeviation="0.35"
         id="feGaussianBlur5725" />
    </filter>
    <filter
       inkscape:collect="always"
       id="filter5727"
       x="-0.21"
       width="1.42"
       y="-0.28"
       height="1.56">
      <feGaussianBlur
         inkscape:collect="always"
         stdDeviation="0.35"
         id="feGaussianBlur5729" />
    </filter>
  </defs>
  <sodipodi:namedview
     id="base"
     pagecolor="#ffffff"
     bordercolor="#666666"
     borderopacity="1.0"
     inkscape:pageopacity="0.0"
     inkscape:pageshadow="2"
     inkscape:zoom="4"
     inkscape:cx="57.618613"
     inkscape:cy="29.528242"
     inkscape:document-units="px"
     inkscape:current-layer="layer1"
     showgrid="true"
     inkscape:window-width="1607"
     inkscape:window-height="1030"
     inkscape:window-x="1676"
     inkscape:window-y="-3"
     inkscape:window-maximized="1">
    <inkscape:grid
       type="xygrid"
       id="grid2985"
       empspacing="4"
       visible="true"
       enabled="true"
       snapvisiblegridlinesonly="true" />
  </sodipodi:namedview>
  <metadata
     id="metadata7">
    <rdf:RDF>
      <cc:Work
         rdf:about="">
        <dc:format>image/svg+xml</dc:format>
        <dc:type
           rdf:resource="http://purl.org/dc/dcmitype/StillImage" />
        <dc:title />
      </cc:Work>
    </rdf:RDF>
  </metadata>
  <g
     inkscape:label="Layer 1"
     inkscape:groupmode="layer"
     id="layer1"
     transform="translate(0,-1020.3622)">
    <rect
       style="fill:#2b1100;fill-opacity:1;stroke:none"
       id="rect3063"
       width="22"
       height="22"
       x="5"
       y="5"
       transform="translate(0,1020.3622)"
       rx="5"
       ry="5" />
    <path
       id="path3065"
       d="m 6,1026.3622 0,22 22,0 0,-22 z m 2,2 6,0 0,6 6,0 0,-6 6,0 0,6 -6,0 0,3 3,0 0,9 -3,0 0,-3 -6,0 0,3 -3,0 0,-9 3,0 0,-3 -6,0 z"
       style="fill:#000000;fill-opacity:1;stroke:none;filter:url(#filter3867)"
       inkscape:connector-curvature="0"
       sodipodi:nodetypes="cccccccccccccccccccccccccc" />
    <path
       style="fill:url(#linearGradient5605);fill-opacity:1;stroke:none"
       d="m 7,1022.3622 c -2.77,0 -5,2.23 -5,5 l 0,25 28,0 0,-25 c 0,-2.77 -2.23,-5 -5,-5 z m 0,5 6,0 0,6 6,0 0,-6 6,0 0,6 -6,0 0,3 3,0 0,9 -3,0 0,-3 -6,0 0,3 -3,0 0,-9 3,0 0,-3 -6,0 z"
       id="rect3045"
       inkscape:connector-curvature="0"
       sodipodi:nodetypes="ssccsssccccccccccccccccccccc" />
    <g
       id="g5466"
       style="opacity:0.3"
       transform="translate(0,-1)">
      <path
         inkscape:connector-curvature="0"
         id="rect3902"
         d="m 3.999974,1022.3622 3,0 0,3 -3,0 z"
         style="fill:#ffffff;fill-opacity:1;stroke:none" />
      <path
         inkscape:connector-curvature="0"
         id="rect3904"
         d="m 6.999974,1022.3622 3,0 0,3 -3,0 z"
         style="fill:#b3b3b3;fill-opacity:1;stroke:none" />
      <path
         inkscape:connector-curvature="0"
         id="rect3906"
         d="m 3.999974,1025.3622 3,0 0,3 -3,0 z"
         style="fill:#999999;fill-opacity:1;stroke:none" />
      <path
         inkscape:connector-curvature="0"
         id="rect3908"
         d="m 0.999974,1025.3622 3,0 0,3 -3,0 z"
         style="fill:#f2f2f2;fill-opacity:1;stroke:none" />
      <path
         inkscape:connector-curvature="0"
         id="rect3914"
         d="m 3.999974,1028.3622 3,0 0,3 -3,0 z"
         style="fill:#cccccc;fill-opacity:1;stroke:none" />
      <path
         inkscape:connector-curvature="0"
         id="rect3916"
         d="m 0.999974,1028.3622 3,0 0,3 -3,0 z"
         style="fill:#b3b3b3;fill-opacity:1;stroke:none" />
      <path
         inkscape:connector-curvature="0"
         id="rect3918"
         d="m 6.999974,1025.3622 3,0 0,3 -3,0 z"
         style="fill:#4d4d4d;fill-opacity:1;stroke:none" />
      <path
         inkscape:connector-curvature="0"
         id="rect3924"
         d="m 9.999974,1025.3622 3,0 0,3 -3,0 z"
         style="fill:#999999;fill-opacity:1;stroke:none" />
      <path
         inkscape:connector-curvature="0"
         id="rect3926"
         d="m 12.999974,1028.3622 3,0 0,3 -3,0 z"
         style="fill:#f2f2f2;fill-opacity:1;stroke:none" />
      <path
         inkscape:connector-curvature="0"
         id="rect3930"
         d="m 12.999974,1025.3622 3,0 0,3 -3,0 z"
         style="fill:#cccccc;fill-opacity:1;stroke:none" />
      <path
         inkscape:connector-curvature="0"
         id="rect3932"
         d="m 9.999974,1022.3622 3,0 0,3 -3,0 z"
         style="fill:#666666;fill-opacity:1;stroke:none" />
      <path
         inkscape:connector-curvature="0"
         id="rect3936"
         d="m 12.999974,1022.3622 3,0 0,3 -3,0 z"
         style="fill:#333333;fill-opacity:1;stroke:none" />
      <path
         inkscape:connector-curvature="0"
         id="rect3999"
         d="m 18.99998,1028.3622 0,-3 3,0 0,3 z"
         style="fill:#b3b3b3;fill-opacity:1;stroke:none" />
      <path
         inkscape:connector-curvature="0"
         id="rect4007"
         d="m 15.99998,1031.3622 0,-3 3,0 0,3 z"
         style="fill:#cccccc;fill-opacity:1;stroke:none" />
      <path
         inkscape:connector-curvature="0"
         id="rect4009"
         d="m 24.99998,1031.3622 0,-3 3,0 0,3 z"
         style="fill:#cccccc;fill-opacity:1;stroke:none" />
      <path
         inkscape:connector-curvature="0"
         id="rect4011"
         d="m 24.99998,1034.3622 0,-3 3,0 0,3 z"
         style="fill:#b3b3b3;fill-opacity:1;stroke:none" />
      <path
         inkscape:connector-curvature="0"
         id="rect4013"
         d="m 21.99998,1028.3622 0,-3 3,0 0,3 z"
         style="fill:#4d4d4d;fill-opacity:1;stroke:none" />
      <path
         inkscape:connector-curvature="0"
         id="rect4015"
         d="m 24.99998,1028.3622 0,-3 3,0 0,3 z"
         style="fill:#e6e6e6;fill-opacity:1;stroke:none" />
      <path
         inkscape:connector-curvature="0"
         id="rect4017"
         d="m 15.99998,1028.3622 0,-3 3,0 0,3 z"
         style="fill:#e6e6e6;fill-opacity:1;stroke:none" />
      <path
         inkscape:connector-curvature="0"
         id="rect4019"
         d="m 21.99998,1025.3622 0,-3 3,0 0,3 z"
         style="fill:#999999;fill-opacity:1;stroke:none" />
      <path
         inkscape:connector-curvature="0"
         id="rect4023"
         d="m 24.99998,1025.3622 0,-3 3,0 0,3 z"
         style="fill:#cccccc;fill-opacity:1;stroke:none" />
      <path
         inkscape:connector-curvature="0"
         id="rect4027"
         d="m 18.99998,1025.3622 0,-3 3,0 0,3 z"
         style="fill:#666666;fill-opacity:1;stroke:none" />
      <path
         inkscape:connector-curvature="0"
         id="rect4029"
         d="m 15.99998,1025.3622 0,-3 3,0 0,3 z"
         style="fill:#b3b3b3;fill-opacity:1;stroke:none" />
      <path
         inkscape:connector-curvature="0"
         id="rect4035"
         d="m 15.99998,1034.3622 0,-3 3,0 0,3 z"
         style="fill:#808080;fill-opacity:1;stroke:none" />
      <path
         inkscape:connector-curvature="0"
         id="rect4039"
         d="m 6.99998,1034.3622 0,3 3,0 0,-3 z"
         style="fill:#ffffff;fill-opacity:1;stroke:none" />
      <path
         inkscape:connector-curvature="0"
         id="rect4041"
         d="m 6.99998,1037.3622 0,3 3,0 0,-3 z"
         style="fill:#b3b3b3;fill-opacity:1;stroke:none" />
      <path
         inkscape:connector-curvature="0"
         id="rect4043"
         d="m 9.99998,1034.3622 0,3 3,0 0,-3 z"
         style="fill:#999999;fill-opacity:1;stroke:none" />
      <path
         inkscape:connector-curvature="0"
         id="rect4049"
         d="m 3.99998,1034.3622 0,3 3,0 0,-3 z"
         style="fill:#cccccc;fill-opacity:1;stroke:none" />
      <path
         inkscape:connector-curvature="0"
         id="rect4053"
         d="m 12.99998,1031.3622 0,3 3,0 0,-3 z"
         style="fill:#b3b3b3;fill-opacity:1;stroke:none" />
      <path
         inkscape:connector-curvature="0"
         id="rect4059"
         d="m 3.99998,1037.3622 0,3 3,0 0,-3 z"
         style="fill:#e6e6e6;fill-opacity:1;stroke:none" />
      <path
         inkscape:connector-curvature="0"
         id="rect4063"
         d="m 12.99998,1043.3622 0,3 3,0 0,-3 z"
         style="fill:#f2f2f2;fill-opacity:1;stroke:none" />
      <path
         inkscape:connector-curvature="0"
         id="rect4069"
         d="m 6.99998,1040.3622 0,3 3,0 0,-3 z"
         style="fill:#666666;fill-opacity:1;stroke:none" />
      <path
         inkscape:connector-curvature="0"
         id="rect4071"
         d="m 3.99998,1040.3622 0,3 3,0 0,-3 z"
         style="fill:#b3b3b3;fill-opacity:1;stroke:none" />
      <path
         inkscape:connector-curvature="0"
         id="rect4073"
         d="m 6.99998,1043.3622 0,3 3,0 0,-3 z"
         style="fill:#333333;fill-opacity:1;stroke:none" />
      <path
         inkscape:connector-curvature="0"
         id="rect4075"
         d="m 3.99998,1043.3622 0,3 3,0 0,-3 z"
         style="fill:#ececec;fill-opacity:1;stroke:none" />
      <path
         inkscape:connector-curvature="0"
         id="rect4077"
         d="m 3.99998,1031.3622 0,3 3,0 0,-3 z"
         style="fill:#808080;fill-opacity:1;stroke:none" />
      <path
         inkscape:connector-curvature="0"
         id="rect4133"
         d="m 28,1028.3622 0,3 3,0 0,-3 z"
         style="fill:#cccccc;fill-opacity:1;stroke:none" />
      <path
         inkscape:connector-curvature="0"
         id="rect4143"
         d="m 28,1031.3622 0,3 3,0 0,-3 z"
         style="fill:#e6e6e6;fill-opacity:1;stroke:none" />
      <path
         inkscape:connector-curvature="0"
         id="rect4155"
         d="m 28,1034.3622 0,3 3,0 0,-3 z"
         style="fill:#b3b3b3;fill-opacity:1;stroke:none" />
      <path
         inkscape:connector-curvature="0"
         id="rect4159"
         d="m 28,1037.3622 0,3 3,0 0,-3 z"
         style="fill:#ececec;fill-opacity:1;stroke:none" />
      <path
         inkscape:connector-curvature="0"
         id="rect4161"
         d="m 28,1025.3622 0,3 3,0 0,-3 z"
         style="fill:#808080;fill-opacity:1;stroke:none" />
      <path
         inkscape:connector-curvature="0"
         id="rect4175"
         d="m 28,1043.3622 0,3 3,0 0,-3 z"
         style="fill:#cccccc;fill-opacity:1;stroke:none" />
      <path
         inkscape:connector-curvature="0"
         id="rect4185"
         d="m 28,1046.3622 0,3 3,0 0,-3 z"
         style="fill:#e6e6e6;fill-opacity:1;stroke:none" />
      <path
         inkscape:connector-curvature="0"
         id="rect4197"
         d="m 28,1049.3622 0,3 3,0 0,-3 z"
         style="fill:#b3b3b3;fill-opacity:1;stroke:none" />
      <path
         inkscape:connector-curvature="0"
         id="rect4203"
         d="m 28,1040.3622 0,3 3,0 0,-3 z"
         style="fill:#808080;fill-opacity:1;stroke:none" />
      <path
         inkscape:connector-curvature="0"
         id="rect4207"
         d="m 6.99998,1049.3622 0,3 3,0 0,-3 z"
         style="fill:#ffffff;fill-opacity:1;stroke:none" />
      <path
         inkscape:connector-curvature="0"
         id="rect4211"
         d="m 9.99998,1049.3622 0,3 3,0 0,-3 z"
         style="fill:#999999;fill-opacity:1;stroke:none" />
      <path
         inkscape:connector-curvature="0"
         id="rect4213"
         d="m 9.99998,1046.3622 0,3 3,0 0,-3 z"
         style="fill:#f2f2f2;fill-opacity:1;stroke:none" />
      <path
         inkscape:connector-curvature="0"
         id="rect4215"
         d="m 6.99998,1046.3622 0,3 3,0 0,-3 z"
         style="fill:#666666;fill-opacity:1;stroke:none" />
      <path
         inkscape:connector-curvature="0"
         id="rect4217"
         d="m 3.99998,1049.3622 0,3 3,0 0,-3 z"
         style="fill:#cccccc;fill-opacity:1;stroke:none" />
      <path
         inkscape:connector-curvature="0"
         id="rect4219"
         d="m 12.99998,1049.3622 0,3 3,0 0,-3 z"
         style="fill:#cccccc;fill-opacity:1;stroke:none" />
      <path
         inkscape:connector-curvature="0"
         id="rect4221"
         d="m 12.99998,1046.3622 0,3 3,0 0,-3 z"
         style="fill:#b3b3b3;fill-opacity:1;stroke:none" />
      <path
         inkscape:connector-curvature="0"
         id="rect4245"
         d="m 3.99998,1046.3622 0,3 3,0 0,-3 z"
         style="fill:#808080;fill-opacity:1;stroke:none" />
      <path
         inkscape:connector-curvature="0"
         id="rect4261"
         d="m 0.99998,1034.3622 0,3 3,0 0,-3 z"
         style="fill:#cccccc;fill-opacity:1;stroke:none" />
      <path
         inkscape:connector-curvature="0"
         id="rect4263"
         d="m 0.99998,1031.3622 0,3 3,0 0,-3 z"
         style="fill:#b3b3b3;fill-opacity:1;stroke:none" />
      <path
         inkscape:connector-curvature="0"
         id="rect4267"
         d="m 0.99998,1037.3622 0,3 3,0 0,-3 z"
         style="fill:#e6e6e6;fill-opacity:1;stroke:none" />
      <path
         inkscape:connector-curvature="0"
         id="rect4273"
         d="m 0.99998,1043.3622 0,3 3,0 0,-3 z"
         style="fill:#f2f2f2;fill-opacity:1;stroke:none" />
      <path
         inkscape:connector-curvature="0"
         id="rect4275"
         d="m 0.99998,1040.3622 0,3 3,0 0,-3 z"
         style="fill:#cccccc;fill-opacity:1;stroke:none" />
      <path
         inkscape:connector-curvature="0"
         id="rect4303"
         d="m 0.99998,1049.3622 0,3 3,0 0,-3 z"
         style="fill:#cccccc;fill-opacity:1;stroke:none" />
      <path
         inkscape:connector-curvature="0"
         id="rect4305"
         d="m 0.99998,1046.3622 0,3 3,0 0,-3 z"
         style="fill:#b3b3b3;fill-opacity:1;stroke:none" />
      <path
         inkscape:connector-curvature="0"
         id="rect4093"
         d="m 12.999974,1043.3622 3,0 0,3 -3,0 z"
         style="fill:#cccccc;fill-opacity:1;stroke:none" />
      <path
         inkscape:connector-curvature="0"
         id="rect4099"
         d="m 15.999974,1043.3622 3,0 0,3 -3,0 z"
         style="fill:#e6e6e6;fill-opacity:1;stroke:none" />
      <path
         inkscape:connector-curvature="0"
         id="rect4105"
         d="m 21.999974,1043.3622 3,0 0,3 -3,0 z"
         style="fill:#f2f2f2;fill-opacity:1;stroke:none" />
      <path
         inkscape:connector-curvature="0"
         id="rect4109"
         d="m 21.999974,1040.3622 3,0 0,3 -3,0 z"
         style="fill:#cccccc;fill-opacity:1;stroke:none" />
      <path
         inkscape:connector-curvature="0"
         id="rect4113"
         d="m 18.999974,1034.3622 3,0 0,3 -3,0 z"
         style="fill:#b3b3b3;fill-opacity:1;stroke:none" />
      <path
         inkscape:connector-curvature="0"
         id="rect4115"
         d="m 21.999974,1037.3622 3,0 0,3 -3,0 z"
         style="fill:#333333;fill-opacity:1;stroke:none" />
      <path
         inkscape:connector-curvature="0"
         id="rect4117"
         d="m 21.999974,1034.3622 3,0 0,3 -3,0 z"
         style="fill:#ececec;fill-opacity:1;stroke:none" />
      <path
         inkscape:connector-curvature="0"
         id="rect4119"
         d="m 9.999974,1034.3622 3,0 0,3 -3,0 z"
         style="fill:#808080;fill-opacity:1;stroke:none" />
      <path
         inkscape:connector-curvature="0"
         id="rect4377"
         d="m 21.999974,1043.3622 3,0 0,3 -3,0 z"
         style="fill:#b3b3b3;fill-opacity:1;stroke:none" />
      <path
         inkscape:connector-curvature="0"
         id="rect4379"
         d="m 18.999974,1046.3622 3,0 0,3 -3,0 z"
         style="fill:#999999;fill-opacity:1;stroke:none" />
      <path
         inkscape:connector-curvature="0"
         id="rect4381"
         d="m 15.999974,1046.3622 3,0 0,3 -3,0 z"
         style="fill:#f2f2f2;fill-opacity:1;stroke:none" />
      <path
         inkscape:connector-curvature="0"
         id="rect4383"
         d="m 15.999974,1043.3622 3,0 0,3 -3,0 z"
         style="fill:#666666;fill-opacity:1;stroke:none" />
      <path
         inkscape:connector-curvature="0"
         id="rect4387"
         d="m 18.999974,1049.3622 3,0 0,3 -3,0 z"
         style="fill:#cccccc;fill-opacity:1;stroke:none" />
      <path
         inkscape:connector-curvature="0"
         id="rect4389"
         d="m 15.999974,1049.3622 3,0 0,3 -3,0 z"
         style="fill:#b3b3b3;fill-opacity:1;stroke:none" />
      <path
         inkscape:connector-curvature="0"
         id="rect4391"
         d="m 21.999974,1046.3622 3,0 0,3 -3,0 z"
         style="fill:#4d4d4d;fill-opacity:1;stroke:none" />
      <path
         inkscape:connector-curvature="0"
         id="rect4393"
         d="m 21.999974,1049.3622 3,0 0,3 -3,0 z"
         style="fill:#e6e6e6;fill-opacity:1;stroke:none" />
      <path
         inkscape:connector-curvature="0"
         id="rect4395"
         d="m 21.999974,1040.3622 3,0 0,3 -3,0 z"
         style="fill:#e6e6e6;fill-opacity:1;stroke:none" />
      <path
         inkscape:connector-curvature="0"
         id="rect4397"
         d="m 24.999974,1046.3622 3,0 0,3 -3,0 z"
         style="fill:#999999;fill-opacity:1;stroke:none" />
      <path
         inkscape:connector-curvature="0"
         id="rect4399"
         d="m 27.999974,1049.3622 3,0 0,3 -3,0 z"
         style="fill:#f2f2f2;fill-opacity:1;stroke:none" />
      <path
         inkscape:connector-curvature="0"
         id="rect4401"
         d="m 24.999974,1049.3622 3,0 0,3 -3,0 z"
         style="fill:#cccccc;fill-opacity:1;stroke:none" />
      <path
         inkscape:connector-curvature="0"
         id="rect4403"
         d="m 27.999974,1046.3622 3,0 0,3 -3,0 z"
         style="fill:#cccccc;fill-opacity:1;stroke:none" />
      <path
         inkscape:connector-curvature="0"
         id="rect4405"
         d="m 24.999974,1043.3622 3,0 0,3 -3,0 z"
         style="fill:#666666;fill-opacity:1;stroke:none" />
      <path
         inkscape:connector-curvature="0"
         id="rect4407"
         d="m 24.999974,1040.3622 3,0 0,3 -3,0 z"
         style="fill:#b3b3b3;fill-opacity:1;stroke:none" />
      <path
         inkscape:connector-curvature="0"
         id="rect4409"
         d="m 27.999974,1043.3622 3,0 0,3 -3,0 z"
         style="fill:#333333;fill-opacity:1;stroke:none" />
      <path
         inkscape:connector-curvature="0"
         id="rect4411"
         d="m 27.999974,1040.3622 3,0 0,3 -3,0 z"
         style="fill:#ececec;fill-opacity:1;stroke:none" />
      <path
         inkscape:connector-curvature="0"
         id="rect4417"
         d="m 18.999974,1034.3622 3,0 0,3 -3,0 z"
         style="fill:#ffffff;fill-opacity:1;stroke:none" />
      <path
         inkscape:connector-curvature="0"
         id="rect4419"
         d="m 21.999974,1034.3622 3,0 0,3 -3,0 z"
         style="fill:#b3b3b3;fill-opacity:1;stroke:none" />
      <path
         inkscape:connector-curvature="0"
         id="rect4433"
         d="m 21.999974,1037.3622 3,0 0,3 -3,0 z"
         style="fill:#4d4d4d;fill-opacity:1;stroke:none" />
      <path
         inkscape:connector-curvature="0"
         id="rect4435"
         d="m 21.999974,1040.3622 3,0 0,3 -3,0 z"
         style="fill:#e6e6e6;fill-opacity:1;stroke:none" />
      <path
         inkscape:connector-curvature="0"
         id="rect4439"
         d="m 24.999974,1037.3622 3,0 0,3 -3,0 z"
         style="fill:#999999;fill-opacity:1;stroke:none" />
      <path
         inkscape:connector-curvature="0"
         id="rect4441"
         d="m 27.999974,1040.3622 3,0 0,3 -3,0 z"
         style="fill:#f2f2f2;fill-opacity:1;stroke:none" />
      <path
         inkscape:connector-curvature="0"
         id="rect4443"
         d="m 24.999974,1040.3622 3,0 0,3 -3,0 z"
         style="fill:#cccccc;fill-opacity:1;stroke:none" />
      <path
         inkscape:connector-curvature="0"
         id="rect4445"
         d="m 27.999974,1037.3622 3,0 0,3 -3,0 z"
         style="fill:#cccccc;fill-opacity:1;stroke:none" />
      <path
         inkscape:connector-curvature="0"
         id="rect4447"
         d="m 24.999974,1034.3622 3,0 0,3 -3,0 z"
         style="fill:#666666;fill-opacity:1;stroke:none" />
      <path
         inkscape:connector-curvature="0"
         id="rect4449"
         d="m 24.999974,1031.3622 3,0 0,3 -3,0 z"
         style="fill:#b3b3b3;fill-opacity:1;stroke:none" />
      <path
         inkscape:connector-curvature="0"
         id="rect4451"
         d="m 27.999974,1034.3622 3,0 0,3 -3,0 z"
         style="fill:#333333;fill-opacity:1;stroke:none" />
      <path
         inkscape:connector-curvature="0"
         id="rect4453"
         d="m 27.999974,1031.3622 3,0 0,3 -3,0 z"
         style="fill:#ececec;fill-opacity:1;stroke:none" />
      <path
         inkscape:connector-curvature="0"
         id="rect4455"
         d="m 15.999974,1031.3622 3,0 0,3 -3,0 z"
         style="fill:#808080;fill-opacity:1;stroke:none" />
    </g>
    <path
       style="fill:#000000;stroke:none"
       d="m 7,1020.3622 c -3.878,0 -7,3.122 -7,7 l 0,25 2,0 0,-25 c 0,-2.77 2.23,-5 5,-5 l 18,0 c 2.77,0 5,2.23 5,5 l 0,25 2,0 0,-25 c 0,-3.878 -3.122,-7 -7,-7 z"
       id="rect3887"
       inkscape:connector-curvature="0"
       sodipodi:nodetypes="ssccssssccsss" />
    <path
       style="opacity:0.34999999999999998;fill:url(#linearGradient3147);fill-opacity:1;stroke:none"
       d="m 7,1021.3622 c -3.324,0 -6,2.676 -6,6 l 0,25 1,0 0,-25 c 0,-2.77 2.23,-5 5,-5 l 18,0 c 2.77,0 5,2.23 5,5 l 0,25 1,0 0,-25 c 0,-3.324 -2.676,-6 -6,-6 l -18,0 z"
       id="rect3098"
       inkscape:connector-curvature="0" />
    <rect
       style="fill:url(#linearGradient3898);fill-opacity:1;stroke:none"
       id="rect3890"
       width="32"
       height="6"
       x="0"
       y="26"
       transform="translate(0,1020.3622)" />
  </g>
</svg>
