<?xml version="1.0" encoding="UTF-8" standalone="no"?>
<!-- Created with Inkscape (http://www.inkscape.org/) -->

<svg
   xmlns:dc="http://purl.org/dc/elements/1.1/"
   xmlns:cc="http://creativecommons.org/ns#"
   xmlns:rdf="http://www.w3.org/1999/02/22-rdf-syntax-ns#"
   xmlns:svg="http://www.w3.org/2000/svg"
   xmlns="http://www.w3.org/2000/svg"
   version="1.1"
   width="32"
   height="32"
   id="svg2">
  <defs
     id="defs4">
    <filter
       x="-0.18000001"
       y="-0.36000001"
       width="1.36"
       height="1.72"
       color-interpolation-filters="sRGB"
       id="filter5719">
      <feGaussianBlur
         id="feGaussianBlur5721"
         stdDeviation="0.15" />
    </filter>
    <filter
       x="-0.20999999"
       y="-0.28"
       width="1.42"
       height="1.5599999"
       color-interpolation-filters="sRGB"
       id="filter5723">
      <feGaussianBlur
         id="feGaussianBlur5725"
         stdDeviation="0.35" />
    </filter>
    <filter
       x="-0.1728"
       y="-0.34560001"
       width="1.3456"
       height="1.6912"
       color-interpolation-filters="sRGB"
       id="filter5711">
      <feGaussianBlur
         id="feGaussianBlur5713"
         stdDeviation="0.144" />
    </filter>
    <filter
       x="-0.20999999"
       y="-0.28"
       width="1.42"
       height="1.5599999"
       color-interpolation-filters="sRGB"
       id="filter5727">
      <feGaussianBlur
         id="feGaussianBlur5729"
         stdDeviation="0.35" />
    </filter>
    <filter
       x="-0.14708571"
       y="-0.25740001"
       width="1.2941715"
       height="1.5148"
       color-interpolation-filters="sRGB"
       id="filter4028-6">
      <feGaussianBlur
         id="feGaussianBlur4030-9"
         stdDeviation="0.429" />
    </filter>
    <filter
       color-interpolation-filters="sRGB"
       id="filter4056-6">
      <feGaussianBlur
         id="feGaussianBlur4058-6"
         stdDeviation="0.676" />
    </filter>
  </defs>
  <metadata
     id="metadata7">
    <rdf:RDF>
      <cc:Work
         rdf:about="">
        <dc:format>image/svg+xml</dc:format>
        <dc:type
           rdf:resource="http://purl.org/dc/dcmitype/StillImage" />
        <dc:title></dc:title>
      </cc:Work>
    </rdf:RDF>
  </metadata>
  <g
     transform="translate(0,-1020.3622)"
     id="layer1">
    <rect
       width="24"
       height="24"
       x="3.9999998"
       y="1024.3622"
       id="rect4063-2"
       style="fill:#999999;fill-opacity:1;stroke:none" />
    <rect
       width="26"
       height="26"
       x="3"
       y="3"
       transform="matrix(1.0769231,0,0,1.0769237,-1.2307693,1019.1314)"
       id="rect4038-2"
       style="fill:#4d4d4d;fill-opacity:1;stroke:none;filter:url(#filter4056-6)" />
    <rect
       width="20"
       height="5.0000172"
       x="5.9999995"
       y="1041.3622"
       id="rect3189-4"
       style="fill:#494949;fill-opacity:1;stroke:none" />
    <path
       d="m 6.0000007,1041.3622 20.0000003,0 0,2 -18.0000003,0 0,3 -2,0 z"
       id="path4034-6"
       style="fill:#000000;fill-opacity:1;stroke:none;filter:url(#filter4028-6)" />
    <rect
       width="8"
       height="5.0000172"
       x="5.9999995"
       y="1035.3622"
       id="rect3155-9"
       style="fill:#494949;fill-opacity:1;stroke:none" />
    <rect
       width="8"
       height="5.0000172"
       x="18"
       y="1035.3622"
       id="rect3163-4"
       style="fill:#494949;fill-opacity:1;stroke:none" />
    <rect
       width="3"
       height="3"
       x="3.9999998"
       y="1024.3622"
       id="rect3009-1"
       style="fill:#a1a1a1;fill-opacity:1;stroke:none" />
    <rect
       width="3"
       height="3"
       x="6.9999995"
       y="1024.3622"
       id="rect3011-9"
       style="fill:#9b9b9b;fill-opacity:1;stroke:none" />
    <rect
       width="3"
       height="3"
       x="10"
       y="1024.3622"
       id="rect3013-0"
       style="fill:#a3a3a3;fill-opacity:1;stroke:none" />
    <rect
       width="3"
       height="3"
       x="13"
       y="1024.3622"
       id="rect3017-9"
       style="fill:#919191;fill-opacity:1;stroke:none" />
    <rect
       width="3"
       height="3"
       x="16"
       y="1024.3622"
       id="rect3019-6"
       style="fill:#888888;fill-opacity:1;stroke:none" />
    <rect
       width="3"
       height="3"
       x="19"
       y="1024.3622"
       id="rect3021-8"
       style="fill:#8f8f8f;fill-opacity:1;stroke:none" />
    <rect
       width="3"
       height="3"
       x="22"
       y="1024.3622"
       id="rect3023-6"
       style="fill:#9b9b9b;fill-opacity:1;stroke:none" />
    <rect
       width="3"
       height="3"
       x="25"
       y="1024.3622"
       id="rect3025-7"
       style="fill:#989898;fill-opacity:1;stroke:none" />
    <rect
       width="3"
       height="3"
       x="3.9999998"
       y="1027.3622"
       id="rect3027-7"
       style="fill:#9b9b9b;fill-opacity:1;stroke:none" />
    <rect
       width="3"
       height="3"
       x="6.9999995"
       y="1027.3622"
       id="rect3029-6"
       style="fill:#9b9b9b;fill-opacity:1;stroke:none" />
    <rect
       width="3"
       height="3"
       x="10"
       y="1027.3622"
       id="rect3031-0"
       style="fill:#a3a3a3;fill-opacity:1;stroke:none" />
    <rect
       width="3"
       height="3"
       x="10"
       y="1027.3622"
       id="rect3033-4"
       style="fill:#9b9b9b;fill-opacity:1;stroke:none" />
    <rect
       width="3"
       height="3"
       x="13"
       y="1027.3622"
       id="rect3035-4"
       style="fill:#aaaaaa;fill-opacity:1;stroke:none" />
    <rect
       width="3"
       height="3"
       x="16"
       y="1027.3622"
       id="rect3037-2"
       style="fill:#c1c1c1;fill-opacity:1;stroke:none" />
    <rect
       width="3"
       height="3"
       x="19"
       y="1027.3622"
       id="rect3039-4"
       style="fill:#bebebe;fill-opacity:1;stroke:none" />
    <rect
       width="3"
       height="3"
       x="22"
       y="1027.3622"
       id="rect3041-2"
       style="fill:#9b9b9b;fill-opacity:1;stroke:none" />
    <rect
       width="3"
       height="3"
       x="25"
       y="1027.3622"
       id="rect3043-1"
       style="fill:#919191;fill-opacity:1;stroke:none" />
    <rect
       width="3"
       height="3"
       x="3.9999998"
       y="1030.3622"
       id="rect3045-3"
       style="fill:#9b9b9b;fill-opacity:1;stroke:none" />
    <rect
       width="3"
       height="3"
       x="6.9999995"
       y="1030.3622"
       id="rect3047-1"
       style="fill:#c7c7c7;fill-opacity:1;stroke:none" />
    <rect
       width="3"
       height="3"
       x="10"
       y="1030.3622"
       id="rect3049-5"
       style="fill:#a3a3a3;fill-opacity:1;stroke:none" />
    <rect
       width="3"
       height="3"
       x="10"
       y="1030.3622"
       id="rect3051-9"
       style="fill:#cacaca;fill-opacity:1;stroke:none" />
    <rect
       width="3"
       height="3"
       x="13"
       y="1030.3622"
       id="rect3053-2"
       style="fill:#d8d8d8;fill-opacity:1;stroke:none" />
    <rect
       width="3"
       height="3"
       x="16"
       y="1030.3622"
       id="rect3055-9"
       style="fill:#cfcfcf;fill-opacity:1;stroke:none" />
    <rect
       width="3"
       height="3"
       x="19"
       y="1030.3622"
       id="rect3057-7"
       style="fill:#cfcfcf;fill-opacity:1;stroke:none" />
    <rect
       width="3"
       height="3"
       x="22"
       y="1030.3622"
       id="rect3059-2"
       style="fill:#bababa;fill-opacity:1;stroke:none" />
    <rect
       width="3"
       height="3"
       x="25"
       y="1030.3622"
       id="rect3061-7"
       style="fill:#aaaaaa;fill-opacity:1;stroke:none" />
    <path
       d="m 6.0000007,1035.3622 8.0000003,0 0,2 -6.0000003,0 0,3 -2,0 z"
       id="path4032-3"
       style="fill:#000000;fill-opacity:1;stroke:none;filter:url(#filter4028-6)" />
    <rect
       width="3"
       height="3"
       x="3.9999998"
       y="1033.3622"
       id="rect3063-8"
       style="fill:#bababa;fill-opacity:1;stroke:none" />
    <rect
       width="3"
       height="3"
       x="6.9999995"
       y="1033.3622"
       id="rect3065-6"
       style="fill:#c4c4c4;fill-opacity:1;stroke:none" />
    <rect
       width="3"
       height="3"
       x="10"
       y="1033.3622"
       id="rect3067-1"
       style="fill:#a3a3a3;fill-opacity:1;stroke:none" />
    <rect
       width="3"
       height="3"
       x="10"
       y="1033.3622"
       id="rect3069-9"
       style="fill:#bababa;fill-opacity:1;stroke:none" />
    <rect
       width="3"
       height="3"
       x="13"
       y="1033.3622"
       id="rect3071-7"
       style="fill:#c1c1c1;fill-opacity:1;stroke:none" />
    <path
       d="m 18.000001,1035.3622 8,0 0,2 -6,0 0,3 -2,0 z"
       id="path4036-6"
       style="fill:#000000;fill-opacity:1;stroke:none;filter:url(#filter4028-6)" />
    <rect
       width="3"
       height="3"
       x="16"
       y="1033.3622"
       id="rect3073-1"
       style="fill:#afafaf;fill-opacity:1;stroke:none" />
    <rect
       width="3"
       height="3"
       x="19"
       y="1033.3622"
       id="rect3075-8"
       style="fill:#cacaca;fill-opacity:1;stroke:none" />
    <rect
       width="3"
       height="3"
       x="22"
       y="1033.3622"
       id="rect3077-8"
       style="fill:#aaaaaa;fill-opacity:1;stroke:none" />
    <rect
       width="3"
       height="3"
       x="25"
       y="1033.3622"
       id="rect3079-2"
       style="fill:#aaaaaa;fill-opacity:1;stroke:none" />
    <rect
       width="3"
       height="3"
       x="3.9999998"
       y="1036.3622"
       id="rect3153-6"
       style="fill:#c4c4c4;fill-opacity:1;stroke:none" />
    <rect
       width="3"
       height="3"
       x="13"
       y="1036.3622"
       id="rect3159-7"
       style="fill:#c4c4c4;fill-opacity:1;stroke:none" />
    <rect
       width="3"
       height="3"
       x="16"
       y="1036.3622"
       id="rect3161-0"
       style="fill:#cacaca;fill-opacity:1;stroke:none" />
    <rect
       width="3"
       height="3"
       x="25"
       y="1036.3622"
       id="rect3167-3"
       style="fill:#bababa;fill-opacity:1;stroke:none" />
    <rect
       width="3"
       height="3"
       x="3.9999998"
       y="1039.3622"
       id="rect3169-4"
       style="fill:#a7a7a7;fill-opacity:1;stroke:none" />
    <rect
       width="3"
       height="3"
       x="6.9999995"
       y="1039.3622"
       id="rect3171-8"
       style="fill:#c1c1c1;fill-opacity:1;stroke:none" />
    <rect
       width="3"
       height="3"
       x="10"
       y="1039.3622"
       id="rect3173-5"
       style="fill:#a3a3a3;fill-opacity:1;stroke:none" />
    <rect
       width="3"
       height="3"
       x="10"
       y="1039.3622"
       id="rect3175-0"
       style="fill:#cacaca;fill-opacity:1;stroke:none" />
    <rect
       width="6"
       height="3"
       x="13"
       y="1039.3622"
       id="rect3177-4"
       style="fill:#828282;fill-opacity:1;stroke:none" />
    <rect
       width="3"
       height="3"
       x="19"
       y="1039.3622"
       id="rect3181-9"
       style="fill:#cacaca;fill-opacity:1;stroke:none" />
    <rect
       width="3"
       height="3"
       x="22"
       y="1039.3622"
       id="rect3183-7"
       style="fill:#aaaaaa;fill-opacity:1;stroke:none" />
    <rect
       width="3"
       height="3"
       x="25"
       y="1039.3622"
       id="rect3185-6"
       style="fill:#8f8f8f;fill-opacity:1;stroke:none" />
    <rect
       width="3"
       height="3"
       x="3.9999998"
       y="1042.3622"
       id="rect3187-1"
       style="fill:#9e9e9e;fill-opacity:1;stroke:none" />
    <rect
       width="3"
       height="3"
       x="25"
       y="1042.3622"
       id="rect3203-8"
       style="fill:#919191;fill-opacity:1;stroke:none" />
    <rect
       width="3"
       height="3"
       x="3.9999998"
       y="1045.3622"
       id="rect3205-4"
       style="fill:#828282;fill-opacity:1;stroke:none" />
    <rect
       width="3"
       height="3"
       x="6.9999995"
       y="1045.3622"
       id="rect3207-2"
       style="fill:#7f7f7f;fill-opacity:1;stroke:none" />
    <rect
       width="3"
       height="3"
       x="10"
       y="1045.3622"
       id="rect3209-3"
       style="fill:#a3a3a3;fill-opacity:1;stroke:none" />
    <rect
       width="3"
       height="3"
       x="10"
       y="1045.3622"
       id="rect3211-3"
       style="fill:#858585;fill-opacity:1;stroke:none" />
    <rect
       width="3"
       height="3"
       x="13"
       y="1045.3622"
       id="rect3213-9"
       style="fill:#858585;fill-opacity:1;stroke:none" />
    <rect
       width="3"
       height="3"
       x="16"
       y="1045.3622"
       id="rect3215-7"
       style="fill:#919191;fill-opacity:1;stroke:none" />
    <rect
       width="3"
       height="3"
       x="19"
       y="1045.3622"
       id="rect3217-0"
       style="fill:#858585;fill-opacity:1;stroke:none" />
    <rect
       width="3"
       height="3"
       x="22"
       y="1045.3622"
       id="rect3219-4"
       style="fill:#949494;fill-opacity:1;stroke:none" />
    <rect
       width="3"
       height="3"
       x="25"
       y="1045.3622"
       id="rect3221-5"
       style="fill:#888888;fill-opacity:1;stroke:none" />
    <path
       d="m 4.0000007,1023.3622 -1,1 0,24 1,1 24.0000003,0 1,-1 0,-24 -1,-1 z m 0,1 24.0000003,0 0,24 -24.0000003,0 z"
       id="rect3223-4"
       style="fill:#333333;fill-opacity:1;stroke:none" />
    <rect
       width="4"
       height="3"
       x="7.9999995"
       y="1036.3622"
       id="rect4124-4"
       style="fill:#008080;fill-opacity:1;stroke:none;filter:url(#filter5727)" />
    <rect
       width="2"
       height="1"
       x="9"
       y="1037.3622"
       id="rect4084-3"
       style="fill:#00ffff;fill-opacity:1;stroke:none;filter:url(#filter5711)" />
    <rect
       width="4"
       height="3"
       x="20"
       y="1036.3622"
       id="rect4124-9-2"
       style="fill:#008080;fill-opacity:1;stroke:none;filter:url(#filter5723)" />
    <rect
       width="2"
       height="1"
       x="21"
       y="1037.3622"
       id="rect4086-7"
       style="fill:#00ffff;fill-opacity:1;stroke:none;filter:url(#filter5719)" />
  </g>
</svg>
