<?xml version="1.0" encoding="utf-8"?>
<!-- Generator: Adobe Illustrator 18.1.0, SVG Export Plug-In . SVG Version: 6.00 Build 0)  -->
<!DOCTYPE svg PUBLIC "-//W3C//DTD SVG 1.1//EN" "http://www.w3.org/Graphics/SVG/1.1/DTD/svg11.dtd">
<svg version="1.1" id="Calque_1" xmlns="http://www.w3.org/2000/svg" xmlns:xlink="http://www.w3.org/1999/xlink" x="0px" y="0px"
	 viewBox="0 0 32 32" enable-background="new 0 0 32 32" xml:space="preserve">
<rect fill="none" width="32" height="32"/>
<g>
	<g>
		<path fill="#3366CC" d="M26,0H6C2.6,0,0,2.6,0,6v14c0,3.4,2.6,6,6,6l4,6l4-6h12c3.4,0,6-2.6,6-6V6C32,2.6,29.4,0,26,0z M16,20H6
			v-2h10V20z M26,16H6v-2h20V16z M26,12H6v-2h20V12z M26,8H6V6h20V8z"/>
	</g>
</g>
</svg>
