<svg xmlns="http://www.w3.org/2000/svg" xmlns:xlink="http://www.w3.org/1999/xlink" id="Calque_1" x="0" y="0" enable-background="new 0 0 32 32" version="1.1" viewBox="0 0 32 32" xml:space="preserve"><g id="_x36__17_"><g><path fill="#36C" d="M23,16.4c1.3-1.7,2-3.9,2-6.4c0-5.5-4-10-9-10S7,4.5,7,10c0,2.4,0.8,4.6,2,6.4c-2.3,0.8-4,3-4,5.6v4 c0,3.3,2.7,6,6,6h10c3.3,0,6-2.7,6-6v-4C27,19.4,25.3,17.2,23,16.4z M9,10c0-4.4,3.1-8,7-8s7,3.6,7,8c0,4.4-3.1,8-7,8S9,14.4,9,10 z M25,25.5c0,2.5-2.2,4.5-4.9,4.5h-8.2C9.2,30,7,28,7,25.5v-3c0-2.1,1.6-3.9,3.8-4.4C12.3,19.3,14,20,16,20s3.8-0.7,5.2-1.9 c2.2,0.5,3.8,2.2,3.8,4.4V25.5z"/></g></g></svg>