<svg xmlns="http://www.w3.org/2000/svg" xmlns:xlink="http://www.w3.org/1999/xlink" id="Calque_1" x="0" y="0" enable-background="new 0 0 32 32" version="1.1" viewBox="0 0 32 32" xml:space="preserve"><path fill="#36C" d="M31.1,19.8c0.5,0,0.9-0.4,0.9-0.9c0-0.5-0.4-0.9-0.9-0.9H26c0-0.2,0-0.4,0-0.6c0-0.7,0-1.4,0-2	c1.3-0.2,2.4-0.8,3.3-1.8c2.6-3,1.8-8.8,1.8-9C31,4,30.5,3.6,30,3.7c-0.5,0.1-0.9,0.6-0.8,1.1c0,0.1,0.7,5.1-1.4,7.5	c-0.6,0.6-1.3,1-2.2,1.1c-0.1-0.4-0.3-0.7-0.6-1c-0.4-0.4-0.8-0.6-1.4-0.9c0.4-0.5,0.7-1.2,0.7-2.2c0-2.4-1.6-4.5-4.2-5.6l-0.1,0	C19.8,1.6,18.1,0,16,0C14,0,12.3,1.6,12,3.7l-0.1,0v0C9.3,4.9,7.7,7,7.7,9.4c0,1,0.3,1.7,0.7,2.2c-0.6,0.2-1,0.5-1.4,0.9	c-0.3,0.3-0.5,0.6-0.6,1c-0.9-0.1-1.6-0.5-2.2-1.1C2.1,9.9,2.8,4.8,2.8,4.7c0.1-0.5-0.3-1-0.8-1.1C1.5,3.6,1,4,1,4.5	c0,0.2-0.8,6,1.8,9c0.9,1,2,1.6,3.3,1.8c0,0.6,0,1.2,0,2c0,0.2,0,0.4,0,0.6H0.9c-0.5,0-0.9,0.4-0.9,0.9c0,0.5,0.4,0.9,0.9,0.9h5.2	c0.1,1.2,0.3,2.3,0.6,3.4c-1.6,0.2-3,0.8-3.9,1.9c-2.2,2.4-1.9,5.9-1.9,6.1c0,0.5,0.5,0.9,0.9,0.9c0,0,0.1,0,0.1,0	c0.5,0,0.9-0.5,0.9-1c0,0-0.2-2.9,1.4-4.6C4.9,25.5,6,25.1,7.4,25c1.7,3.7,4.9,6.2,8.6,6.2c0,0,0,0,0,0c0,0,0,0,0,0c0,0,0,0,0,0	c3.7,0,6.9-2.5,8.6-6.2c1.4,0.1,2.4,0.5,3.2,1.4c1.6,1.7,1.4,4.6,1.4,4.6c0,0.5,0.3,1,0.9,1c0,0,0.1,0,0.1,0c0.5,0,0.9-0.4,0.9-0.9	c0-0.2,0.3-3.7-1.9-6.1c-1-1.1-2.3-1.7-3.9-1.9c0.3-1.1,0.5-2.2,0.6-3.4H31.1z M16,1.9c0.8,0,1.5,0.5,1.9,1.2	c-0.2,0-0.4-0.1-0.5-0.1c-0.1,0-0.2,0-0.3,0c-0.4,0-0.7-0.1-1.1-0.1c-0.4,0-0.7,0-1.1,0.1c-0.1,0-0.2,0-0.3,0c-0.2,0-0.4,0-0.5,0.1	C14.5,2.4,15.2,1.9,16,1.9z M9.6,9.4c0-1.7,1.4-3.3,3.5-4.1c1.8-0.7,3.9-0.7,5.8,0c2.1,0.8,3.5,2.4,3.5,4.1c0,1-0.2,1.5-3.1,1.6	c-1,0-2-0.1-3.3-0.1c0,0,0,0-0.1,0c0,0,0,0,0,0c0,0,0,0,0,0c-1.2,0-2.3,0-3.2,0.1C9.9,11,9.6,10.5,9.6,9.4z M16.9,29.2V18.9	c0-0.5-0.4-0.9-0.9-0.9c-0.5,0-0.9,0.4-0.9,0.9v10.3C11.1,28.6,8,24.3,8,19c0-0.7,0-1.3,0-1.8c0-1.8-0.1-2.9,0.4-3.4	c0.6-0.6,2.1-0.8,4.5-0.9c0.4,0,0.9,0,1.3,0c1.1,0,2.4,0,3.5,0c0.5,0,1,0,1.5,0c2.4,0.1,3.9,0.3,4.5,0.9c0.5,0.5,0.5,1.7,0.4,3.4	c0,0.5,0,1,0,1.6c0,0,0,0,0,0.1c0,0,0,0,0,0.1c0,0,0,0.1,0,0.1C24.1,24.3,21,28.6,16.9,29.2z"/></svg>