<svg enable-background="new 0 0 32 32" viewBox="0 0 32 32" xmlns="http://www.w3.org/2000/svg">
  <path d="m31.1 19.8c.5 0 .9-.4.9-.9s-.4-.9-.9-.9h-5.1c0-.2 0-.4 0-.6 0-.7 0-1.4 0-2 1.3-.2 2.4-.8 3.3-1.8 2.6-3 1.8-8.8 1.8-9-.1-.6-.6-1-1.1-.9s-.9.6-.8 1.1c0 .1.7 5.1-1.4 7.5-.6.6-1.3 1-2.2 1.1-.1-.4-.3-.7-.6-1-.4-.4-.8-.6-1.4-.9.4-.5.7-1.2.7-2.2 0-2.4-1.6-4.5-4.2-5.6h-.1c-.2-2.1-1.9-3.7-4-3.7-2 0-3.7 1.6-4 3.7h-.1c-2.6 1.2-4.2 3.3-4.2 5.7 0 1 .3 1.7.7 2.2-.6.2-1 .5-1.4.9-.3.3-.5.6-.6 1-.9-.1-1.6-.5-2.2-1.1-2.1-2.5-1.4-7.6-1.4-7.7.1-.5-.3-1-.8-1.1-.5 0-1 .4-1 .9 0 .2-.8 6 1.8 9 .9 1 2 1.6 3.3 1.8v2 .6h-5.2c-.5 0-.9.4-.9.9s.4.9.9.9h5.2c.1 1.2.3 2.3.6 3.4-1.6.2-3 .8-3.9 1.9-2.2 2.4-1.9 5.9-1.9 6.1 0 .5.5.9.9.9h.1c.5 0 .9-.5.9-1 0 0-.2-2.9 1.4-4.6.7-.9 1.8-1.3 3.2-1.4 1.7 3.7 4.9 6.2 8.6 6.2s6.9-2.5 8.6-6.2c1.4.1 2.4.5 3.2 1.4 1.6 1.7 1.4 4.6 1.4 4.6 0 .5.3 1 .9 1h.1c.5 0 .9-.4.9-.9 0-.2.3-3.7-1.9-6.1-1-1.1-2.3-1.7-3.9-1.9.3-1.1.5-2.2.6-3.4h5.2zm-15.1-17.9c.8 0 1.5.5 1.9 1.2-.2 0-.4-.1-.5-.1s-.2 0-.3 0c-.4 0-.7-.1-1.1-.1s-.7 0-1.1.1c-.1 0-.2 0-.3 0-.2 0-.4 0-.5.1.4-.7 1.1-1.2 1.9-1.2zm-6.4 7.5c0-1.7 1.4-3.3 3.5-4.1 1.8-.7 3.9-.7 5.8 0 2.1.8 3.5 2.4 3.5 4.1 0 1-.2 1.5-3.1 1.6-1 0-2-.1-3.3-.1 0 0 0 0-.1 0-1.2 0-2.3 0-3.2.1-2.8 0-3.1-.5-3.1-1.6zm7.3 19.8v-10.3c0-.5-.4-.9-.9-.9s-.9.4-.9.9v10.3c-4-.6-7.1-4.9-7.1-10.2 0-.7 0-1.3 0-1.8 0-1.8-.1-2.9.4-3.4.6-.6 2.1-.8 4.5-.9h1.3 3.5 1.5c2.4.1 3.9.3 4.5.9.5.5.5 1.7.4 3.4v1.6.1.1.1c0 5.2-3.1 9.5-7.2 10.1z" fill="#36c"/>
</svg>
