<?xml version="1.0" encoding="utf-8"?>
<!-- Generator: Adobe Illustrator 18.1.0, SVG Export Plug-In . SVG Version: 6.00 Build 0)  -->
<!DOCTYPE svg PUBLIC "-//W3C//DTD SVG 1.1//EN" "http://www.w3.org/Graphics/SVG/1.1/DTD/svg11.dtd">
<svg version="1.1" id="Calque_1" xmlns="http://www.w3.org/2000/svg" xmlns:xlink="http://www.w3.org/1999/xlink" x="0px" y="0px"
	 viewBox="0 0 32 32" enable-background="new 0 0 32 32" xml:space="preserve">
<path fill-rule="evenodd" clip-rule="evenodd" fill="#3366CC" d="M28,32H4c-2.2,0-4-1.8-4-4V4c0-2.2,1.8-4,4-4h6c2.2,0,4,1.8,4,4h14
	c2.2,0,4,1.8,4,4v20C32,30.2,30.2,32,28,32z M2,28c0,1.1,0.9,2,2,2h24c1.1,0,2-0.9,2-2V8c0-1.1-0.9-2-2-2H12V4c0-1.1-0.9-2-2-2H4
	C2.9,2,2,2.9,2,4V28z"/>
<g>
	<path fill="#3366CC" d="M21.9,26.9L16,23.7l-5.9,3.3l1.1-6.9l-4.8-4.9l6.6-1l3-6.4l3,6.4l6.6,1L20.8,20L21.9,26.9z M10.6,16.5
		l2.8,2.8l-0.6,3.9l3.3-1.8l3.3,1.8l-0.6-3.9l2.8-2.8l-3.8-0.6L16,12.5l-1.6,3.5L10.6,16.5z"/>
</g>
</svg>
