<svg enable-background="new 0 0 32 32" viewBox="0 0 32 32" xmlns="http://www.w3.org/2000/svg">
  <g fill="#36c">
    <path d="m21.7 25.4c-.4-.4-1-.4-1.4 0l-3.3 3.3v-13.7c0-.6-.4-1-1-1s-1 .4-1 1v13.6l-3.3-3.2c-.4-.4-1-.4-1.4 0s-.4 1 0 1.4l4.9 4.9c.2.2.5.3.8.3s.6-.1.8-.3l4.9-4.9c.4-.4.4-1 0-1.4z"/>
    <path d="m20 21h5c2.7-1.5 5.1-4.2 5-7-.2-3.3-3.5-7.2-8.5-7-.8-2.9-3.1-5-6.5-5-4.3 0-7 3.9-7 8-3.3.2-6 3-6 6 0 5.4 6 5 6 5s4 0 4 0c.6 0 1 .4 1 1s-.4 1-1 1h-4c-4.5-.2-8-2.7-8-7 0-3.6 2.5-6.7 6-7.7.4-4.6 4.3-8.3 9-8.3 3.5 0 6.6 2.1 8.1 5 5 .3 8.9 4.4 8.9 9.5 0 3.9-3.6 7-7 8.5h-5c-.6 0-1-.4-1-1s.4-1 1-1z"/>
  </g>
</svg>
