<svg xmlns="http://www.w3.org/2000/svg" xmlns:xlink="http://www.w3.org/1999/xlink" id="Calque_1" x="0" y="0" enable-background="new 0 0 32 32" version="1.1" viewBox="0 0 32 32" xml:space="preserve"><g id="_x33__7_"><g><path fill="#36C" d="M20,8H4c-2.2,0-4,1.8-4,4v16c0,2.2,1.8,4,4,4h16c2.2,0,4-1.8,4-4V12C24,9.8,22.2,8,20,8z M22,28 c0,1.1-0.9,2-2,2H4c-1.1,0-2-0.9-2-2V12c0-1.1,0.9-2,2-2h16c1.1,0,2,0.9,2,2V28z M28,0H12C9.8,0,8,1.8,8,4v2h2V4c0-1.1,0.9-2,2-2 h16c1.1,0,2,0.9,2,2v16c0,1.1-0.9,2-2,2h-2v2h2c2.2,0,4-1.8,4-4V4C32,1.8,30.2,0,28,0z"/></g></g></svg>