<svg xmlns="http://www.w3.org/2000/svg" xmlns:xlink="http://www.w3.org/1999/xlink" id="Calque_1" x="0" y="0" enable-background="new 0 0 32 32" version="1.1" viewBox="0 0 32 32" xml:space="preserve"><g><g id="_x38__2_"><g><path fill="#36C" d="M16,0C7.2,0,0,7.2,0,16c0,8.8,7.2,16,16,16s16-7.2,16-16C32,7.2,24.8,0,16,0z M16,30C8.3,30,2,23.7,2,16 C2,8.3,8.3,2,16,2s14,6.3,14,14C30,23.7,23.7,30,16,30z"/></g></g><g><path fill="#36C" d="M21.9,24.8L16,21.5l-5.9,3.3l1.1-6.9l-4.8-4.9l6.6-1l3-6.4l3,6.4l6.6,1l-4.8,4.9L21.9,24.8z M10.6,14.3 l2.8,2.8L12.7,21l3.3-1.8l3.3,1.8l-0.6-3.9l2.8-2.8l-3.8-0.6L16,10.3l-1.6,3.5L10.6,14.3z"/></g></g></svg>