<svg xmlns="http://www.w3.org/2000/svg" xmlns:svg="http://www.w3.org/2000/svg" id="Calque_1" x="0" y="0" enable-background="new 0 0 32 32" version="1.1" viewBox="0 0 32 32" xml:space="preserve"><metadata id="metadata15"/><g id="g8"><path id="path6" fill="#36C" fill-rule="evenodd" d="M28,32H4c-2.2,0-4-1.8-4-4V4c0-2.2,1.8-4,4-4h24c2.2,0,4,1.8,4,4 v24C32,30.2,30.2,32,28,32z M30,4c0-1.1-0.9-2-2-2H4C2.9,2,2,2.9,2,4v24c0,1.1,0.9,2,2,2h24c1.1,0,2-0.9,2-2V4z" clip-rule="evenodd"/></g><g id="g856" style="fill:#36c;fill-opacity:1" transform="matrix(0.03343306,0,0,0.03343306,7.2249919,7.2249919)"><g id="g854" style="fill:#36c;fill-opacity:1"><path id="path850" d="m 226.434,249.503 c 0,-6.995 -2.705,-13.403 -7.846,-18.556 L 61.8,74.165 c -5.128,-5.141 -11.554,-7.852 -18.568,-7.852 -7.026,0 -13.452,2.717 -18.556,7.846 l -16.83,16.83 c -5.129,5.135 -7.84,11.549 -7.84,18.538 0,7.026 2.717,13.452 7.846,18.556 L 129.267,249.503 7.84,370.936 C 2.711,376.071 0,382.491 0,389.486 c 0,7.02 2.717,13.439 7.846,18.544 l 16.775,16.774 c 5.116,5.165 11.555,7.895 18.611,7.895 7.044,0 13.47,-2.723 18.556,-7.846 l 156.813,-156.8 c 5.128,-5.14 7.833,-11.549 7.833,-18.55 z" style="fill:#36c;fill-opacity:1"/><path id="path852" d="m 498.866,384.951 h -323.02 c -7.203,0 -13.611,2.583 -18.581,7.528 -4.896,4.92 -7.484,11.327 -7.484,18.531 v 21.536 c 0,7.252 2.607,13.672 7.491,18.543 4.915,4.927 11.34,7.528 18.574,7.528 h 323.02 c 7.239,0 13.659,-2.607 18.531,-7.497 4.927,-4.908 7.533,-11.334 7.533,-18.58 v -21.537 c 0,-7.209 -2.589,-13.616 -7.54,-18.592 -4.913,-4.877 -11.321,-7.46 -18.524,-7.46 z" style="fill:#36c;fill-opacity:1"/></g></g></svg>