<svg enable-background="new 0 0 32 32" viewBox="0 0 32 32" xmlns="http://www.w3.org/2000/svg">
  <g fill="#36c">
    <path d="m28 4h-14c0-2.2-1.8-4-4-4h-6c-2.2 0-4 1.8-4 4v24c0 2.2 1.8 4 4 4h24c2.2 0 4-1.8 4-4v-20c0-2.2-1.8-4-4-4zm2 24c0 1.1-.9 2-2 2h-24c-1.1 0-2-.9-2-2v-16h28zm0-18h-28v-6c0-1.1.9-2 2-2h6c1.1 0 2 .9 2 2v2h16c1.1 0 2 .9 2 2z"/>
    <path d="m21.7 25.4c-.4-.4-1-.4-1.4 0l-3.3 3.3v-13.7c0-.6-.4-1-1-1s-1 .4-1 1v13.6l-3.3-3.2c-.4-.4-1-.4-1.4 0s-.4 1 0 1.4l4.9 4.9c.2.2.5.3.8.3s.6-.1.8-.3l4.9-4.9c.4-.4.4-1 0-1.4z" transform="matrix(0 -1 1 0 -7 37.474454)"/>
  </g>
</svg>
