<svg xmlns="http://www.w3.org/2000/svg" xmlns:xlink="http://www.w3.org/1999/xlink" id="Calque_1" x="0" y="0" enable-background="new 0 0 32 32" version="1.1" viewBox="0 0 32 32" xml:space="preserve"><g id="_x32__5_"><g><path fill="#36C" d="M26,24H14.9c-0.4-1.7-2-3-3.9-3s-3.4,1.3-3.9,3H6c-0.6,0-1,0.4-1,1c0,0.6,0.4,1,1,1h1.1c0.4,1.7,2,3,3.9,3 s3.4-1.3,3.9-3H26c0.6,0,1-0.4,1-1C27,24.4,26.6,24,26,24z M11,27.4c-1.3,0-2.4-1.1-2.4-2.4c0-1.3,1.1-2.4,2.4-2.4 s2.4,1.1,2.4,2.4C13.4,26.3,12.3,27.4,11,27.4z M26,16h-2.1c-0.4-1.7-2-3-3.9-3s-3.4,1.3-3.9,3H6c-0.6,0-1,0.4-1,1 c0,0.6,0.4,1,1,1h10.1c0.4,1.7,2,3,3.9,3s3.4-1.3,3.9-3H26c0.6,0,1-0.4,1-1C27,16.4,26.6,16,26,16z M20,19.4 c-1.3,0-2.4-1.1-2.4-2.4c0-1.3,1.1-2.4,2.4-2.4s2.4,1.1,2.4,2.4C22.4,18.3,21.3,19.4,20,19.4z M26,8H14.9c-0.4-1.7-2-3-3.9-3 S7.6,6.3,7.1,8H6C5.4,8,5,8.4,5,9c0,0.6,0.4,1,1,1h1.1c0.4,1.7,2,3,3.9,3s3.4-1.3,3.9-3H26c0.6,0,1-0.4,1-1C27,8.4,26.6,8,26,8z M11,11.4c-1.3,0-2.4-1.1-2.4-2.4c0-1.3,1.1-2.4,2.4-2.4s2.4,1.1,2.4,2.4C13.4,10.3,12.3,11.4,11,11.4z M28,0H4C1.8,0,0,1.8,0,4 v24c0,2.2,1.8,4,4,4h24c2.2,0,4-1.8,4-4V4C32,1.8,30.2,0,28,0z M30,28c0,1.1-0.9,2-2,2H4c-1.1,0-2-0.9-2-2V4c0-1.1,0.9-2,2-2h24 c1.1,0,2,0.9,2,2V28z"/></g></g></svg>