<svg enable-background="new 0 0 32 32" viewBox="0 0 32 32" xmlns="http://www.w3.org/2000/svg">
  <path d="m26 24h-11.1c-.4-1.7-2-3-3.9-3s-3.4 1.3-3.9 3h-1.1c-.6 0-1 .4-1 1s.4 1 1 1h1.1c.4 1.7 2 3 3.9 3s3.4-1.3 3.9-3h11.1c.6 0 1-.4 1-1s-.4-1-1-1zm-15 3.4c-1.3 0-2.4-1.1-2.4-2.4s1.1-2.4 2.4-2.4 2.4 1.1 2.4 2.4-1.1 2.4-2.4 2.4zm15-11.4h-2.1c-.4-1.7-2-3-3.9-3s-3.4 1.3-3.9 3h-10.1c-.6 0-1 .4-1 1s.4 1 1 1h10.1c.4 1.7 2 3 3.9 3s3.4-1.3 3.9-3h2.1c.6 0 1-.4 1-1s-.4-1-1-1zm-6 3.4c-1.3 0-2.4-1.1-2.4-2.4s1.1-2.4 2.4-2.4 2.4 1.1 2.4 2.4-1.1 2.4-2.4 2.4zm6-11.4h-11.1c-.4-1.7-2-3-3.9-3s-3.4 1.3-3.9 3h-1.1c-.6 0-1 .4-1 1s.4 1 1 1h1.1c.4 1.7 2 3 3.9 3s3.4-1.3 3.9-3h11.1c.6 0 1-.4 1-1s-.4-1-1-1zm-15 3.4c-1.3 0-2.4-1.1-2.4-2.4s1.1-2.4 2.4-2.4 2.4 1.1 2.4 2.4-1.1 2.4-2.4 2.4zm17-11.4h-24c-2.2 0-4 1.8-4 4v24c0 2.2 1.8 4 4 4h24c2.2 0 4-1.8 4-4v-24c0-2.2-1.8-4-4-4zm2 28c0 1.1-.9 2-2 2h-24c-1.1 0-2-.9-2-2v-24c0-1.1.9-2 2-2h24c1.1 0 2 .9 2 2z" fill="#36c"/>
</svg>
