<svg enable-background="new 0 0 32 32" viewBox="0 0 32 32" xmlns="http://www.w3.org/2000/svg">
  <g fill="#36c">
    <path d="m20.5 28h-10.7l-5.6-12.1.6-.5c.1-.1 1.9-1.7 4.5-1.8.6 0 1 .4 1.1.9 0 .6-.4 1-.9 1.1-1.1.1-2.1.6-2.6.9l4.4 9.6h8.1l4.7-10.3c.6-1.6 2.2-2.5 3.9-2.2s2.9 1.7 2.8 3.4c-.2 3.7-2.7 4.8-2.8 4.8-.5.2-1.1 0-1.3-.5s0-1.1.5-1.3c0 0 1.5-.7 1.6-3.1 0-.8-.7-1.2-1.1-1.2-.2 0-1.3-.2-1.6.9v.1z"/>
    <path d="m29.3 26c-.6 0-1 .5-1 1 0 .9-4.5 2.9-13.1 2.9s-13.2-2-13.2-2.9c0-.5 1.5-1.4 4.3-2.1l-.9-1.9c-3.1.9-5.4 2.2-5.4 4 0 3.4 7.9 5 15.2 5s15.2-1.6 15.2-5c-.1-.5-.5-1-1.1-1z"/>
    <rect height="2" width="16.4" x="6.8" y="17.9"/>
    <rect height="2" width="13.3" x="8.6" y="22"/>
    <path d="m17 4.7.7 1.5.5 1 1.1.2 1.7.3-1.3 1.3-.7.7.2 1 .3 1.8-1.5-.9-1-.6-1 .5-1.4.8.3-1.8.2-1-.7-.7-1.3-1.3 1.7-.3 1.1-.2.5-1zm0-4.7-2.5 5.3-5.5.9 4 4.1-1 5.8 5-2.7 5 2.7-1-5.9 4-4.1-5.5-.8z"/>
  </g>
</svg>
