<svg xmlns="http://www.w3.org/2000/svg" xmlns:xlink="http://www.w3.org/1999/xlink" id="Calque_1" x="0" y="0" enable-background="new 0 0 32 32" version="1.1" viewBox="0 0 32 32" xml:space="preserve"><g><g><g><path fill="#36C" d="M20.5,28H9.8L4.2,15.9l0.6-0.5c0.1-0.1,1.9-1.7,4.5-1.8c0.6,0,1,0.4,1.1,0.9c0,0.6-0.4,1-0.9,1.1 c-1.1,0.1-2.1,0.6-2.6,0.9l4.4,9.6h8.1l4.7-10.3c0.6-1.6,2.2-2.5,3.9-2.2c1.7,0.3,2.9,1.7,2.8,3.4c-0.2,3.7-2.7,4.8-2.8,4.8 c-0.5,0.2-1.1,0-1.3-0.5c-0.2-0.5,0-1.1,0.5-1.3c0,0,1.5-0.7,1.6-3.1c0-0.8-0.7-1.2-1.1-1.2c-0.2,0-1.3-0.2-1.6,0.9l0,0.1 L20.5,28z"/></g><path fill="#36C" d="M29.3,26c-0.6,0-1,0.5-1,1c0,0.9-4.5,2.9-13.1,2.9S2,27.9,2,27c0-0.5,1.5-1.4,4.3-2.1l-0.9-1.9 C2.3,23.9,0,25.2,0,27c0,3.4,7.9,5,15.2,5s15.2-1.6,15.2-5C30.3,26.5,29.9,26,29.3,26z"/><g><rect width="16.4" height="2" x="6.8" y="17.9" fill="#36C"/></g><g><rect width="13.3" height="2" x="8.6" y="22" fill="#36C"/></g></g><g><g><path fill="#36C" d="M17,4.7l0.7,1.5l0.5,1l1.1,0.2l1.7,0.3l-1.3,1.3l-0.7,0.7l0.2,1l0.3,1.8L18,11.6L17,11l-1,0.5l-1.4,0.8 l0.3-1.8l0.2-1l-0.7-0.7l-1.3-1.3l1.7-0.3l1.1-0.2l0.5-1L17,4.7 M17,0l-2.5,5.3L9,6.2l4,4.1L12,16.1l5-2.7l5,2.7L21,10.2l4-4.1 l-5.5-0.8L17,0L17,0z"/></g></g></g></svg>