<svg xmlns="http://www.w3.org/2000/svg" xmlns:xlink="http://www.w3.org/1999/xlink" id="Calque_1" x="0" y="0" enable-background="new 0 0 32 32" version="1.1" viewBox="0 0 32 32" xml:space="preserve"><g><g><path fill="#36C" d="M20.4,28.1H9.8L4.2,15.9l0.6-0.5c0.1-0.1,1.9-1.7,4.4-1.8c0.6,0,1,0.4,1.1,0.9c0,0.6-0.4,1-0.9,1.1 c-1.1,0.1-2.1,0.6-2.6,0.9L11,26h8.1l4.7-10.2c0.6-1.6,2.2-2.5,3.9-2.1c1.7,0.3,2.9,1.7,2.8,3.3c-0.2,3.7-2.7,4.8-2.8,4.8 c-0.5,0.2-1.1,0-1.3-0.5c-0.2-0.5,0-1.1,0.5-1.3c0,0,1.5-0.7,1.6-3.1c0-0.8-0.7-1.2-1.1-1.2c-0.2,0-1.3-0.2-1.6,0.9l0,0.1 L20.4,28.1z"/></g><g><path fill="#36C" d="M14.2,14.4c-0.3,0-0.6-0.1-0.8-0.3c-1.9-2.2-3.1-4.8-2.9-6.7c0.2-1.8,2.2-5.3,5.9-7.2 C17-0.1,17.6,0,17.9,0.5C18.1,1,18,1.6,17.5,1.9c-3,1.6-4.7,4.5-4.8,5.7c-0.1,1,0.6,3.1,2.4,5.2c0.4,0.4,0.3,1.1-0.1,1.4 C14.7,14.3,14.5,14.4,14.2,14.4z"/></g><g><path fill="#36C" d="M17.5,16.5c-0.2,0-0.4-0.1-0.6-0.2c-0.4-0.3-0.5-1-0.2-1.4c0.1-0.2,0.3-0.4,0.5-0.6c0.9-0.9,1-1.2,0.6-1.8 c-0.1-0.1-0.3-0.4-0.6-0.6c-0.9-0.9-2.2-2.3-2.2-4c0-1.9,2.2-4,7.3-6.8c0.5-0.3,1.1-0.1,1.4,0.4c0.3,0.5,0.1,1.1-0.4,1.4 c-5.7,3.1-6.3,4.5-6.3,5c0,0.9,1,1.9,1.6,2.6c0.3,0.3,0.6,0.6,0.8,0.9c1.4,2.1-0.2,3.7-0.9,4.4c-0.1,0.1-0.3,0.2-0.3,0.3 C18.2,16.4,17.9,16.5,17.5,16.5z"/></g><path fill="#36C" d="M29.2,26c-0.6,0-1,0.5-1,1c0,0.9-4.4,2.9-13.1,2.9S2,27.9,2,27c0-0.5,1.4-1.4,4.3-2l-0.9-1.9 C2.3,23.9,0,25.2,0,27c0,3.4,7.8,5,15.1,5s15.1-1.6,15.1-5C30.2,26.5,29.7,26,29.2,26z"/><g><rect width="16.4" height="2" x="6.8" y="18" fill="#36C"/></g><g><rect width="13.2" height="2" x="8.6" y="22" fill="#36C"/></g></g></svg>