<svg enable-background="new 0 0 32 32" viewBox="0 0 32 32" xmlns="http://www.w3.org/2000/svg">
  <g fill="#36c">
    <path d="m20.4 28.1h-10.6l-5.6-12.2.6-.5c.1-.1 1.9-1.7 4.4-1.8.6 0 1 .4 1.1.9 0 .6-.4 1-.9 1.1-1.1.1-2.1.6-2.6.9l4.2 9.5h8.1l4.7-10.2c.6-1.6 2.2-2.5 3.9-2.1 1.7.3 2.9 1.7 2.8 3.3-.2 3.7-2.7 4.8-2.8 4.8-.5.2-1.1 0-1.3-.5s0-1.1.5-1.3c0 0 1.5-.7 1.6-3.1 0-.8-.7-1.2-1.1-1.2-.2 0-1.3-.2-1.6.9v.1z"/>
    <path d="m14.2 14.4c-.3 0-.6-.1-.8-.3-1.9-2.2-3.1-4.8-2.9-6.7.2-1.8 2.2-5.3 5.9-7.2.6-.3 1.2-.2 1.5.3.2.5.1 1.1-.4 1.4-3 1.6-4.7 4.5-4.8 5.7-.1 1 .6 3.1 2.4 5.2.4.4.3 1.1-.1 1.4-.3.1-.5.2-.8.2z"/>
    <path d="m17.5 16.5c-.2 0-.4-.1-.6-.2-.4-.3-.5-1-.2-1.4.1-.2.3-.4.5-.6.9-.9 1-1.2.6-1.8-.1-.1-.3-.4-.6-.6-.9-.9-2.2-2.3-2.2-4 0-1.9 2.2-4 7.3-6.8.5-.3 1.1-.1 1.4.4s.1 1.1-.4 1.4c-5.7 3.1-6.3 4.5-6.3 5 0 .9 1 1.9 1.6 2.6.3.3.6.6.8.9 1.4 2.1-.2 3.7-.9 4.4-.1.1-.3.2-.3.3 0 .3-.3.4-.7.4z"/>
    <path d="m29.2 26c-.6 0-1 .5-1 1 0 .9-4.4 2.9-13.1 2.9s-13.1-2-13.1-2.9c0-.5 1.4-1.4 4.3-2l-.9-1.9c-3.1.8-5.4 2.1-5.4 3.9 0 3.4 7.8 5 15.1 5s15.1-1.6 15.1-5c0-.5-.5-1-1-1z"/>
    <rect height="2" width="16.4" x="6.8" y="18"/>
    <rect height="2" width="13.2" x="8.6" y="22"/>
  </g>
</svg>
