<svg enable-background="new 0 0 32 32" viewBox="0 0 32 32" xmlns="http://www.w3.org/2000/svg">
  <metadata/>
  <g fill="#36c">
    <path clip-rule="evenodd" d="m28 32h-24c-2.2 0-4-1.8-4-4v-24c0-2.2 1.8-4 4-4h24c2.2 0 4 1.8 4 4v24c0 2.2-1.8 4-4 4zm2-28c0-1.1-.9-2-2-2h-24c-1.1 0-2 .9-2 2v24c0 1.1.9 2 2 2h24c1.1 0 2-.9 2-2z" fill-rule="evenodd"/>
    <path d="m8.8837922 9.8498439c-.5055801 0-.9415895.3572871-1.0410421.8525411l-2.1206408 10.611763c-.1150014.575036.2571428 1.131673.8311203 1.246676.5811915.119103 1.1327283-.257142 1.2466794-.831119l.6811731-3.393021h2.9988849l.676892 3.393021c.115982.582535.688371.946911 1.250962.831119.574046-.115001.94612-.67164.831119-1.246676l-2.120641-10.611763c-.099445-.495254-.535456-.8525411-1.041039-.8525411zm.642615 2.3905391h.4541203l.8482535 4.245562h-2.1506276zm11.3957598-2.8232323c-.586426 0-1.062464.4783758-1.062464 1.0667433v1.062461h-3.183102c-.58642 0-1.058175.478378-1.058175 1.066747 0 .588364.471753 1.062461 1.058175 1.062461h.28704c.603613 1.943292 1.489894 3.462457 2.484785 4.661121-.779374.714899-1.544795 1.300994-2.373399 1.957842-.456918.366958-.529604 1.039945-.162795 1.499442.36511.458786 1.034877.530676 1.490873.162795.900329-.71298 1.673977-1.308312 2.519064-2.086367.845087.778055 1.691565 1.373387 2.591893 2.086367.456001.367877 1.125761.295987 1.490873-.162795.366811-.459497.289838-1.132484-.167067-1.499442-.82861-.656848-1.662574-1.242943-2.441951-1.957842.994894-1.198734 1.953935-2.7179 2.55762-4.661121h.28275c.586426 0 1.062461-.474097 1.062461-1.062461 0-.588369-.476035-1.066747-1.062461-1.066747h-3.251659v-1.062461c0-.5883675-.476037-1.0667433-1.062461-1.0667433zm-1.743636 4.2584123h3.555818c-.458122 1.234642-1.137838 2.234128-1.812182 3.084565-.674344-.850437-1.285517-1.849853-1.743636-3.084565z"/>
  </g>
</svg>
