<?xml version="1.0" encoding="UTF-8" standalone="no"?>
<svg
   version="1.1"
   id="Calque_1"
   x="0px"
   y="0px"
   viewBox="0 0 32 32"
   enable-background="new 0 0 32 32"
   xml:space="preserve"
   xmlns="http://www.w3.org/2000/svg"
   xmlns:svg="http://www.w3.org/2000/svg"><defs
   id="defs45" />

<path
   id="path11889"
   style="color:#000000;fill:#3366cc;fill-opacity:1;stroke-width:0.999996;stroke-linecap:round;stroke-linejoin:round;paint-order:markers stroke fill"
   d="M 9.3515625 1.5410156 C 9.2434917 1.5379599 9.1351284 1.5389257 9.0273438 1.5429688 C 6.4405102 1.6400023 3.9843749 3.7548369 3.984375 6.5449219 L 3.984375 24.701172 C 3.9843742 28.421285 8.3520988 30.94086 11.572266 29.078125 L 27.259766 20.003906 C 30.478726 18.141866 30.478727 13.104225 27.259766 11.242188 L 11.572266 2.1679688 C 10.867854 1.7604958 10.108058 1.5624055 9.3515625 1.5410156 z M 9.0429688 3.5957031 C 9.5568946 3.5959458 10.065401 3.7305695 10.515625 3.9902344 A 1.50015 1.50015 0 0 0 10.517578 3.9902344 L 26.205078 13.064453 C 28.113387 14.165162 28.113387 17.080931 26.205078 18.181641 L 10.517578 27.255859 A 1.50015 1.50015 0 0 0 10.515625 27.255859 C 8.6111878 28.356592 6.0892988 26.90083 6.0898438 24.701172 L 6.0898438 6.5449219 C 6.090352 5.1229119 7.128734 3.8866658 8.5292969 3.640625 C 8.6999053 3.6105103 8.87166 3.5956222 9.0429688 3.5957031 z " /></svg>
