<svg enable-background="new 0 0 32 32" viewBox="0 0 32 32" xmlns="http://www.w3.org/2000/svg">
  <path d="m9.3515625 1.5410156c-.1080708-.0030557-.2164341-.0020899-.3242187.0019532-2.5868336.0970335-5.0429689 2.2118681-5.0429688 5.0019531v18.1562501c-.0000008 3.720113 4.3677238 6.239688 7.587891 4.376953l15.6875-9.074219c3.21896-1.86204 3.218961-6.899681 0-8.761718l-15.6875-9.0742192c-.704412-.407473-1.464208-.6055633-2.2207035-.6269532zm-.3085937 2.0546875c.5139258.0002427 1.0224322.1348664 1.4726562.3945313a1.50015 1.50015 0 0 0 .001953 0l15.6875 9.0742186c1.908309 1.100709 1.908309 4.016478 0 5.117188l-15.6875 9.074218a1.50015 1.50015 0 0 0 -.001953 0c-1.9044372 1.100733-4.4263262-.355029-4.4257812-2.554687v-18.1562501c.0005082-1.42201 1.0388902-2.6582561 2.4394531-2.9042969.1706084-.0301147.3423631-.0450028.5136719-.0449219z" fill="#36c" stroke-linecap="round" stroke-linejoin="round" stroke-width=".999996"/>
</svg>
