<svg enable-background="new 0 0 32 32" viewBox="0 0 32 32" xmlns="http://www.w3.org/2000/svg">
  <g fill="#36c">
    <path d="m21.9 24.6-5.9-3.3-5.9 3.3 1.1-6.9-4.8-4.9 6.6-1 3-6.4 3 6.4 6.6 1-4.8 4.9zm-11.3-10.4 2.8 2.8-.6 3.9 3.2-1.9 3.3 1.8-.6-3.8 2.8-2.8-3.8-.6-1.7-3.5-1.6 3.5z"/>
    <path clip-rule="evenodd" d="m28 32h-24c-2.2 0-4-1.8-4-4v-24c0-2.2 1.8-4 4-4h24c2.2 0 4 1.8 4 4v24c0 2.2-1.8 4-4 4zm2-28c0-1.1-.9-2-2-2h-24c-1.1 0-2 .9-2 2v24c0 1.1.9 2 2 2h24c1.1 0 2-.9 2-2z" fill-rule="evenodd"/>
  </g>
</svg>
