<svg xmlns="http://www.w3.org/2000/svg" xmlns:xlink="http://www.w3.org/1999/xlink" id="Calque_1" x="0" y="0" enable-background="new 0 0 32 32" version="1.1" viewBox="0 0 32 32" xml:space="preserve"><g id="_x37__21_"><g><path fill="#36C" d="M28,0c0,0-5.8,1.6-11,3c-0.7,0-1.3,0-2,0C10,1.7,4,0,4,0C1.8,0,0,1.8,0,4v21c0,2.2,1.9,3.3,4,4 c0,0,5.4,1.5,11,3h2c5.6-1.5,11-3,11-3c2.1-0.5,4-1.8,4-4V4C32,1.8,30.2,0,28,0z M15,30c-5.5-1.5-11-3-11-3c-1.1-0.3-2-0.9-2-2V4 c0-1.1,0.9-2,2-2l11,3V30z M30,25c0,1.1-0.9,1.7-2,2c0,0-5.4,1.5-11,3V5l11-3c1.1,0,2,0.9,2,2V25z"/></g></g></svg>