<svg enable-background="new 0 0 32 32" viewBox="0 0 32 32" xmlns="http://www.w3.org/2000/svg">
  <g fill="#36c">
    <path d="m0 0v32h32v-32zm30 30h-28v-25h2v2h2v-1h2v3h2v-5h2v2h2v-1h2v4h2v-3h2v2h2v-2h2v-1h2v1h3v-1h1z"/>
    <path d="m16 18.5c-1.9 1.9-3.8 3.9-6.7 3.9-3.1 0-5.3-2.3-5.3-5.4 0-2.9 2.3-5.4 5.5-5.4 2.7 0 4.7 2.2 6.5 3.9 1.9-1.9 3.8-3.9 6.7-3.9 3.1 0 5.3 2.3 5.3 5.4 0 2.9-2.3 5.4-5.5 5.4-2.7 0-4.7-2.2-6.5-3.9zm-1.5-1.5c-1.4-1.3-2.9-3.2-5-3.2-1.8 0-3.2 1.5-3.2 3.2 0 1.9 1.3 3.2 3.1 3.2 2.1 0 3.8-1.8 5.1-3.2zm11.2 0c0-1.9-1.3-3.2-3.1-3.2-2.1 0-3.8 1.8-5.1 3.2 1.4 1.3 2.9 3.2 5 3.2 1.8 0 3.2-1.5 3.2-3.2z"/>
  </g>
</svg>
