<svg xmlns="http://www.w3.org/2000/svg" xmlns:xlink="http://www.w3.org/1999/xlink" id="Calque_1" x="0" y="0" enable-background="new 0 0 32 32" version="1.1" viewBox="0 0 32 32" xml:space="preserve"><path fill="#36C" d="M0,0v32h32V0H0z M30,30H2V5h2v2h2V6h2v3h2V4h2v2h2V5h2v4h2V6h2v2h2V6h2V5h2v1h3V5h1L30,30z"/><g><path fill="#36C" d="M16,18.5c-1.9,1.9-3.8,3.9-6.7,3.9C6.2,22.4,4,20.1,4,17c0-2.9,2.3-5.4,5.5-5.4c2.7,0,4.7,2.2,6.5,3.9 c1.9-1.9,3.8-3.9,6.7-3.9c3.1,0,5.3,2.3,5.3,5.4c0,2.9-2.3,5.4-5.5,5.4C19.8,22.4,17.8,20.2,16,18.5z M14.5,17 c-1.4-1.3-2.9-3.2-5-3.2c-1.8,0-3.2,1.5-3.2,3.2c0,1.9,1.3,3.2,3.1,3.2C11.5,20.2,13.2,18.4,14.5,17z M25.7,17 c0-1.9-1.3-3.2-3.1-3.2c-2.1,0-3.8,1.8-5.1,3.2c1.4,1.3,2.9,3.2,5,3.2C24.3,20.2,25.7,18.7,25.7,17z"/></g></svg>