<svg enable-background="new 0 0 32 32" viewBox="0 0 32 32" xmlns="http://www.w3.org/2000/svg">
  <path d="m23 24h-14c-.6 0-1 .4-1 1s.4 1 1 1h14c.6 0 1-.4 1-1s-.4-1-1-1zm3-20h-3v-2h-2.7c-.9-1.2-2.5-2-4.3-2s-3.4.8-4.3 2h-2.7v2h-3c-2.2 0-4 1.8-4 4v20c0 2.2 1.8 4 4 4h20c2.2 0 4-1.8 4-4v-20c0-2.2-1.8-4-4-4zm-15 0h2.2c0-1.1 1.2-2 2.8-2 1.5 0 2.8.9 2.8 2h2.2v4h-10zm17 24c0 1.1-.9 2-2 2h-20c-1.1 0-2-.9-2-2v-20c0-1.1.9-2 2-2h3v4h14v-4h3c1.1 0 2 .9 2 2zm-5-9h-14c-.6 0-1 .4-1 1s.4 1 1 1h14c.6 0 1-.4 1-1s-.4-1-1-1zm0-5h-14c-.6 0-1 .4-1 1s.4 1 1 1h14c.6 0 1-.4 1-1s-.4-1-1-1z" fill="#36c"/>
</svg>
