<svg xmlns="http://www.w3.org/2000/svg" xmlns:xlink="http://www.w3.org/1999/xlink" id="Calque_1" x="0" y="0" enable-background="new 0 0 32 32" version="1.1" viewBox="0 0 32 32" xml:space="preserve"><g id="_x38__21_"><g><path fill="#36C" d="M23,24H9c-0.6,0-1,0.4-1,1c0,0.6,0.4,1,1,1h14c0.6,0,1-0.4,1-1C24,24.4,23.6,24,23,24z M26,4h-3V2h-2.7 c-0.9-1.2-2.5-2-4.3-2s-3.4,0.8-4.3,2H9v2H6C3.8,4,2,5.8,2,8v20c0,2.2,1.8,4,4,4h20c2.2,0,4-1.8,4-4V8C30,5.8,28.2,4,26,4z M11,4 h2.2c0-1.1,1.2-2,2.8-2c1.5,0,2.8,0.9,2.8,2H21v4H11V4z M28,28c0,1.1-0.9,2-2,2H6c-1.1,0-2-0.9-2-2V8c0-1.1,0.9-2,2-2h3v4h14V6h3 c1.1,0,2,0.9,2,2V28z M23,19H9c-0.6,0-1,0.4-1,1c0,0.6,0.4,1,1,1h14c0.6,0,1-0.4,1-1C24,19.4,23.6,19,23,19z M23,14H9 c-0.6,0-1,0.4-1,1c0,0.6,0.4,1,1,1h14c0.6,0,1-0.4,1-1C24,14.4,23.6,14,23,14z"/></g></g></svg>