<svg xmlns="http://www.w3.org/2000/svg" xmlns:xlink="http://www.w3.org/1999/xlink" id="Calque_1" x="0" y="0" enable-background="new 0 0 32 32" version="1.1" viewBox="0 0 32 32" xml:space="preserve"><path fill="#36C" d="M25,11c-1.6,0-3,0.7-3.9,1.9l-9.5-6.1C11.9,6.2,12,5.6,12,5c0-2.8-2.2-5-5-5S2,2.2,2,5s2.2,5,5,5	c1.4,0,2.7-0.6,3.6-1.5l9.6,6.2C20.1,15.1,20,15.5,20,16c0,0.5,0.1,0.9,0.2,1.4l-9.6,6.2C9.7,22.6,8.4,22,7,22c-2.8,0-5,2.2-5,5	s2.2,5,5,5s5-2.2,5-5c0-0.6-0.1-1.2-0.3-1.8l9.5-6.1c0.9,1.1,2.3,1.8,3.8,1.8c2.8,0,5-2.2,5-5S27.8,11,25,11z M7,8C5.3,8,4,6.7,4,5	s1.3-3,3-3s3,1.3,3,3S8.7,8,7,8z M7,30c-1.7,0-3-1.3-3-3s1.3-3,3-3s3,1.3,3,3S8.7,30,7,30z M25,19c-1.7,0-3-1.3-3-3s1.3-3,3-3	s3,1.3,3,3S26.7,19,25,19z"/></svg>