<svg enable-background="new 0 0 32 32" viewBox="0 0 32 32" xmlns="http://www.w3.org/2000/svg">
  <path d="m25 11c-1.6 0-3 .7-3.9 1.9l-9.5-6.1c.3-.6.4-1.2.4-1.8 0-2.8-2.2-5-5-5s-5 2.2-5 5 2.2 5 5 5c1.4 0 2.7-.6 3.6-1.5l9.6 6.2c-.1.4-.2.8-.2 1.3s.1.9.2 1.4l-9.6 6.2c-.9-1-2.2-1.6-3.6-1.6-2.8 0-5 2.2-5 5s2.2 5 5 5 5-2.2 5-5c0-.6-.1-1.2-.3-1.8l9.5-6.1c.9 1.1 2.3 1.8 3.8 1.8 2.8 0 5-2.2 5-5s-2.2-4.9-5-4.9zm-18-3c-1.7 0-3-1.3-3-3s1.3-3 3-3 3 1.3 3 3-1.3 3-3 3zm0 22c-1.7 0-3-1.3-3-3s1.3-3 3-3 3 1.3 3 3-1.3 3-3 3zm18-11c-1.7 0-3-1.3-3-3s1.3-3 3-3 3 1.3 3 3-1.3 3-3 3z" fill="#36c"/>
</svg>
