<svg xmlns="http://www.w3.org/2000/svg" xmlns:xlink="http://www.w3.org/1999/xlink" id="Calque_1" x="0" y="0" enable-background="new 0 0 32 32" version="1.1" viewBox="0 0 32 32" xml:space="preserve"><g id="_x32__8_"><g><path fill="#36C" d="M23.7,2H31c0.6,0,1-0.4,1-1c0-0.6-0.4-1-1-1H21c-0.1,0-1,0-1,1v10c0,0.6,0.4,1,1,1c0.6,0,1-0.4,1-1V3.4 c4.7,2.2,8,7.1,8,12.6c0,7.7-6.3,14-14,14C8.3,30,2,23.7,2,16C2,8.9,7.2,3.1,14,2.2v-2C6.1,1.1,0,7.8,0,16c0,8.8,7.2,16,16,16 c8.8,0,16-7.2,16-16C32,10,28.7,4.7,23.7,2z"/></g></g></svg>