<svg enable-background="new 0 0 32 32" viewBox="0 0 32 32" xmlns="http://www.w3.org/2000/svg">
  <path d="m28 5h-6v-2c0-1.1-.9-2-2-2h-8c-1.1 0-2 .9-2 2v2h-6c-2.2 0-4 1.8-4 4v18c0 2.2 1.8 4 4 4h24c2.2 0 4-1.8 4-4v-18c0-2.2-1.8-4-4-4zm-16-1c0-.6.4-1 1-1h6c.6 0 1 .4 1 1v1h-8zm18 23c0 1.1-.9 2-2 2h-24c-1.1 0-2-.9-2-2v-11h10.1c-.1.3-.1.7-.1 1 0 2.2 1.8 4 4 4s4-1.8 4-4c0-.3-.1-.7-.1-1h10.1zm-16-10c0-.4.1-.7.3-1h3.4c.2.3.3.6.3 1 0 1.1-.9 2-2 2s-2-.9-2-2zm16-3h-28v-5c0-1.1.9-2 2-2h24c1.1 0 2 .9 2 2z" fill="#36c"/>
</svg>
