<svg xmlns="http://www.w3.org/2000/svg" xmlns:xlink="http://www.w3.org/1999/xlink" id="Calque_1" x="0" y="0" enable-background="new 0 0 32 32" version="1.1" viewBox="0 0 32 32" xml:space="preserve"><g id="_x33__19_"><g><path fill="#36C" d="M28,5h-6V3c0-1.1-0.9-2-2-2h-8c-1.1,0-2,0.9-2,2v2H4C1.8,5,0,6.8,0,9v18c0,2.2,1.8,4,4,4h24 c2.2,0,4-1.8,4-4V9C32,6.8,30.2,5,28,5z M12,4c0-0.6,0.4-1,1-1h6c0.6,0,1,0.4,1,1v1h-8V4z M30,27c0,1.1-0.9,2-2,2H4 c-1.1,0-2-0.9-2-2V16h10.1c-0.1,0.3-0.1,0.7-0.1,1c0,2.2,1.8,4,4,4s4-1.8,4-4c0-0.3-0.1-0.7-0.1-1H30V27z M14,17 c0-0.4,0.1-0.7,0.3-1h3.4c0.2,0.3,0.3,0.6,0.3,1c0,1.1-0.9,2-2,2S14,18.1,14,17z M30,14H2V9c0-1.1,0.9-2,2-2h24c1.1,0,2,0.9,2,2 V14z"/></g></g></svg>