<svg xmlns="http://www.w3.org/2000/svg" xmlns:svg="http://www.w3.org/2000/svg" id="Calque_1" x="0" y="0" enable-background="new 0 0 32 32" version="1.1" viewBox="0 0 32 32" xml:space="preserve"><defs id="defs10"><linearGradient id="linearGradient3249"><stop style="stop-color:#000;stop-opacity:1" id="stop3247" offset="0"/></linearGradient></defs><g id="_x32__5_"><g id="g4"><path id="path2" fill="#36c" d="M 28,0 H 4 C 1.8,0 0,1.8 0,4 v 24 c 0,2.2 1.8,4 4,4 h 24 c 2.2,0 4,-1.8 4,-4 V 4 C 32,1.8 30.2,0 28,0 Z m 2,28 c 0,1.1 -0.9,2 -2,2 H 4 C 2.9,30 2,29.1 2,28 V 4 C 2,2.9 2.9,2 4,2 h 24 c 1.1,0 2,0.9 2,2 z"/></g></g><path style="fill:none;fill-rule:evenodd;stroke:#36c;stroke-width:2;stroke-linecap:butt;stroke-linejoin:round;stroke-opacity:1;stroke-miterlimit:4;stroke-dasharray:none" id="path58496" d="m 7,11 v 11 l 9,5 V 16 Z"/><path style="fill:none;fill-rule:evenodd;stroke:#36c;stroke-width:2;stroke-linecap:butt;stroke-linejoin:round;stroke-opacity:1;paint-order:normal;stroke-miterlimit:4;stroke-dasharray:none" id="path58498" d="m 16,27 9,-5 V 11 l -9,5 z"/><path style="fill:none;fill-rule:evenodd;stroke:#36c;stroke-width:2;stroke-linecap:butt;stroke-linejoin:round;stroke-opacity:1;stroke-miterlimit:4;stroke-dasharray:none" id="path36178" d="m 16,6 9,5 -9,5 -9,-5 z"/></svg>