<?xml version="1.0" encoding="utf-8"?>
<!-- Generator: Adobe Illustrator 18.1.0, SVG Export Plug-In . SVG Version: 6.00 Build 0)  -->
<!DOCTYPE svg PUBLIC "-//W3C//DTD SVG 1.1//EN" "http://www.w3.org/Graphics/SVG/1.1/DTD/svg11.dtd">
<svg version="1.1" id="Calque_1" xmlns="http://www.w3.org/2000/svg" xmlns:xlink="http://www.w3.org/1999/xlink" x="0px" y="0px"
	 viewBox="0 0 32 32" enable-background="new 0 0 32 32" xml:space="preserve">
<g id="_x35__5_">
	<g>
		<path fill="#3366CC" d="M3,11c0.6,0,1-0.5,1-1l0-4.8l15.2,14.5c0.4,0.4,1,0.4,1.4,0c0.4-0.4,0.4-1,0-1.4L5.6,4L10,4
			c0.6,0,1-0.5,1-1s-0.4-1-1-1H3C2.5,2,2,2.4,2,3v7C2,10.5,2.4,11,3,11z M26,2H15v2h11c1.1,0,2,0.9,2,2l0,20.1c0,1.1-0.9,2-2,2L6,28
			c-1.1,0-2-0.9-2-2V15H2v11c0,2.2,2.2,4,4.4,4h19.7c2.2,0,3.9-1.8,3.9-3.9V6.4C30,4.2,28.2,2,26,2z"/>
	</g>
</g>
</svg>
