<svg xmlns="http://www.w3.org/2000/svg" xmlns:xlink="http://www.w3.org/1999/xlink" id="Calque_1" x="0" y="0" enable-background="new 0 0 32 32" version="1.1" viewBox="0 0 32 32" xml:space="preserve"><path fill="#36C" d="M26,32H6c-3.4,0-6-2.6-6-6V6c0-3.4,2.6-6,6-6h20c3.4,0,6,2.6,6,6v20C32,29.4,29.4,32,26,32z M28,6	c0-1.2-0.8-2-2-2H6C4.8,4,4,4.8,4,6v20c0,1.2,0.8,2,2,2h20c1.2,0,2-0.8,2-2V6z M21.6,21.6c-0.8,0.8-2,0.8-2.8,0L16,18.8l-2.8,2.8	c-0.8,0.8-2,0.8-2.8,0c-0.8-0.8-0.8-2,0-2.8l2.8-2.8l-2.8-2.8c-0.8-0.8-0.8-2,0-2.8c0.8-0.8,2-0.8,2.8,0l2.8,2.8l2.8-2.8	c0.8-0.8,2-0.8,2.8,0s0.8,2,0,2.8L18.8,16l2.8,2.8C22.4,19.6,22.4,20.8,21.6,21.6z"/></svg>