<svg xmlns="http://www.w3.org/2000/svg" xmlns:svg="http://www.w3.org/2000/svg" id="Calque_1" width="100%" height="100%" x="0" y="0" enable-background="new 0 0 32 32" version="1.1" viewBox="0 0 32 32" xml:space="preserve"><metadata id="metadata19"/><g id="g3"><path id="path5" fill="#E3A333" d="M26,0H6C2.7,0,0,2.7,0,6v20c0,3.3,2.7,6,6,6h20c3.3,0,6-2.7,6-6V6C32,2.7,29.3,0,26,0z M28,26 c0,1.1-0.9,2-2,2H6c-1.1,0-2-0.9-2-2V6c0-1.1,0.9-2,2-2h20c1.1,0,2,0.9,2,2V26z"/></g><path id="path7" d="M 6 0 C 2.7 0 0 2.7 0 6 L 0 26 C 0 29.3 2.7 32 6 32 L 26 32 C 29.3 32 32 29.3 32 26 L 32 6 C 32 2.7 29.3 0 26 0 L 6 0 z M 6 4 L 26 4 C 27.1 4 28 4.9 28 6 L 28 26 C 28 27.1 27.1 28 26 28 L 6 28 C 4.9 28 4 27.1 4 26 L 4 6 C 4 4.9 4.9 4 6 4 z" style="fill:#36c;fill-opacity:1"/><g id="g11"><path id="path13" fill="#36C" d="M6,20c0-5.8,2.4-7.9,5.8-7.9c2,0,3.4,0.7,5.3,1.9c1.6,1,2.5,1.5,3.3,1.5c0.7,0,1.2-0.7,1.3-3.1H26 c0.2,6.1-2.3,8-5.5,8c-2,0-3.5-0.8-5.3-1.9c-1.7-1-2.6-1.6-3.3-1.6c-0.8,0-1.4,0.5-1.6,3.2H6z"/></g></svg>