<svg enable-background="new 0 0 32 32" viewBox="0 0 32 32" xmlns="http://www.w3.org/2000/svg">
  <path d="m26 0h-20c-3.4 0-6 2.6-6 6v20c0 3.4 2.6 6 6 6h20c3.4 0 6-2.6 6-6v-20c0-3.4-2.6-6-6-6zm2 26c0 1.2-.8 2-2 2h-20c-1.2 0-2-.8-2-2v-20c0-1.2.8-2 2-2h20c1.2 0 2 .8 2 2zm-7-15.6-7 7-2.8-2.8c-.8-.8-2-.8-2.8 0s-.8 2 0 2.8l4.2 4.2c.8.8 2 .8 2.8 0l8.4-8.4c.8-.8.8-2 0-2.8s-2-.8-2.8 0z" fill="none"/>
  <path d="m26 0h-20c-3.4 0-6 2.6-6 6v20c0 3.4 2.6 6 6 6h20c3.4 0 6-2.6 6-6v-20c0-3.4-2.6-6-6-6zm2 26c0 1.2-.8 2-2 2h-20c-1.2 0-2-.8-2-2v-20c0-1.2.8-2 2-2h20c1.2 0 2 .8 2 2zm-7-15.6-7 7-2.8-2.8c-.8-.8-2-.8-2.8 0s-.8 2 0 2.8l4.2 4.2c.8.8 2 .8 2.8 0l8.4-8.4c.8-.8.8-2 0-2.8s-2-.8-2.8 0z" fill="#36c"/>
</svg>
