<svg enable-background="new 0 0 32 32" viewBox="0 0 32 32" xmlns="http://www.w3.org/2000/svg">
  <metadata/>
  <path d="m4 0c-2.2 0-4 1.8-4 4v24c0 2.2 1.8 4 4 4h24c2.2 0 4-1.8 4-4v-24c0-2.2-1.8-4-4-4zm0 2h24c.1375 0 .272461.014258.402344.041016.000624.0001264.0013-.000127.002 0 .782578.1593282 1.395359.7721094 1.554687 1.5546875.026959.1304559.040969.2661441.040969.4042965v24c0 .1375-.01426.272461-.04102.402344-.000126.000624.000127.0013 0 .002-.159328.782578-.772109 1.395359-1.554687 1.554687-.130452.026959-.266141.040969-.404293.040969h-24c-.1378377 0-.2724931-.01471-.4023438-.04102-.0006162-.000127-.00134.000128-.00195 0-.7825781-.159328-1.3953593-.772109-1.5546875-1.554687-.000127-.000624.0001264-.0013 0-.002-.0267609-.129832-.0410187-.264793-.0410187-.402293v-24c0-.1378377.014708-.2724931.041016-.4023438.000127-.0006162-.0001275-.00134 0-.00195.1593278-.7825812.772109-1.3953624 1.5546871-1.5546906.1304297-.0265547.2657969-.0410156.4042969-.0410156z" fill="#36c"/>
  <g fill="none" stroke="#36c" stroke-width="1.636958" transform="matrix(1.0584012 .61035173 -.61035173 1.0584012 8.831209 -10.700046)">
    <ellipse cx="16" cy="16" rx="8.94737" ry="8.947369" stroke-linejoin="round"/>
    <ellipse cx="16" cy="15.947369" rx="3.491525" ry="8.947369" stroke-linejoin="round"/>
    <path d="m8.1848294 12.430327c4.3853536 2.360474 12.4774426 1.118199 15.1701706-.667697"/>
    <path d="m8.2166335 20.492522c4.3853535-2.360474 12.9321015-2.715783 15.6248295-.929887"/>
  </g>
</svg>
