<svg xmlns="http://www.w3.org/2000/svg" xmlns:svg="http://www.w3.org/2000/svg" id="Calque_1" x="0" y="0" enable-background="new 0 0 32 32" version="1.1" viewBox="0 0 32 32" xml:space="preserve"><metadata id="metadata12"/><g id="_x36__21_"><g id="g4"><path style="fill:#36c;fill-opacity:1" id="path2" d="M 4,0 C 1.8,0 0,1.8 0,4 v 24 c 0,2.2 1.8,4 4,4 h 24 c 2.2,0 4,-1.8 4,-4 V 4 C 32,1.8 30.2,0 28,0 Z m 0,2 h 24 c 0.1375,0 0.272461,0.014258 0.402344,0.041016 6.24e-4,1.264e-4 0.0013,-1.27e-4 0.002,0 0.782578,0.1593282 1.395359,0.7721094 1.554687,1.5546875 C 29.98599,3.7261594 30,3.8618476 30,4 v 24 c 0,0.1375 -0.01426,0.272461 -0.04102,0.402344 -1.26e-4,6.24e-4 1.27e-4,0.0013 0,0.002 -0.159328,0.782578 -0.772109,1.395359 -1.554687,1.554687 C 28.273841,29.98599 28.138152,30 28,30 H 4 c -0.1378377,0 -0.2724931,-0.01471 -0.4023438,-0.04102 -6.162e-4,-1.27e-4 -0.00134,1.28e-4 -0.00195,0 -0.7825781,-0.159328 -1.3953593,-0.772109 -1.5546875,-1.554687 -1.27e-4,-6.24e-4 1.264e-4,-0.0013 0,-0.002 C 2.0142578,28.272461 2,28.1375 2,28 V 4 c 0,-0.1378377 0.014708,-0.2724931 0.041016,-0.4023438 1.27e-4,-6.162e-4 -1.275e-4,-0.00134 0,-0.00195 C 2.2003438,2.813125 2.813125,2.2003438 3.5957031,2.0410156 3.7261328,2.0144609 3.8615,2 4,2 Z"/></g></g><g style="stroke:#36c;stroke-width:1.63695813;stroke-opacity:1" id="g881" transform="matrix(1.0584012,0.61035173,-0.61035173,1.0584012,8.831209,-10.700046)"><ellipse id="path845" cx="16" cy="16" rx="8.947" ry="8.947" style="color:#000;display:inline;overflow:visible;visibility:visible;opacity:1;fill:none;fill-opacity:1;fill-rule:nonzero;stroke:#36c;stroke-width:1.63695813;stroke-linecap:butt;stroke-linejoin:round;stroke-miterlimit:4;stroke-dasharray:none;stroke-dashoffset:0;stroke-opacity:1;marker:none;enable-background:accumulate"/><ellipse id="path845-3" cx="16" cy="15.947" rx="3.492" ry="8.947" style="color:#000;display:inline;overflow:visible;visibility:visible;opacity:1;fill:none;fill-opacity:1;fill-rule:nonzero;stroke:#36c;stroke-width:1.63695813;stroke-linecap:butt;stroke-linejoin:round;stroke-miterlimit:4;stroke-dasharray:none;stroke-dashoffset:0;stroke-opacity:1;marker:none;enable-background:accumulate"/><path style="fill:none;fill-opacity:1;fill-rule:evenodd;stroke:#36c;stroke-width:1.63695813;stroke-linecap:butt;stroke-linejoin:miter;stroke-opacity:1" id="path870" d="M 8.1848294,12.430327 C 12.570183,14.790801 20.662272,13.548526 23.355,11.76263"/><path id="path872" d="M 8.2166335,20.492522 C 12.601987,18.132048 21.148735,17.776739 23.841463,19.562635" style="fill:none;fill-opacity:1;fill-rule:evenodd;stroke:#36c;stroke-width:1.63695813;stroke-linecap:butt;stroke-linejoin:miter;stroke-opacity:1"/></g></svg>