<svg xmlns="http://www.w3.org/2000/svg" xmlns:svg="http://www.w3.org/2000/svg" xmlns:xlink="http://www.w3.org/1999/xlink" id="svg5" width="64" height="64" version="1.1" viewBox="0 0 16.933 16.933"><defs id="defs2"><linearGradient id="linearGradient206240"><stop style="stop-color:#88b858;stop-opacity:1" id="stop206236" offset="0"/><stop style="stop-color:#72b147;stop-opacity:1" id="stop134589" offset=".5"/><stop style="stop-color:#5a9a30;stop-opacity:1" id="stop206238" offset="1"/></linearGradient><linearGradient id="linearGradient84726" x1="4.498" x2="12.435" y1="3.801" y2="9.568" gradientUnits="userSpaceOnUse" xlink:href="#linearGradient206240"/></defs><g id="layer1"><path style="fill:#765338;fill-opacity:1;stroke:none;stroke-width:.264583px;stroke-linecap:butt;stroke-linejoin:miter;stroke-opacity:1" id="path90018" d="m 3.5610223,16.015678 c 0,0 0,-3.564159 4.905644,-3.564159 4.9069307,0 4.9056437,3.564159 4.9056437,3.564159 z"/><path style="fill:#b7835a;stroke:none;stroke-width:.264583px;stroke-linecap:butt;stroke-linejoin:miter;stroke-opacity:1;fill-opacity:1" id="path62382" d="M 8.466666,12.451519 3.5610223,16.015678 0.52916674,6.6845872 Z"/><path style="fill:#5b422d;stroke:none;stroke-width:.264583px;stroke-linecap:butt;stroke-linejoin:miter;stroke-opacity:1;fill-opacity:1" id="path100033" d="m 8.466666,12.451519 7.9375,-5.7669323 -3.031856,9.3310913 z"/><path style="fill:#72b147;fill-opacity:1;stroke:none;stroke-width:.264583px;stroke-linecap:butt;stroke-linejoin:miter;stroke-opacity:1" id="path986606" d="M 8.8308339,12.716102 8.4666661,12.980686 8.1024982,12.716102 c 0,-0.264583 0.3641681,-0.264583 0.3641681,-0.264583 0,0 0.3641676,0 0.3641676,0.264583 z"/><path style="fill:#5a9a30;fill-opacity:1;stroke:none;stroke-width:.264583px;stroke-linecap:butt;stroke-linejoin:miter;stroke-opacity:1" id="path986472" d="m 8.4666663,12.451519 c 0,0 -2e-7,-5.7669302 7.9374987,-5.7669302 L 16.179097,7.3772762 15.260564,8.5737969 14.342031,8.7119827 13.423498,9.9085036 12.504965,10.046689 11.586433,11.24321 10.6679,11.381396 9.7493669,12.577916 8.830834,12.716102 Z"/><path style="fill:#88b858;fill-opacity:1;stroke:none;stroke-width:.264583px;stroke-linecap:butt;stroke-linejoin:miter;stroke-opacity:1" id="path986404" d="M 8.1024983,12.716102 7.1839654,12.577916 6.2654325,11.381396 5.3468996,11.24321 4.4283667,10.046689 3.5098338,9.9085034 2.5913009,8.7119828 1.6727681,8.5737971 0.75423516,7.3772764 0.52916674,6.6845872 c 7.93749966,10e-8 7.93749956,5.7669318 7.93749956,5.7669318 z"/><path style="fill:url(#linearGradient84726);stroke:none;stroke-width:.26458333;stroke-linecap:butt;stroke-linejoin:miter;stroke-opacity:1;fill-opacity:1;stroke-miterlimit:4;stroke-dasharray:none" id="path5260" d="M 0.52916674,6.6845872 8.4666663,12.451519 16.404166,6.6845867 8.4666666,0.91765555 Z"/><path style="fill:#000;stroke:none;stroke-width:.264583px;stroke-linecap:butt;stroke-linejoin:miter;stroke-opacity:1;fill-opacity:0" id="path970771" d="M 0.75423516,7.3772764 0.529167,6.684588 8.466666,12.451519 16.404165,6.6845883 16.179097,7.3772762 8.466666,12.980686 Z"/></g></svg>