<?xml version="1.0" encoding="UTF-8" standalone="no"?>
<svg width="64" height="64" xmlns="http://www.w3.org/2000/svg" xmlns:svg="http://www.w3.org/2000/svg">
    <g>
        <rect fill="black" width="100%" height="100%" />
        
        <svg x="5%" y="5%">
            <g transform="scale(0.90)">
                <circle fill="yellow" cx="50%" cy="50%" r="50%" />
                
                <svg overflow="visible" x="50%" y="50%">
                    <!-- It is scaled additionally by 0.125 because I did it for 512px then I realised that it was supposed to be for 64px -->
                    <path transform="scale(0.9) scale(0.125) translate(-256, -137)" fill="black" stroke-width="2.64232" d="M 352.84026,269.10805 C 335.51,263.27302 316.25019,253.0001 306.30051,244.28405 295.74776,235.0395 272.58032,206.8119 268.12566,197.77073 l -4.5526,-9.23932 -11.81871,16.02142 C 198.84317,276.28013 106.77259,288.2948 42.66676,231.83822 11.54287,204.42794 -5.4172603,155.9081 1.5550897,114.2255 5.1640297,92.65025 19.28503,61.32845 32.87507,44.75449 43.87309,31.341665 70.91047,15.264435 95.94864,7.2492046 c 16.03286,-5.13247 21.62832,-5.65432 44.18269,-4.12084 40.9811,2.78723 67.46765,15.2383004 98.8668,46.4791554 l 15.13944,15.06316 9.38592,-11.30758 C 271.93163,43.23356 289.25876,29.918415 310.40925,17.333405 319.65532,11.831865 349.20383,2.7020946 364.30868,0.67988456 411.01659,-5.5730254 475.88856,32.183415 496.79233,77.78802 c 18.75172,40.90959 20.10775,78.7731 4.36984,122.01609 -13.3981,36.81422 -57.21072,66.71764 -104.45358,71.29298 -10.23215,0.99071 -20.39901,2.257 -22.59303,2.81512 -2.19405,0.55815 -11.76789,-1.60463 -21.2753,-4.80558 z m 18.7236,-7.33155 c 2.68595,-4.95419 2.46617,-5.1914 -2.41773,-2.61279 -7.17844,3.79257 -9.60833,8.06058 -4.58908,8.06058 2.2287,0 5.38191,-2.4523 7.00679,-5.44918 z m 14.29713,1.13373 c 0.92229,-2.3721 0.99295,-4.98873 0.15548,-5.81407 -1.96754,-1.94303 -9.94694,3.02442 -11.30085,7.03361 -1.62937,4.82512 9.25741,3.63349 11.14392,-1.22094 z m 12.11228,1.78954 c 2.15166,-1.34303 3.10081,-3.24419 2.10925,-4.22199 -2.43363,-2.40349 -10.01049,0.65232 -10.01049,4.0371 0,3.3349 2.75344,3.39769 7.90124,0.17442 z m -38.68185,-4.4763 c 2.60927,-6.71234 -2.40748,-9.74127 -7.61646,-4.59906 -3.65687,3.61011 -3.85762,4.91965 -1.02583,6.6921 5.1164,3.20233 6.73637,2.80815 8.64229,-2.09304 z m 53.01765,0.43954 c 0.89896,-2.31279 0.0354,-3.93801 -2.09052,-3.93801 -1.99159,0 -4.30995,1.77207 -5.15188,3.93801 -0.89897,2.31281 -0.0354,3.93804 2.09051,3.93804 1.99159,0 4.30996,-1.77208 5.15189,-3.93804 z m 12.33536,-1.31163 c 0,-1.44417 -1.26753,-2.62674 -2.81634,-2.62674 -1.54916,0 -2.07673,1.18257 -1.17282,2.62674 0.90392,1.44419 2.17144,2.62676 2.81634,2.62676 0.6449,0 1.17282,-1.18257 1.17282,-2.62676 z m -77.88053,-6.23059 c -1.24491,-3.74824 -15.19896,-5.53919 -15.19896,-1.94999 0,3.76813 8.28823,7.89872 12.58399,6.2714 1.97853,-0.74999 3.15523,-2.69302 2.61492,-4.32106 z m 89.42789,-0.20928 c 0.98661,-2.53956 0.20143,-3.32096 -2.35942,-2.35117 -2.11101,0.79883 -3.17641,2.51161 -2.36721,3.80443 2.03823,3.25463 3.01245,2.95464 4.72659,-1.45467 z m 12.38736,-2.60234 c 0,-0.63837 -1.19685,-1.88721 -2.65944,-2.78024 -1.46259,-0.89303 -2.65944,-0.36977 -2.65944,1.15815 0,1.52791 1.19685,2.78024 2.65944,2.78024 1.46259,0 2.65944,-0.51976 2.65944,-1.15815 z m -120.26597,-4.74909 c 1.89759,-2.29185 1.62444,-4.27605 -0.90425,-6.5749 -2.93861,-2.67207 -4.12602,-2.3651 -6.28829,1.62211 -4.0354,7.4435 1.80042,11.46072 7.19254,4.95106 z m 50.01299,-3.34534 c -1.53502,-6.03766 -1.22511,-6.34362 3.48491,-3.43954 4.10759,2.53258 6.04611,2.46976 9.43564,-0.31396 3.68103,-3.01395 4.01997,-2.86045 2.47215,1.11977 -1.57531,4.05209 -1.07563,4.23524 4.09826,1.5 4.63769,-2.44885 6.8033,-2.37559 10.17237,0.35234 3.75595,3.03836 4.08655,2.72093 2.69867,-2.59188 -1.30357,-4.99256 -0.92265,-5.5172 2.16684,-2.98603 2.94531,2.41395 4.11574,2.1244 5.46274,-1.33955 2.74425,-7.05977 -2.18875,-9.17268 -12.8592,-5.50778 -9.1049,3.12907 -10.2074,2.95814 -14.08507,-2.17327 -2.31383,-3.0593 -3.66801,-4.38417 -3.00927,-2.9407 0.65868,1.44419 -1.77321,2.80114 -5.40433,3.01745 -6.52379,0.3872 -6.53648,0.34883 -1.07459,-3.42907 3.04002,-2.10351 5.48941,-5.23188 5.44291,-6.95479 -0.046,-1.73722 -1.65834,-1.08489 -3.61748,1.46164 -1.94318,2.52558 -4.59765,4.6235 -5.89907,4.65873 -1.30146,0.0349 -4.47674,4.25024 -7.05623,9.36559 -2.57956,5.11568 -3.71903,8.70871 -2.53258,7.98454 1.18661,-0.72559 3.89549,-0.2093 6.01966,1.1372 3.36122,2.13489 3.34462,2.78722 -0.12722,5.03757 -3.36901,2.18373 -3.22093,2.59186 0.95304,2.62675 3.96169,0.0321 4.60801,-1.27326 3.25733,-6.58676 z m 51.16412,3.25117 c 2.13647,-2.53955 1.63434,-3.37674 -2.03149,-3.37674 -2.87501,0 -4.33198,1.38138 -3.55728,3.37674 0.72157,1.85581 1.63573,3.37674 2.0315,3.37674 0.39577,0 1.99652,-1.51743 3.55727,-3.37674 z m -305.14215,-1.87675 c 1.34315,0 2.44178,-1.64302 2.44178,-3.65338 0,-4.56801 -13.1189,-8.07417 -16.7603,-4.4794 -3.63312,3.58672 3.04637,11.47776 8.09595,9.56476 2.07921,-0.78838 4.8794,-1.43373 6.22244,-1.43373 z m 20.01129,-5.25665 c 0.20848,-5.82488 -0.91521,-7.86976 -4.32835,-7.86976 -7.28274,0 -11.97346,6.99488 -7.92218,11.81373 5.70886,6.79083 11.93643,4.7857 12.25053,-3.94397 z m 15.30532,3.94397 c 0.84208,-2.16628 2.72764,-3.93804 4.19019,-3.93804 1.46259,0 2.04598,1.58025 1.29579,3.50792 -1.17955,3.03489 4.49169,3.88431 12.16812,1.82442 0.73147,-0.20929 -4.64599,-3.28256 -11.94963,-6.8543 -12.32335,-6.0293 -13.5167,-6.17651 -16.57626,-2.04768 -2.42481,3.27556 -2.51917,5.37629 -0.35691,7.94826 3.90895,4.64967 9.33268,4.43652 11.22867,-0.43952 z m 298.22234,1.31163 c 0.90391,-1.44417 0.37632,-2.62674 -1.17284,-2.62674 -1.5488,0 -2.81633,1.18257 -2.81633,2.62674 0,1.44419 0.52759,2.62674 1.17283,2.62674 0.64489,0 1.91242,-1.18255 2.81634,-2.62674 z m -94.41883,-9.18872 c 0.28623,4.18255 7.99228,-7.125 7.94716,-11.6592 -0.0354,-3.6007 -0.34984,-3.61956 -2.61881,-0.13954 -1.90394,2.9093 -2.58876,3.0314 -2.6188,0.46745 -0.0306,-2.60233 -1.08379,-2.43839 -4.2198,0.6558 -2.2983,2.26745 -6.78624,4.2056 -9.9728,4.30328 l -5.79369,0.1744 6.02766,2.86744 c 4.36115,2.07558 5.6172,4.38492 4.54303,8.35466 -1.2124,4.47978 -0.74985,4.28233 2.52126,-1.07789 2.20325,-3.61011 4.08627,-5.38221 4.18465,-3.93804 z m 79.79204,8.03092 c 0,-0.63487 -1.19686,-1.88722 -2.65943,-2.78023 -1.46259,-0.89302 -2.65944,-0.36978 -2.65944,1.15815 0,1.52791 1.19685,2.78022 2.65944,2.78022 1.46257,0 2.65943,-0.51975 2.65943,-1.15814 z m -336.79421,-5.37873 c 1.78766,-4.59905 -8.96317,-8.15649 -16.237,-5.37311 -4.34629,1.66395 -4.31247,2.03721 0.50249,5.53393 6.6883,4.85931 13.81155,4.7864 15.73464,-0.17442 z m 90.80377,-7.26941 c -4.83859,-2.67209 -9.31328,-0.41861 -9.31328,4.68979 0,2.37208 1.58768,3.09766 4.42539,2.02325 3.23756,-1.22792 3.89845,-0.67674 2.46227,2.05116 -1.07989,2.05115 -0.0671,1.41977 2.24952,-1.40233 3.74764,-4.5649 3.76708,-5.37767 0.1767,-7.36153 z m 10.39956,9.59303 c 2.30535,-0.87209 3.52907,-2.64418 2.71986,-3.93803 -2.23081,-3.56373 -5.72561,-2.8186 -7.43802,1.58721 -1.71066,4.4006 -1.27143,4.61931 4.71805,2.35117 z m -22.9371,-6.6443 c 0.9714,-4.97897 -7.14897,-8.83119 -10.87063,-5.15721 -3.84298,3.79359 0.10252,11.28104 5.41323,10.2715 2.54742,-0.48488 5.00314,-2.7872 5.4574,-5.11429 z m 129.54643,3.59757 c 4.76011,-3.45352 4.3725,-8.95014 -0.56502,-8.01141 -2.58099,0.49185 -5.09361,2.94768 -5.58331,5.45617 -0.93112,4.77278 1.62549,5.83499 6.14816,2.5535 z m 116.81149,-0.7814 c 2.59512,2.12439 4.19185,2.36162 4.19185,0.61743 0,-1.54884 -1.99618,-3.91918 -4.4355,-5.26675 -3.65494,-2.01977 -2.91952,-2.78023 4.1793,-4.31825 4.73813,-1.02559 9.32699,-1.16512 10.19751,-0.31395 0.87069,0.85812 -1.20957,1.56278 -4.6225,1.56278 -8.61519,0 -5.33086,2.42094 4.87596,3.59408 4.63159,0.53372 8.42109,-0.0698 8.42109,-1.31163 0,-1.2558 -1.19685,-2.28139 -2.65943,-2.28139 -1.46259,0 -0.26502,-2.36165 2.65943,-5.25072 2.92554,-2.88839 5.33716,-6.72733 5.35957,-8.53222 0.0301,-2.4314 0.63039,-2.36163 2.31313,0.24418 3.3319,5.19003 12.27283,2.58489 12.27283,-3.57592 0,-3.7371 -2.07214,-5.45025 -7.3134,-6.04536 -4.34906,-0.49536 -7.31338,0.43605 -7.31338,2.29185 0,2.15584 -1.02688,2.30583 -3.32412,0.47792 -5.83349,-4.64058 -15.27098,0.93838 -15.46025,9.13641 -0.16253,6.99174 -0.27209,7.05175 -2.57355,1.39883 -1.32302,-3.24767 -3.11281,-5.90686 -3.97751,-5.90686 -0.86468,0 -0.83289,1.18256 0.0707,2.62674 0.90391,1.44419 0.38977,2.62675 -1.14243,2.62675 -6.2209,0 -12.64277,8.41327 -11.38394,14.91421 0.87918,4.54011 1.92162,5.5343 3.37254,3.21628 1.69865,-2.71396 2.90044,-2.69653 6.29174,0.0698 z M 97.5365,222.26681 c 0,-2.93023 -1.88805,-4.94757 -4.65396,-4.97128 -4.01605,-0.0349 -4.10718,-0.4221 -0.66503,-2.8256 3.54585,-2.47673 3.54585,-2.65813 0,-1.64301 -2.53859,0.72906 -3.79445,3.90244 -3.45381,8.73211 0.48022,6.8072 0.17668,7.11593 -2.95274,2.99649 -5.79132,-7.62836 -14.05407,-4.51812 -10.72807,4.03816 2.32763,5.98746 22.45324,0.31395 22.45324,-6.32652 z m 35.31676,7.10897 c 4.34345,-3.25466 4.0695,-3.64152 -3.32411,-4.7128 -4.43176,-0.64186 -8.05775,-0.87906 -8.05775,-0.52326 0,2.55698 3.55232,8.93303 4.93846,8.86538 0.94067,-0.0349 3.84011,-1.67793 6.44355,-3.62862 z m 37.26426,0.24419 c 0.80921,-2.08258 -1.7276,-4.60781 -6.364,-6.33559 -6.16008,-2.29536 -7.7099,-2.15233 -7.7099,0.70813 0,1.96744 2.09441,4.78396 4.65398,6.2557 6.22459,3.57909 7.82648,3.47094 9.41992,-0.6279 z m 47.99614,-2.46978 c -0.98305,-1.56977 -0.45477,-1.9814 1.22761,-0.95233 1.62407,0.9907 5.97893,-0.79534 9.67738,-3.97047 6.61399,-5.67697 6.63776,-5.83153 1.44703,-9.42071 -2.90256,-2.00583 -5.27736,-6.03141 -5.27736,-8.94348 0,-6.32584 -7.31144,-5.83259 -11.52812,0.77789 -4.07219,6.38408 2.33578,13.51675 8.98656,10.00293 3.07431,-1.62559 5.45706,-1.6535 6.44378,-0.0698 2.07216,3.31046 -7.78102,8.39546 -12.67434,6.54176 -2.11135,-0.79884 -4.55384,0.3872 -5.428,2.63372 -0.87423,2.24999 -0.35972,4.08907 1.14349,4.08907 1.50322,0 2.00183,1.16861 1.10817,2.59535 -0.93043,1.48605 0.13427,1.92907 2.48733,1.03605 2.26155,-0.85814 3.33543,-2.79767 2.38665,-4.31372 z m -103.50847,1.71278 c 6.99782,-2.65113 4.72691,-6.28256 -3.92858,-6.28256 -5.47205,0 -7.51397,-0.99071 -6.23762,-3.0314 1.17741,-1.88021 0.72936,-2.31977 -1.17989,-1.15464 -2.19759,1.33952 -2.28841,3.33488 -0.31803,6.96872 2.94072,5.42444 4.97045,6.03316 11.66348,3.4978 z m 34.60303,-0.73255 c 0.80109,-1.28023 -0.99155,-2.95814 -3.98417,-3.73152 -4.46235,-1.15115 -4.8767,-0.73254 -2.30396,2.32676 3.67251,4.36814 4.33932,4.51707 6.28805,1.40581 z m 158.42196,-4.39152 c 0,-4.33219 -4.20301,-5.06408 -6.64851,-1.15813 -2.16897,3.46396 1.01098,8.38011 4.1729,6.45104 1.36153,-0.83023 2.47569,-3.2128 2.47569,-5.2936 z m 156.90543,4.2478 c 0,-4.40129 -4.71657,-5.49104 -6.28641,-1.45117 -0.92616,2.38257 0.008,3.92303 2.38065,3.92303 2.14812,0 3.90565,-1.11279 3.90565,-2.46975 z m -256.87796,-6.70395 c 2.39582,-3.60979 4.02951,-6.71584 3.63009,-6.90176 -0.3993,-0.17442 -3.98279,-0.53721 -7.96312,-0.77791 -7.59294,-0.46046 -10.93367,3.6614 -8.35151,10.30433 2.29158,5.89535 7.78354,4.75848 12.68454,-2.62675 z M 344.862,219.9467 c 0,-2.73141 2.09441,-6.16954 4.65399,-7.64131 2.55978,-1.47209 3.78534,-2.71046 2.72375,-2.7558 -1.06151,-0.0349 -5.7814,2.23254 -10.48832,5.05814 -7.03271,4.22199 -7.75789,5.44082 -4.06871,6.83827 2.46899,0.93488 3.71301,2.94071 2.76404,4.4564 -1.00744,1.60813 -0.44808,1.97791 1.34491,0.88255 1.68875,-1.02908 3.07041,-4.10756 3.07041,-6.83825 z m -154.24601,1.643 c 0,-1.99884 -2.39336,-4.24952 -5.31881,-5.00476 -5.15243,-1.32906 -7.41597,3.06629 -3.5459,6.8864 3.12764,3.08723 8.86471,1.86979 8.86471,-1.88023 z m 169.97819,-2.27439 c 1.24492,-3.2477 1.64103,-6.49782 0.8799,-7.21957 -0.76117,-0.72209 -1.89582,0.1047 -2.52129,1.82094 -0.62546,1.72326 -2.55588,2.80466 -4.28988,2.40001 -1.73396,-0.40467 -2.25481,-0.24419 -1.15798,0.36628 3.76326,2.07907 1.99617,6.47652 -1.99475,4.96465 -2.19405,-0.83022 -3.98912,-0.36628 -3.98912,1.03258 0,5.21756 10.85448,2.42441 13.07277,-3.36281 z m 41.5546,3.10812 c 2.86226,-4.57185 -0.39754,-5.54024 -4.04514,-1.19999 -2.09758,2.4942 -2.29937,4.00152 -0.53605,4.00152 1.5555,0 3.61688,-1.2593 4.58104,-2.80117 z m 17.17682,-2.44883 c 0,-1.44418 -1.26719,-2.62674 -2.81636,-2.62674 -1.5488,0 -2.07671,1.18256 -1.17281,2.62674 0.90391,1.4442 2.17143,2.62675 2.81633,2.62675 0.6449,0 1.17284,-1.18255 1.17284,-2.62675 z M 78.00989,218.38389 c 3.15593,-0.8372 6.2951,-3.62336 6.97624,-6.19465 0.9343,-3.52709 0.0153,-4.35942 -3.74324,-3.38721 -2.74001,0.70814 -4.9817,-0.0331 -4.9817,-1.64652 0,-4.79163 -4.91266,-3.33488 -8.00765,2.3721 -4.65483,8.58629 -1.16999,11.7492 9.75635,8.85559 z m 221.44557,-2.11394 c 1.90323,-2.26396 2.12339,-4.30885 0.56575,-5.25908 -4.16496,-2.53954 -10.7873,1.22442 -9.22465,5.24268 1.83539,4.72151 4.69882,4.72676 8.65902,0.0157 z m -173.99509,-3.55641 c 6.314,-4.57918 1.67532,-13.62246 -7.02885,-13.70235 -6.51627,-0.0698 -8.49569,7.89945 -2.9902,12.02374 5.47963,4.10478 6.44972,4.26732 10.01898,1.67791 z m 216.21034,-1.14068 c 3.94544,-3.89479 4.12174,-7.35073 0.37492,-7.35073 -1.54916,0 -2.07672,1.18257 -1.17281,2.62674 0.90389,1.44421 0.43568,2.62677 -1.04067,2.62677 -1.47638,0 -3.64749,-1.69885 -4.82481,-3.77618 -1.6884,-2.97907 -2.78736,-2.4244 -5.20078,2.62676 -2.75521,5.76349 -2.47534,6.40151 2.80643,6.40151 3.22659,0 7.3025,-1.41628 9.05772,-3.15 z m -276.04718,-2.1 c 0,-1.4442 2.60114,-5.19317 5.78056,-8.33165 4.21543,-4.1613 4.57543,-5.25001 1.32973,-4.02037 -3.08348,1.16861 -4.47978,0.31395 -4.54509,-2.82557 -0.0707,-3.44304 -0.92299,-3.0349 -3.59324,1.71977 l -3.49905,6.23059 -1.54986,-5.8507 c -0.87105,-3.28606 -3.08313,-5.347 -5.04986,-4.70062 -4.62477,1.52095 -5.11764,12.52922 -0.5608,12.52922 2.05625,0 2.90044,1.6535 2.01173,3.93804 -1.06223,2.73139 0.18375,3.93803 4.07259,3.93803 3.0817,0 5.60337,-1.18257 5.60337,-2.62674 z m 82.53201,-1.20351 c -1.48696,-1.76861 -1.91594,-3.99279 -0.95338,-4.94302 0.96258,-0.94884 -2.03964,-1.72675 -6.67161,-1.72675 -6.31732,0 -8.42147,1.17208 -8.42147,4.6964 0,3.57698 2.23469,4.75535 9.37503,4.94338 7.11272,0.17442 8.72267,-0.53023 6.67162,-2.96861 z m 171.6276,1.50001 c -0.80176,-1.28023 0.49473,-2.16629 2.88102,-1.96744 2.38665,0.20929 4.86686,-1.1163 5.51181,-2.92327 0.74243,-2.07907 -1.34879,-3.28256 -5.69743,-3.28256 -5.09722,0 -6.87017,1.35349 -6.87017,5.2507 0,2.88837 1.26753,5.25069 2.81634,5.25069 1.54915,0 2.16013,-1.0465 1.35834,-2.33022 z m 162.03869,-0.27908 c -0.90391,-1.44417 0.52123,-2.64418 3.16724,-2.66511 4.079,-0.0342 4.20403,-0.42558 0.82192,-2.58491 -3.38207,-2.15928 -3.25732,-2.54997 0.82193,-2.58486 2.64602,-0.021 4.07129,-1.22095 3.16725,-2.66512 -2.11032,-3.36978 -11.16363,-3.40818 -13.2631,-0.0698 -1.59794,2.5535 2.86579,13.18119 5.53538,13.18119 0.76609,0 0.65336,-1.18256 -0.2509,-2.62675 z m -374.36197,-5.09722 c 2.74848,-4.34442 2.43152,-5.34525 -2.14742,-6.77999 -7.28886,-2.2849 -14.24885,3.40465 -10.14259,8.28767 4.20717,5.00444 8.50381,4.47733 12.2899,-1.50697 z m 59.22141,-1.46512 c 0,-4.15045 -1.50074,-6.56303 -4.08269,-6.56303 -3.40574,0 -3.55396,0.98023 -0.89437,5.90687 2.90573,5.38292 2.79053,5.58315 -1.29686,2.25349 -3.91532,-3.18837 -4.2725,-3.10465 -2.81034,0.65581 2.62941,6.76396 9.08429,5.16246 9.08429,-2.25348 z m 42.28761,0.65584 3.67588,-5.9069 -6.36042,5.22282 c -3.49832,2.87092 -6.85902,5.53047 -7.46847,5.90687 -0.60956,0.37672 0.59861,0.68371 2.68454,0.68371 2.08591,0 5.44675,-2.65814 7.46847,-5.90686 z m 82.70484,-1.24187 c 0,-2.49072 -1.53042,-3.33489 -4.20662,-2.31978 -2.31349,0.87559 -4.70713,1.59419 -5.31884,1.59419 -0.61167,0 -1.11204,1.66046 -1.11204,3.69245 0,2.39999 1.86189,3.21279 5.31885,2.31976 2.92516,-0.75697 5.31879,-3.13257 5.31879,-5.28593 z m 109.64701,0.13954 c 17.76899,-6.84212 25.55854,-13.38979 33.33266,-28.0176 6.19169,-11.6505 7.20784,-16.71598 7.23991,-36.09215 0.0341,-20.50085 -0.64384,-23.50993 -7.49176,-33.26516 -13.39629,-19.08281 -40.68167,-31.78399 -68.85325,-32.05015 -17.11573,-0.17443 -36.997,10.59385 -51.03963,27.61152 -12.21611,14.80434 -12.52015,15.60143 -10.89197,28.54784 2.9711,23.62503 13.43151,47.38123 26.57715,60.35835 16.08043,15.87421 48.25792,21.71375 71.12689,12.90735 z m -217.79586,-7.63468 c -0.80073,-2.06164 -2.65274,-3.74583 -4.1156,-3.74583 -1.46259,0 -1.99405,1.71281 -1.18059,3.80407 1.05267,2.70701 0.2014,3.32096 -2.95274,2.12443 -3.92382,-1.48603 -3.98446,-1.2 -0.52935,2.4942 4.53543,4.85199 11.11909,1.34302 8.77825,-4.67931 z m 57.61999,4.10791 c 0,-4.57987 -0.6852,-4.8506 -5.21272,-2.05813 -3.76072,2.31975 -4.31632,3.77615 -1.99443,5.23257 5.23953,3.28605 7.20729,2.42093 7.20729,-3.17444 z m -150.28417,-8.5514 c -2.23825,-1.23488 -6.50149,-1.48604 -9.47433,-0.55466 -4.29373,1.34652 -4.76761,2.45233 -2.30432,5.38187 1.70536,2.03025 4.16189,3.04188 5.45885,2.25 1.29687,-0.79185 2.39618,0.10469 2.44247,1.99885 0.053,2.11047 1.60288,1.45466 4.01549,-1.69536 3.47855,-4.54116 3.46264,-5.39057 -0.13781,-7.38001 z m 365.65597,9.2299 c -0.0212,-1.08139 -1.05305,-3.5456 -2.29054,-5.47256 -1.71062,-2.66513 -2.59724,-2.19072 -3.69938,1.96744 -0.96187,3.63069 -0.19083,5.47257 2.29051,5.47257 2.05695,0 3.72181,-0.88605 3.69941,-1.96745 z m 17.69552,-5.62675 c 1.73857,-3.45699 2.53824,-7.88583 1.77673,-9.84489 -1.86401,-4.79584 -11.24064,-4.53803 -13.14502,0.35929 -0.83853,2.1593 -2.37955,3.40117 -3.42447,2.76279 -1.04491,-0.63837 -1.37247,2.38605 -0.72828,6.71932 0.92688,6.23372 2.33894,7.71176 6.76559,7.08106 3.07678,-0.43953 7.01684,-3.62477 8.75545,-7.08038 z m -186.90851,0.31395 c 1.25305,-0.68025 0.69507,-2.20116 -1.24066,-3.38371 -3.56236,-2.17329 -10.34593,1.54185 -10.34593,5.66753 0,2.01281 5.75684,0.87909 11.5864,-2.28487 z m 25.03592,-0.0698 c 0.5788,-1.71281 -0.64279,-3.11861 -2.71493,-3.11861 -2.07213,0 -3.76752,1.80349 -3.76752,4.01091 0,4.53839 4.87509,3.86654 6.48234,-0.89301 z m 13.40024,0.17439 c -0.49296,-2.52557 -2.65873,-4.59417 -4.81254,-4.59417 -2.15412,0 -4.31964,2.0686 -4.81259,4.59417 -0.62898,3.22328 0.80711,4.59421 4.81259,4.59421 4.00545,0 5.4414,-1.37093 4.81254,-4.59421 z m -158.54034,-7.75221 c 7.37614,-3.96314 17.11416,-12.52606 23.01044,-20.234 9.74389,-12.73779 32.31904,-52.19901 32.31904,-56.49354 0,-4.01338 -15.9527,-18.40118 -30.79432,-27.77375 -21.30234,-13.45229 -45.19317,-18.95939 -63.1898,-14.56611 -18.65956,4.55545 -33.30556,13.275 -43.65296,25.98874 -11.06082,13.59071 -13.94952,21.30351 -13.94952,37.24503 0,11.88595 6.37637,36.24912 10.28577,39.30074 0.92477,0.7221 2.97959,3.63003 4.5659,6.46189 6.59432,11.77188 35.40469,20.76736 58.13097,18.14968 5.7675,-0.66279 16.24102,-4.29977 23.27448,-8.07874 z m 56.73096,7.20978 c -0.8647,-1.38139 -3.32872,-1.84533 -5.47579,-1.03257 -5.49728,2.08259 -4.8495,3.54246 1.57179,3.54246 3.01175,0 4.76847,-1.13023 3.90396,-2.51162 z m 269.50323,-8.24337 c -1.99863,-1.23838 -5.87777,-1.5628 -8.62062,-0.71862 -3.25029,1.00116 -4.35331,0.52326 -3.16724,-1.37094 1.00074,-1.59766 4.74091,-2.9058 8.31127,-2.9058 7.07582,0 7.25465,-0.24419 4.87736,-6.34851 -0.88768,-2.28488 -4.17887,-4.17072 -7.3134,-4.19304 -4.33293,-0.0305 -4.80933,-0.59649 -1.98733,-2.36163 2.04139,-1.27674 2.98028,-4.20209 2.08592,-6.50232 -1.1163,-2.87094 0.81734,-5.42966 6.1695,-8.16177 8.53141,-4.35524 8.39333,-11.81406 -0.21908,-11.81406 -4.24387,0 -4.58746,-0.99072 -2.35591,-6.7835 3.10574,-8.06409 1.44103,-11.59363 -5.46704,-11.59363 -8.55615,0 -10.68427,8.00338 -5.12708,19.28165 l 4.94912,10.04477 -6.43431,-4.16196 c -8.37607,-5.41781 -8.76504,-5.30688 -7.33241,2.08953 0.94562,4.88406 2.46615,5.94454 6.94459,4.84429 5.61534,-1.37789 5.60684,-1.30464 -0.41275,3.61501 -6.24859,5.10735 -5.85662,16.06016 0.44136,12.33457 1.69827,-1.00465 1.49334,0.10468 -0.46326,2.47324 -2.67251,3.25468 -2.8015,5.57863 -0.54206,9.74654 1.63184,3.01047 2.117,6.83061 1.07813,8.49002 -1.21454,1.93953 -0.45974,2.47674 2.11276,1.49999 2.20078,-0.83372 5.67105,-0.49884 7.71143,0.74653 2.44565,1.49301 4.50776,0.85466 6.05187,-1.86977 1.55517,-2.74186 1.12123,-4.88825 -1.29155,-6.38408 z M 49.16667,187.8299 c 0.588,-3.01396 -0.78907,-4.56418 -4.05354,-4.56418 -3.19692,0 -4.94396,1.88372 -4.94396,5.33478 0,6.54559 7.69884,5.88628 8.9975,-0.77094 z m 189.3693,1.93954 c 2.84144,-3.38021 2.61845,-3.71652 -1.44031,-2.18025 -3.30397,1.25235 -4.20182,0.86164 -2.87853,-1.25231 1.96683,-3.14303 -1.54245,-4.33604 -4.41303,-1.50348 -2.00571,1.9814 0.57954,8.93198 3.32166,8.93198 1.12723,0 3.56179,-1.79999 5.41044,-3.99839 z M 56.456,186.11606 c -0.82688,-1.32209 1.4e-4,-2.93022 1.8375,-3.57873 1.83751,-0.64884 2.52304,-2.04767 1.52337,-3.11162 -0.99968,-1.06395 -3.09408,-1.15815 -4.65398,-0.2093 -3.67051,2.23952 -3.68566,9.29652 -0.02,9.29652 1.5488,0 2.13999,-1.0814 1.31311,-2.40001 z m 22.07572,-1.07441 c 4.36496,-5.1921 -1.54917,-10.21711 -8.00839,-6.80443 -4.01602,2.12093 -4.30843,3.28954 -1.58698,6.34047 4.2097,4.71907 5.94755,4.80315 9.59554,0.46396 z m 201.85815,-5.91351 c -2.61738,-2.58487 -7.33203,1.38141 -7.33203,6.16851 0,4.00743 0.34982,4.00011 4.49565,-0.10469 2.47252,-2.44187 3.74899,-5.17537 2.83648,-6.07608 z m 22.69207,4.13827 c 1.59687,-6.02827 9.86709,-7.19756 9.86709,-1.39535 0,2.34767 -1.55905,3.26512 -3.98912,2.34419 -2.19404,-0.83022 -3.98911,-0.2093 -3.98911,1.39534 0,3.51 9.70077,3.90105 11.84422,0.47791 1.77143,-2.82907 -3.76527,-15.94886 -6.73066,-15.94886 -1.10603,0 -2.61774,1.47558 -3.35982,3.28256 -1.03854,2.52559 -1.94529,2.43839 -3.94229,-0.38372 -1.68204,-2.37559 -4.3237,-2.94071 -7.51591,-1.60814 -4.40783,1.84185 -4.23018,2.23605 1.69934,3.77652 4.49387,1.16861 5.5621,2.36512 3.32412,3.73153 -3.76777,2.29884 -4.48844,9.57803 -0.94808,9.57803 1.29226,0 2.97499,-2.36164 3.74015,-5.2507 z m -101.82829,0 c -2.19407,-1.39884 -5.78424,-2.54301 -7.97827,-2.54301 -3.54586,0 -3.54586,0.27905 0,2.54301 2.19407,1.39883 5.78423,2.54303 7.97827,2.54303 3.54589,0 3.54589,-0.27908 0,-2.54303 z m 89.53363,-1.1965 c 0,-2.10351 -0.9972,-3.21281 -2.21632,-2.46979 -1.21877,0.74303 -2.21633,2.4628 -2.21633,3.82258 0,1.35695 0.99721,2.46974 2.21633,2.46974 1.21875,0 2.21632,-1.71974 2.21632,-3.82253 z M 51.18673,176.8914 c 4.46737,-4.41037 4.98788,-9.37642 0.9827,-9.37642 -1.5488,0 -2.20677,0.97326 -1.46187,2.16279 0.7449,1.18953 -1.24137,2.07558 -4.41401,1.97093 -3.46582,-0.10469 -6.14481,1.63954 -6.71133,4.39992 -1.15939,5.65011 6.19393,6.18488 11.60447,0.84419 z m 22.41506,-6.75108 c 0,-4.31615 -9.53575,-7.91338 -12.69906,-4.79092 -4.76551,4.70476 1.89829,12.93804 7.90348,9.76536 2.63752,-1.39535 4.79558,-3.6321 4.79558,-4.97444 z m 201.50658,3.11514 c 0.64773,-1.91861 -0.56821,-2.50467 -3.15802,-1.52442 -2.31634,0.87907 -4.21134,2.74884 -4.21134,4.1585 0,3.45 6.04427,1.29069 7.36936,-2.63373 z m 197.4055,0.81278 c 0,-5.71883 -3.97903,-6.65059 -7.12993,-1.67092 -2.33151,3.68548 -1.92904,4.61584 2.12727,4.91756 2.75168,0.20931 5.0028,-1.25581 5.0028,-3.24767 z M 39.02942,168.67069 c 0,-2.07908 -1.68309,-3.78315 -3.74014,-3.78315 -2.42375,0 -3.25346,1.83838 -2.35696,5.22139 1.51347,5.71329 6.0972,4.63223 6.0972,-1.43718 z m 462.73976,-12.66387 c -3.27252,-3.29303 -10.63942,0.0698 -10.63942,4.86037 0,2.21162 2.09442,6.11441 4.654,8.67314 4.44712,4.44628 4.73476,4.30013 6.47152,-3.28256 0.99968,-4.36396 0.78095,-8.97734 -0.48624,-10.252 z m -234.03017,11.50607 c 0,-1.44419 -1.19685,-2.62674 -2.65945,-2.62674 -1.46258,0 -2.65942,1.18255 -2.65942,2.62674 0,1.44418 1.19684,2.62675 2.65942,2.62675 1.4626,0 2.65945,-1.18257 2.65945,-2.62675 z M 47.03138,162.30023 c 1.7527,2.79766 3.64696,2.81162 10.36832,0.0698 9.49239,-3.88154 11.54492,-13.22689 2.90503,-13.22689 -3.93319,0 -5.31885,1.75116 -5.31885,6.71827 0,3.81035 -1.15127,6.01568 -2.65944,5.09547 -1.46259,-0.89303 -2.65944,-3.91536 -2.65944,-6.71827 0,-6.19186 -8.47268,-6.89617 -13.33847,-1.10931 -2.74884,3.26863 -2.44848,4.97547 1.66895,9.47863 4.56575,4.99326 5.10573,5.07314 5.95522,0.88256 0.71098,-3.50792 1.44633,-3.79049 3.07854,-1.18256 z m 243.31263,2.18022 c 1.46258,-0.13954 5.95046,0.61395 9.97279,1.67442 7.49905,1.97441 8.76837,0.27906 5.69918,-7.61652 -0.88767,-2.28489 -3.58049,-4.17072 -5.98372,-4.19268 -3.19724,-0.0297 -3.47323,-0.6035 -1.02901,-2.1349 3.38704,-2.12094 2.80433,-16.38349 -1.36716,-33.47724 -2.09653,-8.59083 -14.45147,-24.73118 -18.93083,-24.73118 -6.07798,0 -5.80847,6.4943 0.87989,21.20722 3.8942,8.56639 7.55852,18.02585 8.14289,21.02166 0.58447,2.99652 1.74174,7.55929 2.57216,10.14175 1.0237,3.18488 -0.72441,6.13989 -5.4319,9.18489 -6.19905,4.00954 -7.41513,4.06675 -11.3705,0.53373 -2.43612,-2.17674 -9.97408,-6.30246 -16.75123,-9.1699 -14.4538,-6.11583 -22.33664,-15.25467 -17.80641,-20.64316 1.62938,-1.93953 2.22198,-4.25513 1.31666,-5.14884 -0.90533,-0.89304 -2.39797,0.31395 -3.31706,2.6721 -0.91912,2.36511 -2.86158,3.57243 -4.31704,2.68604 -1.54529,-0.94186 -1.4481,0.42907 0.23321,3.29651 5.29265,9.02585 9.55712,13.26071 17.59641,17.47467 4.38804,2.29884 11.56845,7.6413 15.95649,11.86886 5.61701,5.41151 9.94596,7.37861 14.62678,6.64641 3.65667,-0.5721 7.84528,-1.15468 9.30793,-1.29419 z m 5.31884,-4.84466 c -2.08028,-3.32094 1.44031,-3.32094 6.64853,0 3.43792,2.19419 3.36759,2.55001 -0.50778,2.58487 -2.47322,0.0223 -5.23665,-1.14068 -6.14065,-2.58487 z m -8.07126,-37.41109 c -2.96262,-8.56537 -3.44496,-17.72096 -0.93394,-17.72096 3.38172,0 7.67534,9.44931 7.67534,16.89213 0,8.31243 -3.98372,8.80256 -6.74153,0.83021 z m 4.08213,-7.06465 c 0,-1.35699 -0.99718,-3.08025 -2.21631,-3.8226 -1.21877,-0.743 -2.21631,0.3663 -2.21631,2.46979 0,2.10349 0.99718,3.82256 2.21631,3.82256 1.21878,0 2.21631,-1.11279 2.21631,-2.46975 z m -29.25355,44.47574 c 0,-1.44419 -0.50037,-2.62674 -1.11204,-2.62674 -0.61168,0 -3.2651,-0.81629 -5.89661,-1.81397 -4.27341,-1.61861 -4.36761,-1.34999 -0.88235,2.52559 4.44285,4.9392 7.89114,5.77465 7.8911,1.91162 z m 244.66605,-17.21967 c 0,-7.21816 -1.04348,-11.33233 -2.62902,-10.365 -1.50749,0.92092 -1.95343,-0.13954 -1.04528,-2.46979 2.28664,-5.88278 -3.603,-5.02222 -6.86995,1.00466 -3.70668,6.83722 -3.58693,7.22093 2.76615,8.86082 3.33616,0.86162 5.31888,3.31745 5.01256,6.21316 -0.6509,6.15068 -0.22616,8.72651 1.43537,8.72651 0.73147,0 1.32973,-5.38606 1.32973,-11.96897 z M 46.5378,142.20682 c -1.46577,-7.35175 -8.99051,-10.35071 -13.87404,-5.52978 -4.73572,4.67475 -5.76314,8.43698 -1.61277,5.90476 1.46259,-0.89302 2.65944,-0.37324 2.65944,1.15815 0,1.5279 3.07959,2.78024 6.84355,2.78024 4.92354,0 6.60227,-1.21048 5.98367,-4.31302 z m 12.21971,2.72091 c 6.24071,-2.3651 5.35648,-11.53326 -1.11205,-11.53326 -3.90046,0 -5.31884,1.75117 -5.31884,6.56338 0,7.14629 0.22615,7.32071 6.43103,4.96988 z M 48.05282,126.61657 c 2.45342,-6.31117 1.98416,-8.272 -2.37498,-9.92339 -4.9407,-1.87326 -12.42304,0.72209 -10.57899,3.66838 0.74666,1.19302 0.12367,2.92325 -1.38838,3.84453 -4.2802,2.6128 -0.35372,6.56304 6.52096,6.56304 3.41388,0 6.93345,-1.86977 7.82129,-4.15256 z m 12.25191,-6.39454 c -2.81281,-1.75117 -4.96934,-1.18606 -7.31322,1.90813 -4.6055,6.08304 1.74952,10.00258 7.31322,4.51012 3.54586,-3.50023 3.54586,-4.21362 0,-6.41932 z m 208.47491,1.15464 c 1.92091,-4.94127 -7.318,-4.98348 -11.46364,-0.0349 -2.37816,2.82909 -2.29971,3.95652 0.33923,4.86385 4.75697,1.63605 9.39863,-0.37324 11.12441,-4.81152 z m 235.01286,-5.34 c -0.61557,-7.3448 -5.91102,-8.25177 -9.79032,-1.6779 -2.37711,4.02906 -2.72057,4.06847 -2.79159,0.31395 -0.0919,-4.93572 6.21695,-10.95001 8.80688,-8.39341 0.96258,0.94885 1.74988,0.34885 1.74988,-1.33603 0,-1.6849 -0.89754,-3.15349 -1.9944,-3.26511 -1.09687,-0.10469 -4.08863,-0.59652 -6.64811,-1.08142 -2.55944,-0.48489 -5.81407,1.08491 -7.2325,3.48141 -2.36755,4.00432 -2.58559,3.98545 -2.65978,-0.24418 -0.0989,-5.61837 -6.21898,-6.00837 -10.69699,-0.68372 -2.68914,3.19883 -2.14247,5.10593 2.99866,10.45605 3.4584,3.59896 8.98047,6.56407 12.27148,6.58885 3.29092,0.0262 5.98368,1.11627 5.98368,2.42443 0,1.30812 2.36897,1.76858 5.26456,1.01859 3.61336,-0.93139 5.09961,-3.32443 4.73876,-7.63013 z m -27.28951,4.23036 c -0.90391,-1.44419 -2.84037,-2.62676 -4.30303,-2.62676 -1.46258,0 -1.91983,1.18257 -1.01592,2.62676 0.90391,1.44417 2.84036,2.62674 4.30298,2.62674 1.46259,0 1.91984,-1.18257 1.01597,-2.62674 z m -219.40163,-1.15815 c 0,-0.63489 -1.19687,-1.88721 -2.65945,-2.78024 -1.46258,-0.89302 -2.65943,-0.36976 -2.65943,1.15814 0,1.5279 1.19685,2.78025 2.65943,2.78025 1.46258,0 2.65945,-0.51978 2.65945,-1.15815 z M 52.32647,113.7033 c 0,-2.1663 -1.7951,-3.93804 -3.98912,-3.93804 -2.19405,0 -3.68993,-1.06396 -3.32412,-2.36163 0.36573,-1.30117 -0.53182,-2.54303 -1.99476,-2.76279 -5.47514,-0.82674 -3.9669,6.96803 1.88698,9.7514 3.35027,1.5942 6.39036,2.97559 6.75603,3.07327 0.36573,0.10469 0.66503,-1.59418 0.66503,-3.76012 z m 13.29706,-3.93804 c 0,-2.88838 -1.59579,-5.2507 -3.54585,-5.2507 -5.00206,0 -6.96331,2.52559 -5.29433,6.82014 2.17074,5.58418 8.84018,4.40022 8.84018,-1.56978 z m 195.15196,-1.44767 c 0.96327,-2.47677 0.4834,-3.40465 -1.22407,-2.36163 -1.54421,0.94185 -3.46547,-0.76745 -4.2688,-3.80164 -1.67249,-6.3136 -4.27405,-6.98268 -8.34104,-2.14536 -3.79246,4.51118 0.48166,10.96257 5.90243,8.90931 2.34175,-0.88603 4.25749,-0.46745 4.25749,0.93141 0,3.84071 1.89263,3.05234 3.67414,-1.53139 z m 11.13639,1.15464 c 1.00499,-1.60465 0.2615,-3.87383 -1.65058,-5.04071 -1.91276,-1.16859 -3.7714,-4.09674 -4.13024,-6.51033 -0.89826,-6.04291 -1.92374,-6.63837 -6.44744,-3.74548 -3.28807,2.10349 -2.94673,3.24071 2.14071,7.13967 4.77931,3.66208 5.3669,5.31524 2.7923,7.85685 -2.57462,2.53955 -2.34212,3.21979 1.10356,3.21979 2.40007,0 5.18642,-1.31163 6.19145,-2.91979 z m 194.0106,-9.71406 c -0.76293,-0.75351 -1.38698,0.0699 -1.38698,1.84883 0,1.7686 -1.19685,2.48721 -2.65943,1.59419 -3.1213,-1.90466 -3.30399,-0.77443 -0.88131,5.4572 1.55448,3.99873 2.06333,3.81282 4.04624,-1.47906 1.24738,-3.32792 1.64421,-6.66909 0.8813,-7.42222 z m -412.66696,0.73605 c -0.82406,-2.12096 -3.20717,-3.85397 -5.29626,-3.85397 -2.99162,0 -3.18526,1.13025 -0.9117,5.32431 3.2008,5.90407 8.57937,4.63011 6.20802,-1.4721 z m 18.05871,-9.74199 c -2.72658,-2.65466 -4.13419,-2.30233 -7.19922,1.7965 -4.90116,6.55537 0.84703,11.1185 6.71338,5.32921 3.13789,-3.09768 3.23047,-4.45224 0.48587,-7.12467 z m 221.25279,2.60581 c -1.19651,-7.83943 -0.99615,-8.12931 2.46366,-3.56965 3.43437,4.52616 3.91659,4.57501 5.47896,0.55463 1.19049,-3.06278 -0.0989,-5.07977 -4.22623,-6.61255 -3.26653,-1.21396 -6.31591,-1.23488 -6.77611,-0.0349 -0.46009,1.18604 -2.55449,1.50699 -4.65399,0.71163 -2.09934,-0.79533 -3.81727,-0.61745 -3.81727,0.39767 0,2.06164 10.48,17.09444 11.91645,17.09444 0.50426,0 0.33218,-3.8393 -0.38552,-8.53222 z M 246.4637,92.41967 c 0,-2.0128 -1.7209,-3.65687 -3.82385,-3.65687 -2.11031,0 -3.65417,2.2221 -3.44534,4.96221 0.43147,5.65676 7.26906,4.4292 7.26906,-1.30464 z m 248.31049,-2.28489 c -1.72902,-4.44733 -10.39292,-7.68314 -14.25829,-5.32502 -4.40706,2.68954 -3.03825,11.36374 1.97072,12.48979 6.73444,1.51397 14.01158,-2.72792 12.28757,-7.16477 z M 58.23202,92.04292 c 0.66398,-2.52559 0.70391,-6.07117 0.0884,-7.87604 -1.27954,-3.7542 -11.31295,-4.52689 -11.31295,-0.8721 0,1.32557 -0.68623,4.17593 -1.52477,6.33384 -1.34633,3.46396 1.08625,5.1171 9.85792,6.70292 0.92652,0.17442 2.22762,-1.76164 2.89125,-4.28966 z m 416.94124,-0.34884 c 0,-2.71045 -1.79511,-6.39977 -3.98908,-8.19733 -2.19405,-1.79651 -3.98912,-4.85408 -3.98912,-6.79257 0,-4.51222 -9.89492,-9.80268 -14.8346,-7.93151 -4.32461,1.63952 -5.10613,10.98034 -1.12194,13.41141 1.46258,0.89302 2.65943,0.62441 2.65943,-0.60002 0,-1.22092 2.52023,-2.41047 5.60067,-2.63719 5.23446,-0.39073 5.31659,-0.10481 1.25551,4.32312 -4.04967,4.41734 -3.9332,5.02327 1.71278,8.90898 8.1797,5.6292 12.70628,5.45651 12.70628,-0.48489 z M 258.62823,87.94861 c 0.42545,-2.86048 -1.15482,-4.45186 -4.42162,-4.45186 -2.79584,0 -5.0835,1.57325 -5.0835,3.50023 0,8.02396 8.32972,8.85769 9.50512,0.95234 z M 81.23133,85.2242 c 1.62902,-1.93955 2.18487,-4.29037 1.23537,-5.22804 -1.99582,-1.97093 -8.8647,3.02444 -8.8647,6.44722 0,3.45698 4.27266,2.77326 7.62951,-1.21744 z M 67.87095,77.99454 c -4.53574,-2.76629 -7.66421,-0.42908 -5.80982,4.34058 1.19898,3.08371 2.33576,3.25466 5.32857,0.80233 2.975,-2.43839 3.07995,-3.55883 0.48128,-5.14466 z M 246.3408,83.6272 c 3.30787,-2.0651 3.34144,-3.38371 0.23323,-9.11615 -2.80751,-5.17885 -4.44145,-6.03944 -7.1904,-3.78734 -4.49327,3.68128 -4.67123,15.41165 -0.23322,15.35792 1.82833,-0.0219 5.06409,-1.12674 7.1905,-2.45581 z m -13.17418,-5.53603 c 0,-2.97212 -1.19686,-4.67549 -2.65945,-3.78316 -1.46258,0.89304 -2.65943,0.36978 -2.65943,-1.15814 0,-1.52791 1.72441,-2.78024 3.83214,-2.78024 5.62717,0 7.74273,-4.91057 4.02222,-9.33593 -2.31033,-2.74884 -4.20122,-3.06978 -6.58303,-1.11628 -4.61907,3.78418 -6.7003,16.32245 -3.36935,20.29815 4.114,4.91095 7.41682,3.96489 7.41682,-2.1244 z m 74.50432,2.1244 c 0.0276,-2.2221 0.94349,-2.0093 2.83364,0.65583 2.21031,3.11512 2.45661,2.75231 1.18096,-1.74769 -0.8866,-3.12906 -0.36679,-6.44581 1.15551,-7.37476 1.52229,-0.92793 2.76757,-0.6907 2.76757,0.53021 0,1.22094 2.39335,2.21862 5.31885,2.21862 2.92517,0 5.3188,-0.92791 5.3188,-2.06163 0,-1.13372 -1.72442,-2.06163 -3.83216,-2.06163 -2.10782,0 -4.69747,-1.3814 -5.75511,-3.07326 -1.29297,-2.06512 -0.47315,-2.5221 2.50255,-1.39536 2.43399,0.92094 4.42535,0.46397 4.42535,-1.02208 0,-1.48256 1.19686,-1.96745 2.65944,-1.07442 1.46258,0.89302 2.65943,0.46744 2.65943,-0.94188 0,-1.4093 0.66717,-4.28198 1.48239,-6.37952 2.29441,-5.90269 -7.33513,-8.28769 -11.38517,-2.81861 -1.86682,2.5221 -3.39444,3.17442 -3.39444,1.45464 0,-5.54721 -6.55627,-3.28256 -9.66626,3.33838 -2.25058,4.79196 -2.25058,6.73605 0,7.64825 1.65976,0.67327 1.00393,1.31514 -1.45693,1.43025 -2.46119,0.10481 -5.23993,2.58838 -6.17515,5.49595 -0.93536,2.9093 -2.83047,4.59941 -4.21171,3.75662 -1.38132,-0.84421 -1.83115,-2.61978 -1.00003,-3.94605 0.83113,-1.32908 -0.25443,-1.74418 -2.41031,-0.92792 -2.15696,0.8163 -4.6261,3.29653 -5.48712,5.51304 -0.99509,2.56047 -0.34276,3.57488 1.78909,2.78721 1.84492,-0.68371 5.7479,-0.31396 8.67326,0.83722 7.95668,3.10815 11.96259,2.82907 12.00808,-0.83373 z m 171.75984,-5.46662 c 0.19789,-5.16071 -1.02689,-7.00362 -4.65398,-7.00362 -3.38385,0 -4.92234,1.91512 -4.92234,6.12595 0,11.91838 9.12122,12.75419 9.57632,0.87906 z m 10.18304,3.79535 c 0.80144,-1.28025 -0.22969,-3.70919 -2.28911,-5.39722 -3.01103,-2.46628 -3.56712,-2.13838 -2.83365,1.67093 0.50214,2.60582 1.00428,5.03617 1.11628,5.39687 0.44595,1.43721 2.62976,0.52675 4.00638,-1.67094 z M 93.54737,75.62103 c 0.90391,-1.44418 -0.22262,-2.62673 -2.50255,-2.62673 -2.28027,0 -4.14605,1.18255 -4.14605,2.62673 0,1.4442 1.12619,2.62675 2.50254,2.62675 1.37637,0 3.24214,-1.18255 4.14606,-2.62675 z M 267.73901,75.4815 c 0,-1.5279 1.38167,-1.93605 3.07042,-0.90698 1.94634,1.18606 2.3467,0.7186 1.09295,-1.28371 -1.51418,-2.41747 -2.85661,-2.43839 -5.72974,-0.0699 -4.42914,3.62862 -4.73776,5.05642 -1.09296,5.05642 1.46259,0 2.65944,-1.25234 2.65944,-2.78025 z m 175.52129,0.31396 c 0,-3.54524 -4.84795,-6.00281 -8.02161,-4.0664 -1.48661,0.90697 -2.01418,2.74885 -1.17281,4.09292 1.99617,3.18837 9.19435,3.16744 9.19435,-0.0266 z M 57.64533,71.20162 c 0,-1.92558 -1.06859,-3.50059 -2.37498,-3.50059 -1.30605,0 -2.98702,1.57674 -3.73559,3.50059 -0.74843,1.92558 0.32157,3.50024 2.37498,3.50024 2.05448,0 3.73559,-1.57327 3.73559,-3.50024 z m 164.88364,-3.51596 c 0,-3.0523 -10.42799,-5.06858 -12.13327,-2.34417 -0.82545,1.3186 0.36328,3.10465 2.64142,3.96663 2.27816,0.86163 3.3213,2.92326 2.31738,4.57572 -1.00356,1.65348 0.20142,1.38486 2.67465,-0.59652 2.47498,-1.98141 4.49959,-4.50211 4.49959,-5.60095 z m -148.92906,2.0756 c 0.003,-2.81511 -9.68373,-7.37653 -11.6158,-5.46942 -3.91485,3.86476 -1.2064,8.07664 4.96728,7.72465 3.65564,-0.20929 6.64749,-1.2244 6.64852,-2.25697 z m 31.91485,-2.06162 c 0,-1.44419 -1.19687,-2.62677 -2.65946,-2.62677 -1.46259,0 -2.65943,1.18258 -2.65943,2.62677 0,1.44417 1.19684,2.62674 2.65943,2.62674 1.46259,0 2.65946,-1.18257 2.65946,-2.62674 z M 280.75631,66.7194 c 1.66682,-1.98141 2.3195,-5.43558 1.44951,-7.67303 -1.96472,-5.05431 -8.43954,-7.72955 -10.54966,-4.35909 -0.86433,1.3814 -0.006,2.52908 1.90925,2.55002 2.60041,0.03 2.50394,0.64883 -0.38093,2.45233 -2.12409,1.32557 -5.11602,1.69535 -6.64853,0.81975 -1.53256,-0.87556 -0.50674,0.97675 2.2799,4.11141 5.91686,6.6593 7.82303,6.99384 11.94029,2.09652 z M 85.56916,65.07287 c -0.90392,-1.44418 -4.03709,-2.62674 -6.96246,-2.62674 -2.92552,0 -4.57918,1.18256 -3.6752,2.62674 0.90392,1.44419 4.03708,2.62677 6.96242,2.62677 2.92518,0 4.57923,-1.18258 3.67524,-2.62677 z m 255.91218,-8.3714 c -5.51644,-3.46046 -7.25699,-2.40348 -7.25699,4.40792 0,6.26267 0.22262,6.3506 5.26245,2.08952 3.8969,-3.293 4.41443,-4.97998 1.9944,-6.49744 z m 94.28438,2.55698 c -1.21984,-8.20361 -3.59553,-9.16395 -8.43379,-3.40814 -4.29345,5.10699 -1.96613,10.72222 4.44433,10.72222 4.04136,0 4.85499,-1.49302 3.98946,-7.31337 z m 16.66465,6.03351 c 0.82829,-1.32209 0.29681,-5.54372 -1.18061,-9.3799 -3.03366,-7.87712 -11.33235,-8.21932 -12.83256,-0.53024 -1.65128,8.46386 9.83361,16.5848 14.0131,9.90909 z m 15.48263,0.9593 c 4.77953,-1.81049 2.93329,-13.37025 -2.46156,-15.4141 -2.45698,-0.93139 -3.16193,-0.35928 -1.94741,1.58373 1.264,2.01977 0.44523,2.4872 -2.43611,1.39885 -6.47723,-2.45234 -8.35163,2.98603 -3.02907,8.79349 5.27722,5.75651 4.77686,5.57198 9.87426,3.64082 z m -45.92801,-6.11023 c 0,-6.01293 6.6351,-11.89328 11.388,-10.09294 2.50715,0.94884 3.44428,-1.53139 3.35805,-8.88664 -0.0919,-7.919675 -1.16117,-10.205595 -4.77331,-10.212225 -3.43651,-0.006 -4.7089,2.2221 -4.86396,8.524195 -0.11662,4.69258 -0.81345,7.05525 -1.55129,5.25036 -0.73785,-1.80347 -5.28425,-3.28256 -10.10334,-3.28256 -5.87461,0 -9.96426,-1.77559 -12.41061,-5.383265 -3.21985,-4.75081 -4.24142,-4.95281 -8.69476,-1.71977 -3.81707,2.769775 -4.59853,5.422695 -3.20856,10.890015 1.60182,6.30071 2.75732,6.99979 9.00862,5.45093 3.94409,-0.97673 8.06222,-3.16045 9.15149,-4.85023 1.21417,-1.88371 1.99619,-0.83721 2.02128,2.7035 0.0213,3.17791 2.13504,6.98093 4.69468,8.45268 2.87182,1.65 3.32095,2.70699 1.17285,2.75581 -1.91456,0.0349 -2.74179,1.2593 -1.83753,2.70351 2.71209,4.33184 6.64854,2.9686 6.64854,-2.30235 z M 90.60867,59.37357 c -1.3421,-2.14535 -0.38553,-2.49418 3.16722,-1.15814 3.93157,1.47908 4.37423,1.20348 1.94458,-1.21394 -1.73008,-1.71977 -5.2867,-2.31979 -7.90373,-1.3256 -4.05103,1.53489 -4.1764,2.16629 -0.84348,4.2464 5.19581,3.2442 5.93862,3.13257 3.63528,-0.54766 z m 119.58494,-0.8651 c 1.94211,-4.99606 -1.14314,-5.02921 -7.76683,-0.0699 -5.05731,3.77617 -5.04639,3.85641 0.53678,3.93803 3.13471,0.0349 6.38802,-1.68838 7.22991,-3.85432 z m 16.95883,-1.31164 c 0.37881,-2.16629 -0.53076,-5.70977 -2.02125,-7.87571 -2.31666,-3.36628 -3.4722,-3.04185 -7.96066,2.24302 -2.88771,3.40117 -4.54564,7.30642 -3.68413,8.68257 2.36966,3.78525 12.88114,1.44072 13.66621,-3.04884 z m 137.83124,-7.04164 c -3.31316,-7.06222 -5.63952,-7.66955 -7.82666,-2.04419 -2.28981,5.89081 3.71308,14.4949 7.60718,10.90397 2.21455,-2.04072 2.27498,-4.47978 0.21908,-8.86083 z m 43.2934,5.8657 c 0.58765,-2.99303 -0.3707,-4.25547 -2.65945,-3.50302 -1.96789,0.64535 -3.9917,3.28255 -4.49705,5.85524 -0.58766,2.993 0.37067,4.25546 2.65945,3.50302 1.9679,-0.64883 3.99172,-3.28256 4.49705,-5.85524 z M 82.46712,56.09079 C 84.55234,50.72637 78.0758,45.96892 74.07038,49.923 c -1.72054,1.69884 -3.12801,4.62384 -3.12801,6.50093 0,4.63151 9.70387,4.35105 11.52475,-0.34884 z m 110.80826,-4.28058 c 0,-1.21744 -1.94881,-3.28954 -4.3306,-4.60642 -2.96087,-1.63603 -3.38137,-2.97208 -1.32972,-4.22337 4.45567,-2.71744 3.69861,-5.75791 -3.28773,-13.199665 -6.31404,-6.72559 -12.65662,-9.56234 -7.64033,-3.41862 3.38137,4.14211 -0.14135,13.793065 -6.27218,17.179575 -4.21494,2.33024 -4.13709,2.76977 0.9668,5.46524 4.58073,2.42093 5.74398,2.13139 6.65524,-1.65001 0.87247,-3.62268 1.73221,-3.08022 4.09708,2.58489 2.01384,4.82409 4.32574,6.6649 7.06713,5.62641 2.24071,-0.84767 4.07424,-2.53955 4.07421,-3.75769 z m 13.29711,-2.78024 c 0,-5.13663 -2.14671,-5.98152 -8.79659,-3.46047 -2.22408,0.8407 -3.36652,3.54349 -2.64741,6.25815 1.67496,6.32302 11.4441,3.93629 11.4441,-2.79768 z m 87.58771,4.44978 c 2.42232,-2.88141 2.35094,-4.97583 -0.3145,-9.18838 -4.08136,-6.45177 -5.76489,-6.73538 -10.00951,-1.68489 -2.35272,2.79767 -2.41243,5.16663 -0.23323,9.18872 3.45276,6.36839 6.24429,6.81421 10.55568,1.68489 z m 95.268,1.65349 c 3.7119,3.0279 3.76968,2.77675 0.53888,-2.34769 -3.98491,-6.31745 -7.99134,-5.63894 -7.66325,1.29767 0.1378,2.90584 0.68657,3.26863 1.58837,1.04652 1.12654,-2.77325 2.13823,-2.77325 5.53612,0 z m -282.78073,-7.5499 c 1.91347,-4.92244 0.15195,-7.88582 -6.90735,-11.614915 -4.3374,-2.29186 -5.21224,-2.15929 -4.20035,0.64186 0.70282,1.946535 0.12013,5.754105 -1.29651,8.464565 -1.81173,3.46743 -1.57956,5.53536 0.78305,6.97676 4.32414,2.6372 9.65551,0.58952 11.62122,-4.46862 z m 246.08724,3.19187 c 2.54847,-3.03139 2.2202,-5.10176 -1.60253,-10.10445 l -4.80759,-6.291965 -4.97491,6.243495 c -2.73613,3.43256 -4.29964,7.98106 -3.47432,10.10443 1.92622,4.95524 10.70996,4.98384 14.85924,0.0349 z m -234.68009,-2.3686 c -1.44917,-4.29107 -7.22103,-5.12166 -7.22103,-1.03954 0,2.04418 1.82831,3.71929 4.06298,3.71929 2.23469,0 3.65574,-1.20697 3.15805,-2.67906 z m 44.8093,-6.33908 c -0.89544,-0.88257 -3.69393,0.55812 -6.21877,3.20231 -2.52481,2.64419 -3.17746,4.03151 -1.45021,3.08372 1.72724,-0.94881 4.09266,-0.24418 5.25644,1.59769 1.55341,2.44186 2.37179,2.04768 3.07816,-1.47558 0.52934,-2.6407 0.2297,-5.52281 -0.66572,-6.40711 z m 176.67923,-4.81571 c 0,-2.361635 -12.67857,0.34883 -15.47917,3.29652 -2.3838,2.5186 -1.77779,4.17837 2.64177,7.23419 5.34529,3.69628 5.97635,3.50651 9.28617,-2.79071 1.95307,-3.71651 3.55113,-7.19965 3.55113,-7.74035 z m 41.20065,8.14676 c 13.14601,-12.561665 15.55547,-16.758885 12.02904,-20.953305 -3.5477,-4.22022 -9.35634,-5.62116 -6.8755,-1.65697 0.8018,1.28022 -0.62333,2.16627 -3.16722,1.96744 -3.49656,-0.27907 -4.62272,1.66395 -4.61444,7.92838 0.006,4.558615 -0.89154,7.737575 -1.99441,7.064675 -1.10321,-0.67326 -2.00535,-4.037455 -2.00535,-7.477005 0,-3.43954 -1.19687,-6.98337 -2.65946,-7.87607 -1.47635,-0.89998 -2.67745,1.07444 -2.70006,4.43968 -0.0213,3.33488 -1.13571,7.77036 -2.47392,9.858515 -2.92165,4.5586 1.21665,13.50734 5.82008,12.58536 1.7308,-0.34884 5.6194,-2.99303 8.64156,-5.8807 z M 89.55829,45.25894 c 0,-2.25 -1.19686,-3.36279 -2.65944,-2.46975 -1.4626,0.89301 -2.65943,2.73487 -2.65943,4.0929 0,1.35697 1.19683,2.46978 2.65943,2.46978 1.46258,0 2.65944,-1.84188 2.65944,-4.09293 z m 42.55061,1.31163 c 0,-2.89884 -7.62064,-5.16384 -9.15049,-2.72092 -0.73853,1.17907 -0.77669,2.70349 -0.0849,3.38721 1.99015,1.96396 9.23562,1.44069 9.23562,-0.66629 z m 16.48836,-0.36975 c -1.75517,-1.73372 -3.19127,-4.33187 -3.19127,-5.77573 0,-1.51744 1.29404,-1.34998 3.06688,0.40119 3.78564,3.73709 12.88966,-0.39769 12.88966,-5.853155 0,-5.55491 -4.86198,-7.4034 -9.23607,-3.51141 -2.13185,1.89767 -5.71305,4.97233 -7.95785,6.834075 -4.37359,3.62757 -5.73289,9.74652 -1.60569,7.22827 1.36152,-0.83023 3.22729,-0.31395 4.14608,1.15813 0.91876,1.46863 2.43753,2.66862 3.37502,2.66862 0.93748,0 0.26855,-1.41628 -1.48663,-3.14999 z m 67.28317,0.52673 c 0.90392,-1.44419 0.30389,-2.62673 -1.32973,-2.62673 -1.63538,0 -2.23363,-1.18257 -1.32971,-2.62675 0.90391,-1.44419 -0.22262,-2.62675 -2.50256,-2.62675 -4.63868,0 -4.82148,0.45696 -2.53187,6.34883 1.83504,4.72117 5.26765,5.40245 7.69372,1.52792 z m 105.04686,1.46861 c 0,-0.63489 -1.19687,-1.88721 -2.65946,-2.78022 -1.46256,-0.89305 -2.65942,-0.36979 -2.65942,1.15812 0,1.52793 1.19686,2.78025 2.65942,2.78025 1.46259,0 2.65946,-0.51977 2.65946,-1.15815 z m 128.79021,-8.4935 c -5.71424,-4.125005 -10.44633,-3.275585 -10.44633,1.87675 0,4.22024 12.81261,8.00861 14.32789,4.23628 0.56678,-1.41279 -1.1799,-4.16198 -3.88156,-6.11198 z M 310.28963,41.0108 c 4.35571,-3.63208 5.50214,-5.940715 3.32414,-6.694545 -1.82833,-0.6314 -3.32414,-2.82558 -3.32414,-4.87013 0,-5.02465 -3.53012,-4.67791 -10.69709,1.05 -5.08071,4.06153 -5.50577,5.62188 -2.86051,10.501435 3.8076,7.02314 5.14836,7.02454 13.55757,0.0122 z M 201.307,40.10383 c 1.85024,-2.20116 2.59512,-4.760595 1.65551,-5.688155 -0.93995,-0.9279 -1.70851,-0.17442 -1.70851,1.69883 0,2.577925 -0.87388,2.668605 -3.6643,0.38373 -2.87925,-2.35812 -3.9655,-1.86628 -5.06987,2.302335 -1.68274,6.35198 3.85339,7.17383 8.78749,1.30465 z m -78.06948,-2.73837 c 2.546,-6.550135 -3.00822,-10.036435 -8.0539,-5.055375 -2.39266,2.36163 -4.35003,5.391285 -4.35003,6.732235 0,4.1351 10.70737,2.68604 12.40393,-1.67792 z m 15.51991,-2.448855 c 0,-7.81849 -10.38128,-7.03745 -11.51538,0.86512 -0.73041,5.089875 0.16254,5.971765 5.31885,5.250705 4.13099,-0.57907 6.19653,-2.61628 6.19653,-6.117215 z m 34.6658,3.788715 c 2.06544,-3.299995 -0.68059,-15.619895 -3.46829,-15.562335 -5.28225,0.10469 -7.97741,4.57744 -6.7097,11.12408 1.40004,7.230385 6.92246,9.638395 10.17806,4.438255 z m 189.95156,-2.284875 c 3.44782,-6.35932 0.90921,-13.32944 -4.83539,-13.27641 -3.81722,0.0349 -3.86528,0.39419 -0.38022,2.85348 3.26122,2.29884 2.97817,2.59886 -1.5513,1.63256 -6.04222,-1.28721 -7.78211,4.6849 -3.07923,10.569785 3.69452,4.62279 6.66691,4.08596 9.84643,-1.779075 z m 59.88458,-2.30583 c 2.18946,-5.633 -0.89825,-8.38466 -9.40956,-8.38466 -5.81133,0 -7.82127,1.23838 -7.82127,4.81328 0,2.64768 0.77032,5.57337 1.71136,6.502675 2.9672,2.93025 14.05531,0.83373 15.5193,-2.930245 z m -313.86906,-3.31396 c -1.97498,-3.15349 -9.19437,-3.18488 -9.19437,-0.0349 0,2.84653 5.77187,5.25139 8.68647,3.62128 1.12088,-0.62791 1.3495,-2.23953 0.50779,-3.58395 z m 103.83071,2.80815 c -0.90393,-1.4442 -2.84037,-2.62675 -4.30303,-2.62675 -1.46259,0 -1.91985,1.18255 -1.01592,2.62675 0.90391,1.44418 2.84036,2.62675 4.30302,2.62675 1.46258,0 1.91984,-1.18257 1.01593,-2.62675 z m -62.68336,-4.90537 c 3.54608,-6.54104 0.3145,-9.35267 -4.1193,-3.58604 -4.19896,5.45862 -4.59394,8.49141 -1.10604,8.49141 1.41135,0 3.76258,-2.20815 5.22528,-4.90537 z m 175.91707,2.16977 c 4.00784,-2.11743 4.5904,-3.81907 2.57817,-7.53069 -1.42972,-2.63722 -1.74423,-5.72965 -0.69861,-6.87141 1.0456,-1.14071 -0.28976,-1.29769 -2.97041,-0.34885 -2.67923,0.95234 -5.4426,1.73026 -6.1406,1.73026 -0.6979,0 -0.53818,1.1686 0.35549,2.59535 0.93182,1.48952 -0.13428,1.92905 -2.50254,1.03255 -2.7121,-1.02907 -4.12727,-0.0699 -4.12727,2.81162 0,2.40699 1.18307,3.65199 2.62905,2.76978 1.50748,-0.92094 1.95342,0.13953 1.04527,2.46978 -1.8308,4.70999 2.36826,5.28174 9.83156,1.33952 z m -198.33496,-5.17744 c 0.90392,-1.44419 0.37635,-2.62674 -1.17283,-2.62674 -1.54915,0 -2.81633,1.18255 -2.81633,2.62674 0,1.44419 0.52759,2.62677 1.17283,2.62677 0.64491,0 1.91241,-1.18258 2.81633,-2.62677 z m 274.36287,-1.2 c 0,-2.10348 -1.59547,-4.4292 -3.5459,-5.16804 -4.00389,-1.51743 -4.20598,-1.01162 -1.93151,4.84047 2.02514,5.2099 5.47755,5.4164 5.47755,0.31397 z m -58.00088,-1.13722 c 2.264,-1.41626 2.94071,-4.33604 1.81523,-7.83595 -2.09475,-6.5159204 -3.95138,-6.8675604 -10.6668,-2.01975 -9.00782,6.50232 -0.65549,15.8027 8.8515,9.85605 z m 85.48149,-1.44419 c 0,-0.63836 -1.19685,-1.8872 -2.65944,-2.78023 -1.46259,-0.89301 -2.65944,-0.36978 -2.65944,1.15815 0,1.52789 1.19685,2.78024 2.65944,2.78024 1.46259,0 2.65944,-0.51977 2.65944,-1.15816 z m -66.48534,-3.87837 c 0,-5.98361 -3.64887,-10.7159504 -8.26279,-10.7159504 -3.59696,0 -5.03432,1.87328 -5.03432,6.5633804 0,5.25071 1.32974,6.56339 6.64858,6.56339 3.65668,0 6.64853,-1.0849 6.64853,-2.41046 z m 58.50708,-0.20931 c 0,-1.44417 -1.7951,-2.62672 -3.98913,-2.62672 -2.19405,0 -3.98908,1.18255 -3.98908,2.62672 0,1.4442 1.7951,2.62675 3.98908,2.62675 2.19406,0 3.98913,-1.18255 3.98913,-2.62675 z m -43.91215,-4.59418 c -0.49011,-2.5256 -0.98234,-5.4802404 -1.09436,-6.5633904 -0.26857,-2.59884 -3.32413,-2.43139 -7.9044,0.43257 -5.02895,3.1430204 -1.69015,10.7260604 4.72271,10.7260604 3.48738,0 4.87738,-1.49303 4.27609,-4.59454 z m 14.65861,-0.65582 c 2.49866,-4.6088404 2.02233,-5.2507004 -3.89559,-5.2507004 -9.57739,0 -9.26371,6.7597804 0.47778,10.2938504 0.31449,0.10481 1.85236,-2.15582 3.41776,-5.04315 z m 18.0867,0.24419 c 0.89401,-2.65117 -0.34632,-3.2686104 -4.43357,-2.21512 -3.26829,0.84417 -5.67488,0.24418 -5.67488,-1.4407004 0,-1.93256 -1.10572,-1.81396 -3.30223,0.35581 -2.62976,2.5953504 -2.49442,3.7712904 0.66502,5.7722204 5.20423,3.29652 11.19133,2.1349 12.74566,-2.47326 z" />
                </svg>
            </g>
        </svg>
    </g>
</svg>
