<svg xmlns="http://www.w3.org/2000/svg" viewBox="0 -0.5 64 64" shape-rendering="crispEdges">
<metadata>Made with Pixels to Svg https://codepen.io/shshaw/pen/XbxvNj</metadata>
<path stroke="#f3e38d" d="M0 0h3M61 0h3M1 1h3M60 1h3M2 2h3M59 2h3M3 3h3M8 3h11M45 3h11M58 3h3M4 4h10M50 4h10M5 5h4M55 5h4M5 6h3M56 6h3M4 7h3M57 7h3M4 8h2M58 8h2M4 9h2M58 9h2M4 10h2M58 10h2M4 11h2M58 11h2M4 12h2M58 12h2M4 13h1M59 13h1M4 14h1M59 14h1M4 15h1M59 15h1M4 16h1M59 16h1M4 17h1M59 17h1M4 46h1M59 46h1M4 47h1M59 47h1M4 48h1M59 48h1M4 49h1M59 49h1M4 50h1M59 50h1M4 51h2M58 51h2M4 52h2M58 52h2M4 53h2M58 53h2M4 54h2M58 54h2M4 55h2M58 55h2M4 56h3M57 56h3M5 57h3M56 57h3M5 58h4M55 58h4M4 59h10M50 59h10M3 60h3M8 60h11M45 60h11M58 60h3M2 61h3M59 61h3M1 62h3M60 62h3M0 63h3M61 63h3" />
<path stroke="#d8b041" d="M3 0h58M0 1h1M4 1h56M63 1h1M0 2h2M5 2h54M62 2h2M0 3h3M6 3h2M56 3h2M61 3h3M0 4h4M60 4h4M0 5h5M59 5h5M0 6h5M59 6h5M0 7h4M60 7h4M0 8h4M60 8h4M0 9h4M60 9h4M0 10h4M60 10h4M0 11h4M60 11h4M0 12h4M60 12h4M0 13h4M60 13h4M0 14h4M60 14h4M0 15h4M60 15h4M0 16h4M60 16h4M0 17h4M60 17h4M0 18h4M60 18h4M0 19h4M60 19h4M0 20h4M60 20h4M0 21h4M60 21h4M0 22h4M60 22h4M0 23h4M60 23h4M0 24h4M60 24h4M0 25h4M60 25h4M0 26h4M60 26h4M0 27h4M60 27h4M0 28h4M60 28h4M0 29h4M60 29h4M0 30h4M60 30h4M0 31h4M60 31h4M0 32h4M60 32h4M0 33h4M60 33h4M0 34h4M60 34h4M0 35h4M60 35h4M0 36h4M60 36h4M0 37h4M60 37h4M0 38h4M60 38h4M0 39h4M60 39h4M0 40h4M60 40h4M0 41h4M60 41h4M0 42h4M60 42h4M0 43h4M60 43h4M0 44h4M60 44h4M0 45h4M60 45h4M0 46h4M60 46h4M0 47h4M60 47h4M0 48h4M60 48h4M0 49h4M60 49h4M0 50h4M60 50h4M0 51h4M60 51h4M0 52h4M60 52h4M0 53h4M60 53h4M0 54h4M60 54h4M0 55h4M60 55h4M0 56h4M60 56h4M0 57h5M59 57h5M0 58h5M59 58h5M0 59h4M60 59h4M0 60h3M6 60h2M56 60h2M61 60h3M0 61h2M5 61h54M62 61h2M0 62h1M4 62h56M63 62h1M3 63h58" />
<path stroke="#ecd246" d="M19 3h26M14 4h36M9 5h46M8 6h48M7 7h50M6 8h52M6 9h52M6 10h52M6 11h52M6 12h52M5 13h54M5 14h54M5 15h54M5 16h14M21 16h38M5 17h13M22 17h37M4 18h13M23 18h37M4 19h12M25 19h35M4 20h13M26 20h34M4 21h15M28 21h32M4 22h16M29 22h9M50 22h10M4 23h17M30 23h8M50 23h10M4 24h10M30 24h6M52 24h8M4 25h10M31 25h5M52 25h8M4 26h8M17 26h5M31 26h3M40 26h8M54 26h6M4 27h8M16 27h5M32 27h2M40 27h8M54 27h6M4 28h6M14 28h5M38 28h12M56 28h4M4 29h6M14 29h3M38 29h12M56 29h4M4 30h5M13 30h4M24 30h2M37 30h14M57 30h3M4 31h5M12 31h6M22 31h4M36 31h16M57 31h3M4 32h5M12 32h16M36 32h16M57 32h3M4 33h5M12 33h16M38 33h14M57 33h3M4 34h5M14 34h12M38 34h12M57 34h3M4 35h5M14 35h12M40 35h10M56 35h4M4 36h6M16 36h8M40 36h8M56 36h4M4 37h6M17 37h6M42 37h5M56 37h4M4 38h6M30 38h4M54 38h6M4 39h6M30 39h4M54 39h6M4 40h8M26 40h10M52 40h8M4 41h8M26 41h12M52 41h8M4 42h12M24 42h16M48 42h12M4 43h12M24 43h16M48 43h12M4 44h56M4 45h56M5 46h54M5 47h54M5 48h54M5 49h54M5 50h54M6 51h52M6 52h52M6 53h52M6 54h52M6 55h52M7 56h50M8 57h48M9 58h46M14 59h36M19 60h26" />
<path stroke="#000000" d="M19 16h2M18 17h4M17 18h6M16 19h9M17 20h9M19 21h9M20 22h9M44 22h6M21 23h4M27 23h3M42 23h8M22 24h3M27 24h3M40 24h12M15 25h3M22 25h9M39 25h13M12 26h1M15 26h2M22 26h9M38 26h2M48 26h6M12 27h4M21 27h11M38 27h2M48 27h6M10 28h2M19 28h13M37 28h1M50 28h6M10 29h2M17 29h17M37 29h1M50 29h6M9 30h4M17 30h7M26 30h8M51 30h6M9 31h3M18 31h4M26 31h10M52 31h5M9 32h3M28 32h8M52 32h5M9 33h3M28 33h10M52 33h5M9 34h5M30 34h8M50 34h7M9 35h5M30 35h10M50 35h6M10 36h6M24 36h2M32 36h8M48 36h8M10 37h7M23 37h2M32 37h10M47 37h9M10 38h15M34 38h20M10 39h14M34 39h20M12 40h11M36 40h16M12 41h10M38 41h14M16 42h5M40 42h8M16 43h2M40 43h8" />
<path stroke="#595959" d="M38 22h6M38 23h4M14 24h8M36 24h4M14 25h1M18 25h4M36 25h3M13 26h2M34 26h4M34 27h4M12 28h2M32 28h5M12 29h2M34 29h3M34 30h3M26 34h4M26 35h4M26 36h6M25 37h7M25 38h5M24 39h6M23 40h3M22 41h4M21 42h3M18 43h6" />
<path stroke="#488737" d="M25 23h2M25 24h2" />
</svg>