<svg xmlns="http://www.w3.org/2000/svg" width="1024" height="1024" fill="none" viewBox="0 0 1024 1024"><g filter="url(#filter0_d_102_69)"><path fill="url(#paint0_linear_102_69)" fill-rule="evenodd" d="M924 354.627C924 344.845 924.004 335.062 923.944 325.279C923.895 317.038 923.8 308.799 923.576 300.562C923.092 282.609 922.033 264.502 918.84 246.749C915.602 228.741 910.314 211.98 901.981 195.617C893.789 179.534 883.088 164.817 870.32 152.058C857.555 139.299 842.834 128.605 826.746 120.418C810.366 112.083 793.587 106.797 775.558 103.56C757.803 100.372 739.691 99.315 721.738 98.83C713.495 98.607 705.253 98.513 697.008 98.462C687.22 98.402 677.432 98.407 667.644 98.407L553.997 98H468.997L357.361 98.407C347.554 98.407 337.747 98.402 327.94 98.462C319.678 98.513 311.42 98.607 303.161 98.83C285.167 99.315 267.014 100.373 249.217 103.565C231.164 106.801 214.36 112.085 197.958 120.414C181.835 128.602 167.083 139.297 154.291 152.058C141.501 164.816 130.78 179.53 122.573 195.61C114.217 211.981 108.919 228.752 105.673 246.77C102.477 264.516 101.418 282.617 100.931 300.562C100.709 308.8 100.613 317.039 100.563 325.279C100.503 335.063 100 347.216 100 356.999L100.003 467.089L100 552.998L100.508 665.427C100.508 675.223 100.504 685.019 100.563 694.815C100.613 703.067 100.709 711.317 100.932 719.566C101.418 737.542 102.479 755.675 105.678 773.452C108.923 791.484 114.22 808.269 122.569 824.653C130.777 840.759 141.5 855.495 154.291 868.272C167.082 881.049 181.83 891.757 197.95 899.956C214.362 908.302 231.174 913.595 249.238 916.836C267.027 920.029 285.174 921.088 303.161 921.573C311.42 921.796 319.679 921.891 327.941 921.941C337.748 922.001 347.554 921.997 357.361 921.997L470.006 922H555.217L667.644 921.996C677.432 921.996 687.22 922.001 697.008 921.941C705.253 921.891 713.495 921.796 721.738 921.573C739.698 921.087 757.816 920.027 775.579 916.832C793.597 913.591 810.368 908.3 826.739 899.959C842.831 891.761 857.554 881.051 870.32 868.272C883.086 855.497 893.786 840.763 901.978 824.66C910.316 808.268 915.604 791.475 918.844 773.431C922.034 755.661 923.092 737.535 923.577 719.566C923.8 711.316 923.895 703.066 923.944 694.815C924.005 685.019 924 675.223 924 665.427C924 665.427 923.994 554.983 923.994 552.998V466.999C923.994 465.533 924 354.627 924 354.627Z" clip-rule="evenodd"/></g><mask id="mask0_102_69" style="mask-type:alpha" width="824" height="824" x="100" y="98" maskUnits="userSpaceOnUse"><path fill="#fff" fill-rule="evenodd" d="M924 354.627C924 344.845 924.004 335.062 923.944 325.279C923.895 317.038 923.8 308.799 923.576 300.562C923.092 282.609 922.033 264.502 918.84 246.749C915.602 228.741 910.314 211.98 901.981 195.617C893.789 179.534 883.088 164.817 870.32 152.058C857.555 139.299 842.834 128.605 826.746 120.418C810.366 112.083 793.587 106.797 775.558 103.56C757.803 100.372 739.691 99.315 721.738 98.83C713.495 98.607 705.253 98.513 697.008 98.462C687.22 98.402 677.432 98.407 667.644 98.407L553.997 98H468.997L357.361 98.407C347.554 98.407 337.747 98.402 327.94 98.462C319.678 98.513 311.42 98.607 303.161 98.83C285.167 99.315 267.014 100.373 249.217 103.565C231.164 106.801 214.36 112.085 197.958 120.414C181.835 128.602 167.083 139.297 154.291 152.058C141.501 164.816 130.78 179.53 122.573 195.61C114.217 211.981 108.919 228.752 105.673 246.77C102.477 264.516 101.418 282.617 100.931 300.562C100.709 308.8 100.613 317.039 100.563 325.279C100.503 335.063 100 347.216 100 356.999L100.003 467.089L100 552.998L100.508 665.427C100.508 675.223 100.504 685.019 100.563 694.815C100.613 703.067 100.709 711.317 100.932 719.566C101.418 737.542 102.479 755.675 105.678 773.452C108.923 791.484 114.22 808.269 122.569 824.653C130.777 840.759 141.5 855.495 154.291 868.272C167.082 881.049 181.83 891.757 197.95 899.956C214.362 908.302 231.174 913.595 249.238 916.836C267.027 920.029 285.174 921.088 303.161 921.573C311.42 921.796 319.679 921.891 327.941 921.941C337.748 922.001 347.554 921.997 357.361 921.997L470.006 922H555.217L667.644 921.996C677.432 921.996 687.22 922.001 697.008 921.941C705.253 921.891 713.495 921.796 721.738 921.573C739.698 921.087 757.816 920.027 775.579 916.832C793.597 913.591 810.368 908.3 826.739 899.959C842.831 891.761 857.554 881.051 870.32 868.272C883.086 855.497 893.786 840.763 901.978 824.66C910.316 808.268 915.604 791.475 918.844 773.431C922.034 755.661 923.092 737.535 923.577 719.566C923.8 711.316 923.895 703.066 923.944 694.815C924.005 685.019 924 675.223 924 665.427C924 665.427 923.994 554.983 923.994 552.998V466.999C923.994 465.533 924 354.627 924 354.627Z" clip-rule="evenodd"/></mask><g mask="url(#mask0_102_69)"><rect width="914" height="914" x="42" y="36" fill="url(#paint1_linear_102_69)"/><g filter="url(#filter1_b_102_69)"><rect width="824" height="824" x="100" y="98" fill="#000" fill-opacity=".01" rx="126"/></g></g><path fill="#765338" d="M367.15 732.923C367.15 732.923 367.15 627.678 512.003 627.678C656.895 627.678 656.856 732.923 656.856 732.923H367.15Z"/><path fill="#B7835A" d="M512.006 627.684L367.153 732.929L277.626 457.399L512.006 627.684Z"/><path fill="#5B422D" d="M512.006 627.684L746.385 457.399L656.859 732.929L512.006 627.684Z"/><path fill="#72B147" d="M522.757 635.48L512.004 643.292L501.25 635.48C501.25 627.667 512.004 627.667 512.004 627.667C512.004 627.667 522.757 627.667 522.757 635.48Z"/><path fill="#5A9A30" d="M512.006 627.684C512.006 627.684 512.006 457.399 746.385 457.399L739.74 477.852L712.617 513.183L685.495 517.263L658.372 552.594L631.25 556.674L604.127 592.005L577.005 596.085L549.882 631.416L522.76 635.496L512.006 627.684Z"/><path fill="#88B858" d="M501.252 635.48L474.129 631.399L447.007 596.069L419.884 591.988L392.762 556.658L365.639 552.578L338.517 517.247L311.394 513.167L284.272 477.836L277.626 457.382C512.006 457.382 512.006 627.668 512.006 627.668L501.252 635.48Z"/><path fill="url(#paint2_linear_102_69)" d="M277.625 457.384L512.005 627.67L746.385 457.384L512.005 287.098L277.625 457.384Z"/><defs><filter id="filter0_d_102_69" width="844" height="844" x="90" y="98" color-interpolation-filters="sRGB" filterUnits="userSpaceOnUse"><feFlood flood-opacity="0" result="BackgroundImageFix"/><feColorMatrix in="SourceAlpha" result="hardAlpha" type="matrix" values="0 0 0 0 0 0 0 0 0 0 0 0 0 0 0 0 0 0 127 0"/><feOffset dy="10"/><feGaussianBlur stdDeviation="5"/><feColorMatrix type="matrix" values="0 0 0 0 0 0 0 0 0 0 0 0 0 0 0 0 0 0 0.3 0"/><feBlend in2="BackgroundImageFix" mode="normal" result="effect1_dropShadow_102_69"/><feBlend in="SourceGraphic" in2="effect1_dropShadow_102_69" mode="normal" result="shape"/></filter><filter id="filter1_b_102_69" width="845.746" height="845.746" x="89.127" y="87.127" color-interpolation-filters="sRGB" filterUnits="userSpaceOnUse"><feFlood flood-opacity="0" result="BackgroundImageFix"/><feGaussianBlur in="BackgroundImage" stdDeviation="5.437"/><feComposite in2="SourceAlpha" operator="in" result="effect1_backgroundBlur_102_69"/><feBlend in="SourceGraphic" in2="effect1_backgroundBlur_102_69" mode="normal" result="shape"/></filter><linearGradient id="paint0_linear_102_69" x1="-181.14" x2="-181.14" y1="98" y2="1484.28" gradientUnits="userSpaceOnUse"><stop stop-color="#fff"/><stop offset=".49" stop-color="#EFEFEF"/><stop offset="1" stop-color="silver"/></linearGradient><linearGradient id="paint1_linear_102_69" x1="928.377" x2="928.377" y1="992.826" y2="134.072" gradientUnits="userSpaceOnUse"><stop stop-color="#F6F3F3"/><stop offset="1" stop-color="#fff"/></linearGradient><linearGradient id="paint2_linear_102_69" x1="394.815" x2="629.182" y1="372.239" y2="542.528" gradientUnits="userSpaceOnUse"><stop stop-color="#88B858"/><stop offset=".5" stop-color="#72B147"/><stop offset="1" stop-color="#5A9A30"/></linearGradient></defs></svg>