<?xml version="1.0" encoding="UTF-8" standalone="no"?>
<!-- Created with Inkscape (http://www.inkscape.org/) -->

<svg
   width="48"
   height="48"
   viewBox="0 0 12.7 12.7"
   version="1.1"
   id="svg3606"
   sodipodi:docname="org.prismlauncher.PrismLauncher.Source.svg"
   inkscape:version="1.2.1 (9c6d41e410, 2022-07-14)"
   xmlns:inkscape="http://www.inkscape.org/namespaces/inkscape"
   xmlns:sodipodi="http://sodipodi.sourceforge.net/DTD/sodipodi-0.dtd"
   xmlns="http://www.w3.org/2000/svg"
   xmlns:svg="http://www.w3.org/2000/svg"
   xmlns:rdf="http://www.w3.org/1999/02/22-rdf-syntax-ns#"
   xmlns:cc="http://creativecommons.org/ns#"
   xmlns:dc="http://purl.org/dc/elements/1.1/">
  <title
     id="title261">Prism Launcher Logo</title>
  <sodipodi:namedview
     id="namedview3608"
     pagecolor="#ffffff"
     bordercolor="#000000"
     borderopacity="0.25"
     inkscape:showpageshadow="2"
     inkscape:pageopacity="0.0"
     inkscape:pagecheckerboard="0"
     inkscape:deskcolor="#d1d1d1"
     inkscape:document-units="px"
     showgrid="false"
     showguides="true"
     inkscape:zoom="16"
     inkscape:cx="14.9375"
     inkscape:cy="13.9375"
     inkscape:window-width="2560"
     inkscape:window-height="1377"
     inkscape:window-x="2552"
     inkscape:window-y="-8"
     inkscape:window-maximized="1"
     inkscape:current-layer="layer1">
    <sodipodi:guide
       position="0.52916688,12.170833"
       orientation="1,0"
       id="guide4870"
       inkscape:locked="false" />
    <sodipodi:guide
       position="12.170833,12.170833"
       orientation="0,-1"
       id="guide4872"
       inkscape:locked="false" />
    <sodipodi:guide
       position="12.170833,0.5291669"
       orientation="1,0"
       id="guide4874"
       inkscape:locked="false" />
    <sodipodi:guide
       position="0.52916688,0.5291666"
       orientation="0,-1"
       id="guide4876"
       inkscape:locked="false" />
    <sodipodi:guide
       position="13.692187,21.332031"
       orientation="0,-1"
       id="guide6489"
       inkscape:locked="false" />
    <sodipodi:guide
       position="6.3500002,12.170833"
       orientation="1,0"
       id="guide6491"
       inkscape:locked="false" />
    <sodipodi:guide
       position="6.3500002,6.3499993"
       orientation="-0.49999657,-0.86602738"
       id="guide9375"
       inkscape:locked="false" />
    <sodipodi:guide
       position="6.3500002,6.3499993"
       orientation="-0.49999666,0.86602733"
       id="guide9377"
       inkscape:locked="false" />
  </sodipodi:namedview>
  <defs
     id="defs3603" />
  <g
     inkscape:label="Layer 1"
     inkscape:groupmode="layer"
     id="layer1">
    <g
       id="g531"
       transform="matrix(0.1353646,0,0,0.1353646,15.301582,0.52916663)" />
    <g
       id="g397">
      <path
         style="fill:#99cd61;fill-opacity:1;stroke-width:0.264583"
         d="M 6.3500002,6.350001 Z"
         id="path7899" />
      <path
         id="path3228"
         style="fill:#df6277;fill-opacity:1;stroke-width:0.264583"
         d="M 6.35 0.52916667 L 3.8292236 4.8947917 L 6.35 6.35 L 8.8702596 4.8947917 L 8.9798136 1.7952393 C 7.828708 1.1306481 6.6410414 0.52916667 6.35 0.52916667 z " />
      <path
         id="path2659"
         style="fill:#fb9168;fill-opacity:1;stroke-width:0.264583"
         d="M 8.9798136 1.7952393 L 6.35 6.35 L 8.8702596 7.8052083 L 11.391036 3.4395833 C 11.245515 3.1875341 10.130919 2.4598305 8.9798136 1.7952393 z " />
      <path
         id="path2708"
         style="fill:#f3db6c;fill-opacity:1;stroke-width:0.264583"
         d="M 11.391036 3.4395833 L 6.35 6.35 L 8.8702596 7.8052083 L 11.609111 6.35 C 11.609111 5.0208177 11.536557 3.6916326 11.391036 3.4395833 z " />
      <path
         id="path1737"
         style="fill:#7ab392;fill-opacity:1;stroke-width:0.264583"
         d="M 6.35 6.35 L 6.35 9.2604167 L 11.391036 9.2604167 C 11.536557 9.0083674 11.60911 7.6791823 11.609111 6.35 L 6.35 6.35 z " />
      <path
         id="path2937"
         style="fill:#4b7cbc;fill-opacity:1;stroke-width:0.264583"
         d="M 6.35 6.35 L 6.35 9.2604167 L 8.9798136 10.904761 C 10.130919 10.24017 11.245515 9.5124659 11.391036 9.2604167 L 6.35 6.35 z " />
      <path
         id="path3117"
         style="fill:#6f488c;fill-opacity:1;stroke-width:0.264583"
         d="M 6.35 6.35 L 3.8292236 7.8052083 L 6.35 12.170833 C 6.6410414 12.170833 7.8287079 11.569352 8.9798136 10.904761 L 6.35 6.35 z " />
      <path
         id="path2010"
         style="fill:#4d3f33;fill-opacity:1;stroke-width:0.264583"
         d="M 3.8292236 4.8947917 L 1.308964 9.2604167 C 1.6000054 9.7645152 5.7679172 12.170833 6.35 12.170833 L 6.35 6.35 L 3.8292236 4.8947917 z " />
      <path
         id="path1744"
         style="fill:#7a573b;fill-opacity:1;stroke-width:0.264583"
         d="M 1.308964 3.4395833 C 1.0179226 3.9436818 1.0179227 8.7563182 1.308964 9.2604167 L 6.35 6.35 L 6.35 3.4395833 L 1.308964 3.4395833 z " />
      <path
         id="path1739"
         style="fill:#99cd61;fill-opacity:1;stroke-width:0.264583"
         d="M 6.35 0.52916667 C 5.7679172 0.52916665 1.6000054 2.9354849 1.308964 3.4395833 L 6.35 6.35 L 6.35 0.52916667 z " />
      <g
         id="g379">
        <g
           id="g1657"
           transform="matrix(0.87999988,0,0,0.87999988,-10.906495,-1.242093)">
          <g
             id="g7651"
             transform="translate(13.259961,2.2775894)">
            <path
               id="path6659"
               style="fill:#ffffff;stroke-width:0.264583"
               d="m 6.3498163,2.9393223 c -0.3410461,0 -2.782726,1.4098777 -2.9532491,1.7052323 L 6.3498163,9.7602513 9.3035983,4.6445546 C 9.1330753,4.3492 6.6908624,2.9393223 6.3498163,2.9393223 Z"
               transform="matrix(0.96974817,0,0,0.96974817,0.19209885,0.19209792)" />
          </g>
          <path
             id="path461"
             style="fill:#dfdfdf;fill-opacity:1;stroke-width:0.264583"
             d="m 16.745875,6.9737355 2.863908,4.9609385 c 0.330729,0 2.69906,-1.367226 2.864424,-1.653646 0.165365,-0.2864204 0.165365,-3.0208729 0,-3.3072925 l -2.864424,1.6536459 z" />
        </g>
        <path
           id="path5065"
           style="fill:#d6d2d2;fill-opacity:1;stroke-width:0.264583"
           d="m 3.8298625,4.8947933 c -0.1455111,0.2520549 -0.1455304,2.6583729 0,2.9104166 0.1455304,0.2520438 2.2292181,1.4552195 2.5202596,1.4552084 V 6.3500016 Z" />
      </g>
    </g>
  </g>
  <metadata
     id="metadata259">
    <rdf:RDF>
      <cc:Work
         rdf:about="">
        <dc:title>Prism Launcher Logo</dc:title>
        <dc:date>19/10/2022</dc:date>
        <dc:creator>
          <cc:Agent>
            <dc:title>Prism Launcher</dc:title>
          </cc:Agent>
        </dc:creator>
        <dc:contributor>
          <cc:Agent>
            <dc:title>AutiOne, Boba, ely, Fulmine, gon sawa, Pankakes, tobimori, Zeke</dc:title>
          </cc:Agent>
        </dc:contributor>
        <dc:source>https://github.com/PrismLauncher/PrismLauncher</dc:source>
        <dc:publisher>
          <cc:Agent>
            <dc:title>Prism Launcher</dc:title>
          </cc:Agent>
        </dc:publisher>
        <cc:license
           rdf:resource="http://creativecommons.org/licenses/by-sa/4.0/" />
      </cc:Work>
      <cc:License
         rdf:about="http://creativecommons.org/licenses/by-sa/4.0/">
        <cc:permits
           rdf:resource="http://creativecommons.org/ns#Reproduction" />
        <cc:permits
           rdf:resource="http://creativecommons.org/ns#Distribution" />
        <cc:requires
           rdf:resource="http://creativecommons.org/ns#Notice" />
        <cc:requires
           rdf:resource="http://creativecommons.org/ns#Attribution" />
        <cc:permits
           rdf:resource="http://creativecommons.org/ns#DerivativeWorks" />
        <cc:requires
           rdf:resource="http://creativecommons.org/ns#ShareAlike" />
      </cc:License>
    </rdf:RDF>
  </metadata>
</svg>
