<?xml version="1.0" encoding="UTF-8"?>
<svg width="1424" height="512" version="1.1" viewBox="0 0 376.77 135.47" xmlns="http://www.w3.org/2000/svg" xmlns:xlink="http://www.w3.org/1999/xlink">
 <defs>
  <linearGradient id="linearGradient1147" x1="4.4979" x2="12.435" y1="3.8011" y2="9.5681" gradientUnits="userSpaceOnUse">
   <stop stop-color="#88b858" offset="0"/>
   <stop stop-color="#72b147" offset=".5"/>
   <stop stop-color="#5a9a30" offset="1"/>
  </linearGradient>
 </defs>
 <g transform="matrix(6.95 0 0 6.9572 17.626 7.2412)">
  <path d="m3.561 16.016s0-3.5642 4.9056-3.5642c4.9069 0 4.9056 3.5642 4.9056 3.5642z" fill="#765338"/>
  <path d="m8.4667 12.452-4.9056 3.5642-3.0319-9.3311z" fill="#b7835a"/>
  <path d="m8.4667 12.452 7.9375-5.7669-3.0319 9.3311z" fill="#5b422d"/>
  <path d="m8.8308 12.716-0.36417 0.26458-0.36417-0.26458c0-0.26458 0.36417-0.26458 0.36417-0.26458s0.36417 0 0.36417 0.26458z" fill="#72b147"/>
  <path d="m8.4667 12.452s-2e-7 -5.7669 7.9375-5.7669l-0.22507 0.69269-0.91853 1.1965-0.91853 0.13819-0.91853 1.1965-0.91853 0.13819-0.91853 1.1965-0.91853 0.13819-0.91853 1.1965-0.91853 0.13819z" fill="#5a9a30"/>
  <path d="m8.1025 12.716-0.91853-0.13819-0.91853-1.1965-0.91853-0.13819-0.91853-1.1965-0.91853-0.13819-0.91853-1.1965-0.91853-0.13819-0.91853-1.1965-0.22507-0.69269c7.9375 1e-7 7.9375 5.7669 7.9375 5.7669z" fill="#88b858"/>
  <path d="m0.52917 6.6846 7.9375 5.7669 7.9375-5.7669-7.9375-5.7669z" fill="url(#linearGradient1147)"/>
  <path d="m0.75424 7.3773-0.22507-0.69269 7.9375 5.7669 7.9375-5.7669-0.22507 0.69269-7.7124 5.6034z" fill-opacity="0"/>
 </g>
 <g transform="matrix(6.9306 0 0 6.9306 -695.4 -649.41)" fill="#fff" stroke-width=".26458" aria-label="PolyMC">
  <g stroke-width=".010101" aria-label="PolyMC">
   <path d="m124.6 100.53q0.78415 0 1.34 0.268 0.55586 0.25808 0.85364 0.75438 0.30771 0.4963 0.30771 1.201 0 0.42682-0.12904 0.84372-0.12904 0.40696-0.41689 0.74445-0.27793 0.32756-0.73453 0.52608t-1.1117 0.19852h-1.0621v2.6403h-0.96283v-7.1765zm0.0993 3.6131q0.42682 0 0.70475-0.13897 0.27793-0.13896 0.43674-0.34741 0.15882-0.21837 0.2283-0.4566 0.0695-0.23822 0.0695-0.42682 0-0.21837-0.0695-0.44667-0.0695-0.23822-0.23822-0.42682-0.15882-0.19852-0.42682-0.31763-0.25808-0.12904-0.6452-0.12904h-1.1117v2.69z"/>
   <path d="m127.39 105.62q0-0.61541 0.28785-1.1117 0.29778-0.4963 0.81394-0.78415 0.51615-0.28786 1.1713-0.28786 0.67497 0 1.1812 0.28786 0.50623 0.28785 0.78416 0.78415 0.27793 0.49631 0.27793 1.1117t-0.27793 1.1216q-0.27793 0.4963-0.79408 0.78416-0.50623 0.28785-1.1812 0.28785-0.65512 0-1.1713-0.268-0.50623-0.27793-0.80401-0.76431-0.28785-0.4963-0.28785-1.1613zm0.92312 0.01q0 0.39704 0.17867 0.7246 0.17866 0.31763 0.47645 0.50622 0.3077 0.1886 0.67497 0.1886 0.38711 0 0.68489-0.1886 0.30771-0.18859 0.47645-0.50622 0.16874-0.32756 0.16874-0.7246 0-0.39705-0.16874-0.71468-0.16874-0.32756-0.47645-0.51615-0.29778-0.19852-0.68489-0.19852-0.37719 0-0.6849 0.19852-0.29778 0.19852-0.47645 0.52608-0.16874 0.31763-0.16874 0.70475z"/>
   <path d="m132.55 100.03h0.92312v7.6828h-0.92312z"/>
   <path d="m134.81 109.69 2.7098-6.0846h0.85364l-2.6502 6.0846zm1.0125-1.9455-1.9753-4.1392h1.0422l1.6576 3.6726z"/>
   <path d="m138.83 107.71v-6.6207h9e-3l3.442 4.8733-0.43904-0.0966 3.4245-4.7767h0.0176v6.6207h-1.0186v-4.3113l0.0703 0.51806-2.3181 3.2752h-0.0176l-2.3532-3.2752 0.17562-0.47416v4.2674z"/>
   <path d="m151.17 107.21q-0.14049 0.0966-0.42147 0.23708-0.27221 0.14049-0.65856 0.24586-0.37757 0.0966-0.84295 0.0878-0.74636-9e-3 -1.3434-0.26342-0.59709-0.26343-1.0098-0.70246-0.41269-0.44782-0.64099-1.0186-0.21952-0.57952-0.21952-1.2293 0-0.7288 0.2283-1.3347t0.64977-1.0449q0.42148-0.44782 1.001-0.69368 0.57953-0.24586 1.2644-0.24586 0.60587 0 1.08 0.16684 0.48294 0.15805 0.80782 0.36001l-0.40391 0.95709q-0.24586-0.16683-0.61465-0.33366-0.36879-0.16684-0.83417-0.16684-0.42147 0-0.80783 0.17562-0.38635 0.16683-0.67611 0.48294-0.28976 0.30732-0.46538 0.72002-0.16683 0.41269-0.16683 0.89563 0 0.5005 0.14927 0.92197 0.15805 0.42148 0.43904 0.7288 0.28976 0.29855 0.68489 0.47416 0.40391 0.16684 0.90442 0.16684 0.49172 0 0.86051-0.14928 0.37757-0.15805 0.60587-0.35122z"/>
  </g>
 </g>
</svg>
