<?xml version="1.0" encoding="UTF-8" standalone="no"?>
<!-- Created with Inkscape (http://www.inkscape.org/) -->

<svg
   width="1424"
   height="512"
   version="1.1"
   viewBox="0 0 376.77 135.47"
   id="svg866"
   sodipodi:docname="PolyMC-Header.Source.svg"
   inkscape:version="1.1.2 (0a00cf5339, 2022-02-04, custom)"
   xmlns:inkscape="http://www.inkscape.org/namespaces/inkscape"
   xmlns:sodipodi="http://sodipodi.sourceforge.net/DTD/sodipodi-0.dtd"
   xmlns:xlink="http://www.w3.org/1999/xlink"
   xmlns="http://www.w3.org/2000/svg"
   xmlns:svg="http://www.w3.org/2000/svg">
  <sodipodi:namedview
     id="namedview868"
     pagecolor="#343434"
     bordercolor="#666666"
     borderopacity="1.0"
     inkscape:pageshadow="2"
     inkscape:pageopacity="0"
     inkscape:pagecheckerboard="0"
     showgrid="false"
     inkscape:zoom="0.61938202"
     inkscape:cx="534.40363"
     inkscape:cy="299.49206"
     inkscape:window-width="2560"
     inkscape:window-height="1382"
     inkscape:window-x="0"
     inkscape:window-y="0"
     inkscape:window-maximized="1"
     inkscape:current-layer="svg866" />
  <defs
     id="defs831">
    <linearGradient
       id="linearGradient84726"
       x1="4.4979"
       x2="12.435"
       y1="3.8011"
       y2="9.5681"
       gradientUnits="userSpaceOnUse">
      <stop
         stop-color="#88b858"
         offset="0"
         id="stop824" />
      <stop
         stop-color="#72b147"
         offset=".5"
         id="stop826" />
      <stop
         stop-color="#5a9a30"
         offset="1"
         id="stop828" />
    </linearGradient>
    <linearGradient
       inkscape:collect="always"
       xlink:href="#linearGradient84726"
       id="linearGradient1147"
       gradientUnits="userSpaceOnUse"
       x1="4.4979"
       y1="3.8011"
       x2="12.435"
       y2="9.5681" />
  </defs>
  <g
     id="g1157">
    <g
       transform="matrix(6.95,0,0,6.9572,17.626477,7.241195)"
       id="g1322">
      <g
         id="g1318">
        <path
           d="m 3.561,16.016 c 0,0 0,-3.5642 4.9056,-3.5642 4.9069,0 4.9056,3.5642 4.9056,3.5642 z"
           fill="#765338"
           id="path1304" />
        <path
           d="M 8.4667,12.452 3.5611,16.0162 0.5292,6.6851 Z"
           fill="#b7835a"
           id="path1306" />
        <path
           d="m 8.4667,12.452 7.9375,-5.7669 -3.0319,9.3311 z"
           fill="#5b422d"
           id="path1308" />
        <path
           d="M 8.8308,12.716 8.46663,12.98058 8.10246,12.716 c 0,-0.26458 0.36417,-0.26458 0.36417,-0.26458 0,0 0.36417,0 0.36417,0.26458 z"
           fill="#72b147"
           id="path1310" />
        <path
           d="m 8.4667,12.452 c 0,0 -2e-7,-5.7669 7.9375,-5.7669 l -0.22507,0.69269 -0.91853,1.1965 -0.91853,0.13819 -0.91853,1.1965 -0.91853,0.13819 -0.91853,1.1965 -0.91853,0.13819 -0.91853,1.1965 -0.91853,0.13819 z"
           fill="#5a9a30"
           id="path1312" />
        <path
           d="M 8.1025,12.716 7.18397,12.57781 6.26544,11.38131 5.34691,11.24312 4.42838,10.04662 3.50985,9.90843 2.59132,8.71193 1.67279,8.57374 0.75426,7.37724 0.52919,6.68455 c 7.9375,1e-7 7.9375,5.7669 7.9375,5.7669 z"
           fill="#88b858"
           id="path1314" />
        <path
           d="m 0.52917,6.6846 7.9375,5.7669 7.9375,-5.7669 -7.9375,-5.7669 z"
           fill="url(#linearGradient84726)"
           id="path1316"
           style="fill:url(#linearGradient1147)" />
      </g>
      <path
         d="m 0.75424,7.3773 -0.22507,-0.69269 7.9375,5.7669 7.9375,-5.7669 -0.22507,0.69269 -7.7124,5.6034 z"
         fill-opacity="0"
         id="path1320" />
    </g>
    <g
       id="polymc-header-text-3"
       fill="white"
       transform="matrix(6.9306,0,0,6.9306,-695.39957,-649.40511)"
       stroke-width="0.26458"
       aria-label="PolyMC"
       style="fill:#ffffff;fill-opacity:1">
      <text
         xml:space="preserve"
         style="font-size:9.92603px;line-height:1.25;font-family:sans-serif;letter-spacing:-0.610833px;word-spacing:0px;fill:#ffffff;fill-opacity:1;stroke-width:0.0101009"
         x="121.65298"
         y="107.71044"
         id="text4534"><tspan
           sodipodi:role="line"
           id="tspan4532"
           style="font-style:normal;font-variant:normal;font-weight:normal;font-stretch:normal;font-size:9.92603px;font-family:'Josefin Sans';-inkscape-font-specification:'Josefin Sans';fill:#ffffff;fill-opacity:1;stroke-width:0.0101009"
           x="121.65298"
           y="107.71044">Poly<tspan
   style="font-style:normal;font-variant:normal;font-weight:600;font-stretch:normal;font-size:8.78072px;font-family:'Josefin Sans';-inkscape-font-specification:'Josefin Sans Semi-Bold'"
   id="tspan137828"
   rotate="0 0">MC</tspan></tspan></text>
    </g>
  </g>
  <g
     id="polymc-header-text-4"
     fill="white"
     transform="matrix(6.9306,0,0,6.9306,-697.30938,-585.54339)"
     stroke-width="0.26458"
     aria-label="PolyMC"
     style="fill:#ffffff;fill-opacity:1" />
</svg>
