<svg xmlns="http://www.w3.org/2000/svg" xmlns:svg="http://www.w3.org/2000/svg" xmlns:xlink="http://www.w3.org/1999/xlink" id="svg866" width="1424" height="512" version="1.1" viewBox="0 0 376.77 135.47"><defs id="defs831"><linearGradient id="linearGradient84726" x1="4.498" x2="12.435" y1="3.801" y2="9.568" gradientUnits="userSpaceOnUse"><stop id="stop824" offset="0" stop-color="#88b858"/><stop id="stop826" offset=".5" stop-color="#72b147"/><stop id="stop828" offset="1" stop-color="#5a9a30"/></linearGradient><linearGradient id="linearGradient1147" x1="4.498" x2="12.435" y1="3.801" y2="9.568" gradientUnits="userSpaceOnUse" xlink:href="#linearGradient84726"/></defs><g id="g1157"><g id="g1322" transform="matrix(6.95,0,0,6.9572,17.626477,7.241195)"><g id="g1318"><path id="path1304" fill="#765338" d="m 3.561,16.016 c 0,0 0,-3.5642 4.9056,-3.5642 4.9069,0 4.9056,3.5642 4.9056,3.5642 z"/><path id="path1306" fill="#b7835a" d="M 8.4667,12.452 3.5611,16.0162 0.5292,6.6851 Z"/><path id="path1308" fill="#5b422d" d="m 8.4667,12.452 7.9375,-5.7669 -3.0319,9.3311 z"/><path id="path1310" fill="#72b147" d="M 8.8308,12.716 8.46663,12.98058 8.10246,12.716 c 0,-0.26458 0.36417,-0.26458 0.36417,-0.26458 0,0 0.36417,0 0.36417,0.26458 z"/><path id="path1312" fill="#5a9a30" d="m 8.4667,12.452 c 0,0 -2e-7,-5.7669 7.9375,-5.7669 l -0.22507,0.69269 -0.91853,1.1965 -0.91853,0.13819 -0.91853,1.1965 -0.91853,0.13819 -0.91853,1.1965 -0.91853,0.13819 -0.91853,1.1965 -0.91853,0.13819 z"/><path id="path1314" fill="#88b858" d="M 8.1025,12.716 7.18397,12.57781 6.26544,11.38131 5.34691,11.24312 4.42838,10.04662 3.50985,9.90843 2.59132,8.71193 1.67279,8.57374 0.75426,7.37724 0.52919,6.68455 c 7.9375,1e-7 7.9375,5.7669 7.9375,5.7669 z"/><path id="path1316" fill="url(#linearGradient84726)" d="m 0.52917,6.6846 7.9375,5.7669 7.9375,-5.7669 -7.9375,-5.7669 z" style="fill:url(#linearGradient1147)"/></g><path id="path1320" fill-opacity="0" d="m 0.75424,7.3773 -0.22507,-0.69269 7.9375,5.7669 7.9375,-5.7669 -0.22507,0.69269 -7.7124,5.6034 z"/></g><g id="polymc-header-text-3" fill="#fff" stroke-width=".265" aria-label="PolyMC" transform="matrix(6.9306,0,0,6.9306,-695.39957,-649.40511)" style="fill:#fff;fill-opacity:1"><text xml:space="preserve" style="font-size:9.92603px;line-height:1.25;font-family:sans-serif;letter-spacing:-.610833px;word-spacing:0;fill:#fff;fill-opacity:1;stroke-width:.0101009" id="text4534" x="121.653" y="107.71"><tspan id="tspan4532" style="font-style:normal;font-variant:normal;font-weight:400;font-stretch:normal;font-size:9.92603px;font-family:'Josefin Sans';-inkscape-font-specification:'Josefin Sans';fill:#fff;fill-opacity:1;stroke-width:.0101009" x="121.653" y="107.71">Poly<tspan style="font-style:normal;font-variant:normal;font-weight:600;font-stretch:normal;font-size:8.78072px;font-family:'Josefin Sans';-inkscape-font-specification:'Josefin Sans Semi-Bold'" id="tspan137828" rotate="0 0">MC</tspan></tspan></text></g></g></svg>