<svg xmlns="http://www.w3.org/2000/svg" xmlns:xlink="http://www.w3.org/1999/xlink" id="Calque_1" x="0" y="0" enable-background="new 0 0 24 24" version="1.1" viewBox="0 0 24 24" xml:space="preserve"><rect width="24" height="24" fill="none"/><g id="_x36__10_"><g><path fill="#585858" d="M21,12.2c0.6-0.9,1-2,1-3.2c0-2.8-2-5-4.5-5S13,6.2,13,9c0,1.2,0.4,2.3,1,3.2c-1.2,0.4-2,1.5-2,2.8v2 c0,1.7,1.3,3,3,3h5c1.7,0,3-1.3,3-3v-2C23,13.7,22.2,12.6,21,12.2z"/></g></g><ellipse cx="17.5" cy="9" fill="#F2F2F2" fill-rule="evenodd" clip-rule="evenodd" rx="3.5" ry="4"/><path fill="#CCC" fill-rule="evenodd" d="M22,15.2c0-1.1-0.8-1.9-1.9-2.2c-0.7,0.6-1.6,0.9-2.6,0.9	c-1,0-1.9-0.3-2.6-0.9c-1.1,0.2-1.9,1.1-1.9,2.2v1.5c0,1.2,1.1,2.2,2.5,2.2h4.1c1.4,0,2.5-1,2.5-2.2V15.2z" clip-rule="evenodd"/></svg>