<svg enable-background="new 0 0 24 24" viewBox="0 0 24 24" xmlns="http://www.w3.org/2000/svg">
  <rect fill="none" height="24" width="24"/>
  <path d="m21 12.2c.6-.9 1-2 1-3.2 0-2.8-2-5-4.5-5s-4.5 2.2-4.5 5c0 1.2.4 2.3 1 3.2-1.2.4-2 1.5-2 2.8v2c0 1.7 1.3 3 3 3h5c1.7 0 3-1.3 3-3v-2c0-1.3-.8-2.4-2-2.8z" fill="#585858"/>
  <g clip-rule="evenodd" fill-rule="evenodd">
    <ellipse cx="17.5" cy="9" fill="#f2f2f2" rx="3.5" ry="4"/>
    <path d="m22 15.2c0-1.1-.8-1.9-1.9-2.2-.7.6-1.6.9-2.6.9s-1.9-.3-2.6-.9c-1.1.2-1.9 1.1-1.9 2.2v1.5c0 1.2 1.1 2.2 2.5 2.2h4.1c1.4 0 2.5-1 2.5-2.2v-1.5z" fill="#ccc"/>
  </g>
</svg>
