<svg enable-background="new 0 0 32 32" viewBox="0 0 32 32" xmlns="http://www.w3.org/2000/svg">
  <rect clip-rule="evenodd" fill="none" height="32" width="32"/>
  <path d="m30 28h-28c-1.1 0-2-.9-2-2v-18c0-1.1.9-2 2-2h28c1.1 0 2 .9 2 2v18c0 1.1-.9 2-2 2z" fill="#b6b5b6"/>
  <path d="m30 27h-28c-1.1 0-2-.9-2-2v-17c0-1.1.9-2 2-2h28c1.1 0 2 .9 2 2v17c0 1.1-.9 2-2 2z" fill="#fbfbfb"/>
  <path d="m23.5 18.9c.3 0 .5-.2.5-.5s-.2-.5-.5-.5h-2.5c0-.1 0-.2 0-.3 0-.4 0-.7 0-1 .7-.1 1.2-.4 1.6-.9 1.3-1.5.9-4.4.9-4.5 0-.3-.3-.4-.5-.4-.3 0-.4.3-.4.5 0 0 .4 2.6-.7 3.8-.3.3-.6.5-1.1.6-.1-.2-.2-.3-.3-.5-.2-.2-.4-.3-.7-.4.2-.3.4-.6.4-1.1 0-1.2-.8-2.2-2.1-2.8-.2-1.1-1.1-1.9-2.1-1.9s-1.9.8-2 1.9c-1.3.6-2.1 1.6-2.1 2.8 0 .5.1.8.4 1.1-.3.1-.5.2-.7.4-.1.1-.2.3-.3.5-.4-.1-.8-.2-1.1-.6-1-1.2-.7-3.7-.7-3.8 0-.3-.1-.5-.4-.5s-.5.1-.5.4c0 .1-.4 3 .9 4.5.4.5 1 .8 1.6.9v1 .3h-2.6c-.3 0-.5.2-.5.5s.2.5.5.5h2.6c0 .6.1 1.2.3 1.7-.8.1-1.5.4-2 1-1.1 1.2-.9 3-.9 3 0 .2.2.4.5.4s.5-.3.4-.5c0 0-.1-1.4.7-2.3.4-.4.9-.6 1.6-.7.9 1.8 2.5 3.1 4.3 3.1 1.9 0 3.5-1.2 4.3-3.1.7 0 1.2.3 1.6.7.8.9.7 2.3.7 2.3 0 .3.2.5.4.5s.4-.2.5-.4c0-.1.1-1.9-.9-3-.5-.5-1.1-.9-1.9-1 .2-.5.3-1.1.3-1.7zm-7.5-9c.4 0 .8.2 1 .6-.1 0-.2 0-.3 0s-.1 0-.2 0c-.2 0-.4 0-.5 0-.2 0-.4 0-.5 0s-.1 0-.2 0-.2 0-.3 0c.2-.3.6-.6 1-.6zm-3.2 3.8c0-.9.7-1.7 1.8-2.1.9-.3 2-.3 2.9 0 1.1.4 1.8 1.2 1.8 2.1 0 .5-.1.8-1.6.8-.5 0-1 0-1.6 0s-1.1 0-1.6 0c-1.5 0-1.7-.3-1.7-.8zm3.7 9.9v-5.1c0-.3-.2-.5-.5-.5s-.5.2-.5.5v5.1c-2-.3-3.5-2.5-3.5-5.1 0-.3 0-.6 0-.9 0-.9 0-1.5.2-1.7.3-.3 1.1-.4 2.3-.5h.7 1.7.8c1.2 0 1.9.2 2.2.5s.2.8.2 1.7v.8.1c-.1 2.6-1.6 4.8-3.6 5.1z" fill="#585858"/>
</svg>
