<svg xmlns="http://www.w3.org/2000/svg" xmlns:xlink="http://www.w3.org/1999/xlink" id="Calque_1" x="0" y="0" enable-background="new 0 0 32 32" version="1.1" viewBox="0 0 32 32" xml:space="preserve"><rect width="32" height="32" fill="none" fill-rule="evenodd" clip-rule="evenodd"/><path fill="#B6B5B6" d="M30,28H2c-1.1,0-2-0.9-2-2V8c0-1.1,0.9-2,2-2h28c1.1,0,2,0.9,2,2v18C32,27.1,31.1,28,30,28z"/><path fill="#FBFBFB" d="M30,27H2c-1.1,0-2-0.9-2-2V8c0-1.1,0.9-2,2-2h28c1.1,0,2,0.9,2,2v17C32,26.1,31.1,27,30,27z"/><path fill="#585858" d="M23.5,18.9c0.3,0,0.5-0.2,0.5-0.5c0-0.3-0.2-0.5-0.5-0.5H21c0-0.1,0-0.2,0-0.3c0-0.4,0-0.7,0-1	c0.7-0.1,1.2-0.4,1.6-0.9c1.3-1.5,0.9-4.4,0.9-4.5c0-0.3-0.3-0.4-0.5-0.4c-0.3,0-0.4,0.3-0.4,0.5c0,0,0.4,2.6-0.7,3.8	c-0.3,0.3-0.6,0.5-1.1,0.6c-0.1-0.2-0.2-0.3-0.3-0.5c-0.2-0.2-0.4-0.3-0.7-0.4c0.2-0.3,0.4-0.6,0.4-1.1c0-1.2-0.8-2.2-2.1-2.8l0,0	C17.9,9.8,17,9,16,9c-1,0-1.9,0.8-2,1.9l0,0v0c-1.3,0.6-2.1,1.6-2.1,2.8c0,0.5,0.1,0.8,0.4,1.1c-0.3,0.1-0.5,0.2-0.7,0.4	c-0.1,0.1-0.2,0.3-0.3,0.5c-0.4-0.1-0.8-0.2-1.1-0.6c-1-1.2-0.7-3.7-0.7-3.8c0-0.3-0.1-0.5-0.4-0.5c-0.3,0-0.5,0.1-0.5,0.4	c0,0.1-0.4,3,0.9,4.5c0.4,0.5,1,0.8,1.6,0.9c0,0.3,0,0.6,0,1c0,0.1,0,0.2,0,0.3H8.5c-0.3,0-0.5,0.2-0.5,0.5c0,0.3,0.2,0.5,0.5,0.5	h2.6c0,0.6,0.1,1.2,0.3,1.7c-0.8,0.1-1.5,0.4-2,1c-1.1,1.2-0.9,3-0.9,3c0,0.2,0.2,0.4,0.5,0.4c0,0,0,0,0,0c0.3,0,0.5-0.3,0.4-0.5	c0,0-0.1-1.4,0.7-2.3c0.4-0.4,0.9-0.6,1.6-0.7c0.9,1.8,2.5,3.1,4.3,3.1c0,0,0,0,0,0c0,0,0,0,0,0c0,0,0,0,0,0c1.9,0,3.5-1.2,4.3-3.1	c0.7,0,1.2,0.3,1.6,0.7c0.8,0.9,0.7,2.3,0.7,2.3c0,0.3,0.2,0.5,0.4,0.5c0,0,0,0,0,0c0.2,0,0.4-0.2,0.5-0.4c0-0.1,0.1-1.9-0.9-3	c-0.5-0.5-1.1-0.9-1.9-1c0.2-0.5,0.3-1.1,0.3-1.7H23.5z M16,9.9c0.4,0,0.8,0.2,1,0.6c-0.1,0-0.2,0-0.3,0c-0.1,0-0.1,0-0.2,0	c-0.2,0-0.4,0-0.5,0c-0.2,0-0.4,0-0.5,0c-0.1,0-0.1,0-0.2,0c-0.1,0-0.2,0-0.3,0C15.2,10.2,15.6,9.9,16,9.9z M12.8,13.7	c0-0.9,0.7-1.7,1.8-2.1c0.9-0.3,2-0.3,2.9,0c1.1,0.4,1.8,1.2,1.8,2.1c0,0.5-0.1,0.8-1.6,0.8c-0.5,0-1,0-1.6,0c0,0,0,0,0,0	c0,0,0,0,0,0c0,0,0,0,0,0c-0.6,0-1.1,0-1.6,0C13,14.5,12.8,14.2,12.8,13.7z M16.5,23.6v-5.1c0-0.3-0.2-0.5-0.5-0.5s-0.5,0.2-0.5,0.5	v5.1c-2-0.3-3.5-2.5-3.5-5.1c0-0.3,0-0.6,0-0.9c0-0.9,0-1.5,0.2-1.7c0.3-0.3,1.1-0.4,2.3-0.5c0.2,0,0.4,0,0.7,0c0.6,0,1.2,0,1.7,0	c0.3,0,0.5,0,0.8,0c1.2,0,1.9,0.2,2.2,0.5c0.3,0.3,0.2,0.8,0.2,1.7c0,0.2,0,0.5,0,0.8c0,0,0,0,0,0c0,0,0,0,0,0c0,0,0,0,0,0.1	C20,21.1,18.5,23.3,16.5,23.6z"/></svg>