<svg enable-background="new 0 0 32 32" viewBox="0 0 32 32" xmlns="http://www.w3.org/2000/svg">
  <rect clip-rule="evenodd" fill="none" height="32" width="32"/>
  <path d="m30 28h-28c-1.1 0-2-.9-2-2v-18c0-1.1.9-2 2-2h28c1.1 0 2 .9 2 2v18c0 1.1-.9 2-2 2z" fill="#b6b5b6"/>
  <path d="m30 27h-28c-1.1 0-2-.9-2-2v-17c0-1.1.9-2 2-2h28c1.1 0 2 .9 2 2v17c0 1.1-.9 2-2 2z" fill="#fbfbfb"/>
  <g fill="#585858">
    <path clip-rule="evenodd" d="m22 25h-12c-1.1 0-2-.9-2-2v-12c0-1.1.9-2 2-2h3c1.1 0 2 .9 2 2h7c1.1 0 2 .9 2 2v10c0 1.1-.9 2-2 2zm-13-2c0 .6.4 1 1 1h12c.6 0 1-.4 1-1v-10c0-.6-.4-1-1-1h-8v-1c0-.6-.4-1-1-1h-3c-.6 0-1 .4-1 1z" fill-rule="evenodd"/>
    <path d="m19 23-3-1.6-3 1.6.6-3.5-2.4-2.4 3.3-.5 1.5-3.2 1.5 3.2 3.3.5-2.4 2.4zm-5.7-5.2 1.4 1.4-.3 1.9 1.7-.9 1.7.9-.3-1.9 1.4-1.4-1.9-.3-1-1.7-.8 1.7z"/>
  </g>
</svg>
