<svg enable-background="new 0 0 32 32" viewBox="0 0 32 32" xmlns="http://www.w3.org/2000/svg">
  <rect clip-rule="evenodd" fill="none" height="32" width="32"/>
  <path d="m30 28h-28c-1.1 0-2-.9-2-2v-18c0-1.1.9-2 2-2h28c1.1 0 2 .9 2 2v18c0 1.1-.9 2-2 2z" fill="#b6b5b6"/>
  <path d="m30 27h-28c-1.1 0-2-.9-2-2v-17c0-1.1.9-2 2-2h28c1.1 0 2 .9 2 2v17c0 1.1-.9 2-2 2z" fill="#fbfbfb"/>
  <g fill="#585858">
    <path d="m18.9 21.7c-.2-.2-.5-.2-.7 0l-1.6 1.6v-6.8c0-.3-.2-.5-.5-.5s-.5.2-.5.5v6.8l-1.6-1.6c-.2-.2-.5-.2-.7 0s-.2.5 0 .7l2.5 2.5c-.1.1.1.1.2.1s.3 0 .4-.1l2.5-2.5c.2-.2.2-.5 0-.7z"/>
    <path d="m18 19.5h2.5c1.3-.8 2.6-2.1 2.5-3.5-.1-1.6-1.8-3.6-4.2-3.5-.4-1.5-1.6-2.5-3.3-2.5-2.2 0-3.5 1.9-3.5 4-1.7.1-3 1.5-3 3 0 2.7 3 2.5 3 2.5s2 0 2 0c.3 0 .5.2.5.5s-.2.5-.5.5h-2c-2.2-.1-4-1.4-4-3.5 0-1.8 1.3-3.3 3-3.8.2-2.3 2.1-4.2 4.5-4.2 1.8 0 3.3 1 4 2.5 2.5.1 4.5 2.2 4.5 4.7 0 1.9-1.8 3.5-3.5 4.2h-2.5c-.3 0-.5-.2-.5-.5s.2-.4.5-.4z"/>
  </g>
</svg>
