<svg xmlns="http://www.w3.org/2000/svg" xmlns:xlink="http://www.w3.org/1999/xlink" id="Calque_1" x="0" y="0" enable-background="new 0 0 32 32" version="1.1" viewBox="0 0 32 32" xml:space="preserve"><rect width="32" height="32" fill="none" fill-rule="evenodd" clip-rule="evenodd"/><path fill="#B6B5B6" d="M29.9,28.4h-28c-1.1,0-2-0.9-2-2v-18c0-1.1,0.9-2,2-2h28c1.1,0,2,0.9,2,2v18C31.9,27.5,31,28.4,29.9,28.4z"/><path fill="#FBFBFB" d="M29.9,27.4h-28c-1.1,0-2-0.9-2-2v-17c0-1.1,0.9-2,2-2h28c1.1,0,2,0.9,2,2v17C31.9,26.5,31,27.4,29.9,27.4z"/><g id="_x33__11_"><g><path fill="#585858" d="M17.9,13.4h-8c-1.1,0-2,0.9-2,2v8c0,1.1,0.9,2,2,2h8c1.1,0,2-0.9,2-2v-8C19.9,14.3,19,13.4,17.9,13.4z M18.9,23.4c0,0.6-0.4,1-1,1h-8c-0.6,0-1-0.4-1-1v-8c0-0.6,0.4-1,1-1h8c0.6,0,1,0.4,1,1V23.4z M21.9,9.4h-8c-1.1,0-2,0.9-2,2v1h1 v-1c0-0.6,0.4-1,1-1h8c0.6,0,1,0.4,1,1v8c0,0.6-0.4,1-1,1h-1v1h1c1.1,0,2-0.9,2-2v-8C23.9,10.3,23,9.4,21.9,9.4z"/></g></g></svg>