<svg enable-background="new 0 0 32 32" viewBox="0 0 32 32" xmlns="http://www.w3.org/2000/svg">
  <rect clip-rule="evenodd" fill="none" height="32" width="32"/>
  <path d="m29.9 28.4h-28c-1.1 0-2-.9-2-2v-18c0-1.1.9-2 2-2h28c1.1 0 2 .9 2 2v18c0 1.1-.9 2-2 2z" fill="#b6b5b6"/>
  <path d="m29.9 27.4h-28c-1.1 0-2-.9-2-2v-17c0-1.1.9-2 2-2h28c1.1 0 2 .9 2 2v17c0 1.1-.9 2-2 2z" fill="#fbfbfb"/>
  <path d="m17.9 13.4h-8c-1.1 0-2 .9-2 2v8c0 1.1.9 2 2 2h8c1.1 0 2-.9 2-2v-8c0-1.1-.9-2-2-2zm1 10c0 .6-.4 1-1 1h-8c-.6 0-1-.4-1-1v-8c0-.6.4-1 1-1h8c.6 0 1 .4 1 1zm3-14h-8c-1.1 0-2 .9-2 2v1h1v-1c0-.6.4-1 1-1h8c.6 0 1 .4 1 1v8c0 .6-.4 1-1 1h-1v1h1c1.1 0 2-.9 2-2v-8c0-1.1-.9-2-2-2z" fill="#585858"/>
</svg>
