<svg enable-background="new 0 0 24 24" viewBox="0 0 24 24" xmlns="http://www.w3.org/2000/svg">
  <circle clip-rule="evenodd" cx="14.9" cy="12.4" fill="#e6e6e6" fill-rule="evenodd" r="7"/>
  <polygon fill="#fff" points="12.2 11.5 13.5 13 13.2 14.9 14.9 14 16.5 14.9 16.2 13 17.6 11.5 15.7 11.3 14.9 9.5 14.1 11.3"/>
  <rect fill="none" height="24" width="24"/>
  <g fill="#585858">
    <path d="m14.9 4.4c-4.4 0-8 3.6-8 8s3.6 8 8 8 8-3.6 8-8-3.6-8-8-8zm0 15c-3.9 0-7-3.1-7-7s3.1-7 7-7 7 3.1 7 7c0 3.8-3.2 7-7 7z"/>
    <path d="m17.8 16.8-3-1.6-3 1.6.6-3.5-2.4-2.4 3.3-.5 1.5-3.2 1.5 3.2 3.3.5-2.4 2.4zm-5.6-5.3 1.4 1.4-.3 1.9 1.7-.9 1.7.9-.5-1.8 1.4-1.4-1.9-.3-.8-1.7-.8 1.7z"/>
  </g>
</svg>
