<svg xmlns="http://www.w3.org/2000/svg" xmlns:xlink="http://www.w3.org/1999/xlink" id="Calque_1" x="0" y="0" enable-background="new 0 0 24 24" version="1.1" viewBox="0 0 24 24" xml:space="preserve"><circle cx="14.9" cy="12.4" r="7" fill="#E6E6E6" fill-rule="evenodd" clip-rule="evenodd"/><polygon fill="#FFF" points="12.2 11.5 13.5 13 13.2 14.9 14.9 14 16.5 14.9 16.2 13 17.6 11.5 15.7 11.3 14.9 9.5 14.1 11.3"/><rect width="24" height="24" fill="none"/><g><g id="_x38__4_"><g><path fill="#585858" d="M14.9,4.4c-4.4,0-8,3.6-8,8c0,4.4,3.6,8,8,8s8-3.6,8-8C22.9,8,19.3,4.4,14.9,4.4z M14.9,19.4 c-3.9,0-7-3.1-7-7c0-3.9,3.1-7,7-7s7,3.1,7,7C21.9,16.2,18.7,19.4,14.9,19.4z"/></g></g><g><path fill="#585858" d="M17.8,16.8l-3-1.6l-3,1.6l0.6-3.5l-2.4-2.4l3.3-0.5l1.5-3.2l1.5,3.2l3.3,0.5l-2.4,2.4L17.8,16.8z M12.2,11.5l1.4,1.4l-0.3,1.9l1.7-0.9l1.7,0.9L16.2,13l1.4-1.4l-1.9-0.3l-0.8-1.7l-0.8,1.7L12.2,11.5z"/></g></g></svg>