<svg xmlns="http://www.w3.org/2000/svg" xmlns:svg="http://www.w3.org/2000/svg" id="Calque_1" x="0" y="0" enable-background="new 0 0 24 24" version="1.1" viewBox="0 0 24 24" xml:space="preserve"><metadata id="metadata22"/><path id="path2" fill="#E6E6E6" fill-rule="evenodd" d="M21,20H9c-1.1,0-2-0.9-2-2V6c0-1.1,0.9-2,2-2h12c1.1,0,2,0.9,2,2 v12C23,19.1,22.1,20,21,20z" clip-rule="evenodd"/><rect id="rect4" width="24" height="24" fill="none"/><g id="_x36__8_"><g id="g8"><path id="path6" d="M 21,4 H 9 C 7.9,4 7,4.9 7,6 v 12 c 0,1.1 0.9,2 2,2 h 12 c 1.1,0 2,-0.9 2,-2 V 6 C 23,4.9 22.1,4 21,4 Z m 1,14 -1,1 H 9 L 8,18 V 6 C 8,5.4 8.4,5 9,5 h 12 c 0.6,0 1,0.4 1,1 z" style="fill:#585858"/></g></g><circle id="circle11" cx="-3.849" cy="11.56" r="1" style="clip-rule:evenodd;fill:#fff;fill-rule:evenodd"/><g id="g856" style="fill:#585858;fill-opacity:1" transform="matrix(0.01889997,0,0,0.01889997,10.039419,7.0394194)"><g id="g854" style="fill:#585858;fill-opacity:1"><path id="path850" d="m 226.434,249.503 c 0,-6.995 -2.705,-13.403 -7.846,-18.556 L 61.8,74.165 c -5.128,-5.141 -11.554,-7.852 -18.568,-7.852 -7.026,0 -13.452,2.717 -18.556,7.846 l -16.83,16.83 c -5.129,5.135 -7.84,11.549 -7.84,18.538 0,7.026 2.717,13.452 7.846,18.556 L 129.267,249.503 7.84,370.936 C 2.711,376.071 0,382.491 0,389.486 c 0,7.02 2.717,13.439 7.846,18.544 l 16.775,16.774 c 5.116,5.165 11.555,7.895 18.611,7.895 7.044,0 13.47,-2.723 18.556,-7.846 l 156.813,-156.8 c 5.128,-5.14 7.833,-11.549 7.833,-18.55 z" style="fill:#585858;fill-opacity:1"/><path id="path852" d="m 498.866,384.951 h -323.02 c -7.203,0 -13.611,2.583 -18.581,7.528 -4.896,4.92 -7.484,11.327 -7.484,18.531 v 21.536 c 0,7.252 2.607,13.672 7.491,18.543 4.915,4.927 11.34,7.528 18.574,7.528 h 323.02 c 7.239,0 13.659,-2.607 18.531,-7.497 4.927,-4.908 7.533,-11.334 7.533,-18.58 v -21.537 c 0,-7.209 -2.589,-13.616 -7.54,-18.592 -4.913,-4.877 -11.321,-7.46 -18.524,-7.46 z" style="fill:#585858;fill-opacity:1"/></g></g></svg>