<svg enable-background="new 0 0 24 24" viewBox="0 0 24 24" xmlns="http://www.w3.org/2000/svg">
  <metadata/>
  <path clip-rule="evenodd" d="m21 20h-12c-1.1 0-2-.9-2-2v-12c0-1.1.9-2 2-2h12c1.1 0 2 .9 2 2v12c0 1.1-.9 2-2 2z" fill="#e6e6e6" fill-rule="evenodd"/>
  <rect fill="none" height="24" width="24"/>
  <path d="m21 4h-12c-1.1 0-2 .9-2 2v12c0 1.1.9 2 2 2h12c1.1 0 2-.9 2-2v-12c0-1.1-.9-2-2-2zm1 14-1 1h-12l-1-1v-12c0-.6.4-1 1-1h12c.6 0 1 .4 1 1z" fill="#585858"/>
  <circle clip-rule="evenodd" cx="-3.849242" cy="11.559504" fill="#fff" fill-rule="evenodd" r="1"/>
  <g fill="#585858" transform="matrix(.01889997 0 0 .01889997 10.039419 7.039419)">
    <path d="m226.434 249.503c0-6.995-2.705-13.403-7.846-18.556l-156.788-156.782c-5.128-5.141-11.554-7.852-18.568-7.852-7.026 0-13.452 2.717-18.556 7.846l-16.83 16.83c-5.129 5.135-7.84 11.549-7.84 18.538 0 7.026 2.717 13.452 7.846 18.556l121.415 121.42-121.427 121.433c-5.129 5.135-7.84 11.555-7.84 18.55 0 7.02 2.717 13.439 7.846 18.544l16.775 16.774c5.116 5.165 11.555 7.895 18.611 7.895 7.044 0 13.47-2.723 18.556-7.846l156.813-156.8c5.128-5.14 7.833-11.549 7.833-18.55z"/>
    <path d="m498.866 384.951h-323.02c-7.203 0-13.611 2.583-18.581 7.528-4.896 4.92-7.484 11.327-7.484 18.531v21.536c0 7.252 2.607 13.672 7.491 18.543 4.915 4.927 11.34 7.528 18.574 7.528h323.02c7.239 0 13.659-2.607 18.531-7.497 4.927-4.908 7.533-11.334 7.533-18.58v-21.537c0-7.209-2.589-13.616-7.54-18.592-4.913-4.877-11.321-7.46-18.524-7.46z"/>
  </g>
</svg>
