<svg enable-background="new 0 0 32 32" viewBox="0 0 32 32" xmlns="http://www.w3.org/2000/svg">
  <rect clip-rule="evenodd" fill="none" height="32" width="32"/>
  <path d="m30 28h-28c-1.1 0-2-.9-2-2v-18c0-1.1.9-2 2-2h28c1.1 0 2 .9 2 2v18c0 1.1-.9 2-2 2z" fill="#b6b5b6"/>
  <path d="m30 27h-28c-1.1 0-2-.9-2-2v-17c0-1.1.9-2 2-2h28c1.1 0 2 .9 2 2v17c0 1.1-.9 2-2 2z" fill="#fbfbfb"/>
  <g stroke-width="1.62983" transform="matrix(.61347029 0 0 .61364877 6.184475 6.621536)">
    <g stroke-linecap="round" stroke-width="1.52524" transform="matrix(.97069724 0 0 1.1763237 -.104682 -4.818143)">
      <path d="m6.7324219 10.556641v.820312 15.230469c0 1.649975 1.3558838 3.003906 3.0058594 3.003906h13.7050777c1.649976 0 3.00586-1.353931 3.00586-3.003906v-16.050781zm1.6386719 1.638672h16.4394532v14.412109c0 .764319-.602868 1.365234-1.367188 1.365234h-13.7050777c-.7643194 0-1.3671876-.600915-1.3671875-1.365234z" fill="#585858" stroke-width="1.52524"/>
      <path d="m13.353409 15.259086v9.466797zm6.474609.183594v9.466797z" fill="none" stroke="#585858" stroke-linejoin="round" stroke-width="2.28785"/>
    </g>
    <g fill="none" stroke="#585858" stroke-width="2.44476">
      <path d="m3.0114815 4.6293617h25.9770375" stroke-linecap="round" stroke-linejoin="round"/>
      <path d="m10.431403 3.4038387h11.137193"/>
    </g>
  </g>
</svg>
