<?xml version="1.0" encoding="UTF-8" standalone="no"?>
<!-- Generator: Adobe Illustrator 18.1.0, SVG Export Plug-In . SVG Version: 6.00 Build 0)  -->

<svg
   version="1.1"
   id="Calque_1"
   x="0px"
   y="0px"
   viewBox="0 0 32 32"
   enable-background="new 0 0 32 32"
   xml:space="preserve"
   xmlns="http://www.w3.org/2000/svg"
   xmlns:svg="http://www.w3.org/2000/svg"><defs
   id="defs13" />
<rect
   fill-rule="evenodd"
   clip-rule="evenodd"
   fill="none"
   width="32"
   height="32"
   id="rect2" />
<path
   fill="#B6B5B6"
   d="M30,28H2c-1.1,0-2-0.9-2-2V8c0-1.1,0.9-2,2-2h28c1.1,0,2,0.9,2,2v18C32,27.1,31.1,28,30,28z"
   id="path4" />
<path
   fill="#FBFBFB"
   d="M30,27H2c-1.1,0-2-0.9-2-2V8c0-1.1,0.9-2,2-2h28c1.1,0,2,0.9,2,2v17C32,26.1,31.1,27,30,27z"
   id="path6" />

<g
   id="g19002"
   transform="matrix(0.61347029,0,0,0.61364877,6.1844752,6.6215364)"
   style="stroke-width:1.62983"><g
     id="g9250"
     transform="matrix(0.97069724,0,0,1.1763237,-0.10468178,-4.8181425)"
     style="stroke-width:1.52524"><path
       style="color:#000000;fill:#585858;fill-opacity:1;stroke-width:1.52524;stroke-linecap:round;-inkscape-stroke:none"
       d="m 6.7324219,10.556641 v 0.820312 15.230469 c 0,1.649975 1.3558838,3.003906 3.0058594,3.003906 H 23.443359 c 1.649976,0 3.00586,-1.353931 3.00586,-3.003906 V 10.556641 Z m 1.6386719,1.638672 H 24.810547 v 14.412109 c 0,0.764319 -0.602868,1.365234 -1.367188,1.365234 H 9.7382813 c -0.7643194,0 -1.3671876,-0.600915 -1.3671875,-1.365234 z"
       id="rect2395" /><path
       id="path8117"
       style="fill:none;stroke:#585858;stroke-width:2.28785;stroke-linecap:round;stroke-linejoin:round;stroke-dasharray:none;stroke-opacity:1;paint-order:normal"
       d="m 13.353409,15.259086 v 9.466797 z m 6.474609,0.183594 v 9.466797 z" /></g><path
     style="fill:none;fill-opacity:1;stroke:#585858;stroke-width:2.44476;stroke-linecap:round;stroke-linejoin:round;stroke-dasharray:none;stroke-opacity:1"
     d="M 3.0114815,4.6293617 H 28.988519"
     id="path9281" /><path
     style="fill:none;stroke:#585858;stroke-width:2.44476;stroke-linecap:butt;stroke-linejoin:miter;stroke-dasharray:none;stroke-opacity:1"
     d="M 10.431403,3.4038387 H 21.568596"
     id="path9283" /></g></svg>
