<?xml version="1.0" encoding="UTF-8" standalone="no"?>
<!-- Generator: Adobe Illustrator 18.1.0, SVG Export Plug-In . SVG Version: 6.00 Build 0)  -->

<svg
   version="1.1"
   id="Calque_1"
   x="0px"
   y="0px"
   viewBox="0 0 32 32"
   enable-background="new 0 0 32 32"
   xml:space="preserve"
   xmlns="http://www.w3.org/2000/svg"
   xmlns:svg="http://www.w3.org/2000/svg"><defs
   id="defs7209" />
<rect
   fill-rule="evenodd"
   clip-rule="evenodd"
   fill="none"
   width="32"
   height="32"
   id="rect7195" />
<path
   fill="#B6B5B6"
   d="M30,28.4H2c-1.1,0-2-0.9-2-2v-18c0-1.1,0.9-2,2-2h28c1.1,0,2,0.9,2,2v18C32,27.5,31.1,28.4,30,28.4z"
   id="path7197" />
<path
   fill="#FBFBFB"
   d="M30,27.4H2c-1.1,0-2-0.9-2-2v-17c0-1.1,0.9-2,2-2h28c1.1,0,2,0.9,2,2v17C32,26.5,31.1,27.4,30,27.4z"
   id="path7199" />
<g
   id="_x36__6_">
	<g
   id="g7203">
		<path
   fill="#585858"
   d="M22,11.4h-7c0-1.1-0.9-2-2-2h-3c-1.1,0-2,0.9-2,2v12c0,1.1,0.9,2,2,2h12c1.1,0,2-0.9,2-2v-10    C24,12.3,23.1,11.4,22,11.4z M23,23.4c0,0.6-0.4,1-1,1H10c-0.6,0-1-0.4-1-1v-8h14V23.4z M23,14.4H9v-3c0-0.6,0.4-1,1-1h3    c0.6,0,1,0.4,1,1v1h8c0.6,0,1,0.4,1,1V14.4z"
   id="path7201" />
	</g>
</g>
<g
   id="g7346"
   transform="matrix(0.60195183,0,0,0.60195183,6.3687707,6.8734131)"
   style="fill:#585858;fill-opacity:1;stroke-width:1.66127"><g
     id="_x36__4_"
     style="fill:#585858;fill-opacity:1;stroke-width:1.66127">
	<g
   id="g849"
   style="fill:#585858;fill-opacity:1;stroke-width:1.66127">
		
	</g>
</g><g
     id="g1052"
     transform="rotate(-90,15.237227,22.237227)"
     style="fill:#585858;fill-opacity:1;stroke-width:1.66127"><g
       id="_x37__7_"
       style="fill:#585858;fill-opacity:1;stroke-width:1.66127">
	<g
   id="g1038"
   style="fill:#585858;fill-opacity:1;stroke-width:1.66127">
		<path
   d="m 21.7,25.4 c -0.4,-0.4 -1,-0.4 -1.4,0 L 17,28.7 V 15 c 0,-0.6 -0.4,-1 -1,-1 -0.6,0 -1,0.4 -1,1 v 13.6 l -3.3,-3.2 c -0.4,-0.4 -1,-0.4 -1.4,0 -0.4,0.4 -0.4,1 0,1.4 l 4.9,4.9 c 0.2,0.2 0.5,0.3 0.8,0.3 0.3,0 0.6,-0.1 0.8,-0.3 l 4.9,-4.9 c 0.4,-0.4 0.4,-1 0,-1.4 z"
   id="path1036"
   style="fill:#585858;fill-opacity:1;stroke-width:2.62304" />
	</g>
</g></g></g></svg>
