<svg enable-background="new 0 0 32 32" viewBox="0 0 32 32" xmlns="http://www.w3.org/2000/svg">
  <metadata/>
  <rect clip-rule="evenodd" fill="none" height="32" width="32"/>
  <path d="m30 28h-28c-1.1 0-2-.9-2-2v-18c0-1.1.9-2 2-2h28c1.1 0 2 .9 2 2v18c0 1.1-.9 2-2 2z" fill="#b6b5b6"/>
  <path d="m30 27h-28c-1.1 0-2-.9-2-2v-17c0-1.1.9-2 2-2h28c1.1 0 2 .9 2 2v17c0 1.1-.9 2-2 2z" fill="#fbfbfb"/>
  <g fill="#585858">
    <path d="m-20.968435 13.920532c0 .6381-.07293 1.239737-.218777 1.804911-.145852.565174-.401092 1.066538-.76572 1.504093-.401092.492249-.774836.902456-1.121233 1.230621-.346397.328166-.656332.6381-.929803.929803-.25524.273471-.464902.556059-.628985.847762-.145851.291703-.218777.656331-.218777 1.093885v.38286h-3.144921v-.984497c0-.601637.136736-1.221505.410207-1.859605.273471-.656332.756604-1.285316 1.449399-1.886953.346397-.309935.638099-.583406.875108-.820415.237009-.25524.428439-.492248.57429-.711025.145851-.237009.246124-.483133.300819-.738373.05469-.273471.08204-.57429.08204-.902456 0-.528711-.12762-.984497-.38286-1.367357-.237009-.401091-.656331-.601637-1.257968-.601637-1.057423 0-1.640829.692794-1.750218 2.078383h-3.06288c.01823-.747489.145853-1.431167.38286-2.051036.237009-.6381.565175-1.185043.984498-1.640829.419323-.474017.920687-.8386455 1.504092-1.0938855.601637-.25524 1.2762-.38286 2.023689-.38286.838646 0 1.567903.1367357 2.187771.4102072.619869.25524 1.130349.6198684 1.53144 1.0938853.401092.455786.692795 1.002729.875109 1.640829.200546.619869.300819 1.294432.30082 2.023689z" transform="matrix(.51850737 0 0 .51850737 29.410453 7.662064)"/>
    <circle cx="15.727567" cy="20.866687" r=".933313" stroke-width=".518507"/>
    <path d="m16 9c-4.4 0-8 3.6-8 8s3.6 8 8 8 8-3.6 8-8-3.6-8-8-8zm0 15c-3.9 0-7-3.1-7-7s3.1-7 7-7 7 3.1 7 7-3.1 7-7 7z"/>
  </g>
</svg>
