<svg xmlns="http://www.w3.org/2000/svg" xmlns:xlink="http://www.w3.org/1999/xlink" id="Calque_1" x="0" y="0" enable-background="new 0 0 24 24" version="1.1" viewBox="0 0 24 24" xml:space="preserve"><rect width="24" height="24" fill="none"/><path fill="#F2F2F2" fill-rule="evenodd" d="M22,6c0-0.6-0.4-1-1-1H9C8.4,5,8,5.4,8,6v12c0,0.6,0.4,1,1,1h12	c0.6,0,1-0.4,1-1V6z" clip-rule="evenodd"/><g id="_x32__10_"><g><path fill="#585858" d="M20,16h-5.6c-0.2-0.9-1-1.5-1.9-1.5s-1.7,0.6-1.9,1.5H10c-0.3,0-0.5,0.2-0.5,0.5c0,0.3,0.2,0.5,0.5,0.5 h0.6c0.2,0.9,1,1.5,1.9,1.5s1.7-0.6,1.9-1.5H20c0.3,0,0.5-0.2,0.5-0.5C20.5,16.2,20.3,16,20,16z M12.5,17.7 c-0.7,0-1.2-0.5-1.2-1.2s0.5-1.2,1.2-1.2s1.2,0.5,1.2,1.2S13.2,17.7,12.5,17.7z M21,4H9C7.9,4,7,4.9,7,6v12c0,1.1,0.9,2,2,2h12 c1.1,0,2-0.9,2-2V6C23,4.9,22.1,4,21,4z M22,18c0,0.6-0.4,1-1,1H9c-0.6,0-1-0.4-1-1V6c0-0.6,0.4-1,1-1h12c0.6,0,1,0.4,1,1V18z M20,8h-5.6c-0.2-0.9-1-1.5-1.9-1.5S10.8,7.1,10.6,8H10C9.7,8,9.5,8.2,9.5,8.5C9.5,8.8,9.7,9,10,9h0.6c0.2,0.9,1,1.5,1.9,1.5 s1.7-0.6,1.9-1.5H20c0.3,0,0.5-0.2,0.5-0.5C20.5,8.2,20.3,8,20,8z M12.5,9.7c-0.7,0-1.2-0.5-1.2-1.2c0-0.7,0.5-1.2,1.2-1.2 s1.2,0.5,1.2,1.2C13.7,9.2,13.2,9.7,12.5,9.7z M20,12h-1.1c-0.2-0.9-1-1.5-1.9-1.5s-1.7,0.6-1.9,1.5H10c-0.3,0-0.5,0.2-0.5,0.5 c0,0.3,0.2,0.5,0.5,0.5h5.1c0.2,0.9,1,1.5,1.9,1.5s1.7-0.6,1.9-1.5H20c0.3,0,0.5-0.2,0.5-0.5C20.5,12.2,20.3,12,20,12z M17,13.7 c-0.7,0-1.2-0.5-1.2-1.2c0-0.7,0.5-1.2,1.2-1.2s1.2,0.5,1.2,1.2C18.2,13.2,17.7,13.7,17,13.7z"/></g></g><circle cx="12.5" cy="16.5" r="1.2" fill="#FFF" fill-rule="evenodd" clip-rule="evenodd"/><circle cx="17" cy="12.5" r="1.2" fill="#FFF" fill-rule="evenodd" clip-rule="evenodd"/><circle cx="12.5" cy="8.5" r="1.2" fill="#FFF" fill-rule="evenodd" clip-rule="evenodd"/></svg>