<svg enable-background="new 0 0 24 24" viewBox="0 0 24 24" xmlns="http://www.w3.org/2000/svg">
  <rect fill="none" height="24" width="24"/>
  <path clip-rule="evenodd" d="m22 6c0-.6-.4-1-1-1h-12c-.6 0-1 .4-1 1v12c0 .6.4 1 1 1h12c.6 0 1-.4 1-1z" fill="#f2f2f2" fill-rule="evenodd"/>
  <path d="m20 16h-5.6c-.2-.9-1-1.5-1.9-1.5s-1.7.6-1.9 1.5h-.6c-.3 0-.5.2-.5.5s.2.5.5.5h.6c.2.9 1 1.5 1.9 1.5s1.7-.6 1.9-1.5h5.6c.3 0 .5-.2.5-.5s-.2-.5-.5-.5zm-7.5 1.7c-.7 0-1.2-.5-1.2-1.2s.5-1.2 1.2-1.2 1.2.5 1.2 1.2-.5 1.2-1.2 1.2zm8.5-13.7h-12c-1.1 0-2 .9-2 2v12c0 1.1.9 2 2 2h12c1.1 0 2-.9 2-2v-12c0-1.1-.9-2-2-2zm1 14c0 .6-.4 1-1 1h-12c-.6 0-1-.4-1-1v-12c0-.6.4-1 1-1h12c.6 0 1 .4 1 1zm-2-10h-5.6c-.2-.9-1-1.5-1.9-1.5s-1.7.6-1.9 1.5h-.6c-.3 0-.5.2-.5.5s.2.5.5.5h.6c.2.9 1 1.5 1.9 1.5s1.7-.6 1.9-1.5h5.6c.3 0 .5-.2.5-.5s-.2-.5-.5-.5zm-7.5 1.7c-.7 0-1.2-.5-1.2-1.2s.5-1.2 1.2-1.2 1.2.5 1.2 1.2-.5 1.2-1.2 1.2zm7.5 2.3h-1.1c-.2-.9-1-1.5-1.9-1.5s-1.7.6-1.9 1.5h-5.1c-.3 0-.5.2-.5.5s.2.5.5.5h5.1c.2.9 1 1.5 1.9 1.5s1.7-.6 1.9-1.5h1.1c.3 0 .5-.2.5-.5s-.2-.5-.5-.5zm-3 1.7c-.7 0-1.2-.5-1.2-1.2s.5-1.2 1.2-1.2 1.2.5 1.2 1.2-.5 1.2-1.2 1.2z" fill="#585858"/>
  <g clip-rule="evenodd" fill="#fff" fill-rule="evenodd">
    <circle cx="12.5" cy="16.5" r="1.2"/>
    <circle cx="17" cy="12.5" r="1.2"/>
    <circle cx="12.5" cy="8.5" r="1.2"/>
  </g>
</svg>
