<svg enable-background="new 0 0 24 24" viewBox="0 0 24 24" xmlns="http://www.w3.org/2000/svg">
  <rect fill="none" height="24" width="24"/>
  <g fill="#585858">
    <path d="m17.2 18.4h-5.4l-2.8-6.1.4-.3s1-.8 2.2-.9c.3 0 .5.2.5.5s-.2.5-.5.5c-.6 0-1 .3-1.3.5l2.2 4.8h4.1l2.4-5.1c.3-.8 1.1-1.2 2-1.1.9.2 1.4.9 1.4 1.7-.1 1.8-1.4 2.4-1.4 2.4-.3.1-.6 0-.7-.3s0-.6.3-.7c0 0 .7-.4.8-1.6 0-.4-.3-.6-.6-.6-.1 0-.6-.1-.8.4z"/>
    <path d="m21.6 17.4c-.3 0-.5.2-.5.5 0 .4-2.2 1.5-6.6 1.5s-6.5-1.1-6.5-1.5c0-.3.7-.7 2.2-1l-.4-.9c-1.7.3-2.8 1-2.8 1.9 0 1.7 3.9 2.5 7.6 2.5s7.6-.8 7.6-2.5c-.1-.3-.3-.5-.6-.5z"/>
    <rect height="1" width="8.2" x="10.4" y="13.3"/>
    <rect height="1" width="6.6" x="11.3" y="15.3"/>
  </g>
  <polygon fill="#999" points="18 12.4 15.5 11 13 12.4 13.5 9.5 11.5 7.4 14.2 7 15.5 4.4 16.7 7 19.5 7.4 17.5 9.5"/>
</svg>
