<svg enable-background="new 0 0 24 24" viewBox="0 0 24 24" xmlns="http://www.w3.org/2000/svg">
  <rect fill="none" height="24" width="24"/>
  <path d="m18 18.2h-5.3l-2.8-6.1.3-.2s1-.8 2.2-.9c.3 0 .5.2.5.5s-.2.5-.5.5c-.6 0-1 .3-1.3.5l2.2 4.8h4l2.3-5.1c.3-.8 1.1-1.2 1.9-1.1.9.2 1.4.9 1.4 1.7-.1 1.8-1.3 2.4-1.4 2.4-.3.1-.6 0-.7-.3s0-.6.3-.7c0 0 .7-.4.8-1.5 0-.4-.3-.6-.6-.6-.1 0-.6-.1-.8.4z" fill="#585858"/>
  <path d="m14.9 11.4c-.1 0-.3-.1-.4-.2-1-1.1-1.5-2.4-1.4-3.3s1.1-2.6 3-3.6c.2-.1.6 0 .7.2s0 .6-.2.7c-1.6.7-2.5 2.2-2.5 2.8-.1.5.3 1.5 1.2 2.6.2.2.2.5 0 .7-.2.1-.3.1-.4.1z" fill="#999"/>
  <path d="m16.5 12.5c-.1 0-.2 0-.3-.1-.2-.2-.3-.5-.1-.7.1-.1.2-.2.3-.3.5-.4.5-.6.3-.9 0-.1-.2-.2-.3-.3-.4-.5-1.1-1.1-1.1-2 0-1 1.1-2 3.7-3.4.2-.1.6 0 .7.2s0 .6-.2.7c-2.8 1.6-3.1 2.3-3.1 2.5 0 .4.5.9.8 1.3.2.2.3.3.4.4.7 1.1-.1 1.8-.4 2.2-.1.1-.1.1-.2.2-.2.1-.3.2-.5.2z" fill="#999"/>
  <g fill="#585858">
    <path d="m22.3 17.2c-.3 0-.5.2-.5.5 0 .4-2.2 1.5-6.5 1.5s-6.5-1-6.5-1.5c0-.2.7-.7 2.1-1l-.4-.9c-1.6.4-2.7 1-2.7 2 0 1.7 3.9 2.5 7.5 2.5s7.5-.8 7.5-2.5c0-.4-.2-.6-.5-.6z"/>
    <rect height="1" width="8.2" x="11.2" y="13.2"/>
    <rect height="1" width="6.6" x="12" y="15.2"/>
  </g>
</svg>
