<svg enable-background="new 0 0 24 24" viewBox="0 0 24 24" xmlns="http://www.w3.org/2000/svg">
  <metadata/>
  <path clip-rule="evenodd" d="m21 20h-12c-1.1 0-2-.9-2-2v-12c0-1.1.9-2 2-2h12c1.1 0 2 .9 2 2v12c0 1.1-.9 2-2 2z" fill="#e6e6e6" fill-rule="evenodd"/>
  <rect fill="none" height="24" width="24"/>
  <path d="m21 4h-12c-1.1 0-2 .9-2 2v12c0 1.1.9 2 2 2h12c1.1 0 2-.9 2-2v-12c0-1.1-.9-2-2-2zm1 14-1 1h-12l-1-1v-12c0-.6.4-1 1-1h12c.6 0 1 .4 1 1z" fill="#585858"/>
  <circle clip-rule="evenodd" cx="-3.849242" cy="11.559504" fill="#fff" fill-rule="evenodd" r="1"/>
  <path d="m10.985086 8.5301236c-.285244 0-.531238.2015787-.587348.480998l-1.1964513 5.9870834c-.064883.324431.1450781.638482.4689122.703366.3279037.0672.6390781-.145078.7033681-.468911l.384313-1.91432h1.69195l.381898 1.91432c.06544.328662.388374.53424.705784.468911.323873-.06488.533795-.378935.468912-.703366l-1.196451-5.9870834c-.05611-.2794193-.302101-.480998-.587347-.480998zm.362559 1.3487256h.256212l.478579 2.3953168h-1.21337zm6.429409-1.5928481c-.330857 0-.599434.2698964-.599434.6018494v.5994329h-1.795884c-.330855 0-.597015.269898-.597015.6018506 0 .331951.266159.599434.597015.599434h.161945c.340555 1.096391.840589 1.953495 1.401899 2.629772-.439717.403341-.871563.734012-1.339055 1.104601-.25779.207035-.298799.58673-.09185.845975.205993.258844.58387.299404.841141.09185.507959-.402258.944446-.738141 1.421237-1.177114.476792.438973.95437.774856 1.462328 1.177114.257273.207554.635147.166994.841141-.09185.206952-.259245.163525-.63894-.09426-.845975-.467495-.370589-.938012-.70126-1.377731-1.104601.561312-.676317 1.102396-1.53342 1.442991-2.629772h.159526c.330857 0 .599433-.267483.599433-.599434 0-.3319526-.268576-.6018506-.599433-.6018506h-1.834561v-.5994329c0-.331953-.268576-.6018494-.599433-.6018494zm-.983747 2.4025669h2.006168c-.25847.696576-.641961 1.260479-1.022421 1.74029-.380459-.479811-.725279-1.043674-.983747-1.74029z" fill="#585858"/>
</svg>
