<svg enable-background="new 0 0 32 32" height="32" viewBox="0 0 32.099998 32" width="32.099998" xmlns="http://www.w3.org/2000/svg">
  <rect clip-rule="evenodd" fill="none" height="32" width="32" x=".1"/>
  <path d="m30 28.4h-28c-1.1 0-2-.9-2-2v-18c0-1.1.9-2 2-2h28c1.1 0 2 .9 2 2v18c0 1.1-.9 2-2 2z" fill="#b6b5b6"/>
  <path d="m30 27.4h-28c-1.1 0-2-.9-2-2v-17c0-1.1.9-2 2-2h28c1.1 0 2 .9 2 2v17c0 1.1-.9 2-2 2z" fill="#fbfbfb"/>
  <path d="m11.520289 8.4637512c-.06474-.00183-.129661-.00125-.194234.00117-1.5497271.058134-3.021155 1.3250943-3.021155 2.9965858v10.877094c-.0000006 2.228655 2.616628 3.738089 4.545774 2.622156l9.398109-5.436205c1.928423-1.115516 1.928423-4.133479 0-5.248993l-9.398109-5.436211c-.422001-.24411-.877181-.3627825-1.330385-.3755968zm-.184873 1.2309276c.307885.0001456.612521.080796.882242.2363567a.89871379.89871379 0 0 0 .0012 0l9.398109 5.4362075c1.143234.659415 1.143234 2.406201 0 3.065618l-9.398109 5.436206a.89871379.89871379 0 0 0 -.0012 0c-1.140914.65943-2.6517345-.212692-2.651408-1.530468v-10.877095c.0003043-.851902.622381-1.5925143 1.461434-1.7399133.102209-.018038.205103-.026958.307732-.026912z" fill="#585858" stroke-linecap="round" stroke-linejoin="round" stroke-width=".999994"/>
</svg>
