<?xml version="1.0" encoding="utf-8"?>
<!-- Generator: Adobe Illustrator 18.1.0, SVG Export Plug-In . SVG Version: 6.00 Build 0)  -->
<!DOCTYPE svg PUBLIC "-//W3C//DTD SVG 1.1//EN" "http://www.w3.org/Graphics/SVG/1.1/DTD/svg11.dtd">
<svg version="1.1" id="Calque_1" xmlns="http://www.w3.org/2000/svg" xmlns:xlink="http://www.w3.org/1999/xlink" x="0px" y="0px"
	 viewBox="0 0 24 24" enable-background="new 0 0 24 24" xml:space="preserve">
<rect fill="none" width="24" height="24"/>
<path fill-rule="evenodd" clip-rule="evenodd" fill="#E6E6E6" d="M22,6c0-0.6-0.4-1-1-1H9C8.4,5,8,5.4,8,6v12c0,0.6,0.4,1,1,1h12
	c0.6,0,1-0.4,1-1V6z"/>
<polygon fill="#FFFFFF" points="12.5,8.1 12.5,15.9 18.6,12 "/>
<g>
	<path fill-rule="evenodd" clip-rule="evenodd" fill="#585858" d="M21,20H9c-1.1,0-2-0.9-2-2V6c0-1.1,0.9-2,2-2h12c1.1,0,2,0.9,2,2
		v12C23,19.1,22.1,20,21,20z M22,6c0-0.6-0.4-1-1-1H9C8.4,5,8,5.4,8,6v12c0,0.6,0.4,1,1,1h12c0.6,0,1-0.4,1-1V6z"/>
	<g>
		<path fill="#585858" d="M12.3,17c-0.4,0-0.8-0.3-0.8-0.9V7.9c0-0.6,0.4-0.9,0.8-0.9c0.2,0,0.4,0.1,0.5,0.2l6.5,4.1
			c0.3,0.2,0.4,0.4,0.4,0.7s-0.2,0.6-0.4,0.7l-6.5,4.1C12.7,16.9,12.5,17,12.3,17z M12.5,8.1l0,7.7l6.1-3.9L12.5,8.1z"/>
	</g>
</g>
</svg>
