<svg enable-background="new 0 0 24 24" viewBox="0 0 24 24" xmlns="http://www.w3.org/2000/svg">
  <rect fill="none" height="24" width="24"/>
  <path clip-rule="evenodd" d="m22 6c0-.6-.4-1-1-1h-12c-.6 0-1 .4-1 1v12c0 .6.4 1 1 1h12c.6 0 1-.4 1-1zm-1 14h-12c-1.1 0-2-.9-2-2v-12c0-1.1.9-2 2-2h12c1.1 0 2 .9 2 2v12c0 1.1-.9 2-2 2z" fill="#585858" fill-rule="evenodd"/>
  <path clip-rule="evenodd" d="m22 6c0-.6-.4-1-1-1h-12c-.6 0-1 .4-1 1v12c0 .6.4 1 1 1h12c.6 0 1-.4 1-1z" fill="#e6e6e6" fill-rule="evenodd"/>
  <polygon fill="#585858" points="18 16.3 15 14.7 12 16.3 12.6 12.8 10.2 10.4 13.5 9.9 15 6.7 16.5 9.9 19.8 10.4 17.4 12.8"/>
  <polygon fill="#fff" points="12.3 11.1 13.7 12.5 13.3 14.4 15 13.5 16.7 14.4 16.3 12.5 17.7 11.1 15.8 10.8 15 9.1 14.2 10.8"/>
</svg>
