<svg xmlns="http://www.w3.org/2000/svg" xmlns:xlink="http://www.w3.org/1999/xlink" id="Calque_1" x="0" y="0" enable-background="new 0 0 24 24" version="1.1" viewBox="0 0 24 24" xml:space="preserve"><rect width="24" height="24" fill="none"/><path fill="#585858" fill-rule="evenodd" d="M22,6c0-0.6-0.4-1-1-1H9C8.4,5,8,5.4,8,6v12c0,0.6,0.4,1,1,1h12	c0.6,0,1-0.4,1-1V6z M21,20H9c-1.1,0-2-0.9-2-2V6c0-1.1,0.9-2,2-2h12c1.1,0,2,0.9,2,2v12C23,19.1,22.1,20,21,20z" clip-rule="evenodd"/><path fill="#E6E6E6" fill-rule="evenodd" d="M22,6c0-0.6-0.4-1-1-1H9C8.4,5,8,5.4,8,6v12c0,0.6,0.4,1,1,1h12	c0.6,0,1-0.4,1-1V6z" clip-rule="evenodd"/><polygon fill="#585858" points="18 16.3 15 14.7 12 16.3 12.6 12.8 10.2 10.4 13.5 9.9 15 6.7 16.5 9.9 19.8 10.4 17.4 12.8"/><polygon fill="#FFF" points="12.3 11.1 13.7 12.5 13.3 14.4 15 13.5 16.7 14.4 16.3 12.5 17.7 11.1 15.8 10.8 15 9.1 14.2 10.8"/></svg>