<svg enable-background="new 0 0 24 24" viewBox="0 0 24 24" xmlns="http://www.w3.org/2000/svg">
  <rect fill="none" height="24" width="24"/>
  <path d="m21 4s-2.9.8-5.5 1.5c-.3 0-.7 0-1 0-2.5-.7-5.5-1.5-5.5-1.5-1.1 0-2 .9-2 2v10.5c0 1.1.9 1.7 2 2 0 0 2.7.8 5.5 1.5h1c2.8-.8 5.5-1.5 5.5-1.5 1-.3 2-.9 2-2v-10.5c0-1.1-.9-2-2-2zm-6.5 15c-2.7-.7-5.5-1.5-5.5-1.5-.6-.2-1-.4-1-1v-10.5c0-.6.4-1 1-1l5.5 1.5zm7.5-2.5c0 .6-.5.8-1 1 0 0-2.7.8-5.5 1.5v-12.5l5.5-1.5c.6 0 1 .4 1 1z" fill="#585858"/>
  <g clip-rule="evenodd" fill-rule="evenodd">
    <path d="m9 5c-.6 0-1 .4-1 1v10.5c0 .6.4.8 1 1 0 0 2.8.8 5.5 1.5v-12.5z" fill="#e6e6e6"/>
    <path d="m22 6c0-.6-.4-1-1-1l-5.5 1.5v12.5c2.8-.7 5.5-1.5 5.5-1.5.5-.2 1-.4 1-1z" fill="#f2f2f2"/>
  </g>
</svg>
