<svg enable-background="new 0 0 32 32" viewBox="0 0 32 32" xmlns="http://www.w3.org/2000/svg">
  <rect clip-rule="evenodd" fill="none" height="32" width="32"/>
  <path d="m29.9 28.4h-28c-1.1 0-2-.9-2-2v-18c0-1.1.9-2 2-2h28c1.1 0 2 .9 2 2v18c0 1.1-.9 2-2 2z" fill="#b6b5b6"/>
  <path d="m29.9 27.4h-28c-1.1 0-2-.9-2-2v-17c0-1.1.9-2 2-2h28c1.1 0 2 .9 2 2v17c0 1.1-.9 2-2 2z" fill="#fbfbfb"/>
  <path d="m18.9 16.9h-2.5v-2.5c0-.3-.2-.5-.5-.5s-.5.2-.5.5v2.5h-2.5c-.3 0-.5.2-.5.5s.2.5.5.5h2.5v2.5c0 .3.2.5.5.5s.5-.2.5-.5v-2.5h2.5c.3 0 .5-.2.5-.5s-.3-.5-.5-.5zm3-7.5h-12c-1.1 0-2 .9-2 2v12c0 1.1.9 2 2 2h12c1.1 0 2-.9 2-2v-12c0-1.1-.9-2-2-2zm1 14c0 .6-.4 1-1 1h-12c-.6 0-1-.4-1-1v-12c0-.6.4-1 1-1h12c.6 0 1 .4 1 1z" fill="#585858"/>
</svg>
