<?xml version="1.0" encoding="utf-8"?>
<!-- Generator: Adobe Illustrator 18.1.0, SVG Export Plug-In . SVG Version: 6.00 Build 0)  -->
<!DOCTYPE svg PUBLIC "-//W3C//DTD SVG 1.1//EN" "http://www.w3.org/Graphics/SVG/1.1/DTD/svg11.dtd">
<svg version="1.1" id="Calque_1" xmlns="http://www.w3.org/2000/svg" xmlns:xlink="http://www.w3.org/1999/xlink" x="0px" y="0px"
	 viewBox="0 0 32 32" enable-background="new 0 0 32 32" xml:space="preserve">
<rect fill-rule="evenodd" clip-rule="evenodd" fill="none" width="32" height="32"/>
<path fill="#B6B5B6" d="M29.9,28.4h-28c-1.1,0-2-0.9-2-2v-18c0-1.1,0.9-2,2-2h28c1.1,0,2,0.9,2,2v18C31.9,27.5,31,28.4,29.9,28.4z"
	/>
<path fill="#FBFBFB" d="M29.9,27.4h-28c-1.1,0-2-0.9-2-2v-17c0-1.1,0.9-2,2-2h28c1.1,0,2,0.9,2,2v17C31.9,26.5,31,27.4,29.9,27.4z"
	/>
<g id="_x31__5_">
	<g>
		<path fill="#585858" d="M18.9,16.9h-2.5v-2.5c0-0.3-0.2-0.5-0.5-0.5s-0.5,0.2-0.5,0.5v2.5h-2.5c-0.3,0-0.5,0.2-0.5,0.5
			c0,0.3,0.2,0.5,0.5,0.5h2.5v2.5c0,0.3,0.2,0.5,0.5,0.5s0.5-0.2,0.5-0.5v-2.5h2.5c0.3,0,0.5-0.2,0.5-0.5
			C19.4,17.1,19.1,16.9,18.9,16.9z M21.9,9.4h-12c-1.1,0-2,0.9-2,2v12c0,1.1,0.9,2,2,2h12c1.1,0,2-0.9,2-2v-12
			C23.9,10.3,23,9.4,21.9,9.4z M22.9,23.4c0,0.6-0.4,1-1,1h-12c-0.6,0-1-0.4-1-1v-12c0-0.6,0.4-1,1-1h12c0.6,0,1,0.4,1,1V23.4z"/>
	</g>
</g>
</svg>
