<svg enable-background="new 0 0 32 32" viewBox="0 0 32 32" xmlns="http://www.w3.org/2000/svg">
  <g clip-rule="evenodd" fill-rule="evenodd">
    <path d="m28 6c0-1.1-.9-2-2-2h-20c-1.1 0-2 .9-2 2v14c0 1.1.9 2 2 2h1.3l2.7 4 2.7-4h13.3c1.1 0 2-.9 2-2z" fill="#f2f2f2"/>
    <g fill="#585858">
      <path d="m26 26h-12l-4 6-4-6c-3.3 0-6-2.7-6-6v-14c0-3.3 2.7-6 6-6h20c3.3 0 6 2.7 6 6v14c0 3.3-2.7 6-6 6zm2-20c0-1.1-.9-2-2-2h-20c-1.1 0-2 .9-2 2v14c0 1.1.9 2 2 2h1.3l2.7 4 2.7-4h13.3c1.1 0 2-.9 2-2z"/>
      <rect height="2" width="16" x="8" y="12"/>
      <rect height="2" width="16" x="8" y="8"/>
      <rect height="2" width="8" x="8" y="16"/>
    </g>
  </g>
</svg>
