<svg xmlns="http://www.w3.org/2000/svg" xmlns:xlink="http://www.w3.org/1999/xlink" id="Calque_1" x="0" y="0" enable-background="new 0 0 32 32" version="1.1" viewBox="0 0 32 32" xml:space="preserve"><path fill="#F2F2F2" fill-rule="evenodd" d="M28,6c0-1.1-0.9-2-2-2H6C4.9,4,4,4.9,4,6v14c0,1.1,0.9,2,2,2h1.3	l2.7,4l2.7-4H26c1.1,0,2-0.9,2-2V6z" clip-rule="evenodd"/><g><path fill="#585858" fill-rule="evenodd" d="M26,26H14l-4,6l-4-6c-3.3,0-6-2.7-6-6V6c0-3.3,2.7-6,6-6h20 c3.3,0,6,2.7,6,6v14C32,23.3,29.3,26,26,26z M28,6c0-1.1-0.9-2-2-2H6C4.9,4,4,4.9,4,6v14c0,1.1,0.9,2,2,2h1.3l2.7,4l2.7-4H26 c1.1,0,2-0.9,2-2V6z" clip-rule="evenodd"/><rect width="16" height="2" x="8" y="12" fill="#585858" fill-rule="evenodd" clip-rule="evenodd"/><rect width="16" height="2" x="8" y="8" fill="#585858" fill-rule="evenodd" clip-rule="evenodd"/><rect width="8" height="2" x="8" y="16" fill="#585858" fill-rule="evenodd" clip-rule="evenodd"/></g></svg>