<svg enable-background="new 0 0 24 24" viewBox="0 0 24 24" xmlns="http://www.w3.org/2000/svg">
  <rect fill="none" height="24" width="24"/>
  <path clip-rule="evenodd" d="m22 7c0-.6-.4-1-1-1h-1.5v2h-7v-2h-1.5c-.6 0-1 .4-1 1v10c0 .6.4 1 1 1h10c.6 0 1-.4 1-1z" fill="#e6e6e6" fill-rule="evenodd"/>
  <path d="m19.5 15h-7c-.3 0-.5.2-.5.5s.2.5.5.5h7c.3 0 .5-.2.5-.5s-.2-.5-.5-.5zm1.5-10h-1.5v-1h-1.3c-.4-.6-1.2-1-2.2-1s-1.7.4-2.2 1h-1.3v1h-1.5c-1.1 0-2 .9-2 2v10c0 1.1.9 2 2 2h10c1.1 0 2-.9 2-2v-10c0-1.1-.9-2-2-2zm-7.5 0h1.1c0-.6.6-1 1.4-1s1.4.4 1.4 1h1.1v2h-5zm8.5 12c0 .6-.4 1-1 1h-10c-.6 0-1-.4-1-1v-10c0-.6.4-1 1-1h1.5v2h7v-2h1.5c.6 0 1 .4 1 1zm-2.5-4.5h-7c-.3 0-.5.2-.5.5s.2.5.5.5h7c.3 0 .5-.2.5-.5s-.2-.5-.5-.5zm0-2.5h-7c-.3 0-.5.2-.5.5s.2.5.5.5h7c.3 0 .5-.2.5-.5s-.2-.5-.5-.5z" fill="#585858"/>
  <path clip-rule="evenodd" d="m18.5 5h-1.1c0-.6-.6-1-1.4-1s-1.4.4-1.4 1h-1.1v2h5z" fill="#fff" fill-rule="evenodd"/>
</svg>
