<svg enable-background="new 0 0 32 32" viewBox="0 0 32 32" xmlns="http://www.w3.org/2000/svg">
  <rect clip-rule="evenodd" fill="none" height="32" width="32"/>
  <path d="m30 28h-28c-1.1 0-2-.9-2-2v-18c0-1.1.9-2 2-2h28c1.1 0 2 .9 2 2v18c0 1.1-.9 2-2 2z" fill="#b6b5b6"/>
  <path d="m30 27h-28c-1.1 0-2-.9-2-2v-17c0-1.1.9-2 2-2h28c1.1 0 2 .9 2 2v17c0 1.1-.9 2-2 2z" fill="#fbfbfb"/>
  <rect fill="none" height="16" width="16" x="8" y="9"/>
  <path d="m16 8.3c-4.4 0-8 3.6-8 8v8h1.9v-1.9-2.4-3.7c0-3.4 2.8-6.1 6.1-6.1 3.4 0 6.1 2.8 6.1 6.1s-2.6 6-5.9 6.1c-1 0-1.9-.2-2.3-.4v-2.6c.6.4 1.3.6 2 .6 2 0 3.7-1.6 3.7-3.7 0-2-1.6-3.7-3.7-3.7-2 0-3.7 1.6-3.7 3.7v8h3.3.3c4.4 0 8-3.6 8-8s-3.4-8-7.8-8z" fill="#585858"/>
</svg>
