<svg enable-background="new 0 0 24 24" viewBox="0 0 24 24" xmlns="http://www.w3.org/2000/svg">
  <rect fill="none" height="24" width="24"/>
  <path d="m20.1 10.1c-.8 0-1.5.4-1.9.9l-4.7-3c.1-.3.2-.6.2-.9 0-1.4-1.1-2.5-2.5-2.5s-2.6 1.1-2.6 2.5 1.1 2.5 2.5 2.5c.7 0 1.3-.3 1.8-.8l4.8 3.1c-.1.2-.1.4-.1.7 0 .2 0 .5.1.7l-4.8 3.1c-.5-.5-1.1-.8-1.8-.8-1.4 0-2.5 1.1-2.5 2.5s1.1 2.5 2.5 2.5 2.5-1.1 2.5-2.5c0-.3-.1-.6-.2-.9l4.7-3c.5.6 1.1.9 1.9.9 1.4 0 2.5-1.1 2.5-2.5s-1-2.5-2.4-2.5zm-9-1.5c-.8 0-1.5-.7-1.5-1.5s.7-1.5 1.5-1.5 1.5.7 1.5 1.5-.7 1.5-1.5 1.5zm0 11c-.8 0-1.5-.7-1.5-1.5s.7-1.5 1.5-1.5 1.5.7 1.5 1.5-.7 1.5-1.5 1.5zm9-5.5c-.8 0-1.5-.7-1.5-1.5s.7-1.5 1.5-1.5 1.5.7 1.5 1.5-.7 1.5-1.5 1.5z" fill="#585858"/>
  <g fill="#fff">
    <circle cx="11.1" cy="7.1" r="1.5"/>
    <circle cx="11.1" cy="18.1" r="1.5"/>
    <circle cx="20.1" cy="12.6" r="1.5"/>
  </g>
</svg>
