<svg xmlns="http://www.w3.org/2000/svg" xmlns:xlink="http://www.w3.org/1999/xlink" id="Calque_1" x="0" y="0" enable-background="new 0 0 24 24" version="1.1" viewBox="0 0 24 24" xml:space="preserve"><rect width="24" height="24" fill="none"/><path fill="#585858" d="M20.1,10.1c-0.8,0-1.5,0.4-1.9,0.9l-4.7-3c0.1-0.3,0.2-0.6,0.2-0.9c0-1.4-1.1-2.5-2.5-2.5S8.6,5.7,8.6,7.1	s1.1,2.5,2.5,2.5c0.7,0,1.3-0.3,1.8-0.8l4.8,3.1c-0.1,0.2-0.1,0.4-0.1,0.7c0,0.2,0,0.5,0.1,0.7l-4.8,3.1c-0.5-0.5-1.1-0.8-1.8-0.8	c-1.4,0-2.5,1.1-2.5,2.5s1.1,2.5,2.5,2.5s2.5-1.1,2.5-2.5c0-0.3-0.1-0.6-0.2-0.9l4.7-3c0.5,0.6,1.1,0.9,1.9,0.9	c1.4,0,2.5-1.1,2.5-2.5S21.5,10.1,20.1,10.1z M11.1,8.6c-0.8,0-1.5-0.7-1.5-1.5s0.7-1.5,1.5-1.5s1.5,0.7,1.5,1.5S11.9,8.6,11.1,8.6z M11.1,19.6c-0.8,0-1.5-0.7-1.5-1.5s0.7-1.5,1.5-1.5s1.5,0.7,1.5,1.5S11.9,19.6,11.1,19.6z M20.1,14.1c-0.8,0-1.5-0.7-1.5-1.5	s0.7-1.5,1.5-1.5s1.5,0.7,1.5,1.5S20.9,14.1,20.1,14.1z"/><circle cx="11.1" cy="7.1" r="1.5" fill="#FFF"/><circle cx="11.1" cy="18.1" r="1.5" fill="#FFF"/><circle cx="20.1" cy="12.6" r="1.5" fill="#FFF"/></svg>