<svg xmlns="http://www.w3.org/2000/svg" xmlns:xlink="http://www.w3.org/1999/xlink" id="Calque_1" x="0" y="0" enable-background="new 0 0 32 32" version="1.1" viewBox="0 0 32 32" xml:space="preserve"><rect width="32" height="32" fill="none" fill-rule="evenodd" clip-rule="evenodd"/><path fill="#B6B5B6" d="M30,28H2c-1.1,0-2-0.9-2-2V8c0-1.1,0.9-2,2-2h28c1.1,0,2,0.9,2,2v18C32,27.1,31.1,28,30,28z"/><path fill="#FBFBFB" d="M30,27H2c-1.1,0-2-0.9-2-2V8c0-1.1,0.9-2,2-2h28c1.1,0,2,0.9,2,2v17C32,26.1,31.1,27,30,27z"/><g id="_x32__12_"><g><path fill="#585858" d="M19.9,10h3.6c0.3,0,0.5-0.2,0.5-0.5C24,9.2,23.8,9,23.5,9h-5C18.4,9,18,9,18,9.5v5c0,0.3,0.2,0.5,0.5,0.5 s0.5-0.2,0.5-0.5v-3.8c2.4,1.1,4,3.5,4,6.3c0,3.9-3.1,7-7,7s-7-3.1-7-7c0-3.5,2.6-6.4,6-6.9v-1c-3.9,0.5-7,3.9-7,7.9 c0,4.4,3.6,8,8,8s8-3.6,8-8C24,14,22.3,11.4,19.9,10z"/></g></g></svg>