<svg enable-background="new 0 0 32 32" viewBox="0 0 32 32" xmlns="http://www.w3.org/2000/svg">
  <rect clip-rule="evenodd" fill="none" height="32" width="32"/>
  <path d="m30 28h-28c-1.1 0-2-.9-2-2v-18c0-1.1.9-2 2-2h28c1.1 0 2 .9 2 2v18c0 1.1-.9 2-2 2z" fill="#b6b5b6"/>
  <path d="m30 27h-28c-1.1 0-2-.9-2-2v-17c0-1.1.9-2 2-2h28c1.1 0 2 .9 2 2v17c0 1.1-.9 2-2 2z" fill="#fbfbfb"/>
  <path d="m19.9 10h3.6c.3 0 .5-.2.5-.5s-.2-.5-.5-.5h-5c-.1 0-.5 0-.5.5v5c0 .3.2.5.5.5s.5-.2.5-.5v-3.8c2.4 1.1 4 3.5 4 6.3 0 3.9-3.1 7-7 7s-7-3.1-7-7c0-3.5 2.6-6.4 6-6.9v-1c-3.9.5-7 3.9-7 7.9 0 4.4 3.6 8 8 8s8-3.6 8-8c0-3-1.7-5.6-4.1-7z" fill="#585858"/>
</svg>
