<svg enable-background="new 0 0 24 24" viewBox="0 0 24 24" xmlns="http://www.w3.org/2000/svg">
  <rect fill="none" height="24" width="24"/>
  <g clip-rule="evenodd" fill-rule="evenodd">
    <path d="m22 17c0 .6-.4 1-1 1h-12c-.6 0-1-.4-1-1v-5.5h5.1c0 .2-.1.3-.1.5 0 1.1.9 2 2 2s2-.9 2-2c0-.2 0-.3-.1-.5h5.1z" fill="#e6e6e6"/>
    <path d="m22 10.5h-14v-2.5c0-.6.4-1 1-1h12c.6 0 1 .4 1 1z" fill="#e6e6e6"/>
    <path d="m21 6h-3v-1c0-.6-.4-1-1-1h-4c-.6 0-1 .4-1 1v1h-3c-1.1 0-2 .9-2 2v9c0 1.1.9 2 2 2h12c1.1 0 2-.9 2-2v-9c0-1.1-.9-2-2-2zm-8-.5c0-.3.2-.5.5-.5h3c.3 0 .5.2.5.5v.5c-.3 0-3.7 0-4 0zm9 11.5c0 .6-.4 1-1 1h-12c-.6 0-1-.4-1-1v-5.5h5.1c0 .2-.1.3-.1.5 0 1.1.9 2 2 2s2-.9 2-2c0-.2 0-.3-.1-.5h5.1zm-8-5c0-.2.1-.4.1-.5h1.7c.1.1.1.3.1.5 0 .6-.4 1-1 1s-.9-.4-.9-1zm8-1.5h-14v-2.5c0-.6.4-1 1-1h12c.6 0 1 .4 1 1z" fill="#585858"/>
    <path d="m14 12c0-.2.1-.4.1-.5h1.7c.1.1.1.3.1.5 0 .6-.4 1-1 1s-.9-.4-.9-1z" fill="#fff"/>
  </g>
</svg>
