<svg xmlns="http://www.w3.org/2000/svg" xmlns:xlink="http://www.w3.org/1999/xlink" id="Calque_1" x="0" y="0" enable-background="new 0 0 24 24" version="1.1" viewBox="0 0 24 24" xml:space="preserve"><path fill="#E6E6E6" fill-rule="evenodd" d="M21,20H9c-1.1,0-2-0.9-2-2V6c0-1.1,0.9-2,2-2h12c1.1,0,2,0.9,2,2	v12C23,19.1,22.1,20,21,20z" clip-rule="evenodd"/><rect width="24" height="24" fill="none"/><g id="_x36__8_"><g><path fill="#585858" d="M21,4H9C7.9,4,7,4.9,7,6v12c0,1.1,0.9,2,2,2h12c1.1,0,2-0.9,2-2V6C23,4.9,22.1,4,21,4z M22,12.6l-3-3.1 l-5,5.1l-2-2.1l-4,3.7V6c0-0.6,0.4-1,1-1h12c0.6,0,1,0.4,1,1V12.6z M11,6C9.9,6,9,6.9,9,8c0,1.1,0.9,2,2,2s2-0.9,2-2 C13,6.9,12.1,6,11,6z M11,9c-0.6,0-1-0.4-1-1c0-0.6,0.4-1,1-1s1,0.4,1,1C12,8.6,11.6,9,11,9z"/></g></g><circle cx="11" cy="8" r="1" fill="#FFF" fill-rule="evenodd" clip-rule="evenodd"/><path fill="#999" fill-rule="evenodd" d="M21,19c0.6,0,1-0.4,1-1v-4l-3-3l-4.3,4.3l3.7,3.7H21z" clip-rule="evenodd"/><path fill="#999" fill-rule="evenodd" d="M8,18c0,0.6,0.4,1,1,1h8l-5-5l-4,3.6V18z" clip-rule="evenodd"/></svg>