<svg enable-background="new 0 0 24 24" viewBox="0 0 24 24" xmlns="http://www.w3.org/2000/svg">
  <path clip-rule="evenodd" d="m21 20h-12c-1.1 0-2-.9-2-2v-12c0-1.1.9-2 2-2h12c1.1 0 2 .9 2 2v12c0 1.1-.9 2-2 2z" fill="#e6e6e6" fill-rule="evenodd"/>
  <rect fill="none" height="24" width="24"/>
  <path d="m21 4h-12c-1.1 0-2 .9-2 2v12c0 1.1.9 2 2 2h12c1.1 0 2-.9 2-2v-12c0-1.1-.9-2-2-2zm1 8.6-3-3.1-5 5.1-2-2.1-4 3.7v-10.2c0-.6.4-1 1-1h12c.6 0 1 .4 1 1zm-11-6.6c-1.1 0-2 .9-2 2s.9 2 2 2 2-.9 2-2-.9-2-2-2zm0 3c-.6 0-1-.4-1-1s.4-1 1-1 1 .4 1 1-.4 1-1 1z" fill="#585858"/>
  <g clip-rule="evenodd" fill-rule="evenodd">
    <circle cx="11" cy="8" fill="#fff" r="1"/>
    <g fill="#999">
      <path d="m21 19c.6 0 1-.4 1-1v-4l-3-3-4.3 4.3 3.7 3.7z"/>
      <path d="m8 18c0 .6.4 1 1 1h8l-5-5-4 3.6z"/>
    </g>
  </g>
</svg>
