<svg enable-background="new 0 0 32 32" viewBox="0 0 32 32" xmlns="http://www.w3.org/2000/svg">
  <rect clip-rule="evenodd" fill="none" height="32" width="32"/>
  <path d="m30 28h-28c-1.1 0-2-.9-2-2v-18c0-1.1.9-2 2-2h28c1.1 0 2 .9 2 2v18c0 1.1-.9 2-2 2z" fill="#b6b5b6"/>
  <path d="m30 27h-28c-1.1 0-2-.9-2-2v-17c0-1.1.9-2 2-2h28c1.1 0 2 .9 2 2v17c0 1.1-.9 2-2 2z" fill="#fbfbfb"/>
  <path d="m23 18.3-1.2-.7c.1-.4.1-.7.1-1.1s0-.7-.1-1.1l1.2-.7c.5-.3.6-.9.4-1.4l-1-1.7c-.3-.5-.9-.6-1.4-.4l-1.1.8c-.5-.5-1.2-.9-1.9-1.1v-.9c0-.6-.4-1-1-1h-2c-.5 0-1 .4-1 1v.8c-.7.2-1.3.6-1.9 1.1l-1.1-.6c-.5-.3-1.1-.1-1.4.4l-1 1.7c-.3.5-.1 1.1.4 1.4l1.2.7c-.1.4-.1.7-.1 1.1s0 .7.1 1.1l-1.2.6c-.5.3-.6.9-.4 1.4l1 1.7c.3.5.9.6 1.4.4l1.2-.7c.5.5 1.2.9 1.9 1.1v.8c0 .6.4 1 1 1h2c.5 0 1-.4 1-1v-.8c.7-.2 1.3-.6 1.9-1.1l1.2.7c.5.3 1.1.1 1.4-.4l1-1.7c0-.5-.1-1.2-.6-1.4zm-.7 1.3-.5.9c-.1.2-.4.3-.7.2l-1.4-.8c-.7.8-1.6 1.4-2.7 1.6v1.1c0 .3-.2.5-.5.5h-1c-.3 0-.5-.2-.5-.5v-1.1c-1.1-.2-2-.8-2.7-1.6l-1.4.8c-.2.1-.5.1-.7-.2l-.5-.9c-.1-.2-.1-.5.2-.7l1.4-.8c-.2-.5-.3-1-.3-1.6s.1-1.1.3-1.6l-1.4-.8c-.2-.1-.3-.4-.2-.7l.5-.9c.1-.2.4-.3.7-.2l1.4.8c.7-.8 1.6-1.4 2.7-1.6v-1.1c0-.3.2-.5.5-.5h1c.3 0 .5.2.5.5v1.1c1.1.2 2 .8 2.7 1.6l1.4-.8c.2-.1.5-.1.7.2l.5.9c.1.2.1.5-.2.7l-1.4.8c.2.5.3 1 .3 1.6s-.1 1.1-.3 1.6l1.4.8c.2.1.3.4.2.7zm-6.3-5.6c-1.4 0-2.5 1.1-2.5 2.5s1.1 2.5 2.5 2.5 2.5-1.1 2.5-2.5-1.1-2.5-2.5-2.5zm0 4c-.8 0-1.5-.7-1.5-1.5s.7-1.5 1.5-1.5 1.5.7 1.5 1.5-.7 1.5-1.5 1.5z" fill="#585858"/>
</svg>
