<svg enable-background="new 0 0 24 24" viewBox="0 0 24 24" xmlns="http://www.w3.org/2000/svg">
  <rect fill="none" height="24" width="24"/>
  <g fill-rule="evenodd">
    <path clip-rule="evenodd" d="m22 6c0-.6-.4-1-1-1h-12c-.6 0-1 .4-1 1v12c0 .6.4 1 1 1h12c.6 0 1-.4 1-1z" fill="#e6e6e6"/>
    <path clip-rule="evenodd" d="m21 20h-12c-1.1 0-2-.9-2-2v-12c0-1.1.9-2 2-2h12c1.1 0 2 .9 2 2v12c0 1.1-.9 2-2 2zm1-14c0-.6-.4-1-1-1h-12c-.6 0-1 .4-1 1v12c0 .6.4 1 1 1h12c.6 0 1-.4 1-1z" fill="#585858"/>
    <g stroke="#585858" stroke-linejoin="round">
      <path d="m10 17v-8h8v8z" fill="#f2f2f2"/>
      <path d="m10 9 2-2h8l-2 2z" fill="#fff"/>
      <path d="m18 9v8l2-2v-8z" fill="#ccc"/>
    </g>
  </g>
</svg>
