<svg xmlns="http://www.w3.org/2000/svg" xmlns:svg="http://www.w3.org/2000/svg" id="Calque_1" x="0" y="0" enable-background="new 0 0 24 24" version="1.1" viewBox="0 0 24 24" xml:space="preserve"><rect id="rect2" width="24" height="24" fill="none"/><path id="path4" fill="#E6E6E6" fill-rule="evenodd" d="M22,6c0-0.6-0.4-1-1-1H9C8.4,5,8,5.4,8,6v12c0,0.6,0.4,1,1,1h12 c0.6,0,1-0.4,1-1V6z" clip-rule="evenodd"/><g id="g14"><path id="path8" fill="#585858" fill-rule="evenodd" d="M21,20H9c-1.1,0-2-0.9-2-2V6c0-1.1,0.9-2,2-2h12c1.1,0,2,0.9,2,2 v12C23,19.1,22.1,20,21,20z M22,6c0-0.6-0.4-1-1-1H9C8.4,5,8,5.4,8,6v12c0,0.6,0.4,1,1,1h12c0.6,0,1-0.4,1-1V6z" clip-rule="evenodd"/></g><path style="fill:#f2f2f2;fill-rule:evenodd;stroke:#585858;stroke-width:1px;stroke-linecap:butt;stroke-linejoin:round;stroke-opacity:1;fill-opacity:1" id="path1663" d="M 10,17 V 9 h 8 v 8 z"/><path style="fill:#fff;fill-rule:evenodd;stroke:#585858;stroke-width:1px;stroke-linecap:butt;stroke-linejoin:round;stroke-opacity:1;fill-opacity:1" id="path1665" d="m 10,9 2,-2 h 8 l -2,2 z"/><path style="fill:#ccc;fill-rule:evenodd;stroke:#585858;stroke-width:1px;stroke-linecap:butt;stroke-linejoin:round;stroke-opacity:1;fill-opacity:1" id="path1667" d="m 18,9 v 8 l 2,-2 V 7 Z"/></svg>