<?xml version="1.0" encoding="UTF-8" standalone="no"?>
<!-- Generator: Adobe Illustrator 18.1.0, SVG Export Plug-In . SVG Version: 6.00 Build 0)  -->

<svg
   version="1.1"
   id="Calque_1"
   x="0px"
   y="0px"
   viewBox="0 0 24 24"
   enable-background="new 0 0 24 24"
   xml:space="preserve"
   xmlns="http://www.w3.org/2000/svg"
   xmlns:svg="http://www.w3.org/2000/svg"><defs
   id="defs19" />
<rect
   fill="none"
   width="24"
   height="24"
   id="rect2" />
<path
   fill-rule="evenodd"
   clip-rule="evenodd"
   fill="#E6E6E6"
   d="M22,6c0-0.6-0.4-1-1-1H9C8.4,5,8,5.4,8,6v12c0,0.6,0.4,1,1,1h12  c0.6,0,1-0.4,1-1V6z"
   id="path4" />

<g
   id="g14">
	<path
   fill-rule="evenodd"
   clip-rule="evenodd"
   fill="#585858"
   d="M21,20H9c-1.1,0-2-0.9-2-2V6c0-1.1,0.9-2,2-2h12c1.1,0,2,0.9,2,2   v12C23,19.1,22.1,20,21,20z M22,6c0-0.6-0.4-1-1-1H9C8.4,5,8,5.4,8,6v12c0,0.6,0.4,1,1,1h12c0.6,0,1-0.4,1-1V6z"
   id="path8" />
	
</g>
<path
   style="fill:#f2f2f2;fill-rule:evenodd;stroke:#585858;stroke-width:1px;stroke-linecap:butt;stroke-linejoin:round;stroke-opacity:1;fill-opacity:1"
   d="M 10,17 V 9 h 8 v 8 z"
   id="path1663" /><path
   style="fill:#ffffff;fill-rule:evenodd;stroke:#585858;stroke-width:1px;stroke-linecap:butt;stroke-linejoin:round;stroke-opacity:1;fill-opacity:1"
   d="m 10,9 2,-2 h 8 l -2,2 z"
   id="path1665" /><path
   style="fill:#cccccc;fill-rule:evenodd;stroke:#585858;stroke-width:1px;stroke-linecap:butt;stroke-linejoin:round;stroke-opacity:1;fill-opacity:1"
   d="m 18,9 v 8 l 2,-2 V 7 Z"
   id="path1667" /></svg>
