<svg enable-background="new 0 0 32 32" viewBox="0 0 32 32" xmlns="http://www.w3.org/2000/svg">
  <path d="m26 0h-20c-3.3 0-6 2.7-6 6v20c0 3.3 2.7 6 6 6h20c3.3 0 6-2.7 6-6v-20c0-3.3-2.7-6-6-6zm2 26c0 1.1-.9 2-2 2h-20c-1.1 0-2-.9-2-2v-20c0-1.1.9-2 2-2h20c1.1 0 2 .9 2 2z" fill="#e3a333"/>
  <path d="m26 0h-20c-3.3 0-6 2.7-6 6v20c0 3.3 2.7 6 6 6h20c3.3 0 6-2.7 6-6v-20c0-3.3-2.7-6-6-6z" fill="#585858"/>
  <path d="m28 26c0 1.1-.9 2-2 2h-20c-1.1 0-2-.9-2-2v-20c0-1.1.9-2 2-2h20c1.1 0 2 .9 2 2z" fill="#f2f2f2"/>
  <path d="m6 20c0-5.8 2.4-7.9 5.8-7.9 2 0 3.4.7 5.3 1.9 1.6 1 2.5 1.5 3.3 1.5.7 0 1.2-.7 1.3-3.1h4.3c.2 6.1-2.3 8-5.5 8-2 0-3.5-.8-5.3-1.9-1.7-1-2.6-1.6-3.3-1.6-.8 0-1.4.5-1.6 3.2h-4.3z" fill="#585858"/>
</svg>
