<svg enable-background="new 0 0 32 32" viewBox="0 0 32 32" xmlns="http://www.w3.org/2000/svg">
  <rect clip-rule="evenodd" fill="none" height="32" width="32"/>
  <path d="m30 28h-28c-1.1 0-2-.9-2-2v-18c0-1.1.9-2 2-2h28c1.1 0 2 .9 2 2v18c0 1.1-.9 2-2 2z" fill="#b6b5b6"/>
  <path d="m30 27h-28c-1.1 0-2-.9-2-2v-17c0-1.1.9-2 2-2h28c1.1 0 2 .9 2 2v17c0 1.1-.9 2-2 2z" fill="#fbfbfb"/>
  <path d="m15.90395 8.3243241-8.037878.04174-.04175 8.0378789 8.752925 8.079624 7.406322-7.406322zm-3.366509 2.6932089c1.114988 0 2.019906.904918 2.019906 2.019906s-.904918 2.019906-2.019906 2.019906-2.019906-.904918-2.019906-2.019906.904918-2.019906 2.019906-2.019906" fill="none" stroke="#585858"/>
</svg>
