<?xml version="1.0" encoding="UTF-8" standalone="no"?>
<!-- Generator: Adobe Illustrator 18.1.0, SVG Export Plug-In . SVG Version: 6.00 Build 0)  -->

<svg
   version="1.1"
   id="Calque_1"
   x="0px"
   y="0px"
   viewBox="0 0 32 32"
   enable-background="new 0 0 32 32"
   xml:space="preserve"
   xmlns="http://www.w3.org/2000/svg"
   xmlns:svg="http://www.w3.org/2000/svg"><defs
   id="defs13" />
<rect
   fill-rule="evenodd"
   clip-rule="evenodd"
   fill="none"
   width="32"
   height="32"
   id="rect2" />
<path
   fill="#B6B5B6"
   d="M30,28H2c-1.1,0-2-0.9-2-2V8c0-1.1,0.9-2,2-2h28c1.1,0,2,0.9,2,2v18C32,27.1,31.1,28,30,28z"
   id="path4" />
<path
   fill="#FBFBFB"
   d="M30,27H2c-1.1,0-2-0.9-2-2V8c0-1.1,0.9-2,2-2h28c1.1,0,2,0.9,2,2v17C32,26.1,31.1,27,30,27z"
   id="path6" />

<path
   style="fill:none;fill-opacity:1;stroke:#585858;stroke-width:1;stroke-dasharray:none;stroke-opacity:1"
   d="m 15.90395,8.3243241 -8.037878,0.04174 -0.04175,8.0378789 8.752925,8.079624 7.406322,-7.406322 z m -3.366509,2.6932089 c 1.114988,0 2.019906,0.904918 2.019906,2.019906 0,1.114988 -0.904918,2.019906 -2.019906,2.019906 -1.114988,0 -2.019906,-0.904918 -2.019906,-2.019906 0,-1.114988 0.904918,-2.019906 2.019906,-2.019906"
   class="ColorScheme-Text"
   id="path4838" /></svg>
