<svg enable-background="new 0 0 32 32" viewBox="0 0 32 32" xmlns="http://www.w3.org/2000/svg">
  <rect clip-rule="evenodd" fill="none" height="32" width="32"/>
  <path d="m30 28.4h-28c-1.1 0-2-.9-2-2v-18c0-1.1.9-2 2-2h28c1.1 0 2 .9 2 2v18c0 1.1-.9 2-2 2z" fill="#b6b5b6"/>
  <path d="m30 27.4h-28c-1.1 0-2-.9-2-2v-17c0-1.1.9-2 2-2h28c1.1 0 2 .9 2 2v17c0 1.1-.9 2-2 2z" fill="#fbfbfb"/>
  <path d="m22 11.4h-7c0-1.1-.9-2-2-2h-3c-1.1 0-2 .9-2 2v12c0 1.1.9 2 2 2h12c1.1 0 2-.9 2-2v-10c0-1.1-.9-2-2-2zm1 12c0 .6-.4 1-1 1h-12c-.6 0-1-.4-1-1v-8h14zm0-9h-14v-3c0-.6.4-1 1-1h3c.6 0 1 .4 1 1v1h8c.6 0 1 .4 1 1z" fill="#585858"/>
</svg>
