<svg enable-background="new 0 0 24 24" viewBox="0 0 24 24" xmlns="http://www.w3.org/2000/svg">
  <metadata/>
  <path clip-rule="evenodd" d="m21 20h-12c-1.1 0-2-.9-2-2v-12c0-1.1.9-2 2-2h12c1.1 0 2 .9 2 2v12c0 1.1-.9 2-2 2z" fill="#e6e6e6" fill-rule="evenodd"/>
  <rect fill="none" height="24" width="24"/>
  <path d="m21 4h-12c-1.1 0-2 .9-2 2v12c0 1.1.9 2 2 2h12c1.1 0 2-.9 2-2v-12c0-1.1-.9-2-2-2zm1 14-1 1h-12l-1-1v-12c0-.6.4-1 1-1h12c.6 0 1 .4 1 1z" fill="#585858"/>
  <circle clip-rule="evenodd" cx="-3.849242" cy="11.559504" fill="#fff" fill-rule="evenodd" r="1"/>
  <g fill="none" stroke="#585858" stroke-width="1.557464" transform="matrix(.55621145 .32075232 -.32075232 .55621145 11.232654 -2.03142)">
    <ellipse cx="16" cy="16" rx="8.94737" ry="8.947369" stroke-linejoin="round"/>
    <ellipse cx="16" cy="15.947369" rx="3.491525" ry="8.947369" stroke-linejoin="round"/>
    <path d="m8.1848294 12.430327c4.3853536 2.360474 12.4774426 1.118199 15.1701706-.667697"/>
    <path d="m8.2166335 20.492522c4.3853535-2.360474 12.9321015-2.715783 15.6248295-.929887"/>
  </g>
</svg>
