<svg xmlns="http://www.w3.org/2000/svg" xmlns:svg="http://www.w3.org/2000/svg" id="Calque_1" x="0" y="0" enable-background="new 0 0 24 24" version="1.1" viewBox="0 0 24 24" xml:space="preserve"><metadata id="metadata22"/><path id="path2" fill="#E6E6E6" fill-rule="evenodd" d="M21,20H9c-1.1,0-2-0.9-2-2V6c0-1.1,0.9-2,2-2h12c1.1,0,2,0.9,2,2 v12C23,19.1,22.1,20,21,20z" clip-rule="evenodd"/><rect id="rect4" width="24" height="24" fill="none"/><g id="_x36__8_"><g id="g8"><path style="fill:#585858" id="path6" d="M 21,4 H 9 C 7.9,4 7,4.9 7,6 v 12 c 0,1.1 0.9,2 2,2 h 12 c 1.1,0 2,-0.9 2,-2 V 6 C 23,4.9 22.1,4 21,4 Z m 1,14 -1,1 H 9 L 8,18 V 6 C 8,5.4 8.4,5 9,5 h 12 c 0.6,0 1,0.4 1,1 z"/></g></g><circle style="clip-rule:evenodd;fill:#fff;fill-rule:evenodd" id="circle11" cx="-3.849" cy="11.56" r="1"/><g style="stroke:#585858;stroke-width:1.55746377;stroke-opacity:1" id="g881" transform="matrix(0.55621145,0.32075232,-0.32075232,0.55621145,11.232654,-2.0314203)"><ellipse id="path845" cx="16" cy="16" rx="8.947" ry="8.947" style="color:#000;display:inline;overflow:visible;visibility:visible;opacity:1;fill:none;fill-opacity:1;fill-rule:nonzero;stroke:#585858;stroke-width:1.55746377;stroke-linecap:butt;stroke-linejoin:round;stroke-miterlimit:4;stroke-dasharray:none;stroke-dashoffset:0;stroke-opacity:1;marker:none;enable-background:accumulate"/><ellipse id="path845-3" cx="16" cy="15.947" rx="3.492" ry="8.947" style="color:#000;display:inline;overflow:visible;visibility:visible;opacity:1;fill:none;fill-opacity:1;fill-rule:nonzero;stroke:#585858;stroke-width:1.55746377;stroke-linecap:butt;stroke-linejoin:round;stroke-miterlimit:4;stroke-dasharray:none;stroke-dashoffset:0;stroke-opacity:1;marker:none;enable-background:accumulate"/><path style="fill:none;fill-opacity:1;fill-rule:evenodd;stroke:#585858;stroke-width:1.55746377;stroke-linecap:butt;stroke-linejoin:miter;stroke-opacity:1" id="path870" d="M 8.1848294,12.430327 C 12.570183,14.790801 20.662272,13.548526 23.355,11.76263"/><path id="path872" d="M 8.2166335,20.492522 C 12.601987,18.132048 21.148735,17.776739 23.841463,19.562635" style="fill:none;fill-opacity:1;fill-rule:evenodd;stroke:#585858;stroke-width:1.55746377;stroke-linecap:butt;stroke-linejoin:miter;stroke-opacity:1"/></g></svg>