<?xml version="1.0" encoding="UTF-8" standalone="no"?>
<svg
   xmlns:dc="http://purl.org/dc/elements/1.1/"
   xmlns:cc="http://creativecommons.org/ns#"
   xmlns:rdf="http://www.w3.org/1999/02/22-rdf-syntax-ns#"
   xmlns:svg="http://www.w3.org/2000/svg"
   xmlns="http://www.w3.org/2000/svg"
   xml:space="preserve"
   enable-background="new 0 0 32 32"
   viewBox="0 0 32 32"
   y="0px"
   x="0px"
   id="Calque_1"
   version="1.1"><metadata
     id="metadata23"><rdf:RDF><cc:Work
         rdf:about=""><dc:format>image/svg+xml</dc:format><dc:type
           rdf:resource="http://purl.org/dc/dcmitype/StillImage" /><dc:title></dc:title></cc:Work></rdf:RDF></metadata><defs
     id="defs21" /><circle
     id="circle2"
     r="12"
     cy="16"
     cx="16"
     fill="#F2F2F2" /><g
     id="g16"><path
       id="path10"
       d="M16,4c-4,0-7.6,2-9.7,5C4.8,11,4,13.4,4,16c0,6.6,5.4,12,12,12c6.6,0,12-5.4,12-12c0-2.6-0.8-5-2.3-7   C23.6,6,20,4,16,4z"
       fill="none" /><path
       id="path12"
       d="M16,4c4,0,7.6,2,9.7,5h4.6c-2.6-5.3-8-9-14.4-9S4.2,3.7,1.6,9h4.6C8.4,6,12,4,16,4z"
       fill="#39B54A" /><path
       id="path14"
       d="M32,16L32,16c0-2.6-0.6-4.9-1.6-7h-4.6c1.4,2,2.3,4.4,2.3,7c0,6.6-5.4,12-12,12C9.4,28,4,22.6,4,16   c0-2.6,0.8-5,2.3-7H1.6c-1,2.1-1.6,4.5-1.6,7c0,8.8,7.2,16,16,16h0C24.8,32,32,24.9,32,16z"
       fill="#8C6239" /></g><g
     transform="translate(41.863574,-2.0092638)"
     id="g861"><g
       aria-label="?"
       style="font-style:normal;font-variant:normal;font-weight:normal;font-stretch:normal;font-size:27.34714317px;line-height:85.45981598px;font-family:'Nimbus Sans L';-inkscape-font-specification:'Nimbus Sans L';letter-spacing:0px;word-spacing:0px;fill:#666666;fill-opacity:1;stroke:none;stroke-width:3.4183929px;stroke-linecap:butt;stroke-linejoin:miter;stroke-opacity:1"
       id="text832"><path
         d="m -20.968435,13.920532 c 0,0.6381 -0.07293,1.239737 -0.218777,1.804911 -0.145852,0.565174 -0.401092,1.066538 -0.76572,1.504093 -0.401092,0.492249 -0.774836,0.902456 -1.121233,1.230621 -0.346397,0.328166 -0.656332,0.6381 -0.929803,0.929803 -0.25524,0.273471 -0.464902,0.556059 -0.628985,0.847762 -0.145851,0.291703 -0.218777,0.656331 -0.218777,1.093885 v 0.38286 h -3.144921 V 20.72997 c 0,-0.601637 0.136736,-1.221505 0.410207,-1.859605 0.273471,-0.656332 0.756604,-1.285316 1.449399,-1.886953 0.346397,-0.309935 0.638099,-0.583406 0.875108,-0.820415 0.237009,-0.25524 0.428439,-0.492248 0.57429,-0.711025 0.145851,-0.237009 0.246124,-0.483133 0.300819,-0.738373 0.05469,-0.273471 0.08204,-0.57429 0.08204,-0.902456 0,-0.528711 -0.12762,-0.984497 -0.38286,-1.367357 -0.237009,-0.401091 -0.656331,-0.601637 -1.257968,-0.601637 -1.057423,0 -1.640829,0.692794 -1.750218,2.078383 h -3.06288 c 0.01823,-0.747489 0.145853,-1.431167 0.38286,-2.051036 0.237009,-0.6381 0.565175,-1.185043 0.984498,-1.640829 0.419323,-0.474017 0.920687,-0.8386455 1.504092,-1.0938855 0.601637,-0.25524 1.2762,-0.38286 2.023689,-0.38286 0.838646,0 1.567903,0.1367357 2.187771,0.4102072 0.619869,0.25524 1.130349,0.6198684 1.53144,1.0938853 0.401092,0.455786 0.692795,1.002729 0.875109,1.640829 0.200546,0.619869 0.300819,1.294432 0.30082,2.023689 z"
         style="font-style:normal;font-variant:normal;font-weight:normal;font-stretch:normal;font-family:Monofonto;-inkscape-font-specification:Monofonto;fill:#666666;fill-opacity:1;stroke-width:3.4183929px"
         id="path855" /></g><circle
       style="fill:#666666"
       cx="-26.38899"
       cy="25.466606"
       r="1.8"
       id="circle6-6" /></g></svg>