<?xml version="1.0" encoding="utf-8"?>
<!-- Generator: Adobe Illustrator 18.1.0, SVG Export Plug-In . SVG Version: 6.00 Build 0)  -->
<!DOCTYPE svg PUBLIC "-//W3C//DTD SVG 1.1//EN" "http://www.w3.org/Graphics/SVG/1.1/DTD/svg11.dtd">
<svg version="1.1" id="Calque_1" xmlns="http://www.w3.org/2000/svg" xmlns:xlink="http://www.w3.org/1999/xlink" x="0px" y="0px"
	 viewBox="0 0 32 32" enable-background="new 0 0 32 32" xml:space="preserve">
<g>
	<polygon fill="none" points="30,0 30,0 30,0 	"/>
	<polygon fill="none" points="2,0 2,0 2,0 	"/>
	<path fill="#39B54A" d="M30,0L30,0c-0.1,0-0.1,0-0.2,0C16,0.4,16,4,16,4s0-3.6-13.8-4C2.1,0,2.1,0,2,0h0C0.9,0,0,0.9,0,2v7h32V2
		C32,0.9,31.1,0,30,0z"/>
	<path fill="#8C6239" d="M0,26c0,1.1,0.9,2,2,2c3.1,0.1,8.9,0.7,12.1,2.3c0.2,1,0.9,1.7,1.9,1.7c1,0,1.8-0.7,1.9-1.7
		c3.2-1.6,9-2.2,12.1-2.3c1.1,0,2-0.9,2-2V9H0V26z"/>
</g>
<path fill-rule="evenodd" clip-rule="evenodd" fill="#F2F2F2" d="M14,6.3C11.4,5,7.2,4.4,4,4.2v19.9c5.4,0.3,8.4,1.1,10,1.9V6.3z"/>
<path fill-rule="evenodd" clip-rule="evenodd" fill="#F2F2F2" d="M28,4.2C24.8,4.4,20.6,5,18,6.3V26c1.6-0.8,4.6-1.6,10-1.9V4.2z"/>
</svg>
