<svg xmlns="http://www.w3.org/2000/svg" xmlns:xlink="http://www.w3.org/1999/xlink" id="Calque_1" x="0" y="0" enable-background="new 0 0 32 32" version="1.1" viewBox="0 0 32 32" xml:space="preserve"><path fill="#999" fill-rule="evenodd" d="M25.8,17.5c1.4-1.4,2.2-3.4,2.2-5.5V8c0-4.4-3.6-8-8-8	c-0.6,0-1.2,0.1-1.8,0.2c1.3,1.1,2.4,2.4,3,4C22.8,4.7,24,6.2,24,8v4c0,1.8-1.2,3.3-2.8,3.8c-0.2,0.4-0.4,0.8-0.6,1.2	c1.5,1.2,2.8,2.6,3.7,4.2c1.8,1.1,3.1,2.7,3.6,4.7c0,1.1-0.9,2-2,2h-0.3c-0.4,1.6-1.3,3-2.5,4H26c3.3,0,6-2.7,6-6	C31.4,22.3,28.9,19.2,25.8,17.5z" clip-rule="evenodd"/><path fill-rule="evenodd" d="M18,32H6c-3.3,0-6-2.7-6-6l0,0c0.6-3.7,3.1-6.8,6.2-8.5C4.9,16.1,4,14.1,4,12V8	c0-4.4,3.6-8,8-8s8,3.6,8,8v4c0,2.1-0.9,4.1-2.2,5.5c3.1,1.7,5.6,4.8,6.2,8.5l0,0C24,29.3,21.3,32,18,32z" clip-rule="evenodd"/><path fill="#F2F2F2" fill-rule="evenodd" d="M16,12V8c0-2.2-1.8-4-4-4S8,5.8,8,8v4c0,2.2,1.8,4,4,4	S16,14.2,16,12z" clip-rule="evenodd"/><path fill="#F2F2F2" fill-rule="evenodd" d="M20,26c-0.9-3.4-4.3-6-8-6l0,0l0,0c-3.7,0-7.1,2.6-8,6l0,0	c0,1.1,0.9,2,2,2h12C19.1,28,20,27.1,20,26L20,26z" clip-rule="evenodd"/></svg>