<svg enable-background="new 0 0 32 32" viewBox="0 0 32 32" xmlns="http://www.w3.org/2000/svg">
  <rect fill="none" height="32" width="32"/>
  <g clip-rule="evenodd" fill-rule="evenodd">
    <path d="m22.7 5.3c-.3-1.2-.9-2.3-1.8-3.2-2.7-2.8-7.2-2.8-9.9 0-.9.9-1.5 2-1.8 3.2 4.3-2 9.3-2 13.5 0z" fill="#666"/>
    <path d="m30 17.9h-4.1c0-.7.1-1.3.1-2s0-1.4-.1-2h.1 2c1.1 0 2-.9 2-2s-.9-2-2-2h-2c-.3 0-.6.1-.8.1-1.2-3.1-3.9-4.1-9.2-4.1s-7.9 1-9.2 4.1c-.2-.1-.5-.2-.8-.2h-2c-1.1 0-2 .9-2 2s.9 2 2 2h2 .1c0 .6-.1 1.3-.1 2s0 1.3.1 2h-4.1c-1.1 0-2 .9-2 2s.9 2 2 2h4.5c.3 1.4.7 2.8 1.2 4h-1.7c-1.1 0-2 .9-2 2s.9 2 2 2h2c.7 0 1.4-.1 2.1-.3 1.5 1.4 3.4 2.3 5.9 2.3s4.4-.9 5.9-2.3c.7.2 1.4.3 2.1.3h2c1.1 0 2-.9 2-2s-.9-2-2-2h-1.7c.5-1.2.9-2.6 1.2-4h4.5c1.1 0 2-.9 2-2 0-1-.9-1.9-2-1.9z"/>
  </g>
</svg>
