<svg xmlns="http://www.w3.org/2000/svg" xmlns:xlink="http://www.w3.org/1999/xlink" id="Calque_1" x="0" y="0" enable-background="new 0 0 32 32" version="1.1" viewBox="0 0 32 32" xml:space="preserve"><circle cx="16" cy="16" r="12" fill="#F2F2F2" fill-rule="evenodd" clip-rule="evenodd"/><path fill-rule="evenodd" d="M16,32C7.2,32,0,24.8,0,16C0,7.2,7.2,0,16,0c8.8,0,16,7.2,16,16	C32,24.8,24.8,32,16,32z M16,4C9.4,4,4,9.4,4,16c0,6.6,5.4,12,12,12s12-5.4,12-12C28,9.4,22.6,4,16,4z" clip-rule="evenodd"/><path fill="#666" fill-rule="evenodd" d="M16,6l2.9,6l6.6,1l-4.8,4.6l1.1,6.5L16,21l-5.9,3.1l1.1-6.5	l-4.8-4.6l6.6-1L16,6z" clip-rule="evenodd"/></svg>