<svg enable-background="new 0 0 32 32" viewBox="0 0 32 32" xmlns="http://www.w3.org/2000/svg">
  <g transform="translate(.731298)">
    <rect fill="none" height="20.8389" width="17.548431" x="6.494486" y="7.161101"/>
    <path d="m18.455476 4.1064849v-2.0345189c0-.8979555.387777-.8011866-2.488293-.8011866h-1.397072c-2.876069 0-2.488293-.1289149-2.488293.8011866v2.0345189" stroke="#000" stroke-width="2"/>
    <path d="m22.885931 26.821028c-.0782 1.097217-.9 1.178972-2 1.178972h-9.262811c-1.1 0-2.0000002-.07897-2.0000002-1.178972l-1.4012217-19.6599271h-3.997762l1.3989837 19.6599271c.2342329 3.291677 2.7 5.178972 6.0000002 5.178972h9.262811c3.3 0 5.765767-1.887295 6-5.178972l1.398984-19.6599271h-3.997763z" transform="translate(-.985823)"/>
    <rect height="4" rx="2.17569" ry="2" width="29.264914" x=".636245" y="3.261"/>
    <g stroke-width="1.05986" transform="matrix(1 0 0 .89022438 -.948105 .832795)">
      <rect height="10.38496" rx="1.075283" transform="matrix(.99908133 -.0633012 .09318226 1.47069335 -.169684 -9.695905)" width="2.150566" x="10.206384" y="14.677745"/>
      <rect height="10.38496" rx="1.075283" transform="matrix(-.99908133 -.0633012 -.09318226 1.47069335 32.603298 -9.695905)" width="2.150566" x="10.206384" y="14.677745"/>
    </g>
  </g>
</svg>
