<?xml version="1.0" encoding="UTF-8" standalone="no"?>
<svg
   version="1.1"
   id="Calque_1"
   x="0px"
   y="0px"
   viewBox="0 0 32 32"
   enable-background="new 0 0 32 32"
   xml:space="preserve"
   xmlns="http://www.w3.org/2000/svg"
   xmlns:svg="http://www.w3.org/2000/svg"><defs
   id="defs14" />
<g
   id="g7954"><g
     id="g22579"><rect
       x="0"
       fill="none"
       width="32"
       height="32"
       id="rect22558"
       y="0" /><g
       id="g22566">
	<path
   fill="none"
   d="M 26,8 H 16 V 6 C 16,4.9 15.1,4 14,4 H 6 C 4.9,4 4,4.9 4,6 v 3 17 c 0,1.1 0.9,2 2,2 h 20 c 1.1,0 2,-0.9 2,-2 V 10 C 28,9.6 27.9,9.3 27.7,9 27.4,8.4 26.7,8 26,8 Z"
   id="path22560" />
	<path
   id="path22562"
   d="M 6 0 C 2.7000033 0 0 2.7000033 0 6 L 0 9 L 0 26 C 0 29.299997 2.7000033 32 6 32 L 26 32 C 29.299997 32 32 29.299997 32 26 L 32 10 C 32 9.7000003 32.000391 9.2999997 31.900391 9 C 31.400391 6.2000028 28.999997 4 26 4 L 19.599609 4 C 18.79961 1.7000023 16.599997 0 14 0 L 6 0 z M 6 4 L 14 4 C 15.099999 4 16 4.9000011 16 6 L 16 8 L 26 8 C 26.699999 8 27.399219 8.4000006 27.699219 9 C 27.899219 9.2999997 28 9.6000004 28 10 L 28 26 C 28 27.099999 27.099999 28 26 28 L 6 28 C 4.9000011 28 4 27.099999 4 26 L 4 9 L 4 6 C 4 4.9000011 4.9000011 4 6 4 z " />
	
</g></g><path
     fill-rule="evenodd"
     clip-rule="evenodd"
     d="m 19.283635,21.196352 c -0.312728,0.234545 -0.625454,0.312728 -0.938181,0.312728 -0.234546,0 -0.469091,-0.07819 -0.703637,-0.156365 -0.547272,-0.234544 -0.859999,-0.781818 -0.859999,-1.407271 v -1.485455 -0.07817 c -4.925453,0 -9.1472686,3.283635 -10.4763592,7.818178 C 5.9927316,25.18363 5.836368,24.167266 5.836368,23.07272 c 0,-6.019996 4.925452,-10.945449 10.94545,-10.945449 v -1.563635 c 0,-0.625454 0.312727,-1.172727 0.859999,-1.407272 C 17.876363,9.078184 18.110908,9 18.345454,9 c 0.312727,0 0.625453,0.07817 0.938181,0.312727 l 6.254542,4.690906 c 0.390909,0.312728 0.625455,0.781818 0.625455,1.250909 0,0.469092 -0.234546,0.938182 -0.625455,1.250908 z"
     id="path22733"
     style="stroke-width:1;fill:#666666;fill-opacity:1" /></g></svg>
