<svg enable-background="new 0 0 32 32" viewBox="0 0 32 32" xmlns="http://www.w3.org/2000/svg">
  <rect fill="none" height="32" width="32"/>
  <g clip-rule="evenodd" fill-rule="evenodd">
    <path d="m26 32h-20c-3.3 0-6-2.7-6-6v-20c0-3.3 2.7-6 6-6h20c3.3 0 6 2.7 6 6v20c0 3.3-2.7 6-6 6zm2-26c0-1.1-.9-2-2-2h-20c-1.1 0-2 .9-2 2v20c0 1.1.9 2 2 2h20c1.1 0 2-.9 2-2z"/>
    <rect fill="#666" height="2" width="8" x="16" y="10"/>
    <path d="m8 18h6v6h-6zm2 4h2v-2h-2z"/>
    <path d="m8 8h6v6h-6zm2 4h2v-2h-2z"/>
    <rect fill="#666" height="2" width="8" x="16" y="20"/>
  </g>
</svg>
