<svg enable-background="new 0 0 32 32" viewBox="0 0 32 32" xmlns="http://www.w3.org/2000/svg">
  <path d="m26 32h-20c-3.3 0-6-2.7-6-6v-20c0-3.3 2.7-6 6-6h20c3.3 0 6 2.7 6 6v20c0 3.3-2.7 6-6 6z"/>
  <path d="m26 32h-20c-3.3 0-6-2.7-6-6v-20c0-3.3 2.7-6 6-6h20c3.3 0 6 2.7 6 6v20c0 3.3-2.7 6-6 6z" fill="none"/>
  <path d="m16.7 15.6 1-.8c.1-.1 1.9-1.6.4-3.4-1.3-1.6-1.8-3.1-1.4-4.5 1.1-3.4 7.2-4.9 7.4-5l1-.2-.9.5c-3.5 2.1-5.2 3.6-5.4 4.8-.2.9.4 1.7 1.1 2.7l.2.3c.5.7.6 1.4.5 2.1-.4 1.7-2.6 2.9-2.7 2.9z" fill="#999"/>
  <g fill="#fff">
    <path d="m15.9 24.2c-2.9 0-5.3-.8-5.5-1.8-.1-.4.2-.9 1.7-1.4l1.3-.4-1.2.7c-.1.1-.3.2-.3.3 0 0 .1.3 1.2.4 1.2.1 2.1.2 2.8.2 1.2 0 2.3-.1 4.1-.5h.1s.8.5 1.9.9l.4.1-.3.1c-2.4 1.2-4.7 1.4-6.2 1.4z"/>
    <path d="m15.3 20.4c-3.3 0-5.7-.6-5.8-1.5-.1-.5.6-1 1.9-1.5l.8-.3-.7.5c-.1.1-.4.4-.4.6 0 .1.2.3 1.1.4 1.3.1 2.3.2 3.2.2 1.7 0 3.4-.2 5.7-.6h.1l.1.1s.5.5 1.3.8l.5.2-.5.1c-2.3.6-4.9 1-7.3 1z"/>
    <path d="m15.3 27.4c-3.1 0-6.3-.3-9.4-.8-1.2-.2-1.8-.5-1.8-1 .1-1 3.1-2 4.7-2 .4 0 .7.1.9.2l.6.4-.7-.1s-.4-.1-1.1.1c-1.6.5-2 .8-2 .9 0 0 0 .1.2.2 1.4.6 4.6 1 8.7 1 4.3 0 8.4-.4 10.3-1 .9-.3 1.1-.6 1.1-.7 0-.2-.2-.4-.2-.4l-.9-.8 1.1.5c.7.3.8.7.7.9-.1 1.2-5.1 2.6-12.2 2.6z"/>
    <path d="m13.6 16.7c-3 0-6.7-.3-6.9-1.2-.1-.4.5-.7.7-.8 2.5-1.1 4.6-1.2 5.2-1.2h.1 1l-1 .3c-1.8.4-3.4 1.1-3.4 1.4 0 0 0 .2 1.2.4.8.1 1.9.1 3.1.1 1.6 0 3.4-.1 5-.2 2.5-.2 5.1-.7 5.1-.7l1.3-.2-1.1.4s-.9.4-1.5.8c-2.3.6-5.5.9-8.8.9z"/>
    <path d="m23.5 20.3v-.2c0-.1 0-.3.2-.3 3.8-2 3.8-3.7 3.7-4.3-.2-.9-1.1-1.4-1.9-1.4-.1 0-.2 0-.3 0-.5.1-.7.2-.7.2l-.5.2.3-.5s.2-.3.6-.5.9-.2 1.3-.2c1.5 0 2.7.9 2.9 2.2.2 1.5-1.1 3.5-5.4 4.7z"/>
    <path d="m16.9 29c-1.2 0-2.4 0-3.5-.1-3.8-.2-4.8-.8-4.8-1v-.2h.2c1.8.3 4.2.5 6.8.5 3 0 5.9-.3 8.4-.7 4.4-.9 4.9-1.9 4.9-1.9l.3-.8-.1.9c-.1 1.2-1.5 2.1-4.1 2.6-2.1.4-4.9.7-8.1.7z"/>
  </g>
  <path d="m16.8 4.2c1.8-1.4 3-2.8 3.7-4.2h-1.7c-.8 1-1.9 1.8-2.9 2.7-1.2 1-2.5 2-3.3 3.2-1.6 2.6 1 5.2 4 8l.5.5-.3-.6c-.3-.7-.7-1.3-1.2-1.9-1.4-2.3-2.9-4.5 1.2-7.7z" fill="#999"/>
</svg>
