<?xml version="1.0" encoding="UTF-8" standalone="no"?>
<svg
   version="1.1"
   id="Calque_1"
   x="0px"
   y="0px"
   viewBox="0 0 32 32"
   enable-background="new 0 0 32 32"
   xml:space="preserve"
   xmlns="http://www.w3.org/2000/svg"
   xmlns:svg="http://www.w3.org/2000/svg"><defs
   id="defs45" />

<path
   id="path11889"
   style="color:#000000;fill:#000000;fill-opacity:1;stroke-width:0.999996;stroke-linecap:round;stroke-linejoin:round;paint-order:markers stroke fill"
   d="M 9.3515625,1.5410156 C 9.2434916,1.5379599 9.1351286,1.5389257 9.0273438,1.5429688 6.4405077,1.6400024 3.9843749,3.7548341 3.984375,6.5449219 V 24.701172 c -8e-7,3.720117 4.367721,6.23969 7.587891,4.376953 l 15.6875,-9.074219 c 3.218964,-1.862042 3.218965,-6.899679 0,-8.761718 L 11.572266,2.1679688 C 10.867854,1.7604954 10.108059,1.5624055 9.3515625,1.5410156 Z m -0.5625,3.5761719 a 1.4501239,1.4501239 0 0 1 0.9765625,0.171875 l 15.689453,9.0742185 a 1.4543042,1.4543042 0 0 1 0,2.519531 L 9.765625,25.957031 A 1.4501236,1.4501236 0 0 1 7.5898438,24.701172 V 6.5449219 A 1.4501239,1.4501239 0 0 1 8.7890625,5.1171875 Z" /></svg>
