<svg enable-background="new 0 0 32 32" viewBox="0 0 32 32" xmlns="http://www.w3.org/2000/svg">
  <g clip-rule="evenodd" fill-rule="evenodd">
    <path d="m30 28c-3.1.1-8.9.7-12.1 2.3-.1 1-.9 1.7-1.9 1.7s-1.8-.7-1.9-1.7c-3.2-1.6-9-2.2-12.1-2.3-1.1 0-2-.9-2-2v-24c0-1.1.9-2 2-2h.2c13.8.4 13.8 4 13.8 4s0-3.6 13.8-4h.2c1.1 0 2 .9 2 2v24c0 1.1-.9 2-2 2z"/>
    <g fill="#f2f2f2">
      <path d="m14 6.3c-2.6-1.3-6.8-1.9-10-2.1v19.9c5.4.3 8.4 1.1 10 1.9z"/>
      <path d="m28 4.2c-3.2.2-7.4.8-10 2.1v19.7c1.6-.8 4.6-1.6 10-1.9z"/>
    </g>
  </g>
</svg>
