<svg enable-background="new 0 0 32 32" viewBox="0 0 32 32" xmlns="http://www.w3.org/2000/svg"><path d="m0 0h32v32h-32z" fill="none"/><path d="m26 0h-20z" fill="none"/><path d="m6 0c-3.2999967 0-6 2.7000033-6 6v3 17c0 3.299997 2.7000033 6 6 6h20c3.299997 0 6-2.700003 6-6v-17-3c0-3.2999967-2.700003-6-6-6z"/><path clip-rule="evenodd" d="m28 6c0-1.1-.9-2-2-2h-20c-1.1 0-2 .9-2 2v20c0 1.1.9 2 2 2h20c1.1 0 2-.9 2-2z" fill="#f2f2f2" fill-rule="evenodd"/><path clip-rule="evenodd" d="m6 17h20v6h-20z" fill="#666" fill-rule="evenodd"/><g stroke-linecap="square" stroke-width=".897262"><circle cx="22.75787" cy="20.021824" fill="#f2f2f2" r="1.5"/><path d="m10.302432 8.9999997h11.395136l4.302431 7.0000003h-19.9999982z" fill="#666"/></g></svg>