<?xml version="1.0" encoding="UTF-8" standalone="no"?>
<svg
   version="1.1"
   id="Calque_1"
   x="0px"
   y="0px"
   viewBox="0 0 32 32"
   enable-background="new 0 0 32 32"
   xml:space="preserve"
   xmlns="http://www.w3.org/2000/svg"
   xmlns:svg="http://www.w3.org/2000/svg"><defs
   id="defs45" />

<g
   id="g7954"><path
     fill="none"
     d="M 8.9659036,28 H 22.965904 c 1.1,0 2,-0.9 2,-2 V 15 14 H 6.9659036 v 1 11 c 0,1.1 0.9,2 2,2 z"
     id="path8" /><rect
     style="fill:#000000;fill-opacity:0;stroke:none;stroke-width:0.000000879999;stroke-linecap:round;stroke-linejoin:round"
     id="rect2311"
     width="29.020048"
     height="4"
     x="1.4899759"
     y="7.1611009" /><path
     id="path2-6"
     d="M 28,6 C 28,4.9 27.1,4 26,4 H 6 C 4.9,4 4,4.9 4,6 v 20 c 0,1.1 0.9,2 2,2 h 20 c 1.1,0 2,-0.9 2,-2 z"
     fill="#F2F2F2"
     clip-rule="evenodd"
     fill-rule="evenodd" /><g
     id="g12"><path
       id="path6"
       d="m 6,28 h 20 c 1.1,0 2,-0.9 2,-2 V 9 6 C 28,4.9 27.1,4 26,4 H 6 C 4.9,4 4,4.9 4,6 v 3 17 c 0,1.1 0.9,2 2,2 z"
       fill="none" /><path
       id="path8-7"
       d="M 6 0 C 2.7000033 0 0 2.7000033 0 6 L 0 9 L 0 26 C 0 29.299997 2.7000033 32 6 32 L 26 32 C 29.299997 32 32 29.299997 32 26 L 32 9 L 32 6 C 32 2.7000033 29.299997 0 26 0 L 6 0 z M 6 4 L 26 4 C 27.099999 4 28 4.9000011 28 6 L 28 9 L 28 26 C 28 27.099999 27.099999 28 26 28 L 6 28 C 4.9000011 28 4 27.099999 4 26 L 4 9 L 4 6 C 4 4.9000011 4.9000011 4 6 4 z " /></g><path
     style="fill:#666666;fill-opacity:1;stroke:none;stroke-width:1"
     d="m 16,7.1611009 -8.793231,0.045668 -0.045668,8.7932321 9.575474,8.838898 8.102324,-8.102324 z m -3.682875,2.9463001 c 1.219769,0 2.209725,0.989956 2.209725,2.209725 0,1.219769 -0.989956,2.209725 -2.209725,2.209725 -1.219766,0 -2.209724,-0.989956 -2.209724,-2.209725 0,-1.219769 0.989958,-2.209725 2.209724,-2.209725"
     id="path6042" /></g></svg>
