<?xml version="1.0" encoding="UTF-8" standalone="no"?>
<svg
   version="1.1"
   id="Calque_1"
   x="0px"
   y="0px"
   viewBox="0 0 32 32"
   enable-background="new 0 0 32 32"
   xml:space="preserve"
   sodipodi:docname="unlock.svg"
   inkscape:version="1.4.4 (dcaf3e7d9e, 2026-05-05)"
   xmlns:inkscape="http://www.inkscape.org/namespaces/inkscape"
   xmlns:sodipodi="http://sodipodi.sourceforge.net/DTD/sodipodi-0.dtd"
   xmlns="http://www.w3.org/2000/svg"
   xmlns:svg="http://www.w3.org/2000/svg"><sodipodi:namedview
   id="namedview1"
   pagecolor="#ffffff"
   bordercolor="#000000"
   borderopacity="0.25"
   inkscape:showpageshadow="2"
   inkscape:pageopacity="0.0"
   inkscape:pagecheckerboard="0"
   inkscape:deskcolor="#d1d1d1"
   inkscape:zoom="8"
   inkscape:cx="24.75"
   inkscape:cy="11.375"
   inkscape:window-width="1920"
   inkscape:window-height="1022"
   inkscape:window-x="0"
   inkscape:window-y="0"
   inkscape:window-maximized="1"
   inkscape:current-layer="g7954"
   showgrid="false"
   showguides="false" /><defs
   id="defs45" />

<g
   id="g7954"><path
     fill="none"
     d="M 8.9659036,28 H 22.965904 c 1.1,0 2,-0.9 2,-2 V 15 14 H 6.9659036 v 1 11 c 0,1.1 0.9,2 2,2 z"
     id="path8" /><rect
     style="fill:#000000;fill-opacity:0;stroke:none;stroke-width:0.000000879999;stroke-linecap:round;stroke-linejoin:round"
     id="rect2311"
     width="29.020048"
     height="4"
     x="1.4899759"
     y="7.1611009" /><path
     id="path2-6"
     d="M 28,6 C 28,4.9 27.1,4 26,4 H 6 C 4.9,4 4,4.9 4,6 v 20 c 0,1.1 0.9,2 2,2 h 20 c 1.1,0 2,-0.9 2,-2 z"
     fill="#f2f2f2"
     clip-rule="evenodd"
     fill-rule="evenodd" /><g
     id="g12"
     transform="translate(0,0.08838835)"><path
       id="path6"
       d="m 6,28 h 20 c 1.1,0 2,-0.9 2,-2 V 9 6 C 28,4.9 27.1,4 26,4 H 6 C 4.9,4 4,4.9 4,6 v 3 17 c 0,1.1 0.9,2 2,2 z"
       fill="none" /><path
       id="path8-7"
       d="M 26,0 H 6 C 2.7,0 0,2.7 0,6 V 9 H 4 V 6 C 4,4.9 4.9,4 6,4 h 20 c 1.1,0 2,0.9 2,2 v 3 h 4 V 6 C 32,2.7 29.3,0 26,0 Z"
       fill="#000000" /><path
       id="path10-5"
       d="m 28,26 c 0,1.1 -0.9,2 -2,2 H 6 C 4.9,28 4,27.1 4,26 V 9 H 0 v 17 c 0,3.3 2.7,6 6,6 h 20 c 3.3,0 6,-2.7 6,-6 V 9 h -4 z"
       fill="#000000" /></g><g
     id="g2657"
     transform="matrix(0.67021456,0.2411549,-0.4099683,0.39423907,15.766821,13.031887)"
     style="stroke-width:6.63823;stroke-dasharray:none"><rect
       style="fill:#666666;fill-opacity:1;stroke:#666666;stroke-width:6.63823;stroke-linecap:round;stroke-linejoin:round;stroke-dasharray:none;stroke-opacity:1"
       id="rect1"
       width="15"
       height="15"
       x="-7.2032061"
       y="9.1712894"
       transform="rotate(-31.454004)" /></g><path
     id="path1"
     style="baseline-shift:baseline;display:inline;overflow:visible;opacity:1;vector-effect:none;fill:#666666;stroke-linecap:round;stroke-linejoin:round;enable-background:accumulate;stop-color:#000000;stop-opacity:1"
     d="M 16 6.1132812 C 12.296253 6.1132812 9.2281446 9.0461671 9.0117188 12.699219 L 13.027344 12.699219 C 13.223177 11.2204 14.459788 10.113281 16 10.113281 C 17.680544 10.113281 19 11.432738 19 13.113281 C 19 13.146761 18.999134 13.179701 18.998047 13.212891 L 19 13.212891 L 19 23.212891 L 23 23.212891 L 23 13.212891 C 23.000475 13.179611 23 13.146671 23 13.113281 C 23 9.2709786 19.842304 6.1132822 16 6.1132812 z " /><rect
     style="opacity:1;fill:none;fill-opacity:1;stroke:none;stroke-width:2;stroke-linecap:round;stroke-linejoin:round;stroke-dasharray:none;stroke-opacity:1"
     id="rect2"
     width="4.353126"
     height="3.6018252"
     x="18.208"
     y="9.2144852" /></g></svg>
