<svg enable-background="new 0 0 32 32" viewBox="0 0 32 32" xmlns="http://www.w3.org/2000/svg">
  <g clip-rule="evenodd" fill-rule="evenodd">
    <path d="m25.8 17.5c1.4-1.4 2.2-3.4 2.2-5.5v-4c0-4.4-3.6-8-8-8-.6 0-1.2.1-1.8.2 1.3 1.1 2.4 2.4 3 4 1.6.5 2.8 2 2.8 3.8v4c0 1.8-1.2 3.3-2.8 3.8-.2.4-.4.8-.6 1.2 1.5 1.2 2.8 2.6 3.7 4.2 1.8 1.1 3.1 2.7 3.6 4.7 0 1.1-.9 2-2 2h-.3c-.4 1.6-1.3 3-2.5 4h2.9c3.3 0 6-2.7 6-6-.6-3.6-3.1-6.7-6.2-8.4z" fill="#999"/>
    <path d="m18 32h-12c-3.3 0-6-2.7-6-6 .6-3.7 3.1-6.8 6.2-8.5-1.3-1.4-2.2-3.4-2.2-5.5v-4c0-4.4 3.6-8 8-8s8 3.6 8 8v4c0 2.1-.9 4.1-2.2 5.5 3.1 1.7 5.6 4.8 6.2 8.5 0 3.3-2.7 6-6 6z" fill="#36c"/>
    <g fill="#daeeff">
      <path d="m16 12v-4c0-2.2-1.8-4-4-4s-4 1.8-4 4v4c0 2.2 1.8 4 4 4s4-1.8 4-4z"/>
      <path d="m20 26c-.9-3.4-4.3-6-8-6s-7.1 2.6-8 6c0 1.1.9 2 2 2h12c1.1 0 2-.9 2-2z"/>
    </g>
  </g>
</svg>
