<svg xmlns="http://www.w3.org/2000/svg" xmlns:xlink="http://www.w3.org/1999/xlink" id="Calque_1" x="0" y="0" enable-background="new 0 0 32 32" version="1.1" viewBox="0 0 32 32" xml:space="preserve"><path fill="#DAEEFF" d="M28,10c0-1.1-0.9-2-2-2H16V6c0-1.1-0.9-2-2-2H6C4.9,4,4,4.9,4,6v20c0,1.1,0.9,2,2,2h20c1.1,0,2-0.9,2-2V10z"/><rect width="32" height="32" fill="none"/><path fill="#36C" d="M26,32H6c-3.3,0-6-2.7-6-6V6c0-3.3,2.7-6,6-6h8c2.6,0,4.8,1.7,5.6,4H26c3.3,0,6,2.7,6,6v16	C32,29.3,29.3,32,26,32z M28,10c0-1.1-0.9-2-2-2H16V6c0-1.1-0.9-2-2-2H6C4.9,4,4,4.9,4,6v20c0,1.1,0.9,2,2,2h20c1.1,0,2-0.9,2-2V10z"/><path fill="#C1272D" d="M16,10.2l2.2,4.5l5,0.7L19.6,19l0.8,4.9L16,21.6l-4.4,2.3l0.8-4.9l-3.6-3.5l5-0.7L16,10.2z"/></svg>