<svg enable-background="new 0 0 32 32" viewBox="0 0 32 32" xmlns="http://www.w3.org/2000/svg">
  <path d="m4 26c0 1.1.9 2 2 2h14c1.1 0 2-.9 2-2v-12h-18z" fill="#daeeff"/>
  <path d="m28 25.6v-15.6c0-3.3-2.7-6-6-6h-15.6c.8-2.3 3-4 5.6-4h14c3.3 0 6 2.7 6 6v14c0 2.6-1.7 4.8-4 5.6z" fill="#69c"/>
  <path d="m26 12v14c0 3.3-2.7 6-6 6h-14c-3.3 0-6-2.7-6-6v-14c0-3.3 2.7-6 6-6h14c3.3 0 6 2.7 6 6zm-22 14c0 1.1.9 2 2 2h14c1.1 0 2-.9 2-2v-12h-18zm2-18c-1.1 0-2 .9-2 2s.9 2 2 2 2-.9 2-2-.9-2-2-2z" fill="#36c"/>
  <rect fill="none" height="32" width="32"/>
</svg>
