<?xml version="1.0" encoding="utf-8"?>
<!-- Generator: Adobe Illustrator 18.1.0, SVG Export Plug-In . SVG Version: 6.00 Build 0)  -->
<!DOCTYPE svg PUBLIC "-//W3C//DTD SVG 1.1//EN" "http://www.w3.org/Graphics/SVG/1.1/DTD/svg11.dtd">
<svg version="1.1" id="Calque_1" xmlns="http://www.w3.org/2000/svg" xmlns:xlink="http://www.w3.org/1999/xlink" x="0px" y="0px"
	 viewBox="0 0 32 32" enable-background="new 0 0 32 32" xml:space="preserve">
<path fill="#DAEEFF" d="M4,26c0,1.1,0.9,2,2,2h14c1.1,0,2-0.9,2-2V14H4V26z"/>
<path fill="#6699CC" d="M28,25.6V10c0-3.3-2.7-6-6-6H6.4c0.8-2.3,3-4,5.6-4h14c3.3,0,6,2.7,6,6v14C32,22.6,30.3,24.8,28,25.6z"/>
<path fill="#3366CC" d="M26,12v14c0,3.3-2.7,6-6,6H6c-3.3,0-6-2.7-6-6V12c0-3.3,2.7-6,6-6h14C23.3,6,26,8.7,26,12z M4,26
	c0,1.1,0.9,2,2,2h14c1.1,0,2-0.9,2-2V14H4V26z M6,8c-1.1,0-2,0.9-2,2s0.9,2,2,2s2-0.9,2-2S7.1,8,6,8z"/>
<rect fill="none" width="32" height="32"/>
<g>
</g>
<g>
</g>
<g>
</g>
<g>
</g>
<g>
</g>
<g>
</g>
<g>
</g>
<g>
</g>
<g>
</g>
<g>
</g>
<g>
</g>
<g>
</g>
<g>
</g>
<g>
</g>
<g>
</g>
</svg>
