<svg xmlns="http://www.w3.org/2000/svg" xmlns:xlink="http://www.w3.org/1999/xlink" id="Calque_1" x="0" y="0" enable-background="new 0 0 32 32" version="1.1" viewBox="0 0 32 32" xml:space="preserve"><path fill="#36C" fill-rule="evenodd" d="M26,32H6c-3.3,0-6-2.7-6-6V6c0-3.3,2.7-6,6-6h20c3.3,0,6,2.7,6,6	v20C32,29.3,29.3,32,26,32z" clip-rule="evenodd"/><path fill="#DAEEFF" fill-rule="evenodd" d="M28,6c0-1.1-0.9-2-2-2H6C4.9,4,4,4.9,4,6v20c0,1.1,0.9,2,2,2h20	c1.1,0,2-0.9,2-2V6z" clip-rule="evenodd"/><rect width="8" height="2" x="16" y="10" fill="#666" fill-rule="evenodd" clip-rule="evenodd"/><rect width="6" height="6" x="8" y="18" fill-rule="evenodd" clip-rule="evenodd"/><rect width="2" height="2" x="10" y="20" fill="#DAEEFF" fill-rule="evenodd" clip-rule="evenodd"/><rect width="6" height="6" x="8" y="8" fill-rule="evenodd" clip-rule="evenodd"/><rect width="2" height="2" x="10" y="10" fill="#DAEEFF" fill-rule="evenodd" clip-rule="evenodd"/><rect width="8" height="2" x="16" y="20" fill="#666" fill-rule="evenodd" clip-rule="evenodd"/></svg>