<svg enable-background="new 0 0 32 32" viewBox="0 0 32 32" xmlns="http://www.w3.org/2000/svg">
  <path clip-rule="evenodd" d="m26 32h-20c-3.3 0-6-2.7-6-6v-20c0-3.3 2.7-6 6-6h20c3.3 0 6 2.7 6 6v20c0 3.3-2.7 6-6 6z" fill="#f2f2f2" fill-rule="evenodd"/>
  <g fill="#69c" stroke="#69c" stroke-miterlimit="10" stroke-width=".3">
    <path d="m12.2 21.2s-1.3.7.9 1c2.7.3 4 .3 7-.3 0 0 .8.5 1.9.9-6.7 2.9-15-.1-9.8-1.6"/>
    <path d="m11.4 17.5s-1.4 1.1.8 1.3c2.9.3 5.1.3 9-.4 0 0 .5.5 1.4.8-8.1 2.4-16.9.2-11.2-1.7"/>
    <path d="m26.9 23.9s1 .8-1 1.4c-3.8 1.2-15.8 1.5-19.2 0-1.2-.5 1.1-1.2 1.8-1.4s1.2-.1 1.2-.1c-1.3-.9-8.6 1.8-3.7 2.6 13.3 2.3 24.4-.9 20.9-2.5"/>
    <path d="m12.8 13.7s-6.1 1.5-2.2 2c1.7.2 5 .2 8.1-.1 2.5-.2 5.1-.7 5.1-.7s-.9.4-1.5.8c-6.3 1.7-18.3.9-14.8-.7 2.9-1.4 5.3-1.3 5.3-1.3"/>
    <path d="m23.8 19.9c6.3-3.3 3.4-6.4 1.4-6-.5.1-.7.2-.7.2s.2-.3.5-.4c4-1.4 7.1 4.2-1.3 6.4 0-.1 0-.2.1-.2"/>
    <path d="m13.4 28.7c6.1.4 15.4-.2 15.6-3.1 0 0-.4 1.1-5 2-5.2 1-11.6.9-15.3.2 0 .1.7.7 4.7.9"/>
  </g>
  <path d="m16.5.6 2.2 4.5 5 .7-3.6 3.5.8 4.9-4.4-2.3-4.4 2.3.8-4.9-3.5-3.5 5-.7z" fill="#f15a24"/>
</svg>
