<?xml version="1.0" encoding="utf-8"?>
<!-- Generator: Adobe Illustrator 18.1.0, SVG Export Plug-In . SVG Version: 6.00 Build 0)  -->
<!DOCTYPE svg PUBLIC "-//W3C//DTD SVG 1.1//EN" "http://www.w3.org/Graphics/SVG/1.1/DTD/svg11.dtd">
<svg version="1.1" id="Calque_1" xmlns="http://www.w3.org/2000/svg" xmlns:xlink="http://www.w3.org/1999/xlink" x="0px" y="0px"
	 viewBox="0 0 32 32" enable-background="new 0 0 32 32" xml:space="preserve">
<path fill-rule="evenodd" clip-rule="evenodd" fill="#F2F2F2" d="M26,32H6c-3.3,0-6-2.7-6-6V6c0-3.3,2.7-6,6-6h20c3.3,0,6,2.7,6,6
	v20C32,29.3,29.3,32,26,32z"/>
<path fill="#6699CC" stroke="#6699CC" stroke-width="0.3" stroke-miterlimit="10" d="M12.2,21.2c0,0-1.3,0.7,0.9,1
	c2.7,0.3,4,0.3,7-0.3c0,0,0.8,0.5,1.9,0.9C15.3,25.7,7,22.7,12.2,21.2"/>
<path fill="#6699CC" stroke="#6699CC" stroke-width="0.3" stroke-miterlimit="10" d="M11.4,17.5c0,0-1.4,1.1,0.8,1.3
	c2.9,0.3,5.1,0.3,9-0.4c0,0,0.5,0.5,1.4,0.8C14.5,21.6,5.7,19.4,11.4,17.5"/>
<path fill="#6699CC" stroke="#6699CC" stroke-width="0.3" stroke-miterlimit="10" d="M26.9,23.9c0,0,1,0.8-1,1.4
	c-3.8,1.2-15.8,1.5-19.2,0c-1.2-0.5,1.1-1.2,1.8-1.4c0.7-0.2,1.2-0.1,1.2-0.1c-1.3-0.9-8.6,1.8-3.7,2.6
	C19.3,28.7,30.4,25.5,26.9,23.9"/>
<path fill="#6699CC" stroke="#6699CC" stroke-width="0.3" stroke-miterlimit="10" d="M12.8,13.7c0,0-6.1,1.5-2.2,2
	c1.7,0.2,5,0.2,8.1-0.1c2.5-0.2,5.1-0.7,5.1-0.7s-0.9,0.4-1.5,0.8C16,17.4,4,16.6,7.5,15C10.4,13.6,12.8,13.7,12.8,13.7"/>
<path fill="#6699CC" stroke="#6699CC" stroke-width="0.3" stroke-miterlimit="10" d="M23.8,19.9c6.3-3.3,3.4-6.4,1.4-6
	c-0.5,0.1-0.7,0.2-0.7,0.2s0.2-0.3,0.5-0.4c4-1.4,7.1,4.2-1.3,6.4C23.7,20,23.7,19.9,23.8,19.9"/>
<path fill="#6699CC" stroke="#6699CC" stroke-width="0.3" stroke-miterlimit="10" d="M13.4,28.7c6.1,0.4,15.4-0.2,15.6-3.1
	c0,0-0.4,1.1-5,2c-5.2,1-11.6,0.9-15.3,0.2C8.7,27.9,9.4,28.5,13.4,28.7"/>
<path fill="#F15A24" d="M16.5,0.6l2.2,4.5l5,0.7l-3.6,3.5l0.8,4.9l-4.4-2.3l-4.4,2.3l0.8-4.9L9.4,5.8l5-0.7L16.5,0.6z"/>
</svg>
