<?xml version="1.0" encoding="UTF-8" standalone="no"?>
<svg
   version="1.1"
   id="Calque_1"
   x="0px"
   y="0px"
   viewBox="0 0 32 32"
   enable-background="new 0 0 32 32"
   xml:space="preserve"
   xmlns="http://www.w3.org/2000/svg"
   xmlns:svg="http://www.w3.org/2000/svg"><defs
   id="defs45" />

<path
   style="color:#000000;fill:#3366cc;fill-opacity:1;stroke-width:8;stroke-linecap:round;stroke-linejoin:round;paint-order:markers stroke fill;stroke:#3366cc;stroke-opacity:1"
   d="M 25.454197,16.881861 9.7664963,25.956555 A 1.4501236,1.4501236 0 0 1 7.5902672,24.701314 V 6.544692 A 1.4501239,1.4501239 0 0 1 9.7664965,5.2894509 L 25.454196,14.364142 a 1.4543042,1.4543042 0 0 1 1e-6,2.517719 z"
   id="path11891" /><path
   style="color:#000000;fill:#daeeff;fill-opacity:1;stroke-width:8;stroke-linecap:round;stroke-linejoin:round;paint-order:markers stroke fill"
   d="M 25.454197,16.881861 9.7664962,25.956555 A 1.4501236,1.4501236 0 0 1 7.5902671,24.701314 V 6.544692 A 1.4501239,1.4501239 0 0 1 9.7664964,5.289451 l 15.6876996,9.074691 a 1.4543042,1.4543042 0 0 1 1e-6,2.517719 z"
   id="path11897" /></svg>
