<svg enable-background="new 0 0 32 32" viewBox="0 0 32 32" xmlns="http://www.w3.org/2000/svg">
  <g clip-rule="evenodd" fill-rule="evenodd">
    <path d="m26 32h-20c-3.3 0-6-2.7-6-6v-20c0-3.3 2.7-6 6-6h20c3.3 0 6 2.7 6 6v20c0 3.3-2.7 6-6 6z" fill="#36c"/>
    <path d="m28 6c0-1.1-.9-2-2-2h-20c-1.1 0-2 .9-2 2v20c0 1.1.9 2 2 2h20c1.1 0 2-.9 2-2z" fill="#daeeff"/>
    <g fill="#666">
      <rect height="2" width="16" x="8" y="16"/>
      <rect height="2" width="16" x="8" y="12"/>
      <rect height="2" width="16" x="8" y="8"/>
      <rect height="2" width="8" x="8" y="20"/>
    </g>
  </g>
</svg>
