<svg xmlns="http://www.w3.org/2000/svg" xmlns:xlink="http://www.w3.org/1999/xlink" id="Calque_1" x="0" y="0" enable-background="new 0 0 32 32" version="1.1" viewBox="0 0 32 32" xml:space="preserve"><rect width="32" height="32" fill="none"/><path fill="#F15A24" d="M16,0C7.2,0,0,7.2,0,16v16h15.3c0.2,0,0.4,0,0.7,0c8.8,0,16-7.2,16-16S24.8,0,16,0L16,0z"/><path fill="#FFF" d="M16,3.7C9.2,3.7,3.7,9.2,3.7,16v7.3v5V32h4.9V16c0-4.1,3.3-7.3,7.3-7.3s7.3,3.3,7.3,7.3	c0,4.1-3.3,7.3-7.3,7.3c-1.5,0-2.9-0.4-4-1.2v5.3c0.8,0.5,2.5,0.8,4.6,0.8C23.1,28,28.3,22.6,28.3,16C28.3,9.2,22.8,3.7,16,3.7	L16,3.7z"/></svg>