<svg xmlns="http://www.w3.org/2000/svg" xmlns:xlink="http://www.w3.org/1999/xlink" id="Calque_1" x="0" y="0" enable-background="new 0 0 32 32" version="1.1" viewBox="0 0 32 32" xml:space="preserve"><path fill="#36C" fill-rule="evenodd" d="M21.9,4H11.6c-0.8-2.3-3-4-5.6-4C2.7,0,0,2.7,0,6s2.7,6,6,6	c2.6,0,4.8-1.7,5.6-4h10.3c1.1,0,2,0.9,2,2v1.4h4V10C27.9,6.7,25.2,4,21.9,4z M6,8C4.9,8,4,7.1,4,6s0.9-2,2-2c1.1,0,2,0.9,2,2	S7.1,8,6,8z" clip-rule="evenodd"/><path fill="#36C" fill-rule="evenodd" d="M23.9,20.6V22c0,1.1-0.9,2-2,2H11.6c-0.8-2.3-3-4-5.6-4	c-3.3,0-6,2.7-6,6s2.7,6,6,6c2.6,0,4.8-1.7,5.6-4h10.3c3.3,0,6-2.7,6-6v-1.4H23.9z M6,28c-1.1,0-2-0.9-2-2s0.9-2,2-2	c1.1,0,2,0.9,2,2S7.1,28,6,28z" clip-rule="evenodd"/><g><path fill="#C1272D" fill-rule="evenodd" d="M32,22H20V10h12V22z M28,14h-4v4h4V14z" clip-rule="evenodd"/></g></svg>