<svg xmlns="http://www.w3.org/2000/svg" xmlns:xlink="http://www.w3.org/1999/xlink" id="Calque_1" x="0" y="0" enable-background="new 0 0 32 32" version="1.1" viewBox="0 0 32 32" xml:space="preserve"><path fill="#DAEEFF" fill-rule="evenodd" d="M28,10c0-1.1-0.9-2-2-2H6c-1.1,0-2,0.9-2,2v16c0,1.1,0.9,2,2,2h20	c1.1,0,2-0.9,2-2V10z" clip-rule="evenodd"/><path fill="#36C" fill-rule="evenodd" d="M26,4h-4V2c0-1.1-0.9-2-2-2h-8c-1.1,0-2,0.9-2,2v2H6	c-3.3,0-6,2.7-6,6v16c0,3.3,2.7,6,6,6h20c3.3,0,6-2.7,6-6V10C32,6.7,29.3,4,26,4z M12,3c0-0.6,0.4-1,1-1h6c0.6,0,1,0.4,1,1v1h-8V3z M6,8h20c1.1,0,2,0.9,2,2v4H4v-4C4,8.9,4.9,8,6,8z M18,17c0,1.1-0.9,2-2,2s-2-0.9-2-2c0-0.4,0.1-0.7,0.3-1h3.4	C17.9,16.3,18,16.6,18,17z M26,28H6c-1.1,0-2-0.9-2-2V16h8.1c-0.1,0.3-0.1,0.7-0.1,1c0,2.2,1.8,4,4,4s4-1.8,4-4c0-0.3-0.1-0.7-0.1-1	H28v10C28,27.1,27.1,28,26,28z" clip-rule="evenodd"/></svg>