<svg xmlns="http://www.w3.org/2000/svg" xmlns:xlink="http://www.w3.org/1999/xlink" id="Calque_1" x="0" y="0" enable-background="new 0 0 32 32" version="1.1" viewBox="0 0 32 32" xml:space="preserve"><path fill="#36C" fill-rule="evenodd" d="M26,32H6c-3.3,0-6-2.7-6-6V6c0-3.3,2.7-6,6-6h20c3.3,0,6,2.7,6,6	v20C32,29.3,29.3,32,26,32z" clip-rule="evenodd"/><path fill="#DAEEFF" fill-rule="evenodd" d="M28,6c0-1.1-0.9-2-2-2H6C4.9,4,4,4.9,4,6v20c0,1.1,0.9,2,2,2h20	c1.1,0,2-0.9,2-2V6z" clip-rule="evenodd"/><path fill="#666" fill-rule="evenodd" d="M24,26H8c-1.1,0-2-0.9-2-2v-0.7c0.8-1.7,1.5-3.8,2-4.8	c1.1-2.4,3.5,3.5,4.9,3.5c2.8,0,6.2-10.7,9.1-7.4c1.4,1.6,2.9,5.8,4,8.4V24C26,25.1,25.1,26,24,26z" clip-rule="evenodd"/><path fill="#F15A24" fill-rule="evenodd" d="M9,6c1.7,0,3,1.3,3,3c0,1.7-1.3,3-3,3c-1.7,0-3-1.3-3-3	C6,7.3,7.3,6,9,6z" clip-rule="evenodd"/></svg>