<svg xmlns="http://www.w3.org/2000/svg" xmlns:svg="http://www.w3.org/2000/svg" id="Calque_1" x="0" y="0" enable-background="new 0 0 32 32" version="1.1" viewBox="0 0 32 32" xml:space="preserve"><metadata id="metadata45"/><path id="path2" fill="#36C" fill-rule="evenodd" d="M26,32H6c-3.3,0-6-2.7-6-6V6c0-3.3,2.7-6,6-6h20c3.3,0,6,2.7,6,6 v20C32,29.3,29.3,32,26,32z" clip-rule="evenodd"/><path id="path4" fill="#DAEEFF" fill-rule="evenodd" d="M28,6c0-1.1-0.9-2-2-2H6C4.9,4,4,4.9,4,6v20c0,1.1,0.9,2,2,2h20 c1.1,0,2-0.9,2-2V6z" clip-rule="evenodd"/><g id="g834"><path id="polygon840" style="clip-rule:evenodd;fill:#294eab;fill-rule:evenodd;stroke-width:3.19043" d="m -433,272.1 v 17.8 l -14,7.1 v -17.8 z" transform="matrix(0.62075979,0,0,0.62075979,293.47962,-158.4335)"/><path id="polygon842" style="clip-rule:evenodd;fill:#39b54a;fill-rule:evenodd;stroke-width:3.19043" d="m -461,272.1 v 17.8 l 14,7.1 v -17.8 z" transform="matrix(0.62075979,0,0,0.62075979,293.47962,-158.4335)"/><path id="polygon844" style="clip-rule:evenodd;fill:#ed4c31;fill-rule:evenodd;stroke-width:3.19043" d="m -447,265 -14,7.1 14,7.1 14,-7.1 z" transform="matrix(0.62075979,0,0,0.62075979,293.47962,-158.4335)"/></g></svg>