<?xml version="1.0" encoding="UTF-8" standalone="no"?>
<svg
   xml:space="preserve"
   enable-background="new 0 0 32 32"
   viewBox="0 0 32 32"
   y="0px"
   x="0px"
   id="Calque_1"
   version="1.1"
   sodipodi:docname="shaderpacks.svg"
   inkscape:version="1.1 (c4e8f9ed74, 2021-05-24)"
   xmlns:inkscape="http://www.inkscape.org/namespaces/inkscape"
   xmlns:sodipodi="http://sodipodi.sourceforge.net/DTD/sodipodi-0.dtd"
   xmlns="http://www.w3.org/2000/svg"
   xmlns:svg="http://www.w3.org/2000/svg"
   xmlns:rdf="http://www.w3.org/1999/02/22-rdf-syntax-ns#"
   xmlns:cc="http://creativecommons.org/ns#"
   xmlns:dc="http://purl.org/dc/elements/1.1/"><sodipodi:namedview
     id="namedview27"
     pagecolor="#ffffff"
     bordercolor="#666666"
     borderopacity="1.0"
     inkscape:pageshadow="2"
     inkscape:pageopacity="0.0"
     inkscape:pagecheckerboard="0"
     showgrid="false"
     inkscape:zoom="20.625"
     inkscape:cx="15.975758"
     inkscape:cy="16"
     inkscape:window-width="1502"
     inkscape:window-height="903"
     inkscape:window-x="1472"
     inkscape:window-y="544"
     inkscape:window-maximized="0"
     inkscape:current-layer="Calque_1" /><metadata
     id="metadata45"><rdf:RDF><cc:Work
         rdf:about=""><dc:format>image/svg+xml</dc:format><dc:type
           rdf:resource="http://purl.org/dc/dcmitype/StillImage" /></cc:Work></rdf:RDF></metadata><defs
     id="defs43" /><path
     id="path2"
     d="M26,32H6c-3.3,0-6-2.7-6-6V6c0-3.3,2.7-6,6-6h20c3.3,0,6,2.7,6,6  v20C32,29.3,29.3,32,26,32z"
     fill="#3366CC"
     clip-rule="evenodd"
     fill-rule="evenodd" /><path
     fill="#DAEEFF"
     fill-rule="evenodd"
     clip-rule="evenodd"
     id="path4"
     d="M28,6c0-1.1-0.9-2-2-2H6C4.9,4,4,4.9,4,6v20c0,1.1,0.9,2,2,2h20  c1.1,0,2-0.9,2-2V6z" /><g
     id="g834"><path
       id="polygon840"
       style="clip-rule:evenodd;fill:#294eab;fill-rule:evenodd;stroke-width:3.19043"
       transform="matrix(0.62075979,0,0,0.62075979,293.47962,-158.4335)"
       d="m -433,272.1 v 17.8 l -14,7.1 v -17.8 z" /><path
       id="polygon842"
       style="clip-rule:evenodd;fill:#39b54a;fill-rule:evenodd;stroke-width:3.19043"
       transform="matrix(0.62075979,0,0,0.62075979,293.47962,-158.4335)"
       d="m -461,272.1 v 17.8 l 14,7.1 v -17.8 z" /><path
       id="polygon844"
       style="clip-rule:evenodd;fill:#ed4c31;fill-rule:evenodd;stroke-width:3.19043"
       transform="matrix(0.62075979,0,0,0.62075979,293.47962,-158.4335)"
       d="m -447,265 -14,7.1 14,7.1 14,-7.1 z" /></g><g
     id="g10" /><g
     id="g12" /><g
     id="g14" /><g
     id="g16" /><g
     id="g18" /><g
     id="g20" /><g
     id="g22" /><g
     id="g24" /><g
     id="g26" /><g
     id="g28" /><g
     id="g30" /><g
     id="g32" /><g
     id="g34" /><g
     id="g36" /><g
     id="g38" /></svg>
