<svg enable-background="new 0 0 32 32" viewBox="0 0 32 32" xmlns="http://www.w3.org/2000/svg">
  <g clip-rule="evenodd" fill-rule="evenodd">
    <path d="m6 32h20c3.3 0 6-2.7 6-6v-20c0-3.3-2.7-6-6-6h-9.1c.7 1.2 1.1 2.6 1.1 4h8c1.1 0 2 .9 2 2v20c0 1.1-.9 2-2 2h-20c-1.1 0-2-.9-2-2v-4.5l-4-3v7.5c0 3.3 2.7 6 6 6z" fill="#36c"/>
    <path d="m8.8 17.6c.4.3.8.4 1.2.4.3 0 .6-.1.9-.2.7-.3 1.1-1 1.1-1.8v-1.9-.1c6.3 0 11.7 4.2 13.4 10 .4-1.3.6-2.6.6-4 0-7.7-6.3-14-14-14v-2c0-.8-.4-1.5-1.1-1.8-.3-.1-.6-.2-.9-.2-.4 0-.8.1-1.2.4l-8 6c-.5.4-.8 1-.8 1.6s.3 1.2.8 1.6z" fill="#39b54a"/>
  </g>
</svg>
