<svg enable-background="new 0 0 32 32" viewBox="0 0 32 32" xmlns="http://www.w3.org/2000/svg">
  <path d="m8.9659036 28h14.0000004c1.1 0 2-.9 2-2v-11-1h-18.0000004v1 11c0 1.1.9 2 2 2z" fill="none"/>
  <rect fill="none" height="4" width="29.020048" x="1.489976" y="7.161101"/>
  <path clip-rule="evenodd" d="m28 6c0-1.1-.9-2-2-2h-20c-1.1 0-2 .9-2 2v20c0 1.1.9 2 2 2h20c1.1 0 2-.9 2-2z" fill="#daeeff" fill-rule="evenodd"/>
  <path d="m6 28h20c1.1 0 2-.9 2-2v-17-3c0-1.1-.9-2-2-2h-20c-1.1 0-2 .9-2 2v3 17c0 1.1.9 2 2 2z" fill="none"/>
  <path d="m6 0c-3.2999967 0-6 2.7000033-6 6v3 17c0 3.299997 2.7000033 6 6 6h20c3.299997 0 6-2.700003 6-6v-17-3c0-3.2999967-2.700003-6-6-6zm0 4h20c1.099999 0 2 .9000011 2 2v3 17c0 1.099999-.900001 2-2 2h-20c-1.0999989 0-2-.900001-2-2v-17-3c0-1.0999989.9000011-2 2-2z" fill="#36c"/>
  <path d="m16 7.1611009-8.793231.045668-.045668 8.7932321 9.575474 8.838898 8.102324-8.102324zm-3.682875 2.9463001c1.219769 0 2.209725.989956 2.209725 2.209725s-.989956 2.209725-2.209725 2.209725c-1.219766 0-2.209724-.989956-2.209724-2.209725s.989958-2.209725 2.209724-2.209725" fill="#666"/>
</svg>
