<?xml version="1.0" encoding="utf-8"?>
<!-- Generator: Adobe Illustrator 18.1.0, SVG Export Plug-In . SVG Version: 6.00 Build 0)  -->
<!DOCTYPE svg PUBLIC "-//W3C//DTD SVG 1.1//EN" "http://www.w3.org/Graphics/SVG/1.1/DTD/svg11.dtd">
<svg version="1.1" id="Calque_1" xmlns="http://www.w3.org/2000/svg" xmlns:xlink="http://www.w3.org/1999/xlink" x="0px" y="0px"
	 viewBox="0 0 32 32" enable-background="new 0 0 32 32" xml:space="preserve">
<circle fill-rule="evenodd" clip-rule="evenodd" fill="#F2F2F2" cx="16" cy="16" r="12"/>
<g>
	<path fill="none" d="M16,4c-4,0-7.6,2-9.7,5C4.8,11,4,13.4,4,16c0,6.6,5.4,12,12,12s12-5.4,12-12c0-2.6-0.8-5-2.3-7
		C23.6,6,20,4,16,4z"/>
	<path fill="#39B54A" d="M16,4c4,0,7.6,2,9.7,5h4.6c-2.6-5.3-8-9-14.4-9C9.7,0,4.2,3.7,1.6,9h4.6C8.4,6,12,4,16,4z"/>
	<path fill="#8C6239" d="M25.7,9c1.4,2,2.3,4.4,2.3,7c0,6.6-5.4,12-12,12S4,22.6,4,16c0-2.6,0.8-5,2.3-7H1.6c-1,2.1-1.6,4.5-1.6,7
		c0,8.8,7.2,16,16,16c8.8,0,16-7.2,16-16c0-2.5-0.6-4.9-1.6-7H25.7z"/>
</g>
<path fill-rule="evenodd" clip-rule="evenodd" fill="#C1272D" d="M16,6l2.9,6l6.6,1l-4.8,4.6l1.1,6.5L16,21l-5.9,3.1l1.1-6.5
	l-4.8-4.6l6.6-1L16,6z"/>
</svg>
