<?xml version="1.0" encoding="utf-8"?>
<!-- Generator: Adobe Illustrator 18.1.0, SVG Export Plug-In . SVG Version: 6.00 Build 0)  -->
<!DOCTYPE svg PUBLIC "-//W3C//DTD SVG 1.1//EN" "http://www.w3.org/Graphics/SVG/1.1/DTD/svg11.dtd">
<svg version="1.1" id="Calque_1" xmlns="http://www.w3.org/2000/svg" xmlns:xlink="http://www.w3.org/1999/xlink" x="0px" y="0px"
	 viewBox="0 0 32 32" enable-background="new 0 0 32 32" xml:space="preserve">
<g>
	<path id="XMLID_1_" fill="#F2F2F2" d="M26,32H6c-3.3,0-6-2.7-6-6V6c0-3.3,2.7-6,6-6h20c3.3,0,6,2.7,6,6v20C32,29.3,29.3,32,26,32z"
		/>
</g>
<path fill="none" d="M26,32H6c-3.3,0-6-2.7-6-6V6c0-3.3,2.7-6,6-6h20c3.3,0,6,2.7,6,6v20C32,29.3,29.3,32,26,32z"/>
<g>
	<path fill="#F15A24" d="M16.7,15.6l1-0.8c0.1-0.1,1.9-1.6,0.4-3.4c-1.3-1.6-1.8-3.1-1.4-4.5c1.1-3.4,7.2-4.9,7.4-5l1-0.2l-0.9,0.5
		C20.7,4.3,19,5.8,18.8,7c-0.2,0.9,0.4,1.7,1.1,2.7l0.2,0.3c0.5,0.7,0.6,1.4,0.5,2.1C20.2,13.8,18,15,17.9,15L16.7,15.6z"/>
</g>
<g>
	<g>
		<path fill="#6699CC" d="M15.9,24.2c-2.9,0-5.3-0.8-5.5-1.8c-0.1-0.4,0.2-0.9,1.7-1.4l1.3-0.4l-1.2,0.7c-0.1,0.1-0.3,0.2-0.3,0.3
			c0,0,0.1,0.3,1.2,0.4c1.2,0.1,2.1,0.2,2.8,0.2c1.2,0,2.3-0.1,4.1-0.5l0.1,0l0,0c0,0,0.8,0.5,1.9,0.9l0.4,0.1l-0.3,0.1
			C19.7,24,17.4,24.2,15.9,24.2z"/>
	</g>
	<g>
		<path fill="#6699CC" d="M15.3,20.4c-3.3,0-5.7-0.6-5.8-1.5c-0.1-0.5,0.6-1,1.9-1.5l0.8-0.3l-0.7,0.5c-0.1,0.1-0.4,0.4-0.4,0.6
			c0,0.1,0.2,0.3,1.1,0.4c1.3,0.1,2.3,0.2,3.2,0.2c1.7,0,3.4-0.2,5.7-0.6l0.1,0l0.1,0.1c0,0,0.5,0.5,1.3,0.8l0.5,0.2l-0.5,0.1
			C20.3,20,17.7,20.4,15.3,20.4z"/>
	</g>
	<g>
		<path fill="#6699CC" d="M15.3,27.4C15.3,27.4,15.3,27.4,15.3,27.4c-3.1,0-6.3-0.3-9.4-0.8c-1.2-0.2-1.8-0.5-1.8-1
			c0.1-1,3.1-2,4.7-2c0.4,0,0.7,0.1,0.9,0.2l0.6,0.4l-0.7-0.1c0,0-0.4-0.1-1.1,0.1c-1.6,0.5-2,0.8-2,0.9c0,0,0,0.1,0.2,0.2
			c1.4,0.6,4.6,1,8.7,1c4.3,0,8.4-0.4,10.3-1c0.9-0.3,1.1-0.6,1.1-0.7c0-0.2-0.2-0.4-0.2-0.4l-0.9-0.8l1.1,0.5
			c0.7,0.3,0.8,0.7,0.7,0.9C27.4,26,22.4,27.4,15.3,27.4z"/>
	</g>
	<g>
		<path fill="#6699CC" d="M13.6,16.7c-3,0-6.7-0.3-6.9-1.2c-0.1-0.4,0.5-0.7,0.7-0.8c2.5-1.1,4.6-1.2,5.2-1.2c0.1,0,0.1,0,0.1,0l1,0
			l-1,0.3c-1.8,0.4-3.4,1.1-3.4,1.4c0,0,0,0.2,1.2,0.4c0.8,0.1,1.9,0.1,3.1,0.1c1.6,0,3.4-0.1,5-0.2c2.5-0.2,5.1-0.7,5.1-0.7
			l1.3-0.2L23.9,15c0,0-0.9,0.4-1.5,0.8l0,0C20.1,16.4,16.9,16.7,13.6,16.7z"/>
	</g>
	<g>
		<path fill="#6699CC" d="M23.5,20.3v-0.2c0-0.1,0-0.3,0.2-0.3c3.8-2,3.8-3.7,3.7-4.3c-0.2-0.9-1.1-1.4-1.9-1.4c-0.1,0-0.2,0-0.3,0
			c-0.5,0.1-0.7,0.2-0.7,0.2l-0.5,0.2l0.3-0.5c0,0,0.2-0.3,0.6-0.5c0.4-0.2,0.9-0.2,1.3-0.2c1.5,0,2.7,0.9,2.9,2.2
			c0.2,1.5-1.1,3.5-5.4,4.7L23.5,20.3z"/>
	</g>
	<g>
		<path fill="#6699CC" d="M16.9,29c-1.2,0-2.4,0-3.5-0.1c-3.8-0.2-4.8-0.8-4.8-1v-0.2l0.2,0c1.8,0.3,4.2,0.5,6.8,0.5
			c3,0,5.9-0.3,8.4-0.7c4.4-0.9,4.9-1.9,4.9-1.9l0.3-0.8l-0.1,0.9c-0.1,1.2-1.5,2.1-4.1,2.6C22.9,28.7,20.1,29,16.9,29z"/>
	</g>
</g>
<path fill="#F15A24" d="M16.8,4.2c1.8-1.4,3-2.8,3.7-4.2h-1.7c-0.8,1-1.9,1.8-2.9,2.7c-1.2,1-2.5,2-3.3,3.2c-1.6,2.6,1,5.2,4,8
	l0.5,0.5l-0.3-0.6c-0.3-0.7-0.7-1.3-1.2-1.9C14.2,9.6,12.7,7.4,16.8,4.2z"/>
</svg>
