<?xml version="1.0" encoding="utf-8"?>
<!-- Generator: Adobe Illustrator 18.1.0, SVG Export Plug-In . SVG Version: 6.00 Build 0)  -->
<!DOCTYPE svg PUBLIC "-//W3C//DTD SVG 1.1//EN" "http://www.w3.org/Graphics/SVG/1.1/DTD/svg11.dtd">
<svg version="1.1" id="Calque_1" xmlns="http://www.w3.org/2000/svg" xmlns:xlink="http://www.w3.org/1999/xlink" x="0px" y="0px"
	 viewBox="-463 265 32 32" enable-background="new -463 265 32 32" xml:space="preserve">
<rect x="-463" y="265" fill="#754C24" width="32" height="32"/>
<polygon fill="#39B54A" points="-463,270 -462,270 -462,269 -459,269 -459,270 -455,270 -455,273 -454,273 -454,267 -451,267 
	-451,270 -450,270 -450,269 -447,269 -447,273 -446,273 -446,271 -445,271 -445,270 -443,270 -443,273 -442,273 -442,271 -441,271 
	-441,270 -439,270 -439,269 -437,269 -437,270 -434,270 -434,269 -431,269 -431,265 -463,265 "/>
<linearGradient id="SVGID_1_" gradientUnits="userSpaceOnUse" x1="-1426.8778" y1="312.5718" x2="-1426.032" y2="314.6501" gradientTransform="matrix(20.79 0 0 14.7315 29210.8574 -4335.6729)">
	<stop  offset="0" style="stop-color:#000000;stop-opacity:0.8"/>
	<stop  offset="1" style="stop-color:#000000;stop-opacity:0.35"/>
</linearGradient>
<path fill="url(#SVGID_1_)" d="M-444.5,286.5c-0.5-0.4-1-1-1.8-1.9c-1,1.2-1.9,2.1-2.8,2.7c-1.1,0.7-2.5,1-4.1,1
	c-2,0-3.6-0.5-4.9-1.6c-1.4-1.1-2.1-2.6-2.1-4.4c0-1.7,0.7-3.2,2.1-4.4c1.2-1,2.9-1.6,5-1.6c1.1,0,2,0.2,2.8,0.5
	c0.9,0.3,1.7,0.8,2.3,1.4c0.6,0.5,1.2,1.2,1.8,1.9c1-1.2,1.9-2.1,2.8-2.7c1.1-0.7,2.5-1,4.1-1c2,0,3.6,0.5,4.9,1.6
	c1.4,1.1,2.1,2.6,2.1,4.4c0,1.7-0.7,3.2-2.1,4.4c-1.2,1-2.9,1.6-5,1.6c-1.1,0-2-0.2-2.8-0.5S-443.8,287.1-444.5,286.5 M-453.4,286.3
	c2.4,0,4.3-1.2,5.8-3.7c-1.9-2.7-3.8-4.1-5.8-4.1c-1.5,0-2.6,0.4-3.3,1.1c-0.8,0.8-1.2,1.7-1.2,2.8c0,1.2,0.4,2.1,1.2,2.8
	C-455.9,285.9-454.8,286.3-453.4,286.3 M-439.1,278.5c-2.2,0-4.1,1.2-5.8,3.7c1.8,2.7,3.8,4.1,5.8,4.1c1.5,0,2.6-0.4,3.3-1.1
	c0.8-0.8,1.2-1.7,1.2-2.8c0-1.2-0.4-2.1-1.2-2.8C-436.7,278.8-437.8,278.5-439.1,278.5"/>
<linearGradient id="SVGID_2_" gradientUnits="userSpaceOnUse" x1="-1427.0289" y1="313.0195" x2="-1425.7877" y2="313.9627" gradientTransform="matrix(20.79 0 0 14.7315 29210.5391 -4335.8115)">
	<stop  offset="0" style="stop-color:#75B54B"/>
	<stop  offset="1" style="stop-color:#75B54B;stop-opacity:0.6"/>
</linearGradient>
<path fill="url(#SVGID_2_)" d="M-445.4,285.1c-0.5-0.4-1-1-1.8-1.9c-1,1.2-1.9,2.1-2.8,2.7c-1.1,0.7-2.5,1-4.1,1
	c-2,0-3.6-0.5-4.9-1.6c-1.4-1.1-2.1-2.6-2.1-4.4c0-1.7,0.7-3.2,2.1-4.4c1.2-1,2.9-1.6,5-1.6c1.1,0,2,0.2,2.8,0.5
	c0.9,0.3,1.7,0.8,2.3,1.4c0.6,0.5,1.2,1.2,1.8,1.9c1-1.2,1.9-2.1,2.8-2.7c1.1-0.7,2.5-1,4.1-1c2,0,3.6,0.5,4.9,1.6
	c1.4,1.1,2.1,2.6,2.1,4.4c0,1.7-0.7,3.2-2.1,4.4c-1.2,1-2.9,1.6-5,1.6c-1.1,0-2-0.2-2.8-0.5C-443.8,286.2-444.6,285.8-445.4,285.1
	 M-454.3,284.9c2.4,0,4.3-1.2,5.8-3.7c-1.9-2.7-3.8-4.1-5.8-4.1c-1.5,0-2.6,0.4-3.3,1.1c-0.8,0.8-1.2,1.7-1.2,2.8
	c0,1.2,0.4,2.1,1.2,2.8C-456.8,284.5-455.7,284.9-454.3,284.9 M-440,277.1c-2.2,0-4.1,1.2-5.8,3.7c1.8,2.7,3.8,4.1,5.8,4.1
	c1.5,0,2.6-0.4,3.3-1.1c0.8-0.8,1.2-1.7,1.2-2.8c0-1.2-0.4-2.1-1.2-2.8C-437.5,277.5-438.6,277.1-440,277.1"/>
</svg>
