<?xml version="1.0" encoding="utf-8"?>
<!-- Generator: Adobe Illustrator 18.1.0, SVG Export Plug-In . SVG Version: 6.00 Build 0)  -->
<!DOCTYPE svg PUBLIC "-//W3C//DTD SVG 1.1//EN" "http://www.w3.org/Graphics/SVG/1.1/DTD/svg11.dtd">
<svg version="1.1" id="Calque_1" xmlns="http://www.w3.org/2000/svg" xmlns:xlink="http://www.w3.org/1999/xlink" x="0px" y="0px"
	 viewBox="0 0 32 32" enable-background="new 0 0 32 32" xml:space="preserve">
<path fill-rule="evenodd" clip-rule="evenodd" fill="#F2F2F2" d="M28,10c0-1.1-0.9-2-2-2H6c-1.1,0-2,0.9-2,2v16c0,1.1,0.9,2,2,2h20
	c1.1,0,2-0.9,2-2V10z"/>
<path fill-rule="evenodd" clip-rule="evenodd" fill="#39B54A" d="M26,4h-4V2c0-1.1-0.9-2-2-2h-8c-1.1,0-2,0.9-2,2v2H6
	C3,4,0.6,6.2,0.1,9h4.2c0.3-0.6,1-1,1.7-1h20c0.7,0,1.4,0.4,1.7,1h4.2C31.4,6.2,29,4,26,4z M20,4h-8V3c0-0.6,0.4-1,1-1h6
	c0.6,0,1,0.4,1,1V4z"/>
<path fill-rule="evenodd" clip-rule="evenodd" fill="#8C6239" d="M31.9,9h-4.2c0.2,0.3,0.3,0.6,0.3,1v4H4v-4c0-0.4,0.1-0.7,0.3-1
	H0.1C0,9.3,0,9.7,0,10v16c0,3.3,2.7,6,6,6h20c3.3,0,6-2.7,6-6V10C32,9.7,32,9.3,31.9,9z M14.3,16h3.4c0.2,0.3,0.3,0.6,0.3,1
	c0,1.1-0.9,2-2,2s-2-0.9-2-2C14,16.6,14.1,16.3,14.3,16z M26,28H6c-1.1,0-2-0.9-2-2V16h8.1c-0.1,0.3-0.1,0.7-0.1,1c0,2.2,1.8,4,4,4
	s4-1.8,4-4c0-0.3-0.1-0.7-0.1-1H28v10C28,27.1,27.1,28,26,28z"/>
</svg>
