<?xml version="1.0" encoding="utf-8"?>
<!-- Generator: Adobe Illustrator 18.1.0, SVG Export Plug-In . SVG Version: 6.00 Build 0)  -->
<!DOCTYPE svg PUBLIC "-//W3C//DTD SVG 1.1//EN" "http://www.w3.org/Graphics/SVG/1.1/DTD/svg11.dtd">
<svg version="1.1" id="Calque_1" xmlns="http://www.w3.org/2000/svg" xmlns:xlink="http://www.w3.org/1999/xlink" x="0px" y="0px"
	 viewBox="0 0 32 32" enable-background="new 0 0 32 32" xml:space="preserve">
<g>
	<path fill="#39B54A" d="M26,0H6C2.7,0,0,2.7,0,6v3h32V6C32,2.7,29.3,0,26,0z"/>
	<path fill="#8C6239" d="M0,26c0,3.3,2.7,6,6,6h20c3.3,0,6-2.7,6-6V9H0V26z"/>
</g>
<path fill-rule="evenodd" clip-rule="evenodd" fill="#F2F2F2" d="M28,6c0-1.1-0.9-2-2-2H6C4.9,4,4,4.9,4,6v20c0,1.1,0.9,2,2,2h20
	c1.1,0,2-0.9,2-2V6z"/>
<path fill-rule="evenodd" clip-rule="evenodd" fill="#666666" d="M24,26H8c-1.1,0-2-0.9-2-2v-0.7c0.8-1.7,1.5-3.8,2-4.8
	c1.1-2.4,3.5,3.5,4.9,3.5c2.8,0,6.2-10.7,9.1-7.4c1.4,1.6,2.9,5.8,4,8.4V24C26,25.1,25.1,26,24,26z"/>
<path fill-rule="evenodd" clip-rule="evenodd" fill="#F15A24" d="M9,6c1.7,0,3,1.3,3,3c0,1.7-1.3,3-3,3c-1.7,0-3-1.3-3-3
	C6,7.3,7.3,6,9,6z"/>
</svg>
