<?xml version="1.0" encoding="utf-8"?>
<!-- Generator: Adobe Illustrator 18.1.0, SVG Export Plug-In . SVG Version: 6.00 Build 0)  -->
<!DOCTYPE svg PUBLIC "-//W3C//DTD SVG 1.1//EN" "http://www.w3.org/Graphics/SVG/1.1/DTD/svg11.dtd">
<svg version="1.1" id="Calque_1" xmlns="http://www.w3.org/2000/svg" xmlns:xlink="http://www.w3.org/1999/xlink" x="0px" y="0px"
	 viewBox="0 0 32 32" enable-background="new 0 0 32 32" xml:space="preserve">
<path fill="#C1272D" d="M26,32H6c-3.4,0-6-2.6-6-6V6c0-3.4,2.6-6,6-6h20c3.4,0,6,2.6,6,6v20C32,29.2,29.4,32,26,32z"/>
<path fill="#FFFFFF" d="M21.6,21.6c-0.8,0.8-2,0.8-2.8,0L16,18.8l-2.8,2.8c-0.8,0.8-2,0.8-2.8,0c-0.8-0.8-0.8-2,0-2.8l2.8-2.8
	l-2.8-2.8c-0.8-0.8-0.8-2,0-2.8c0.8-0.8,2-0.8,2.8,0l2.8,2.8l2.8-2.8c0.8-0.8,2-0.8,2.8,0s0.8,2,0,2.8L18.8,16l2.8,2.8
	C22.4,19.6,22.4,20.8,21.6,21.6z"/>
</svg>
