<svg height="32" width="32" xmlns="http://www.w3.org/2000/svg" xmlns:xlink="http://www.w3.org/1999/xlink">
  <linearGradient id="a">
    <stop offset="0" stop-color="#ff7f2a"/>
    <stop offset="1" stop-color="#8d3800"/>
  </linearGradient>
  <linearGradient id="b">
    <stop offset="0" stop-color="#f00"/>
    <stop offset="1" stop-color="#360000"/>
  </linearGradient>
  <filter id="c" height="1.337037" width="1.449383" x="-.224691" y="-.168519">
    <feGaussianBlur stdDeviation="1.6851852"/>
  </filter>
  <linearGradient id="d" gradientUnits="userSpaceOnUse" x1="11.904698" x2="18.445436" xlink:href="#b" y1="1043.258252" y2="1052.450652"/>
  <linearGradient id="e" gradientTransform="matrix(1 0 0 .125 -2 911.19195)" gradientUnits="userSpaceOnUse" x1="12.904698" x2="19.445436" xlink:href="#b" y1="1043.2582" y2="1052.4506"/>
  <linearGradient id="f" gradientUnits="userSpaceOnUse" x1="10.904698" x2="17.445436" xlink:href="#b" y1="1044.258252" y2="1053.450652"/>
  <linearGradient id="g" gradientTransform="matrix(.125 0 0 1 16.5 1.000052)" gradientUnits="userSpaceOnUse" x1="12.904698" x2="19.445436" y1="1043.2582" y2="1052.4506">
    <stop offset="0" stop-color="#4a0000"/>
    <stop offset="1" stop-color="#360000"/>
  </linearGradient>
  <filter id="h" height="1.181482" width="1.241975" x="-.120988" y="-.090741">
    <feGaussianBlur stdDeviation="1.058642"/>
  </filter>
  <linearGradient id="i" gradientTransform="matrix(1 0 0 .70710371 1032.3713 730.70724)" gradientUnits="userSpaceOnUse" x1="13.258252" x2="17.500893" xlink:href="#a" y1="1033.889" y2="1041.7556"/>
  <linearGradient id="j" gradientUnits="userSpaceOnUse" x1="9.258252" x2="13.500893" xlink:href="#a" y1="1036.889019" y2="1044.755619"/>
  <linearGradient id="k" gradientUnits="userSpaceOnUse" x1="10.142136" x2="14.119612" y1="1041.043319" y2="1050.147319">
    <stop offset="0" stop-color="#af6c1d"/>
    <stop offset="1" stop-color="#604000"/>
  </linearGradient>
  <filter id="l">
    <feGaussianBlur stdDeviation=".42040957"/>
  </filter>
  <filter id="m">
    <feGaussianBlur stdDeviation=".04"/>
  </filter>
  <metadata/>
  <g transform="translate(0 -1020.3622)">
    <path d="m10 1023.3622-3 3v20h4v5h8l1-1v-4h5l3-3v-20z" fill="#070707" filter="url(#h)" opacity=".878661"/>
    <path d="m6.1703915 1025.53v4 16h5.0000005v4h8v-4h5v-16-4z" filter="url(#c)" opacity=".753138"/>
    <path d="m23 1025.3622 4-3v20l-3 3-1-1z" fill="#6c6c6c"/>
    <path d="m6 1025.3622 3-3h18l-3 3v20h-18z" fill="#e2e2e2"/>
    <rect height="4" width="4" x="7" y="1029.3622"/>
    <rect height="4" width="4" x="19" y="1029.3622"/>
    <rect fill="url(#d)" height="8" width="8" x="11" y="1041.3622"/>
    <rect fill="#fff" filter="url(#m)" height="1" width="1" x="9" y="1030.3622"/>
    <rect fill="#fff" filter="url(#m)" height="1" width="1" x="21" y="1030.3622"/>
    <path d="m10 1042.3622h8v8h-8z" fill="url(#f)"/>
    <path d="m11 1041.3622h8l-1 1h-8z" fill="url(#e)"/>
    <path d="m18 1042.3622 1-1v8l-1 1z" fill="url(#g)"/>
    <path d="m9 1022.3622h18l-3 3h-18z" fill="#fff"/>
    <path d="m3.9999995 1036.3622 3.0000005-3h16v8l-3 3h-16z" fill="url(#j)"/>
    <rect fill="#b34f0e" height="4.000004" transform="matrix(.70710873 -.70710483 0 1 0 0)" width="4.242629" x="28.284193" y="1056.3621"/>
    <rect fill="#8d5910" height="4" transform="matrix(.70710883 -.70710473 0 1 0 0)" width="4.242629" x="28.284189" y="1060.3621"/>
    <path d="m20 1036.3622v7c-3 0-11.0351165-.059-15.5.7502l1.230393 1.1835 15.5625-.094 2.707107-2.8397v-4-4l-1-1z" filter="url(#l)" opacity=".635983"/>
    <rect fill="url(#k)" height="4" width="16" x="4" y="1040.3622"/>
    <rect fill="url(#j)" height="4" width="16" x="4" y="1036.3622"/>
    <rect fill="url(#i)" height="4.242579" transform="matrix(1 0 -.70710986 .7071037 0 0)" width="16.000004" x="1040.3712" y="1461.4012"/>
  </g>
</svg>
