<svg xmlns="http://www.w3.org/2000/svg" xmlns:svg="http://www.w3.org/2000/svg" xmlns:xlink="http://www.w3.org/1999/xlink" id="svg2" width="32" height="32" version="1.1"><defs id="defs4"><linearGradient id="linearGradient4008"><stop id="stop4010" offset="0" style="stop-color:#4a0000;stop-opacity:1"/><stop id="stop4012" offset="1" style="stop-color:#360000;stop-opacity:1"/></linearGradient><linearGradient id="linearGradient3945"><stop id="stop3947" offset="0" style="stop-color:#4e300d;stop-opacity:1"/><stop id="stop3949" offset="1" style="stop-color:#604000;stop-opacity:1"/></linearGradient><linearGradient id="linearGradient3939"><stop id="stop3941" offset="0" style="stop-color:#5b2400;stop-opacity:1"/><stop id="stop3943" offset="1" style="stop-color:#8d3800;stop-opacity:1"/></linearGradient><linearGradient id="linearGradient3838"><stop style="stop-color:#af6c1d;stop-opacity:1" id="stop3840" offset="0"/><stop style="stop-color:#604000;stop-opacity:1" id="stop3842" offset="1"/></linearGradient><linearGradient id="linearGradient3830"><stop style="stop-color:#ff7f2a;stop-opacity:1" id="stop3832" offset="0"/><stop style="stop-color:#8d3800;stop-opacity:1" id="stop3834" offset="1"/></linearGradient><linearGradient id="linearGradient3820"><stop style="stop-color:red;stop-opacity:1" id="stop3822" offset="0"/><stop style="stop-color:#360000;stop-opacity:1" id="stop3824" offset="1"/></linearGradient><filter id="filter3816" width="1.449" height="1.337" x="-.225" y="-.169"><feGaussianBlur id="feGaussianBlur3818" stdDeviation="1.685"/></filter><linearGradient id="linearGradient3828" x1="12.905" x2="19.445" y1="1043.258" y2="1052.451" gradientTransform="translate(-1,5.2165626e-5)" gradientUnits="userSpaceOnUse" xlink:href="#linearGradient3820"/><linearGradient id="linearGradient3909" x1="12.905" x2="19.445" y1="1043.258" y2="1052.451" gradientTransform="matrix(1,0,0,0.125,-2,911.19195)" gradientUnits="userSpaceOnUse" xlink:href="#linearGradient3820"/><linearGradient id="linearGradient3911" x1="12.905" x2="19.445" y1="1043.258" y2="1052.451" gradientTransform="translate(-2,1.0000522)" gradientUnits="userSpaceOnUse" xlink:href="#linearGradient3820"/><linearGradient id="linearGradient3915" x1="12.905" x2="19.445" y1="1043.258" y2="1052.451" gradientTransform="matrix(0.125,0,0,1,16.5,1.0000522)" gradientUnits="userSpaceOnUse" xlink:href="#linearGradient4008"/><linearGradient id="linearGradient4032" x1="12.905" x2="19.445" y1="1043.258" y2="1052.451" gradientTransform="translate(-25,-2.9999652)" gradientUnits="userSpaceOnUse" xlink:href="#linearGradient3820"/><linearGradient id="linearGradient4034" x1="12.905" x2="19.445" y1="1043.258" y2="1052.451" gradientTransform="matrix(0.125,0,0,1,-6.5,-2.9999652)" gradientUnits="userSpaceOnUse" xlink:href="#linearGradient4008"/><filter id="filter4053" width="1.242" height="1.181" x="-.121" y="-.091"><feGaussianBlur id="feGaussianBlur4055" stdDeviation="1.059"/></filter><linearGradient id="linearGradient3840" x1="13.258" x2="17.501" y1="1033.889" y2="1041.756" gradientTransform="matrix(1,0,0,0.70710371,1032.3713,730.70724)" gradientUnits="userSpaceOnUse" xlink:href="#linearGradient3830"/><linearGradient id="linearGradient3846" x1="13.258" x2="17.501" y1="1033.889" y2="1041.756" gradientTransform="translate(-4,3.0000194)" gradientUnits="userSpaceOnUse" xlink:href="#linearGradient3830"/><linearGradient id="linearGradient3849" x1="14.142" x2="18.12" y1="1038.043" y2="1047.147" gradientTransform="translate(-4,3.0000194)" gradientUnits="userSpaceOnUse" xlink:href="#linearGradient3838"/><filter id="filter3879"><feGaussianBlur id="feGaussianBlur3881" stdDeviation=".42"/></filter><filter id="filter3850"><feGaussianBlur id="feGaussianBlur3852" stdDeviation=".04"/></filter><filter id="filter3854"><feGaussianBlur id="feGaussianBlur3856" stdDeviation=".04"/></filter></defs><metadata id="metadata7"/><g id="layer1" transform="translate(0,-1020.3622)"><path style="opacity:.87866109;fill:#070707;fill-opacity:1;stroke:none;filter:url(#filter4053)" id="path4022" d="m 10,1023.3622 -3,3 0,20 4,0 0,5 8,0 1,-1 0,-4 5,0 3,-3 0,-20 -18,0 z"/><path id="path3806" d="m 6.1703915,1025.53 0,4 0,16 5.0000005,0 0,4 8,0 0,-4 5,0 0,-16 0,-4 -18.0000005,0 z" style="opacity:.75313804;fill:#000;fill-opacity:1;stroke:none;filter:url(#filter3816)"/><path id="path3861" d="m 23,1025.3622 4,-3 0,20 -3,3 -1,-1 z" style="fill:#6c6c6c;fill-opacity:1;stroke:none"/><path style="fill:#e2e2e2;fill-opacity:1;stroke:none" id="rect3858" d="m 6,1025.3622 3,-3 18,0 -3,3 0,20 -18,0 z"/><rect style="fill:#000;fill-opacity:1;stroke:none" id="rect3759" width="4" height="4" x="7" y="1029.362"/><rect style="fill:#000;fill-opacity:1;stroke:none" id="rect3761" width="4" height="4" x="19" y="1029.362"/><rect style="fill:url(#linearGradient3828);fill-opacity:1;stroke:none" id="rect3769" width="8" height="8" x="11" y="1041.362"/><rect style="fill:#fff;fill-opacity:1;stroke:none;filter:url(#filter3854)" id="rect3773" width="1" height="1" x="9" y="1030.362"/><rect style="fill:#fff;fill-opacity:1;stroke:none;filter:url(#filter3850)" id="rect3775" width="1" height="1" x="21" y="1030.362"/><path style="fill:url(#linearGradient3911);fill-opacity:1;stroke:none" id="rect3902" d="m 10,1042.3622 8,0 0,8 -8,0 z"/><path id="path3907" d="m 11,1041.3622 8,0 -1,1 -8,0 z" style="fill:url(#linearGradient3909);fill-opacity:1;stroke:none"/><path id="path3913" d="m 18,1042.3622 1,-1 0,8 -1,1 z" style="fill:url(#linearGradient3915);fill-opacity:1;stroke:none"/><path style="fill:#fff;fill-opacity:1;stroke:none" id="rect4019" d="m 9,1022.3622 18,0 -3,3 -18,0 z"/><path style="fill:url(#linearGradient3846);fill-opacity:1;stroke:none" id="rect3815" d="m 3.9999995,1036.3622 3.0000005,-3 16,0 0,8 -3,3 -16,0 z"/><rect style="fill:#b34f0e;fill-opacity:1;stroke:none;opacity:1" id="rect3851" width="4.243" height="4" x="28.284" y="1056.362" transform="matrix(0.70710873,-0.70710483,0,1,0,0)"/><rect style="fill:#8d5910;fill-opacity:1;stroke:none;opacity:1" id="rect3855" width="4.243" height="4" x="28.284" y="1060.362" transform="matrix(0.70710883,-0.70710473,0,1,0,0)"/><path id="rect3970" d="m 20,1036.3622 c 0,1 0,6 0,7 -3,0 -11.0351165,-0.059 -15.5,0.7502 l 1.230393,1.1835 15.5625,-0.094 2.707107,-2.8397 0,-4 0,-4 -1,-1 z" style="opacity:.63598326;fill:#000;fill-opacity:1;stroke:none;filter:url(#filter3879)"/><rect id="rect3917" width="16" height="4" x="4" y="1040.362" style="fill:url(#linearGradient3849);fill-opacity:1;stroke:none"/><rect id="rect3923" width="16" height="4" x="4" y="1036.362" style="fill:url(#linearGradient3846);fill-opacity:1;stroke:none"/><rect style="fill:url(#linearGradient3840);fill-opacity:1;stroke:none" id="rect3931" width="16" height="4.243" x="1040.371" y="1461.401" transform="matrix(1,0,-0.70710986,0.7071037,0,0)"/></g></svg>