<svg xmlns="http://www.w3.org/2000/svg" xmlns:svg="http://www.w3.org/2000/svg" xmlns:xlink="http://www.w3.org/1999/xlink" id="svg2" width="32" height="32" version="1.1"><defs id="defs4"><linearGradient id="linearGradient3917"><stop id="stop3919" offset="0" style="stop-color:#115008;stop-opacity:1"/><stop style="stop-color:#39c228;stop-opacity:1" id="stop3921" offset=".5"/><stop id="stop3923" offset="1" style="stop-color:#c7f7c2;stop-opacity:1"/></linearGradient><linearGradient id="linearGradient3892"><stop style="stop-color:#1a1a1a;stop-opacity:1" id="stop3894" offset="0"/><stop style="stop-color:#1a1a1a;stop-opacity:0" id="stop3896" offset="1"/></linearGradient><linearGradient id="linearGradient3871"><stop style="stop-color:#115008;stop-opacity:1" id="stop3873" offset="0"/><stop id="stop3900" offset=".5" style="stop-color:#39c228;stop-opacity:1"/><stop style="stop-color:#c7f7c2;stop-opacity:1" id="stop3875" offset="1"/></linearGradient><filter id="filter3867"><feGaussianBlur id="feGaussianBlur3869" stdDeviation=".792"/></filter><linearGradient id="linearGradient3898" x1="16" x2="16" y1="31" y2="26" gradientUnits="userSpaceOnUse" xlink:href="#linearGradient3892"/><linearGradient id="linearGradient5605" x1="27" x2="5" y1="26" y2="3" gradientTransform="translate(0,1020.3622)" gradientUnits="userSpaceOnUse" xlink:href="#linearGradient3871"/><linearGradient id="linearGradient5605-2" x1="27" x2="5" y1="26" y2="3" gradientTransform="translate(0,1020.3622)" gradientUnits="userSpaceOnUse" xlink:href="#linearGradient3871-3"/><linearGradient id="linearGradient3871-3"><stop style="stop-color:#115008;stop-opacity:1" id="stop3873-5" offset="0"/><stop id="stop3900-7" offset=".5" style="stop-color:#39c228;stop-opacity:1"/><stop style="stop-color:#c7f7c2;stop-opacity:1" id="stop3875-9" offset="1"/></linearGradient><linearGradient id="linearGradient3147" x1="31" x2="4" y1="1052.362" y2="1024.362" gradientUnits="userSpaceOnUse" spreadMethod="reflect" xlink:href="#linearGradient3917"/><filter id="filter4028" width="1.294" height="1.515" x="-.147" y="-.257" color-interpolation-filters="sRGB"><feGaussianBlur id="feGaussianBlur4030" stdDeviation=".429"/></filter><filter id="filter4056" color-interpolation-filters="sRGB"><feGaussianBlur id="feGaussianBlur4058" stdDeviation=".676"/></filter><filter id="filter5711" width="1.346" height="1.691" x="-.173" y="-.346"><feGaussianBlur id="feGaussianBlur5713" stdDeviation=".144"/></filter><filter id="filter5719" width="1.36" height="1.72" x="-.18" y="-.36"><feGaussianBlur id="feGaussianBlur5721" stdDeviation=".15"/></filter><filter id="filter5723" width="1.42" height="1.56" x="-.21" y="-.28"><feGaussianBlur id="feGaussianBlur5725" stdDeviation=".35"/></filter><filter id="filter5727" width="1.42" height="1.56" x="-.21" y="-.28"><feGaussianBlur id="feGaussianBlur5729" stdDeviation=".35"/></filter></defs><metadata id="metadata7"/><g id="layer1" transform="translate(0,-1020.3622)"><rect style="fill:#2b1100;fill-opacity:1;stroke:none" id="rect3063" width="22" height="22" x="5" y="5" rx="5" ry="5" transform="translate(0,1020.3622)"/><path id="path3065" d="m 6,1026.3622 0,22 22,0 0,-22 z m 2,2 6,0 0,6 6,0 0,-6 6,0 0,6 -6,0 0,3 3,0 0,9 -3,0 0,-3 -6,0 0,3 -3,0 0,-9 3,0 0,-3 -6,0 z" style="fill:#000;fill-opacity:1;stroke:none;filter:url(#filter3867)"/><path style="fill:url(#linearGradient5605);fill-opacity:1;stroke:none" id="rect3045" d="m 7,1022.3622 c -2.77,0 -5,2.23 -5,5 l 0,25 28,0 0,-25 c 0,-2.77 -2.23,-5 -5,-5 z m 0,5 6,0 0,6 6,0 0,-6 6,0 0,6 -6,0 0,3 3,0 0,9 -3,0 0,-3 -6,0 0,3 -3,0 0,-9 3,0 0,-3 -6,0 z"/><g id="g5466" style="opacity:.3" transform="translate(0,-1)"><path id="rect3902" d="m 3.999974,1022.3622 3,0 0,3 -3,0 z" style="fill:#fff;fill-opacity:1;stroke:none"/><path id="rect3904" d="m 6.999974,1022.3622 3,0 0,3 -3,0 z" style="fill:#b3b3b3;fill-opacity:1;stroke:none"/><path id="rect3906" d="m 3.999974,1025.3622 3,0 0,3 -3,0 z" style="fill:#999;fill-opacity:1;stroke:none"/><path id="rect3908" d="m 0.999974,1025.3622 3,0 0,3 -3,0 z" style="fill:#f2f2f2;fill-opacity:1;stroke:none"/><path id="rect3914" d="m 3.999974,1028.3622 3,0 0,3 -3,0 z" style="fill:#ccc;fill-opacity:1;stroke:none"/><path id="rect3916" d="m 0.999974,1028.3622 3,0 0,3 -3,0 z" style="fill:#b3b3b3;fill-opacity:1;stroke:none"/><path id="rect3918" d="m 6.999974,1025.3622 3,0 0,3 -3,0 z" style="fill:#4d4d4d;fill-opacity:1;stroke:none"/><path id="rect3924" d="m 9.999974,1025.3622 3,0 0,3 -3,0 z" style="fill:#999;fill-opacity:1;stroke:none"/><path id="rect3926" d="m 12.999974,1028.3622 3,0 0,3 -3,0 z" style="fill:#f2f2f2;fill-opacity:1;stroke:none"/><path id="rect3930" d="m 12.999974,1025.3622 3,0 0,3 -3,0 z" style="fill:#ccc;fill-opacity:1;stroke:none"/><path id="rect3932" d="m 9.999974,1022.3622 3,0 0,3 -3,0 z" style="fill:#666;fill-opacity:1;stroke:none"/><path id="rect3936" d="m 12.999974,1022.3622 3,0 0,3 -3,0 z" style="fill:#333;fill-opacity:1;stroke:none"/><path id="rect3999" d="m 18.99998,1028.3622 0,-3 3,0 0,3 z" style="fill:#b3b3b3;fill-opacity:1;stroke:none"/><path id="rect4007" d="m 15.99998,1031.3622 0,-3 3,0 0,3 z" style="fill:#ccc;fill-opacity:1;stroke:none"/><path id="rect4009" d="m 24.99998,1031.3622 0,-3 3,0 0,3 z" style="fill:#ccc;fill-opacity:1;stroke:none"/><path id="rect4011" d="m 24.99998,1034.3622 0,-3 3,0 0,3 z" style="fill:#b3b3b3;fill-opacity:1;stroke:none"/><path id="rect4013" d="m 21.99998,1028.3622 0,-3 3,0 0,3 z" style="fill:#4d4d4d;fill-opacity:1;stroke:none"/><path id="rect4015" d="m 24.99998,1028.3622 0,-3 3,0 0,3 z" style="fill:#e6e6e6;fill-opacity:1;stroke:none"/><path id="rect4017" d="m 15.99998,1028.3622 0,-3 3,0 0,3 z" style="fill:#e6e6e6;fill-opacity:1;stroke:none"/><path id="rect4019" d="m 21.99998,1025.3622 0,-3 3,0 0,3 z" style="fill:#999;fill-opacity:1;stroke:none"/><path id="rect4023" d="m 24.99998,1025.3622 0,-3 3,0 0,3 z" style="fill:#ccc;fill-opacity:1;stroke:none"/><path id="rect4027" d="m 18.99998,1025.3622 0,-3 3,0 0,3 z" style="fill:#666;fill-opacity:1;stroke:none"/><path id="rect4029" d="m 15.99998,1025.3622 0,-3 3,0 0,3 z" style="fill:#b3b3b3;fill-opacity:1;stroke:none"/><path id="rect4035" d="m 15.99998,1034.3622 0,-3 3,0 0,3 z" style="fill:gray;fill-opacity:1;stroke:none"/><path id="rect4039" d="m 6.99998,1034.3622 0,3 3,0 0,-3 z" style="fill:#fff;fill-opacity:1;stroke:none"/><path id="rect4041" d="m 6.99998,1037.3622 0,3 3,0 0,-3 z" style="fill:#b3b3b3;fill-opacity:1;stroke:none"/><path id="rect4043" d="m 9.99998,1034.3622 0,3 3,0 0,-3 z" style="fill:#999;fill-opacity:1;stroke:none"/><path id="rect4049" d="m 3.99998,1034.3622 0,3 3,0 0,-3 z" style="fill:#ccc;fill-opacity:1;stroke:none"/><path id="rect4053" d="m 12.99998,1031.3622 0,3 3,0 0,-3 z" style="fill:#b3b3b3;fill-opacity:1;stroke:none"/><path id="rect4059" d="m 3.99998,1037.3622 0,3 3,0 0,-3 z" style="fill:#e6e6e6;fill-opacity:1;stroke:none"/><path id="rect4063" d="m 12.99998,1043.3622 0,3 3,0 0,-3 z" style="fill:#f2f2f2;fill-opacity:1;stroke:none"/><path id="rect4069" d="m 6.99998,1040.3622 0,3 3,0 0,-3 z" style="fill:#666;fill-opacity:1;stroke:none"/><path id="rect4071" d="m 3.99998,1040.3622 0,3 3,0 0,-3 z" style="fill:#b3b3b3;fill-opacity:1;stroke:none"/><path id="rect4073" d="m 6.99998,1043.3622 0,3 3,0 0,-3 z" style="fill:#333;fill-opacity:1;stroke:none"/><path id="rect4075" d="m 3.99998,1043.3622 0,3 3,0 0,-3 z" style="fill:#ececec;fill-opacity:1;stroke:none"/><path id="rect4077" d="m 3.99998,1031.3622 0,3 3,0 0,-3 z" style="fill:gray;fill-opacity:1;stroke:none"/><path id="rect4133" d="m 28,1028.3622 0,3 3,0 0,-3 z" style="fill:#ccc;fill-opacity:1;stroke:none"/><path id="rect4143" d="m 28,1031.3622 0,3 3,0 0,-3 z" style="fill:#e6e6e6;fill-opacity:1;stroke:none"/><path id="rect4155" d="m 28,1034.3622 0,3 3,0 0,-3 z" style="fill:#b3b3b3;fill-opacity:1;stroke:none"/><path id="rect4159" d="m 28,1037.3622 0,3 3,0 0,-3 z" style="fill:#ececec;fill-opacity:1;stroke:none"/><path id="rect4161" d="m 28,1025.3622 0,3 3,0 0,-3 z" style="fill:gray;fill-opacity:1;stroke:none"/><path id="rect4175" d="m 28,1043.3622 0,3 3,0 0,-3 z" style="fill:#ccc;fill-opacity:1;stroke:none"/><path id="rect4185" d="m 28,1046.3622 0,3 3,0 0,-3 z" style="fill:#e6e6e6;fill-opacity:1;stroke:none"/><path id="rect4197" d="m 28,1049.3622 0,3 3,0 0,-3 z" style="fill:#b3b3b3;fill-opacity:1;stroke:none"/><path id="rect4203" d="m 28,1040.3622 0,3 3,0 0,-3 z" style="fill:gray;fill-opacity:1;stroke:none"/><path id="rect4207" d="m 6.99998,1049.3622 0,3 3,0 0,-3 z" style="fill:#fff;fill-opacity:1;stroke:none"/><path id="rect4211" d="m 9.99998,1049.3622 0,3 3,0 0,-3 z" style="fill:#999;fill-opacity:1;stroke:none"/><path id="rect4213" d="m 9.99998,1046.3622 0,3 3,0 0,-3 z" style="fill:#f2f2f2;fill-opacity:1;stroke:none"/><path id="rect4215" d="m 6.99998,1046.3622 0,3 3,0 0,-3 z" style="fill:#666;fill-opacity:1;stroke:none"/><path id="rect4217" d="m 3.99998,1049.3622 0,3 3,0 0,-3 z" style="fill:#ccc;fill-opacity:1;stroke:none"/><path id="rect4219" d="m 12.99998,1049.3622 0,3 3,0 0,-3 z" style="fill:#ccc;fill-opacity:1;stroke:none"/><path id="rect4221" d="m 12.99998,1046.3622 0,3 3,0 0,-3 z" style="fill:#b3b3b3;fill-opacity:1;stroke:none"/><path id="rect4245" d="m 3.99998,1046.3622 0,3 3,0 0,-3 z" style="fill:gray;fill-opacity:1;stroke:none"/><path id="rect4261" d="m 0.99998,1034.3622 0,3 3,0 0,-3 z" style="fill:#ccc;fill-opacity:1;stroke:none"/><path id="rect4263" d="m 0.99998,1031.3622 0,3 3,0 0,-3 z" style="fill:#b3b3b3;fill-opacity:1;stroke:none"/><path id="rect4267" d="m 0.99998,1037.3622 0,3 3,0 0,-3 z" style="fill:#e6e6e6;fill-opacity:1;stroke:none"/><path id="rect4273" d="m 0.99998,1043.3622 0,3 3,0 0,-3 z" style="fill:#f2f2f2;fill-opacity:1;stroke:none"/><path id="rect4275" d="m 0.99998,1040.3622 0,3 3,0 0,-3 z" style="fill:#ccc;fill-opacity:1;stroke:none"/><path id="rect4303" d="m 0.99998,1049.3622 0,3 3,0 0,-3 z" style="fill:#ccc;fill-opacity:1;stroke:none"/><path id="rect4305" d="m 0.99998,1046.3622 0,3 3,0 0,-3 z" style="fill:#b3b3b3;fill-opacity:1;stroke:none"/><path id="rect4093" d="m 12.999974,1043.3622 3,0 0,3 -3,0 z" style="fill:#ccc;fill-opacity:1;stroke:none"/><path id="rect4099" d="m 15.999974,1043.3622 3,0 0,3 -3,0 z" style="fill:#e6e6e6;fill-opacity:1;stroke:none"/><path id="rect4105" d="m 21.999974,1043.3622 3,0 0,3 -3,0 z" style="fill:#f2f2f2;fill-opacity:1;stroke:none"/><path id="rect4109" d="m 21.999974,1040.3622 3,0 0,3 -3,0 z" style="fill:#ccc;fill-opacity:1;stroke:none"/><path id="rect4113" d="m 18.999974,1034.3622 3,0 0,3 -3,0 z" style="fill:#b3b3b3;fill-opacity:1;stroke:none"/><path id="rect4115" d="m 21.999974,1037.3622 3,0 0,3 -3,0 z" style="fill:#333;fill-opacity:1;stroke:none"/><path id="rect4117" d="m 21.999974,1034.3622 3,0 0,3 -3,0 z" style="fill:#ececec;fill-opacity:1;stroke:none"/><path id="rect4119" d="m 9.999974,1034.3622 3,0 0,3 -3,0 z" style="fill:gray;fill-opacity:1;stroke:none"/><path id="rect4377" d="m 21.999974,1043.3622 3,0 0,3 -3,0 z" style="fill:#b3b3b3;fill-opacity:1;stroke:none"/><path id="rect4379" d="m 18.999974,1046.3622 3,0 0,3 -3,0 z" style="fill:#999;fill-opacity:1;stroke:none"/><path id="rect4381" d="m 15.999974,1046.3622 3,0 0,3 -3,0 z" style="fill:#f2f2f2;fill-opacity:1;stroke:none"/><path id="rect4383" d="m 15.999974,1043.3622 3,0 0,3 -3,0 z" style="fill:#666;fill-opacity:1;stroke:none"/><path id="rect4387" d="m 18.999974,1049.3622 3,0 0,3 -3,0 z" style="fill:#ccc;fill-opacity:1;stroke:none"/><path id="rect4389" d="m 15.999974,1049.3622 3,0 0,3 -3,0 z" style="fill:#b3b3b3;fill-opacity:1;stroke:none"/><path id="rect4391" d="m 21.999974,1046.3622 3,0 0,3 -3,0 z" style="fill:#4d4d4d;fill-opacity:1;stroke:none"/><path id="rect4393" d="m 21.999974,1049.3622 3,0 0,3 -3,0 z" style="fill:#e6e6e6;fill-opacity:1;stroke:none"/><path id="rect4395" d="m 21.999974,1040.3622 3,0 0,3 -3,0 z" style="fill:#e6e6e6;fill-opacity:1;stroke:none"/><path id="rect4397" d="m 24.999974,1046.3622 3,0 0,3 -3,0 z" style="fill:#999;fill-opacity:1;stroke:none"/><path id="rect4399" d="m 27.999974,1049.3622 3,0 0,3 -3,0 z" style="fill:#f2f2f2;fill-opacity:1;stroke:none"/><path id="rect4401" d="m 24.999974,1049.3622 3,0 0,3 -3,0 z" style="fill:#ccc;fill-opacity:1;stroke:none"/><path id="rect4403" d="m 27.999974,1046.3622 3,0 0,3 -3,0 z" style="fill:#ccc;fill-opacity:1;stroke:none"/><path id="rect4405" d="m 24.999974,1043.3622 3,0 0,3 -3,0 z" style="fill:#666;fill-opacity:1;stroke:none"/><path id="rect4407" d="m 24.999974,1040.3622 3,0 0,3 -3,0 z" style="fill:#b3b3b3;fill-opacity:1;stroke:none"/><path id="rect4409" d="m 27.999974,1043.3622 3,0 0,3 -3,0 z" style="fill:#333;fill-opacity:1;stroke:none"/><path id="rect4411" d="m 27.999974,1040.3622 3,0 0,3 -3,0 z" style="fill:#ececec;fill-opacity:1;stroke:none"/><path id="rect4417" d="m 18.999974,1034.3622 3,0 0,3 -3,0 z" style="fill:#fff;fill-opacity:1;stroke:none"/><path id="rect4419" d="m 21.999974,1034.3622 3,0 0,3 -3,0 z" style="fill:#b3b3b3;fill-opacity:1;stroke:none"/><path id="rect4433" d="m 21.999974,1037.3622 3,0 0,3 -3,0 z" style="fill:#4d4d4d;fill-opacity:1;stroke:none"/><path id="rect4435" d="m 21.999974,1040.3622 3,0 0,3 -3,0 z" style="fill:#e6e6e6;fill-opacity:1;stroke:none"/><path id="rect4439" d="m 24.999974,1037.3622 3,0 0,3 -3,0 z" style="fill:#999;fill-opacity:1;stroke:none"/><path id="rect4441" d="m 27.999974,1040.3622 3,0 0,3 -3,0 z" style="fill:#f2f2f2;fill-opacity:1;stroke:none"/><path id="rect4443" d="m 24.999974,1040.3622 3,0 0,3 -3,0 z" style="fill:#ccc;fill-opacity:1;stroke:none"/><path id="rect4445" d="m 27.999974,1037.3622 3,0 0,3 -3,0 z" style="fill:#ccc;fill-opacity:1;stroke:none"/><path id="rect4447" d="m 24.999974,1034.3622 3,0 0,3 -3,0 z" style="fill:#666;fill-opacity:1;stroke:none"/><path id="rect4449" d="m 24.999974,1031.3622 3,0 0,3 -3,0 z" style="fill:#b3b3b3;fill-opacity:1;stroke:none"/><path id="rect4451" d="m 27.999974,1034.3622 3,0 0,3 -3,0 z" style="fill:#333;fill-opacity:1;stroke:none"/><path id="rect4453" d="m 27.999974,1031.3622 3,0 0,3 -3,0 z" style="fill:#ececec;fill-opacity:1;stroke:none"/><path id="rect4455" d="m 15.999974,1031.3622 3,0 0,3 -3,0 z" style="fill:gray;fill-opacity:1;stroke:none"/></g><path style="fill:#000;stroke:none" id="rect3887" d="m 7,1020.3622 c -3.878,0 -7,3.122 -7,7 l 0,25 2,0 0,-25 c 0,-2.77 2.23,-5 5,-5 l 18,0 c 2.77,0 5,2.23 5,5 l 0,25 2,0 0,-25 c 0,-3.878 -3.122,-7 -7,-7 z"/><path style="opacity:.34999999999999998;fill:url(#linearGradient3147);fill-opacity:1;stroke:none" id="rect3098" d="m 7,1021.3622 c -3.324,0 -6,2.676 -6,6 l 0,25 1,0 0,-25 c 0,-2.77 2.23,-5 5,-5 l 18,0 c 2.77,0 5,2.23 5,5 l 0,25 1,0 0,-25 c 0,-3.324 -2.676,-6 -6,-6 l -18,0 z"/><rect style="fill:url(#linearGradient3898);fill-opacity:1;stroke:none" id="rect3890" width="32" height="6" x="0" y="26" transform="translate(0,1020.3622)"/></g></svg>