<svg height="64" width="64" xmlns="http://www.w3.org/2000/svg" xmlns:xlink="http://www.w3.org/1999/xlink">
  <filter id="a">
    <feGaussianBlur stdDeviation=".505"/>
  </filter>
  <filter id="b" height="1.404201" width="1.402204" x="-.201102" y="-.202101">
    <feGaussianBlur stdDeviation="1.0604979"/>
  </filter>
  <filter id="c" height="1.230972" width="1.229831" x="-.114915" y="-.115486">
    <feGaussianBlur stdDeviation=".6059988"/>
  </filter>
  <filter id="d">
    <feGaussianBlur stdDeviation="1.44"/>
  </filter>
  <radialGradient id="e" cx="32" cy="32" gradientTransform="matrix(1.1486906 1.2798015 -.74419869 .66795831 19.056258 -30.328315)" gradientUnits="userSpaceOnUse" r="20">
    <stop offset="0"/>
    <stop offset="1" stop-color="#0f5f52"/>
  </radialGradient>
  <filter id="f" height="1.249814" width="1.269319" x="-.13466" y="-.124907">
    <feGaussianBlur stdDeviation="1.763901"/>
  </filter>
  <filter id="g" height="1.356082" width="1.354322" x="-.177161" y="-.178041">
    <feGaussianBlur stdDeviation=".93424815"/>
  </filter>
  <metadata/>
  <path d="m56 32a24 24 0 1 1 -48 0 24 24 0 1 1 48 0z" fill="#032620" filter="url(#d)" transform="matrix(1.1666667 0 0 1.1666667 -5.333334 -5.33333)"/>
  <path d="m52 32c0 11.045695-8.954305 20-20 20s-20-8.954305-20-20 8.954305-20 20-20 20 8.954305 20 20z" fill="url(#e)" transform="matrix(1.19999997 0 0 1.2000008 -6.4 -6.400004)"/>
  <g fill="#0fc">
    <path d="m28 16c-6.627417 0-12 5.372583-12 12 0 .20181.0214.394383.03125.59375 3.96875-8.59375 5.96875-6.59375 12.625-12.5625-.219998-.012008-.433254-.03125-.65625-.03125z" filter="url(#a)" transform="matrix(1.19999997 0 0 1.2000008 -5.929771 -6.411892)"/>
    <path d="m28 1004.3622c-6.627417 0-12 5.3726-12 12 0 .2018.0214.3944.03125.5937 3.96875-8.5937 5.96875-6.5937 12.625-12.5625-.219998-.012-.433254-.031-.65625-.031z" filter="url(#b)" transform="matrix(1.51703698 0 0 1.51703802 -10.961401 -1511.239048)"/>
    <path d="m28 1004.3622c-6.627417 0-12 5.3726-12 12 0 .2018.0214.3944.03125.5937 3.96875-8.5937 5.96875-6.5937 12.625-12.5625-.219998-.012-.433254-.031-.65625-.031z" filter="url(#c)" transform="matrix(-1.87194667 0 0 -1.87194795 82.871731 1933.537009)"/>
  </g>
  <path d="m28 1004.3622c-6.627417 0-12 5.3726-12 12 0 .2018.0214.3944.03125.5937 3.96875-8.5937 5.96875-6.5937 12.625-12.5625-.219998-.012-.433254-.031-.65625-.031z" fill="#d7f4d7" filter="url(#c)" transform="matrix(-1.21475471 0 0 -1.21475554 70.284182 1270.868156)"/>
  <path d="m28 1004.3622c-6.627417 0-12 5.3726-12 12 0 .2018.0214.3944.03125.5937 5.570868-4.4816 8.905966-4.4575 12.625-12.5625-.219998-.012-.433254-.031-.65625-.031z" fill="#fff" filter="url(#g)" transform="matrix(.59662801 0 0 .59662842 6.714494 -584.094886)"/>
  <path d="m30 29 .450431-9.592672 1.996832 9.124272 2.552737-1.5316 1-6-1-4 1-2v3l1.125 3.375-.07418 2.744617 7.03198-2.245758-7.0828 4.126141-1 4 2 2h3.375l5.0625-3.0625-4.3125 4.375-6.125.6875s2.686048 7.256632 1.846439 8.096462c-.326542.326628-1.289256-3.475594-2.437243-4.77335-1.216438-1.375138-2.617876-.260612-2.846696-.260612-.602669 0-2.136064 2.519769-3.25945 4.522134-.205342.36601.728015 9.714733.308259 6.715119-.128601-.918994-1.611309-4.299753-1.611309-4.299753s0-2 0-3 2-3 2-4 0-3 0-3-4.25-1.125-5.25-1.125c-.47674 0-1.893857.89205-3.377184 1.040709-1.628071.163165-3.310316-.415709-3.310316-.415709l-1.288462 1.254808.225962 4.245192-2-4 2-3 3.8125-.0625 1.170423-6.693425 3.092068-2.055016-2.122126 3.038537-.913529 5.350612 5.960664-.578208z" fill-opacity=".866667" filter="url(#f)" opacity=".861789" transform="matrix(1.0195929 0 0 1.0195936 -.156743 -.626973)"/>
</svg>
