<svg xmlns="http://www.w3.org/2000/svg" xmlns:svg="http://www.w3.org/2000/svg" xmlns:xlink="http://www.w3.org/1999/xlink" id="svg2" width="64" height="64" version="1.1"><defs id="defs4"><linearGradient id="linearGradient4030"><stop id="stop4032" offset="0" style="stop-color:#000;stop-opacity:1"/><stop id="stop4034" offset="1" style="stop-color:#0c493f;stop-opacity:0"/></linearGradient><linearGradient id="linearGradient3954"><stop style="stop-color:#000;stop-opacity:1" id="stop3956" offset="0"/><stop style="stop-color:#0f5f52;stop-opacity:1" id="stop3958" offset="1"/></linearGradient><filter id="filter3884"><feGaussianBlur id="feGaussianBlur3886" stdDeviation=".505"/></filter><filter id="filter3898" width="1.402" height="1.404" x="-.201" y="-.202"><feGaussianBlur id="feGaussianBlur3900" stdDeviation="1.06"/></filter><filter id="filter3916" width="1.23" height="1.231" x="-.115" y="-.115"><feGaussianBlur id="feGaussianBlur3918" stdDeviation=".606"/></filter><filter id="filter3992"><feGaussianBlur id="feGaussianBlur3994" stdDeviation="1.44"/></filter><radialGradient id="radialGradient4024" cx="32" cy="32" r="20" fx="32" fy="32" gradientTransform="matrix(1.1486906,1.2798015,-0.74419869,0.66795831,19.056258,-30.328315)" gradientUnits="userSpaceOnUse" xlink:href="#linearGradient3954"/><filter id="filter4082" width="1.269" height="1.25" x="-.135" y="-.125"><feGaussianBlur id="feGaussianBlur4084" stdDeviation="1.764"/></filter><filter id="filter4110" width="1.354" height="1.356" x="-.177" y="-.178"><feGaussianBlur id="feGaussianBlur4112" stdDeviation=".934"/></filter><linearGradient id="linearGradient3954-9"><stop style="stop-color:#000;stop-opacity:1" id="stop3956-4" offset="0"/><stop style="stop-color:#0f5f52;stop-opacity:1" id="stop3958-2" offset="1"/></linearGradient><radialGradient id="radialGradient4230" cx="32" cy="32" r="20" fx="32" fy="32" gradientTransform="matrix(1.1486906,1.2798015,-0.74419869,0.66795831,19.056258,-30.328315)" gradientUnits="userSpaceOnUse" xlink:href="#linearGradient3954"/><radialGradient id="radialGradient4250" cx="32" cy="32" r="20" fx="32" fy="32" gradientTransform="matrix(1.1486906,1.2798015,-0.74419869,0.66795831,19.056258,-30.328315)" gradientUnits="userSpaceOnUse" xlink:href="#linearGradient3954"/></defs><metadata id="metadata7"/><g id="layer1" transform="translate(0,-988.36218)"><path style="fill:#032620;fill-opacity:1;stroke:none;filter:url(#filter3992)" id="path3005" d="M 56,32 A 24,24 0 1 1 8,32 24,24 0 1 1 56,32 z" transform="matrix(1.1666667,0,0,1.1666667,-5.3333344,983.02885)"/><g id="g4116" transform="matrix(1.0195929,0,0,1.0195936,-0.15674338,-19.992546)"><path id="path3014" d="M 52,32 C 52,43.045695 43.045695,52 32,52 20.954305,52 12,43.045695 12,32 12,20.954305 20.954305,12 32,12 c 11.045695,0 20,8.954305 20,20 z" transform="matrix(1.1769403,0,0,1.1769403,-6.1232836,982.70009)" style="fill:url(#radialGradient4024);fill-opacity:1;stroke:none"/><path id="path3866" d="m 28,16 c -6.627417,0 -12,5.372583 -12,12 0,0.20181 0.0214,0.394383 0.03125,0.59375 C 20,20 22,22 28.65625,16.03125 28.436252,16.019242 28.222996,16 28,16 z" transform="matrix(1.1769403,0,0,1.1769403,-5.6620909,982.68843)" style="fill:#0fc;fill-opacity:1;stroke:none;filter:url(#filter3884)"/><path transform="matrix(1.487885,0,0,1.487885,-10.597031,-493.22036)" style="fill:#0fc;fill-opacity:1;stroke:none;filter:url(#filter3898)" id="path3888" d="m 28,1004.3622 c -6.627417,0 -12,5.3726 -12,12 0,0.2018 0.0214,0.3944 0.03125,0.5937 3.96875,-8.5937 5.96875,-6.5937 12.625,-12.5625 -0.219998,-0.012 -0.433254,-0.031 -0.65625,-0.031 z"/><path id="path3902" d="m 28,1004.3622 c -6.627417,0 -12,5.3726 -12,12 0,0.2018 0.0214,0.3944 0.03125,0.5937 3.96875,-8.5937 5.96875,-6.5937 12.625,-12.5625 -0.219998,-0.012 -0.433254,-0.031 -0.65625,-0.031 z" style="fill:#0fc;fill-opacity:1;stroke:none;filter:url(#filter3916)" transform="matrix(-1.8359746,0,0,-1.8359746,81.432966,2885.3572)"/><path transform="matrix(-1.1914115,0,0,-1.1914115,69.087304,2235.4229)" style="fill:#d7f4d7;fill-opacity:1;stroke:none;filter:url(#filter3916)" id="path3920" d="m 28,1004.3622 c -6.627417,0 -12,5.3726 -12,12 0,0.2018 0.0214,0.3944 0.03125,0.5937 3.96875,-8.5937 5.96875,-6.5937 12.625,-12.5625 -0.219998,-0.012 -0.433254,-0.031 -0.65625,-0.031 z"/><path id="path3964" d="m 28,1004.3622 c -6.627417,0 -12,5.3726 -12,12 0,0.2018 0.0214,0.3944 0.03125,0.5937 5.570868,-4.4816 8.905966,-4.4575 12.625,-12.5625 -0.219998,-0.012 -0.433254,-0.031 -0.65625,-0.031 z" style="fill:#fff;fill-opacity:1;stroke:none;filter:url(#filter4110)" transform="matrix(0.58516297,0,0,0.58516297,6.7391969,416.10681)"/><path id="path4036" d="M 30,29 30.450431,19.407328 32.447263,28.5316 35,27 l 1,-6 -1,-4 1,-2 0,3 1.125,3.375 -0.07418,2.744617 L 44.0828,21.873859 37,26 l -1,4 2,2 3.375,0 5.0625,-3.0625 -4.3125,4.375 L 36,34 c 0,0 2.686048,7.256632 1.846439,8.096462 -0.326542,0.326628 -1.289256,-3.475594 -2.437243,-4.77335 C 34.192758,35.947974 32.79132,37.0625 32.5625,37.0625 c -0.602669,0 -2.136064,2.519769 -3.25945,4.522134 -0.205342,0.36601 0.728015,9.714733 0.308259,6.715119 C 29.482708,47.380759 28,44 28,44 c 0,0 0,-2 0,-3 0,-1 2,-3 2,-4 0,-1 0,-3 0,-3 0,0 -4.25,-1.125 -5.25,-1.125 -0.47674,0 -1.893857,0.89205 -3.377184,1.040709 C 19.744745,34.078874 18.0625,33.5 18.0625,33.5 L 16.774038,34.754808 17,39 l -2,-4 2,-3 3.8125,-0.0625 1.170423,-6.693425 3.092068,-2.055016 -2.122126,3.038537 -0.913529,5.350612 L 28,31 z" transform="translate(0,988.36218)" style="opacity:.86178864;fill:#000;fill-opacity:.86666667;stroke:none;filter:url(#filter4082)"/></g></g></svg>