<svg height="128" viewBox="0 0 127.99999 128" width="128" xmlns="http://www.w3.org/2000/svg">
  <metadata/>
  <path d="m93.706631 98.374916c.000002 12.224574-12.676714 22.134544-28.314236 22.134544s-28.314238-9.90997-28.314236-22.134544c.000001-12.224569 11.178608-36.815994 26.816128-36.815994 15.637521 0 29.812343 24.591425 29.812344 36.815994z" fill="#fff" stroke-width="1.171751"/>
  <g fill="#ff7500" fill-rule="evenodd" transform="matrix(.22142825 0 0 .22142825 33.524659 -1.944402)">
    <path d="m285.26215 237.39406c-4.43799.93416-40.69637 2.61517-41.21184 41.12844-.51547 38.51328 52.00568 64.86852 53.07625 129.21055 1.02262 61.46009-43.4082 133.87308-118.22034 141.52542 51.89013-43.65773 59.51106-100.48068 13.98305-151.27119-23.73802-26.48184-56.20743-44.93245-54.2373-96.18644s80.13525-121.18396 146.61018-64.40678z"/>
    <path d="m49.139955 83.857637c5.14236 1.40482 47.15538 3.93282 47.75267 61.850853.59728 57.91808-115.98924 109.53719-117.22972 206.29773-1.18493 92.42657 41.90823 185.7443 128.593975 197.25225-60.125725-65.65455-60.566785-135.52723-7.81293-211.90838 27.50555-39.82463 120.85785-79.55639 118.57503-156.63454-2.28282-77.07814-92.8537-182.2420916-169.879025-96.857913z" stroke-width="1.320048"/>
    <path d="m244.91289 277.23386c-3.04702-.0596-26.88302-4.71504-34.06545 22.18053-7.18245 26.89556 22.22556 53.80661 11.48022 99.05033-10.26404 43.2172-51.9816 86.79466-101.90647 80.11983 41.44697-22.23442 56.49745-60.81281 35.97375-103.71573-10.70094-22.3693-28.49783-40.51738-18.10576-76.10378 10.3921-35.5864 73.56677-71.99754 106.62371-21.53118z" stroke-width=".695221"/>
    <path d="m54.097869 231.55891c2.12507.34666 19.5376-1.05581 19.45707 26.31399-.0805 27.36978-25.54842 49.88894-26.61138 95.75261-1.01537 43.80938 19.72217 92.1553 55.613891 92.23888-24.567811-27.34852-27.746321-67.23854-5.431271-106.64508 11.634931-20.5463 27.397951-36.00324 26.887941-72.33529-.51004-36.33204-37.482461-80.49317-69.916251-35.32511z" stroke-width=".584306"/>
  </g>
</svg>
