<?xml version="1.0" encoding="UTF-8" standalone="no"?>
<svg
   xmlns:dc="http://purl.org/dc/elements/1.1/"
   xmlns:cc="http://creativecommons.org/ns#"
   xmlns:rdf="http://www.w3.org/1999/02/22-rdf-syntax-ns#"
   xmlns:svg="http://www.w3.org/2000/svg"
   xmlns="http://www.w3.org/2000/svg"
   viewBox="0 0 127.99999 128"
   height="128"
   width="128"
   id="svg2"
   version="1.1">
  <metadata
     id="metadata8">
    <rdf:RDF>
      <cc:Work
         rdf:about="">
        <dc:format>image/svg+xml</dc:format>
        <dc:type
           rdf:resource="http://purl.org/dc/dcmitype/StillImage" />
        <dc:title></dc:title>
      </cc:Work>
    </rdf:RDF>
  </metadata>
  <defs
     id="defs6" />
  <path
     id="path4509"
     d="m 93.706631,98.374916 c 2e-6,12.224574 -12.676714,22.134544 -28.314236,22.134544 -15.637522,0 -28.314238,-9.90997 -28.314236,-22.134544 10e-7,-12.224569 11.178608,-36.815994 26.816128,-36.815994 15.637521,0 29.812343,24.591425 29.812344,36.815994 z"
     style="color:#000000;display:inline;overflow:visible;visibility:visible;opacity:1;fill:#ffffff;fill-opacity:1;fill-rule:nonzero;stroke-width:1.17175078;marker:none;enable-background:accumulate" />
  <g
     transform="matrix(0.22142825,0,0,0.22142825,33.524659,-1.9444021)"
     id="g4505">
    <path
       style="fill:#ff7500;fill-opacity:1;fill-rule:evenodd"
       d="m 285.26215,237.39406 c -4.43799,0.93416 -40.69637,2.61517 -41.21184,41.12844 -0.51547,38.51328 52.00568,64.86852 53.07625,129.21055 1.02262,61.46009 -43.4082,133.87308 -118.22034,141.52542 51.89013,-43.65773 59.51106,-100.48068 13.98305,-151.27119 -23.73802,-26.48184 -56.20743,-44.93245 -54.2373,-96.18644 1.97013,-51.25399 80.13525,-121.18396 146.61018,-64.40678 z"
       id="path4491" />
    <path
       id="path4493"
       d="m 49.139955,83.857637 c 5.14236,1.40482 47.15538,3.93282 47.75267,61.850853 0.59728,57.91808 -115.98924,109.53719 -117.22972,206.29773 -1.18493,92.42657 41.90823,185.7443 128.593975,197.25225 C 48.131155,483.60392 47.690095,413.73124 100.44395,337.35009 127.9495,297.52546 221.3018,257.7937 219.01898,180.71555 216.73616,103.63741 126.16528,-1.5265416 49.139955,83.857637 Z"
       style="fill:#ff7500;fill-opacity:1;fill-rule:evenodd;stroke-width:1.32004774" />
    <path
       id="path4497"
       d="m 244.91289,277.23386 c -3.04702,-0.0596 -26.88302,-4.71504 -34.06545,22.18053 -7.18245,26.89556 22.22556,53.80661 11.48022,99.05033 -10.26404,43.2172 -51.9816,86.79466 -101.90647,80.11983 41.44697,-22.23442 56.49745,-60.81281 35.97375,-103.71573 -10.70094,-22.3693 -28.49783,-40.51738 -18.10576,-76.10378 10.3921,-35.5864 73.56677,-71.99754 106.62371,-21.53118 z"
       style="fill:#ff7500;fill-opacity:1;fill-rule:evenodd;stroke-width:0.69522083" />
    <path
       style="fill:#ff7500;fill-opacity:1;fill-rule:evenodd;stroke-width:0.5843063"
       d="m 54.097869,231.55891 c 2.12507,0.34666 19.5376,-1.05581 19.45707,26.31399 -0.0805,27.36978 -25.54842,49.88894 -26.61138,95.75261 -1.01537,43.80938 19.72217,92.1553 55.613891,92.23888 C 77.989639,418.51587 74.811129,378.62585 97.126179,339.21931 108.76111,318.67301 124.52413,303.21607 124.01412,266.88402 123.50408,230.55198 86.531659,186.39085 54.097869,231.55891 Z"
       id="path4499" />
  </g>
</svg>
