<svg height="128" width="128" xmlns="http://www.w3.org/2000/svg" xmlns:xlink="http://www.w3.org/1999/xlink">
  <filter id="a" color-interpolation-filters="sRGB">
    <feGaussianBlur stdDeviation="3.4237769"/>
  </filter>
  <linearGradient id="b" gradientUnits="userSpaceOnUse" x1="567.10803" x2="567.10803" y1="231.67372" y2="300.68848">
    <stop offset="0" stop-color="#41cd55"/>
    <stop offset="1" stop-color="#018d15"/>
  </linearGradient>
  <linearGradient id="c" gradientUnits="userSpaceOnUse" x1="548.19916" x2="548.19916" y1="255.50847" y2="324.71759">
    <stop offset="0" stop-color="#418cc6"/>
    <stop offset="1" stop-color="#014b85"/>
  </linearGradient>
  <linearGradient id="d" gradientUnits="userSpaceOnUse" x1="600.95337" x2="600.95337" y1="257.41525" y2="324.16464">
    <stop offset="0" stop-color="#d24141"/>
    <stop offset="1" stop-color="#910101"/>
  </linearGradient>
  <metadata/>
  <g filter="url(#a)" opacity=".330544" transform="matrix(.83116569 0 0 .84633031 -405.872927 -167.575109)">
    <path d="m547.55325 231.83317c-.0986 2.38736 42.68285 2.06721 42.92078 0l3.59546 21.34804h-2.92131c-3.03427-7.13555-5.22493-14.772-17.52786-16.40428v59.32506l5.6179 1.34829v3.37075h-20.67388v-3.14603l5.73213-1.53592v-59.58687c-6.03051.84659-12.06101 1.92591-18.09152 15.95485h-2.69659z"/>
    <path d="m505.54497 324.79984h20.44916v-3.14603l-5.73026-1.0674v-28.9322l9.10101-.11236c3.72116 2.12145 5.47848 6.20675 6.51676 11.01109l2.6966-.22472v-24.26934h-3.14603c-1.29037 3.73961-.27178 8.24887-6.51677 10.33694l-8.65157-.11236v-27.13447c15.85546-.55543 21.31445.2909 29.77489 16.46046h2.92131l-4.71904-22.02218c-.99909 3.14752-12.86953 2.24716-42.69606 2.24716l.0281 2.72468c3.6912.29962 3.59931.57116 5.14038.87078l-.0562 59.2127-5.05612 1.51683z"/>
    <path d="m612.29661 257.60381-27.75.125v3.125l5.15625.90625v58.875l-5.40625 1.46875v2.46875h27.65625c32.83223-.42026 25.38759-33.26589 5.15625-36.40625 19.87788-2.96053 19.96965-30.36986-4.8125-30.5625zm-2.375 3.34375c16.40273 0 18.2699 25.53125-1.6875 25.53125h-9.21875v-25.5l10.90625-.0312zm-1.1875 28.84375c10.10368.81978 14.43973 6.63609 15.71875 15.6875 2.50148 17.70261-22.21516 16.36814-25.375 15.15625v-30.78125z"/>
  </g>
  <g transform="matrix(.83116569 0 0 .84633031 -408.919937 -174.997077)">
    <path d="m547.55325 231.83317c-.0986 2.38736 42.68285 2.06721 42.92078 0l3.59546 21.34804h-2.92131c-3.03427-7.13555-5.22493-14.772-17.52786-16.40428v59.32506l5.6179 1.34829v3.37075h-20.67388v-3.14603l5.73213-1.53592v-59.58687c-6.03051.84659-12.06101 1.92591-18.09152 15.95485h-2.69659z" fill="url(#b)"/>
    <path d="m505.54497 324.79984h20.44916v-3.14603l-5.73026-1.0674v-28.9322l9.0706-.0112c7.23229-.009 6.17144 5.6893 6.17144 10.66981h3.07233v-24.25397h-3.14603c.0737 4.503 1.04842 10.24675-6.09774 10.23698l-9.0706-.0124v-27.13447c15.85546-.55543 21.31445.2909 29.77489 16.46046h2.92131l-4.71904-22.02218c-.99909 3.14752-12.86953 2.24716-42.69606 2.24716l.0281 2.72468c3.6912.29962 3.59931.57116 5.14038.87078l-.0562 59.2127-5.05612 1.51683z" fill="url(#c)"/>
    <path d="m612.29661 257.60381-27.75.125v3.125l5.15625.90625v58.875l-5.40625 1.46875v2.46875h27.65625c32.83223-.42026 25.38759-33.26589 5.15625-36.40625 19.87788-2.96053 19.96965-30.36986-4.8125-30.5625zm-2.375 3.34375c16.40273 0 18.2699 25.53125-1.6875 25.53125h-9.21875v-25.5l10.90625-.0312zm-1.1875 28.84375c10.10368.81978 14.43973 6.63609 15.71875 15.6875 2.50148 17.70261-22.21516 16.36814-25.375 15.15625v-30.78125z" fill="url(#d)"/>
  </g>
</svg>
