<svg xmlns="http://www.w3.org/2000/svg" xmlns:svg="http://www.w3.org/2000/svg" xmlns:xlink="http://www.w3.org/1999/xlink" id="svg2985" width="32" height="32" version="1.1"><defs id="defs2987"><linearGradient id="linearGradient4462"><stop style="stop-color:#000;stop-opacity:1" id="stop4464" offset="0"/><stop style="stop-color:#000;stop-opacity:0" id="stop4466" offset="1"/></linearGradient><linearGradient id="linearGradient3981"><stop style="stop-color:#000083;stop-opacity:1" id="stop3983" offset="0"/><stop id="stop3985" offset=".25" style="stop-color:#1919ff;stop-opacity:1"/><stop id="stop3987" offset=".5" style="stop-color:#1919ff;stop-opacity:1"/><stop style="stop-color:#1919ff;stop-opacity:1" id="stop3989" offset=".75"/><stop style="stop-color:#00007d;stop-opacity:1" id="stop3991" offset="1"/></linearGradient><linearGradient id="linearGradient3941"><stop id="stop3943" offset="0" style="stop-color:#00830e;stop-opacity:1"/><stop style="stop-color:#00c017;stop-opacity:1" id="stop3945" offset=".25"/><stop style="stop-color:#00ff1e;stop-opacity:1" id="stop3947" offset=".5"/><stop id="stop3949" offset=".75" style="stop-color:#00ff1e;stop-opacity:1"/><stop id="stop3951" offset="1" style="stop-color:#007d0f;stop-opacity:1"/></linearGradient><linearGradient id="linearGradient3801"><stop style="stop-color:#830000;stop-opacity:1" id="stop3803" offset="0"/><stop id="stop3811" offset=".25" style="stop-color:red;stop-opacity:1"/><stop id="stop3809" offset=".5" style="stop-color:red;stop-opacity:1"/><stop style="stop-color:red;stop-opacity:1" id="stop3813" offset=".75"/><stop style="stop-color:#7d0000;stop-opacity:1" id="stop3805" offset="1"/></linearGradient><filter id="filter4107" width="1.289" height="1.248" x="-.144" y="-.124"><feGaussianBlur id="feGaussianBlur4109" stdDeviation="1.444"/></filter><filter id="filter4452"><feGaussianBlur id="feGaussianBlur4454" stdDeviation=".856"/></filter><linearGradient id="linearGradient4468" x1="-34.75" x2="72.5" y1="14" y2="18.5" gradientTransform="matrix(4.228145,0,0,1,111.61491,355.31802)" gradientUnits="userSpaceOnUse" xlink:href="#linearGradient4462"/><linearGradient id="linearGradient4476" x1="-8" x2="-4" y1="2" y2="6" gradientUnits="userSpaceOnUse" xlink:href="#linearGradient3801"/><linearGradient id="linearGradient4478" x1="-8" x2="-4" y1="2" y2="6" gradientUnits="userSpaceOnUse" xlink:href="#linearGradient3941"/><linearGradient id="linearGradient4480" x1="-8" x2="-4" y1="2" y2="6" gradientUnits="userSpaceOnUse" xlink:href="#linearGradient3981"/><filter id="filter4107-6" width="1.289" height="1.248" x="-.144" y="-.124" color-interpolation-filters="sRGB"><feGaussianBlur id="feGaussianBlur4109-1" stdDeviation="1.444"/></filter><linearGradient id="linearGradient3336" x1="-8" x2="4" y1="6" y2="17" gradientUnits="userSpaceOnUse" xlink:href="#linearGradient3941"/><linearGradient id="linearGradient3338" x1="-16" x2="-4" y1="2" y2="14" gradientUnits="userSpaceOnUse" xlink:href="#linearGradient3981"/><linearGradient id="linearGradient3340" x1="-8" x2="4" y1="6" y2="18" gradientUnits="userSpaceOnUse" xlink:href="#linearGradient3801"/><linearGradient id="linearGradient3342" x1="-8" x2="-4" y1="2" y2="6" gradientUnits="userSpaceOnUse" xlink:href="#linearGradient3801"/><linearGradient id="linearGradient3344" x1="-8" x2="-4" y1="2" y2="6" gradientUnits="userSpaceOnUse" xlink:href="#linearGradient3801"/></defs><metadata id="metadata2990"/><g id="layer1"><rect style="fill:url(#linearGradient4468);fill-opacity:1;stroke:none" id="rect4460" width="495.75" height="96.25" x="-76.538" y="319.068"/><g id="g3280" transform="translate(2,53)"><g id="g8144" transform="translate(-2,-53)" style="filter:url(#filter4107)"><path style="fill:#5353ff;fill-opacity:1;stroke:none" id="path8146" d="m 4,2 12,0 0,4 -8,0 0,4 4,0 0,4 -4,0 0,8 -4,0 z"/><path style="fill:#009a00;fill-opacity:1;stroke:none" id="path8148" d="m 8,6 12,0 0,4 -4,0 0,16 -4,0 0,-16 -4,0 z"/><path style="fill:#ac0000;fill-opacity:1;stroke:none" id="path8150" d="m 16,10 0,20 8,0 0,-4 -4,0 0,-4 4,0 0,-4 -4,0 0,-4 4,0 0,-4 -8,0 z m 8,4 0,4 4,0 0,-4 -4,0 z m 0,8 0,4 4,0 0,-4 -4,0 z"/></g><g id="g8256" transform="translate(32,-53)"><g id="g8258" transform="translate(-18,4)"><path id="path8260" d="m -8,2 4,0 8,0 0,4 -4,0 0,16 -4,0 0,-16 0,0 -4,0 z" style="fill:url(#linearGradient3336);fill-opacity:1;stroke:none"/><path style="fill:#fff;fill-opacity:.50196078;stroke:none" id="path8262" d="m -8,2 1,1 0,2 -1,1 z"/><path id="path8264" d="M 4,2 3,3 -7,3 -8,2 z" style="fill:#fff;fill-opacity:.50196078;stroke:none"/><path id="path8266" d="m -4,22 1,-1 2,0 1,1 z" style="fill:#000;fill-opacity:.3466667;stroke:none"/><path style="fill:#000;fill-opacity:.25777779;stroke:none" id="path8268" d="M 4,6 3,5 3,3 4,2 z"/><path style="fill:#000;fill-opacity:.3466667;stroke:none" id="path8270" d="m -8,6 1,-1 4,0 -1,1 z"/><path id="path8272" d="M 0,6 -1,5 3,5 4,6 z" style="fill:#000;fill-opacity:.3466667;stroke:none"/><path id="path8274" d="m -4,6 1,-1 0,16 -1,1 z" style="fill:#fff;fill-opacity:.50196078;stroke:none"/><path id="path8276" d="M 0,22 -1,21 -1,5 0,6 z" style="fill:#000;fill-opacity:.25777779;stroke:none"/></g><g id="g8278" transform="translate(-14,0)"><path id="path8280" d="m -16,2 12,0 0,4 -8,0 0,4 4,0 0,4 -4,0 0,8 -4,0 z" style="fill:url(#linearGradient3338);fill-opacity:1;stroke:none"/><path id="path8282" d="m -16,2 1,1 0,18 -1,1 z" style="fill:#fff;fill-opacity:.50222222;stroke:none"/><path style="fill:#fff;fill-opacity:.40888887;stroke:none" id="path8284" d="M -4,2 -5,3 -15,3 -16,2 z"/><path style="fill:#fff;fill-opacity:.3466667;stroke:none" id="path8286" d="m -16,22 1,-1 2,0 1,1 z"/><path id="path8288" d="M -4,6 -5,5 -5,3 -4,2 z" style="fill:#fff;fill-opacity:.25777779;stroke:none"/><path id="path8290" d="m -12,14 -1,-1 4,0 1,1 z" style="fill:#fff;fill-opacity:.3466667;stroke:none"/><path style="fill:#fff;fill-opacity:.3466667;stroke:none" id="path8292" d="m -12,6 -1,-1 8,0 1,1 z"/><path style="fill:#fff;fill-opacity:.25777779;stroke:none" id="path8294" d="m -8,14 -1,-1 0,-2 1,-1 z"/><path id="path8296" d="m -8,10 -1,1 -4,0 1,-1 z" style="fill:#fff;fill-opacity:.40888887;stroke:none"/><path style="fill:#fff;fill-opacity:.25777779;stroke:none" id="path8298" d="m -12,10 -1,1 0,-6 1,1 z"/><path id="path8300" d="m -12,22 -1,-1 0,-8 1,1 z" style="fill:#fff;fill-opacity:.25777779;stroke:none"/></g><g id="g8302"><g id="g8304" transform="translate(-10,8)"><path style="fill:url(#linearGradient3340);fill-opacity:1;stroke:none" id="path8306" d="m -8,2 8,0 0,4 -4,0 0,4 4,0 0,4 -4,0 0,4 4,0 0,4 -8,0 z"/><path style="fill:#fff;fill-opacity:.39111113;stroke:none" id="path8308" d="m -8,2 1,1 0,18 -1,1 z"/><path id="path8310" d="M 0,2 -1,3 -7,3 -8,2 z" style="fill:#fff;fill-opacity:.23999999;stroke:none"/><path id="path8312" d="m -8,22 1,-1 6,0 1,1 z" style="fill:#000;fill-opacity:.43111112;stroke:none"/><path style="fill:#000;fill-opacity:.25777779;stroke:none" id="path8314" d="M 0,6 -1,5 -1,3 0,2 z"/><path style="fill:#000;fill-opacity:.43111112;stroke:none" id="path8316" d="M -4,6 -5,5 -1,5 0,6 z"/><path id="path8318" d="m -4,14 -1,-1 4,0 1,1 z" style="fill:#000;fill-opacity:.43111112;stroke:none"/><path id="path8320" d="m -4,10 -1,1 0,-6 1,1 z" style="fill:#000;fill-opacity:.25777779;stroke:none"/><path style="fill:#000;fill-opacity:.25777779;stroke:none" id="path8322" d="m -4,18 -1,1 0,-6 1,1 z"/><path id="path8324" d="m 0,22 -1,-1 0,-2 1,-1 z" style="fill:#000;fill-opacity:.25777779;stroke:none"/><path style="fill:#fff;fill-opacity:.23999999;stroke:none" id="path8326" d="m 0,10 -1,1 -4,0 1,-1 z"/><path id="path8328" d="m 0,18 -1,1 -4,0 1,-1 z" style="fill:#fff;fill-opacity:.23999999;stroke:none"/><path id="path8330" d="m 0,14 -1,-1 0,-2 1,-1 z" style="fill:#000;fill-opacity:.25777779;stroke:none"/></g><g id="g8332" transform="translate(-2,12)"><rect style="fill:url(#linearGradient3342);fill-opacity:1;stroke:none" id="rect8334" width="4" height="4" x="-8" y="2"/><path style="fill:#fff;fill-opacity:.39111113;stroke:none" id="path8336" d="m -8,2 1,1 0,2 -1,1 z"/><path id="path8338" d="M -4,2 -5,3 -7,3 -8,2 z" style="fill:#fff;fill-opacity:.23999999;stroke:none"/><path id="path8340" d="m -8,6 1,-1 2,0 1,1 z" style="fill:#000;fill-opacity:.43111112;stroke:none"/><path style="fill:#000;fill-opacity:.25777779;stroke:none" id="path8342" d="M -4,6 -5,5 -5,3 -4,2 z"/></g><g id="g8344" transform="translate(-2,20)"><rect id="rect8346" width="4" height="4" x="-8" y="2" style="fill:url(#linearGradient3344);fill-opacity:1;stroke:none"/><path id="path8348" d="m -8,2 1,1 0,2 -1,1 z" style="fill:#fff;fill-opacity:.39111113;stroke:none"/><path style="fill:#fff;fill-opacity:.23999999;stroke:none" id="path8350" d="M -4,2 -5,3 -7,3 -8,2 z"/><path style="fill:#000;fill-opacity:.43111112;stroke:none" id="path8352" d="m -8,6 1,-1 2,0 1,1 z"/><path id="path8354" d="M -4,6 -5,5 -5,3 -4,2 z" style="fill:#000;fill-opacity:.25777779;stroke:none"/></g></g></g></g></g></svg>