<svg height="32" width="32" xmlns="http://www.w3.org/2000/svg" xmlns:xlink="http://www.w3.org/1999/xlink">
  <linearGradient id="a">
    <stop offset="0" stop-color="#830000"/>
    <stop offset=".25" stop-color="#f00"/>
    <stop offset=".5" stop-color="#f00"/>
    <stop offset=".75" stop-color="#f00"/>
    <stop offset="1" stop-color="#7d0000"/>
  </linearGradient>
  <filter id="b" height="1.247619" width="1.288889" x="-.144444" y="-.12381">
    <feGaussianBlur stdDeviation="1.4444444"/>
  </filter>
  <linearGradient id="c" gradientTransform="matrix(4.228145 0 0 1 111.61491 355.31802)" gradientUnits="userSpaceOnUse" x1="-34.75" x2="72.5" y1="14" y2="18.5">
    <stop offset="0"/>
    <stop offset="1" stop-opacity="0"/>
  </linearGradient>
  <linearGradient id="d" gradientUnits="userSpaceOnUse" x1="-8" x2="4" y1="6" y2="17">
    <stop offset="0" stop-color="#00830e"/>
    <stop offset=".25" stop-color="#00c017"/>
    <stop offset=".5" stop-color="#00ff1e"/>
    <stop offset=".75" stop-color="#00ff1e"/>
    <stop offset="1" stop-color="#007d0f"/>
  </linearGradient>
  <linearGradient id="e" gradientUnits="userSpaceOnUse" x1="-16" x2="-4" y1="2" y2="14">
    <stop offset="0" stop-color="#000083"/>
    <stop offset=".25" stop-color="#1919ff"/>
    <stop offset=".5" stop-color="#1919ff"/>
    <stop offset=".75" stop-color="#1919ff"/>
    <stop offset="1" stop-color="#00007d"/>
  </linearGradient>
  <linearGradient id="f" gradientUnits="userSpaceOnUse" x1="-8" x2="4" xlink:href="#a" y1="6" y2="18"/>
  <linearGradient id="g" gradientUnits="userSpaceOnUse" x1="-8" x2="-4" xlink:href="#a" y1="2" y2="6"/>
  <metadata/>
  <rect fill="url(#c)" height="96.25" width="495.75" x="-76.537521" y="319.06802"/>
  <g filter="url(#b)">
    <path d="m4 2h12v4h-8v4h4v4h-4v8h-4z" fill="#5353ff"/>
    <path d="m8 6h12v4h-4v16h-4v-16h-4z" fill="#009a00"/>
    <path d="m16 10v20h8v-4h-4v-4h4v-4h-4v-4h4v-4zm8 4v4h4v-4zm0 8v4h4v-4z" fill="#ac0000"/>
  </g>
  <g transform="translate(16 4)">
    <path d="m-8 2h4 8v4h-4v16h-4v-16h-4z" fill="url(#d)"/>
    <path d="m-8 2 1 1v2l-1 1z" fill="#fff" fill-opacity=".501961"/>
    <path d="m4 2-1 1h-10l-1-1z" fill="#fff" fill-opacity=".501961"/>
    <path d="m-4 22 1-1h2l1 1z" fill-opacity=".346667"/>
    <path d="m4 6-1-1v-2l1-1z" fill-opacity=".257778"/>
    <path d="m-8 6 1-1h4l-1 1z" fill-opacity=".346667"/>
    <path d="m0 6-1-1h4l1 1z" fill-opacity=".346667"/>
    <path d="m-4 6 1-1v16l-1 1z" fill="#fff" fill-opacity=".501961"/>
    <path d="m0 22-1-1v-16l1 1z" fill-opacity=".257778"/>
  </g>
  <g transform="translate(20)">
    <path d="m-16 2h12v4h-8v4h4v4h-4v8h-4z" fill="url(#e)"/>
    <g fill="#fff">
      <path d="m-16 2 1 1v18l-1 1z" fill-opacity=".502222"/>
      <path d="m-4 2-1 1h-10l-1-1z" fill-opacity=".408889"/>
      <path d="m-16 22 1-1h2l1 1z" fill-opacity=".346667"/>
      <path d="m-4 6-1-1v-2l1-1z" fill-opacity=".257778"/>
      <path d="m-12 14-1-1h4l1 1z" fill-opacity=".346667"/>
      <path d="m-12 6-1-1h8l1 1z" fill-opacity=".346667"/>
      <path d="m-8 14-1-1v-2l1-1z" fill-opacity=".257778"/>
      <path d="m-8 10-1 1h-4l1-1z" fill-opacity=".408889"/>
      <g fill-opacity=".257778">
        <path d="m-12 10-1 1v-6l1 1z"/>
        <path d="m-12 22-1-1v-8l1 1z"/>
      </g>
    </g>
  </g>
  <g transform="translate(24 8)">
    <path d="m-8 2h8v4h-4v4h4v4h-4v4h4v4h-8z" fill="url(#f)"/>
    <path d="m-8 2 1 1v18l-1 1z" fill="#fff" fill-opacity=".391111"/>
    <path d="m0 2-1 1h-6l-1-1z" fill="#fff" fill-opacity=".24"/>
    <path d="m-8 22 1-1h6l1 1z" fill-opacity=".431111"/>
    <path d="m0 6-1-1v-2l1-1z" fill-opacity=".257778"/>
    <path d="m-4 6-1-1h4l1 1z" fill-opacity=".431111"/>
    <path d="m-4 14-1-1h4l1 1z" fill-opacity=".431111"/>
    <g fill-opacity=".257778">
      <path d="m-4 10-1 1v-6l1 1z"/>
      <path d="m-4 18-1 1v-6l1 1z"/>
      <path d="m0 22-1-1v-2l1-1z"/>
    </g>
    <path d="m0 10-1 1h-4l1-1z" fill="#fff" fill-opacity=".24"/>
    <path d="m0 18-1 1h-4l1-1z" fill="#fff" fill-opacity=".24"/>
    <path d="m0 14-1-1v-2l1-1z" fill-opacity=".257778"/>
  </g>
  <g transform="translate(32 12)">
    <rect fill="url(#g)" height="4" width="4" x="-8" y="2"/>
    <path d="m-8 2 1 1v2l-1 1z" fill="#fff" fill-opacity=".391111"/>
    <path d="m-4 2-1 1h-2l-1-1z" fill="#fff" fill-opacity=".24"/>
    <path d="m-8 6 1-1h2l1 1z" fill-opacity=".431111"/>
    <path d="m-4 6-1-1v-2l1-1z" fill-opacity=".257778"/>
  </g>
  <g transform="translate(32 20)">
    <rect fill="url(#g)" height="4" width="4" x="-8" y="2"/>
    <path d="m-8 2 1 1v2l-1 1z" fill="#fff" fill-opacity=".391111"/>
    <path d="m-4 2-1 1h-2l-1-1z" fill="#fff" fill-opacity=".24"/>
    <path d="m-8 6 1-1h2l1 1z" fill-opacity=".431111"/>
    <path d="m-4 6-1-1v-2l1-1z" fill-opacity=".257778"/>
  </g>
</svg>
