<svg xmlns="http://www.w3.org/2000/svg" xmlns:svg="http://www.w3.org/2000/svg" xmlns:xlink="http://www.w3.org/1999/xlink" id="svg2" width="128" height="128" version="1.1"><metadata id="metadata8"/><defs id="defs6"><linearGradient id="linearGradient3027"><stop style="stop-color:#418cc6;stop-opacity:1" id="stop3029" offset="0"/><stop style="stop-color:#014b85;stop-opacity:1" id="stop3031" offset="1"/></linearGradient><linearGradient id="linearGradient3019"><stop style="stop-color:#41cd55;stop-opacity:1" id="stop3021" offset="0"/><stop style="stop-color:#018d15;stop-opacity:1" id="stop3023" offset="1"/></linearGradient><linearGradient id="linearGradient3011"><stop style="stop-color:#d24141;stop-opacity:1" id="stop3013" offset="0"/><stop style="stop-color:#910101;stop-opacity:1" id="stop3015" offset="1"/></linearGradient><filter id="filter3826" color-interpolation-filters="sRGB"><feGaussianBlur id="feGaussianBlur3828" stdDeviation="3.424"/></filter><linearGradient id="linearGradient3830" x1="567.108" x2="567.108" y1="231.674" y2="300.688" gradientUnits="userSpaceOnUse" xlink:href="#linearGradient3019"/><linearGradient id="linearGradient3832" x1="548.199" x2="548.199" y1="255.508" y2="324.718" gradientUnits="userSpaceOnUse" xlink:href="#linearGradient3027"/><linearGradient id="linearGradient3834" x1="600.953" x2="600.953" y1="257.415" y2="324.165" gradientUnits="userSpaceOnUse" xlink:href="#linearGradient3011"/><linearGradient id="linearGradient3848" x1="567.108" x2="567.108" y1="231.674" y2="300.688" gradientUnits="userSpaceOnUse" xlink:href="#linearGradient3019"/><linearGradient id="linearGradient3850" x1="548.199" x2="548.199" y1="255.508" y2="324.718" gradientUnits="userSpaceOnUse" xlink:href="#linearGradient3027"/><linearGradient id="linearGradient3852" x1="600.953" x2="600.953" y1="257.415" y2="324.165" gradientUnits="userSpaceOnUse" xlink:href="#linearGradient3011"/></defs><g id="g3838" transform="matrix(1,0,0,1.018245,3.8570626,-2.6546202)"><g style="opacity:.33054397;fill:#000;fill-opacity:1;filter:url(#filter3826)" id="g3040" transform="matrix(0.83116569,0,0,0.83116569,-409.72999,-161.96543)"><path id="path3042" d="m 547.55325,231.83317 c -0.0986,2.38736 42.68285,2.06721 42.92078,0 l 3.59546,21.34804 -2.92131,0 c -3.03427,-7.13555 -5.22493,-14.772 -17.52786,-16.40428 l 0,59.32506 5.6179,1.34829 0,3.37075 -20.67388,0 0,-3.14603 5.73213,-1.53592 0,-59.58687 c -6.03051,0.84659 -12.06101,1.92591 -18.09152,15.95485 l -2.69659,0 z" style="fill:#000;fill-opacity:1;stroke:none"/><path id="path3044" d="m 505.54497,324.79984 20.44916,0 0,-3.14603 -5.73026,-1.0674 0,-28.9322 9.10101,-0.11236 c 3.72116,2.12145 5.47848,6.20675 6.51676,11.01109 l 2.6966,-0.22472 0,-24.26934 -3.14603,0 c -1.29037,3.73961 -0.27178,8.24887 -6.51677,10.33694 l -8.65157,-0.11236 0,-27.13447 c 15.85546,-0.55543 21.31445,0.2909 29.77489,16.46046 l 2.92131,0 -4.71904,-22.02218 c -0.99909,3.14752 -12.86953,2.24716 -42.69606,2.24716 l 0.0281,2.72468 c 3.6912,0.29962 3.59931,0.57116 5.14038,0.87078 l -0.0562,59.2127 -5.05612,1.51683 z" style="fill:#000;fill-opacity:1;stroke:none"/><path id="path3046" d="m 612.29661,257.60381 -27.75,0.125 0,3.125 5.15625,0.90625 0,58.875 -5.40625,1.46875 0,2.46875 27.65625,0 c 32.83223,-0.42026 25.38759,-33.26589 5.15625,-36.40625 19.87788,-2.96053 19.96965,-30.36986 -4.8125,-30.5625 z m -2.375,3.34375 c 16.40273,0 18.2699,25.53125 -1.6875,25.53125 l -9.21875,0 0,-25.5 10.90625,-0.0312 z m -1.1875,28.84375 c 10.10368,0.81978 14.43973,6.63609 15.71875,15.6875 2.50148,17.70261 -22.21516,16.36814 -25.375,15.15625 l 0,-30.78125 9.65625,-0.0625 z" style="fill:#000;fill-opacity:1;stroke:none"/></g><g id="g3035" transform="matrix(0.83116569,0,0,0.83116569,-412.777,-169.25441)"><path style="fill:url(#linearGradient3848);fill-opacity:1;stroke:none" id="path2987" d="m 547.55325,231.83317 c -0.0986,2.38736 42.68285,2.06721 42.92078,0 l 3.59546,21.34804 -2.92131,0 c -3.03427,-7.13555 -5.22493,-14.772 -17.52786,-16.40428 l 0,59.32506 5.6179,1.34829 0,3.37075 -20.67388,0 0,-3.14603 5.73213,-1.53592 0,-59.58687 c -6.03051,0.84659 -12.06101,1.92591 -18.09152,15.95485 l -2.69659,0 z"/><path style="fill:url(#linearGradient3850);fill-opacity:1;stroke:none" id="path2989" d="m 505.54497,324.79984 20.44916,0 0,-3.14603 -5.73026,-1.0674 0,-28.9322 9.0706,-0.0112 c 7.23229,-0.009 6.17144,5.6893 6.17144,10.66981 l 3.07233,0 0,-24.25397 -3.14603,0 c 0.0737,4.503 1.04842,10.24675 -6.09774,10.23698 l -9.0706,-0.0124 0,-27.13447 c 15.85546,-0.55543 21.31445,0.2909 29.77489,16.46046 l 2.92131,0 -4.71904,-22.02218 c -0.99909,3.14752 -12.86953,2.24716 -42.69606,2.24716 l 0.0281,2.72468 c 3.6912,0.29962 3.59931,0.57116 5.14038,0.87078 l -0.0562,59.2127 -5.05612,1.51683 z"/><path style="fill:url(#linearGradient3852);fill-opacity:1;stroke:none" id="path2995" d="m 612.29661,257.60381 -27.75,0.125 0,3.125 5.15625,0.90625 0,58.875 -5.40625,1.46875 0,2.46875 27.65625,0 c 32.83223,-0.42026 25.38759,-33.26589 5.15625,-36.40625 19.87788,-2.96053 19.96965,-30.36986 -4.8125,-30.5625 z m -2.375,3.34375 c 16.40273,0 18.2699,25.53125 -1.6875,25.53125 l -9.21875,0 0,-25.5 10.90625,-0.0312 z m -1.1875,28.84375 c 10.10368,0.81978 14.43973,6.63609 15.71875,15.6875 2.50148,17.70261 -22.21516,16.36814 -25.375,15.15625 l 0,-30.78125 9.65625,-0.0625 z"/></g></g></svg>