<svg height="64" width="64" xmlns="http://www.w3.org/2000/svg" xmlns:xlink="http://www.w3.org/1999/xlink">
  <linearGradient id="a">
    <stop offset="0" stop-color="#fff306"/>
    <stop offset="1" stop-color="#ff7f01"/>
  </linearGradient>
  <filter id="b" color-interpolation-filters="sRGB">
    <feGaussianBlur stdDeviation="1.68"/>
  </filter>
  <linearGradient id="c" gradientUnits="userSpaceOnUse" x1="106.416365" x2="146.350763" y1="1055.1732" y2="1086.4796">
    <stop offset="0" stop-color="#13daba" stop-opacity=".501961"/>
    <stop offset="1" stop-color="#03251f"/>
  </linearGradient>
  <linearGradient id="d" gradientUnits="userSpaceOnUse" x1="108.25" x2="140.25" xlink:href="#a" y1="1056.3622" y2="1088.3622"/>
  <linearGradient id="e" gradientUnits="userSpaceOnUse" x1="140.000002" x2="107.625004" xlink:href="#a" y1="1086.862208" y2="1062.737209"/>
  <linearGradient id="f" gradientUnits="userSpaceOnUse" x1="120.25" x2="136.25" xlink:href="#a" y1="1068.3622" y2="1072.3622"/>
  <metadata/>
  <g transform="translate(-92.25 -1040.3622)">
    <path d="m120.25 1044.3622-4 4v4l-3-3h-6l-6 6v6l3 3h-4l-4 4v8l4 4h4l-3 3v6l6 6h6l3-3v4l4 4h8l4-4v-4l3 3h6l6-6v-6l-3-3h4l4-4v-8l-4-4h-4l3-3v-6l-6-6h-6l-3 3v-4l-4-4z" fill="url(#c)" filter="url(#b)"/>
    <path d="m120.25 1048.3622v4.4062c-.22274.045-.43627.1037-.65625.1563-.4105.098-.81848.19-1.21875.3125-.0218.01-.0408.024-.0625.031-.59186.1833-1.18309.3898-1.75.625-.50056.2088-.98977.4401-1.46875.6875-.0827.043-.16797.081-.25.125-.55648.2973-1.10149.6219-1.625.9687l-3.125-3.125-5.65625 5.6562 3.125 3.125c-.34167.5158-.67512 1.046-.96875 1.5938-.048.09-.0783.1905-.125.2812-.23239.45-.45783.9059-.65625 1.375-.0127.03-.0187.063-.0312.094-.23753.5694-.44005 1.1553-.625 1.75-.13065.4218-.24046.848-.34375 1.2812-.0526.22-.11102.4335-.15625.6563h-4.40625v8h4.40625c.0452.2227.10369.4363.15625.6562.0979.4105.19004.8185.3125 1.2188.007.022.0245.041.0312.062.18332.5918.38983 1.1831.625 1.75.2088.5005.44015.9897.6875 1.4687.0467.091.077.1914.125.2813.0175.033.0448.061.0625.094.27878.5148.58417 1.0139.90625 1.5l-3.125 3.125 5.65625 5.6563 3.125-3.125c.52351.3468 1.06852.6714 1.625.9687.082.044.16729.082.25.125.45001.2324.90589.4579 1.375.6563.0303.013.0634.019.0937.031.56941.2376 1.15536.4401 1.75.625.42179.1307.84805.2405 1.28125.3438.21027.05.41221.1127.625.1562h.0312v4.4063h8v-4.4063c.22283-.045.43616-.1037.65625-.1562.92356-.2207 1.81865-.4999 2.6875-.8438.61879-.2435 1.22575-.5106 1.8125-.8125.0825-.043.16813-.081.25-.125.55807-.2971 1.10017-.621 1.625-.9687l3.125 3.125 5.65625-5.6563-3.125-3.125c.34276-.5174.6751-1.044.96875-1.5937.0483-.09.0781-.1904.125-.2813.30187-.5867.56896-1.1937.8125-1.8125.34385-.8688.62307-1.7639.84375-2.6875.0525-.2201.111-.4334.15625-.6562h4.40625v-8h-4.40625c-.002-.01.002-.021 0-.031-.0435-.2127-.10613-.4148-.15625-.625-.22068-.9235-.4999-1.8186-.84375-2.6875-.24354-.6188-.51063-1.2257-.8125-1.8125-.0469-.091-.0767-.1912-.125-.2812-.29365-.5497-.62599-1.0764-.96875-1.5938l3.125-3.125-5.65625-5.6562-3.125 3.125c-.48499-.3213-.98661-.6273-1.5-.9062-.0409-.022-.0839-.041-.125-.062-.0819-.044-.16745-.082-.25-.125-.58675-.3019-1.19371-.569-1.8125-.8125-.86885-.3439-1.76394-.6231-2.6875-.8438-.21019-.05-.4123-.1127-.625-.1562-.01 0-.0214 0-.0312 0v-4.4063h-8zm4 20c2.20914 0 4 1.7908 4 4 0 2.2091-1.79086 4-4 4-.27614 0-.55211-.041-.8125-.094-1.82273-.373-3.1875-1.9732-3.1875-3.9062 0-.2762.0405-.5521.0937-.8125.37299-1.8228 1.97325-3.1875 3.90625-3.1875z" fill="url(#d)"/>
    <path d="m124.25 1056.3622c-8.83656 0-16 7.1634-16 16 0 8.8365 7.16344 16 16 16s16-7.1635 16-16c0-8.8366-7.16344-16-16-16zm0 12c2.20914 0 4 1.7908 4 4 0 2.2091-1.79086 4-4 4s-4-1.7909-4-4c0-2.2092 1.79086-4 4-4z" fill="url(#e)"/>
    <path d="m124.25 1064.3622c-4.41828 0-8 3.5817-8 8s3.58172 8 8 8 8-3.5817 8-8-3.58172-8-8-8zm0 4c2.20914 0 4 1.7908 4 4 0 2.2091-1.79086 4-4 4s-4-1.7909-4-4c0-2.2092 1.79086-4 4-4z" fill="url(#f)"/>
    <g fill-opacity=".391304">
      <path d="m124.25 1056.3622c-8.83656 0-16 7.1634-16 16 0 4.8907 2.19848 9.2526 5.65625 12.1875-2.28249-2.7658-3.65625-6.3215-3.65625-10.1875 0-8.8366 7.16344-16 16-16 3.86599 0 7.42176 1.3737 10.1875 3.6562-2.93487-3.4577-7.29683-5.6562-12.1875-5.6562z"/>
      <path d="m131.8125 1069.7997c.27256.8054.4375 1.665.4375 2.5625 0 4.4183-3.58172 8-8 8-2.72065 0-5.11721-1.3623-6.5625-3.4375 1.06926 3.1597 4.04169 5.4375 7.5625 5.4375 4.41828 0 8-3.5817 8-8 0-1.6976-.53567-3.2676-1.4375-4.5625z"/>
    </g>
  </g>
</svg>
