<svg xmlns="http://www.w3.org/2000/svg" xmlns:svg="http://www.w3.org/2000/svg" id="svg2" width="32" height="32" version="1.1"><defs id="defs4"><filter id="filter3927" width="1.217" height="1.217" x="-.109" y="-.109"><feGaussianBlur id="feGaussianBlur3929" stdDeviation="1.177"/></filter><filter id="filter4035" width="1.133" height="1.267" x="-.067" y="-.133"><feGaussianBlur id="feGaussianBlur4037" stdDeviation=".167"/></filter></defs><metadata id="metadata7"/><g id="layer1" transform="translate(0,-1020.3622)"><path style="fill:#170b28;fill-opacity:1;stroke:none;filter:url(#filter3927)" id="rect3223-4" d="m 5.0606609,1024.2461 -1,1 0,24 1,1 24.0000001,0 1,-1 0,-24 -1,-1 z"/><path style="fill:#2b1e0d;fill-opacity:1;stroke:none" id="rect3978" d="m 6,1024.3622 20,0 c 1,0 2,1 2,2 l 0,7 -3,0 0,-3 -18,0 0,3 -3,0 0,-7.005 c 0,-0.995 1,-1.995 2,-1.995 z"/><path transform="translate(0,1020.3622)" style="fill:#421d0a;fill-opacity:1;stroke:none" id="rect3981" d="m 10,22 3,0 0,3 6,0 0,-3 3,0 0,6 -12,0 z"/><path transform="translate(0,1020.3622)" style="fill:#9c694c;fill-opacity:1;stroke:none" id="rect3941" d="m 7,10 18,0 0,3 3,0 0,13 c 0,1 -1,2 -2,2 l -4,0 0,-6 -3,0 0,-3 6,0 0,-3 -6,0 0,3 -6,0 0,-3 -6,0 0,3 6,0 0,3 -3,0 0,6 -4,0 C 5,28 4,27 4,26 l 0,-10 0,-3 3,0 z"/><rect style="fill:#bb8972;fill-opacity:1;stroke:none" id="rect3939" width="24" height="24" x="42" y="1052.612"/><rect id="rect3011-9" width="3" height="3" x="7" y="1024.362" style="fill:#2b1e0d;fill-opacity:1;stroke:none"/><rect style="fill:#2f1f0f;fill-opacity:1;stroke:none" id="rect3013-0" width="3" height="3" x="10" y="1024.362"/><rect style="fill:#281c0b;fill-opacity:1;stroke:none" id="rect3017-9" width="3" height="3" x="13" y="1024.362"/><rect id="rect3019-6" width="3" height="3" x="16" y="1024.362" style="fill:#241808;fill-opacity:1;stroke:none"/><rect style="fill:#261a0a;fill-opacity:1;stroke:none" id="rect3021-8" width="3" height="3" x="19" y="1024.362"/><rect id="rect3023-6" width="3" height="3" x="22" y="1024.362" style="fill:#2b1e0d;fill-opacity:1;stroke:none"/><rect id="rect3027-7" width="3" height="3" x="4" y="1027.362" style="fill:#2b1e0d;fill-opacity:1;stroke:none"/><rect style="fill:#2b1e0d;fill-opacity:1;stroke:none" id="rect3029-6" width="3" height="3" x="7" y="1027.362"/><rect style="fill:#2b1e0d;fill-opacity:1;stroke:none" id="rect3033-4" width="3" height="3" x="10" y="1027.362"/><rect id="rect3035-4" width="3" height="3" x="13" y="1027.362" style="fill:#332411;fill-opacity:1;stroke:none"/><rect style="fill:#422a12;fill-opacity:1;stroke:none" id="rect3037-2" width="3" height="3" x="16" y="1027.362"/><rect id="rect3039-4" width="3" height="3" x="19" y="1027.362" style="fill:#3f2a15;fill-opacity:1;stroke:none"/><rect style="fill:#2c1e0e;fill-opacity:1;stroke:none" id="rect3041-2" width="3" height="3" x="22" y="1027.362"/><rect id="rect3043-1" width="3" height="3" x="25" y="1027.362" style="fill:#281c0b;fill-opacity:1;stroke:none"/><rect id="rect3045-3" width="3" height="3" x="4" y="1030.362" style="fill:#2b1e0d;fill-opacity:1;stroke:none"/><rect id="rect3061-7" width="3" height="3" x="25" y="1030.362" style="fill:#342512;fill-opacity:1;stroke:none"/><rect style="fill:#6a4030;fill-opacity:1;stroke:none" id="rect3177-4" width="6" height="3" x="13" y="1039.362"/><rect style="fill:#41210c;fill-opacity:1;stroke:none" id="rect3085" width="3" height="3" x="10" y="1042.362"/><rect style="fill:#8a4c3d;fill-opacity:1;stroke:none" id="rect3089" width="6" height="3" x="13" y="1042.362"/><rect id="rect3091" width="3" height="3" x="19" y="1042.362" style="fill:#41210c;fill-opacity:1;stroke:none"/><rect style="fill:#421d0a;fill-opacity:1;stroke:none" id="rect3093" width="3" height="3" x="13" y="1045.362"/><rect id="rect3095" width="3" height="3" x="19" y="1045.362" style="fill:#45220e;fill-opacity:1;stroke:none"/><rect style="fill:#45220e;fill-opacity:1;stroke:none" id="rect3097" width="3" height="3" x="10" y="1045.362"/><rect id="rect3099" width="3" height="3" x="16" y="1045.362" style="fill:#45220e;fill-opacity:1;stroke:none"/><g id="g3944" transform="translate(-28,1.7382813e-5)"><rect id="rect3047-1" width="3" height="3" x="35" y="1030.362" style="fill:#b6896c;fill-opacity:1;stroke:none"/><rect id="rect3051-9" width="3" height="3" x="38" y="1030.362" style="fill:#bd8e72;fill-opacity:1;stroke:none"/><rect style="fill:#c69680;fill-opacity:1;stroke:none" id="rect3053-2" width="3" height="3" x="41" y="1030.362"/><rect id="rect3055-9" width="3" height="3" x="44" y="1030.362" style="fill:#bd8b72;fill-opacity:1;stroke:none"/><rect style="fill:#bd8e74;fill-opacity:1;stroke:none" id="rect3057-7" width="3" height="3" x="47" y="1030.362"/><rect id="rect3059-2" width="3" height="3" x="50" y="1030.362" style="fill:#ac765a;fill-opacity:1;stroke:none"/><rect id="rect3063-8" width="3" height="3" x="32" y="1033.362" style="fill:#aa7d66;fill-opacity:1;stroke:none"/><rect style="fill:#b4846d;fill-opacity:1;stroke:none" id="rect3065-6" width="3" height="3" x="35" y="1033.362"/><rect style="fill:#aa7d66;fill-opacity:1;stroke:none" id="rect3069-9" width="3" height="3" x="38" y="1033.362"/><rect id="rect3071-7" width="3" height="3" x="41" y="1033.362" style="fill:#ad806d;fill-opacity:1;stroke:none"/><rect style="fill:#9c725c;fill-opacity:1;stroke:none" id="rect3073-1" width="3" height="3" x="44" y="1033.362"/><rect id="rect3075-8" width="3" height="3" x="47" y="1033.362" style="fill:#bb8972;fill-opacity:1;stroke:none"/><rect style="fill:#9c694c;fill-opacity:1;stroke:none" id="rect3077-8" width="3" height="3" x="50" y="1033.362"/><rect id="rect3079-2" width="3" height="3" x="53" y="1033.362" style="fill:#9c694c;fill-opacity:1;stroke:none"/><rect style="fill:#b4846d;fill-opacity:1;stroke:none" id="rect3153-6" width="3" height="3" x="32" y="1036.362"/><rect style="fill:#b57b67;fill-opacity:1;stroke:none" id="rect3159-7" width="3" height="3" x="41" y="1036.362"/><rect id="rect3161-0" width="3" height="3" x="44" y="1036.362" style="fill:#bb8972;fill-opacity:1;stroke:none"/><rect style="fill:#aa7d66;fill-opacity:1;stroke:none" id="rect3167-3" width="3" height="3" x="53" y="1036.362"/><rect id="rect3169-4" width="3" height="3" x="32" y="1039.362" style="fill:#9c6346;fill-opacity:1;stroke:none"/><rect style="fill:#b37b62;fill-opacity:1;stroke:none" id="rect3171-8" width="3" height="3" x="35" y="1039.362"/><rect style="fill:#b78272;fill-opacity:1;stroke:none" id="rect3175-0" width="3" height="3" x="38" y="1039.362"/><rect id="rect3181-9" width="3" height="3" x="47" y="1039.362" style="fill:#be886c;fill-opacity:1;stroke:none"/><rect style="fill:#a26a47;fill-opacity:1;stroke:none" id="rect3183-7" width="3" height="3" x="50" y="1039.362"/><rect id="rect3185-6" width="3" height="3" x="53" y="1039.362" style="fill:#805334;fill-opacity:1;stroke:none"/><rect id="rect3187-1" width="3" height="3" x="32" y="1042.362" style="fill:#905e43;fill-opacity:1;stroke:none"/><rect id="rect3203-8" width="3" height="3" x="53" y="1042.362" style="fill:#815339;fill-opacity:1;stroke:none"/><path style="fill:#6f452c;fill-opacity:1;stroke:none" id="rect3205-4" d="m 32,1045.3622 3,0 0,3 -1,0 c -1,0 -2,-1 -2,-2 z"/><rect id="rect3207-2" width="3" height="3" x="35" y="1045.362" style="fill:#6d432a;fill-opacity:1;stroke:none"/><rect id="rect3219-4" width="3" height="3" x="50" y="1045.362" style="fill:#83553b;fill-opacity:1;stroke:none"/><path style="fill:#7a4e33;fill-opacity:1;stroke:none" id="rect3221-5" d="m 53,1045.3622 3,0 0,1 c 0,1 -1,2 -2,2 l -1,0 z"/><rect style="fill:#965f40;fill-opacity:1;stroke:none" id="rect3083" width="3" height="3" x="35" y="1042.362"/><rect id="rect3101" width="3" height="3" x="50" y="1042.362" style="fill:#8f5e3e;fill-opacity:1;stroke:none"/></g><g id="g4045" transform="matrix(1.05,0,0,1.05,14.2,-51.893092)"><rect id="rect4011" width="6" height="3" x="-7" y="1036.362" style="fill:#fff;fill-opacity:1;stroke:none;filter:url(#filter4035)"/><rect style="fill:#fff;fill-opacity:1;stroke:none;filter:url(#filter4035)" id="rect4039" width="6" height="3" x="-7" y="1036.362"/><rect id="rect4041" width="6" height="3" x="-7" y="1036.362" style="fill:#fff;fill-opacity:1;stroke:none;filter:url(#filter4035)"/><rect style="fill:#fff;fill-opacity:1;stroke:none;filter:url(#filter4035)" id="rect4043" width="6" height="3" x="-7" y="1036.362"/></g><g id="g4051" transform="matrix(1.05,0,0,1.05,26.2,-51.893092)"><rect style="fill:#fff;fill-opacity:1;stroke:none;filter:url(#filter4035)" id="rect4053" width="6" height="3" x="-7" y="1036.362"/><rect id="rect4055" width="6" height="3" x="-7" y="1036.362" style="fill:#fff;fill-opacity:1;stroke:none;filter:url(#filter4035)"/><rect style="fill:#fff;fill-opacity:1;stroke:none;filter:url(#filter4035)" id="rect4057" width="6" height="3" x="-7" y="1036.362"/><rect id="rect4059" width="6" height="3" x="-7" y="1036.362" style="fill:#fff;fill-opacity:1;stroke:none;filter:url(#filter4035)"/></g></g></svg>