<svg xmlns="http://www.w3.org/2000/svg" xmlns:svg="http://www.w3.org/2000/svg" xmlns:xlink="http://www.w3.org/1999/xlink" id="svg2" width="64" height="64" version="1.1"><defs id="defs4"><linearGradient id="linearGradient4053"><stop id="stop4055" offset="0" style="stop-color:#19c6a1;stop-opacity:.75294119"/><stop id="stop4057" offset=".309" style="stop-color:#a4f4e3;stop-opacity:1"/><stop style="stop-color:#d9f7f1;stop-opacity:1" id="stop4059" offset=".654"/><stop id="stop4061" offset="1" style="stop-color:#009b78;stop-opacity:.75294119"/></linearGradient><linearGradient id="linearGradient4001"><stop id="stop4003" offset="0" style="stop-color:#000;stop-opacity:1"/><stop id="stop4005" offset="1" style="stop-color:#0f5f52;stop-opacity:0"/></linearGradient><linearGradient id="linearGradient3882"><stop style="stop-color:#19c6a1;stop-opacity:1" id="stop3884" offset="0"/><stop style="stop-color:#a4f4e3;stop-opacity:1" id="stop3894" offset=".309"/><stop id="stop3935" offset=".654" style="stop-color:#d9f7f1;stop-opacity:1"/><stop style="stop-color:#009b7a;stop-opacity:1" id="stop3886" offset="1"/></linearGradient><linearGradient id="linearGradient5178"><stop style="stop-color:#13daba;stop-opacity:.50196081" id="stop5180" offset="0"/><stop style="stop-color:#03251f;stop-opacity:1" id="stop5182" offset="1"/></linearGradient><linearGradient id="linearGradient4030"><stop id="stop4032" offset="0" style="stop-color:#000;stop-opacity:1"/><stop id="stop4034" offset="1" style="stop-color:#0c493f;stop-opacity:0"/></linearGradient><linearGradient id="linearGradient3954"><stop style="stop-color:#000;stop-opacity:1" id="stop3956" offset="0"/><stop style="stop-color:#0f5f52;stop-opacity:1" id="stop3958" offset="1"/></linearGradient><linearGradient id="linearGradient3954-9"><stop style="stop-color:#000;stop-opacity:1" id="stop3956-4" offset="0"/><stop style="stop-color:#0f5f52;stop-opacity:1" id="stop3958-2" offset="1"/></linearGradient><radialGradient id="radialGradient4230" cx="32" cy="32" r="20" fx="32" fy="32" gradientTransform="matrix(1.1486906,1.2798015,-0.74419869,0.66795831,19.056258,-30.328315)" gradientUnits="userSpaceOnUse" xlink:href="#linearGradient3954"/><radialGradient id="radialGradient4250" cx="32" cy="32" r="20" fx="32" fy="32" gradientTransform="matrix(1.1486906,1.2798015,-0.74419869,0.66795831,19.056258,-30.328315)" gradientUnits="userSpaceOnUse" xlink:href="#linearGradient3954"/><linearGradient id="linearGradient3917" x1="43.781" x2="15.453" y1="42.687" y2="21.578" gradientTransform="matrix(1.1428571,0,0,1.1428571,-2.2857143,-2.28571)" gradientUnits="userSpaceOnUse" xlink:href="#linearGradient3919-9"/><linearGradient id="linearGradient3929-9" x1="40.5" x2="9" y1="37" y2="19.5" gradientUnits="userSpaceOnUse" xlink:href="#linearGradient3911-5"/><linearGradient id="linearGradient3911-5"><stop style="stop-color:#8c3800;stop-opacity:1" id="stop3913-6" offset="0"/><stop style="stop-color:#ff6701;stop-opacity:1" id="stop3915-3" offset="1"/></linearGradient><linearGradient id="linearGradient3986" x1="28" x2="44" y1="28" y2="32" gradientUnits="userSpaceOnUse" xlink:href="#linearGradient3919-9"/><linearGradient id="linearGradient3925-4" x1="16" x2="48" y1="16" y2="48" gradientUnits="userSpaceOnUse" xlink:href="#linearGradient3919-9"/><linearGradient id="linearGradient3919-9"><stop style="stop-color:#fff306;stop-opacity:1" id="stop3921-2" offset="0"/><stop style="stop-color:#ff7f01;stop-opacity:1" id="stop3923-3" offset="1"/></linearGradient><linearGradient id="linearGradient4025" x1="16" x2="48" y1="16" y2="48" gradientTransform="translate(-12,-12)" gradientUnits="userSpaceOnUse" xlink:href="#linearGradient3919-9"/><linearGradient id="linearGradient3919-9-3"><stop style="stop-color:#ff9e06;stop-opacity:1" id="stop3921-2-9" offset="0"/><stop style="stop-color:#af4600;stop-opacity:1" id="stop3923-3-4" offset="1"/></linearGradient><linearGradient id="linearGradient4065" x1="16" x2="48" y1="16" y2="48" gradientTransform="translate(-8,-8)" gradientUnits="userSpaceOnUse" xlink:href="#linearGradient3919-9-3"/><linearGradient id="linearGradient3919-9-35"><stop style="stop-color:#ff9e06;stop-opacity:1" id="stop3921-2-3" offset="0"/><stop style="stop-color:#af4600;stop-opacity:1" id="stop3923-3-5" offset="1"/></linearGradient><linearGradient id="linearGradient4098" x1="16" x2="48" y1="16" y2="48" gradientTransform="translate(-8,-8)" gradientUnits="userSpaceOnUse" xlink:href="#linearGradient3919-9-35"/><radialGradient id="radialGradient4024" cx="32" cy="32" r="20" fx="32" fy="32" gradientTransform="matrix(1.1486906,1.2798015,-0.74419869,0.66795831,19.056258,-30.328315)" gradientUnits="userSpaceOnUse" xlink:href="#linearGradient3954-5"/><linearGradient id="linearGradient3954-5"><stop style="stop-color:#000;stop-opacity:1" id="stop3956-5" offset="0"/><stop style="stop-color:#0f5f52;stop-opacity:1" id="stop3958-3" offset="1"/></linearGradient><filter id="filter3916-4" width="1.23" height="1.231" x="-.115" y="-.115" color-interpolation-filters="sRGB"><feGaussianBlur id="feGaussianBlur3918-4" stdDeviation=".606"/></filter><filter id="filter4082-1" width="1.269" height="1.25" x="-.135" y="-.125" color-interpolation-filters="sRGB"><feGaussianBlur id="feGaussianBlur4084-4" stdDeviation="1.764"/></filter><linearGradient id="linearGradient4440" x1="43.781" x2="15.453" y1="42.687" y2="21.578" gradientTransform="matrix(1.1428571,0,0,1.1428571,-2.2857143,-2.28571)" gradientUnits="userSpaceOnUse" xlink:href="#linearGradient3919-9"/><linearGradient id="linearGradient4442" x1="28" x2="44" y1="28" y2="32" gradientUnits="userSpaceOnUse" xlink:href="#linearGradient3919-9"/><radialGradient id="radialGradient4453" cx="32" cy="32" r="20" fx="32" fy="32" gradientTransform="matrix(1.3784287,1.5357628,-0.89303843,0.80155051,16.46751,-42.794012)" gradientUnits="userSpaceOnUse" xlink:href="#linearGradient3954-5"/><filter id="filter4462"><feGaussianBlur id="feGaussianBlur4464" stdDeviation="1.68"/></filter><linearGradient id="linearGradient4438-1" x1="16" x2="48" y1="16" y2="48" gradientUnits="userSpaceOnUse" xlink:href="#linearGradient3919-9-1"/><linearGradient id="linearGradient3919-9-1"><stop style="stop-color:#fff306;stop-opacity:1" id="stop3921-2-92" offset="0"/><stop style="stop-color:#ff7f01;stop-opacity:1" id="stop3923-3-6" offset="1"/></linearGradient><linearGradient id="linearGradient5119" x1="16" x2="48" y1="16" y2="48" gradientUnits="userSpaceOnUse" xlink:href="#linearGradient3919-9"/><linearGradient id="linearGradient5184" x1="10.43" x2="38.114" y1="1007.638" y2="1024.694" gradientUnits="userSpaceOnUse" xlink:href="#linearGradient5178"/><filter id="filter3992" color-interpolation-filters="sRGB"><feGaussianBlur id="feGaussianBlur3994" stdDeviation="1.44"/></filter><radialGradient id="radialGradient4024-7" cx="32" cy="32" r="20" fx="32" fy="32" gradientTransform="matrix(1.1486906,1.2798015,-0.74419869,0.66795831,19.056258,-30.328315)" gradientUnits="userSpaceOnUse" xlink:href="#linearGradient3954-1"/><linearGradient id="linearGradient3954-1"><stop style="stop-color:#000;stop-opacity:1" id="stop3956-2" offset="0"/><stop style="stop-color:#0f5f52;stop-opacity:1" id="stop3958-9" offset="1"/></linearGradient><filter id="filter3884" color-interpolation-filters="sRGB"><feGaussianBlur id="feGaussianBlur3886" stdDeviation=".505"/></filter><filter id="filter3898" width="1.402" height="1.404" x="-.201" y="-.202" color-interpolation-filters="sRGB"><feGaussianBlur id="feGaussianBlur3900" stdDeviation="1.06"/></filter><filter id="filter3916" width="1.23" height="1.231" x="-.115" y="-.115" color-interpolation-filters="sRGB"><feGaussianBlur id="feGaussianBlur3918" stdDeviation=".606"/></filter><filter id="filter4110" width="1.354" height="1.356" x="-.177" y="-.178" color-interpolation-filters="sRGB"><feGaussianBlur id="feGaussianBlur4112" stdDeviation=".934"/></filter><filter id="filter4082" width="1.269" height="1.25" x="-.135" y="-.125" color-interpolation-filters="sRGB"><feGaussianBlur id="feGaussianBlur4084" stdDeviation="1.764"/></filter><linearGradient id="linearGradient3986-9" x1="28" x2="44" y1="28" y2="32" gradientTransform="translate(-72.736544,988.32667)" gradientUnits="userSpaceOnUse" xlink:href="#linearGradient3919-9-7"/><linearGradient id="linearGradient3919-9-7"><stop style="stop-color:#fff306;stop-opacity:1" id="stop3921-2-93" offset="0"/><stop style="stop-color:#ff7f01;stop-opacity:1" id="stop3923-3-0" offset="1"/></linearGradient><linearGradient id="linearGradient3917-1" x1="43.781" x2="15.453" y1="42.687" y2="21.578" gradientTransform="matrix(1.1428571,0,0,1.1428571,-75.022254,986.04097)" gradientUnits="userSpaceOnUse" xlink:href="#linearGradient3919-9-7"/><linearGradient id="linearGradient5362"><stop style="stop-color:#fff306;stop-opacity:1" id="stop5364" offset="0"/><stop style="stop-color:#ff7f01;stop-opacity:1" id="stop5366" offset="1"/></linearGradient><linearGradient id="linearGradient3925-4-8" x1="16" x2="48" y1="16" y2="48" gradientTransform="translate(-72.736544,988.32667)" gradientUnits="userSpaceOnUse" xlink:href="#linearGradient3919-9-7"/><linearGradient id="linearGradient5369"><stop style="stop-color:#fff306;stop-opacity:1" id="stop5371" offset="0"/><stop style="stop-color:#ff7f01;stop-opacity:1" id="stop5373" offset="1"/></linearGradient><linearGradient id="linearGradient3888" x1="42.125" x2="24.75" y1="10.375" y2="56.125" gradientUnits="userSpaceOnUse" spreadMethod="pad" xlink:href="#linearGradient3882"/><linearGradient id="linearGradient5184-3" x1="-58.57" x2="-18.636" y1="1003.138" y2="1034.444" gradientUnits="userSpaceOnUse" xlink:href="#linearGradient5178-5"/><linearGradient id="linearGradient5178-5"><stop style="stop-color:#13daba;stop-opacity:1" id="stop5180-8" offset="0"/><stop style="stop-color:#03251f;stop-opacity:1" id="stop5182-3" offset="1"/></linearGradient><filter id="filter4462-8" color-interpolation-filters="sRGB"><feGaussianBlur id="feGaussianBlur4464-6" stdDeviation="1.68"/></filter><linearGradient id="linearGradient3913" x1="10.43" x2="38.114" y1="1007.638" y2="1024.694" gradientTransform="translate(0.03199987,-988.33014)" gradientUnits="userSpaceOnUse" xlink:href="#linearGradient5178-5"/><linearGradient id="linearGradient3999" x1="38.626" x2="31.201" y1="34.125" y2="28.821" gradientUnits="userSpaceOnUse" xlink:href="#linearGradient4001"/><linearGradient id="linearGradient4023" x1="42.125" x2="24.75" y1="10.375" y2="56.125" gradientTransform="translate(0.375,988.42468)" gradientUnits="userSpaceOnUse" spreadMethod="pad" xlink:href="#linearGradient4053"/><linearGradient id="linearGradient4081" x1="38.184" x2="31.201" y1="33.064" y2="28.821" gradientUnits="userSpaceOnUse" xlink:href="#linearGradient4001"/><filter id="filter4101" width="1.52" height="1.69" x="-.26" y="-.345"><feGaussianBlur id="feGaussianBlur4103" stdDeviation="1.359"/></filter><filter id="filter4153" width="1.21" height="1.11" x="-.105" y="-.055"><feGaussianBlur id="feGaussianBlur4155" stdDeviation="1.007"/></filter></defs><metadata id="metadata7"/><g id="layer1" transform="translate(0,-988.36218)"><g id="g4430"><path style="color:#000;fill:url(#linearGradient5184);fill-opacity:1;fill-rule:nonzero;stroke:none;stroke-width:1;marker:none;visibility:visible;display:inline;overflow:visible;filter:url(#filter4462);enable-background:accumulate;opacity:1" id="rect4162" d="m 28,992.36214 -4,4.00004 0,4.00002 -3,-3.00002 -6,0 -6,6.00002 0,6 3,3 -4,0 -4,4 0,8 4,4 4,0 -3,3 0,6 6,6 6,0 c 1.147043,0.435 1.437261,0.5242 1.5,3.3125 2.236628,0.5754 7.083754,1.6875 9.5,1.6875 15.46397,0 28,-12.536 28,-28 0,-11.5626 -6.99928,-21.50902 -17,-25.78131 -0.666614,1.59048 -2.504535,2.24015 -3,1.78129 l -4,-4.00004 z"/><path id="rect3071" d="m 28,8 0,4.40625 c -0.222736,0.04523 -0.43627,0.103686 -0.65625,0.15625 -0.410499,0.09787 -0.818477,0.190041 -1.21875,0.3125 -0.02176,0.0067 -0.04077,0.02449 -0.0625,0.03125 -0.591863,0.183324 -1.183088,0.389835 -1.75,0.625 -0.500562,0.208804 -0.989768,0.440151 -1.46875,0.6875 -0.08271,0.04255 -0.167971,0.08132 -0.25,0.125 -0.556479,0.297288 -1.101494,0.621939 -1.625,0.96875 l -3.125,-3.125 -5.65625,5.65625 3.125,3.125 c -0.341672,0.515748 -0.675122,1.045976 -0.96875,1.59375 -0.04801,0.08987 -0.07834,0.190559 -0.125,0.28125 -0.232389,0.450012 -0.457832,0.905888 -0.65625,1.375 -0.01273,0.03027 -0.01866,0.0634 -0.03125,0.09375 -0.237526,0.569414 -0.440047,1.155357 -0.625,1.75 -0.130645,0.421788 -0.240463,0.848047 -0.34375,1.28125 C 12.509936,27.56373 12.451477,27.777264 12.40625,28 L 8,28 l 0,8 4.40625,0 c 0.04523,0.222736 0.103686,0.43627 0.15625,0.65625 0.09787,0.410499 0.190041,0.818477 0.3125,1.21875 0.0067,0.02176 0.02449,0.04077 0.03125,0.0625 0.183324,0.591863 0.389835,1.183088 0.625,1.75 0.208804,0.500562 0.440151,0.989768 0.6875,1.46875 0.04666,0.09069 0.07699,0.191375 0.125,0.28125 0.01751,0.03266 0.04481,0.06119 0.0625,0.09375 0.278784,0.514793 0.584173,1.01383 0.90625,1.5 l -3.125,3.125 5.65625,5.65625 3.125,-3.125 c 0.523506,0.346811 1.068521,0.671462 1.625,0.96875 0.08203,0.04368 0.167292,0.08245 0.25,0.125 0.450012,0.232389 0.905888,0.457832 1.375,0.65625 0.03027,0.01273 0.0634,0.01866 0.09375,0.03125 0.569414,0.237526 1.155357,0.440047 1.75,0.625 0.421788,0.130645 0.848047,0.240463 1.28125,0.34375 0.21027,0.05024 0.412209,0.112707 0.625,0.15625 0.01001,0.002 0.02124,-0.002 0.03125,0 l 8,0 c 0.22283,-0.04525 0.436163,-0.103776 0.65625,-0.15625 0.923563,-0.220682 1.81865,-0.499897 2.6875,-0.84375 0.618794,-0.243545 1.225752,-0.510633 1.8125,-0.8125 0.08255,-0.04263 0.168126,-0.08126 0.25,-0.125 0.558072,-0.297141 1.100165,-0.621059 1.625,-0.96875 l 5.65625,-5.65625 c 0.342758,-0.517388 0.6751,-1.044039 0.96875,-1.59375 0.04827,-0.09005 0.07808,-0.190386 0.125,-0.28125 0.301867,-0.586748 0.568955,-1.193706 0.8125,-1.8125 0.343853,-0.86885 0.623068,-1.763937 0.84375,-2.6875 0.05247,-0.220087 0.111003,-0.43342 0.15625,-0.65625 l 0,-8 c -0.002,-0.0098 0.002,-0.02142 0,-0.03125 -0.04353,-0.2127 -0.106134,-0.414805 -0.15625,-0.625 -0.220682,-0.923563 -0.499897,-1.81865 -0.84375,-2.6875 -0.243545,-0.618794 -0.510633,-1.225752 -0.8125,-1.8125 -0.04692,-0.09086 -0.07673,-0.191205 -0.125,-0.28125 C 49.3626,22.012789 49.030258,21.486138 48.6875,20.96875 L 43.03125,15.3125 c -0.484994,-0.321298 -0.986607,-0.627358 -1.5,-0.90625 -0.04094,-0.02217 -0.08389,-0.04061 -0.125,-0.0625 -0.08187,-0.04374 -0.167451,-0.08237 -0.25,-0.125 -0.586748,-0.301867 -1.193706,-0.568955 -1.8125,-0.8125 -0.86885,-0.343853 -1.763937,-0.623068 -2.6875,-0.84375 -0.210195,-0.05012 -0.4123,-0.112724 -0.625,-0.15625 -0.0098,-0.002 -0.02142,0.002 -0.03125,0 L 36,8 z m 4,20 c 2.209139,0 4,1.790861 4,4 0,2.209139 -1.790861,4 -4,4 -0.276142,0 -0.55211,-0.04047 -0.8125,-0.09375 C 29.364767,35.533265 28,33.932997 28,32 28,31.723858 28.040466,31.44789 28.09375,31.1875 28.466735,29.364767 30.067003,28 32,28 z" style="color:#000;fill:url(#linearGradient5119);fill-opacity:1;fill-rule:nonzero;stroke:none;marker:none;visibility:visible;display:inline;overflow:visible;enable-background:accumulate" transform="translate(0,988.36218)"/><path id="path3874" d="m 32,16 c -8.836556,0 -16,7.163444 -16,16 0,8.836556 7.163444,16 16,16 8.836556,0 16,-7.163444 16,-16 0,-8.836556 -7.163444,-16 -16,-16 z m 0,12 c 2.209139,0 4,1.790861 4,4 0,2.209139 -1.790861,4 -4,4 -2.209139,0 -4,-1.790861 -4,-4 0,-2.209139 1.790861,-4 4,-4 z" transform="translate(0,988.36218)" style="fill:url(#linearGradient4440);fill-opacity:1;stroke:none"/><path id="path3876" d="m 32,24 c -4.418278,0 -8,3.581722 -8,8 0,4.418278 3.581722,8 8,8 4.418278,0 8,-3.581722 8,-8 0,-4.418278 -3.581722,-8 -8,-8 z m 0,4 c 2.209139,0 4,1.790861 4,4 0,2.209139 -1.790861,4 -4,4 -2.209139,0 -4,-1.790861 -4,-4 0,-2.209139 1.790861,-4 4,-4 z" transform="translate(0,988.36218)" style="fill:url(#linearGradient4442);fill-opacity:1;stroke:none"/><path id="path3927" d="m 32,1004.3622 c -8.836556,0 -16,7.1634 -16,16 0,4.8907 2.198478,9.2526 5.65625,12.1875 C 19.373756,1029.7839 18,1026.2282 18,1022.3622 c 0,-8.8366 7.163444,-16 16,-16 3.86599,0 7.42176,1.3737 10.1875,3.6562 -2.93487,-3.4577 -7.29683,-5.6562 -12.1875,-5.6562 z" style="fill:#000;fill-opacity:.39130435;stroke:none"/><path id="path3970" d="m 39.5625,1017.7997 c 0.272555,0.8054 0.4375,1.665 0.4375,2.5625 0,4.4183 -3.581722,8 -8,8 -2.720651,0 -5.117207,-1.3623 -6.5625,-3.4375 1.069255,3.1597 4.041685,5.4375 7.5625,5.4375 4.418278,0 8,-3.5817 8,-8 0,-1.6976 -0.535669,-3.2676 -1.4375,-4.5625 z" style="fill:#000;fill-opacity:.39130435;stroke:none"/></g><g id="g5168"><path style="fill:url(#linearGradient4081);fill-opacity:1;stroke:none" id="path3997" d="M 42.3125,10.34375 C 42.036647,17.156583 44.403627,25.298186 33,31 18.729736,38.135058 22.534188,45.86375 26.144531,55.257813 c 0.677562,0.217822 -0.12077,-0.0069 0.580514,0.151895 C 28.421984,55.79405 30.185284,56 32,56 45.254834,56 56,45.254843 56,32 56,22.438466 50.403908,14.202051 42.3125,10.34375 z" transform="translate(0,988.36218)"/><path style="color:#000;fill:#000;fill-opacity:1;fill-rule:nonzero;stroke:none;stroke-width:1;marker:none;visibility:visible;display:inline;overflow:visible;filter:url(#filter4101);enable-background:accumulate" id="path4083" d="m 19.887379,37.881245 c 0,2.611631 -2.80967,4.728776 -6.275573,4.728776 -3.465903,0 -6.2755729,-2.117145 -6.2755729,-4.728776 0,-2.611631 2.8096699,-4.728777 6.2755729,-4.728777 3.465903,0 6.275573,2.117146 6.275573,4.728777 z" transform="matrix(1.338311,0,0,1.4370006,15.945267,978.21621)"/><path id="path3014" d="m 42.3125,10.34375 c 1.626929,3.407127 2.260167,8.676072 -0.03685,13.414814 -1.556024,3.210082 -3.304624,6.220765 -7.658776,8.522607 -4.247767,2.245602 -8.002291,2.8045 -9.732287,4.512181 -4.014531,3.96275 -2.278905,11.00222 1.274261,18.448146 C 28.475952,55.986401 29.435328,56 32,56 45.254834,56 56,45.254843 56,32 56,22.438466 50.403908,14.202051 42.3125,10.34375 z" style="opacity:.87029275;fill:url(#radialGradient4453);fill-opacity:1;stroke:none" transform="translate(0,988.36218)"/><path id="path3902" d="m 28,1004.3622 c -6.627417,0 -12,5.3726 -12,12 0,0.2018 0.0214,0.3944 0.03125,0.5937 3.96875,-8.5937 5.96875,-6.5937 12.625,-12.5625 -0.219998,-0.012 -0.433254,-0.031 -0.65625,-0.031 z" style="fill:#0fc;fill-opacity:1;stroke:none;filter:url(#filter3916-4);opacity:1" transform="matrix(-1.8719467,0,0,-1.871948,82.871731,2921.8992)"/><path transform="matrix(-1.2147547,0,0,-1.2147555,70.284181,2259.2303)" style="fill:#d7f4d7;fill-opacity:1;stroke:none;filter:url(#filter3916-4);opacity:1" id="path3920" d="m 28,1004.3622 c -6.627417,0 -12,5.3726 -12,12 0,0.2018 0.0214,0.3944 0.03125,0.5937 3.96875,-8.5937 5.96875,-6.5937 12.625,-12.5625 -0.219998,-0.012 -0.433254,-0.031 -0.65625,-0.031 z"/><path id="path4036" d="M 44.78125 21.6875 L 41.28125 22.8125 C 41.121938 23.226574 40.928384 23.623793 40.71875 24.03125 L 44.78125 21.6875 z M 36.90625 28.53125 C 35.824388 29.387261 34.550485 30.224758 33 31 C 31.216966 31.891508 29.738803 32.739507 28.5 33.5625 C 29.458327 33.796351 30.4375 34.03125 30.4375 34.03125 L 30.4375 37.09375 C 30.4375 38.113344 28.40625 40.167906 28.40625 41.1875 L 28.40625 44.25 C 28.40625 44.25 29.900129 47.688 30.03125 48.625 C 30.45923 51.683387 29.509385 42.154431 29.71875 41.78125 C 30.864146 39.739651 32.416773 37.15625 33.03125 37.15625 C 33.264553 37.15625 34.697228 36.035418 35.9375 37.4375 C 37.107979 38.760684 38.10456 42.614278 38.4375 42.28125 C 39.293559 41.424965 36.5625 34.03125 36.5625 34.03125 L 42.78125 33.34375 L 47.1875 28.875 L 42.03125 32 L 38.59375 32 L 36.5625 29.96875 L 36.90625 28.53125 z" transform="translate(0,988.36218)" style="opacity:.86178864;fill:#000;fill-opacity:.86666667;stroke:none;filter:url(#filter4082-1)"/><path style="opacity:.9497908;fill:url(#linearGradient3888);fill-opacity:1;stroke:none" id="path3112" d="m 42.327724,10.343784 c -0.548738,-0.247754 -2.642269,-0.03831 -5.109835,2.376588 l 2.056042,0.657478 c 1.127203,-0.71102 1.815028,-0.50787 1.967315,-0.459692 1.494171,0.472705 0.645754,4.388833 0.1693,6.47919 -1.552718,8.361211 -9.002523,11.324205 -15.159208,14.152866 -3.345171,1.559801 -4.737296,4.36486 -5.23858,8.881728 -0.501284,4.516868 2.508904,8.819746 5.132693,12.829082 0.669966,0.210667 -0.142632,-0.006 0.54783,0.143209 0,0 -4.830399,-7.064617 -3.406092,-13.736155 1.213309,-5.683211 5.53111,-6.436498 9.626097,-8.496005 7.176567,-3.609337 10.985289,-9.424678 11.4425,-16.679509 0.19205,-3.226247 -1.020059,-5.693669 -2.028062,-6.14878 z" transform="translate(0,988.36218)"/><path id="path4021" d="m 42.985537,999.28252 c 0.436543,5.62048 0.126695,2.81738 -1.199991,8.53948 -1.552718,8.3612 -6.315023,11.7617 -12.471708,14.5904 -3.345171,1.5598 -6.976573,2.6274 -7.477857,7.1442 -0.501284,4.5169 1.758904,9.6635 4.382693,13.6728 0.669966,0.2107 -0.142632,-0.01 0.54783,0.1432 0,0 -4.450497,-6.5927 -3.02619,-13.2642 1.213309,-5.6833 5.46861,-6.3427 9.563597,-8.4022 7.176567,-3.6094 11.032164,-9.3934 11.489375,-16.6483 0.19205,-3.2262 -0.760684,-4.5078 -1.807749,-5.77538 z" style="opacity:1;fill:url(#linearGradient4023);fill-opacity:1;stroke:none;filter:url(#filter4153)"/></g><g id="g4268" transform="translate(72.5,-1.500004)"><path id="path3005" d="M 56,32 C 56,45.254834 45.254834,56 32,56 18.745166,56 8,45.254834 8,32 8,18.745166 18.745166,8 32,8 45.254834,8 56,18.745166 56,32 z" transform="matrix(1.1666667,0,0,1.1666667,-5.3333344,983.02885)" style="fill:#032620;fill-opacity:1;stroke:none;filter:url(#filter3992)"/><g id="g4116" transform="matrix(1.0195929,0,0,1.0195936,-0.15674338,-19.992546)"><path style="fill:url(#radialGradient4024-7);fill-opacity:1;stroke:none" id="path3014-0" d="M 52,32 C 52,43.045695 43.045695,52 32,52 20.954305,52 12,43.045695 12,32 12,20.954305 20.954305,12 32,12 c 11.045695,0 20,8.954305 20,20 z" transform="matrix(1.1769403,0,0,1.1769403,-6.1232836,982.70009)"/><path style="fill:#0fc;fill-opacity:1;stroke:none;filter:url(#filter3884)" id="path3866" d="m 28,16 c -6.627417,0 -12,5.372583 -12,12 0,0.20181 0.0214,0.394383 0.03125,0.59375 C 20,20 22,22 28.65625,16.03125 28.436252,16.019242 28.222996,16 28,16 z" transform="matrix(1.1769403,0,0,1.1769403,-5.6620909,982.68843)"/><path id="path3888" d="m 28,1004.3622 c -6.627417,0 -12,5.3726 -12,12 0,0.2018 0.0214,0.3944 0.03125,0.5937 3.96875,-8.5937 5.96875,-6.5937 12.625,-12.5625 -0.219998,-0.012 -0.433254,-0.031 -0.65625,-0.031 z" style="fill:#0fc;fill-opacity:1;stroke:none;filter:url(#filter3898)" transform="matrix(1.487885,0,0,1.487885,-10.597031,-493.22036)"/><path transform="matrix(-1.8359746,0,0,-1.8359746,81.432966,2885.3572)" style="fill:#0fc;fill-opacity:1;stroke:none;filter:url(#filter3916)" id="path3902-7" d="m 28,1004.3622 c -6.627417,0 -12,5.3726 -12,12 0,0.2018 0.0214,0.3944 0.03125,0.5937 3.96875,-8.5937 5.96875,-6.5937 12.625,-12.5625 -0.219998,-0.012 -0.433254,-0.031 -0.65625,-0.031 z"/><path id="path3920-6" d="m 28,1004.3622 c -6.627417,0 -12,5.3726 -12,12 0,0.2018 0.0214,0.3944 0.03125,0.5937 3.96875,-8.5937 5.96875,-6.5937 12.625,-12.5625 -0.219998,-0.012 -0.433254,-0.031 -0.65625,-0.031 z" style="fill:#d7f4d7;fill-opacity:1;stroke:none;filter:url(#filter3916)" transform="matrix(-1.1914115,0,0,-1.1914115,69.087304,2235.4229)"/><path transform="matrix(0.58516297,0,0,0.58516297,6.7391969,416.10681)" style="fill:#fff;fill-opacity:1;stroke:none;filter:url(#filter4110)" id="path3964" d="m 28,1004.3622 c -6.627417,0 -12,5.3726 -12,12 0,0.2018 0.0214,0.3944 0.03125,0.5937 5.570868,-4.4816 8.905966,-4.4575 12.625,-12.5625 -0.219998,-0.012 -0.433254,-0.031 -0.65625,-0.031 z"/><path style="opacity:.86178864;fill:#000;fill-opacity:.86666667;stroke:none;filter:url(#filter4082)" id="path4036-3" d="M 30,29 30.450431,19.407328 32.447263,28.5316 35,27 l 1,-6 -1,-4 1,-2 0,3 1.125,3.375 -0.07418,2.744617 L 44.0828,21.873859 37,26 l -1,4 2,2 3.375,0 5.0625,-3.0625 -4.3125,4.375 L 36,34 c 0,0 2.686048,7.256632 1.846439,8.096462 -0.326542,0.326628 -1.289256,-3.475594 -2.437243,-4.77335 C 34.192758,35.947974 32.79132,37.0625 32.5625,37.0625 c -0.602669,0 -2.136064,2.519769 -3.25945,4.522134 -0.205342,0.36601 0.728015,9.714733 0.308259,6.715119 C 29.482708,47.380759 28,44 28,44 c 0,0 0,-2 0,-3 0,-1 2,-3 2,-4 0,-1 0,-3 0,-3 0,0 -4.25,-1.125 -5.25,-1.125 -0.47674,0 -1.893857,0.89205 -3.377184,1.040709 C 19.744745,34.078874 18.0625,33.5 18.0625,33.5 L 16.774038,34.754808 17,39 l -2,-4 2,-3 3.8125,-0.0625 1.170423,-6.693425 3.092068,-2.055016 -2.122126,3.038537 -0.913529,5.350612 L 28,31 z" transform="translate(0,988.36218)"/></g></g><path style="color:#000;fill:url(#linearGradient5184-3);fill-opacity:1;fill-rule:nonzero;stroke:none;stroke-width:1;marker:none;visibility:visible;display:inline;overflow:visible;filter:url(#filter4462-8);enable-background:accumulate" id="rect4162-6" d="m -44.736544,992.32667 -4,4 0,4.00003 -3,-3.00003 -6,0 -6,6.00003 0,6 3,3 -4,0 -4,4 0,8 4,4 4,0 -3,3 0,6 6,6 6,0 3,-3 0,4 4,4 8,0 4,-4 0,-4 3,3 6,0 6,-6 0,-6 -3,-3 4,0 4,-4 0,-8 -4,-4 -4,0 3,-3 0,-6 -6,-6.00003 -6,0 -3,3.00003 0,-4.00003 -4,-4 z"/><path style="color:#000;fill:url(#linearGradient3925-4-8);fill-opacity:1;fill-rule:nonzero;stroke:none;marker:none;visibility:visible;display:inline;overflow:visible;enable-background:accumulate" id="rect3071-3" d="m -44.736544,996.32667 0,4.40623 c -0.222736,0.045 -0.43627,0.1037 -0.65625,0.1563 -0.410499,0.098 -0.818477,0.19 -1.21875,0.3125 -0.0218,0.01 -0.0408,0.024 -0.0625,0.031 -0.59186,0.1833 -1.18309,0.3898 -1.75,0.625 -0.50056,0.2088 -0.98977,0.4401 -1.46875,0.6875 -0.0827,0.043 -0.16797,0.081 -0.25,0.125 -0.55648,0.2973 -1.10149,0.6219 -1.625,0.9687 l -3.125,-3.125 -5.65625,5.6562 3.125,3.125 c -0.34167,0.5158 -0.67512,1.046 -0.96875,1.5938 -0.048,0.09 -0.0783,0.1905 -0.125,0.2812 -0.23239,0.45 -0.45783,0.9059 -0.65625,1.375 -0.0127,0.03 -0.0187,0.063 -0.0312,0.094 -0.23753,0.5694 -0.44005,1.1553 -0.625,1.75 -0.13065,0.4218 -0.24046,0.848 -0.34375,1.2812 -0.0526,0.22 -0.11102,0.4335 -0.15625,0.6563 l -4.40625,0 0,8 4.40625,0 c 0.0452,0.2227 0.10369,0.4363 0.15625,0.6562 0.0979,0.4105 0.19004,0.8185 0.3125,1.2188 0.007,0.022 0.0245,0.041 0.0312,0.062 0.18332,0.5918 0.38983,1.1831 0.625,1.75 0.2088,0.5005 0.44015,0.9897 0.6875,1.4687 0.0467,0.091 0.077,0.1914 0.125,0.2813 0.0175,0.033 0.0448,0.061 0.0625,0.094 0.27878,0.5148 0.58417,1.0139 0.90625,1.5 l -3.125,3.125 5.65625,5.6563 3.125,-3.125 c 0.52351,0.3468 1.06852,0.6714 1.625,0.9687 0.082,0.044 0.16729,0.082 0.25,0.125 0.45001,0.2324 0.90589,0.4579 1.375,0.6563 0.0303,0.013 0.0634,0.019 0.0937,0.031 0.56941,0.2376 1.15536,0.4401 1.75,0.625 0.42179,0.1307 0.848047,0.2405 1.28125,0.3438 0.21027,0.05 0.412209,0.1127 0.625,0.1562 0.01001,0 0.02124,0 0.03125,0 l 0,4.4063 8,0 0,-4.4063 c 0.22283,-0.045 0.436163,-0.1037 0.65625,-0.1562 0.923563,-0.2207 1.81865,-0.4999 2.6875,-0.8438 0.618794,-0.2435 1.225752,-0.5106 1.8125,-0.8125 0.08255,-0.043 0.168126,-0.081 0.25,-0.125 0.558072,-0.2971 1.100165,-0.621 1.625,-0.9687 l 3.125,3.125 5.65625,-5.6563 -3.125,-3.125 c 0.342758,-0.5174 0.6751,-1.044 0.96875,-1.5937 0.04827,-0.09 0.07808,-0.1904 0.125,-0.2813 0.301867,-0.5867 0.568955,-1.1937 0.8125,-1.8125 0.343853,-0.8688 0.623068,-1.7639 0.84375,-2.6875 0.05247,-0.2201 0.111003,-0.4334 0.15625,-0.6562 l 4.40625,0 0,-8 -4.40625,0 c -0.002,-0.01 0.002,-0.021 0,-0.031 -0.04353,-0.2127 -0.106134,-0.4148 -0.15625,-0.625 -0.220682,-0.9235 -0.499897,-1.8186 -0.84375,-2.6875 -0.243545,-0.6188 -0.510633,-1.2257 -0.8125,-1.8125 -0.04692,-0.091 -0.07673,-0.1912 -0.125,-0.2812 -0.29365,-0.5497 -0.625992,-1.0764 -0.96875,-1.5938 l 3.125,-3.125 -5.65625,-5.6562 -3.125,3.125 c -0.484994,-0.3213 -0.986607,-0.6273 -1.5,-0.9062 -0.04094,-0.022 -0.08389,-0.041 -0.125,-0.062 -0.08187,-0.044 -0.167451,-0.082 -0.25,-0.125 -0.586748,-0.3019 -1.193706,-0.569 -1.8125,-0.8125 -0.86885,-0.3439 -1.763937,-0.6231 -2.6875,-0.8438 -0.210195,-0.05 -0.4123,-0.1127 -0.625,-0.1562 -0.0098,0 -0.02142,0 -0.03125,0 l 0,-4.40633 -8,0 z m 4,20.00003 c 2.209139,0 4,1.7908 4,4 0,2.2091 -1.790861,4 -4,4 -0.276142,0 -0.55211,-0.041 -0.8125,-0.094 -1.822733,-0.373 -3.1875,-1.9732 -3.1875,-3.9062 0,-0.2762 0.04047,-0.5521 0.09375,-0.8125 0.372985,-1.8228 1.973253,-3.1875 3.90625,-3.1875 z"/><path style="fill:url(#linearGradient3917-1);fill-opacity:1;stroke:none" id="path3874-0" d="m -40.736544,1004.3267 c -8.83656,0 -16,7.1634 -16,16 0,8.8365 7.16344,16 16,16 8.836556,0 16,-7.1635 16,-16 0,-8.8366 -7.163444,-16 -16,-16 z m 0,12 c 2.209139,0 4,1.7908 4,4 0,2.2091 -1.790861,4 -4,4 -2.209139,0 -4,-1.7909 -4,-4 0,-2.2092 1.790861,-4 4,-4 z"/><path style="fill:url(#linearGradient3986-9);fill-opacity:1;stroke:none" id="path3876-7" d="m -40.736544,1012.3267 c -4.418278,0 -8,3.5817 -8,8 0,4.4183 3.581722,8 8,8 4.418278,0 8,-3.5817 8,-8 0,-4.4183 -3.581722,-8 -8,-8 z m 0,4 c 2.209139,0 4,1.7908 4,4 0,2.2091 -1.790861,4 -4,4 -2.209139,0 -4,-1.7909 -4,-4 0,-2.2092 1.790861,-4 4,-4 z"/><path style="fill:#000;fill-opacity:.39130435;stroke:none" id="path3927-9" d="m -40.736544,1004.3267 c -8.83656,0 -16,7.1634 -16,16 0,4.8907 2.19848,9.2526 5.65625,12.1875 -2.28249,-2.7658 -3.65625,-6.3215 -3.65625,-10.1875 0,-8.8366 7.16344,-16 16,-16 3.86599,0 7.42176,1.3737 10.1875,3.6562 -2.93487,-3.4577 -7.29683,-5.6562 -12.1875,-5.6562 z"/><path style="fill:#000;fill-opacity:.39130435;stroke:none" id="path3970-3" d="m -33.174044,1017.7642 c 0.272555,0.8054 0.4375,1.665 0.4375,2.5625 0,4.4183 -3.581722,8 -8,8 -2.720651,0 -5.117207,-1.3623 -6.5625,-3.4375 1.069255,3.1597 4.041685,5.4375 7.5625,5.4375 4.418278,0 8,-3.5817 8,-8 0,-1.6976 -0.535669,-3.2676 -1.4375,-4.5625 z"/></g></svg>