<svg height="64" width="64" xmlns="http://www.w3.org/2000/svg" xmlns:xlink="http://www.w3.org/1999/xlink">
  <linearGradient id="a">
    <stop offset="0" stop-color="#fff306"/>
    <stop offset="1" stop-color="#ff7f01"/>
  </linearGradient>
  <linearGradient id="b">
    <stop offset="0"/>
    <stop offset="1" stop-color="#0f5f52"/>
  </linearGradient>
  <filter id="c" color-interpolation-filters="sRGB" height="1.230972" width="1.229831" x="-.114915" y="-.115486">
    <feGaussianBlur stdDeviation=".6059988"/>
  </filter>
  <filter id="d" color-interpolation-filters="sRGB" height="1.249814" width="1.269319" x="-.13466" y="-.124907">
    <feGaussianBlur stdDeviation="1.763901"/>
  </filter>
  <linearGradient id="e" gradientUnits="userSpaceOnUse" x1="47.749998" x2="15.375" xlink:href="#a" y1="46.499998" y2="22.374999"/>
  <linearGradient id="f" gradientUnits="userSpaceOnUse" x1="28" x2="44" xlink:href="#a" y1="28" y2="32"/>
  <radialGradient id="g" cx="32" cy="32" gradientTransform="matrix(1.3784287 1.5357628 -.89303843 .80155051 16.46751 -42.794012)" gradientUnits="userSpaceOnUse" r="20" xlink:href="#b"/>
  <filter id="h">
    <feGaussianBlur stdDeviation="1.68"/>
  </filter>
  <linearGradient id="i" gradientUnits="userSpaceOnUse" x1="16" x2="48" xlink:href="#a" y1="16" y2="48"/>
  <linearGradient id="j" gradientUnits="userSpaceOnUse" x1="10.429825" x2="38.114223" y1="1007.6377" y2="1024.6941">
    <stop offset="0" stop-color="#13daba" stop-opacity=".501961"/>
    <stop offset="1" stop-color="#03251f"/>
  </linearGradient>
  <filter id="k" color-interpolation-filters="sRGB">
    <feGaussianBlur stdDeviation="1.44"/>
  </filter>
  <radialGradient id="l" cx="32" cy="32" gradientTransform="matrix(1.1486906 1.2798015 -.74419869 .66795831 19.056258 -30.328315)" gradientUnits="userSpaceOnUse" r="20" xlink:href="#b"/>
  <filter id="m" color-interpolation-filters="sRGB">
    <feGaussianBlur stdDeviation=".505"/>
  </filter>
  <filter id="n" color-interpolation-filters="sRGB" height="1.404201" width="1.402204" x="-.201102" y="-.202101">
    <feGaussianBlur stdDeviation="1.0604979"/>
  </filter>
  <filter id="o" color-interpolation-filters="sRGB" height="1.356082" width="1.354322" x="-.177161" y="-.178041">
    <feGaussianBlur stdDeviation=".93424815"/>
  </filter>
  <linearGradient id="p" gradientUnits="userSpaceOnUse" x1="-44.736544" x2="-28.736544" xlink:href="#a" y1="1016.32667" y2="1020.32667"/>
  <linearGradient id="q" gradientUnits="userSpaceOnUse" x1="-24.986542" x2="-57.36154" xlink:href="#a" y1="1034.826678" y2="1010.701679"/>
  <linearGradient id="r" gradientUnits="userSpaceOnUse" x1="-56.736544" x2="-24.736544" xlink:href="#a" y1="1004.32667" y2="1036.32667"/>
  <linearGradient id="s" gradientUnits="userSpaceOnUse" spreadMethod="pad" x1="42.125" x2="24.75" y1="10.375" y2="56.125">
    <stop offset="0" stop-color="#19c6a1"/>
    <stop offset=".30864197" stop-color="#a4f4e3"/>
    <stop offset=".65432096" stop-color="#d9f7f1"/>
    <stop offset="1" stop-color="#009b7a"/>
  </linearGradient>
  <linearGradient id="t" gradientUnits="userSpaceOnUse" x1="-58.570175" x2="-18.635777" y1="1003.1377" y2="1034.4441">
    <stop offset="0" stop-color="#13daba"/>
    <stop offset="1" stop-color="#03251f"/>
  </linearGradient>
  <filter id="u" color-interpolation-filters="sRGB">
    <feGaussianBlur stdDeviation="1.68"/>
  </filter>
  <linearGradient id="v" gradientUnits="userSpaceOnUse" spreadMethod="pad" x1="42.5" x2="25.125" y1="998.79968" y2="1044.54968">
    <stop offset="0" stop-color="#19c6a1" stop-opacity=".752941"/>
    <stop offset=".30864197" stop-color="#a4f4e3"/>
    <stop offset=".65432096" stop-color="#d9f7f1"/>
    <stop offset="1" stop-color="#009b78" stop-opacity=".752941"/>
  </linearGradient>
  <linearGradient id="w" gradientUnits="userSpaceOnUse" x1="38.183765" x2="31.201086" y1="33.064079" y2="28.82144">
    <stop offset="0"/>
    <stop offset="1" stop-color="#0f5f52" stop-opacity="0"/>
  </linearGradient>
  <filter id="x" height="1.689512" width="1.519562" x="-.259781" y="-.344756">
    <feGaussianBlur stdDeviation="1.3585616"/>
  </filter>
  <filter id="y" height="1.109645" width="1.209708" x="-.104854" y="-.054822">
    <feGaussianBlur stdDeviation="1.0071355"/>
  </filter>
  <metadata/>
  <g transform="translate(0 -988.36218)">
    <path d="m28 992.36214-4 4.00004v4.00002l-3-3.00002h-6l-6 6.00002v6l3 3h-4l-4 4v8l4 4h4l-3 3v6l6 6h6c1.147043.435 1.437261.5242 1.5 3.3125 2.236628.5754 7.083754 1.6875 9.5 1.6875 15.46397 0 28-12.536 28-28 0-11.5626-6.99928-21.50902-17-25.78131-.666614 1.59048-2.504535 2.24015-3 1.78129l-4-4.00004z" fill="url(#j)" filter="url(#h)"/>
    <path d="m28 8v4.40625c-.222736.04523-.43627.103686-.65625.15625-.410499.09787-.818477.190041-1.21875.3125-.02176.0067-.04077.02449-.0625.03125-.591863.183324-1.183088.389835-1.75.625-.500562.208804-.989768.440151-1.46875.6875-.08271.04255-.167971.08132-.25.125-.556479.297288-1.101494.621939-1.625.96875l-3.125-3.125-5.65625 5.65625 3.125 3.125c-.341672.515748-.675122 1.045976-.96875 1.59375-.04801.08987-.07834.190559-.125.28125-.232389.450012-.457832.905888-.65625 1.375-.01273.03027-.01866.0634-.03125.09375-.237526.569414-.440047 1.155357-.625 1.75-.130645.421788-.240463.848047-.34375 1.28125-.052564.21998-.111023.433514-.15625.65625h-4.40625v8h4.40625c.04523.222736.103686.43627.15625.65625.09787.410499.190041.818477.3125 1.21875.0067.02176.02449.04077.03125.0625.183324.591863.389835 1.183088.625 1.75.208804.500562.440151.989768.6875 1.46875.04666.09069.07699.191375.125.28125.01751.03266.04481.06119.0625.09375.278784.514793.584173 1.01383.90625 1.5l-3.125 3.125 5.65625 5.65625 3.125-3.125c.523506.346811 1.068521.671462 1.625.96875.08203.04368.167292.08245.25.125.450012.232389.905888.457832 1.375.65625.03027.01273.0634.01866.09375.03125.569414.237526 1.155357.440047 1.75.625.421788.130645.848047.240463 1.28125.34375.21027.05024.412209.112707.625.15625.01001.002.02124-.002.03125 0h8c.22283-.04525.436163-.103776.65625-.15625.923563-.220682 1.81865-.499897 2.6875-.84375.618794-.243545 1.225752-.510633 1.8125-.8125.08255-.04263.168126-.08126.25-.125.558072-.297141 1.100165-.621059 1.625-.96875l5.65625-5.65625c.342758-.517388.6751-1.044039.96875-1.59375.04827-.09005.07808-.190386.125-.28125.301867-.586748.568955-1.193706.8125-1.8125.343853-.86885.623068-1.763937.84375-2.6875.05247-.220087.111003-.43342.15625-.65625v-8c-.002-.0098.002-.02142 0-.03125-.04353-.2127-.106134-.414805-.15625-.625-.220682-.923563-.499897-1.81865-.84375-2.6875-.243545-.618794-.510633-1.225752-.8125-1.8125-.04692-.09086-.07673-.191205-.125-.28125-.29365-.549711-.625992-1.076362-.96875-1.59375l-5.65625-5.65625c-.484994-.321298-.986607-.627358-1.5-.90625-.04094-.02217-.08389-.04061-.125-.0625-.08187-.04374-.167451-.08237-.25-.125-.586748-.301867-1.193706-.568955-1.8125-.8125-.86885-.343853-1.763937-.623068-2.6875-.84375-.210195-.05012-.4123-.112724-.625-.15625-.0098-.002-.02142.002-.03125 0v-4.40625zm4 20c2.209139 0 4 1.790861 4 4s-1.790861 4-4 4c-.276142 0-.55211-.04047-.8125-.09375-1.822733-.372985-3.1875-1.973253-3.1875-3.90625 0-.276142.040466-.55211.09375-.8125.372985-1.822733 1.973253-3.1875 3.90625-3.1875z" fill="url(#i)" transform="translate(0 988.36218)"/>
    <path d="m32 16c-8.836556 0-16 7.163444-16 16s7.163444 16 16 16 16-7.163444 16-16-7.163444-16-16-16zm0 12c2.209139 0 4 1.790861 4 4s-1.790861 4-4 4-4-1.790861-4-4 1.790861-4 4-4z" fill="url(#e)" transform="translate(0 988.36218)"/>
    <path d="m32 24c-4.418278 0-8 3.581722-8 8s3.581722 8 8 8 8-3.581722 8-8-3.581722-8-8-8zm0 4c2.209139 0 4 1.790861 4 4s-1.790861 4-4 4-4-1.790861-4-4 1.790861-4 4-4z" fill="url(#f)" transform="translate(0 988.36218)"/>
    <path d="m32 1004.3622c-8.836556 0-16 7.1634-16 16 0 4.8907 2.198478 9.2526 5.65625 12.1875-2.282494-2.7658-3.65625-6.3215-3.65625-10.1875 0-8.8366 7.163444-16 16-16 3.86599 0 7.42176 1.3737 10.1875 3.6562-2.93487-3.4577-7.29683-5.6562-12.1875-5.6562z" fill-opacity=".391304"/>
    <path d="m39.5625 1017.7997c.272555.8054.4375 1.665.4375 2.5625 0 4.4183-3.581722 8-8 8-2.720651 0-5.117207-1.3623-6.5625-3.4375 1.069255 3.1597 4.041685 5.4375 7.5625 5.4375 4.418278 0 8-3.5817 8-8 0-1.6976-.535669-3.2676-1.4375-4.5625z" fill-opacity=".391304"/>
    <path d="m42.3125 10.34375c-.275853 6.812833 2.091127 14.954436-9.3125 20.65625-14.270264 7.135058-10.465812 14.86375-6.855469 24.257813.677562.217822-.12077-.0069.580514.151895 1.696939.384342 3.460239.590292 5.274955.590292 13.254834 0 24-10.745157 24-24 0-9.561534-5.596092-17.797949-13.6875-21.65625z" fill="url(#w)" transform="translate(0 988.36218)"/>
    <path d="m19.887379 37.881245c0 2.611631-2.80967 4.728776-6.275573 4.728776s-6.2755729-2.117145-6.2755729-4.728776 2.8096699-4.728777 6.2755729-4.728777 6.275573 2.117146 6.275573 4.728777z" filter="url(#x)" transform="matrix(1.338311 0 0 1.4370006 15.945267 978.21621)"/>
    <path d="m42.3125 10.34375c1.626929 3.407127 2.260167 8.676072-.03685 13.414814-1.556024 3.210082-3.304624 6.220765-7.658776 8.522607-4.247767 2.245602-8.002291 2.8045-9.732287 4.512181-4.014531 3.96275-2.278905 11.00222 1.274261 18.448146 2.317104.744903 3.27648.758502 5.841152.758502 13.254834 0 24-10.745157 24-24 0-9.561534-5.596092-17.797949-13.6875-21.65625z" fill="url(#g)" opacity=".870293" transform="translate(0 988.36218)"/>
    <path d="m28 1004.3622c-6.627417 0-12 5.3726-12 12 0 .2018.0214.3944.03125.5937 3.96875-8.5937 5.96875-6.5937 12.625-12.5625-.219998-.012-.433254-.031-.65625-.031z" fill="#0fc" filter="url(#c)" transform="matrix(-1.8719467 0 0 -1.871948 82.871731 2921.8992)"/>
    <path d="m28 1004.3622c-6.627417 0-12 5.3726-12 12 0 .2018.0214.3944.03125.5937 3.96875-8.5937 5.96875-6.5937 12.625-12.5625-.219998-.012-.433254-.031-.65625-.031z" fill="#d7f4d7" filter="url(#c)" transform="matrix(-1.2147547 0 0 -1.2147555 70.284181 2259.2303)"/>
    <path d="m44.78125 21.6875-3.5 1.125c-.159312.414074-.352866.811293-.5625 1.21875zm-7.875 6.84375c-1.081862.856011-2.355765 1.693508-3.90625 2.46875-1.783034.891508-3.261197 1.739507-4.5 2.5625.958327.233851 1.9375.46875 1.9375.46875v3.0625c0 1.019594-2.03125 3.074156-2.03125 4.09375v3.0625s1.493879 3.438 1.625 4.375c.42798 3.058387-.521865-6.470569-.3125-6.84375 1.145396-2.041599 2.698023-4.625 3.3125-4.625.233303 0 1.665978-1.120832 2.90625.28125 1.170479 1.323184 2.16706 5.176778 2.5 4.84375.856059-.856285-1.875-8.25-1.875-8.25l6.21875-.6875 4.40625-4.46875-5.15625 3.125h-3.4375l-2.03125-2.03125z" fill-opacity=".866667" filter="url(#d)" opacity=".861789" transform="translate(0 988.36218)"/>
    <path d="m42.327724 10.343784c-.548738-.247754-2.642269-.03831-5.109835 2.376588l2.056042.657478c1.127203-.71102 1.815028-.50787 1.967315-.459692 1.494171.472705.645754 4.388833.1693 6.47919-1.552718 8.361211-9.002523 11.324205-15.159208 14.152866-3.345171 1.559801-4.737296 4.36486-5.23858 8.881728s2.508904 8.819746 5.132693 12.829082c.669966.210667-.142632-.006.54783.143209 0 0-4.830399-7.064617-3.406092-13.736155 1.213309-5.683211 5.53111-6.436498 9.626097-8.496005 7.176567-3.609337 10.985289-9.424678 11.4425-16.679509.19205-3.226247-1.020059-5.693669-2.028062-6.14878z" fill="url(#s)" opacity=".949791" transform="translate(0 988.36218)"/>
    <path d="m42.985537 999.28252c.436543 5.62048.126695 2.81738-1.199991 8.53948-1.552718 8.3612-6.315023 11.7617-12.471708 14.5904-3.345171 1.5598-6.976573 2.6274-7.477857 7.1442-.501284 4.5169 1.758904 9.6635 4.382693 13.6728.669966.2107-.142632-.01.54783.1432 0 0-4.450497-6.5927-3.02619-13.2642 1.213309-5.6833 5.46861-6.3427 9.563597-8.4022 7.176567-3.6094 11.032164-9.3934 11.489375-16.6483.19205-3.2262-.760684-4.5078-1.807749-5.77538z" fill="url(#v)" filter="url(#y)"/>
    <path d="m56 32c0 13.254834-10.745166 24-24 24s-24-10.745166-24-24 10.745166-24 24-24 24 10.745166 24 24z" fill="#032620" filter="url(#k)" transform="matrix(1.1666667 0 0 1.1666667 67.166666 981.528846)"/>
    <path d="m52 32c0 11.045695-8.954305 20-20 20s-20-8.954305-20-20 8.954305-20 20-20 20 8.954305 20 20z" fill="url(#l)" transform="matrix(1.19999997 0 0 1.2000008 66.1 980.462172)"/>
    <g fill="#0fc">
      <path d="m28 16c-6.627417 0-12 5.372583-12 12 0 .20181.0214.394383.03125.59375 3.96875-8.59375 5.96875-6.59375 12.625-12.5625-.219998-.012008-.433254-.03125-.65625-.03125z" filter="url(#m)" transform="matrix(1.19999997 0 0 1.2000008 66.570229 980.450284)"/>
      <path d="m28 1004.3622c-6.627417 0-12 5.3726-12 12 0 .2018.0214.3944.03125.5937 3.96875-8.5937 5.96875-6.5937 12.625-12.5625-.219998-.012-.433254-.031-.65625-.031z" filter="url(#n)" transform="matrix(1.51703698 0 0 1.51703802 61.538599 -524.376872)"/>
      <path d="m28 1004.3622c-6.627417 0-12 5.3726-12 12 0 .2018.0214.3944.03125.5937 3.96875-8.5937 5.96875-6.5937 12.625-12.5625-.219998-.012-.433254-.031-.65625-.031z" filter="url(#c)" transform="matrix(-1.87194667 0 0 -1.87194795 155.371731 2920.399185)"/>
    </g>
    <path d="m28 1004.3622c-6.627417 0-12 5.3726-12 12 0 .2018.0214.3944.03125.5937 3.96875-8.5937 5.96875-6.5937 12.625-12.5625-.219998-.012-.433254-.031-.65625-.031z" fill="#d7f4d7" filter="url(#c)" transform="matrix(-1.21475471 0 0 -1.21475554 142.784182 2257.730332)"/>
    <path d="m28 1004.3622c-6.627417 0-12 5.3726-12 12 0 .2018.0214.3944.03125.5937 5.570868-4.4816 8.905966-4.4575 12.625-12.5625-.219998-.012-.433254-.031-.65625-.031z" fill="#fff" filter="url(#o)" transform="matrix(.59662801 0 0 .59662842 79.214494 402.76729)"/>
    <path d="m30 29 .450431-9.592672 1.996832 9.124272 2.552737-1.5316 1-6-1-4 1-2v3l1.125 3.375-.07418 2.744617 7.03198-2.245758-7.0828 4.126141-1 4 2 2h3.375l5.0625-3.0625-4.3125 4.375-6.125.6875s2.686048 7.256632 1.846439 8.096462c-.326542.326628-1.289256-3.475594-2.437243-4.77335-1.216438-1.375138-2.617876-.260612-2.846696-.260612-.602669 0-2.136064 2.519769-3.25945 4.522134-.205342.36601.728015 9.714733.308259 6.715119-.128601-.918994-1.611309-4.299753-1.611309-4.299753s0-2 0-3 2-3 2-4 0-3 0-3-4.25-1.125-5.25-1.125c-.47674 0-1.893857.89205-3.377184 1.040709-1.628071.163165-3.310316-.415709-3.310316-.415709l-1.288462 1.254808.225962 4.245192-2-4 2-3 3.8125-.0625 1.170423-6.693425 3.092068-2.055016-2.122126 3.038537-.913529 5.350612 5.960664-.578208z" fill-opacity=".866667" filter="url(#d)" opacity=".861789" transform="matrix(1.0195929 0 0 1.0195936 72.343257 986.235203)"/>
    <path d="m-44.736544 992.32667-4 4v4.00003l-3-3.00003h-6l-6 6.00003v6l3 3h-4l-4 4v8l4 4h4l-3 3v6l6 6h6l3-3v4l4 4h8l4-4v-4l3 3h6l6-6v-6l-3-3h4l4-4v-8l-4-4h-4l3-3v-6l-6-6.00003h-6l-3 3.00003v-4.00003l-4-4z" fill="url(#t)" filter="url(#u)"/>
    <path d="m-44.736544 996.32667v4.40623c-.222736.045-.43627.1037-.65625.1563-.410499.098-.818477.19-1.21875.3125-.0218.01-.0408.024-.0625.031-.59186.1833-1.18309.3898-1.75.625-.50056.2088-.98977.4401-1.46875.6875-.0827.043-.16797.081-.25.125-.55648.2973-1.10149.6219-1.625.9687l-3.125-3.125-5.65625 5.6562 3.125 3.125c-.34167.5158-.67512 1.046-.96875 1.5938-.048.09-.0783.1905-.125.2812-.23239.45-.45783.9059-.65625 1.375-.0127.03-.0187.063-.0312.094-.23753.5694-.44005 1.1553-.625 1.75-.13065.4218-.24046.848-.34375 1.2812-.0526.22-.11102.4335-.15625.6563h-4.40625v8h4.40625c.0452.2227.10369.4363.15625.6562.0979.4105.19004.8185.3125 1.2188.007.022.0245.041.0312.062.18332.5918.38983 1.1831.625 1.75.2088.5005.44015.9897.6875 1.4687.0467.091.077.1914.125.2813.0175.033.0448.061.0625.094.27878.5148.58417 1.0139.90625 1.5l-3.125 3.125 5.65625 5.6563 3.125-3.125c.52351.3468 1.06852.6714 1.625.9687.082.044.16729.082.25.125.45001.2324.90589.4579 1.375.6563.0303.013.0634.019.0937.031.56941.2376 1.15536.4401 1.75.625.42179.1307.848047.2405 1.28125.3438.21027.05.412209.1127.625.1562h.03125v4.4063h8v-4.4063c.22283-.045.436163-.1037.65625-.1562.923563-.2207 1.81865-.4999 2.6875-.8438.618794-.2435 1.225752-.5106 1.8125-.8125.08255-.043.168126-.081.25-.125.558072-.2971 1.100165-.621 1.625-.9687l3.125 3.125 5.65625-5.6563-3.125-3.125c.342758-.5174.6751-1.044.96875-1.5937.04827-.09.07808-.1904.125-.2813.301867-.5867.568955-1.1937.8125-1.8125.343853-.8688.623068-1.7639.84375-2.6875.05247-.2201.111003-.4334.15625-.6562h4.40625v-8h-4.40625c-.002-.01.002-.021 0-.031-.04353-.2127-.106134-.4148-.15625-.625-.220682-.9235-.499897-1.8186-.84375-2.6875-.243545-.6188-.510633-1.2257-.8125-1.8125-.04692-.091-.07673-.1912-.125-.2812-.29365-.5497-.625992-1.0764-.96875-1.5938l3.125-3.125-5.65625-5.6562-3.125 3.125c-.484994-.3213-.986607-.6273-1.5-.9062-.04094-.022-.08389-.041-.125-.062-.08187-.044-.167451-.082-.25-.125-.586748-.3019-1.193706-.569-1.8125-.8125-.86885-.3439-1.763937-.6231-2.6875-.8438-.210195-.05-.4123-.1127-.625-.1562-.0098 0-.02142 0-.03125 0v-4.40633h-8zm4 20.00003c2.209139 0 4 1.7908 4 4 0 2.2091-1.790861 4-4 4-.276142 0-.55211-.041-.8125-.094-1.822733-.373-3.1875-1.9732-3.1875-3.9062 0-.2762.04047-.5521.09375-.8125.372985-1.8228 1.973253-3.1875 3.90625-3.1875z" fill="url(#r)"/>
    <path d="m-40.736544 1004.3267c-8.83656 0-16 7.1634-16 16 0 8.8365 7.16344 16 16 16 8.836556 0 16-7.1635 16-16 0-8.8366-7.163444-16-16-16zm0 12c2.209139 0 4 1.7908 4 4 0 2.2091-1.790861 4-4 4s-4-1.7909-4-4c0-2.2092 1.790861-4 4-4z" fill="url(#q)"/>
    <path d="m-40.736544 1012.3267c-4.418278 0-8 3.5817-8 8s3.581722 8 8 8 8-3.5817 8-8-3.581722-8-8-8zm0 4c2.209139 0 4 1.7908 4 4 0 2.2091-1.790861 4-4 4s-4-1.7909-4-4c0-2.2092 1.790861-4 4-4z" fill="url(#p)"/>
    <g fill-opacity=".391304">
      <path d="m-40.736544 1004.3267c-8.83656 0-16 7.1634-16 16 0 4.8907 2.19848 9.2526 5.65625 12.1875-2.28249-2.7658-3.65625-6.3215-3.65625-10.1875 0-8.8366 7.16344-16 16-16 3.86599 0 7.42176 1.3737 10.1875 3.6562-2.93487-3.4577-7.29683-5.6562-12.1875-5.6562z"/>
      <path d="m-33.174044 1017.7642c.272555.8054.4375 1.665.4375 2.5625 0 4.4183-3.581722 8-8 8-2.720651 0-5.117207-1.3623-6.5625-3.4375 1.069255 3.1597 4.041685 5.4375 7.5625 5.4375 4.418278 0 8-3.5817 8-8 0-1.6976-.535669-3.2676-1.4375-4.5625z"/>
    </g>
  </g>
</svg>
