<svg height="32" width="32" xmlns="http://www.w3.org/2000/svg" xmlns:xlink="http://www.w3.org/1999/xlink">
  <filter id="a" height="1.373333" width="1.373333" x="-.186667" y="-.186667">
    <feGaussianBlur stdDeviation="1.8666667"/>
  </filter>
  <metadata/>
  <path d="m4 10 6-6h4l10 10v4h2l2 2v4l-4 4h-6v-4h-4l-2-2h-2l-6-6z" fill="#fc0" filter="url(#a)"/>
  <g transform="translate(4 4)">
    <g fill="#0c0d0b">
      <rect height="2" width="4" x="6" y="2"/>
      <rect height="2" width="2" x="4" y="4"/>
      <rect height="6" width="2" x="2" y="6"/>
      <rect height="2" width="2" x="10" y="4"/>
      <rect height="2" width="2" x="4" y="12"/>
      <rect height="2" width="2" x="6" y="14"/>
      <rect height="2" width="2" x="12" y="6"/>
      <rect height="2" width="2" x="14" y="8"/>
      <rect height="2" width="2" x="8" y="14"/>
      <rect height="2" width="4" x="18" y="16"/>
      <rect height="4" width="2" x="16" y="18"/>
      <rect height="2" width="2" x="20" y="18"/>
      <rect height="2" width="2" x="18" y="20"/>
    </g>
    <rect fill="#fff7dc" height="2" width="2" x="18" y="18"/>
    <rect fill="#e2d5aa" height="2" width="2" x="16" y="16"/>
    <rect fill="#7b512d" height="2" width="4" x="10" y="12"/>
    <rect fill="#613c1b" height="2" width="2" x="8" y="12"/>
    <rect fill="#7b512d" height="2" width="4" x="6" y="10"/>
    <path d="m10 8h2v2h2v2h-4z" fill="#9d6d43"/>
    <g fill="#b88458">
      <rect height="2" width="2" x="8" y="8"/>
      <rect height="2" width="2" x="10" y="6"/>
      <rect height="2" width="2" x="12" y="8"/>
    </g>
    <rect fill="#613c1b" height="2" width="2" x="6" y="12"/>
    <rect fill="#dfb18f" height="2" width="2" x="6" y="6"/>
    <rect fill="#b21818" height="2" width="2" x="8" y="4"/>
    <rect fill="#b21818" height="2" width="2" x="4" y="8"/>
    <g fill="#d42a2a">
      <rect height="2" width="2" x="4" y="6"/>
      <rect height="2" width="2" x="6" y="4"/>
      <rect height="2" width="2" x="8" y="6"/>
      <rect height="2" width="2" x="6" y="8"/>
    </g>
    <rect fill="#0c0d0b" height="2" width="6" x="10" y="16"/>
    <rect fill="#0c0d0b" height="6" width="2" x="16" y="10"/>
    <rect fill="#613c1b" height="2" width="4" x="12" y="14"/>
    <rect fill="#9d6d43" height="2" width="2" x="14" y="12"/>
    <rect fill="#502d16" height="2" width="2" x="10" y="14"/>
    <rect fill="#b88458" height="2" width="2" x="14" y="10"/>
    <rect fill="#613c1b" height="2" width="2" x="4" y="10"/>
  </g>
</svg>
