<svg xmlns="http://www.w3.org/2000/svg" xmlns:svg="http://www.w3.org/2000/svg" id="svg2985" width="32" height="32" version="1.1"><defs id="defs2987"><filter id="filter4454" width="1.326" height="1.326" x="-.163" y="-.163"><feGaussianBlur id="feGaussianBlur4456" stdDeviation="1.222"/></filter><filter id="filter4863"><feGaussianBlur id="feGaussianBlur4865" stdDeviation=".533"/></filter><filter id="filter4974" width="1.373" height="1.373" x="-.187" y="-.187"><feGaussianBlur id="feGaussianBlur4976" stdDeviation="1.867"/></filter></defs><metadata id="metadata2990"/><g id="layer1"><path style="fill:#fc0;stroke:none;filter:url(#filter4974)" id="path4952" d="m 4,10 6,-6 4,0 10,10 0,4 2,0 2,2 0,4 -4,4 -6,0 0,-4 -4,0 -2,-2 -2,0 -6,-6 z"/><g id="g3473" transform="translate(4,4)"><rect id="rect3006" width="4" height="2" x="6" y="2" style="fill:#0c0d0b;fill-opacity:1;stroke:none"/><rect style="fill:#0c0d0b;fill-opacity:1;stroke:none" id="rect3014" width="2" height="2" x="4" y="4"/><rect id="rect3016" width="2" height="6" x="2" y="6" style="fill:#0c0d0b;fill-opacity:1;stroke:none"/><rect id="rect3018" width="2" height="2" x="10" y="4" style="fill:#0c0d0b;fill-opacity:1;stroke:none"/><rect style="fill:#0c0d0b;fill-opacity:1;stroke:none" id="rect3020" width="2" height="2" x="4" y="12"/><rect id="rect3022" width="2" height="2" x="6" y="14" style="fill:#0c0d0b;fill-opacity:1;stroke:none"/><rect style="fill:#0c0d0b;fill-opacity:1;stroke:none" id="rect3024" width="2" height="2" x="12" y="6"/><rect id="rect3026" width="2" height="2" x="14" y="8" style="fill:#0c0d0b;fill-opacity:1;stroke:none"/><rect style="fill:#0c0d0b;fill-opacity:1;stroke:none" id="rect3028" width="2" height="2" x="8" y="14"/><rect style="fill:#0c0d0b;fill-opacity:1;stroke:none" id="rect3030" width="4" height="2" x="18" y="16"/><rect style="fill:#0c0d0b;fill-opacity:1;stroke:none" id="rect3034" width="2" height="4" x="16" y="18"/><rect id="rect3036" width="2" height="2" x="20" y="18" style="fill:#0c0d0b;fill-opacity:1;stroke:none"/><rect style="fill:#0c0d0b;fill-opacity:1;stroke:none" id="rect3038" width="2" height="2" x="18" y="20"/><rect id="rect3040" width="2" height="2" x="18" y="18" style="fill:#fff7dc;fill-opacity:1;stroke:none"/><rect style="fill:#e2d5aa;fill-opacity:1;stroke:none" id="rect3042" width="2" height="2" x="16" y="16"/><rect id="rect3044" width="4" height="2" x="10" y="12" style="fill:#7b512d;fill-opacity:1;stroke:none"/><rect style="fill:#613c1b;fill-opacity:1;stroke:none" id="rect3046" width="2" height="2" x="8" y="12"/><rect id="rect3048" width="4" height="2" x="6" y="10" style="fill:#7b512d;fill-opacity:1;stroke:none"/><path id="rect3050" d="m 10,8 2,0 0,2 2,0 0,2 -4,0 z" style="fill:#9d6d43;fill-opacity:1;stroke:none"/><rect id="rect3053" width="2" height="2" x="8" y="8" style="fill:#b88458;fill-opacity:1;stroke:none"/><rect style="fill:#b88458;fill-opacity:1;stroke:none" id="rect3055" width="2" height="2" x="10" y="6"/><rect id="rect3057" width="2" height="2" x="12" y="8" style="fill:#b88458;fill-opacity:1;stroke:none"/><rect id="rect3059" width="2" height="2" x="6" y="12" style="fill:#613c1b;fill-opacity:1;stroke:none"/><rect style="fill:#dfb18f;fill-opacity:1;stroke:none" id="rect3061" width="2" height="2" x="6" y="6"/><rect id="rect3063" width="2" height="2" x="8" y="4" style="fill:#b21818;fill-opacity:1;stroke:none"/><rect style="fill:#b21818;fill-opacity:1;stroke:none" id="rect3065" width="2" height="2" x="4" y="8"/><rect id="rect3067" width="2" height="2" x="4" y="6" style="fill:#d42a2a;fill-opacity:1;stroke:none"/><rect style="fill:#d42a2a;fill-opacity:1;stroke:none" id="rect3069" width="2" height="2" x="6" y="4"/><rect id="rect3071" width="2" height="2" x="8" y="6" style="fill:#d42a2a;fill-opacity:1;stroke:none"/><rect style="fill:#d42a2a;fill-opacity:1;stroke:none" id="rect3073" width="2" height="2" x="6" y="8"/><rect id="rect4470" width="6" height="2" x="10" y="16" style="fill:#0c0d0b;fill-opacity:1;stroke:none"/><rect style="fill:#0c0d0b;fill-opacity:1;stroke:none" id="rect4472" width="2" height="6" x="16" y="10"/><rect id="rect4474" width="4" height="2" x="12" y="14" style="fill:#613c1b;fill-opacity:1;stroke:none"/><rect id="rect4476" width="2" height="2" x="14" y="12" style="fill:#9d6d43;fill-opacity:1;stroke:none"/><rect style="fill:#502d16;fill-opacity:1;stroke:none" id="rect4478" width="2" height="2" x="10" y="14"/><rect style="fill:#b88458;fill-opacity:1;stroke:none" id="rect4480" width="2" height="2" x="14" y="10"/><rect style="fill:#613c1b;fill-opacity:1;stroke:none" id="rect4978" width="2" height="2" x="4" y="10"/></g></g></svg>