<svg height="64" width="64" xmlns="http://www.w3.org/2000/svg" xmlns:xlink="http://www.w3.org/1999/xlink">
  <linearGradient id="a">
    <stop offset="0" stop-color="#556b6b"/>
    <stop offset=".5" stop-color="#3b8585" stop-opacity=".498039"/>
    <stop offset="1" stop-color="#fafbfb"/>
  </linearGradient>
  <linearGradient id="b">
    <stop offset="0" stop-color="#cbd6d6"/>
    <stop offset="1" stop-color="#637e7e"/>
  </linearGradient>
  <filter id="c">
    <feGaussianBlur stdDeviation=".3"/>
  </filter>
  <filter id="d">
    <feGaussianBlur stdDeviation=".3000003"/>
  </filter>
  <filter id="e">
    <feGaussianBlur stdDeviation=".74074074"/>
  </filter>
  <filter id="f">
    <feGaussianBlur stdDeviation="1.4979424"/>
  </filter>
  <linearGradient id="g" gradientUnits="userSpaceOnUse" x1="51" x2="35" xlink:href="#a" y1="1014.3622" y2="997.36218"/>
  <linearGradient id="h" gradientUnits="userSpaceOnUse" x1="25" x2="9" xlink:href="#a" y1="1039.3622" y2="1023.3622"/>
  <linearGradient id="i" gradientUnits="userSpaceOnUse" x1="28" x2="36" xlink:href="#b" y1="28" y2="36"/>
  <radialGradient id="j" cx="30" cy="30" gradientTransform="matrix(1.1034483 -.00000218 .00000218 1.103451 -3.103515 985.25875)" gradientUnits="userSpaceOnUse" r="14.5">
    <stop offset="0" stop-color="#fff"/>
    <stop offset=".14285807" stop-color="#fff656"/>
    <stop offset=".28571615" stop-color="#fdd300"/>
    <stop offset=".50000137" stop-color="#f6d01a"/>
    <stop offset="1" stop-color="#fafd00" stop-opacity="0"/>
  </radialGradient>
  <linearGradient id="k" gradientUnits="userSpaceOnUse" x1="24" x2="36" xlink:href="#b" y1="48" y2="48"/>
  <linearGradient id="l" gradientUnits="userSpaceOnUse" x1="24" x2="36" xlink:href="#b" y1="1000.3622" y2="1000.3622"/>
  <linearGradient id="m" gradientUnits="userSpaceOnUse" x1="44" x2="52" xlink:href="#b" y1="1018.3622" y2="1018.3622"/>
  <linearGradient id="n" gradientUnits="userSpaceOnUse" x1="8" x2="16" xlink:href="#b" y1="1018.3622" y2="1018.3622"/>
  <filter id="o">
    <feGaussianBlur stdDeviation=".39"/>
  </filter>
  <metadata/>
  <g transform="translate(2 -986.3622)">
    <path d="m57 27.00002v6l-8 8h-8v8l-8 8h-6l-8-8v-8h-8l-8-8v-6l8-8h8v-7l8-9h6l8 8v8h8z" fill="#ccc" filter="url(#f)" transform="translate(0 988.36218)"/>
    <path d="m56 28v4l-8 8h-8v8l-8 8h-4l-8-8v-8h-8l-8-8v-4l8-8h8v-8l8-8h4l4 4 4 4v8h8z" fill="#eff2f2" transform="translate(0 988.36218)"/>
    <path d="m52 1024.3622v-8l-4-4h-8l-4-4v-8l-4-4.00002h-8l4-4h4l8 8.00002v8h8l8 8v4z" fill="url(#g)"/>
    <path d="m8 1012.3622v8l4 4h8l4 4v8l4 4h8.00001l-4 4h-4.00001l-8-8v-8h-8l-8-8v-4z" fill="url(#h)"/>
    <path d="m36 8h-8l-4 4v8l-4 4h-8l-4 4v8l-4-4v-4l8-8h8v-8l8-8h4z" fill="#fff" opacity=".67364" transform="translate(0 988.36218)"/>
    <path d="m28 20-8 8v4l8 8h4l8-8v-4l-8-8z" fill="url(#i)" filter="url(#e)" transform="translate(0 988.36218)"/>
    <path d="m28 1000.3622v16h-16v4h16v16h4v-16h16v-4h-16v-16z" fill="url(#j)"/>
    <path d="m23.99998 1040.3622h8l4-4v-8l4-4h8l4.00002-4v-8l4 4v4l-8.00002 8h-8v8l-8 8h-4z" fill="#556b6b"/>
    <path d="m32 48h-4l-4-4v4l4 4h4l4-4v-4z" fill="url(#k)" filter="url(#c)" transform="translate(0 988.36218)"/>
    <path d="m32 1000.3622h-4l-4 4v-4l4-4.00002h4l4 4.00002v4z" fill="url(#l)" filter="url(#d)"/>
    <path d="m48 1020.3622v-4l-4-4h4l4 4v4l-4 4h-4z" fill="url(#m)" filter="url(#c)"/>
    <path d="m12 1016.3622v4l4 4h-4l-4-4v-4l4-4h4z" fill="url(#n)" filter="url(#c)"/>
    <path d="m28 992.3622-8 8v8h-8l-8.0000001 8v4l8.0000001 8h8v8l8 8h4l8-8v-8h8l8-8v-4l-8-8h-8v-8l-4-4-4-4zm2.90625 2.25c1.790052.15723 3.5491 1.39991 5.03125 4.1875 5.21676 3.1721-1.835545 14.0536 7.28125 11.3125 4.64748-.9978 13.08236 5.9966 9.65625 10.3437-2.87943 6.7429-10.8243 4.9933-14.84375 6.6563 1.50952 6.5659-1.74938 11.1566-6.8125 15-4.92726-.671-10.654448-6.4059-9.1875-12 1.831567-8.2895-10.191583-.2312-12.4375001-7.2813-7.428566-3.9347-.557092-9.4767 3.4375001-12.7187 7.835946 1.7735 10.684647-1.4404 9-9.1875l.46875-.4688c2.310711-3.39825 5.42283-6.10574 8.40625-5.8437z" fill="#eff2f2" fill-opacity=".10628" filter="url(#o)"/>
  </g>
</svg>
