<svg xmlns="http://www.w3.org/2000/svg" xmlns:svg="http://www.w3.org/2000/svg" xmlns:xlink="http://www.w3.org/1999/xlink" id="svg2" width="64" height="64" version="1.1"><defs id="defs4"><linearGradient id="linearGradient4065"><stop id="stop4067" offset="0" style="stop-color:#556b6b;stop-opacity:1"/><stop style="stop-color:#3b8585;stop-opacity:.49803922" id="stop4069" offset=".5"/><stop id="stop4071" offset="1" style="stop-color:#fafbfb;stop-opacity:1"/></linearGradient><linearGradient id="linearGradient4053"><stop id="stop4055" offset="0" style="stop-color:#556b6b;stop-opacity:1"/><stop style="stop-color:#3b8585;stop-opacity:.49803922" id="stop4057" offset=".5"/><stop id="stop4059" offset="1" style="stop-color:#fafbfb;stop-opacity:1"/></linearGradient><linearGradient id="linearGradient3802"><stop style="stop-color:#cbd6d6;stop-opacity:1" id="stop3804" offset="0"/><stop style="stop-color:#637e7e;stop-opacity:1" id="stop3806" offset="1"/></linearGradient><linearGradient id="linearGradient3006"><stop style="stop-color:#fff;stop-opacity:1" id="stop3008" offset="0"/><stop id="stop3955" offset=".143" style="stop-color:#fff656;stop-opacity:1"/><stop id="stop3949" offset=".286" style="stop-color:#fdd300;stop-opacity:1"/><stop style="stop-color:#f6d01a;stop-opacity:1" id="stop3951" offset=".5"/><stop style="stop-color:#fafd00;stop-opacity:0" id="stop3010" offset="1"/></linearGradient><filter id="filter3893"><feGaussianBlur id="feGaussianBlur3895" stdDeviation=".3"/></filter><filter id="filter3901"><feGaussianBlur id="feGaussianBlur3903" stdDeviation=".3"/></filter><filter id="filter3905"><feGaussianBlur id="feGaussianBlur3907" stdDeviation=".3"/></filter><filter id="filter3913"><feGaussianBlur id="feGaussianBlur3915" stdDeviation=".3"/></filter><filter id="filter3945"><feGaussianBlur id="feGaussianBlur3947" stdDeviation=".741"/></filter><filter id="filter3967"><feGaussianBlur id="feGaussianBlur3969" stdDeviation="1.498"/></filter><linearGradient id="linearGradient3985" x1="51" x2="35" y1="1014.362" y2="997.362" gradientUnits="userSpaceOnUse" xlink:href="#linearGradient4053"/><linearGradient id="linearGradient3987" x1="25" x2="9" y1="1039.362" y2="1023.362" gradientUnits="userSpaceOnUse" xlink:href="#linearGradient4065"/><linearGradient id="linearGradient3989" x1="28" x2="36" y1="28" y2="36" gradientUnits="userSpaceOnUse" xlink:href="#linearGradient3802"/><radialGradient id="radialGradient3991" cx="30" cy="30" r="14.5" fx="30" fy="30" gradientTransform="matrix(1.1034483,-2.1791858e-6,2.1791909e-6,1.103451,-3.1035149,985.25875)" gradientUnits="userSpaceOnUse" xlink:href="#linearGradient3006"/><linearGradient id="linearGradient3993" x1="24" x2="36" y1="48" y2="48" gradientUnits="userSpaceOnUse" xlink:href="#linearGradient3802"/><linearGradient id="linearGradient3995" x1="24" x2="36" y1="1000.362" y2="1000.362" gradientUnits="userSpaceOnUse" xlink:href="#linearGradient3802"/><linearGradient id="linearGradient3997" x1="44" x2="52" y1="1018.362" y2="1018.362" gradientUnits="userSpaceOnUse" xlink:href="#linearGradient3802"/><linearGradient id="linearGradient3999" x1="8" x2="16" y1="1018.362" y2="1018.362" gradientUnits="userSpaceOnUse" xlink:href="#linearGradient3802"/><filter id="filter4108"><feGaussianBlur id="feGaussianBlur4110" stdDeviation=".39"/></filter></defs><metadata id="metadata7"/><g id="layer1" transform="translate(0,-988.36218)"><g id="g3971" transform="translate(2,1.99998)"><path style="fill:#ccc;fill-opacity:1;stroke:none;filter:url(#filter3967)" id="path3957" d="m 57,27.00002 0,6 -8,8 -8,0 0,8 -8,8 -6,0 -8,-8 0,-8 -8,0 -8,-8 0,-6 8,-8 8,0 0,-7 8,-9 6,0 8,8 0,8 8,0 z" transform="translate(0,988.36218)"/><path id="path3000" d="m 56,28 0,4 -8,8 -8,0 0,8 -8,8 -4,0 -8,-8 0,-8 -8,0 -8,-8 0,-4 8,-8 8,0 0,-8 8,-8 4,0 4,4 4,4 0,8 8,0 z" transform="translate(0,988.36218)" style="fill:#eff2f2;fill-opacity:1;stroke:none"/><path id="path3788" d="m 52,1024.3622 0,-8 -4,-4 -8,0 -4,-4 0,-8 -4,-4.00002 -8,0 4,-4 4,0 8,8.00002 0,8 8,0 8,8 0,4 z" style="fill:url(#linearGradient3985);fill-opacity:1;stroke:none"/><path style="fill:url(#linearGradient3987);fill-opacity:1;stroke:none" id="path3790" d="m 8,1012.3622 0,8 4,4 8,0 4,4 0,8 4,4 8.00001,0 -4,4 -4.00001,0 -8,-8 0,-8 -8,0 -8,-8 0,-4 z"/><path id="path3002" d="m 36,8 -8,0 -4,4 0,8 -4,4 -8,0 -4,4 0,8 -4,-4 0,-4 8,-8 8,0 0,-8 8,-8 4,0 z" transform="translate(0,988.36218)" style="opacity:.67364017;fill:#fff;stroke:none"/><path id="path3800" d="m 28,20 -8,8 0,4 8,8 4,0 8,-8 0,-4 -8,-8 z" transform="translate(0,988.36218)" style="fill:url(#linearGradient3989);fill-opacity:1;stroke:none;filter:url(#filter3945)"/><path id="path3004" d="m 28,1000.3622 0,16 -16,0 0,4 16,0 0,16 4,0 0,-16 16,0 0,-4 -16,0 0,-16 z" style="fill:url(#radialGradient3991);fill-opacity:1;stroke:none"/><path style="fill:#556b6b;fill-opacity:1;stroke:none" id="path3786" d="m 23.99998,1040.3622 8,0 4,-4 0,-8 4,-4 8,0 4.00002,-4 0,-8 4,4 0,4 -8.00002,8 -8,0 0,8 -8,8 -4,0 z"/><path id="path3792" d="m 32,48 -4,0 -4,-4 0,4 4,4 4,0 4,-4 0,-4 z" transform="translate(0,988.36218)" style="fill:url(#linearGradient3993);fill-opacity:1;stroke:none;filter:url(#filter3893)"/><path style="fill:url(#linearGradient3995);fill-opacity:1;stroke:none;filter:url(#filter3905)" id="path3794" d="m 32,1000.3622 -4,0 -4,4 0,-4 4,-4.00002 4,0 4,4.00002 0,4 z"/><path id="path3796" d="m 48,1020.3622 0,-4 -4,-4 4,0 4,4 0,4 -4,4 -4,0 z" style="fill:url(#linearGradient3997);fill-opacity:1;stroke:none;filter:url(#filter3901)"/><path style="fill:url(#linearGradient3999);fill-opacity:1;stroke:none;filter:url(#filter3913)" id="path3798" d="m 12,1016.3622 0,4 4,4 -4,0 -4,-4 0,-4 4,-4 4,0 z"/><path style="fill:#eff2f2;fill-opacity:.10628019;stroke:none;filter:url(#filter4108)" id="path4073" d="m 28,992.3622 -8,8 0,8 -8,0 -8.0000001,8 0,4 8.0000001,8 8,0 0,8 8,8 4,0 8,-8 0,-8 8,0 8,-8 0,-4 -8,-8 -8,0 0,-8 -4,-4 -4,-4 -4,0 z m 2.90625,2.25 c 1.790052,0.15723 3.5491,1.39991 5.03125,4.1875 5.21676,3.1721 -1.835545,14.0536 7.28125,11.3125 4.64748,-0.9978 13.08236,5.9966 9.65625,10.3437 -2.87943,6.7429 -10.8243,4.9933 -14.84375,6.6563 1.50952,6.5659 -1.74938,11.1566 -6.8125,15 -4.92726,-0.671 -10.654448,-6.4059 -9.1875,-12 1.831567,-8.2895 -10.191583,-0.2312 -12.4375001,-7.2813 -7.428566,-3.9347 -0.557092,-9.4767 3.4375001,-12.7187 7.835946,1.7735 10.684647,-1.4404 9,-9.1875 L 22.5,1000.4559 c 2.310711,-3.39825 5.42283,-6.10574 8.40625,-5.8437 z"/></g></g></svg>