<svg xmlns="http://www.w3.org/2000/svg" xmlns:svg="http://www.w3.org/2000/svg" id="svg2" width="32" height="32" version="1.1"><defs id="defs4"><filter id="filter5719" width="1.36" height="1.72" x="-.18" y="-.36" color-interpolation-filters="sRGB"><feGaussianBlur id="feGaussianBlur5721" stdDeviation=".15"/></filter><filter id="filter5723" width="1.42" height="1.56" x="-.21" y="-.28" color-interpolation-filters="sRGB"><feGaussianBlur id="feGaussianBlur5725" stdDeviation=".35"/></filter><filter id="filter5711" width="1.346" height="1.691" x="-.173" y="-.346" color-interpolation-filters="sRGB"><feGaussianBlur id="feGaussianBlur5713" stdDeviation=".144"/></filter><filter id="filter5727" width="1.42" height="1.56" x="-.21" y="-.28" color-interpolation-filters="sRGB"><feGaussianBlur id="feGaussianBlur5729" stdDeviation=".35"/></filter><filter id="filter4028-6" width="1.294" height="1.515" x="-.147" y="-.257" color-interpolation-filters="sRGB"><feGaussianBlur id="feGaussianBlur4030-9" stdDeviation=".429"/></filter><filter id="filter4056-6" color-interpolation-filters="sRGB"><feGaussianBlur id="feGaussianBlur4058-6" stdDeviation=".676"/></filter></defs><metadata id="metadata7"/><g id="layer1" transform="translate(0,-1020.3622)"><rect id="rect4063-2" width="24" height="24" x="4" y="1024.362" style="fill:#999;fill-opacity:1;stroke:none"/><rect id="rect4038-2" width="26" height="26" x="3" y="3" transform="matrix(1.0769231,0,0,1.0769237,-1.2307693,1019.1314)" style="fill:#4d4d4d;fill-opacity:1;stroke:none;filter:url(#filter4056-6)"/><rect id="rect3189-4" width="20" height="5" x="6" y="1041.362" style="fill:#494949;fill-opacity:1;stroke:none"/><path id="path4034-6" d="m 6.0000007,1041.3622 20.0000003,0 0,2 -18.0000003,0 0,3 -2,0 z" style="fill:#000;fill-opacity:1;stroke:none;filter:url(#filter4028-6)"/><rect id="rect3155-9" width="8" height="5" x="6" y="1035.362" style="fill:#494949;fill-opacity:1;stroke:none"/><rect id="rect3163-4" width="8" height="5" x="18" y="1035.362" style="fill:#494949;fill-opacity:1;stroke:none"/><rect id="rect3009-1" width="3" height="3" x="4" y="1024.362" style="fill:#a1a1a1;fill-opacity:1;stroke:none"/><rect id="rect3011-9" width="3" height="3" x="7" y="1024.362" style="fill:#9b9b9b;fill-opacity:1;stroke:none"/><rect id="rect3013-0" width="3" height="3" x="10" y="1024.362" style="fill:#a3a3a3;fill-opacity:1;stroke:none"/><rect id="rect3017-9" width="3" height="3" x="13" y="1024.362" style="fill:#919191;fill-opacity:1;stroke:none"/><rect id="rect3019-6" width="3" height="3" x="16" y="1024.362" style="fill:#888;fill-opacity:1;stroke:none"/><rect id="rect3021-8" width="3" height="3" x="19" y="1024.362" style="fill:#8f8f8f;fill-opacity:1;stroke:none"/><rect id="rect3023-6" width="3" height="3" x="22" y="1024.362" style="fill:#9b9b9b;fill-opacity:1;stroke:none"/><rect id="rect3025-7" width="3" height="3" x="25" y="1024.362" style="fill:#989898;fill-opacity:1;stroke:none"/><rect id="rect3027-7" width="3" height="3" x="4" y="1027.362" style="fill:#9b9b9b;fill-opacity:1;stroke:none"/><rect id="rect3029-6" width="3" height="3" x="7" y="1027.362" style="fill:#9b9b9b;fill-opacity:1;stroke:none"/><rect id="rect3031-0" width="3" height="3" x="10" y="1027.362" style="fill:#a3a3a3;fill-opacity:1;stroke:none"/><rect id="rect3033-4" width="3" height="3" x="10" y="1027.362" style="fill:#9b9b9b;fill-opacity:1;stroke:none"/><rect id="rect3035-4" width="3" height="3" x="13" y="1027.362" style="fill:#aaa;fill-opacity:1;stroke:none"/><rect id="rect3037-2" width="3" height="3" x="16" y="1027.362" style="fill:#c1c1c1;fill-opacity:1;stroke:none"/><rect id="rect3039-4" width="3" height="3" x="19" y="1027.362" style="fill:#bebebe;fill-opacity:1;stroke:none"/><rect id="rect3041-2" width="3" height="3" x="22" y="1027.362" style="fill:#9b9b9b;fill-opacity:1;stroke:none"/><rect id="rect3043-1" width="3" height="3" x="25" y="1027.362" style="fill:#919191;fill-opacity:1;stroke:none"/><rect id="rect3045-3" width="3" height="3" x="4" y="1030.362" style="fill:#9b9b9b;fill-opacity:1;stroke:none"/><rect id="rect3047-1" width="3" height="3" x="7" y="1030.362" style="fill:#c7c7c7;fill-opacity:1;stroke:none"/><rect id="rect3049-5" width="3" height="3" x="10" y="1030.362" style="fill:#a3a3a3;fill-opacity:1;stroke:none"/><rect id="rect3051-9" width="3" height="3" x="10" y="1030.362" style="fill:#cacaca;fill-opacity:1;stroke:none"/><rect id="rect3053-2" width="3" height="3" x="13" y="1030.362" style="fill:#d8d8d8;fill-opacity:1;stroke:none"/><rect id="rect3055-9" width="3" height="3" x="16" y="1030.362" style="fill:#cfcfcf;fill-opacity:1;stroke:none"/><rect id="rect3057-7" width="3" height="3" x="19" y="1030.362" style="fill:#cfcfcf;fill-opacity:1;stroke:none"/><rect id="rect3059-2" width="3" height="3" x="22" y="1030.362" style="fill:#bababa;fill-opacity:1;stroke:none"/><rect id="rect3061-7" width="3" height="3" x="25" y="1030.362" style="fill:#aaa;fill-opacity:1;stroke:none"/><path id="path4032-3" d="m 6.0000007,1035.3622 8.0000003,0 0,2 -6.0000003,0 0,3 -2,0 z" style="fill:#000;fill-opacity:1;stroke:none;filter:url(#filter4028-6)"/><rect id="rect3063-8" width="3" height="3" x="4" y="1033.362" style="fill:#bababa;fill-opacity:1;stroke:none"/><rect id="rect3065-6" width="3" height="3" x="7" y="1033.362" style="fill:#c4c4c4;fill-opacity:1;stroke:none"/><rect id="rect3067-1" width="3" height="3" x="10" y="1033.362" style="fill:#a3a3a3;fill-opacity:1;stroke:none"/><rect id="rect3069-9" width="3" height="3" x="10" y="1033.362" style="fill:#bababa;fill-opacity:1;stroke:none"/><rect id="rect3071-7" width="3" height="3" x="13" y="1033.362" style="fill:#c1c1c1;fill-opacity:1;stroke:none"/><path id="path4036-6" d="m 18.000001,1035.3622 8,0 0,2 -6,0 0,3 -2,0 z" style="fill:#000;fill-opacity:1;stroke:none;filter:url(#filter4028-6)"/><rect id="rect3073-1" width="3" height="3" x="16" y="1033.362" style="fill:#afafaf;fill-opacity:1;stroke:none"/><rect id="rect3075-8" width="3" height="3" x="19" y="1033.362" style="fill:#cacaca;fill-opacity:1;stroke:none"/><rect id="rect3077-8" width="3" height="3" x="22" y="1033.362" style="fill:#aaa;fill-opacity:1;stroke:none"/><rect id="rect3079-2" width="3" height="3" x="25" y="1033.362" style="fill:#aaa;fill-opacity:1;stroke:none"/><rect id="rect3153-6" width="3" height="3" x="4" y="1036.362" style="fill:#c4c4c4;fill-opacity:1;stroke:none"/><rect id="rect3159-7" width="3" height="3" x="13" y="1036.362" style="fill:#c4c4c4;fill-opacity:1;stroke:none"/><rect id="rect3161-0" width="3" height="3" x="16" y="1036.362" style="fill:#cacaca;fill-opacity:1;stroke:none"/><rect id="rect3167-3" width="3" height="3" x="25" y="1036.362" style="fill:#bababa;fill-opacity:1;stroke:none"/><rect id="rect3169-4" width="3" height="3" x="4" y="1039.362" style="fill:#a7a7a7;fill-opacity:1;stroke:none"/><rect id="rect3171-8" width="3" height="3" x="7" y="1039.362" style="fill:#c1c1c1;fill-opacity:1;stroke:none"/><rect id="rect3173-5" width="3" height="3" x="10" y="1039.362" style="fill:#a3a3a3;fill-opacity:1;stroke:none"/><rect id="rect3175-0" width="3" height="3" x="10" y="1039.362" style="fill:#cacaca;fill-opacity:1;stroke:none"/><rect id="rect3177-4" width="6" height="3" x="13" y="1039.362" style="fill:#828282;fill-opacity:1;stroke:none"/><rect id="rect3181-9" width="3" height="3" x="19" y="1039.362" style="fill:#cacaca;fill-opacity:1;stroke:none"/><rect id="rect3183-7" width="3" height="3" x="22" y="1039.362" style="fill:#aaa;fill-opacity:1;stroke:none"/><rect id="rect3185-6" width="3" height="3" x="25" y="1039.362" style="fill:#8f8f8f;fill-opacity:1;stroke:none"/><rect id="rect3187-1" width="3" height="3" x="4" y="1042.362" style="fill:#9e9e9e;fill-opacity:1;stroke:none"/><rect id="rect3203-8" width="3" height="3" x="25" y="1042.362" style="fill:#919191;fill-opacity:1;stroke:none"/><rect id="rect3205-4" width="3" height="3" x="4" y="1045.362" style="fill:#828282;fill-opacity:1;stroke:none"/><rect id="rect3207-2" width="3" height="3" x="7" y="1045.362" style="fill:#7f7f7f;fill-opacity:1;stroke:none"/><rect id="rect3209-3" width="3" height="3" x="10" y="1045.362" style="fill:#a3a3a3;fill-opacity:1;stroke:none"/><rect id="rect3211-3" width="3" height="3" x="10" y="1045.362" style="fill:#858585;fill-opacity:1;stroke:none"/><rect id="rect3213-9" width="3" height="3" x="13" y="1045.362" style="fill:#858585;fill-opacity:1;stroke:none"/><rect id="rect3215-7" width="3" height="3" x="16" y="1045.362" style="fill:#919191;fill-opacity:1;stroke:none"/><rect id="rect3217-0" width="3" height="3" x="19" y="1045.362" style="fill:#858585;fill-opacity:1;stroke:none"/><rect id="rect3219-4" width="3" height="3" x="22" y="1045.362" style="fill:#949494;fill-opacity:1;stroke:none"/><rect id="rect3221-5" width="3" height="3" x="25" y="1045.362" style="fill:#888;fill-opacity:1;stroke:none"/><path id="rect3223-4" d="m 4.0000007,1023.3622 -1,1 0,24 1,1 24.0000003,0 1,-1 0,-24 -1,-1 z m 0,1 24.0000003,0 0,24 -24.0000003,0 z" style="fill:#333;fill-opacity:1;stroke:none"/><rect id="rect4124-4" width="4" height="3" x="8" y="1036.362" style="fill:teal;fill-opacity:1;stroke:none;filter:url(#filter5727)"/><rect id="rect4084-3" width="2" height="1" x="9" y="1037.362" style="fill:#0ff;fill-opacity:1;stroke:none;filter:url(#filter5711)"/><rect id="rect4124-9-2" width="4" height="3" x="20" y="1036.362" style="fill:teal;fill-opacity:1;stroke:none;filter:url(#filter5723)"/><rect id="rect4086-7" width="2" height="1" x="21" y="1037.362" style="fill:#0ff;fill-opacity:1;stroke:none;filter:url(#filter5719)"/></g></svg>