<svg height="32" width="32" xmlns="http://www.w3.org/2000/svg" xmlns:xlink="http://www.w3.org/1999/xlink">
  <filter id="a" color-interpolation-filters="sRGB" height="1.56" width="1.42" x="-.21" y="-.28">
    <feGaussianBlur stdDeviation=".35"/>
  </filter>
  <filter id="b" color-interpolation-filters="sRGB" height="1.5148" width="1.294172" x="-.147086" y="-.2574">
    <feGaussianBlur stdDeviation=".429"/>
  </filter>
  <filter id="c" color-interpolation-filters="sRGB">
    <feGaussianBlur stdDeviation=".676"/>
  </filter>
  <metadata/>
  <g transform="translate(0 -1020.3622)">
    <rect fill="#999" height="24" width="24" x="4" y="1024.3622"/>
    <rect fill="#4d4d4d" filter="url(#c)" height="26" transform="matrix(1.0769231 0 0 1.0769237 -1.230769 1019.1314)" width="26" x="3" y="3"/>
    <rect fill="#494949" height="5.000017" width="20" x="6" y="1041.3622"/>
    <path d="m6.0000007 1041.3622h20.0000003v2h-18.0000003v3h-2z" filter="url(#b)"/>
    <rect fill="#494949" height="5.000017" width="8" x="6" y="1035.3622"/>
    <rect fill="#494949" height="5.000017" width="8" x="18" y="1035.3622"/>
    <rect fill="#a1a1a1" height="3" width="3" x="4" y="1024.3622"/>
    <rect fill="#9b9b9b" height="3" width="3" x="7" y="1024.3622"/>
    <rect fill="#a3a3a3" height="3" width="3" x="10" y="1024.3622"/>
    <rect fill="#919191" height="3" width="3" x="13" y="1024.3622"/>
    <rect fill="#888" height="3" width="3" x="16" y="1024.3622"/>
    <rect fill="#8f8f8f" height="3" width="3" x="19" y="1024.3622"/>
    <rect fill="#9b9b9b" height="3" width="3" x="22" y="1024.3622"/>
    <rect fill="#989898" height="3" width="3" x="25" y="1024.3622"/>
    <rect fill="#9b9b9b" height="3" width="3" x="4" y="1027.3622"/>
    <rect fill="#9b9b9b" height="3" width="3" x="7" y="1027.3622"/>
    <rect fill="#a3a3a3" height="3" width="3" x="10" y="1027.3622"/>
    <rect fill="#9b9b9b" height="3" width="3" x="10" y="1027.3622"/>
    <rect fill="#aaa" height="3" width="3" x="13" y="1027.3622"/>
    <rect fill="#c1c1c1" height="3" width="3" x="16" y="1027.3622"/>
    <rect fill="#bebebe" height="3" width="3" x="19" y="1027.3622"/>
    <rect fill="#9b9b9b" height="3" width="3" x="22" y="1027.3622"/>
    <rect fill="#919191" height="3" width="3" x="25" y="1027.3622"/>
    <rect fill="#9b9b9b" height="3" width="3" x="4" y="1030.3622"/>
    <rect fill="#c7c7c7" height="3" width="3" x="7" y="1030.3622"/>
    <rect fill="#a3a3a3" height="3" width="3" x="10" y="1030.3622"/>
    <rect fill="#cacaca" height="3" width="3" x="10" y="1030.3622"/>
    <rect fill="#d8d8d8" height="3" width="3" x="13" y="1030.3622"/>
    <rect fill="#cfcfcf" height="3" width="3" x="16" y="1030.3622"/>
    <rect fill="#cfcfcf" height="3" width="3" x="19" y="1030.3622"/>
    <rect fill="#bababa" height="3" width="3" x="22" y="1030.3622"/>
    <rect fill="#aaa" height="3" width="3" x="25" y="1030.3622"/>
    <path d="m6.0000007 1035.3622h8.0000003v2h-6.0000003v3h-2z" filter="url(#b)"/>
    <rect fill="#bababa" height="3" width="3" x="4" y="1033.3622"/>
    <rect fill="#c4c4c4" height="3" width="3" x="7" y="1033.3622"/>
    <rect fill="#a3a3a3" height="3" width="3" x="10" y="1033.3622"/>
    <rect fill="#bababa" height="3" width="3" x="10" y="1033.3622"/>
    <rect fill="#c1c1c1" height="3" width="3" x="13" y="1033.3622"/>
    <path d="m18.000001 1035.3622h8v2h-6v3h-2z" filter="url(#b)"/>
    <rect fill="#afafaf" height="3" width="3" x="16" y="1033.3622"/>
    <rect fill="#cacaca" height="3" width="3" x="19" y="1033.3622"/>
    <rect fill="#aaa" height="3" width="3" x="22" y="1033.3622"/>
    <rect fill="#aaa" height="3" width="3" x="25" y="1033.3622"/>
    <rect fill="#c4c4c4" height="3" width="3" x="4" y="1036.3622"/>
    <rect fill="#c4c4c4" height="3" width="3" x="13" y="1036.3622"/>
    <rect fill="#cacaca" height="3" width="3" x="16" y="1036.3622"/>
    <rect fill="#bababa" height="3" width="3" x="25" y="1036.3622"/>
    <rect fill="#a7a7a7" height="3" width="3" x="4" y="1039.3622"/>
    <rect fill="#c1c1c1" height="3" width="3" x="7" y="1039.3622"/>
    <rect fill="#a3a3a3" height="3" width="3" x="10" y="1039.3622"/>
    <rect fill="#cacaca" height="3" width="3" x="10" y="1039.3622"/>
    <rect fill="#828282" height="3" width="6" x="13" y="1039.3622"/>
    <rect fill="#cacaca" height="3" width="3" x="19" y="1039.3622"/>
    <rect fill="#aaa" height="3" width="3" x="22" y="1039.3622"/>
    <rect fill="#8f8f8f" height="3" width="3" x="25" y="1039.3622"/>
    <rect fill="#9e9e9e" height="3" width="3" x="4" y="1042.3622"/>
    <rect fill="#919191" height="3" width="3" x="25" y="1042.3622"/>
    <rect fill="#828282" height="3" width="3" x="4" y="1045.3622"/>
    <rect fill="#7f7f7f" height="3" width="3" x="7" y="1045.3622"/>
    <rect fill="#a3a3a3" height="3" width="3" x="10" y="1045.3622"/>
    <rect fill="#858585" height="3" width="3" x="10" y="1045.3622"/>
    <rect fill="#858585" height="3" width="3" x="13" y="1045.3622"/>
    <rect fill="#919191" height="3" width="3" x="16" y="1045.3622"/>
    <rect fill="#858585" height="3" width="3" x="19" y="1045.3622"/>
    <rect fill="#949494" height="3" width="3" x="22" y="1045.3622"/>
    <rect fill="#888" height="3" width="3" x="25" y="1045.3622"/>
    <path d="m4.0000007 1023.3622-1 1v24l1 1h24.0000003l1-1v-24l-1-1zm0 1h24.0000003v24h-24.0000003z" fill="#333"/>
    <rect fill="#008080" filter="url(#a)" height="3" width="4" x="8" y="1036.3622"/>
    <rect fill="#0ff" height="1" width="2" x="9" y="1037.3622"/>
    <rect fill="#008080" filter="url(#a)" height="3" width="4" x="20" y="1036.3622"/>
    <rect fill="#0ff" height="1" width="2" x="21" y="1037.3622"/>
  </g>
</svg>
