<svg height="32" width="32" xmlns="http://www.w3.org/2000/svg" xmlns:xlink="http://www.w3.org/1999/xlink">
  <filter id="a">
    <feGaussianBlur stdDeviation=".792"/>
  </filter>
  <linearGradient id="b" gradientUnits="userSpaceOnUse" x1="16" x2="16" y1="31" y2="26">
    <stop offset="0" stop-color="#1a1a1a"/>
    <stop offset="1" stop-color="#1a1a1a" stop-opacity="0"/>
  </linearGradient>
  <linearGradient id="c" gradientUnits="userSpaceOnUse" x1="27" x2="5" y1="1046.3622" y2="1023.3622">
    <stop offset="0" stop-color="#115008"/>
    <stop offset=".5" stop-color="#39c228"/>
    <stop offset="1" stop-color="#c7f7c2"/>
  </linearGradient>
  <linearGradient id="d" gradientUnits="userSpaceOnUse" spreadMethod="reflect" x1="31" x2="4" y1="1052.3622" y2="1024.3622">
    <stop offset="0" stop-color="#115008"/>
    <stop offset=".49999952" stop-color="#39c228"/>
    <stop offset="1" stop-color="#c7f7c2"/>
  </linearGradient>
  <radialGradient id="e" cx="10" cy="1030.3622" gradientTransform="matrix(.98990735 -.00000284 -.00000122 .96907996 -6.585324 13.296415)" gradientUnits="userSpaceOnUse" r="3.03125">
    <stop offset="0" stop-color="#ffbe01"/>
    <stop offset=".48206061" stop-color="#ff0101"/>
    <stop offset=".76562566" stop-color="#e70000" stop-opacity=".45098"/>
    <stop offset="1" stop-color="#d40000" stop-opacity="0"/>
  </radialGradient>
  <filter id="f" height="1.740741" width="1.740741" x="-.37037" y="-.37037">
    <feGaussianBlur stdDeviation=".30864198"/>
  </filter>
  <filter id="g" height="1.896753" width="1.896753" x="-.448376" y="-.448376">
    <feGaussianBlur stdDeviation=".37364687"/>
  </filter>
  <metadata/>
  <g transform="translate(0 -1020.3622)">
    <rect fill="#2b1100" height="22" rx="5" width="22" x="5" y="1025.3622"/>
    <path d="m6 1026.3622v22h22v-22zm2 2h6v6h6v-6h6v6h-6v3h3v9h-3v-3h-6v3h-3v-9h3v-3h-6z" filter="url(#a)"/>
    <rect fill="#ff0101" filter="url(#g)" height="2" opacity=".251046" transform="matrix(5.89854021 0 0 7.69476345 -113.767885 960.414672)" width="2" x="21" y="9"/>
    <path d="m7 1022.3622c-2.77 0-5 0-5 0v30h28c0-10 0-20 0-30zm0 5h6v6h6v-6h6v6h-6v3h3v9h-3v-3h-6v3h-3v-9h3v-3h-6z" fill="url(#c)"/>
    <g opacity=".3" transform="translate(0 -1)">
      <path d="m3.999974 1022.3622h3v3h-3z" fill="#fff"/>
      <path d="m6.999974 1022.3622h3v3h-3z" fill="#b3b3b3"/>
      <path d="m3.999974 1025.3622h3v3h-3z" fill="#999"/>
      <path d="m.999974 1025.3622h3v3h-3z" fill="#f2f2f2"/>
      <path d="m3.999974 1028.3622h3v3h-3z" fill="#ccc"/>
      <path d="m.999974 1028.3622h3v3h-3z" fill="#b3b3b3"/>
      <path d="m6.999974 1025.3622h3v3h-3z" fill="#4d4d4d"/>
      <path d="m9.999974 1025.3622h3v3h-3z" fill="#999"/>
      <path d="m12.999974 1028.3622h3v3h-3z" fill="#f2f2f2"/>
      <path d="m12.999974 1025.3622h3v3h-3z" fill="#ccc"/>
      <path d="m9.999974 1022.3622h3v3h-3z" fill="#666"/>
      <path d="m12.999974 1022.3622h3v3h-3z" fill="#333"/>
      <path d="m18.99998 1028.3622v-3h3v3z" fill="#b3b3b3"/>
      <path d="m15.99998 1031.3622v-3h3v3z" fill="#ccc"/>
      <path d="m24.99998 1031.3622v-3h3v3z" fill="#ccc"/>
      <path d="m24.99998 1034.3622v-3h3v3z" fill="#b3b3b3"/>
      <path d="m21.99998 1028.3622v-3h3v3z" fill="#4d4d4d"/>
      <path d="m24.99998 1028.3622v-3h3v3z" fill="#e6e6e6"/>
      <path d="m15.99998 1028.3622v-3h3v3z" fill="#e6e6e6"/>
      <path d="m21.99998 1025.3622v-3h3v3z" fill="#999"/>
      <path d="m24.99998 1025.3622v-3h3v3z" fill="#ccc"/>
      <path d="m18.99998 1025.3622v-3h3v3z" fill="#666"/>
      <path d="m15.99998 1025.3622v-3h3v3z" fill="#b3b3b3"/>
      <path d="m15.99998 1034.3622v-3h3v3z" fill="#808080"/>
      <path d="m6.99998 1034.3622v3h3v-3z" fill="#fff"/>
      <path d="m6.99998 1037.3622v3h3v-3z" fill="#b3b3b3"/>
      <path d="m9.99998 1034.3622v3h3v-3z" fill="#999"/>
      <path d="m3.99998 1034.3622v3h3v-3z" fill="#ccc"/>
      <path d="m12.99998 1031.3622v3h3v-3z" fill="#b3b3b3"/>
      <path d="m3.99998 1037.3622v3h3v-3z" fill="#e6e6e6"/>
      <path d="m12.99998 1043.3622v3h3v-3z" fill="#f2f2f2"/>
      <path d="m6.99998 1040.3622v3h3v-3z" fill="#666"/>
      <path d="m3.99998 1040.3622v3h3v-3z" fill="#b3b3b3"/>
      <path d="m6.99998 1043.3622v3h3v-3z" fill="#333"/>
      <path d="m3.99998 1043.3622v3h3v-3z" fill="#ececec"/>
      <path d="m3.99998 1031.3622v3h3v-3z" fill="#808080"/>
      <path d="m28 1028.3622v3h3v-3z" fill="#ccc"/>
      <path d="m28 1031.3622v3h3v-3z" fill="#e6e6e6"/>
      <path d="m28 1034.3622v3h3v-3z" fill="#b3b3b3"/>
      <path d="m28 1037.3622v3h3v-3z" fill="#ececec"/>
      <path d="m28 1025.3622v3h3v-3z" fill="#808080"/>
      <path d="m28 1043.3622v3h3v-3z" fill="#ccc"/>
      <path d="m28 1046.3622v3h3v-3z" fill="#e6e6e6"/>
      <path d="m28 1049.3622v3h3v-3z" fill="#b3b3b3"/>
      <path d="m28 1040.3622v3h3v-3z" fill="#808080"/>
      <path d="m6.99998 1049.3622v3h3v-3z" fill="#fff"/>
      <path d="m9.99998 1049.3622v3h3v-3z" fill="#999"/>
      <path d="m9.99998 1046.3622v3h3v-3z" fill="#f2f2f2"/>
      <path d="m6.99998 1046.3622v3h3v-3z" fill="#666"/>
      <path d="m3.99998 1049.3622v3h3v-3z" fill="#ccc"/>
      <path d="m12.99998 1049.3622v3h3v-3z" fill="#ccc"/>
      <path d="m12.99998 1046.3622v3h3v-3z" fill="#b3b3b3"/>
      <path d="m3.99998 1046.3622v3h3v-3z" fill="#808080"/>
      <path d="m.99998 1034.3622v3h3v-3z" fill="#ccc"/>
      <path d="m.99998 1031.3622v3h3v-3z" fill="#b3b3b3"/>
      <path d="m.99998 1037.3622v3h3v-3z" fill="#e6e6e6"/>
      <path d="m.99998 1043.3622v3h3v-3z" fill="#f2f2f2"/>
      <path d="m.99998 1040.3622v3h3v-3z" fill="#ccc"/>
      <path d="m.99998 1049.3622v3h3v-3z" fill="#ccc"/>
      <path d="m.99998 1046.3622v3h3v-3z" fill="#b3b3b3"/>
      <path d="m12.999974 1043.3622h3v3h-3z" fill="#ccc"/>
      <path d="m15.999974 1043.3622h3v3h-3z" fill="#e6e6e6"/>
      <path d="m21.999974 1043.3622h3v3h-3z" fill="#f2f2f2"/>
      <path d="m21.999974 1040.3622h3v3h-3z" fill="#ccc"/>
      <path d="m18.999974 1034.3622h3v3h-3z" fill="#b3b3b3"/>
      <path d="m21.999974 1037.3622h3v3h-3z" fill="#333"/>
      <path d="m21.999974 1034.3622h3v3h-3z" fill="#ececec"/>
      <path d="m9.999974 1034.3622h3v3h-3z" fill="#808080"/>
      <path d="m21.999974 1043.3622h3v3h-3z" fill="#b3b3b3"/>
      <path d="m18.999974 1046.3622h3v3h-3z" fill="#999"/>
      <path d="m15.999974 1046.3622h3v3h-3z" fill="#f2f2f2"/>
      <path d="m15.999974 1043.3622h3v3h-3z" fill="#666"/>
      <path d="m18.999974 1049.3622h3v3h-3z" fill="#ccc"/>
      <path d="m15.999974 1049.3622h3v3h-3z" fill="#b3b3b3"/>
      <path d="m21.999974 1046.3622h3v3h-3z" fill="#4d4d4d"/>
      <path d="m21.999974 1049.3622h3v3h-3z" fill="#e6e6e6"/>
      <path d="m21.999974 1040.3622h3v3h-3z" fill="#e6e6e6"/>
      <path d="m24.999974 1046.3622h3v3h-3z" fill="#999"/>
      <path d="m27.999974 1049.3622h3v3h-3z" fill="#f2f2f2"/>
      <path d="m24.999974 1049.3622h3v3h-3z" fill="#ccc"/>
      <path d="m27.999974 1046.3622h3v3h-3z" fill="#ccc"/>
      <path d="m24.999974 1043.3622h3v3h-3z" fill="#666"/>
      <path d="m24.999974 1040.3622h3v3h-3z" fill="#b3b3b3"/>
      <path d="m27.999974 1043.3622h3v3h-3z" fill="#333"/>
      <path d="m27.999974 1040.3622h3v3h-3z" fill="#ececec"/>
      <path d="m18.999974 1034.3622h3v3h-3z" fill="#fff"/>
      <path d="m21.999974 1034.3622h3v3h-3z" fill="#b3b3b3"/>
      <path d="m21.999974 1037.3622h3v3h-3z" fill="#4d4d4d"/>
      <path d="m21.999974 1040.3622h3v3h-3z" fill="#e6e6e6"/>
      <path d="m24.999974 1037.3622h3v3h-3z" fill="#999"/>
      <path d="m27.999974 1040.3622h3v3h-3z" fill="#f2f2f2"/>
      <path d="m24.999974 1040.3622h3v3h-3z" fill="#ccc"/>
      <path d="m27.999974 1037.3622h3v3h-3z" fill="#ccc"/>
      <path d="m24.999974 1034.3622h3v3h-3z" fill="#666"/>
      <path d="m24.999974 1031.3622h3v3h-3z" fill="#b3b3b3"/>
      <path d="m27.999974 1034.3622h3v3h-3z" fill="#333"/>
      <path d="m27.999974 1031.3622h3v3h-3z" fill="#ececec"/>
      <path d="m15.999974 1031.3622h3v3h-3z" fill="#808080"/>
    </g>
    <path d="m0 1020.3622v32h2c0-10 0-20 0-30h28v30h2c0-10.6667 0-21.3333 0-32z"/>
    <path d="m1 1021.3622v31h1c0-10 0-20 0-30h28v30h1c0-10.3333 0-20.6667 0-31z" fill="url(#d)" opacity=".35"/>
    <rect fill="url(#b)" height="6" transform="translate(0 1020.3622)" width="32" y="26"/>
    <rect id="h" fill="url(#e)" height="6.0625" width="6.0625" x=".25" y="1008.7997"/>
    <use height="32" transform="translate(-12.8125 -2.374983)" width="32" xlink:href="#h"/>
    <g id="i">
      <rect fill="#ff0101" filter="url(#f)" height="2" transform="matrix(1.5471436 0 0 1.5471436 -12.037158 1014.8908)" width="2" x="21" y="9"/>
      <rect fill="#ffc501" filter="url(#f)" height="2" transform="matrix(.70378989 0 0 .70378989 6.516622 1023.3243)" width="2" x="21" y="9"/>
      <rect fill="#fcff01" filter="url(#f)" height="2" transform="matrix(.16522605 0 0 .16522605 18.365027 1028.7099)" width="2" x="21" y="9"/>
    </g>
    <use height="32" transform="translate(-12.000001)" width="32" xlink:href="#i"/>
  </g>
</svg>
