<svg height="32" width="32" xmlns="http://www.w3.org/2000/svg" xmlns:xlink="http://www.w3.org/1999/xlink">
  <filter id="a" height="1.217284" width="1.217284" x="-.108642" y="-.108642">
    <feGaussianBlur stdDeviation="1.1769547"/>
  </filter>
  <metadata/>
  <g transform="translate(0 -1020.3622)">
    <path d="m5.6875 1024.4872c-1 0-2 1-2 2v22c0 1 1 2 2 2h22c1 0 2-1 2-2v-22c0-1-1-2-2-2z" fill="#002020" filter="url(#a)"/>
    <path d="m6 1024.3622h20c1 0 2 1 2 2v7h-3v-3h-18v3h-3v-7.005c0-.995 1-1.995 2-1.995z" fill="#2b1e0d"/>
    <path d="m10 22h3v-3h6v3h3v6h-12z" fill="#421d0a" transform="translate(0 1020.3622)"/>
    <rect fill="#fff" height="5.000017" width="8" x="6" y="1035.3622"/>
    <rect fill="#fff" height="4.999996" width="8" x="18" y="1035.3622"/>
    <path d="m7 10h18v3h3v13c0 1-1 2-2 2h-4v-6h-3v-3h6v-3h-6v3h-6v-3h-6v3h6v3h-3v6h-4c-1 0-2-1-2-2v-10-3h3z" fill="#9c694c" transform="translate(0 1020.3622)"/>
    <rect fill="#2b1e0d" height="3" width="3" x="7" y="1024.3622"/>
    <rect fill="#2f1f0f" height="3" width="3" x="10" y="1024.3622"/>
    <rect fill="#281c0b" height="3" width="3" x="13" y="1024.3622"/>
    <rect fill="#241808" height="3" width="3" x="16" y="1024.3622"/>
    <rect fill="#261a0a" height="3" width="3" x="19" y="1024.3622"/>
    <g fill="#2b1e0d">
      <rect height="3" width="3" x="22" y="1024.3622"/>
      <rect height="3" width="3" x="4" y="1027.3622"/>
      <rect height="3" width="3" x="7" y="1027.3622"/>
      <rect height="3" width="3" x="10" y="1027.3622"/>
    </g>
    <rect fill="#332411" height="3" width="3" x="13" y="1027.3622"/>
    <rect fill="#422a12" height="3" width="3" x="16" y="1027.3622"/>
    <rect fill="#3f2a15" height="3" width="3" x="19" y="1027.3622"/>
    <rect fill="#2c1e0e" height="3" width="3" x="22" y="1027.3622"/>
    <rect fill="#281c0b" height="3" width="3" x="25" y="1027.3622"/>
    <rect fill="#2b1e0d" height="3" width="3" x="4" y="1030.3622"/>
    <rect fill="#342512" height="3" width="3" x="25" y="1030.3622"/>
    <rect fill="#8a4c3d" height="3" width="6" x="13" y="1042.3622"/>
    <rect fill="#6a4030" height="3" width="6" x="13" y="1039.362217"/>
    <rect fill="#41210c" height="3" width="3" x="10" y="1042.362217"/>
    <rect fill="#41210c" height="3" width="3" x="19" y="1042.362217"/>
    <rect fill="#421d0a" height="3" width="3" x="13" y="1045.362217"/>
    <g fill="#45220e">
      <rect height="3" width="3" x="19" y="1045.362217"/>
      <rect height="3" width="3" x="10" y="1045.362217"/>
      <rect height="3" width="3" x="16" y="1045.362217"/>
    </g>
    <g transform="translate(-28 .000017)">
      <rect fill="#b6896c" height="3" width="3" x="35" y="1030.3622"/>
      <rect fill="#bd8e72" height="3" width="3" x="38" y="1030.3622"/>
      <rect fill="#c69680" height="3" width="3" x="41" y="1030.3622"/>
      <rect fill="#bd8b72" height="3" width="3" x="44" y="1030.3622"/>
      <rect fill="#bd8e74" height="3" width="3" x="47" y="1030.3622"/>
      <rect fill="#ac765a" height="3" width="3" x="50" y="1030.3622"/>
      <rect fill="#aa7d66" height="3" width="3" x="32" y="1033.3622"/>
      <rect fill="#b4846d" height="3" width="3" x="35" y="1033.3622"/>
      <rect fill="#aa7d66" height="3" width="3" x="38" y="1033.3622"/>
      <rect fill="#ad806d" height="3" width="3" x="41" y="1033.3622"/>
      <rect fill="#9c725c" height="3" width="3" x="44" y="1033.3622"/>
      <rect fill="#bb8972" height="3" width="3" x="47" y="1033.3622"/>
      <rect fill="#9c694c" height="3" width="3" x="50" y="1033.3622"/>
      <rect fill="#9c694c" height="3" width="3" x="53" y="1033.3622"/>
      <rect fill="#b4846d" height="3" width="3" x="32" y="1036.3622"/>
      <rect fill="#b57b67" height="3" width="3" x="41" y="1036.3622"/>
      <rect fill="#bb8972" height="3" width="3" x="44" y="1036.3622"/>
      <rect fill="#aa7d66" height="3" width="3" x="53" y="1036.3622"/>
      <rect fill="#9c6346" height="3" width="3" x="32" y="1039.3622"/>
      <rect fill="#b37b62" height="3" width="3" x="35" y="1039.3622"/>
      <rect fill="#b78272" height="3" width="3" x="38" y="1039.3622"/>
      <rect fill="#be886c" height="3" width="3" x="47" y="1039.3622"/>
      <rect fill="#a26a47" height="3" width="3" x="50" y="1039.3622"/>
      <rect fill="#805334" height="3" width="3" x="53" y="1039.3622"/>
      <rect fill="#905e43" height="3" width="3" x="32" y="1042.3622"/>
      <rect fill="#815339" height="3" width="3" x="53" y="1042.3622"/>
      <path d="m32 1045.3622h3v3h-1c-1 0-2-1-2-2z" fill="#6f452c"/>
      <rect fill="#6d432a" height="3" width="3" x="35" y="1045.3622"/>
      <rect fill="#83553b" height="3" width="3" x="50" y="1045.3622"/>
      <path d="m53 1045.3622h3v1c0 1-1 2-2 2h-1z" fill="#7a4e33"/>
      <rect fill="#965f40" height="3" width="3" x="35" y="1042.3622"/>
      <rect fill="#8f5e3e" height="3" width="3" x="50" y="1042.3622"/>
    </g>
    <g fill="#523d89">
      <rect height="3" width="3" x="10" y="1036.3622"/>
      <rect height="3" width="3" x="19" y="1036.3622"/>
    </g>
  </g>
</svg>
