<?xml version="1.0" encoding="UTF-8" standalone="no"?>
<!-- Created with Inkscape (http://www.inkscape.org/) -->

<svg
   xmlns:dc="http://purl.org/dc/elements/1.1/"
   xmlns:cc="http://creativecommons.org/ns#"
   xmlns:rdf="http://www.w3.org/1999/02/22-rdf-syntax-ns#"
   xmlns:svg="http://www.w3.org/2000/svg"
   xmlns="http://www.w3.org/2000/svg"
   xmlns:xlink="http://www.w3.org/1999/xlink"
   xmlns:sodipodi="http://sodipodi.sourceforge.net/DTD/sodipodi-0.dtd"
   xmlns:inkscape="http://www.inkscape.org/namespaces/inkscape"
   width="64"
   height="64"
   id="svg2"
   version="1.1"
   inkscape:version="0.48.3.1 r9886"
   sodipodi:docname="enderpearl.svg"
   inkscape:export-filename="/home/peterix/projects/MultiMC4/src/resources/insticons/enderpearl.png"
   inkscape:export-xdpi="45"
   inkscape:export-ydpi="45">
  <defs
     id="defs4">
    <linearGradient
       id="linearGradient4030">
      <stop
         id="stop4032"
         offset="0"
         style="stop-color:#000000;stop-opacity:1;" />
      <stop
         id="stop4034"
         offset="1"
         style="stop-color:#0c493f;stop-opacity:0;" />
    </linearGradient>
    <linearGradient
       id="linearGradient3954">
      <stop
         style="stop-color:#000000;stop-opacity:1;"
         offset="0"
         id="stop3956" />
      <stop
         style="stop-color:#0f5f52;stop-opacity:1;"
         offset="1"
         id="stop3958" />
    </linearGradient>
    <filter
       inkscape:collect="always"
       id="filter3884">
      <feGaussianBlur
         inkscape:collect="always"
         stdDeviation="0.505"
         id="feGaussianBlur3886" />
    </filter>
    <filter
       inkscape:collect="always"
       id="filter3898"
       x="-0.20110182"
       width="1.4022036"
       y="-0.20210065"
       height="1.4042013">
      <feGaussianBlur
         inkscape:collect="always"
         stdDeviation="1.0604979"
         id="feGaussianBlur3900" />
    </filter>
    <filter
       inkscape:collect="always"
       id="filter3916"
       x="-0.11491533"
       width="1.2298307"
       y="-0.11548609"
       height="1.2309722">
      <feGaussianBlur
         inkscape:collect="always"
         stdDeviation="0.6059988"
         id="feGaussianBlur3918" />
    </filter>
    <filter
       inkscape:collect="always"
       id="filter3992">
      <feGaussianBlur
         inkscape:collect="always"
         stdDeviation="1.44"
         id="feGaussianBlur3994" />
    </filter>
    <radialGradient
       inkscape:collect="always"
       xlink:href="#linearGradient3954"
       id="radialGradient4024"
       gradientUnits="userSpaceOnUse"
       cx="32"
       cy="32"
       fx="32"
       fy="32"
       r="20"
       gradientTransform="matrix(1.1486906,1.2798015,-0.74419869,0.66795831,19.056258,-30.328315)" />
    <filter
       inkscape:collect="always"
       id="filter4082"
       x="-0.13465964"
       width="1.2693193"
       y="-0.12490681"
       height="1.2498136">
      <feGaussianBlur
         inkscape:collect="always"
         stdDeviation="1.763901"
         id="feGaussianBlur4084" />
    </filter>
    <filter
       inkscape:collect="always"
       id="filter4110"
       x="-0.17716113"
       width="1.3543223"
       y="-0.17804105"
       height="1.3560821">
      <feGaussianBlur
         inkscape:collect="always"
         stdDeviation="0.93424815"
         id="feGaussianBlur4112" />
    </filter>
    <linearGradient
       id="linearGradient3954-9">
      <stop
         style="stop-color:#000000;stop-opacity:1;"
         offset="0"
         id="stop3956-4" />
      <stop
         style="stop-color:#0f5f52;stop-opacity:1;"
         offset="1"
         id="stop3958-2" />
    </linearGradient>
    <radialGradient
       inkscape:collect="always"
       xlink:href="#linearGradient3954"
       id="radialGradient4230"
       gradientUnits="userSpaceOnUse"
       gradientTransform="matrix(1.1486906,1.2798015,-0.74419869,0.66795831,19.056258,-30.328315)"
       cx="32"
       cy="32"
       fx="32"
       fy="32"
       r="20" />
    <radialGradient
       inkscape:collect="always"
       xlink:href="#linearGradient3954"
       id="radialGradient4250"
       gradientUnits="userSpaceOnUse"
       gradientTransform="matrix(1.1486906,1.2798015,-0.74419869,0.66795831,19.056258,-30.328315)"
       cx="32"
       cy="32"
       fx="32"
       fy="32"
       r="20" />
  </defs>
  <sodipodi:namedview
     id="base"
     pagecolor="#ffffff"
     bordercolor="#666666"
     borderopacity="1.0"
     inkscape:pageopacity="0.0"
     inkscape:pageshadow="2"
     inkscape:zoom="1"
     inkscape:cx="-241.15414"
     inkscape:cy="194.64078"
     inkscape:document-units="px"
     inkscape:current-layer="layer1"
     showgrid="false"
     showguides="true"
     inkscape:guide-bbox="true"
     inkscape:window-width="1607"
     inkscape:window-height="1030"
     inkscape:window-x="1676"
     inkscape:window-y="-3"
     inkscape:window-maximized="1">
    <inkscape:grid
       type="xygrid"
       id="grid2985"
       empspacing="2"
       visible="true"
       enabled="true"
       snapvisiblegridlinesonly="true" />
    <sodipodi:guide
       orientation="0,1"
       position="11.25,96.5"
       id="guide4252" />
  </sodipodi:namedview>
  <metadata
     id="metadata7">
    <rdf:RDF>
      <cc:Work
         rdf:about="">
        <dc:format>image/svg+xml</dc:format>
        <dc:type
           rdf:resource="http://purl.org/dc/dcmitype/StillImage" />
        <dc:title></dc:title>
      </cc:Work>
    </rdf:RDF>
  </metadata>
  <g
     inkscape:label="Layer 1"
     inkscape:groupmode="layer"
     id="layer1"
     transform="translate(0,-988.36218)">
    <path
       sodipodi:type="arc"
       style="fill:#032620;fill-opacity:1;stroke:none;filter:url(#filter3992)"
       id="path3005"
       sodipodi:cx="32"
       sodipodi:cy="32"
       sodipodi:rx="24"
       sodipodi:ry="24"
       d="M 56,32 A 24,24 0 1 1 8,32 24,24 0 1 1 56,32 z"
       transform="matrix(1.1666667,0,0,1.1666667,-5.3333344,983.02885)" />
    <g
       id="g4116"
       transform="matrix(1.0195929,0,0,1.0195936,-0.15674338,-19.992546)">
      <path
         transform="matrix(1.1769403,0,0,1.1769403,-6.1232836,982.70009)"
         d="M 52,32 C 52,43.045695 43.045695,52 32,52 20.954305,52 12,43.045695 12,32 12,20.954305 20.954305,12 32,12 c 11.045695,0 20,8.954305 20,20 z"
         sodipodi:ry="20"
         sodipodi:rx="20"
         sodipodi:cy="32"
         sodipodi:cx="32"
         id="path3014"
         style="fill:url(#radialGradient4024);fill-opacity:1;stroke:none"
         sodipodi:type="arc" />
      <path
         sodipodi:nodetypes="ssccs"
         inkscape:connector-curvature="0"
         id="path3866"
         transform="matrix(1.1769403,0,0,1.1769403,-5.6620909,982.68843)"
         d="m 28,16 c -6.627417,0 -12,5.372583 -12,12 0,0.20181 0.0214,0.394383 0.03125,0.59375 C 20,20 22,22 28.65625,16.03125 28.436252,16.019242 28.222996,16 28,16 z"
         style="fill:#00ffcc;fill-opacity:1;stroke:none;filter:url(#filter3884)" />
      <path
         transform="matrix(1.487885,0,0,1.487885,-10.597031,-493.22036)"
         style="fill:#00ffcc;fill-opacity:1;stroke:none;filter:url(#filter3898)"
         d="m 28,1004.3622 c -6.627417,0 -12,5.3726 -12,12 0,0.2018 0.0214,0.3944 0.03125,0.5937 3.96875,-8.5937 5.96875,-6.5937 12.625,-12.5625 -0.219998,-0.012 -0.433254,-0.031 -0.65625,-0.031 z"
         id="path3888"
         inkscape:connector-curvature="0"
         sodipodi:nodetypes="ssccs" />
      <path
         sodipodi:nodetypes="ssccs"
         inkscape:connector-curvature="0"
         id="path3902"
         d="m 28,1004.3622 c -6.627417,0 -12,5.3726 -12,12 0,0.2018 0.0214,0.3944 0.03125,0.5937 3.96875,-8.5937 5.96875,-6.5937 12.625,-12.5625 -0.219998,-0.012 -0.433254,-0.031 -0.65625,-0.031 z"
         style="fill:#00ffcc;fill-opacity:1;stroke:none;filter:url(#filter3916)"
         transform="matrix(-1.8359746,0,0,-1.8359746,81.432966,2885.3572)" />
      <path
         transform="matrix(-1.1914115,0,0,-1.1914115,69.087304,2235.4229)"
         style="fill:#d7f4d7;fill-opacity:1;stroke:none;filter:url(#filter3916)"
         d="m 28,1004.3622 c -6.627417,0 -12,5.3726 -12,12 0,0.2018 0.0214,0.3944 0.03125,0.5937 3.96875,-8.5937 5.96875,-6.5937 12.625,-12.5625 -0.219998,-0.012 -0.433254,-0.031 -0.65625,-0.031 z"
         id="path3920"
         inkscape:connector-curvature="0"
         sodipodi:nodetypes="ssccs" />
      <path
         sodipodi:nodetypes="csccsc"
         inkscape:connector-curvature="0"
         id="path3964"
         d="m 28,1004.3622 c -6.627417,0 -12,5.3726 -12,12 0,0.2018 0.0214,0.3944 0.03125,0.5937 5.570868,-4.4816 8.905966,-4.4575 12.625,-12.5625 -0.219998,-0.012 -0.433254,-0.031 -0.65625,-0.031 z"
         style="fill:#ffffff;fill-opacity:1;stroke:none;filter:url(#filter4110)"
         transform="matrix(0.58516297,0,0,0.58516297,6.7391969,416.10681)" />
      <path
         transform="translate(0,988.36218)"
         sodipodi:nodetypes="ccccccccccccccccccssssscsscsscccccccccccc"
         inkscape:connector-curvature="0"
         id="path4036"
         d="M 30,29 30.450431,19.407328 32.447263,28.5316 35,27 l 1,-6 -1,-4 1,-2 0,3 1.125,3.375 -0.07418,2.744617 L 44.0828,21.873859 37,26 l -1,4 2,2 3.375,0 5.0625,-3.0625 -4.3125,4.375 L 36,34 c 0,0 2.686048,7.256632 1.846439,8.096462 -0.326542,0.326628 -1.289256,-3.475594 -2.437243,-4.77335 C 34.192758,35.947974 32.79132,37.0625 32.5625,37.0625 c -0.602669,0 -2.136064,2.519769 -3.25945,4.522134 -0.205342,0.36601 0.728015,9.714733 0.308259,6.715119 C 29.482708,47.380759 28,44 28,44 c 0,0 0,-2 0,-3 0,-1 2,-3 2,-4 0,-1 0,-3 0,-3 0,0 -4.25,-1.125 -5.25,-1.125 -0.47674,0 -1.893857,0.89205 -3.377184,1.040709 C 19.744745,34.078874 18.0625,33.5 18.0625,33.5 L 16.774038,34.754808 17,39 l -2,-4 2,-3 3.8125,-0.0625 1.170423,-6.693425 3.092068,-2.055016 -2.122126,3.038537 -0.913529,5.350612 L 28,31 z"
         style="opacity:0.86178864;fill:#000000;fill-opacity:0.86666667;stroke:none;filter:url(#filter4082)" />
    </g>
  </g>
</svg>
