<?xml version="1.0" encoding="UTF-8" standalone="no"?>
<!-- Created with Inkscape (http://www.inkscape.org/) -->

<svg
   xmlns:dc="http://purl.org/dc/elements/1.1/"
   xmlns:cc="http://creativecommons.org/ns#"
   xmlns:rdf="http://www.w3.org/1999/02/22-rdf-syntax-ns#"
   xmlns:svg="http://www.w3.org/2000/svg"
   xmlns="http://www.w3.org/2000/svg"
   xmlns:sodipodi="http://sodipodi.sourceforge.net/DTD/sodipodi-0.dtd"
   xmlns:inkscape="http://www.inkscape.org/namespaces/inkscape"
   width="32"
   height="32"
   id="svg2"
   version="1.1"
   inkscape:version="0.48.3.1 r9886"
   sodipodi:docname="herobrine.svg"
   inkscape:export-filename="/home/peterix/projects/MultiMC4/src/resources/insticons/herobrine.png"
   inkscape:export-xdpi="90"
   inkscape:export-ydpi="90">
  <defs
     id="defs4">
    <filter
       inkscape:collect="always"
       id="filter3927"
       x="-0.10864197"
       width="1.2172839"
       y="-0.10864198"
       height="1.217284">
      <feGaussianBlur
         inkscape:collect="always"
         stdDeviation="1.1769547"
         id="feGaussianBlur3929" />
    </filter>
    <filter
       inkscape:collect="always"
       id="filter4035"
       x="-0.066666667"
       width="1.1333333"
       y="-0.13333333"
       height="1.2666667">
      <feGaussianBlur
         inkscape:collect="always"
         stdDeviation="0.16666667"
         id="feGaussianBlur4037" />
    </filter>
  </defs>
  <sodipodi:namedview
     id="base"
     pagecolor="#484848"
     bordercolor="#666666"
     borderopacity="1.0"
     inkscape:pageopacity="0"
     inkscape:pageshadow="2"
     inkscape:zoom="1"
     inkscape:cx="-64.2584"
     inkscape:cy="64.238479"
     inkscape:document-units="px"
     inkscape:current-layer="layer1"
     showgrid="false"
     inkscape:window-width="1607"
     inkscape:window-height="1030"
     inkscape:window-x="1676"
     inkscape:window-y="-3"
     inkscape:window-maximized="1">
    <inkscape:grid
       type="xygrid"
       id="grid2996"
       empspacing="4"
       visible="true"
       enabled="true"
       snapvisiblegridlinesonly="true" />
  </sodipodi:namedview>
  <metadata
     id="metadata7">
    <rdf:RDF>
      <cc:Work
         rdf:about="">
        <dc:format>image/svg+xml</dc:format>
        <dc:type
           rdf:resource="http://purl.org/dc/dcmitype/StillImage" />
        <dc:title />
      </cc:Work>
    </rdf:RDF>
  </metadata>
  <g
     inkscape:label="Layer 1"
     inkscape:groupmode="layer"
     id="layer1"
     transform="translate(0,-1020.3622)">
    <path
       style="fill:#170b28;fill-opacity:1;stroke:none;filter:url(#filter3927)"
       d="m 5.0606609,1024.2461 -1,1 0,24 1,1 24.0000001,0 1,-1 0,-24 -1,-1 z"
       id="rect3223-4"
       inkscape:connector-curvature="0"
       sodipodi:nodetypes="ccccccccc" />
    <path
       style="fill:#2b1e0d;fill-opacity:1;stroke:none"
       d="m 6,1024.3622 20,0 c 1,0 2,1 2,2 l 0,7 -3,0 0,-3 -18,0 0,3 -3,0 0,-7.005 c 0,-0.995 1,-1.995 2,-1.995 z"
       id="rect3978"
       inkscape:connector-curvature="0"
       sodipodi:nodetypes="ccccccccccc" />
    <path
       transform="translate(0,1020.3622)"
       style="fill:#421d0a;fill-opacity:1;stroke:none"
       d="m 10,22 3,0 0,3 6,0 0,-3 3,0 0,6 -12,0 z"
       id="rect3981"
       inkscape:connector-curvature="0"
       sodipodi:nodetypes="ccccccccc" />
    <path
       transform="translate(0,1020.3622)"
       style="fill:#9c694c;fill-opacity:1;stroke:none"
       d="m 7,10 18,0 0,3 3,0 0,13 c 0,1 -1,2 -2,2 l -4,0 0,-6 -3,0 0,-3 6,0 0,-3 -6,0 0,3 -6,0 0,-3 -6,0 0,3 6,0 0,3 -3,0 0,6 -4,0 C 5,28 4,27 4,26 l 0,-10 0,-3 3,0 z"
       id="rect3941"
       inkscape:connector-curvature="0"
       sodipodi:nodetypes="cccccccccccccccccccccccccccc" />
    <rect
       style="fill:#bb8972;fill-opacity:1;stroke:none"
       id="rect3939"
       width="24"
       height="24"
       x="42"
       y="1052.6122" />
    <rect
       y="1024.3622"
       x="6.9999995"
       height="3"
       width="3"
       id="rect3011-9"
       style="fill:#2b1e0d;fill-opacity:1;stroke:none" />
    <rect
       style="fill:#2f1f0f;fill-opacity:1;stroke:none"
       id="rect3013-0"
       width="3"
       height="3"
       x="10"
       y="1024.3622" />
    <rect
       style="fill:#281c0b;fill-opacity:1;stroke:none"
       id="rect3017-9"
       width="3"
       height="3"
       x="13"
       y="1024.3622" />
    <rect
       y="1024.3622"
       x="16"
       height="3"
       width="3"
       id="rect3019-6"
       style="fill:#241808;fill-opacity:1;stroke:none" />
    <rect
       style="fill:#261a0a;fill-opacity:1;stroke:none"
       id="rect3021-8"
       width="3"
       height="3"
       x="19"
       y="1024.3622" />
    <rect
       y="1024.3622"
       x="22"
       height="3"
       width="3"
       id="rect3023-6"
       style="fill:#2b1e0d;fill-opacity:1;stroke:none" />
    <rect
       y="1027.3622"
       x="3.9999998"
       height="3"
       width="3"
       id="rect3027-7"
       style="fill:#2b1e0d;fill-opacity:1;stroke:none" />
    <rect
       style="fill:#2b1e0d;fill-opacity:1;stroke:none"
       id="rect3029-6"
       width="3"
       height="3"
       x="6.9999995"
       y="1027.3622" />
    <rect
       style="fill:#2b1e0d;fill-opacity:1;stroke:none"
       id="rect3033-4"
       width="3"
       height="3"
       x="10"
       y="1027.3622" />
    <rect
       y="1027.3622"
       x="13"
       height="3"
       width="3"
       id="rect3035-4"
       style="fill:#332411;fill-opacity:1;stroke:none" />
    <rect
       style="fill:#422a12;fill-opacity:1;stroke:none"
       id="rect3037-2"
       width="3"
       height="3"
       x="16"
       y="1027.3622" />
    <rect
       y="1027.3622"
       x="19"
       height="3"
       width="3"
       id="rect3039-4"
       style="fill:#3f2a15;fill-opacity:1;stroke:none" />
    <rect
       style="fill:#2c1e0e;fill-opacity:1;stroke:none"
       id="rect3041-2"
       width="3"
       height="3"
       x="22"
       y="1027.3622" />
    <rect
       y="1027.3622"
       x="25"
       height="3"
       width="3"
       id="rect3043-1"
       style="fill:#281c0b;fill-opacity:1;stroke:none" />
    <rect
       y="1030.3622"
       x="3.9999998"
       height="3"
       width="3"
       id="rect3045-3"
       style="fill:#2b1e0d;fill-opacity:1;stroke:none" />
    <rect
       y="1030.3622"
       x="25"
       height="3"
       width="3"
       id="rect3061-7"
       style="fill:#342512;fill-opacity:1;stroke:none" />
    <rect
       style="fill:#6a4030;fill-opacity:1;stroke:none"
       id="rect3177-4"
       width="6"
       height="3"
       x="13"
       y="1039.3622" />
    <rect
       style="fill:#41210c;fill-opacity:1;stroke:none"
       id="rect3085"
       width="3"
       height="3"
       x="10"
       y="1042.3622" />
    <rect
       style="fill:#8a4c3d;fill-opacity:1;stroke:none"
       id="rect3089"
       width="6"
       height="3"
       x="13"
       y="1042.3622" />
    <rect
       y="1042.3622"
       x="19"
       height="3"
       width="3"
       id="rect3091"
       style="fill:#41210c;fill-opacity:1;stroke:none" />
    <rect
       style="fill:#421d0a;fill-opacity:1;stroke:none"
       id="rect3093"
       width="3"
       height="3"
       x="13"
       y="1045.3622" />
    <rect
       y="1045.3622"
       x="19"
       height="3"
       width="3"
       id="rect3095"
       style="fill:#45220e;fill-opacity:1;stroke:none" />
    <rect
       style="fill:#45220e;fill-opacity:1;stroke:none"
       id="rect3097"
       width="3"
       height="3"
       x="10"
       y="1045.3622" />
    <rect
       y="1045.3622"
       x="16"
       height="3"
       width="3"
       id="rect3099"
       style="fill:#45220e;fill-opacity:1;stroke:none" />
    <g
       id="g3944"
       transform="translate(-28,1.7382813e-5)">
      <rect
         y="1030.3622"
         x="35"
         height="3"
         width="3"
         id="rect3047-1"
         style="fill:#b6896c;fill-opacity:1;stroke:none" />
      <rect
         y="1030.3622"
         x="38"
         height="3"
         width="3"
         id="rect3051-9"
         style="fill:#bd8e72;fill-opacity:1;stroke:none" />
      <rect
         style="fill:#c69680;fill-opacity:1;stroke:none"
         id="rect3053-2"
         width="3"
         height="3"
         x="41"
         y="1030.3622" />
      <rect
         y="1030.3622"
         x="44"
         height="3"
         width="3"
         id="rect3055-9"
         style="fill:#bd8b72;fill-opacity:1;stroke:none" />
      <rect
         style="fill:#bd8e74;fill-opacity:1;stroke:none"
         id="rect3057-7"
         width="3"
         height="3"
         x="47"
         y="1030.3622" />
      <rect
         y="1030.3622"
         x="50"
         height="3"
         width="3"
         id="rect3059-2"
         style="fill:#ac765a;fill-opacity:1;stroke:none" />
      <rect
         y="1033.3622"
         x="32"
         height="3"
         width="3"
         id="rect3063-8"
         style="fill:#aa7d66;fill-opacity:1;stroke:none" />
      <rect
         style="fill:#b4846d;fill-opacity:1;stroke:none"
         id="rect3065-6"
         width="3"
         height="3"
         x="35"
         y="1033.3622" />
      <rect
         style="fill:#aa7d66;fill-opacity:1;stroke:none"
         id="rect3069-9"
         width="3"
         height="3"
         x="38"
         y="1033.3622" />
      <rect
         y="1033.3622"
         x="41"
         height="3"
         width="3"
         id="rect3071-7"
         style="fill:#ad806d;fill-opacity:1;stroke:none" />
      <rect
         style="fill:#9c725c;fill-opacity:1;stroke:none"
         id="rect3073-1"
         width="3"
         height="3"
         x="44"
         y="1033.3622" />
      <rect
         y="1033.3622"
         x="47"
         height="3"
         width="3"
         id="rect3075-8"
         style="fill:#bb8972;fill-opacity:1;stroke:none" />
      <rect
         style="fill:#9c694c;fill-opacity:1;stroke:none"
         id="rect3077-8"
         width="3"
         height="3"
         x="50"
         y="1033.3622" />
      <rect
         y="1033.3622"
         x="53"
         height="3"
         width="3"
         id="rect3079-2"
         style="fill:#9c694c;fill-opacity:1;stroke:none" />
      <rect
         style="fill:#b4846d;fill-opacity:1;stroke:none"
         id="rect3153-6"
         width="3"
         height="3"
         x="32"
         y="1036.3622" />
      <rect
         style="fill:#b57b67;fill-opacity:1;stroke:none"
         id="rect3159-7"
         width="3"
         height="3"
         x="41"
         y="1036.3622" />
      <rect
         y="1036.3622"
         x="44"
         height="3"
         width="3"
         id="rect3161-0"
         style="fill:#bb8972;fill-opacity:1;stroke:none" />
      <rect
         style="fill:#aa7d66;fill-opacity:1;stroke:none"
         id="rect3167-3"
         width="3"
         height="3"
         x="53"
         y="1036.3622" />
      <rect
         y="1039.3622"
         x="32"
         height="3"
         width="3"
         id="rect3169-4"
         style="fill:#9c6346;fill-opacity:1;stroke:none" />
      <rect
         style="fill:#b37b62;fill-opacity:1;stroke:none"
         id="rect3171-8"
         width="3"
         height="3"
         x="35"
         y="1039.3622" />
      <rect
         style="fill:#b78272;fill-opacity:1;stroke:none"
         id="rect3175-0"
         width="3"
         height="3"
         x="38"
         y="1039.3622" />
      <rect
         y="1039.3622"
         x="47"
         height="3"
         width="3"
         id="rect3181-9"
         style="fill:#be886c;fill-opacity:1;stroke:none" />
      <rect
         style="fill:#a26a47;fill-opacity:1;stroke:none"
         id="rect3183-7"
         width="3"
         height="3"
         x="50"
         y="1039.3622" />
      <rect
         y="1039.3622"
         x="53"
         height="3"
         width="3"
         id="rect3185-6"
         style="fill:#805334;fill-opacity:1;stroke:none" />
      <rect
         y="1042.3622"
         x="32"
         height="3"
         width="3"
         id="rect3187-1"
         style="fill:#905e43;fill-opacity:1;stroke:none" />
      <rect
         y="1042.3622"
         x="53"
         height="3"
         width="3"
         id="rect3203-8"
         style="fill:#815339;fill-opacity:1;stroke:none" />
      <path
         style="fill:#6f452c;fill-opacity:1;stroke:none"
         d="m 32,1045.3622 3,0 0,3 -1,0 c -1,0 -2,-1 -2,-2 z"
         id="rect3205-4"
         inkscape:connector-curvature="0"
         sodipodi:nodetypes="cccccc" />
      <rect
         y="1045.3622"
         x="35"
         height="3"
         width="3"
         id="rect3207-2"
         style="fill:#6d432a;fill-opacity:1;stroke:none" />
      <rect
         y="1045.3622"
         x="50"
         height="3"
         width="3"
         id="rect3219-4"
         style="fill:#83553b;fill-opacity:1;stroke:none" />
      <path
         style="fill:#7a4e33;fill-opacity:1;stroke:none"
         d="m 53,1045.3622 3,0 0,1 c 0,1 -1,2 -2,2 l -1,0 z"
         id="rect3221-5"
         inkscape:connector-curvature="0"
         sodipodi:nodetypes="cccccc" />
      <rect
         style="fill:#965f40;fill-opacity:1;stroke:none"
         id="rect3083"
         width="3"
         height="3"
         x="35"
         y="1042.3622" />
      <rect
         y="1042.3622"
         x="50"
         height="3"
         width="3"
         id="rect3101"
         style="fill:#8f5e3e;fill-opacity:1;stroke:none" />
    </g>
    <g
       id="g4045"
       transform="matrix(1.05,0,0,1.05,14.2,-51.893092)">
      <rect
         y="1036.3622"
         x="-7"
         height="3"
         width="6"
         id="rect4011"
         style="fill:#ffffff;fill-opacity:1;stroke:none;filter:url(#filter4035)" />
      <rect
         style="fill:#ffffff;fill-opacity:1;stroke:none;filter:url(#filter4035)"
         id="rect4039"
         width="6"
         height="3"
         x="-7"
         y="1036.3622" />
      <rect
         y="1036.3622"
         x="-7"
         height="3"
         width="6"
         id="rect4041"
         style="fill:#ffffff;fill-opacity:1;stroke:none;filter:url(#filter4035)" />
      <rect
         style="fill:#ffffff;fill-opacity:1;stroke:none;filter:url(#filter4035)"
         id="rect4043"
         width="6"
         height="3"
         x="-7"
         y="1036.3622" />
    </g>
    <g
       transform="matrix(1.05,0,0,1.05,26.2,-51.893092)"
       id="g4051">
      <rect
         style="fill:#ffffff;fill-opacity:1;stroke:none;filter:url(#filter4035)"
         id="rect4053"
         width="6"
         height="3"
         x="-7"
         y="1036.3622" />
      <rect
         y="1036.3622"
         x="-7"
         height="3"
         width="6"
         id="rect4055"
         style="fill:#ffffff;fill-opacity:1;stroke:none;filter:url(#filter4035)" />
      <rect
         style="fill:#ffffff;fill-opacity:1;stroke:none;filter:url(#filter4035)"
         id="rect4057"
         width="6"
         height="3"
         x="-7"
         y="1036.3622" />
      <rect
         y="1036.3622"
         x="-7"
         height="3"
         width="6"
         id="rect4059"
         style="fill:#ffffff;fill-opacity:1;stroke:none;filter:url(#filter4035)" />
    </g>
  </g>
</svg>
