<?xml version="1.0" encoding="UTF-8" standalone="no"?>
<!-- Created with Inkscape (http://www.inkscape.org/) -->

<svg
   xmlns:dc="http://purl.org/dc/elements/1.1/"
   xmlns:cc="http://creativecommons.org/ns#"
   xmlns:rdf="http://www.w3.org/1999/02/22-rdf-syntax-ns#"
   xmlns:svg="http://www.w3.org/2000/svg"
   xmlns="http://www.w3.org/2000/svg"
   xmlns:xlink="http://www.w3.org/1999/xlink"
   xmlns:sodipodi="http://sodipodi.sourceforge.net/DTD/sodipodi-0.dtd"
   xmlns:inkscape="http://www.inkscape.org/namespaces/inkscape"
   width="64"
   height="64"
   id="svg2"
   version="1.1"
   inkscape:version="0.48.3.1 r9886"
   sodipodi:docname="netherstar.svg"
   inkscape:export-filename="/home/peterix/projects/MultiMC4/src/resources/insticons/netherstar.png"
   inkscape:export-xdpi="45"
   inkscape:export-ydpi="45">
  <defs
     id="defs4">
    <linearGradient
       id="linearGradient4065">
      <stop
         id="stop4067"
         offset="0"
         style="stop-color:#556b6b;stop-opacity:1" />
      <stop
         style="stop-color:#3b8585;stop-opacity:0.49803922;"
         offset="0.5"
         id="stop4069" />
      <stop
         id="stop4071"
         offset="1"
         style="stop-color:#fafbfb;stop-opacity:1" />
    </linearGradient>
    <linearGradient
       id="linearGradient4053">
      <stop
         id="stop4055"
         offset="0"
         style="stop-color:#556b6b;stop-opacity:1" />
      <stop
         style="stop-color:#3b8585;stop-opacity:0.49803922;"
         offset="0.5"
         id="stop4057" />
      <stop
         id="stop4059"
         offset="1"
         style="stop-color:#fafbfb;stop-opacity:1" />
    </linearGradient>
    <linearGradient
       inkscape:collect="always"
       id="linearGradient3802">
      <stop
         style="stop-color:#cbd6d6;stop-opacity:1;"
         offset="0"
         id="stop3804" />
      <stop
         style="stop-color:#637e7e;stop-opacity:1"
         offset="1"
         id="stop3806" />
    </linearGradient>
    <linearGradient
       id="linearGradient3006">
      <stop
         style="stop-color:#ffffff;stop-opacity:1;"
         offset="0"
         id="stop3008" />
      <stop
         id="stop3955"
         offset="0.14285807"
         style="stop-color:#fff656;stop-opacity:1;" />
      <stop
         id="stop3949"
         offset="0.28571615"
         style="stop-color:#fdd300;stop-opacity:1;" />
      <stop
         style="stop-color:#f6d01a;stop-opacity:1;"
         offset="0.50000137"
         id="stop3951" />
      <stop
         style="stop-color:#fafd00;stop-opacity:0;"
         offset="1"
         id="stop3010" />
    </linearGradient>
    <filter
       inkscape:collect="always"
       id="filter3893">
      <feGaussianBlur
         inkscape:collect="always"
         stdDeviation="0.3"
         id="feGaussianBlur3895" />
    </filter>
    <filter
       inkscape:collect="always"
       id="filter3901">
      <feGaussianBlur
         inkscape:collect="always"
         stdDeviation="0.3"
         id="feGaussianBlur3903" />
    </filter>
    <filter
       inkscape:collect="always"
       id="filter3905">
      <feGaussianBlur
         inkscape:collect="always"
         stdDeviation="0.3000003"
         id="feGaussianBlur3907" />
    </filter>
    <filter
       inkscape:collect="always"
       id="filter3913">
      <feGaussianBlur
         inkscape:collect="always"
         stdDeviation="0.3"
         id="feGaussianBlur3915" />
    </filter>
    <filter
       inkscape:collect="always"
       id="filter3945">
      <feGaussianBlur
         inkscape:collect="always"
         stdDeviation="0.74074074"
         id="feGaussianBlur3947" />
    </filter>
    <filter
       inkscape:collect="always"
       id="filter3967">
      <feGaussianBlur
         inkscape:collect="always"
         stdDeviation="1.4979424"
         id="feGaussianBlur3969" />
    </filter>
    <linearGradient
       inkscape:collect="always"
       xlink:href="#linearGradient4053"
       id="linearGradient3985"
       gradientUnits="userSpaceOnUse"
       x1="51"
       y1="1014.3622"
       x2="35"
       y2="997.36218" />
    <linearGradient
       inkscape:collect="always"
       xlink:href="#linearGradient4065"
       id="linearGradient3987"
       gradientUnits="userSpaceOnUse"
       x1="25"
       y1="1039.3622"
       x2="9"
       y2="1023.3622" />
    <linearGradient
       inkscape:collect="always"
       xlink:href="#linearGradient3802"
       id="linearGradient3989"
       gradientUnits="userSpaceOnUse"
       x1="28"
       y1="28"
       x2="36"
       y2="36" />
    <radialGradient
       inkscape:collect="always"
       xlink:href="#linearGradient3006"
       id="radialGradient3991"
       gradientUnits="userSpaceOnUse"
       gradientTransform="matrix(1.1034483,-2.1791858e-6,2.1791909e-6,1.103451,-3.1035149,985.25875)"
       cx="30"
       cy="30"
       fx="30"
       fy="30"
       r="14.5" />
    <linearGradient
       inkscape:collect="always"
       xlink:href="#linearGradient3802"
       id="linearGradient3993"
       gradientUnits="userSpaceOnUse"
       x1="24"
       y1="48"
       x2="36"
       y2="48" />
    <linearGradient
       inkscape:collect="always"
       xlink:href="#linearGradient3802"
       id="linearGradient3995"
       gradientUnits="userSpaceOnUse"
       x1="24"
       y1="1000.3622"
       x2="36"
       y2="1000.3622" />
    <linearGradient
       inkscape:collect="always"
       xlink:href="#linearGradient3802"
       id="linearGradient3997"
       gradientUnits="userSpaceOnUse"
       x1="44"
       y1="1018.3622"
       x2="52"
       y2="1018.3622" />
    <linearGradient
       inkscape:collect="always"
       xlink:href="#linearGradient3802"
       id="linearGradient3999"
       gradientUnits="userSpaceOnUse"
       x1="8"
       y1="1018.3622"
       x2="16"
       y2="1018.3622" />
    <filter
       inkscape:collect="always"
       id="filter4108">
      <feGaussianBlur
         inkscape:collect="always"
         stdDeviation="0.39"
         id="feGaussianBlur4110" />
    </filter>
  </defs>
  <sodipodi:namedview
     id="base"
     pagecolor="#ffffff"
     bordercolor="#666666"
     borderopacity="1.0"
     inkscape:pageopacity="0.0"
     inkscape:pageshadow="2"
     inkscape:zoom="6"
     inkscape:cx="32.789148"
     inkscape:cy="31.233555"
     inkscape:document-units="px"
     inkscape:current-layer="layer1"
     showgrid="false"
     inkscape:window-width="1607"
     inkscape:window-height="1030"
     inkscape:window-x="1676"
     inkscape:window-y="-3"
     inkscape:window-maximized="1">
    <inkscape:grid
       type="xygrid"
       id="grid2985"
       empspacing="4"
       visible="true"
       enabled="true"
       snapvisiblegridlinesonly="true"
       spacingx="1px"
       spacingy="1px" />
  </sodipodi:namedview>
  <metadata
     id="metadata7">
    <rdf:RDF>
      <cc:Work
         rdf:about="">
        <dc:format>image/svg+xml</dc:format>
        <dc:type
           rdf:resource="http://purl.org/dc/dcmitype/StillImage" />
        <dc:title></dc:title>
      </cc:Work>
    </rdf:RDF>
  </metadata>
  <g
     inkscape:label="Layer 1"
     inkscape:groupmode="layer"
     id="layer1"
     transform="translate(0,-988.36218)">
    <g
       id="g3971"
       transform="translate(2,1.99998)">
      <path
         style="fill:#cccccc;fill-opacity:1;stroke:none;filter:url(#filter3967)"
         d="m 57,27.00002 0,6 -8,8 -8,0 0,8 -8,8 -6,0 -8,-8 0,-8 -8,0 -8,-8 0,-6 8,-8 8,0 0,-7 8,-9 6,0 8,8 0,8 8,0 z"
         id="path3957"
         inkscape:connector-curvature="0"
         transform="translate(0,988.36218)"
         sodipodi:nodetypes="ccccccccccccccccccccc" />
      <path
         transform="translate(0,988.36218)"
         inkscape:connector-curvature="0"
         id="path3000"
         d="m 56,28 0,4 -8,8 -8,0 0,8 -8,8 -4,0 -8,-8 0,-8 -8,0 -8,-8 0,-4 8,-8 8,0 0,-8 8,-8 4,0 4,4 4,4 0,8 8,0 z"
         style="fill:#eff2f2;fill-opacity:1;stroke:none" />
      <path
         inkscape:connector-curvature="0"
         id="path3788"
         d="m 52,1024.3622 0,-8 -4,-4 -8,0 -4,-4 0,-8 -4,-4.00002 -8,0 4,-4 4,0 8,8.00002 0,8 8,0 8,8 0,4 z"
         style="fill:url(#linearGradient3985);fill-opacity:1;stroke:none" />
      <path
         style="fill:url(#linearGradient3987);fill-opacity:1;stroke:none"
         d="m 8,1012.3622 0,8 4,4 8,0 4,4 0,8 4,4 8.00001,0 -4,4 -4.00001,0 -8,-8 0,-8 -8,0 -8,-8 0,-4 z"
         id="path3790"
         inkscape:connector-curvature="0" />
      <path
         transform="translate(0,988.36218)"
         inkscape:connector-curvature="0"
         id="path3002"
         d="m 36,8 -8,0 -4,4 0,8 -4,4 -8,0 -4,4 0,8 -4,-4 0,-4 8,-8 8,0 0,-8 8,-8 4,0 z"
         style="opacity:0.67364017;fill:#ffffff;stroke:none" />
      <path
         transform="translate(0,988.36218)"
         inkscape:connector-curvature="0"
         id="path3800"
         d="m 28,20 -8,8 0,4 8,8 4,0 8,-8 0,-4 -8,-8 z"
         style="fill:url(#linearGradient3989);fill-opacity:1;stroke:none;filter:url(#filter3945)" />
      <path
         inkscape:connector-curvature="0"
         id="path3004"
         d="m 28,1000.3622 0,16 -16,0 0,4 16,0 0,16 4,0 0,-16 16,0 0,-4 -16,0 0,-16 z"
         style="fill:url(#radialGradient3991);fill-opacity:1;stroke:none"
         sodipodi:nodetypes="ccccccccccccc" />
      <path
         style="fill:#556b6b;fill-opacity:1;stroke:none"
         d="m 23.99998,1040.3622 8,0 4,-4 0,-8 4,-4 8,0 4.00002,-4 0,-8 4,4 0,4 -8.00002,8 -8,0 0,8 -8,8 -4,0 z"
         id="path3786"
         inkscape:connector-curvature="0" />
      <path
         transform="translate(0,988.36218)"
         inkscape:connector-curvature="0"
         id="path3792"
         d="m 32,48 -4,0 -4,-4 0,4 4,4 4,0 4,-4 0,-4 z"
         style="fill:url(#linearGradient3993);fill-opacity:1;stroke:none;filter:url(#filter3893)" />
      <path
         style="fill:url(#linearGradient3995);fill-opacity:1;stroke:none;filter:url(#filter3905)"
         d="m 32,1000.3622 -4,0 -4,4 0,-4 4,-4.00002 4,0 4,4.00002 0,4 z"
         id="path3794"
         inkscape:connector-curvature="0" />
      <path
         inkscape:connector-curvature="0"
         id="path3796"
         d="m 48,1020.3622 0,-4 -4,-4 4,0 4,4 0,4 -4,4 -4,0 z"
         style="fill:url(#linearGradient3997);fill-opacity:1;stroke:none;filter:url(#filter3901)" />
      <path
         style="fill:url(#linearGradient3999);fill-opacity:1;stroke:none;filter:url(#filter3913)"
         d="m 12,1016.3622 0,4 4,4 -4,0 -4,-4 0,-4 4,-4 4,0 z"
         id="path3798"
         inkscape:connector-curvature="0" />
      <path
         style="fill:#eff2f2;fill-opacity:0.10628019000000000;stroke:none;filter:url(#filter4108)"
         d="m 28,992.3622 -8,8 0,8 -8,0 -8.0000001,8 0,4 8.0000001,8 8,0 0,8 8,8 4,0 8,-8 0,-8 8,0 8,-8 0,-4 -8,-8 -8,0 0,-8 -4,-4 -4,-4 -4,0 z m 2.90625,2.25 c 1.790052,0.15723 3.5491,1.39991 5.03125,4.1875 5.21676,3.1721 -1.835545,14.0536 7.28125,11.3125 4.64748,-0.9978 13.08236,5.9966 9.65625,10.3437 -2.87943,6.7429 -10.8243,4.9933 -14.84375,6.6563 1.50952,6.5659 -1.74938,11.1566 -6.8125,15 -4.92726,-0.671 -10.654448,-6.4059 -9.1875,-12 1.831567,-8.2895 -10.191583,-0.2312 -12.4375001,-7.2813 -7.428566,-3.9347 -0.557092,-9.4767 3.4375001,-12.7187 7.835946,1.7735 10.684647,-1.4404 9,-9.1875 L 22.5,1000.4559 c 2.310711,-3.39825 5.42283,-6.10574 8.40625,-5.8437 z"
         id="path4073"
         inkscape:connector-curvature="0" />
    </g>
  </g>
</svg>
