<svg viewBox="0 0 32 32" xmlns="http://www.w3.org/2000/svg">
  <path d="m20.5 4a4.5 4.5 0 0 0 -4.5 4.5 4.5 4.5 0 0 0 4.5 4.5 4.5 4.5 0 0 0 4.5-4.5 4.5 4.5 0 0 0 -4.5-4.5zm0 1a3.5 3.5 0 0 1 3.5 3.5 3.5 3.5 0 0 1 -3.5 3.5 3.5 3.5 0 0 1 -3.5-3.5 3.5 3.5 0 0 1 3.5-3.5zm-9 4c-2.485281 0-4.5 2.01472-4.5 4.5s2.014719 4.5 4.5 4.5 4.5-2.01472 4.5-4.5-2.014719-4.5-4.5-4.5zm0 1a3.5 3.5 0 0 1 3.5 3.5 3.5 3.5 0 0 1 -3.5 3.5 3.5 3.5 0 0 1 -3.5-3.5 3.5 3.5 0 0 1 3.5-3.5zm9 4c-.88285.003-1.758266.17228-2.585938.5-.06618.42368-.174132.83977-.322265 1.24219.90271-.48731 1.89843-.74142 2.908203-.74219 3.589851 0 6.5 3.13401 6.5 7h-8.341797c.170323.32329.325499.65711.464844 1h8.876953v-1c0-4.41828-3.357864-8-7.5-8zm-9 5c-4.142136 0-7.5 3.58172-7.5 8v1h15v-1c0-4.41828-3.357864-8-7.5-8zm0 1c3.589851 0 6.5 3.13401 6.5 7h-13c0-3.86599 2.910149-7 6.5-7z" fill="#eff0f1"/>
</svg>
