<svg xmlns="http://www.w3.org/2000/svg" viewBox="0 0 16 16">
  <defs id="defs3051">
    <style type="text/css" id="current-color-scheme">
      .ColorScheme-Text {
        color:#eff0f1;
      }
      </style>
  </defs>
 <path style="fill:currentColor;fill-opacity:1;stroke:none" 
     d="M 6 2 C 4.895478 2 4 2.8954778 4 4 L 4 6 L 4 7 C 4 7.2761493 3.7761423 7.5 3.5 7.5 L 3 7.5 L 3 8.5 L 3.5 8.5 C 3.7761423 8.5 4 8.7238507 4 9 L 4 10 L 4 11 L 4 12 C 4 13.104597 4.8954307 14 6 14 L 7 14 L 7 13 L 6 13 C 5.4477157 13 5 12.552299 5 12 L 5 11 L 5 10 L 5 9 C 5 8.617501 4.8607153 8.2649743 4.625 8 C 4.8607153 7.7350257 5 7.382499 5 7 L 5 6 L 5 5.71875 L 5 4 C 5 3.4477014 5.4477765 3 6 3 L 7 3 L 7 2 L 6 2 z M 9 2 L 9 3 L 10 3 C 10.552224 3 11 3.4477014 11 4 L 11 5.71875 L 11 6 L 11 7 C 11 7.382499 11.139285 7.7350257 11.375 8 C 11.139285 8.2649743 11 8.617501 11 9 L 11 10 L 11 11 L 11 12 C 11 12.552299 10.552284 13 10 13 L 9 13 L 9 14 L 10 14 C 11.104569 14 12 13.104597 12 12 L 12 11 L 12 10 L 12 9 C 12 8.7238507 12.223858 8.5 12.5 8.5 L 13 8.5 L 13 7.5 L 12.5 7.5 C 12.223858 7.5 12 7.2761493 12 7 L 12 6 L 12 4 C 12 2.8954778 11.104522 2 10 2 L 9 2 z "
     class="ColorScheme-Text"
     />
</svg>
