<svg xmlns="http://www.w3.org/2000/svg" viewBox="0 0 16 16">
  <defs id="defs3051">
    <style type="text/css" id="current-color-scheme">
      .ColorScheme-Text {
        color:#eff0f1;
      }
      </style>
  </defs>
 <path style="fill:currentColor;fill-opacity:1;stroke:none" 
       d="M 4 5 L 4 7 L 2 7 L 2 8 L 4 8 L 4 10 L 5 10 L 7 10 L 7 9 L 5 9 L 5 6 L 7 6 L 7 5 L 5 5 L 4 5 z M 9 5 L 9 6 L 11 6 L 11 9 L 9 9 L 9 10 L 11 10 L 12 10 L 12 9 L 12 8 L 14 8 L 14 7 L 12 7 L 12 6 L 12 5 L 11 5 L 9 5 z M 7 7 L 7 8 L 9 8 L 9 7 L 7 7 z "
     class="ColorScheme-Text"
     />
</svg>
