<svg fill="none" height="8" width="8" xmlns="http://www.w3.org/2000/svg">
  <g fill="#eff0f1">
    <path d="m2 1.5v.5h-1v4.5h6v-4.5h-1v-.5h-1.5v.5h-1v-.5zm-.5 1h5v3.5h-5z"/>
    <path d="m3.93 4.37s-.19-.364-.183-.63c.005-.19.434-.378.603-.651.168-.273-.022-.54-.022-.54s.043.197-.07.4c-.112.203-.525.322-.686.672-.16.35.357.75.357.75z"/>
    <path d="m4.637 3.264s-.645.246-.645.525c0 .28.175.372.203.463s-.049.245-.049.245.252-.175.21-.378-.238-.267-.126-.47c.075-.136.407-.385.407-.385z"/>
    <path d="m3.859 4.741c.595-.021.812-.209.812-.209-.385.105-1.407.098-1.415.021-.006-.077.316-.14.316-.14s-.505 0-.546.126c-.043.126.238.223.833.202zm.861.295s.583-.124.526-.44c-.07-.386-.477-.169-.477-.169s.288 0 .316.175-.364.434-.364.434zm-.286-.168s-.147.038-.364.063c-.292.033-.645.007-.673-.042-.028-.05.05-.077.05-.077-.35.084-.16.23.251.26.352.023.876-.106.876-.106zm-.904.306s-.159.004-.168.088c-.01.084.098.159.49.182.392.024.668-.107.668-.107l-.178-.107s-.112.023-.285.046c-.173.024-.527-.018-.541-.051-.014-.032.014-.051.014-.051z"/>
    <path d="m5.057 5.552c.06-.065-.019-.117-.019-.117s.028.033-.009.07-.378.13-.924.158-1.14-.05-1.159-.121c-.018-.07.304-.126.304-.126-.037.005-.485.014-.5.136-.013.12.197.22 1.037.22s1.21-.155 1.27-.22z"/>
    <path d="m4.73 5.828c-.368.074-1.489.027-1.489.027s.728.173 1.56.029c.397-.07.42-.262.42-.262s-.122.13-.49.206z"/>
  </g>
</svg>
