<svg fill="none" height="1000" viewBox="0 0 1000 1000" width="1000" xmlns="http://www.w3.org/2000/svg">
  <g fill="#eff0f1">
    <path d="m479.6 536.2s-54.6-105.3-52.6-182.2c1.5-55 125.4-109.3 174.1-188.2 48.6-78.9-6.1-155.8-6.1-155.8s12.2 56.7-20.2 115.3c-32.4 58.7-151.9 93.2-198.4 194.3-46.5 101.3 103.2 216.6 103.2 216.6z"/>
    <path d="m684.099 216.4s-186.2 70.9-186.2 151.8c0 81 50.6 107.3 58.7 133.6 8.1 26.4-14.2 70.9-14.2 70.9s72.8-50.6 60.6-109.3-68.8-77-36.4-135.6c21.8-39.4 117.5-111.4 117.5-111.4z"/>
    <path d="m459.399 643.2c172.1-6.1 234.801-60.4 234.801-60.4-111.3 30.3-406.801 28.3-408.901 6.1-2-22.3 91.1-40.5 91.1-40.5s-145.699 0-157.799 36.4c-12.2 36.4 68.899 64.4 240.799 58.4z"/>
    <path d="m708.399 728.5s168.4-35.9 151.7-127.4c-20.2-111.4-137.6-48.6-137.6-48.6s83.1 0 91.1 50.6c8.1 50.5-105.2 125.4-105.2 125.4z"/>
    <path d="m625.4 679.9s-42.4 11.1-105.3 18.2c-84.3 9.5-186.2 2-194.3-12.2-8-14.2 14.2-22.2 14.2-22.2-101.2 24.3-45.8 66.7 72.8 74.9 101.7 6.9 253.1-30.4 253.1-30.4z"/>
    <path d="m364.299 768.3s-45.9 1.3-48.6 25.6c-2.6 24.1 28.3 45.8 141.6 52.6 113.3 6.7 193-31 193-31l-51.3-31.1s-32.4 6.8-82.3 13.5c-50 6.8-152.4-5.4-156.5-14.8-4-9.4 4.1-14.8 4.1-14.8z"/>
    <path d="m805.5 877.6c17.5-18.9-5.401-33.8-5.401-33.8s8.101 9.5-2.599 20.2c-10.8 10.8-109.301 37.7-267.201 45.8-157.8 8.1-329.199-14.8-334.699-35.1-5.3-20.2 87.8-36.4 87.8-36.4-10.8 1.3-140.3 4-144.4 39.2-4 35 56.7 63.4 299.6 63.4 242.8.1 349.4-44.5 366.9-63.3z"/>
    <path d="m711.099 957.2c-106.6 21.5-430.4 8-430.4 8s210.4 50 450.6 8.2c114.8-20 121.5-75.6 121.5-75.6s-35.1 37.8-141.7 59.4z"/>
  </g>
</svg>
