<svg version="1.1" viewBox="0 0 16 16" xmlns="http://www.w3.org/2000/svg">
    <defs>
        <style type="text/css" id="current-color-scheme">.ColorScheme-Text {
        color:#eff0f1;
      }</style>
    </defs>
    <g fill="currentColor">
        <path class="ColorScheme-Text" d="m8.2746408 13.953029c0.00833 0 1.1494866-0.753825 2.5359342-1.674795l2.520534-1.674794v-2.6001033c0-1.4307351-0.0074-2.6013858-0.01668-2.6013858-0.0093 0-1.150413 0.7546842-2.535934 1.6773611l-2.5192543 1.6773619v2.5988191c0 1.429027 0.00706 2.597536 0.015402 2.597536z"  fill="currentColor" fill-opacity=".2"/>
        <path class="ColorScheme-Text" d="m7.9409649 8.3549799c0.0753873-0.0030883 5.0483591-3.3585525 5.0192511-3.3868071-0.014404-0.0138645-1.1312-0.7652159-2.482034-1.6683781-1.3508332-0.9031623-2.4637176-1.6377305-2.4730489-1.6311596-0.4205404 0.2725585-4.9953997 3.3678436-4.9999993 3.3829565-0.00988 0.032723 4.8804389 3.3033883 4.9358311 3.3033883z"  fill="currentColor" fill-opacity=".4"/>
        <path class="ColorScheme-Text" d="m7.7189427 13.994097c0.00828 0 0.015875-1.150637 0.015402-2.556468l-0.0013141-2.5551853-2.517967-1.6850615c-1.3845486-0.9264887-2.5204415-1.6863448-2.524384-1.6863448-0.00421-0.00112-0.0077 1.1516957-0.0077 2.5616013v2.5628853l2.5102968 1.679928c1.3808361 0.923532 2.5173881 1.678645 2.5256673 1.678645z"  fill="currentColor" fill-opacity=".6"/>
        <path class="ColorScheme-Text" d="m 8,15 c 5.76994,-3.758469 4.07772,-2.720917 6,-4 V 5 C 12.707222,4.143927 10.030643,2.3424577 8,1 5,3 4.3571975,3.3856408 2,5 v 6 z M 8.508315,13.412447 8.4963301,9 C 10.411258,7.652439 11.772087,6.8337528 13,6 v 4.594435 z M 7.5156547,13.400462 3,10.570466 V 6 L 7.5276396,9 Z M 8,8 3.4485124,5 8,2 12.477901,5 C 10.956071,6.0867591 9.5367568,6.9353406 8,8 Z"  fill="currentColor"/>
    </g>
</svg>
