<svg version="1.1" viewBox="0 0 16 16" xmlns="http://www.w3.org/2000/svg">
    <defs>
        <style type="text/css" id="current-color-scheme">.ColorScheme-Text {
        color:#eff0f1;
      }</style>
    </defs>
    <path class="ColorScheme-Text" fill="currentColor" d="m14 8c0 1.1088173-0.319333 2.140071-0.84375 3.03125l-2.6875-2.6875 0.71875-0.71875 1.625 1.625c0.05109-0.19534 0.097716-0.3898623 0.125-0.59375 0.007789-0.0524063 0.025184-0.1032787 0.03125-0.15625 0.01707-0.1680854 0.03125-0.327411 0.03125-0.5 0-2.761424-2.238576-5-5-5-0.243024 0-0.4855082 0.02845-0.71875 0.0625-0.1362493 0.019955-0.2738032 0.031786-0.40625 0.0625-0.2865815 0.06695-0.547624 0.166647-0.8125 0.28125-0.030675 0.013272-0.063399 0.017376-0.09375 0.03125-0.09166 0.040961-0.163333 0.108255-0.25 0.15625-8e-3 0.00445-0.02305-0.00433-0.03125 0l-0.71875-0.75c0.891179-0.524417 1.922432-0.84375 3.03125-0.84375 3.313709 0 6 2.686293 6 6zm-2.96875 5.15625c-0.891179 0.524417-1.922432 0.84375-3.03125 0.84375-3.313709 0-6-2.686293-6-6 0-1.1088173 0.319333-2.140071 0.84375-3.03125l0.75 0.75 1.90625 1.9375-0.6875 0.6875-1.625-1.59375c-0.05109 0.19534-0.09772 0.3898623-0.125 0.59375-0.0078 0.052406-0.02518 0.1032787-0.03125 0.15625-0.01707 0.1680854-0.03125 0.327411-0.03125 0.5s0.01418 0.3319146 0.03125 0.5c0.01707 0.1680853 0.029198 0.337256 0.0625 0.5 0.466231 2.278415 2.490004 4 4.90625 4 0.2482626 0 0.4801862-0.02756 0.71875-0.0625 0.1362493-0.01995 0.2738032-0.03179 0.40625-0.0625 0.2865815-0.06695 0.547624-0.166647 0.8125-0.28125 0.030718-0.01299 0.063349-0.01766 0.09375-0.03125 0.08886-0.04062 0.164735-0.108612 0.25-0.15625h0.03125z"/>
</svg>
