<svg xmlns="http://www.w3.org/2000/svg" viewBox="0 0 16 16">
  <defs id="defs3051">
    <style type="text/css" id="current-color-scheme">
      .ColorScheme-Text {
        color:#eff0f1;
      }
      </style>
  </defs>
  <g transform="translate(0,-1036.3622)">
    <path 
        style="fill:currentColor;fill-opacity:1;fill-rule:nonzero" 
        d="M 8 2 C 4.6862915 2 2 4.6862868 2 8 C 2 11.313713 4.6862915 14 8 14 C 11.313708 14 14 11.313713 14 8 C 14 4.6862868 11.313708 2 8 2 z M 8 3 C 8.172589 3 8.3319146 3.01418 8.5 3.03125 C 8.5403398 3.0352163 8.5849592 3.0263276 8.625 3.03125 C 8.6776214 3.0379183 8.7291519 3.0542091 8.78125 3.0625 C 8.9249022 3.0850796 9.0482753 3.1217241 9.1875 3.15625 C 9.4440966 3.2195469 9.6982233 3.3050445 9.9375 3.40625 C 10.069426 3.4620498 10.186649 3.5272356 10.3125 3.59375 C 10.312425 3.60275 10.3133 3.614 10.3125 3.625 C 10.34148 3.638 10.35728 3.69175 10.40625 3.71875 C 10.42423 3.72875 10.42056 3.741 10.4375 3.75 C 10.46648 3.766 10.50599 3.7835 10.5 3.8125 C 10.492 3.8525 10.43425 3.844 10.40625 3.875 C 10.41005 3.933 10.35871 3.92975 10.34375 3.96875 C 10.35275 3.99375 10.40229 4.00125 10.40625 4.03125 C 10.40135 4.06325 10.33173 4.06075 10.34375 4.09375 C 10.39776 4.13575 10.449004 4.10375 10.5 4.09375 C 10.611991 4.07975 10.712253 4.08825 10.78125 4.03125 C 10.77225 3.97825 10.88099 3.9856 10.875 3.9375 C 10.90366 3.9583822 10.9403 3.9788168 10.96875 4 C 10.957987 4.01008 10.949578 4.02585 10.9375 4.03125 C 10.91649 4.04125 10.89401 4.0505 10.875 4.0625 C 10.847 4.0805 10.81328 4.104 10.78125 4.125 C 10.75826 4.141 10.711504 4.21875 10.6875 4.21875 C 10.65851 4.21875 10.61475 4.1815 10.59375 4.1875 C 10.56372 4.1975 10.56519 4.238 10.53125 4.25 C 10.46526 4.274 10.335495 4.2135 10.3125 4.3125 C 10.3405 4.3695 10.450005 4.343 10.5 4.375 C 10.53102 4.395 10.58575 4.466 10.59375 4.5 C 10.60175 4.528 10.60574 4.6575 10.59375 4.6875 C 10.56273 4.7675 10.466988 4.751 10.375 4.75 L 10.3125 4.75 C 10.157516 4.74 10.007499 4.67025 9.9375 4.78125 C 9.94245 4.86625 9.95653 4.926 9.9375 5 C 9.92353 5.054 9.840752 5.10965 9.84375 5.15625 C 9.84485 5.18025 9.900255 5.216 9.90625 5.25 C 9.9101 5.268 9.89818 5.2955 9.90625 5.3125 C 9.932265 5.3615 9.9852535 5.3025 10.03125 5.3125 C 10.07525 5.3225 10.125 5.3883 10.125 5.4375 C 10.125 5.4725 10.11575 5.5286 10.09375 5.5625 C 10.04975 5.6285 9.969247 5.62025 9.90625 5.65625 C 9.854275 5.68625 9.843502 5.7609 9.8125 5.8125 C 9.7795 5.8685 9.736983 5.88865 9.75 5.96875 C 9.70501 6.05775 9.655488 6.11325 9.5625 6.15625 C 9.535495 6.16825 9.493747 6.1695 9.46875 6.1875 C 9.44873 6.2015 9.434272 6.24925 9.40625 6.28125 C 9.37127 6.32025 9.331497 6.345 9.3125 6.375 C 9.298475 6.398 9.29621 6.43675 9.28125 6.46875 C 9.25925 6.51075 9.215494 6.5203 9.1875 6.5625 C 9.17452 6.5825 9.17022 6.63025 9.15625 6.65625 C 9.12424 6.71425 9.087749 6.7615 9.09375 6.8125 C 9.0987 6.8605 9.153252 6.86225 9.15625 6.90625 C 9.159 6.93025 9.12401 6.94175 9.125 6.96875 C 9.1261 7.00675 9.15328 7.0325 9.15625 7.0625 C 9.16324 7.1365 9.10772 7.16815 9.09375 7.21875 C 9.08676 7.24275 9.09975 7.26125 9.09375 7.28125 C 9.08176 7.31825 9.032251 7.36205 9.03125 7.40625 C 9.03015 7.43725 9.09078 7.456 9.09375 7.5 C 9.09595 7.529 9.056505 7.56575 9.0625 7.59375 C 9.0735 7.64775 9.1767575 7.708 9.21875 7.75 C 9.275747 7.807 9.350008 7.84625 9.375 7.90625 C 9.39601 7.95725 9.398533 8.05565 9.4375 8.09375 C 9.466485 8.12175 9.525507 8.12625 9.5625 8.15625 C 9.59748 8.18325 9.619253 8.18875 9.65625 8.21875 C 9.717245 8.26675 9.809252 8.382 9.90625 8.375 C 9.957235 8.365 10.005504 8.3225 10.0625 8.3125 C 10.1215 8.3025 10.190006 8.27625 10.25 8.28125 C 10.29598 8.29125 10.358253 8.3155 10.40625 8.3125 C 10.45624 8.3025 10.505509 8.30625 10.5625 8.28125 C 10.6615 8.23825 10.824766 8.1668 10.96875 8.1875 C 11.078739 8.2035 11.079255 8.326 11.15625 8.375 C 11.24424 8.385 11.305007 8.358 11.375 8.375 C 11.42802 8.388 11.495001 8.4584 11.5 8.5 C 11.505 8.543 11.44349 8.5978 11.4375 8.625 C 11.42353 8.683 11.44746 8.74425 11.4375 8.78125 C 11.4295 8.81025 11.40526 8.846 11.40625 8.875 C 11.40625 8.901 11.44173 8.9658 11.46875 9 C 11.50175 9.042 11.55375 9.0798 11.59375 9.125 C 11.66674 9.209 11.699004 9.29525 11.75 9.40625 C 11.76298 9.43425 11.73801 9.464 11.75 9.5 C 11.728 9.6679 11.672491 9.78285 11.5625 9.96875 C 11.51052 10.02875 11.436499 10.08135 11.4375 10.15625 C 11.4337 10.33625 11.53925 10.451 11.53125 10.625 C 11.51327 10.8589 11.54929 10.8751 11.53125 11 C 11.61025 11.04 11.55424 11.1669 11.53125 11.25 C 11.49726 11.349 11.4565 11.3715 11.4375 11.4375 C 11.490583 11.460643 11.566021 11.451092 11.625 11.4375 C 11.595204 11.468874 11.561843 11.500657 11.53125 11.53125 C 11.305044 11.757456 11.047252 11.976543 10.78125 12.15625 C 10.265207 12.504882 9.6912413 12.769698 9.0625 12.90625 C 8.718961 12.980861 8.3658887 13 8 13 C 7.8096669 13 7.6218651 12.989959 7.4375 12.96875 C 7.2906389 12.951989 7.1427139 12.935453 7 12.90625 C 6.7168255 12.848304 6.4510281 12.728616 6.1875 12.625 C 6.1781304 12.60785 6.1541244 12.582618 6.15625 12.5625 C 6.208225 12.5405 6.305756 12.6365 6.34375 12.5625 C 6.36278 12.5275 6.318725 12.44125 6.34375 12.40625 C 6.361735 12.38225 6.463007 12.382 6.5 12.375 C 6.55302 12.365 6.626253 12.35775 6.65625 12.34375 C 6.68925 12.32275 6.724751 12.2491 6.71875 12.1875 C 6.716 12.1585 6.679185 12.151 6.65625 12.125 C 6.637275 12.103 6.66923 12.0835 6.65625 12.0625 C 6.63227 12.0275 6.572499 12.01975 6.5625 11.96875 C 6.634495 11.95475 6.7397615 12.029 6.84375 12 C 6.892755 11.986 6.976999 11.88985 7 11.84375 C 7.00699 11.82975 6.99202 11.79925 7 11.78125 C 7.00902 11.76325 7.028225 11.72875 7.03125 11.71875 C 7.03823 11.69175 7.02525 11.7055 7.03125 11.6875 C 7.049235 11.6365 7.094997 11.5988 7.125 11.5625 C 7.14799 11.5345 7.197723 11.49775 7.21875 11.46875 C 7.24273 11.43775 7.23405 11.43425 7.25 11.40625 C 7.265015 11.31525 7.19675 11.23615 7.21875 11.15625 C 7.24273 11.06625 7.381762 11.00975 7.46875 10.96875 C 7.498725 10.95475 7.537502 10.9465 7.5625 10.9375 C 7.622494 10.9165 7.6940045 10.895 7.75 10.875 C 7.843995 10.841 7.860248 10.7734 7.90625 10.6875 C 7.92825 10.6475 7.964735 10.5918 7.96875 10.5625 C 7.9726 10.5365 7.9638 10.531 7.96875 10.5 C 7.9737 10.471 7.960775 10.44025 7.96875 10.40625 C 7.97975 10.36325 8 10.26665 8 10.21875 C 8 10.17875 7.96974 10.161 7.96875 10.125 C 7.96176 9.995 8.014512 10.0085 8.0625 9.9375 C 8.08648 9.9025 8.10806 9.8376 8.125 9.8125 C 8.205993 9.6925 8.353749 9.65075 8.34375 9.46875 C 8.3399 9.40875 8.293978 9.269 8.25 9.25 C 8.224975 9.239 8.1932485 9.23175 8.15625 9.21875 C 8.0382585 9.17475 7.9354855 9.04125 7.8125 9.03125 L 7.75 9.03125 C 7.701985 9.03125 7.6477435 9.007 7.59375 9 C 7.55976 8.99 7.4887485 9.01 7.46875 9 C 7.43773 8.985 7.43122 8.92325 7.40625 8.90625 C 7.38623 8.89225 7.343493 8.886 7.3125 8.875 C 7.263495 8.857 7.2444965 8.8165 7.1875 8.8125 C 7.169515 8.8125 7.144982 8.8225 7.125 8.8125 C 7.09398 8.8025 7.060246 8.79925 7.03125 8.78125 C 6.99528 8.75925 6.952498 8.74975 6.9375 8.71875 C 6.9705 8.61085 6.86575 8.59425 6.84375 8.53125 C 6.83374 8.50225 6.85376 8.43225 6.84375 8.40625 C 6.83077 8.36925 6.791002 8.3435 6.75 8.3125 C 6.678005 8.2565 6.634243 8.23165 6.53125 8.21875 C 6.48527 8.20875 6.4299945 8.22875 6.375 8.21875 C 6.317008 8.20875 6.2314945 8.175 6.1875 8.125 C 6.14548 8.076 6.130744 8.0231 6.09375 8 C 6.05877 7.978 6.0239965 7.9605 6 7.9375 C 5.989 7.9275 5.97876 7.92925 5.96875 7.90625 C 5.950765 7.86925 5.9155 7.8575 5.9375 7.8125 C 5.897515 7.7925 5.917993 7.85075 5.875 7.84375 C 5.836005 7.78875 5.8067385 7.734 5.71875 7.75 C 5.678765 7.76 5.640747 7.84275 5.59375 7.84375 C 5.554755 7.84375 5.519746 7.758 5.46875 7.75 C 5.429755 7.74 5.3707495 7.78625 5.34375 7.78125 C 5.30074 7.77125 5.288973 7.74475 5.25 7.71875 C 5.221015 7.69975 5.17225 7.65525 5.15625 7.65625 C 5.106255 7.65625 5.0689915 7.75515 5 7.71875 C 4.96601 7.67575 5.071268 7.665 5.03125 7.625 C 5.001275 7.596 4.992763 7.64225 4.96875 7.65625 C 4.940755 7.67425 4.905993 7.6765 4.875 7.6875 C 4.806002 7.7135 4.7414935 7.721 4.6875 7.75 C 4.637505 7.776 4.622747 7.79245 4.59375 7.84375 C 4.57076 7.88575 4.534997 7.96675 4.5 7.96875 C 4.45798 7.96875 4.4442495 7.92325 4.40625 7.90625 C 4.2912615 7.85625 4.2199905 7.9355 4.125 7.9375 C 4.037006 7.9375 3.9022515 7.80175 3.90625 7.71875 C 3.909 7.66775 3.931505 7.59425 3.9375 7.53125 C 3.94245 7.48125 3.999065 7.4206 4 7.375 C 4.0011 7.313 3.883746 7.28835 3.84375 7.28125 C 3.749755 7.26425 3.6382415 7.32325 3.53125 7.28125 C 3.51123 7.24725 3.55051 7.2215 3.5625 7.1875 C 3.56948 7.1695 3.55551 7.146 3.5625 7.125 C 3.57449 7.093 3.641257 7.06525 3.65625 7.03125 C 3.66725 7.00525 3.64525 6.9705 3.65625 6.9375 C 3.66923 6.9015 3.715725 6.86975 3.71875 6.84375 C 3.7226 6.80975 3.6832 6.772 3.65625 6.75 C 3.573255 6.76 3.5167485 6.75725 3.46875 6.78125 C 3.360763 6.83025 3.3902435 6.966 3.28125 7 C 3.244235 7.012 3.198248 7.02425 3.15625 7.03125 C 3.137935 7.04125 3.11427 7.02925 3.09375 7.03125 C 3.0956963 7.0211336 3.0917443 7.0100944 3.09375 7 C 3.0984123 6.9772158 3.1200289 6.9601701 3.125 6.9375 C 3.1962653 6.6125035 3.3063949 6.2979344 3.4375 6 L 3.46875 6 C 3.506755 6.01 3.529505 6.0595 3.5625 6.0625 C 3.654493 6.0725 3.674001 5.9777 3.75 5.9375 C 3.827996 5.9485 3.866506 5.9275 3.9375 5.9375 C 3.985515 5.9475 4.055756 5.996 4.09375 6 C 4.12576 6 4.126248 5.96475 4.15625 5.96875 C 4.186225 5.97875 4.245 6.0265 4.25 6.0625 C 4.25495 6.1075 4.205715 6.16915 4.21875 6.21875 C 4.265775 6.26675 4.3705045 6.2845 4.4375 6.3125 C 4.4815 6.2755 4.44448 6.20825 4.4375 6.15625 C 4.4364 6.13325 4.44025 6.0835 4.4375 6.0625 C 4.43255 6.0265 4.40625 5.99975 4.40625 5.96875 C 4.40625 5.82575 4.5290085 5.77465 4.625 5.71875 C 4.665975 5.69475 4.7140025 5.643 4.75 5.625 C 4.800985 5.6 4.8330025 5.61775 4.875 5.59375 C 4.950988 5.55075 5.0035015 5.4862 5.0625 5.4375 C 5.089505 5.3725 5.05975 5.28275 5.0625 5.21875 C 5.089505 5.20175 5.127282 5.21875 5.15625 5.21875 C 5.20223 5.20875 5.223996 5.151 5.25 5.125 C 5.265015 5.11 5.294482 5.10875 5.3125 5.09375 C 5.35848 5.05775 5.366237 5.016 5.40625 5 C 5.420275 4.99 5.446723 4.97575 5.46875 4.96875 C 5.49878 4.95875 5.545757 4.9555 5.59375 4.9375 C 5.62477 4.9265 5.706749 4.91925 5.71875 4.90625 C 5.733765 4.89125 5.7149 4.8355 5.71875 4.8125 C 5.74273 4.6996 5.899009 4.69435 6 4.65625 C 6.069993 4.63025 6.1407545 4.5485 6.21875 4.5625 C 6.203735 4.6165 6.143249 4.6224 6.15625 4.6875 C 6.173245 4.7785 6.280501 4.66925 6.3125 4.65625 C 6.373495 4.63025 6.4825025 4.5925 6.5625 4.5625 C 6.632493 4.5375 6.753489 4.5181 6.6875 4.4375 C 6.6325 4.4275 6.6104935 4.48 6.5625 4.5 C 6.5295 4.51 6.527978 4.47175 6.5 4.46875 C 6.472995 4.46875 6.464527 4.505 6.4375 4.5 C 6.410495 4.49 6.378998 4.43925 6.375 4.40625 C 6.364 4.32225 6.43476 4.3119 6.46875 4.25 C 6.44576 4.174 6.3452425 4.2175 6.28125 4.1875 C 6.28824 4.1425 6.322007 4.10375 6.375 4.09375 C 6.41801 4.08375 6.5365015 4.102 6.5625 4.125 C 6.577515 4.138 6.5395595 4.1665 6.5625 4.1875 C 6.588515 4.2105 6.622254 4.1975 6.65625 4.1875 C 6.66824 4.1305 6.583751 4.162 6.59375 4.125 C 6.661741 4.081 6.792005 4.10475 6.875 4.09375 C 6.923015 4.08375 6.988251 4.05425 7.03125 4.03125 C 7.071235 4.00825 7.0830015 3.962 7.125 4 C 7.13699 4.041 7.116685 4.07175 7.09375 4.09375 C 7.016756 4.16175 6.934994 4.2336 6.875 4.3125 C 6.912015 4.3485 6.969254 4.33675 7.03125 4.34375 C 7.05523 4.35375 7.099997 4.33875 7.125 4.34375 C 7.15503 4.35375 7.194748 4.33375 7.21875 4.34375 C 7.26077 4.35375 7.270507 4.4375 7.3125 4.4375 C 7.380496 4.4375 7.351523 4.3577 7.3125 4.3125 C 7.32449 4.2655 7.3608 4.2207 7.34375 4.1875 C 7.31273 4.1255 7.1935005 4.206 7.1875 4.125 C 7.18365 4.075 7.231993 4.06925 7.25 4.03125 C 7.24202 3.93525 7.322499 3.93075 7.3125 3.84375 C 7.30755 3.80775 7.275008 3.81525 7.25 3.78125 C 7.23702 3.76325 7.23371 3.7015 7.21875 3.6875 C 7.166775 3.6435 7.0685005 3.67795 7.0625 3.59375 C 7.05975 3.54375 7.06948 3.4911 7.0625 3.4375 C 7.05551 3.3865 7.012728 3.22875 6.96875 3.21875 C 6.912755 3.20675 6.8794955 3.31245 6.8125 3.34375 C 6.77653 3.36075 6.693243 3.381 6.65625 3.375 C 6.63227 3.365 6.596753 3.3595 6.59375 3.3125 C 6.58979 3.2701 6.6405966 3.2512172 6.65625 3.21875 C 6.6601634 3.2106332 6.654259 3.19872 6.65625 3.1875 C 6.7288164 3.1672517 6.8012164 3.1422715 6.875 3.125 C 6.9169167 3.1152798 6.9576866 3.1024086 7 3.09375 C 7.0298771 3.0875279 7.0636852 3.0994569 7.09375 3.09375 C 7.2273044 3.0689879 7.3629458 3.0451686 7.5 3.03125 C 7.6662387 3.0137812 7.8289018 3 8 3 z M 5.96875 3.46875 C 5.9369162 3.6513239 5.7660026 3.7240206 5.5625 3.71875 C 5.51652 3.76275 5.55622 3.84525 5.53125 3.90625 C 5.51024 3.95725 5.425991 4.004 5.375 4 C 5.337985 4 5.28125 3.94125 5.28125 3.90625 C 5.28125 3.86325 5.349521 3.8617 5.3125 3.8125 C 5.31415 3.8025 5.333355 3.79125 5.34375 3.78125 C 5.3639901 3.7685049 5.3858533 3.762493 5.40625 3.75 C 5.5874525 3.6384834 5.7732114 3.5568279 5.96875 3.46875 z M 10.15625 3.65625 C 10.13782 3.66625 10.14122 3.6775 10.125 3.6875 C 10.08699 3.7105 10.06026 3.739 10.03125 3.75 C 9.99028 3.765 9.943504 3.7755 9.9375 3.8125 C 9.93255 3.8435 9.969795 3.846 9.96875 3.875 C 9.953735 3.912 9.94553 3.92375 9.9375 3.96875 C 9.988485 4.05175 10.093258 3.9505 10.15625 3.9375 C 10.18425 3.9275 10.20375 3.93025 10.21875 3.90625 C 10.23574 3.87925 10.23706 3.8507 10.25 3.8125 C 10.26403 3.7705 10.31751 3.75575 10.3125 3.71875 C 10.3087 3.68175 10.218244 3.65125 10.15625 3.65625 z M 4.6875 4.28125 C 4.7349118 4.319347 4.8015588 4.40185 4.71875 4.4375 C 4.70874 4.4475 4.5864965 4.47275 4.5625 4.46875 C 4.55282 4.46875 4.5397337 4.44475 4.53125 4.4375 C 4.5829129 4.3871923 4.6337069 4.3293033 4.6875 4.28125 z M 4.875 4.46875 C 4.89898 4.46875 4.909483 4.52925 4.9375 4.53125 C 4.964505 4.53125 4.983973 4.496 5 4.5 C 5.04202 4.511 5.071268 4.5938 5.03125 4.625 C 4.99825 4.635 4.992713 4.58975 4.96875 4.59375 C 4.900754 4.60575 4.8634955 4.754 4.8125 4.75 C 4.764485 4.74 4.732228 4.62875 4.78125 4.59375 C 4.78235 4.56375 4.779215 4.56225 4.78125 4.53125 C 4.796265 4.51325 4.834982 4.46575 4.875 4.46875 z M 4.625 4.5 C 4.639025 4.5 4.651245 4.49 4.65625 4.5 C 4.64927 4.553 4.634708 4.56875 4.59375 4.59375 C 4.522756 4.63675 4.460501 4.68975 4.4375 4.78125 C 4.43051 4.80825 4.3464955 4.8817 4.3125 4.875 C 4.233504 4.858 4.357015 4.7104 4.375 4.6875 C 4.39502 4.6625 4.414526 4.654 4.4375 4.625 C 4.46049 4.597 4.478055 4.54725 4.5 4.53125 C 4.52398 4.51425 4.5830075 4.498 4.625 4.5 z M 11.40625 4.65625 C 11.48524 4.64625 11.526502 4.73365 11.5625 4.78125 C 11.59248 4.82025 11.669746 4.87905 11.71875 4.90625 C 11.74675 4.92125 11.7815 4.95475 11.8125 4.96875 C 11.87749 4.99775 11.996996 5.09225 12 5.15625 C 12.0011 5.18825 11.96374 5.22 11.96875 5.25 C 12.01776 5.26 12.0615 5.1742 12.0625 5.125 C 12.15441 5.2550064 12.233102 5.3926596 12.3125 5.53125 C 12.35 5.5967067 12.402944 5.6512957 12.4375 5.71875 C 12.39339 5.73175 12.38209 5.73825 12.375 5.78125 C 12.36499 5.83725 12.39649 5.9276 12.3125 5.9375 C 12.25953 5.9475 12.19799 5.892 12.125 5.875 C 12.09502 5.865 12.05525 5.885 12.03125 5.875 C 11.97625 5.857 11.9845 5.7833 11.9375 5.75 C 11.91049 5.731 11.824253 5.6925 11.78125 5.6875 C 11.75424 5.6875 11.74673 5.6975 11.71875 5.6875 C 11.68476 5.6775 11.621749 5.7015 11.59375 5.6875 C 11.56674 5.6705 11.50701 5.61675 11.5 5.59375 C 11.489 5.55675 11.59175 5.5313 11.59375 5.5 C 11.59595 5.476 11.5675 5.44325 11.5625 5.40625 C 11.5587 5.38425 11.5674 5.35875 11.5625 5.34375 C 11.5555 5.31775 11.50974 5.3135 11.46875 5.3125 C 11.43272 5.3125 11.40599 5.3125 11.375 5.3125 C 11.331 5.3125 11.242494 5.3085 11.1875 5.3125 C 11.1545 5.3125 11.12475 5.3095 11.09375 5.3125 C 11.00676 5.3225 10.942997 5.3025 10.875 5.3125 C 10.82599 5.3125 10.733496 5.354 10.6875 5.375 C 10.66451 5.386 10.65501 5.39125 10.625 5.40625 C 10.61103 5.41625 10.58054 5.4295 10.5625 5.4375 C 10.53451 5.4505 10.49575 5.492 10.46875 5.5 C 10.42976 5.51 10.38349 5.49 10.3125 5.5 C 10.26152 5.5 10.188501 5.46725 10.1875 5.40625 C 10.1864 5.31325 10.349511 5.36075 10.4375 5.34375 C 10.4705 5.33375 10.49123 5.30525 10.53125 5.28125 C 10.55028 5.27025 10.54451 5.262 10.5625 5.25 C 10.59247 5.229 10.65125 5.18025 10.65625 5.15625 C 10.66005 5.13425 10.65323 5.11075 10.65625 5.09375 C 10.66005 5.07275 10.69175 5.05925 10.71875 5.03125 C 10.76077 4.98925 10.791747 4.93345 10.84375 4.90625 C 10.87873 4.88825 10.9215 4.87275 10.9375 4.84375 C 10.9413 4.81175 10.9364 4.81125 10.9375 4.78125 C 10.9595 4.76125 10.98202 4.754 11 4.75 C 11.05401 4.738 11.093259 4.753 11.15625 4.75 C 11.18325 4.75 11.221 4.763 11.25 4.75 C 11.27398 4.734 11.2885 4.6995 11.3125 4.6875 C 11.33851 4.6735 11.37422 4.65825 11.40625 4.65625 z M 11.96875 5.25 L 11.84375 5.25 C 11.79975 5.25 11.744749 5.227 11.71875 5.25 C 11.75577 5.31 11.823255 5.32875 11.90625 5.34375 C 11.93623 5.32175 11.95478 5.2883 11.96875 5.25 z M 5.125 4.6875 L 5.21875 4.6875 C 5.243775 4.6875 5.271251 4.6775 5.28125 4.6875 C 5.265245 4.7535 5.114497 4.74275 5.0625 4.71875 C 5.06525 4.69375 5.092968 4.6915 5.125 4.6875 z M 4.90625 4.8125 C 4.8625672 4.8442816 4.8193312 4.8845833 4.75 4.90625 C 4.711995 4.91825 4.663252 4.917 4.65625 4.875 C 4.64822 4.823 4.715988 4.84875 4.75 4.84375 C 4.794 4.83375 4.855254 4.8145 4.90625 4.8125 z M 11.40625 4.8125 C 11.37325 4.8235 11.35724 4.89625 11.40625 4.90625 C 11.42924 4.89225 11.44355 4.8555 11.4375 4.8125 C 11.42452 4.7985 11.41621 4.8025 11.40625 4.8125 z M 11.34375 4.96875 C 11.34485 5.02475 11.35475 5.0764 11.34375 5.125 C 11.37576 5.187 11.452756 5.13575 11.46875 5.09375 C 11.48778 4.98975 11.45425 4.95575 11.40625 4.96875 C 11.39025 4.97875 11.36069 4.95575 11.34375 4.96875 z M 3.0625 7.3125 C 3.118864 7.3635 3.1512925 7.43535 3.21875 7.46875 C 3.243775 7.48175 3.280501 7.492 3.3125 7.5 C 3.338515 7.51 3.350013 7.492 3.375 7.5 C 3.42802 7.518 3.4892575 7.5435 3.53125 7.5625 C 3.595248 7.5905 3.66375 7.68675 3.71875 7.71875 C 3.7215 7.75075 3.70874 7.7885 3.71875 7.8125 C 3.744765 7.8475 3.7704965 7.88225 3.8125 7.90625 C 3.863485 7.93425 3.8895065 7.9778 3.9375 8 C 3.954495 8.01 3.973963 7.99 4 8 C 4.065994 8.02 4.099253 8.11055 4.15625 8.09375 C 4.193265 8.08275 4.181505 8.036 4.1875 8 C 4.212525 7.973 4.242222 7.9375 4.28125 7.9375 C 4.34324 7.9375 4.351999 8.03315 4.375 8.09375 C 4.38798 8.12775 4.428535 8.1515 4.4375 8.1875 C 4.452515 8.2495 4.45048 8.43175 4.4375 8.46875 C 4.421495 8.51475 4.3504995 8.5122 4.3125 8.5625 C 4.294515 8.5865 4.29522 8.63925 4.28125 8.65625 C 4.25727 8.68525 4.236773 8.69075 4.21875 8.71875 C 4.20874 8.73375 4.196465 8.76025 4.1875 8.78125 C 4.15747 8.84525 4.099986 8.89175 4.125 8.96875 C 4.13501 8.99975 4.1875 9.0255 4.1875 9.0625 C 4.1875 9.1065 4.100751 9.1393 4.09375 9.1875 C 4.0888 9.2225 4.114055 9.2658 4.125 9.3125 C 4.13298 9.3475 4.197751 9.38325 4.21875 9.40625 C 4.25373 9.44525 4.280501 9.513 4.3125 9.5625 C 4.375491 9.6595 4.406765 9.78 4.46875 9.875 C 4.50175 9.924 4.57175 9.9484 4.59375 10 C 4.60475 10.026 4.58374 10.06975 4.59375 10.09375 C 4.62972 10.17475 4.794007 10.2726 4.875 10.3125 C 4.913005 10.3315 4.965009 10.32375 5 10.34375 C 5.05302 10.37375 5.160506 10.4534 5.1875 10.5 C 5.21148 10.542 5.20676 10.65185 5.21875 10.71875 C 5.233765 10.80675 5.2149 10.87365 5.21875 10.96875 C 5.2215 11.02075 5.25 11.04215 5.25 11.09375 C 5.25 11.11175 5.2511 11.1685 5.25 11.1875 C 5.2489 11.2495 5.25495 11.312 5.25 11.375 C 5.24725 11.409 5.2478 11.43975 5.25 11.46875 C 5.25275 11.49975 5.27927 11.50325 5.28125 11.53125 C 5.28345 11.56025 5.246975 11.602 5.25 11.625 C 5.25699 11.688 5.300499 11.72315 5.3125 11.78125 C 5.32251 11.82725 5.349745 11.945 5.34375 12 C 5.3399 12.029 5.316515 12.06075 5.3125 12.09375 C 5.30975 12.11975 5.31635 12.13225 5.3125 12.15625 C 5.30975 12.17925 5.31844 12.19975 5.3125 12.21875 C 5.2806543 12.198271 5.2500951 12.177426 5.21875 12.15625 C 4.9527483 11.976543 4.6949555 11.757456 4.46875 11.53125 C 4.4381566 11.500657 4.4047959 11.468874 4.375 11.4375 C 4.1944191 11.247353 4.0241375 11.029182 3.875 10.8125 C 3.8614865 10.792866 3.8569888 10.769835 3.84375 10.75 C 3.6707036 10.490733 3.5290643 10.227866 3.40625 9.9375 C 3.3973945 9.9165633 3.3835772 9.8960813 3.375 9.875 C 3.2696226 9.6160011 3.1860736 9.3410185 3.125 9.0625 C 3.1134736 9.0099352 3.1036081 8.9594198 3.09375 8.90625 C 3.0689879 8.7726956 3.0451686 8.6370542 3.03125 8.5 C 3.01418 8.3319146 3 8.172589 3 8 C 3 7.7623582 3.030436 7.5413039 3.0625 7.3125 z M 5 7.84375 C 5.048015 7.82175 5.038995 7.89925 5 7.90625 C 4.962985 7.91625 4.96403 7.86175 5 7.84375 z " transform="translate(0,1036.3622)" 
        id="path26" 
        class="ColorScheme-Text"/>
  </g>
</svg>
