<?xml version="1.0" encoding="utf-8"?>
<!-- Generator: Adobe Illustrator 16.0.4, SVG Export Plug-In . SVG Version: 6.00 Build 0)  -->
<!DOCTYPE svg PUBLIC "-//W3C//DTD SVG 1.1//EN" "http://www.w3.org/Graphics/SVG/1.1/DTD/svg11.dtd">
<svg version="1.1" id="Calque_1" xmlns="http://www.w3.org/2000/svg" xmlns:xlink="http://www.w3.org/1999/xlink" x="0px" y="0px"
	 width="32px" height="32px" viewBox="0 0 32 32" enable-background="new 0 0 32 32" xml:space="preserve">
<rect fill="none" width="32" height="32"/>
<g>
	<g>
		
			<linearGradient id="SVGID_1_" gradientUnits="userSpaceOnUse" x1="297.5" y1="-372" x2="297.5" y2="-403.7599" gradientTransform="matrix(1 0 0 -1 -281.5 -372)">
			<stop  offset="0" style="stop-color:#999999"/>
			<stop  offset="0.3" style="stop-color:#000000"/>
			<stop  offset="0.4868" style="stop-color:#030303"/>
			<stop  offset="0.6368" style="stop-color:#0D0D0D"/>
			<stop  offset="0.774" style="stop-color:#1E1E1E"/>
			<stop  offset="0.9029" style="stop-color:#363636"/>
			<stop  offset="1" style="stop-color:#4D4D4D"/>
		</linearGradient>
		<path fill="url(#SVGID_1_)" d="M25.375,10.375h-1.702c-0.106,0.589-0.173,1.214-0.173,1.875s0.066,1.286,0.173,1.875h1.702
			c1.036,0,1.875-0.839,1.875-1.875S26.411,10.375,25.375,10.375z M25.375,1C20.043,6.449,12.25,6.625,12.25,6.625H6.625
			C3.519,6.625,1,9.144,1,12.25s2.519,5.625,5.625,5.625c0,0.26,0.052,0.506,0.147,0.73c0.177,0.418,0.512,0.746,0.919,0.942
			C7.72,19.562,7.74,19.59,7.77,19.604c0.224,0.094,0.471,0.146,0.729,0.146l-1.875,9.375C6.625,30.161,7.464,31,8.5,31h3.75
			c1.036,0,1.875-0.839,1.875-1.875s-0.839-1.875-1.875-1.875l1.5-7.5h0.375c0.847,0,1.534-0.57,1.767-1.34
			c2.73,0.637,6.493,2.033,9.483,5.09C28.48,23.5,31,18.463,31,12.25S28.48,1,25.375,1z M6.625,14.125H4.75v-3.75h1.875V14.125z
			 M25.375,19.75c-2.07,0-3.75-3.357-3.75-7.5c0-4.141,1.68-7.5,3.75-7.5s3.75,3.359,3.75,7.5
			C29.125,16.393,27.445,19.75,25.375,19.75z"/>
	</g>
</g>
</svg>
