<?xml version="1.0" encoding="utf-8"?>
<!-- Generator: Adobe Illustrator 18.1.0, SVG Export Plug-In . SVG Version: 6.00 Build 0)  -->
<!DOCTYPE svg PUBLIC "-//W3C//DTD SVG 1.1//EN" "http://www.w3.org/Graphics/SVG/1.1/DTD/svg11.dtd">
<svg version="1.1" id="Calque_1" xmlns="http://www.w3.org/2000/svg" xmlns:xlink="http://www.w3.org/1999/xlink" x="0px" y="0px"
	 viewBox="0 0 32 32" enable-background="new 0 0 32 32" xml:space="preserve">
<rect y="0" fill="none" width="32" height="32"/>
<path fill-rule="evenodd" clip-rule="evenodd" d="M26,32H6c-3.3,0-6-2.7-6-6V6c0-3.3,2.7-6,6-6h20c3.3,0,6,2.7,6,6v20
	C32,29.3,29.3,32,26,32z M28,6c0-1.1-0.9-2-2-2H6C4.9,4,4,4.9,4,6v20c0,1.1,0.9,2,2,2h20c1.1,0,2-0.9,2-2V6z"/>
<rect x="16" y="10" fill-rule="evenodd" clip-rule="evenodd" fill="#666666" width="8" height="2"/>
<path fill-rule="evenodd" clip-rule="evenodd" d="M8,18h6v6H8V18z M10,22h2v-2h-2V22z"/>
<path fill-rule="evenodd" clip-rule="evenodd" d="M8,8h6v6H8V8z M10,12h2v-2h-2V12z"/>
<rect x="16" y="20" fill-rule="evenodd" clip-rule="evenodd" fill="#666666" width="8" height="2"/>
<g>
</g>
<g>
</g>
<g>
</g>
<g>
</g>
<g>
</g>
<g>
</g>
<g>
</g>
<g>
</g>
<g>
</g>
<g>
</g>
<g>
</g>
<g>
</g>
<g>
</g>
<g>
</g>
<g>
</g>
</svg>
