<?xml version="1.0" encoding="utf-8"?>
<!-- Generator: Adobe Illustrator 16.0.4, SVG Export Plug-In . SVG Version: 6.00 Build 0)  -->
<!DOCTYPE svg PUBLIC "-//W3C//DTD SVG 1.1//EN" "http://www.w3.org/Graphics/SVG/1.1/DTD/svg11.dtd">
<svg version="1.1" id="Calque_1" xmlns="http://www.w3.org/2000/svg" xmlns:xlink="http://www.w3.org/1999/xlink" x="0px" y="0px"
	 width="32px" height="32px" viewBox="0 0 32 32" enable-background="new 0 0 32 32" xml:space="preserve">
<rect fill="none" width="32" height="32"/>
<linearGradient id="SVGID_1_" gradientUnits="userSpaceOnUse" x1="15.9995" y1="1" x2="15.9995" y2="32.7589">
	<stop  offset="0" style="stop-color:#999999"/>
	<stop  offset="0.3" style="stop-color:#000000"/>
	<stop  offset="0.4868" style="stop-color:#030303"/>
	<stop  offset="0.6368" style="stop-color:#0D0D0D"/>
	<stop  offset="0.774" style="stop-color:#1E1E1E"/>
	<stop  offset="0.9029" style="stop-color:#363636"/>
	<stop  offset="1" style="stop-color:#4D4D4D"/>
</linearGradient>
<path fill="url(#SVGID_1_)" d="M16,2C7.716,2,1,8.716,1,17v14.986h14.371
	C15.58,31.994,15.789,32,16,32c8.284,0,15-6.716,15-15S24.284,2,16,2L16,2z"/>
<path fill="#FFFFFF" d="M16,5.482C9.639,5.482,4.482,10.639,4.482,17v6.865v4.641v3.48h4.609V17.012
	c0-3.803,3.082-6.887,6.886-6.887s6.886,3.084,6.886,6.887c0,3.804-3.082,6.887-6.886,6.887c-1.391,0-2.685-0.414-3.768-1.122v4.95
	c0.725,0.446,2.381,0.762,4.323,0.778C22.646,28.226,27.519,23.182,27.519,17C27.519,10.639,22.361,5.482,16,5.482L16,5.482z"/>
<path fill="#FFFFFF" d="M15.518,28.506c0.159,0.007,0.32,0.013,0.482,0.013c0.17,0,0.339-0.006,0.508-0.013H15.518z"/>
</svg>
