<?xml version="1.0" encoding="utf-8"?>
<!-- Generator: Adobe Illustrator 16.0.4, SVG Export Plug-In . SVG Version: 6.00 Build 0)  -->
<!DOCTYPE svg PUBLIC "-//W3C//DTD SVG 1.1//EN" "http://www.w3.org/Graphics/SVG/1.1/DTD/svg11.dtd">
<svg version="1.1" id="Calque_1" xmlns="http://www.w3.org/2000/svg" xmlns:xlink="http://www.w3.org/1999/xlink" x="0px" y="0px"
	 width="32px" height="32px" viewBox="0 0 32 32" enable-background="new 0 0 32 32" xml:space="preserve">
<rect fill="none" width="32" height="32"/>
<g>
	<g>
		
			<linearGradient id="SVGID_1_" gradientUnits="userSpaceOnUse" x1="297.5" y1="-372" x2="297.5" y2="-403.7599" gradientTransform="matrix(1 0 0 -1 -281.5 -372)">
			<stop  offset="0" style="stop-color:#999999"/>
			<stop  offset="0.3" style="stop-color:#000000"/>
			<stop  offset="0.4868" style="stop-color:#030303"/>
			<stop  offset="0.6368" style="stop-color:#0D0D0D"/>
			<stop  offset="0.774" style="stop-color:#1E1E1E"/>
			<stop  offset="0.9029" style="stop-color:#363636"/>
			<stop  offset="1" style="stop-color:#4D4D4D"/>
		</linearGradient>
		<path fill="url(#SVGID_1_)" d="M29.125,14.125H27.25c-0.066,0-0.121,0.031-0.186,0.038c-0.285-1.73-0.953-3.323-1.935-4.691
			c0.048-0.04,0.106-0.056,0.149-0.101l1.326-1.325c0.731-0.732,0.731-1.92,0-2.652s-1.92-0.732-2.651,0L22.63,6.719
			c-0.044,0.044-0.062,0.103-0.101,0.15c-1.369-0.981-2.961-1.649-4.692-1.935c0.007-0.062,0.038-0.118,0.038-0.184V2.875
			C17.875,1.839,17.036,1,16,1s-1.875,0.839-1.875,1.875V4.75c0,0.066,0.031,0.122,0.038,0.185
			c-1.732,0.286-3.324,0.953-4.692,1.935C9.431,6.822,9.414,6.764,9.37,6.72L8.045,5.394c-0.731-0.732-1.919-0.732-2.651,0
			s-0.732,1.92,0,2.652L6.72,9.371c0.044,0.045,0.103,0.061,0.149,0.101c-0.98,1.368-1.648,2.961-1.934,4.691
			c-0.063-0.007-0.119-0.038-0.185-0.038H2.875C1.839,14.125,1,14.964,1,16s0.839,1.875,1.875,1.875H4.75
			c0.066,0,0.122-0.029,0.185-0.038c0.286,1.731,0.953,3.324,1.934,4.692c-0.047,0.039-0.105,0.057-0.149,0.101l-1.326,1.325
			c-0.732,0.732-0.732,1.92,0,2.65c0.732,0.732,1.92,0.732,2.651,0l1.326-1.324c0.044-0.045,0.061-0.104,0.101-0.15
			c1.368,0.98,2.96,1.648,4.691,1.934c-0.006,0.064-0.038,0.119-0.038,0.187v1.875C14.125,30.161,14.964,31,16,31
			s1.875-0.839,1.875-1.875V27.25c0-0.066-0.031-0.121-0.038-0.186c1.731-0.285,3.323-0.953,4.692-1.935
			c0.039,0.048,0.057,0.106,0.101,0.149l1.325,1.326c0.73,0.731,1.92,0.731,2.65,0c0.732-0.731,0.732-1.92,0-2.651l-1.324-1.325
			c-0.045-0.044-0.104-0.062-0.15-0.1c0.98-1.369,1.648-2.961,1.934-4.693c0.064,0.008,0.119,0.038,0.187,0.038h1.875
			C30.161,17.875,31,17.036,31,16S30.161,14.125,29.125,14.125z M16,21.625c-3.106,0-5.625-2.518-5.625-5.625
			c0-3.106,2.519-5.625,5.625-5.625c3.105,0,5.625,2.519,5.625,5.625C21.625,19.107,19.105,21.625,16,21.625z"/>
	</g>
</g>
</svg>
