<svg height="24" viewBox="0 0 24 24" width="24" xmlns="http://www.w3.org/2000/svg" xmlns:xlink="http://www.w3.org/1999/xlink">
  <linearGradient id="a" gradientUnits="userSpaceOnUse" x1="16" x2="16" y1="27" y2="5">
    <stop offset="0" stop-color="#f3db6c"/>
    <stop offset="1" stop-color="#ffeea9"/>
  </linearGradient>
  <linearGradient id="b" gradientUnits="userSpaceOnUse" x1="7" x2="11" y1="24" y2="14">
    <stop offset="0" stop-color="#2c251f"/>
    <stop offset="1" stop-color="#4d3f33"/>
  </linearGradient>
  <linearGradient id="c" gradientUnits="userSpaceOnUse" x1="9" x2="11" y1="18" y2="14">
    <stop offset="0" stop-color="#4c7aba"/>
    <stop offset="1" stop-color="#86c3cf"/>
  </linearGradient>
  <title>Prism Launcher Logo</title>
  <metadata/>
  <g transform="translate(-4 -4)">
    <rect fill="url(#a)" height="18" ry="3" stroke-width=".277182" width="18" x="7" y="7"/>
    <g id="d" transform="translate(2 -1)">
      <rect fill="url(#b)" height="9" ry="1" stroke-width=".264583" width="5" x="6" y="14"/>
      <path d="m8 14v4h3v-3c0-.553999-.446001-1-1-1z" fill="url(#c)" stroke-width=".264583"/>
    </g>
    <use transform="matrix(-1 0 0 1 32 0)" xlink:href="#d"/>
    <g fill="#2c251f" stroke-width=".264583" transform="translate(0 -1)">
      <rect height="3" ry="1" width="3" x="9" y="10"/>
      <rect height="3" ry="1" width="5" x="4" y="7"/>
      <path d="m8 9v1c.5539988 0 1 .446001 1 1h1v-1c-.5539994 0-1-.4460006-1-1z"/>
    </g>
    <g fill="#2c251f" stroke-width=".264583" transform="matrix(-1 0 0 1 31 -1)">
      <rect height="3" ry="1" width="3" x="8" y="10"/>
      <rect height="3" ry="1" width="5" x="3" y="7"/>
      <path d="m7 9v1c.5539988 0 1 .446001 1 1h1v-1c-.5539994 0-1-.4460006-1-1z"/>
    </g>
    <rect fill="none" height="24" width="24" x="4" y="4"/>
  </g>
</svg>
