<?xml version="1.0" encoding="UTF-8" standalone="no"?>
<svg
   xmlns:dc="http://purl.org/dc/elements/1.1/"
   xmlns:cc="http://creativecommons.org/ns#"
   xmlns:rdf="http://www.w3.org/1999/02/22-rdf-syntax-ns#"
   xmlns:svg="http://www.w3.org/2000/svg"
   xmlns="http://www.w3.org/2000/svg"
   version="1.1"
   viewBox="0 0 25.399999 25.4"
   height="96"
   width="96">
  <g transform="translate(-33.928467,-255.46043)">
    <g transform="rotate(-9.9635201,-96.932986,622.95265)">
      <path style="fill:#f1f2e0;fill-opacity:1;fill-rule:evenodd;stroke:#999999;stroke-width:0.28753757px;stroke-linecap:butt;stroke-linejoin:miter;stroke-opacity:1" d="m 101.98199,286.42583 -1.1502,0.57512 1.14992,0.5755 2.30058,1.14996 1.15019,-0.57514 -2.30058,-1.14995 z m 2.3003,2.30058 -1.1502,0.57512 1.15002,0.57493 1.15019,-0.57513 z m -1.8e-4,1.15005 -1.1502,0.57512 1.15057,0.57502 1.15019,-0.57512 z m 3.7e-4,1.15014 -1.15019,0.57514 -1.1502,0.57512 1.15001,0.57493 1.1502,-0.57513 1.15019,-0.57512 z m -2.30039,1.15026 -1.15001,-0.57494 -1.150566,-0.57502 -1.150193,0.57512 1.150565,0.57502 1.150014,0.57494 z m -2.300576,-1.14996 1.150196,-0.57513 -1.150014,-0.57493 -1.150097,0.57456 z m -1.149915,-0.5755 1.150193,-0.57512 -1.150012,-0.57492 -1.150194,0.57512 z m 1.81e-4,-1.15004 1.150194,-0.57513 -1.150567,-0.57503 -1.150193,0.57512 z m -3.73e-4,-1.15016 1.150194,-0.57512 1.150189,-0.57513 -1.150008,-0.57492 -1.150193,0.57512 -1.150194,0.57512 z m 1.150567,0.57503 1.149916,0.57548 1.15001,0.57494 1.15019,-0.57512 -1.15001,-0.57494 -1.15047,-0.57558 z"  />
    </g>
    <g style="fill:none;stroke:#999999" transform="matrix(1.0012918,0.26829532,-0.26829532,1.0012918,86.112205,-31.978257)">
      <path style="stroke:#999999;stroke-width:1.03661346px;stroke-linecap:butt;stroke-linejoin:miter;stroke-opacity:1" d="M 85.501953 51.128906 C 82.473901 51.748417 79.445938 52.368362 76.417969 52.988281 L 79.886719 56.064453 C 82.914656 55.444381 85.942682 54.824742 88.970703 54.205078 L 85.501953 51.128906 z "
         transform="matrix(0.24654113,-0.06606049,0.06606049,0.24654113,23.141685,280.86706)"  />
      <path style="stroke:#999999;stroke-width:1.03661346px;stroke-linecap:butt;stroke-linejoin:miter;stroke-opacity:1" d="M 79.636719 40.972656 L 75.095703 41.902344 C 78.563735 44.978675 82.032556 48.054115 85.501953 51.128906 L 90.042969 50.201172 L 79.636719 40.972656 z "
         transform="matrix(0.24654113,-0.06606049,0.06606049,0.24654113,23.141685,280.86706)"  />
    </g>
    <path style="fill:#fed668" d="m 41.865965,262.07502 -4.233333,2.11667 7.408333,3.70417 4.233334,-2.11667 z" />
    <path style="fill:#0a0707" d="m 50.332633,272.39378 v 1.32291 l 1.058333,0.52917 v -1.32292 z" />
    <path style="fill:#422117" d="m 50.332633,273.7167 v 1.32291 l 1.058333,0.52917 v -1.32292 z" />
    <path style="fill:#0a0707" d="m 48.215966,273.45211 v 1.32291 l 1.058333,0.52917 v -1.32292 z" />
    <path style="fill:#422117" d="m 48.215966,274.77503 v 1.32291 l 1.058333,0.52917 v -1.32292 z" />
    <path style="fill:#422117" d="m 45.040966,275.3042 v 1.32291 l 1.058333,0.52917 v -1.32292 z" />
    <path style="fill:#78621d" d="m 45.040965,277.15626 4.233334,-2.11665 v -9.26042 l -4.233334,2.11667 z" />
    <path style="fill:#1d0c08" d="m 50.332632,265.25002 -1.058333,0.52917 v 9.26042 l 1.058333,-0.52917 z" />
    <path style="fill:#1d0c08" d="m 52.449299,264.19169 -1.058333,0.52917 v 9.26042 l 1.058333,-0.52917 z" />
    <path style="fill:#edc343" d="m 38.690965,263.66252 1.058334,0.52917 1.058333,-0.52917 1.058333,0.52917 2.116667,-1.05834 -2.116667,-1.05833 z" />
    <path style="fill:#fed668" d="m 42.924299,261.54586 7.408334,3.70417 1.058333,-0.52917 -7.408334,-3.70417 z" />
    <path style="fill:#e4ae3b" d="m 40.807633,262.60419 1.058333,0.52917 1.058333,-0.52917 -1.058333,-0.52917 z" />
    <path style="fill:#fed668" d="m 45.040966,260.48752 7.408333,3.70417 1.058333,-0.52917 -7.408333,-3.70417 z" />
    <path style="fill:#5f3225" d="m 42.924299,261.54585 -1.058334,0.52917 7.408333,3.70417 1.058334,-0.52917 z" />
    <path style="fill:#e4ae3b" d="m 42.9243,261.54585 1.058333,0.52917 1.058333,-0.52917 -1.058333,-0.52917 z" />
    <path style="fill:#5f3225" d="m 45.040965,260.48752 -1.058333,0.52917 7.408333,3.70416 1.058333,-0.52916 z" />
    <path style="fill:#e4ae3b" d="m 45.040966,260.48752 1.058333,0.52917 1.058333,-0.52917 -1.058333,-0.52917 z" />
    <path style="fill:#5f3225" d="m 46.099299,259.95835 7.408333,3.70417 2.116666,-1.05833 -7.408333,-3.70417 z" />
    <path style="fill:#552e22" d="m 47.157633,259.42919 1.058333,0.52917 1.058333,-0.52917 -1.058333,-0.52917 z" />
    <path style="fill:#edc343" d="m 43.982633,262.07502 1.058333,0.52917 1.058333,-0.52917 -1.058333,-0.52917 z" />
    <path style="fill:#edc343" d="m 46.099299,261.01669 1.058333,0.52917 1.058333,-0.52917 -1.058333,-0.52917 z" />
    <path style="fill:#edc343" d="m 40.807633,264.72086 1.058333,0.52917 1.058333,-0.52917 -1.058333,-0.52917 z" />
    <path style="fill:#e4ae3b" d="m 45.040967,262.60419 1.058333,0.52917 1.058333,-0.52917 -1.058333,-0.52917 z" />
    <path style="fill:#552e22" d="m 49.2743,260.48753 1.058333,0.52917 1.058333,-0.52917 -1.058333,-0.52917 z" />
    <path style="fill:#edc343" d="m 48.215966,262.07502 1.058333,0.52917 1.058333,-0.52917 -1.058333,-0.52917 z" />
    <path style="fill:#edc343" d="m 41.865966,266.30836 1.058333,0.52917 1.058333,-0.52917 -1.058333,-0.52917 z" />
    <path style="fill:#552e22" d="m 50.332633,262.07502 1.058333,0.52917 1.058333,-0.52917 -1.058333,-0.52917 z" />
    <path style="fill:#edc343" d="m 46.099299,265.25002 -1.058334,0.52917 1.058334,0.52916 -2.116667,1.05834 1.058333,0.52916 3.175,-1.5875 z" />
    <path style="fill:#edc343" d="m 48.215967,264.19169 1.058333,0.52917 1.058333,-0.52917 -1.058333,-0.52917 z" />
    <path style="fill:#edc343" d="m 50.332633,263.13336 1.058333,0.52917 1.058333,-0.52917 -1.058333,-0.52917 z" />
    <path style="fill:#e4ae3b" d="m 47.157633,265.77919 1.058333,0.52917 1.058333,-0.52917 -1.058333,-0.52917 z" />
    <path style="fill:#e4ae3b" d="m 49.2743,264.72085 1.058333,0.52917 1.058333,-0.52917 -1.058333,-0.52917 z" />
    <path style="fill:#e4ae3b" d="m 51.390966,263.66252 1.058333,0.52917 1.058333,-0.52917 -1.058333,-0.52917 z" />
    <path style="fill:#edc343" d="m 38.690966,264.72086 1.058333,0.52917 1.058333,-0.52917 -1.058333,-0.52917 z" />
    <path style="fill:#ac8d2e" d="m 37.632633,273.45211 7.408333,3.70415 v -9.2604 l -7.408333,-3.70417 z" />
    <path style="fill:#12121a" d="m 37.632633,268.16044 2.116666,1.05834 v 3.96875 l -2.116666,-1.05834 z" />
    <path style="fill:#78621d" d="m 50.332633,265.25002 v 9.26041 l 1.058333,-0.52916 v -9.26042 z" />
    <path style="fill:#78621d" d="m 52.449299,264.19169 v 9.26041 l 1.058333,-0.52916 v -9.26042 z" />
    <path style="fill:#27120b" d="m 49.274299,265.77919 v 2.64583 l 1.058333,-0.52916 v -2.64584 z" />
    <path style="fill:#09090e" d="m 45.040966,271.86461 1.058333,-0.52917 v 3.96875 l -1.058333,0.52917 -2.116667,-1.05834 v -3.96875 z" />
    <path style="fill:#150704" d="m 49.2743,271.07085 v 2.64583 l 1.058333,-0.52916 v -2.64584 z" />
    <path style="fill:#050303" d="m 49.2743,273.71669 v 1.32291 l 1.058333,-0.52916 v -1.32292 z" />
    <path style="fill:#150704" d="m 51.390966,268.68961 v 2.64583 l 1.058333,-0.52916 v -2.64584 z" />
    <path style="fill:#050303" d="m 51.390966,271.33544 v 2.64583 l 1.058333,-0.52916 v -2.64584 z" />
    <path style="fill:#2c140d" d="m 51.390966,264.72086 v 1.32291 l 1.058333,-0.52916 v -1.32292 z" />
    <path style="fill:#1d0c08" d="m 55.624299,262.60419 -2.116666,1.05833 v 9.26042 l 2.116666,-1.05833 z" />
    <path style="fill:#150704" d="m 53.507633,268.95419 v 1.32291 l 1.058333,-0.52916 v -1.32292 z" />
    <path style="fill:#050303" d="m 53.507633,270.2771 v 2.64583 l 1.058333,-0.52916 v -2.64584 z" />
    <path style="fill:#2c140d" d="m 53.507633,263.66252 v 1.32291 l 1.058333,-0.52916 v -1.32292 z" />
    <path style="fill:#27120b" d="m 54.565966,263.13335 v 2.64583 l 1.058333,-0.52916 v -2.64584 z" />
    <path style="fill:#150704" d="m 54.565966,269.74794 v 2.64583 l 1.058333,-0.52916 v -2.64584 z" />
    <path style="fill:#27120b" d="m 54.565966,267.10211 v 1.32291 l 1.058333,-0.52916 v -1.32292 z" />
    <path style="fill:#633f19" d="m 45.040965,277.15626 3.175,-1.58749 v -1.32291 l -3.175,1.5875 z" />
    <path style="fill:#55300a" d="m 48.215966,274.24586 v 1.32291 l 1.058333,-0.52916 v -1.32292 z" />
    <path style="fill:#694520" d="m 48.215966,272.92294 v 1.32291 l 1.058333,-0.52916 v -1.32292 z" />
    <path style="fill:#735619" d="m 48.215966,271.60002 v 1.32291 l 1.058333,-0.52916 v -1.32292 z" />
    <path style="fill:#735619" d="m 47.157633,273.45211 v 1.32291 l 1.058333,-0.52916 v -1.32292 z" />
    <path style="fill:#131016" d="m 45.040966,271.86461 v 1.32291 l 1.058333,-0.52916 v -1.32292 z" />
    <path style="fill:#131016" d="m 45.040966,274.51044 v 1.32291 l 1.058333,-0.52916 v -1.32292 z" />
    <path style="fill:#694520" d="m 45.040966,270.54169 v 1.32291 l 1.058333,-0.52916 v -1.32292 z" />
    <path style="fill:#735619" d="m 46.0993,270.01252 v 1.32291 l 1.058333,-0.52916 v -1.32292 z" />
    <path style="fill:#816c31" d="m 45.040966,267.89586 v 1.32291 l 1.058333,-0.52916 v 1.32291 l 1.058334,-0.52916 v -1.32292 l 2.116666,-1.05833 v -1.32292 z" />
    <path style="fill:#49250c" d="m 50.332633,273.18752 v 1.32291 l 1.058333,-0.52916 v -1.32292 z" />
    <path style="fill:#633f19" d="m 50.332633,271.86461 v 1.32291 l 1.058333,-0.52916 v -1.32292 z" />
    <path style="fill:#735619" d="m 50.332633,269.21878 v 2.64582 l 1.058333,-0.52916 v -2.64583 z" />
    <path style="fill:#816c31" d="m 50.332633,265.25002 v 1.32291 l 1.058333,-0.52916 v -1.32292 z" />
    <path style="fill:#49250c" d="m 52.449299,270.80627 10e-7,2.64583 1.058333,-0.52916 -10e-7,-2.64584 z" />
    <path style="fill:#55300a" d="m 52.4493,269.48336 v 1.32291 l 1.058333,-0.52916 v -1.32292 z" />
    <path style="fill:#694520" d="m 52.4493,268.16044 v 1.32291 l 1.058333,-0.52916 v -1.32292 z" />
    <path style="fill:#755719" d="m 52.4493,266.83752 v 1.32291 l 1.058333,-0.52916 v -1.32292 z" />
    <path style="fill:#816c31" d="m 52.4493,264.19169 v 1.32291 l 1.058333,-0.52916 v -1.32292 z" />
    <path style="fill:#b89b49" d="m 37.632632,265.51461 2.116667,1.05833 v -1.32292 l -2.116667,-1.05833 z" />
    <path style="fill:#b89b49" d="m 40.807633,267.10211 2.116667,1.05833 v -1.32292 l -2.116667,-1.05833 z" />
    <path style="fill:#b89b49" d="m 43.982633,270.01253 1.058333,0.52916 v -2.64584 l -1.058333,-0.52916 z" />
    <path style="fill:#966531" d="m 43.982632,271.33545 1.058334,0.52916 v -1.32292 l -1.058334,-0.52916 z" />
    <path style="fill:#a57d28" d="m 42.924299,270.80627 1.058334,0.52916 v -1.32292 l -1.058334,-0.52916 z" />
    <path style="fill:#b89b49" d="m 41.865965,270.27712 1.058334,0.52916 v -1.32292 l -1.058334,-0.52916 z" />
    <path style="fill:#966531" d="m 43.982632,271.33545 1.058334,0.52916 v -1.32292 l -1.058334,-0.52916 z" />
    <path style="fill:#a57d28" d="m 39.749299,273.18753 1.058334,0.52916 v -1.32292 l -1.058334,-0.52916 z" />
    <path style="fill:#a57d28" d="m 41.865965,274.24587 1.058334,0.52916 v -1.32292 l -1.058334,-0.52916 z" />
    <path style="fill:#a57d28" d="m 40.807633,275.03961 1.058334,0.52916 v -1.32292 l -1.058334,-0.52916 z" />
    <path style="fill:#8e5c28" d="m 43.982633,276.62711 1.058334,0.52916 v -1.32292 l -1.058334,-0.52916 z" />
    <path style="fill:#966531" d="m 41.865966,275.56877 2.116667,1.05833 v -1.32292 l -2.116667,-1.05833 z" />
    <path style="fill:#966531" d="m 38.690966,273.98128 2.116667,1.05833 v -1.32292 l -2.116667,-1.05833 z" />
    <path style="fill:#8e5c28" d="m 37.632632,273.45212 1.058334,0.52916 v -1.32292 l -1.058334,-0.52916 z" />
    <path style="fill:#956531" d="m 37.632633,268.16044 1.058334,0.52916 v -1.32292 l -1.058334,-0.52916 z" />
    <path style="fill:#b89b49" d="m 39.749299,267.89587 1.058334,0.52916 v -1.32292 l -1.058334,-0.52916 z" />
    <path style="fill:#1f1c25" d="m 38.690966,267.36669 1.058334,0.52916 v -1.32292 l -1.058334,-0.52916 z" />
    <path style="fill:#1f1c25" d="m 42.924299,269.48337 1.058334,0.52916 v -1.32292 l -1.058334,-0.52916 z" />
    <path style="fill:#589197" d="m 42.924299,272.12919 1.058334,0.52916 v -1.32292 l -1.058334,-0.52916 z" />
    <path style="fill:#589197" d="m 38.690966,270.01252 1.058334,0.52916 v -1.32292 l -1.058334,-0.52916 z" />
    <path style="fill:#12121a" d="m 43.982633,272.65836 1.058334,0.52916 v -1.32292 l -1.058334,-0.52916 z" />
    <path style="fill:#12121a" d="m 42.924299,273.45211 1.058334,0.52916 v -1.32292 l -1.058334,-0.52916 z" />
    <path style="fill:#12121a" d="m 43.982633,275.30419 1.058334,0.52916 v -1.32292 l -1.058334,-0.52916 z" />
    <path style="fill:#1f1c25" d="m 43.982633,273.98127 1.058334,0.52916 v -1.32292 l -1.058334,-0.52916 z" />
    <path style="fill:#1f1c25" d="m 42.924299,274.77503 1.058334,0.52916 v -1.32292 l -1.058334,-0.52916 z" />
    <path style="fill:#1f1c25" d="m 38.690966,272.65836 1.058334,0.52916 v -1.32292 l -1.058334,-0.52916 z" />
    <path style="fill:#1f1c25" d="m 37.632633,270.80627 1.058334,0.52916 v -1.32292 l -1.058334,-0.52916 z" />
    <path style="fill:#131016" d="m 38.690966,267.10211 v 1.32291 l 1.058333,-0.52916 v -1.32292 z" />
    <path style="fill:#131016" d="m 36.574299,266.83752 v 1.32291 l 2.116667,-1.05832 v -1.32292 z" />
    <path style="fill:#131016" d="m 41.865966,268.68961 v 1.32291 l 1.058333,-0.52916 v -1.32292 z" />
    <path style="fill:#131016" d="m 39.749299,268.42502 v 1.32291 l 2.116667,-1.05832 v -1.32292 z" />
    <g transform="matrix(1.0012918,0.26829532,-0.26829532,1.0012918,86.112205,-31.978257)">
      <path style="fill:#f1f2e0" d="m 38.073986,286.23688 1.058333,0.52917 1.058333,-0.52917 -1.058333,-0.52917 z" />
      <path style="fill:#5f3225" d="m 37.015652,286.76606 1.058333,0.52917 1.058333,-0.52917 -1.058333,-0.52917 z" />
      <path style="fill:#5f3225" d="m 37.015652,287.82438 1.058333,0.52917 1.058333,-0.52917 -1.058333,-0.52917 z" />
      <path style="fill:#f7fdfd" d="m 38.073986,288.35355 1.058333,0.52917 1.058333,-0.52917 -1.058333,-0.52917 z" />
      <path style="fill:#f1f2e0" d="m 40.190652,286.23689 1.058333,0.52917 1.058333,-0.52917 -1.058333,-0.52917 z" />
      <path style="fill:#f7fdfd" d="m 42.307319,286.23688 1.058333,0.52917 1.058333,-0.52917 -1.058333,-0.52917 z" />
      <path style="fill:#f1f2e0" d="m 42.307319,287.29521 1.058333,0.52917 1.058333,-0.52917 -1.058333,-0.52917 z" />
      <path style="fill:#f7fdfd" d="m 43.365653,287.82437 1.058333,0.52917 1.058333,-0.52917 -1.058333,-0.52917 z" />
      <path style="fill:#f1f2e0" d="m 43.365653,288.88271 1.058333,0.52917 1.058333,-0.52917 -1.058333,-0.52917 z" />
      <path style="fill:#f1f2e0" d="m 41.248986,288.88271 1.058333,0.52917 1.058333,-0.52917 -1.058333,-0.52917 z" />
      <path style="fill:#f7fdfd" d="m 40.190653,288.35354 1.058333,0.52917 1.058333,-0.52917 -1.058333,-0.52917 z" />
      <path style="fill:#f7fdfd" d="m 45.482319,288.88271 1.058333,0.52917 1.058333,-0.52917 -1.058333,-0.52917 z" />
      <path style="fill:#f1f2e0" d="m 46.540653,288.35355 1.058333,0.52917 1.058333,-0.52917 -1.058333,-0.52917 z" />
      <path style="fill:#f1f2e0" d="m 46.540653,287.29521 1.058333,0.52917 1.058333,-0.52917 -1.058333,-0.52917 z" />
      <path style="fill:#f7fdfd" d="m 44.423986,286.23688 2.116667,1.05833 1.058333,-0.52917 -2.116667,-1.05833 z" />
    </g>
    <g transform="matrix(1.0703659,-0.18803179,0.18803179,1.0703659,-63.348962,-38.123102)">
      <path style="fill:#f1f2e0" d="m 48.392735,288.88271 1.058333,0.52917 1.058333,-0.52917 -1.058333,-0.52917 z" />
      <path style="fill:#5f3225" d="m 47.334402,289.41187 1.058333,0.52917 1.058333,-0.52917 -1.058333,-0.52917 z" />
      <path style="fill:#5f3225" d="m 45.217735,289.41188 1.058333,0.52917 1.058333,-0.52917 -1.058333,-0.52917 z" />
      <path style="fill:#f7fdfd" d="m 44.159402,288.8827 1.058333,0.52917 1.058333,-0.52917 -1.058333,-0.52917 z" />
      <path style="fill:#f1f2e0" d="m 43.101069,286.23687 1.058333,0.52917 1.058333,-0.52917 -1.058333,-0.52917 z" />
      <path style="fill:#f7fdfd" d="m 43.101068,285.17854 1.058333,0.52917 1.058333,-0.52917 -1.058333,-0.52917 z" />
      <path style="fill:#f1f2e0" d="m 46.276068,284.64938 1.058333,0.52917 1.058333,-0.52917 -1.058333,-0.52917 z" />
      <path style="fill:#f7fdfd" d="m 45.217735,286.23688 1.058333,0.52917 1.058333,-0.52917 -1.058333,-0.52917 z" />
      <path style="fill:#f1f2e0" d="m 44.159402,284.64937 1.058333,0.52917 1.058333,-0.52917 -1.058333,-0.52917 z" />
      <path style="fill:#f1f2e0" d="m 43.101068,287.2952 1.058333,0.52917 1.058333,-0.52917 -1.058333,-0.52917 z" />
      <path style="fill:#f7fdfd" d="m 44.159402,287.82438 1.058333,0.52917 1.058333,-0.52917 -1.058333,-0.52917 z" />
      <path style="fill:#f7fdfd" d="m 48.392735,286.76604 1.058333,0.52917 1.058333,-0.52917 -1.058333,-0.52917 z" />
      <path style="fill:#f1f2e0" d="m 48.392735,287.82438 1.058333,0.52917 1.058333,-0.52917 -1.058333,-0.52917 z" />
      <path style="fill:#f1f2e0" d="m 46.276068,286.76604 1.058333,0.52917 1.058333,-0.52917 -1.058333,-0.52917 z" />
      <path style="fill:#f7fdfd" d="m 47.334402,285.17854 2.116667,1.05833 1.058333,-0.52917 -2.116667,-1.05833 z" />
    </g>
  </g>
</svg>
