<svg height="96" viewBox="0 0 25.399999 25.4" width="96" xmlns="http://www.w3.org/2000/svg">
  <g transform="translate(-33.928467 -255.46043)">
    <path d="m101.98199 286.42583-1.1502.57512 1.14992.5755 2.30058 1.14996 1.15019-.57514-2.30058-1.14995zm2.3003 2.30058-1.1502.57512 1.15002.57493 1.15019-.57513zm-.00018 1.15005-1.1502.57512 1.15057.57502 1.15019-.57512zm.00037 1.15014-1.15019.57514-1.1502.57512 1.15001.57493 1.1502-.57513 1.15019-.57512zm-2.30039 1.15026-1.15001-.57494-1.150566-.57502-1.150193.57512 1.150565.57502 1.150014.57494zm-2.300576-1.14996 1.150196-.57513-1.150014-.57493-1.150097.57456zm-1.149915-.5755 1.150193-.57512-1.150012-.57492-1.150194.57512zm.000181-1.15004 1.150194-.57513-1.150567-.57503-1.150193.57512zm-.000373-1.15016 1.150194-.57512 1.150189-.57513-1.150008-.57492-1.150193.57512-1.150194.57512zm1.150567.57503 1.149916.57548 1.15001.57494 1.15019-.57512-1.15001-.57494-1.15047-.57558z" fill="#f1f2e0" fill-rule="evenodd" stroke="#999" stroke-width=".287538" transform="matrix(.98491811 -.17302112 .17302112 .98491811 -109.245898 -7.376153)"/>
    <g fill="none" stroke="#999" stroke-width="1.036613" transform="matrix(.26458333 0 0 .26458333 33.928467 255.460433)">
      <path d="m85.501953 51.128906c-3.028052.619511-6.056015 1.239456-9.083984 1.859375l3.46875 3.076172c3.027937-.620072 6.055963-1.239711 9.083984-1.859375z"/>
      <path d="m79.636719 40.972656-4.541016.929688c3.468032 3.076331 6.936853 6.151771 10.40625 9.226562l4.541016-.927734z"/>
    </g>
    <path d="m41.865965 262.07502-4.233333 2.11667 7.408333 3.70417 4.233334-2.11667z" fill="#fed668"/>
    <path d="m50.332633 272.39378v1.32291l1.058333.52917v-1.32292z" fill="#0a0707"/>
    <path d="m50.332633 273.7167v1.32291l1.058333.52917v-1.32292z" fill="#422117"/>
    <path d="m48.215966 273.45211v1.32291l1.058333.52917v-1.32292z" fill="#0a0707"/>
    <path d="m48.215966 274.77503v1.32291l1.058333.52917v-1.32292z" fill="#422117"/>
    <path d="m45.040966 275.3042v1.32291l1.058333.52917v-1.32292z" fill="#422117"/>
    <path d="m45.040965 277.15626 4.233334-2.11665v-9.26042l-4.233334 2.11667z" fill="#78621d"/>
    <path d="m50.332632 265.25002-1.058333.52917v9.26042l1.058333-.52917z" fill="#1d0c08"/>
    <path d="m52.449299 264.19169-1.058333.52917v9.26042l1.058333-.52917z" fill="#1d0c08"/>
    <path d="m38.690965 263.66252 1.058334.52917 1.058333-.52917 1.058333.52917 2.116667-1.05834-2.116667-1.05833z" fill="#edc343"/>
    <path d="m42.924299 261.54586 7.408334 3.70417 1.058333-.52917-7.408334-3.70417z" fill="#fed668"/>
    <path d="m40.807633 262.60419 1.058333.52917 1.058333-.52917-1.058333-.52917z" fill="#e4ae3b"/>
    <path d="m45.040966 260.48752 7.408333 3.70417 1.058333-.52917-7.408333-3.70417z" fill="#fed668"/>
    <path d="m42.924299 261.54585-1.058334.52917 7.408333 3.70417 1.058334-.52917z" fill="#5f3225"/>
    <path d="m42.9243 261.54585 1.058333.52917 1.058333-.52917-1.058333-.52917z" fill="#e4ae3b"/>
    <path d="m45.040965 260.48752-1.058333.52917 7.408333 3.70416 1.058333-.52916z" fill="#5f3225"/>
    <path d="m45.040966 260.48752 1.058333.52917 1.058333-.52917-1.058333-.52917z" fill="#e4ae3b"/>
    <path d="m46.099299 259.95835 7.408333 3.70417 2.116666-1.05833-7.408333-3.70417z" fill="#5f3225"/>
    <path d="m47.157633 259.42919 1.058333.52917 1.058333-.52917-1.058333-.52917z" fill="#552e22"/>
    <g fill="#edc343">
      <path d="m43.982633 262.07502 1.058333.52917 1.058333-.52917-1.058333-.52917z"/>
      <path d="m46.099299 261.01669 1.058333.52917 1.058333-.52917-1.058333-.52917z"/>
      <path d="m40.807633 264.72086 1.058333.52917 1.058333-.52917-1.058333-.52917z"/>
    </g>
    <path d="m45.040967 262.60419 1.058333.52917 1.058333-.52917-1.058333-.52917z" fill="#e4ae3b"/>
    <path d="m49.2743 260.48753 1.058333.52917 1.058333-.52917-1.058333-.52917z" fill="#552e22"/>
    <path d="m48.215966 262.07502 1.058333.52917 1.058333-.52917-1.058333-.52917z" fill="#edc343"/>
    <path d="m41.865966 266.30836 1.058333.52917 1.058333-.52917-1.058333-.52917z" fill="#edc343"/>
    <path d="m50.332633 262.07502 1.058333.52917 1.058333-.52917-1.058333-.52917z" fill="#552e22"/>
    <g fill="#edc343">
      <path d="m46.099299 265.25002-1.058334.52917 1.058334.52916-2.116667 1.05834 1.058333.52916 3.175-1.5875z"/>
      <path d="m48.215967 264.19169 1.058333.52917 1.058333-.52917-1.058333-.52917z"/>
      <path d="m50.332633 263.13336 1.058333.52917 1.058333-.52917-1.058333-.52917z"/>
    </g>
    <g fill="#e4ae3b">
      <path d="m47.157633 265.77919 1.058333.52917 1.058333-.52917-1.058333-.52917z"/>
      <path d="m49.2743 264.72085 1.058333.52917 1.058333-.52917-1.058333-.52917z"/>
      <path d="m51.390966 263.66252 1.058333.52917 1.058333-.52917-1.058333-.52917z"/>
    </g>
    <path d="m38.690966 264.72086 1.058333.52917 1.058333-.52917-1.058333-.52917z" fill="#edc343"/>
    <path d="m37.632633 273.45211 7.408333 3.70415v-9.2604l-7.408333-3.70417z" fill="#ac8d2e"/>
    <path d="m37.632633 268.16044 2.116666 1.05834v3.96875l-2.116666-1.05834z" fill="#12121a"/>
    <path d="m50.332633 265.25002v9.26041l1.058333-.52916v-9.26042z" fill="#78621d"/>
    <path d="m52.449299 264.19169v9.26041l1.058333-.52916v-9.26042z" fill="#78621d"/>
    <path d="m49.274299 265.77919v2.64583l1.058333-.52916v-2.64584z" fill="#27120b"/>
    <path d="m45.040966 271.86461 1.058333-.52917v3.96875l-1.058333.52917-2.116667-1.05834v-3.96875z" fill="#09090e"/>
    <path d="m49.2743 271.07085v2.64583l1.058333-.52916v-2.64584z" fill="#150704"/>
    <path d="m49.2743 273.71669v1.32291l1.058333-.52916v-1.32292z" fill="#050303"/>
    <path d="m51.390966 268.68961v2.64583l1.058333-.52916v-2.64584z" fill="#150704"/>
    <path d="m51.390966 271.33544v2.64583l1.058333-.52916v-2.64584z" fill="#050303"/>
    <path d="m51.390966 264.72086v1.32291l1.058333-.52916v-1.32292z" fill="#2c140d"/>
    <path d="m55.624299 262.60419-2.116666 1.05833v9.26042l2.116666-1.05833z" fill="#1d0c08"/>
    <path d="m53.507633 268.95419v1.32291l1.058333-.52916v-1.32292z" fill="#150704"/>
    <path d="m53.507633 270.2771v2.64583l1.058333-.52916v-2.64584z" fill="#050303"/>
    <path d="m53.507633 263.66252v1.32291l1.058333-.52916v-1.32292z" fill="#2c140d"/>
    <path d="m54.565966 263.13335v2.64583l1.058333-.52916v-2.64584z" fill="#27120b"/>
    <path d="m54.565966 269.74794v2.64583l1.058333-.52916v-2.64584z" fill="#150704"/>
    <path d="m54.565966 267.10211v1.32291l1.058333-.52916v-1.32292z" fill="#27120b"/>
    <path d="m45.040965 277.15626 3.175-1.58749v-1.32291l-3.175 1.5875z" fill="#633f19"/>
    <path d="m48.215966 274.24586v1.32291l1.058333-.52916v-1.32292z" fill="#55300a"/>
    <path d="m48.215966 272.92294v1.32291l1.058333-.52916v-1.32292z" fill="#694520"/>
    <path d="m48.215966 271.60002v1.32291l1.058333-.52916v-1.32292z" fill="#735619"/>
    <path d="m47.157633 273.45211v1.32291l1.058333-.52916v-1.32292z" fill="#735619"/>
    <path d="m45.040966 271.86461v1.32291l1.058333-.52916v-1.32292z" fill="#131016"/>
    <path d="m45.040966 274.51044v1.32291l1.058333-.52916v-1.32292z" fill="#131016"/>
    <path d="m45.040966 270.54169v1.32291l1.058333-.52916v-1.32292z" fill="#694520"/>
    <path d="m46.0993 270.01252v1.32291l1.058333-.52916v-1.32292z" fill="#735619"/>
    <path d="m45.040966 267.89586v1.32291l1.058333-.52916v1.32291l1.058334-.52916v-1.32292l2.116666-1.05833v-1.32292z" fill="#816c31"/>
    <path d="m50.332633 273.18752v1.32291l1.058333-.52916v-1.32292z" fill="#49250c"/>
    <path d="m50.332633 271.86461v1.32291l1.058333-.52916v-1.32292z" fill="#633f19"/>
    <path d="m50.332633 269.21878v2.64582l1.058333-.52916v-2.64583z" fill="#735619"/>
    <path d="m50.332633 265.25002v1.32291l1.058333-.52916v-1.32292z" fill="#816c31"/>
    <path d="m52.449299 270.80627.000001 2.64583 1.058333-.52916-.000001-2.64584z" fill="#49250c"/>
    <path d="m52.4493 269.48336v1.32291l1.058333-.52916v-1.32292z" fill="#55300a"/>
    <path d="m52.4493 268.16044v1.32291l1.058333-.52916v-1.32292z" fill="#694520"/>
    <path d="m52.4493 266.83752v1.32291l1.058333-.52916v-1.32292z" fill="#755719"/>
    <path d="m52.4493 264.19169v1.32291l1.058333-.52916v-1.32292z" fill="#816c31"/>
    <g fill="#b89b49">
      <path d="m37.632632 265.51461 2.116667 1.05833v-1.32292l-2.116667-1.05833z"/>
      <path d="m40.807633 267.10211 2.116667 1.05833v-1.32292l-2.116667-1.05833z"/>
      <path d="m43.982633 270.01253 1.058333.52916v-2.64584l-1.058333-.52916z"/>
    </g>
    <path d="m43.982632 271.33545 1.058334.52916v-1.32292l-1.058334-.52916z" fill="#966531"/>
    <path d="m42.924299 270.80627 1.058334.52916v-1.32292l-1.058334-.52916z" fill="#a57d28"/>
    <path d="m41.865965 270.27712 1.058334.52916v-1.32292l-1.058334-.52916z" fill="#b89b49"/>
    <path d="m43.982632 271.33545 1.058334.52916v-1.32292l-1.058334-.52916z" fill="#966531"/>
    <g fill="#a57d28">
      <path d="m39.749299 273.18753 1.058334.52916v-1.32292l-1.058334-.52916z"/>
      <path d="m41.865965 274.24587 1.058334.52916v-1.32292l-1.058334-.52916z"/>
      <path d="m40.807633 275.03961 1.058334.52916v-1.32292l-1.058334-.52916z"/>
    </g>
    <path d="m43.982633 276.62711 1.058334.52916v-1.32292l-1.058334-.52916z" fill="#8e5c28"/>
    <path d="m41.865966 275.56877 2.116667 1.05833v-1.32292l-2.116667-1.05833z" fill="#966531"/>
    <path d="m38.690966 273.98128 2.116667 1.05833v-1.32292l-2.116667-1.05833z" fill="#966531"/>
    <path d="m37.632632 273.45212 1.058334.52916v-1.32292l-1.058334-.52916z" fill="#8e5c28"/>
    <path d="m37.632633 268.16044 1.058334.52916v-1.32292l-1.058334-.52916z" fill="#956531"/>
    <path d="m39.749299 267.89587 1.058334.52916v-1.32292l-1.058334-.52916z" fill="#b89b49"/>
    <path d="m38.690966 267.36669 1.058334.52916v-1.32292l-1.058334-.52916z" fill="#1f1c25"/>
    <path d="m42.924299 269.48337 1.058334.52916v-1.32292l-1.058334-.52916z" fill="#1f1c25"/>
    <path d="m42.924299 272.12919 1.058334.52916v-1.32292l-1.058334-.52916z" fill="#589197"/>
    <path d="m38.690966 270.01252 1.058334.52916v-1.32292l-1.058334-.52916z" fill="#589197"/>
    <g fill="#12121a">
      <path d="m43.982633 272.65836 1.058334.52916v-1.32292l-1.058334-.52916z"/>
      <path d="m42.924299 273.45211 1.058334.52916v-1.32292l-1.058334-.52916z"/>
      <path d="m43.982633 275.30419 1.058334.52916v-1.32292l-1.058334-.52916z"/>
    </g>
    <g fill="#1f1c25">
      <path d="m43.982633 273.98127 1.058334.52916v-1.32292l-1.058334-.52916z"/>
      <path d="m42.924299 274.77503 1.058334.52916v-1.32292l-1.058334-.52916z"/>
      <path d="m38.690966 272.65836 1.058334.52916v-1.32292l-1.058334-.52916z"/>
      <path d="m37.632633 270.80627 1.058334.52916v-1.32292l-1.058334-.52916z"/>
    </g>
    <g fill="#131016">
      <path d="m38.690966 267.10211v1.32291l1.058333-.52916v-1.32292z"/>
      <path d="m36.574299 266.83752v1.32291l2.116667-1.05832v-1.32292z"/>
      <path d="m41.865966 268.68961v1.32291l1.058333-.52916v-1.32292z"/>
      <path d="m39.749299 268.42502v1.32291l2.116667-1.05832v-1.32292z"/>
    </g>
    <g transform="matrix(1.0012918 .26829532 -.26829532 1.0012918 86.112205 -31.978257)">
      <path d="m38.073986 286.23688 1.058333.52917 1.058333-.52917-1.058333-.52917z" fill="#f1f2e0"/>
      <path d="m37.015652 286.76606 1.058333.52917 1.058333-.52917-1.058333-.52917z" fill="#5f3225"/>
      <path d="m37.015652 287.82438 1.058333.52917 1.058333-.52917-1.058333-.52917z" fill="#5f3225"/>
      <path d="m38.073986 288.35355 1.058333.52917 1.058333-.52917-1.058333-.52917z" fill="#f7fdfd"/>
      <path d="m40.190652 286.23689 1.058333.52917 1.058333-.52917-1.058333-.52917z" fill="#f1f2e0"/>
      <path d="m42.307319 286.23688 1.058333.52917 1.058333-.52917-1.058333-.52917z" fill="#f7fdfd"/>
      <path d="m42.307319 287.29521 1.058333.52917 1.058333-.52917-1.058333-.52917z" fill="#f1f2e0"/>
      <path d="m43.365653 287.82437 1.058333.52917 1.058333-.52917-1.058333-.52917z" fill="#f7fdfd"/>
      <path d="m43.365653 288.88271 1.058333.52917 1.058333-.52917-1.058333-.52917z" fill="#f1f2e0"/>
      <path d="m41.248986 288.88271 1.058333.52917 1.058333-.52917-1.058333-.52917z" fill="#f1f2e0"/>
      <path d="m40.190653 288.35354 1.058333.52917 1.058333-.52917-1.058333-.52917z" fill="#f7fdfd"/>
      <path d="m45.482319 288.88271 1.058333.52917 1.058333-.52917-1.058333-.52917z" fill="#f7fdfd"/>
      <path d="m46.540653 288.35355 1.058333.52917 1.058333-.52917-1.058333-.52917z" fill="#f1f2e0"/>
      <path d="m46.540653 287.29521 1.058333.52917 1.058333-.52917-1.058333-.52917z" fill="#f1f2e0"/>
      <path d="m44.423986 286.23688 2.116667 1.05833 1.058333-.52917-2.116667-1.05833z" fill="#f7fdfd"/>
    </g>
    <g transform="matrix(1.0703659 -.18803179 .18803179 1.0703659 -63.348962 -38.123102)">
      <path d="m48.392735 288.88271 1.058333.52917 1.058333-.52917-1.058333-.52917z" fill="#f1f2e0"/>
      <path d="m47.334402 289.41187 1.058333.52917 1.058333-.52917-1.058333-.52917z" fill="#5f3225"/>
      <path d="m45.217735 289.41188 1.058333.52917 1.058333-.52917-1.058333-.52917z" fill="#5f3225"/>
      <path d="m44.159402 288.8827 1.058333.52917 1.058333-.52917-1.058333-.52917z" fill="#f7fdfd"/>
      <path d="m43.101069 286.23687 1.058333.52917 1.058333-.52917-1.058333-.52917z" fill="#f1f2e0"/>
      <path d="m43.101068 285.17854 1.058333.52917 1.058333-.52917-1.058333-.52917z" fill="#f7fdfd"/>
      <path d="m46.276068 284.64938 1.058333.52917 1.058333-.52917-1.058333-.52917z" fill="#f1f2e0"/>
      <path d="m45.217735 286.23688 1.058333.52917 1.058333-.52917-1.058333-.52917z" fill="#f7fdfd"/>
      <path d="m44.159402 284.64937 1.058333.52917 1.058333-.52917-1.058333-.52917z" fill="#f1f2e0"/>
      <path d="m43.101068 287.2952 1.058333.52917 1.058333-.52917-1.058333-.52917z" fill="#f1f2e0"/>
      <path d="m44.159402 287.82438 1.058333.52917 1.058333-.52917-1.058333-.52917z" fill="#f7fdfd"/>
      <path d="m48.392735 286.76604 1.058333.52917 1.058333-.52917-1.058333-.52917z" fill="#f7fdfd"/>
      <path d="m48.392735 287.82438 1.058333.52917 1.058333-.52917-1.058333-.52917z" fill="#f1f2e0"/>
      <path d="m46.276068 286.76604 1.058333.52917 1.058333-.52917-1.058333-.52917z" fill="#f1f2e0"/>
      <path d="m47.334402 285.17854 2.116667 1.05833 1.058333-.52917-2.116667-1.05833z" fill="#f7fdfd"/>
    </g>
  </g>
</svg>
