<svg width="16" height="16" viewBox="0 0 16 16" fill="none" xmlns="http://www.w3.org/2000/svg">
<mask id="mask0_53_1126" style="mask-type:alpha" maskUnits="userSpaceOnUse" x="0" y="0" width="16" height="16">
<rect width="16" height="16" rx="3" fill="#D9AA81"/>
</mask>
<g mask="url(#mask0_53_1126)">
<rect width="16" height="16" rx="3" fill="url(#paint0_linear_53_1126)"/>
<rect y="6" width="14" height="2" fill="#917347"/>
<rect y="14" width="14" height="2" fill="#917347"/>
<rect x="6" y="6" width="2" height="4" fill="#2E1C12"/>
<rect x="10" y="6" width="2" height="4" fill="#2E1C12"/>
<rect x="12" y="2" width="2" height="2" fill="#1E160A"/>
<rect x="10" width="2" height="2" fill="#1E160A"/>
<rect x="12" width="2" height="2" fill="#77533E"/>
<path d="M8 10H10V12H12V14H10V12H8V14H6V12H8V10Z" fill="#CBCBCB"/>
<rect x="14" width="2" height="4" fill="#53251B"/>
<rect x="14" y="4" width="2" height="12" fill="#1E160A"/>
<rect x="6" y="14" width="2" height="2" fill="#9A9A9A"/>
<rect x="10" y="14" width="2" height="2" fill="#9A9A9A"/>
</g>
<defs>
<linearGradient id="paint0_linear_53_1126" x1="8" y1="0" x2="8" y2="16" gradientUnits="userSpaceOnUse">
<stop stop-color="#AD9064"/>
<stop offset="1" stop-color="#AA8958"/>
</linearGradient>
</defs>
</svg>
