<svg height="24" viewBox="0 0 24 24" width="24" xmlns="http://www.w3.org/2000/svg" xmlns:xlink="http://www.w3.org/1999/xlink">
  <linearGradient id="a" gradientUnits="userSpaceOnUse" x1="86.052681" x2="86" y1="26.999552" y2="5">
    <stop offset=".23078403" stop-color="#d0d0d0"/>
    <stop offset=".83153141" stop-color="#eee"/>
  </linearGradient>
  <linearGradient id="b" gradientUnits="userSpaceOnUse" x1="80" x2="80" y1="31" y2="21">
    <stop offset="0" stop-color="#a63649"/>
    <stop offset=".52521378" stop-color="#df6277"/>
    <stop offset="1" stop-color="#a63649"/>
  </linearGradient>
  <linearGradient id="c" gradientUnits="userSpaceOnUse" x1="77" x2="77" y1="17" y2="14">
    <stop offset="0" stop-color="#261a0a"/>
    <stop offset="1" stop-color="#3c2b13"/>
  </linearGradient>
  <linearGradient id="d" gradientUnits="userSpaceOnUse" x1="88" x2="88" y1="24" y2="18">
    <stop offset="0" stop-color="#fb9168"/>
    <stop offset="1" stop-color="#f3db6c"/>
  </linearGradient>
  <title>Prism Launcher Logo</title>
  <metadata/>
  <g transform="translate(-68 -4)">
    <rect fill="url(#a)" height="20" ry="3" stroke-width=".277182" width="16" x="72" y="6"/>
    <rect fill="url(#b)" height="6" ry="1" stroke-width=".264583" width="6" x="77" y="21"/>
    <g id="e" fill="url(#c)" transform="translate(1 1)">
      <path d="m73 12c-.553999 0-1 .446001-1 1v3c0 .553999.446001 1 1 1h3c.553999 0 1-.446001 1-1v-2h-2v-2z" fill="url(#c)" stroke-width=".170787"/>
      <path d="m75 12v2h2v-1c0-.553999-.446001-1-1-1z" fill="#fff"/>
    </g>
    <rect fill="none" height="24" width="24" x="68" y="4"/>
    <use transform="translate(9)" xlink:href="#e"/>
    <rect fill="url(#d)" height="5" ry="1" stroke-width=".264583" width="18" x="71" y="17"/>
  </g>
</svg>
