<?xml version="1.0" encoding="UTF-8" standalone="no"?>
<!-- Created with Inkscape (http://www.inkscape.org/) -->

<svg
   width="24"
   height="24"
   version="1.1"
   viewBox="0 0 24 24"
   id="svg168"
   xml:space="preserve"
   xmlns:xlink="http://www.w3.org/1999/xlink"
   xmlns="http://www.w3.org/2000/svg"
   xmlns:svg="http://www.w3.org/2000/svg"
   xmlns:rdf="http://www.w3.org/1999/02/22-rdf-syntax-ns#"
   xmlns:cc="http://creativecommons.org/ns#"
   xmlns:dc="http://purl.org/dc/elements/1.1/"><defs
     id="defs172"><linearGradient
       id="linearGradient53203"><stop
         style="stop-color:#77563b;stop-opacity:1;"
         offset="0"
         id="stop53199" /><stop
         style="stop-color:#86674f;stop-opacity:1;"
         offset="1"
         id="stop53201" /></linearGradient><linearGradient
       xlink:href="#linearGradient53203"
       id="linearGradient39079"
       gradientUnits="userSpaceOnUse"
       x1="785"
       y1="26"
       x2="785"
       y2="6" /></defs><title
     id="title132">Prism Launcher Logo</title><metadata
     id="metadata166"><rdf:RDF><cc:Work
         rdf:about=""><dc:title>Prism Launcher Logo</dc:title><dc:date>19/10/2022</dc:date><dc:creator><cc:Agent><dc:title>Prism Launcher</dc:title></cc:Agent></dc:creator><dc:contributor><cc:Agent><dc:title>AutiOne, Boba, ely, Fulmine, gon sawa, Pankakes, tobimori, Zeke</dc:title></cc:Agent></dc:contributor><dc:source>https://github.com/PrismLauncher/PrismLauncher</dc:source><dc:rights><cc:Agent><dc:title>CC BY-SA 4.0</dc:title></cc:Agent></dc:rights><dc:publisher><cc:Agent><dc:title>Prism Launcher</dc:title></cc:Agent></dc:publisher></cc:Work></rdf:RDF></metadata><g
     id="i_dirt"
     transform="translate(-772,-4)"><rect
       style="fill:url(#linearGradient39079);fill-opacity:1;stroke-linecap:square;stroke-linejoin:bevel;paint-order:stroke markers fill;stop-color:#000000"
       id="rect15088-9-1"
       width="20"
       height="20"
       x="774"
       y="6"
       ry="3" /><rect
       style="fill:#ffffff;fill-opacity:0;stroke:none;stroke-width:0.264583;paint-order:stroke markers fill;stop-color:#000000"
       id="rect128412-4-1-0"
       width="24"
       height="24"
       x="772"
       y="4" /><path
       id="rect48773"
       style="opacity:0.268946;fill:#a88356;fill-opacity:1;stroke-linecap:square;stroke-linejoin:bevel;paint-order:stroke markers fill;stop-color:#000000"
       d="M 776.13672,8 C 776.05936,8.00781 776,8.07286 776,8.15234 V 9.84766 C 776,9.93244 776.06756,10 776.15234,10 h 1.69532 C 777.93244,10 778,9.93244 778,9.84766 V 8.15234 C 778,8.06756 777.93244,8 777.84766,8 h -1.69532 c -0.005,0 -0.0105,-5.2e-4 -0.0156,0 z m 10,2 C 786.05936,10.00781 786,10.07286 786,10.15234 v 1.69532 C 786,11.93244 786.06756,12 786.15234,12 h 1.69532 C 787.93244,12 788,11.93244 788,11.84766 V 10.15234 C 788,10.06756 787.93244,10 787.84766,10 h -1.69532 c -0.005,0 -0.0105,-5.2e-4 -0.0156,0 z m -8,4 C 778.05936,14.00781 778,14.07286 778,14.15234 v 1.69532 C 778,15.93244 778.06756,16 778.15234,16 h 1.69532 C 779.93244,16 780,15.93244 780,15.84766 V 14.15234 C 780,14.06756 779.93244,14 779.84766,14 h -1.69532 c -0.005,0 -0.0105,-5.2e-4 -0.0156,0 z m 13,2 C 791.05936,16.00781 791,16.07286 791,16.15234 v 1.69532 C 791,17.93244 791.06756,18 791.15234,18 h 1.69532 C 792.93244,18 793,17.93244 793,17.84766 V 16.15234 C 793,16.06756 792.93244,16 792.84766,16 h -1.69532 c -0.005,0 -0.0105,-5.2e-4 -0.0156,0 z m -7,2 C 784.05936,18.00781 784,18.07286 784,18.15234 v 1.69532 C 784,19.93244 784.06756,20 784.15234,20 h 1.69532 C 785.93244,20 786,19.93244 786,19.84766 V 18.15234 C 786,18.06756 785.93244,18 785.84766,18 h -1.69532 c -0.005,0 -0.0105,-5.2e-4 -0.0156,0 z m -9,2 C 775.05936,20.00781 775,20.07286 775,20.15234 v 1.69532 C 775,21.93244 775.06756,22 775.15234,22 h 1.69532 C 776.93244,22 777,21.93244 777,21.84766 V 20.15234 C 777,20.06756 776.93244,20 776.84766,20 h -1.69532 c -0.005,0 -0.0105,-5.2e-4 -0.0156,0 z m 15,2 C 790.05936,22.00781 790,22.07286 790,22.15234 v 1.69532 C 790,23.93244 790.06756,24 790.15234,24 h 1.69532 C 791.93244,24 792,23.93244 792,23.84766 V 22.15234 C 792,22.06756 791.93244,22 791.84766,22 h -1.69532 c -0.005,0 -0.0105,-5.2e-4 -0.0156,0 z m -9,2 C 781.05936,24.00781 781,24.07286 781,24.15234 v 1.69532 C 781,25.93244 781.06756,26 781.15234,26 h 1.69532 C 782.93244,26 783,25.93244 783,25.84766 V 24.15234 C 783,24.06756 782.93244,24 782.84766,24 h -1.69532 c -0.005,0 -0.0105,-5.2e-4 -0.0156,0 z" /></g></svg>
