<svg height="24" viewBox="0 0 24 24" width="24" xmlns="http://www.w3.org/2000/svg" xmlns:xlink="http://www.w3.org/1999/xlink">
  <linearGradient id="a" gradientUnits="userSpaceOnUse" x1="785" x2="785" y1="26" y2="6">
    <stop offset="0" stop-color="#77563b"/>
    <stop offset="1" stop-color="#86674f"/>
  </linearGradient>
  <title>Prism Launcher Logo</title>
  <metadata/>
  <g transform="translate(-772 -4)">
    <rect fill="url(#a)" height="20" ry="3" stroke-linecap="square" stroke-linejoin="bevel" width="20" x="774" y="6"/>
    <rect fill="none" height="24" width="24" x="772" y="4"/>
    <path d="m776.13672 8c-.07736.00781-.13672.07286-.13672.15234v1.69532c0 .08478.06756.15234.15234.15234h1.69532c.08478 0 .15234-.06756.15234-.15234v-1.69532c0-.08478-.06756-.15234-.15234-.15234h-1.69532c-.005 0-.0105-.00052-.0156 0zm10 2c-.07736.00781-.13672.07286-.13672.15234v1.69532c0 .08478.06756.15234.15234.15234h1.69532c.08478 0 .15234-.06756.15234-.15234v-1.69532c0-.08478-.06756-.15234-.15234-.15234h-1.69532c-.005 0-.0105-.00052-.0156 0zm-8 4c-.07736.00781-.13672.07286-.13672.15234v1.69532c0 .08478.06756.15234.15234.15234h1.69532c.08478 0 .15234-.06756.15234-.15234v-1.69532c0-.08478-.06756-.15234-.15234-.15234h-1.69532c-.005 0-.0105-.00052-.0156 0zm13 2c-.07736.00781-.13672.07286-.13672.15234v1.69532c0 .08478.06756.15234.15234.15234h1.69532c.08478 0 .15234-.06756.15234-.15234v-1.69532c0-.08478-.06756-.15234-.15234-.15234h-1.69532c-.005 0-.0105-.00052-.0156 0zm-7 2c-.07736.00781-.13672.07286-.13672.15234v1.69532c0 .08478.06756.15234.15234.15234h1.69532c.08478 0 .15234-.06756.15234-.15234v-1.69532c0-.08478-.06756-.15234-.15234-.15234h-1.69532c-.005 0-.0105-.00052-.0156 0zm-9 2c-.07736.00781-.13672.07286-.13672.15234v1.69532c0 .08478.06756.15234.15234.15234h1.69532c.08478 0 .15234-.06756.15234-.15234v-1.69532c0-.08478-.06756-.15234-.15234-.15234h-1.69532c-.005 0-.0105-.00052-.0156 0zm15 2c-.07736.00781-.13672.07286-.13672.15234v1.69532c0 .08478.06756.15234.15234.15234h1.69532c.08478 0 .15234-.06756.15234-.15234v-1.69532c0-.08478-.06756-.15234-.15234-.15234h-1.69532c-.005 0-.0105-.00052-.0156 0zm-9 2c-.07736.00781-.13672.07286-.13672.15234v1.69532c0 .08478.06756.15234.15234.15234h1.69532c.08478 0 .15234-.06756.15234-.15234v-1.69532c0-.08478-.06756-.15234-.15234-.15234h-1.69532c-.005 0-.0105-.00052-.0156 0z" fill="#a88356" opacity=".268946" stroke-linecap="square" stroke-linejoin="bevel"/>
  </g>
</svg>
