<svg height="24" viewBox="0 0 24 24" width="24" xmlns="http://www.w3.org/2000/svg" xmlns:xlink="http://www.w3.org/1999/xlink">
  <radialGradient id="a" cx="272" cy="16" gradientUnits="userSpaceOnUse" r="9">
    <stop offset=".47770822" stop-color="#62b397"/>
    <stop offset="1" stop-color="#3a7a81"/>
  </radialGradient>
  <radialGradient id="b" cx="272" cy="16" gradientUnits="userSpaceOnUse" r="6">
    <stop offset=".16041158" stop-color="#27414e"/>
    <stop offset=".50162286" stop-color="#27414e" stop-opacity=".74902"/>
    <stop offset="1" stop-color="#27414e" stop-opacity="0"/>
  </radialGradient>
  <radialGradient id="c" cx="272" cy="16" gradientUnits="userSpaceOnUse" r="9">
    <stop offset=".39989081" stop-color="#fff" stop-opacity="0"/>
    <stop offset="1" stop-color="#fff"/>
  </radialGradient>
  <title>Prism Launcher Logo</title>
  <metadata/>
  <g transform="translate(-260 -4)">
    <circle cx="272" cy="16" fill="url(#a)" r="9" stroke-width=".264583"/>
    <path d="m272 9.0000001c-3.866 0-7 3.1340069-7 6.9999999s3.134 7 7 7c3.86599 0 7-3.134007 7-7s-3.13401-6.9999999-7-6.9999999z" fill="#62b397" stroke-width=".220486"/>
    <circle cx="272" cy="16" fill="url(#b)" r="6" stroke-width=".187412"/>
    <path d="m272 9c-3.86599 0-7 3.134011-7 7h2c0-2.761421 2.23858-5 5-5z" fill="url(#c)" stroke-width=".220486"/>
    <rect fill="none" height="24" width="24" x="260" y="4"/>
  </g>
</svg>
