<?xml version="1.0" encoding="UTF-8" standalone="no"?>
<!-- Created with Inkscape (http://www.inkscape.org/) -->

<svg
   width="128"
   height="128"
   version="1.1"
   viewBox="0 0 33.867 33.867"
   xml:space="preserve"
   id="svg252"
   sodipodi:docname="fabricmc.svg"
   inkscape:version="1.2.2 (b0a8486541, 2022-12-01)"
   xmlns:inkscape="http://www.inkscape.org/namespaces/inkscape"
   xmlns:sodipodi="http://sodipodi.sourceforge.net/DTD/sodipodi-0.dtd"
   xmlns="http://www.w3.org/2000/svg"
   xmlns:svg="http://www.w3.org/2000/svg"><defs
     id="defs256" /><sodipodi:namedview
     id="namedview254"
     pagecolor="#ffffff"
     bordercolor="#000000"
     borderopacity="0.25"
     inkscape:showpageshadow="2"
     inkscape:pageopacity="0.0"
     inkscape:pagecheckerboard="0"
     inkscape:deskcolor="#d1d1d1"
     showgrid="false"
     inkscape:zoom="2.8284271"
     inkscape:cx="39.421203"
     inkscape:cy="132.22897"
     inkscape:window-width="2560"
     inkscape:window-height="1386"
     inkscape:window-x="0"
     inkscape:window-y="0"
     inkscape:window-maximized="1"
     inkscape:current-layer="g2166" /><g
     id="g2166"><path
       style="fill:#38342a;fill-opacity:1;stroke-width:0;stroke-linejoin:round"
       d="m 16.9336,2.1165994 c 0.705567,0 1.411134,0 2.116701,0 0,0.7055667 0,1.4111333 0,2.1167 0.705566,0 1.411132,0 2.116698,0 0,0.7055665 0,1.4111331 0,2.1166996 0.705567,0 1.411134,0 2.116701,0 0,0.7055667 0,1.4111333 0,2.1167 0.705567,0 1.411133,0 2.1167,0 0,0.705567 0,1.411134 0,2.116701 0.705567,0 1.411133,0 2.1167,0 0,0.705567 0,1.411133 0,2.1167 0.705567,0 1.411133,0 2.1167,0 0,1.4111 0,2.8222 0,4.2333 -0.7056,-3.3e-5 -1.4112,-6.7e-5 -2.1168,-10e-5 0,0.705567 0,1.411133 0,2.1167 -1.4111,0 -2.8222,0 -4.2333,0 0,0.705567 0,1.411133 0,2.1167 -0.705567,0 -1.411134,0 -2.116701,0 0,0.705567 0,1.411133 0,2.1167 -0.705566,0 -1.411132,0 -2.116698,0 0,0.705567 0,1.411134 0,2.116701 -0.705567,0 -1.411134,0 -2.116701,0 -3.4e-5,1.411133 -6.7e-5,2.822266 -1.01e-4,4.233399 -0.705567,0 -1.411133,0 -2.1167,0 0,0.705567 0,1.411134 0,2.116701 -1.4111,0 -2.822199,0 -4.233299,0 3.4e-5,-0.705567 6.7e-5,-1.411134 1.01e-4,-2.116701 -0.705567,0 -1.411134,0 -2.116701,0 0,-0.705567 0,-1.411134 0,-2.116701 -0.705567,0 -1.411134,0 -2.116701,0 0,-0.705566 0,-1.411132 0,-2.116698 -0.705567,0 -1.411134,0 -2.116701,0 0,-0.705567 0,-1.411134 0,-2.116701 -0.705566,0 -1.411132,0 -2.116698,0 0,-1.4111 0,-2.8222 0,-4.2333 0.705566,0 1.411132,0 2.116698,0 0,-0.705567 0,-1.411133 0,-2.1167 0.705567,0 1.411134,0 2.116701,0 0,-0.705567 0,-1.411133 0,-2.1167 0.705567,0 1.411134,0 2.116701,0 0,-0.705567 0,-1.411133 0,-2.1167 0.705567,0 1.411134,0 2.116701,0 0,-0.705567 0,-1.411133 0,-2.1167 0.705566,0 1.411132,0 2.116698,0 0,-0.705567 0,-1.411134 0,-2.116701 0.705567,0 1.411134,0 2.116701,0 -3.4e-5,-1.4110999 -6.7e-5,-2.8221997 -1.01e-4,-4.2332996 0.705567,0 1.411134,0 2.116701,0 0,-0.7055667 0,-1.4111333 0,-2.1167 z"
       id="path1587-0" /><rect
       x="25.400299"
       y="14.8166"
       width="2.1166999"
       height="2.1166999"
       fill="#807a6d"
       id="rect246-7"
       style="stroke-width:0" /><path
       id="path1670"
       style="fill:#dbd0b4;fill-opacity:1;stroke-width:0;stroke-linejoin:round"
       d="m 4.233501,21.166701 2.1167,-2.117 6.09e-4,-2.1165 2.1161,-10e-5 6.09e-4,-2.1166 2.116099,-10e-5 6.09e-4,-2.1166 h 2.115899 l 2.1168,-2.117 6.72e-4,-2.1164 2.1159,-10e-5 v 2.1167 l 2.1171,10e-5 -3.97e-4,2.1166 2.1171,1e-4 v 2.1167 l 2.1167,2.11665 -11.642055,11.642008"
       sodipodi:nodetypes="cccccccccccccccccc" /><path
       style="fill:#dbd0b4;fill-opacity:1;stroke-width:0;stroke-linejoin:round"
       d="m 16.9336,4.2332985 c 0.705333,-6.65e-5 1.410667,-1.329e-4 2.116,-1.994e-4 0,0.7055666 0,1.4111333 0,2.1166999 0.7058,6.67e-5 1.411599,1.333e-4 2.117399,2e-4 -2.29e-4,0.7055 -4.59e-4,1.411 -6.88e-4,2.1165 0.7058,6.63e-5 1.4116,1.327e-4 2.1174,1.99e-4 -2.29e-4,0.7055003 -4.59e-4,1.4110007 -6.88e-4,2.116501 0.705567,0 1.411133,0 2.1167,0 -0.0492,0.747877 0.09844,1.542199 -0.07194,2.26148 -0.32867,0.65734 -0.65734,1.31468 -0.98601,1.97202 -0.429296,-0.748959 -0.696496,-1.614758 -1.230307,-2.288382 -2.059217,-2.059636 -4.118734,-4.1189729 -6.178143,-6.178418 9.3e-5,-0.7055335 1.87e-4,-1.411067 2.8e-4,-2.1166005 z"
       id="path2115" /><path
       d="m 12.700401,25.400025 h 2.1167 v 2.1167 h -2.1167 z m 2.1167,-4.2333 v 4.2333 h 2.1167 v -2.1167 h 2.1167 v -2.1167 c -1.411133,-1.9e-5 -2.822267,1.4e-5 -4.2334,10e-5 z m 6.35,-6.35 v 2.1167 h -2.1167 v 4.2333 h 2.1167 v -2.1167 h 2.1167 v -4.2333 z m 2.1167,-2.1167 h 2.1167 v 2.1167 h -2.1167 z m -2.1167,-2.1167 h 2.1167 v 2.1167 h -2.1167 z m -2.1167,-2.1167 h 2.1167 v 2.1167 h -2.1167 z m -2.1167,-2.1167 h 2.1167 v 2.1167 h -2.1167 z"
       fill="#bcb29c"
       id="path238-2"
       style="stroke-width:0"
       sodipodi:nodetypes="ccccccccccccccccccccccccccccccccccccccccc" /><path
       d="m 10.583601,27.516801 c 0.705567,0 1.411133,0 2.1167,0 0,0.705567 0,1.411133 0,2.1167 -0.705567,0 -1.411133,0 -2.1167,0 0,-0.705567 0,-1.411133 0,-2.1167 z m -2.1167,-2.1167 c 0.7055667,0 1.4111333,0 2.1167,0 0,0.705567 0,1.411133 0,2.1167 -0.7055667,0 -1.4111333,0 -2.1167,0 0,-0.705567 0,-1.411133 0,-2.1167 z m -2.1167,-2.1167 c 0.7055667,0 1.4111333,0 2.1167,0 0,0.705567 0,1.411133 0,2.1167 -0.7055667,0 -1.4111333,0 -2.1167,0 0,-0.705567 0,-1.411133 0,-2.1167 z m -2.1167,-2.1167 c 0.7055667,0 1.4111333,0 2.1167,0 0,0.705567 0,1.411133 0,2.1167 -0.7055667,0 -1.4111333,0 -2.1167,0 0,-0.705567 0,-1.411133 0,-2.1167 z"
       fill="#9a927e"
       id="path240-6"
       style="stroke-width:0" /><path
       d="m 10.583701,25.400025 c 0.705567,0 1.411133,0 2.1167,0 0,0.705567 0,1.411133 0,2.1167 -0.705567,0 -1.411133,0 -2.1167,0 0,-0.705567 0,-1.411133 0,-2.1167 z m -2.1167,-2.1167 c 0.7055667,0 1.4111333,0 2.1167,0 0,0.705567 0,1.411133 0,2.1167 -0.7055667,0 -1.4111333,0 -2.1167,0 0,-0.705567 0,-1.411133 0,-2.1167 z m -2.1167,-2.1167 c 0.7055667,0 1.4111333,0 2.1167,0 0,0.705567 0,1.411133 0,2.1167 -0.7055667,0 -1.4111333,0 -2.1167,0 0,-0.705567 0,-1.411133 0,-2.1167 z m -2.1167,-2.1167 c 0.7055667,0 1.4111333,0 2.1167,0 0,0.705567 0,1.411133 0,2.1167 -0.7055667,0 -1.4111333,0 -2.1167,0 0,-0.705567 0,-1.411133 0,-2.1167 z"
       fill="#aea694"
       id="path244-1"
       style="stroke-width:0" /><path
       d="m 10.583751,16.933325 h 2.1167 v 2.1167 h -2.1167 z m 2.1167,2.1167 v 2.1167 h 4.2333 v -2.1167 z m 4.2333,-4.2333 v 2.1167 h 4.2333 v -2.1167 z m -2.1167,-2.1167 h 2.1167 v 2.1167 h -2.1167 z m -2.1167,-2.1167 h 2.1167 v 2.1167 h -2.1167 z"
       fill="#c6bca5"
       id="path248-8"
       style="stroke-width:0"
       sodipodi:nodetypes="ccccccccccccccccccccccccc" /></g></svg>
