<svg height="24" viewBox="0 0 24 24" width="24" xmlns="http://www.w3.org/2000/svg" xmlns:xlink="http://www.w3.org/1999/xlink">
  <linearGradient id="a" gradientUnits="userSpaceOnUse" x1="299" x2="299" y1="24" y2="8">
    <stop offset="0" stop-color="#d63954"/>
    <stop offset="1" stop-color="#e6812b"/>
  </linearGradient>
  <title>Prism Launcher Logo</title>
  <metadata/>
  <g transform="translate(-292 -4)">
    <path d="m299 9c-1.10457 0-2 .895431-2 2h-1-4c0 2.209137 1.79086 4 4 4h2v1c0 1.656852 1.34315 3 3 3v1c-1.10457 0-2 .895438-2 2v2h11v-2c0-1.104562-.89543-2-2-2v-1c1.10457 0 2-1.053227 2-2 0-3.313684 2.68629-6 6-6v-2z" fill="url(#a)"/>
    <rect fill="none" height="24" width="24" x="292" y="4"/>
    <path d="m305.94922 10c-1.08071.02738-1.94922.912691-1.94922 2v1a1 1 0 0 1 -1-1v2c0 .552284.44772 1 1 1 0 .552284-.44772 1-1 1s-1-.447716-1-1c-.55228 0-1 .447716-1 1 0 1.104568.89543 2 2 2 .55228 0 1 .447716 1 1 0-.552284.44772-1 1-1h1c.55228 0 1-.447716 1-1v-1c0 .552284-.44772 1-1 1s-1-.447716-1-1c.55228 0 1-.447716 1-1v-1c0-.552284-.44772-1-1-1v-1c0-1.087309.86851-1.97262 1.94922-2h-.94922c-.0173 0-.0336-.000435-.0508 0z" fill="#fff"/>
  </g>
</svg>
