<?xml version="1.0" encoding="UTF-8" standalone="no"?>
<svg
   xml:space="preserve"
   width="24"
   height="24"
   viewBox="164.072 372.466 24 24"
   version="1.1"
   id="svg132"
   sodipodi:docname="forge.svg"
   inkscape:version="1.2.2 (b0a8486541, 2022-12-01)"
   xmlns:inkscape="http://www.inkscape.org/namespaces/inkscape"
   xmlns:sodipodi="http://sodipodi.sourceforge.net/DTD/sodipodi-0.dtd"
   xmlns="http://www.w3.org/2000/svg"
   xmlns:svg="http://www.w3.org/2000/svg"><defs
     id="defs136" /><sodipodi:namedview
     id="namedview134"
     pagecolor="#ffffff"
     bordercolor="#000000"
     borderopacity="0.25"
     inkscape:showpageshadow="2"
     inkscape:pageopacity="0.0"
     inkscape:pagecheckerboard="0"
     inkscape:deskcolor="#d1d1d1"
     showgrid="false"
     inkscape:zoom="16"
     inkscape:cx="24.28125"
     inkscape:cy="4.9375"
     inkscape:window-width="1920"
     inkscape:window-height="1011"
     inkscape:window-x="0"
     inkscape:window-y="32"
     inkscape:window-maximized="1"
     inkscape:current-layer="svg132" /><rect
     style="fill:#1d2d41;fill-opacity:1;stroke-width:1.02136"
     id="rect7386"
     width="24"
     height="24"
     x="164.07201"
     y="372.466" /><path
     fill="#1e2d41"
     d="m 183.16438,381.24198 -8.60519,-0.42066 10.51249,-0.008 V 379.966 h -11.85315 v 3.18329 c 0,0.0266 -0.34666,-2.07997 -0.42599,-2.66864 h -0.93198 v 2.96329 c 0,0.028 -0.39866,-2.47596 -0.44066,-2.78929 h -6.3479 c 0.43266,0.37466 2.81996,2.40997 4.51726,3.24729 0.85065,0.41999 1.89464,0.42332 2.8233,0.44933 0.47199,0.0134 0.96665,0.0493 1.31997,0.39866 0.51266,0.50865 0.62665,1.29731 0.18466,1.89396 -0.43732,0.59 -1.66797,0.718 -1.66797,0.718 l -1.02531,1.25798 v 1.46063 h 2.3313 l 0.072,-1.44329 2.01597,-1.42932 c -0.21534,0.17199 -0.69533,0.63332 -1.41664,1.7433 a 3.9826047,3.9826047 0 0 0 -0.38934,0.79333 c 0.50933,-0.43134 1.55531,-0.72667 2.76396,-0.72667 1.20665,0 2.25196,0.29467 2.76195,0.72533 a 3.9752715,3.9752715 0 0 0 -0.38866,-0.79199 c -0.72132,-1.11064 -1.20131,-1.57131 -1.41664,-1.7433 l 2.01597,1.42932 0.0727,1.44329 h 2.17462 v -1.45997 l -1.02464,-1.25864 c 0,0 -1.51798,-0.0967 -1.9153,-0.71733 -1.14466,-1.7893 0.48066,-4.5666 4.28327,-5.40258 z"
     style="fill:#ffffff;stroke-width:0.227407"
     id="path130" /></svg>
