<svg height="24" viewBox="0 0 24 24" width="24" xmlns="http://www.w3.org/2000/svg" xmlns:xlink="http://www.w3.org/1999/xlink">
  <linearGradient id="a">
    <stop offset="0" stop-color="#c1c1c1"/>
    <stop offset="1" stop-color="#dfdfdf"/>
  </linearGradient>
  <linearGradient id="b" gradientUnits="userSpaceOnUse" x1="183" x2="183" xlink:href="#a" y1="11" y2="7"/>
  <linearGradient id="c" gradientUnits="userSpaceOnUse" x1="171" x2="171" xlink:href="#a" y1="11" y2="7"/>
  <linearGradient id="d" gradientUnits="userSpaceOnUse" x1="168.999999" x2="168.999999" y1="26" y2="10">
    <stop offset="0" stop-color="#fb6a32"/>
    <stop offset="1" stop-color="#fb9168"/>
  </linearGradient>
  <linearGradient id="e" gradientUnits="userSpaceOnUse" x1="165.999999" x2="185.999999" y1="26" y2="26">
    <stop offset="0" stop-color="#d6d2d2"/>
    <stop offset=".49945405" stop-color="#aca7a7"/>
    <stop offset=".9989081" stop-color="#d6d2d2"/>
  </linearGradient>
  <clipPath id="f">
    <rect height="5.000001" ry="1" width="10.000002" x="183.38519" y="17.999998"/>
  </clipPath>
  <linearGradient id="g" gradientUnits="userSpaceOnUse" x1="192.38519" x2="192.38519" y1="22.999998" y2="17.999998">
    <stop offset="0" stop-color="#dfdfdf"/>
    <stop offset="1" stop-color="#f3f3f3"/>
  </linearGradient>
  <title>Prism Launcher Logo</title>
  <metadata/>
  <g transform="translate(-164 -4)">
    <path d="m180 7v2 1 1c0 1.107999.892 2 2 2h2c1.108 0 2-.892001 2-2v-2c0-1.1079989-.892-2-2-2h-1-1z" fill="url(#b)" stroke-width=".264583"/>
    <path d="m172 7v2 1 1c0 1.107999-.892 2-2 2h-2c-1.108 0-2-.892001-2-2v-2c0-1.1079989.892-2 2-2h1 1z" fill="url(#c)" stroke-width=".264583"/>
    <rect fill="url(#d)" height="16" ry="3" stroke-width=".271456" width="19.999996" x="166" y="10"/>
    <path d="m167 24c-.27416 0-.53402.05531-.77148.154297.45054 1.085673 1.51906 1.845703 2.77148 1.845703h14c1.25242 0 2.32094-.76003 2.77148-1.845703-.23746-.098983-.49732-.154297-.77148-.154297z" fill="url(#e)" stroke-width=".258767"/>
    <g clip-path="url(#f)" stroke-width=".264583" transform="translate(-12.385191 4.000002)">
      <rect fill="url(#g)" height="5.000001" width="10.000002" x="183.38519" y="17.999998"/>
      <rect fill="#4d3f33" height="3" ry="1" width="6" x="185.38519" y="16.999998"/>
    </g>
    <g id="h" transform="matrix(-1 0 0 1 352.38519 4.000002)">
      <path d="m184.38519 13.999998c.554 0 1 .446 1 1v1c0 .553999-.446 1-1 1h-2v-3z" fill="#e9ecec" stroke-width=".264583"/>
      <path d="m180.38519 13.999998c-.554 0-1 .446-1 1v1c0 .553999.446 1 1 1h2v-3z" fill="#141519" stroke-width=".264583"/>
    </g>
    <use transform="matrix(-1 0 0 1 352 0)" xlink:href="#h"/>
    <rect fill="none" height="24" width="24" x="164" y="4"/>
  </g>
</svg>
