<?xml version="1.0" encoding="UTF-8" standalone="no"?>
<!-- Created with Inkscape (http://www.inkscape.org/) -->

<svg
   width="24"
   height="24"
   version="1.1"
   viewBox="0 0 24 24"
   id="svg168"
   xml:space="preserve"
   xmlns:xlink="http://www.w3.org/1999/xlink"
   xmlns="http://www.w3.org/2000/svg"
   xmlns:svg="http://www.w3.org/2000/svg"
   xmlns:rdf="http://www.w3.org/1999/02/22-rdf-syntax-ns#"
   xmlns:cc="http://creativecommons.org/ns#"
   xmlns:dc="http://purl.org/dc/elements/1.1/"><defs
     id="defs172"><linearGradient
       id="linearGradient288023"><stop
         style="stop-color:#c1c1c1;stop-opacity:1;"
         offset="0"
         id="stop288019" /><stop
         style="stop-color:#dfdfdf;stop-opacity:1;"
         offset="1"
         id="stop288021" /></linearGradient><linearGradient
       xlink:href="#linearGradient288023"
       id="linearGradient288033"
       x1="183"
       y1="11"
       x2="183"
       y2="7"
       gradientUnits="userSpaceOnUse" /><linearGradient
       xlink:href="#linearGradient288023"
       id="linearGradient288025"
       x1="171"
       y1="11"
       x2="171"
       y2="7"
       gradientUnits="userSpaceOnUse" /><linearGradient
       xlink:href="#linearGradient287141"
       id="linearGradient287143"
       x1="181.38519"
       y1="21.999998"
       x2="181.38519"
       y2="5.9999976"
       gradientUnits="userSpaceOnUse"
       gradientTransform="translate(-12.385191,4.0000023)" /><linearGradient
       id="linearGradient287141"><stop
         style="stop-color:#fb6a32;stop-opacity:1;"
         offset="0"
         id="stop287137" /><stop
         style="stop-color:#fb9168;stop-opacity:1;"
         offset="1"
         id="stop287139" /></linearGradient><linearGradient
       xlink:href="#linearGradient287169"
       id="linearGradient287171"
       x1="178.38519"
       y1="21.999998"
       x2="198.38519"
       y2="21.999998"
       gradientUnits="userSpaceOnUse"
       gradientTransform="translate(-12.385191,4.0000023)" /><linearGradient
       id="linearGradient287169"><stop
         style="stop-color:#d6d2d2;stop-opacity:1;"
         offset="0"
         id="stop287165" /><stop
         style="stop-color:#aca7a7;stop-opacity:1;"
         offset="0.49945405"
         id="stop287173" /><stop
         style="stop-color:#d6d2d2;stop-opacity:1;"
         offset="0.9989081"
         id="stop287167" /></linearGradient><clipPath
       clipPathUnits="userSpaceOnUse"
       id="clipPath51465-6-2-8-5-5-4-9-7"><rect
         style="fill:#dfdfdf;fill-opacity:1;stroke-width:0.264583;paint-order:stroke markers fill;stop-color:#000000"
         id="rect51467-3-9-5-9-9-2-3-5"
         width="10.000002"
         height="5.0000005"
         x="183.38519"
         y="17.999998"
         ry="0.99999958" /></clipPath><linearGradient
       xlink:href="#linearGradient287187"
       id="linearGradient287189"
       x1="192.38519"
       y1="22.999998"
       x2="192.38519"
       y2="17.999998"
       gradientUnits="userSpaceOnUse" /><linearGradient
       id="linearGradient287187"><stop
         style="stop-color:#dfdfdf;stop-opacity:1;"
         offset="0"
         id="stop287183" /><stop
         style="stop-color:#f3f3f3;stop-opacity:1;"
         offset="1"
         id="stop287185" /></linearGradient></defs><title
     id="title132">Prism Launcher Logo</title><metadata
     id="metadata166"><rdf:RDF><cc:Work
         rdf:about=""><dc:title>Prism Launcher Logo</dc:title><dc:date>19/10/2022</dc:date><dc:creator><cc:Agent><dc:title>Prism Launcher</dc:title></cc:Agent></dc:creator><dc:contributor><cc:Agent><dc:title>AutiOne, Boba, ely, Fulmine, gon sawa, Pankakes, tobimori, Zeke</dc:title></cc:Agent></dc:contributor><dc:source>https://github.com/PrismLauncher/PrismLauncher</dc:source><dc:rights><cc:Agent><dc:title>CC BY-SA 4.0</dc:title></cc:Agent></dc:rights><dc:publisher><cc:Agent><dc:title>Prism Launcher</dc:title></cc:Agent></dc:publisher></cc:Work></rdf:RDF></metadata><g
     id="i_fox"
     transform="translate(-164,-4)"><path
       id="path51543"
       style="fill:url(#linearGradient288033);fill-opacity:1;stroke-width:0.264583;paint-order:stroke markers fill;stop-color:#000000"
       d="m 180,7 v 2 1 1 c 0,1.107999 0.892,2 2,2 h 2 c 1.108,0 2,-0.892001 2,-2 V 9 c 0,-1.1079989 -0.892,-2 -2,-2 h -1 -1 z" /><path
       id="rect51469"
       style="fill:url(#linearGradient288025);fill-opacity:1;stroke-width:0.264583;paint-order:stroke markers fill;stop-color:#000000"
       d="m 172,7 v 2 1 1 c 0,1.107999 -0.892,2 -2,2 h -2 c -1.108,0 -2,-0.892001 -2,-2 V 9 c 0,-1.1079989 0.892,-2 2,-2 h 1 1 z" /><rect
       style="fill:url(#linearGradient287143);fill-opacity:1;stroke-width:0.271456;paint-order:stroke markers fill;stop-color:#000000"
       id="rect50678"
       width="19.999996"
       height="16"
       x="166"
       y="10"
       ry="3" /><path
       id="rect51545"
       style="fill:url(#linearGradient287171);fill-opacity:1;stroke-width:0.258767;paint-order:stroke markers fill;stop-color:#000000"
       d="m 167,24 c -0.27416,0 -0.53402,0.05531 -0.77148,0.154297 C 166.67906,25.23997 167.74758,26 169,26 h 14 c 1.25242,0 2.32094,-0.76003 2.77148,-1.845703 C 185.53402,24.055314 185.27416,24 185,24 Z" /><g
       id="g51463"
       clip-path="url(#clipPath51465-6-2-8-5-5-4-9-7)"
       transform="translate(-12.385191,4.0000023)"><rect
         style="fill:url(#linearGradient287189);fill-opacity:1;stroke-width:0.264583;paint-order:stroke markers fill;stop-color:#000000"
         id="rect51033"
         width="10.000002"
         height="5.0000005"
         x="183.38519"
         y="17.999998" /><rect
         style="fill:#4d3f33;fill-opacity:1;stroke-width:0.264583;paint-order:stroke markers fill;stop-color:#000000"
         id="rect51319"
         width="6"
         height="3"
         x="185.38519"
         y="16.999998"
         ry="0.99999958" /></g><g
       id="g52513"
       clip-path="none"
       transform="matrix(-1,0,0,1,352.38519,4.0000023)"><path
         id="rect52365"
         style="fill:#e9ecec;fill-opacity:1;stroke-width:0.264583;paint-order:stroke markers fill;stop-color:#000000"
         d="m 184.38519,13.999998 c 0.554,0 1,0.446 1,1 v 1 c 0,0.553999 -0.446,1 -1,1 h -2 v -3 z" /><path
         id="path102360"
         style="fill:#141519;fill-opacity:1;stroke-width:0.264583;paint-order:stroke markers fill;stop-color:#000000"
         d="m 180.38519,13.999998 c -0.554,0 -1,0.446 -1,1 v 1 c 0,0.553999 0.446,1 1,1 h 2 v -3 z" /></g><use
       x="0"
       y="0"
       xlink:href="#g52513"
       id="use55252"
       transform="matrix(-1,0,0,1,352,0)" /><rect
       style="fill:#ffffff;fill-opacity:0;stroke:none;stroke-width:0.264583;paint-order:stroke markers fill;stop-color:#000000"
       id="rect128412-7-4"
       width="24"
       height="24"
       x="164"
       y="4" /></g></svg>
