<svg height="128" viewBox="0 0 33.866666 33.866666" width="128" xmlns="http://www.w3.org/2000/svg">
  <metadata/>
  <g transform="translate(0 -263.13334)">
    <path d="m4.233333 267.36667v6.35 6.35 3.175 3.175 3.175 3.175h25.4v-3.175-3.175-3.175-3.175-6.35-6.35h-6.35v6.35h-12.7v-3.175-3.175z" fill="none" stroke="#800000" stroke-linejoin="round" stroke-width=".79375"/>
    <rect fill="#f9f4f4" height="6.349998" width="6.350003" x="4.233326" y="267.36667"/>
    <rect fill="#b48f83" height="3.174999" width="3.175001" x="7.408328" y="270.54166"/>
    <rect fill="#f9f4f4" height="6.349998" width="6.350003" x="23.283335" y="267.36667"/>
    <rect fill="#b48f83" height="3.174999" width="3.175001" x="23.283335" y="270.54166"/>
    <rect fill="#e27c21" height="15.875009" width="25.400013" x="4.233326" y="273.71667"/>
    <rect fill="#cc6920" height="6.350003" width="3.175002" x="4.233326" y="273.71667"/>
    <rect fill="#cc6920" height="6.350003" width="3.175002" x="26.458338" y="273.71667"/>
    <rect fill="#e78f41" height="3.175002" width="6.350003" x="13.758331" y="283.24167"/>
    <rect fill="#b05122" height="3.175002" width="3.175002" x="4.233326" y="280.06668"/>
    <rect fill="#cc6920" height="3.175002" width="3.175002" x="7.408328" y="280.06668"/>
    <rect fill="#f9f4f4" height="3.175002" width="6.350003" x="4.233326" y="283.24167"/>
    <rect fill="#06040e" height="3.175002" width="3.175002" x="4.233326" y="283.24167"/>
    <rect fill="#f9f4f4" height="3.175002" width="6.350003" x="23.283337" y="283.24167"/>
    <rect fill="#06040e" height="3.175002" width="3.175002" x="26.45834" y="283.24167"/>
    <rect fill="#cc6920" height="3.175002" width="3.175002" x="23.283337" y="280.06668"/>
    <rect fill="#b05122" height="3.175002" width="3.175002" x="26.45834" y="280.06668"/>
    <rect fill="#cc6920" height="3.175002" width="25.400013" x="4.233326" y="286.41666"/>
    <rect fill="#e7d9d3" height="3.175002" width="25.400013" x="4.233326" y="289.59167"/>
    <rect fill="#fff" height=".264578" opacity=".25" width="25.4" x="4.233333" y="273.71667"/>
    <rect fill="#fff" height="19.049997" opacity=".25" width=".264584" x="4.233333" y="273.71667"/>
    <rect fill="#f9f4f4" height="6.350001" width="12.700007" x="10.583333" y="286.41666"/>
    <rect fill="#06040e" height="3.175001" width="6.350004" x="13.758333" y="286.41669"/>
    <rect fill="#e7d9d3" height="3.175001" width="3.175002" x="10.583333" y="286.41669"/>
    <rect fill="#e7d9d3" height="3.175001" width="3.175002" x="20.108334" y="286.41669"/>
    <rect fill="#fff" height="6.349983" opacity=".25" width=".264584" x="10.583333" y="286.41669"/>
    <rect fill="#fff" height=".26457" opacity=".25" width="12.699996" x="10.583333" y="286.41669"/>
    <rect height="19.049982" opacity=".25" width=".264584" x="29.36875" y="273.71667"/>
    <rect height=".264577" opacity=".25" width="6.349999" x="23.283333" y="292.50208"/>
    <rect height="6.349966" opacity=".25" width=".264584" x="23.018749" y="286.41669"/>
    <rect height=".26458" opacity=".25" width="6.35" x="4.233333" y="292.50208"/>
    <g fill="#fff">
      <rect height="6.349996" opacity=".25" width=".264584" x="4.233333" y="267.36667"/>
      <rect height=".264588" opacity=".25" width="6.349998" x="4.233333" y="267.36667"/>
      <rect height="6.349996" opacity=".25" width=".264584" x="23.283333" y="267.36667"/>
      <rect height=".264588" opacity=".25" width="6.349998" x="23.283333" y="267.36667"/>
    </g>
    <rect height="6.349998" opacity=".25" width=".264584" x="29.36875" y="267.36667"/>
    <rect height="6.349998" opacity=".25" width=".264584" x="10.318749" y="267.36667"/>
  </g>
</svg>
