<svg height="24" viewBox="0 0 24 24" width="24" xmlns="http://www.w3.org/2000/svg" xmlns:xlink="http://www.w3.org/1999/xlink">
  <linearGradient id="a" gradientUnits="userSpaceOnUse" x1="345.999998" x2="345.999998" y1="21.999999" y2="13">
    <stop offset="0" stop-color="#b11917"/>
    <stop offset="1" stop-color="#e65014"/>
  </linearGradient>
  <linearGradient id="b" gradientUnits="userSpaceOnUse" x1="326.999991" x2="326.999991" y1="21.999999" y2="15">
    <stop offset="0" stop-color="#0787c1"/>
    <stop offset="1" stop-color="#65adb9"/>
  </linearGradient>
  <linearGradient id="c" gradientUnits="userSpaceOnUse" x1="332.999998" x2="332.999998" y1="21.999999" y2="15">
    <stop offset="0" stop-color="#798b2f"/>
    <stop offset="1" stop-color="#9fc41e"/>
  </linearGradient>
  <title>Prism Launcher Logo</title>
  <metadata/>
  <g transform="translate(-324 -4)">
    <rect fill="none" height="24" width="24" x="324" y="4"/>
    <path d="m339 11v2 7.666666c0 .736383.59696 1.333338 1.33334 1.333334h4.66666v-4.333332c-.00015-.671316-.3371-1.297777-.89712-1.667968.55925-.369682.89609-.994972.89712-1.665366v-2c0-.736375-.59695-1.333327-1.33332-1.333334zm2 2h2v2h-2zm0 4h2v3h-2z" fill="url(#a)"/>
    <path d="m327 11c-.73638-.000004-1.33334.596951-1.33334 1.333334v9.666666h2v-5h2.33334v-2h-2.33334v-2h3.33334v-2z" fill="url(#b)"/>
    <path d="m332 11v2h2v7.394205 1.605795h2v-9h2v-2z" fill="url(#c)"/>
  </g>
</svg>
