<?xml version="1.0" encoding="UTF-8" standalone="no"?>
<!-- Created with Inkscape (http://www.inkscape.org/) -->

<svg
   width="32"
   height="32"
   version="1.1"
   viewBox="0 0 32 32"
   id="svg168"
   xml:space="preserve"
   xmlns="http://www.w3.org/2000/svg"
   xmlns:svg="http://www.w3.org/2000/svg"
   xmlns:rdf="http://www.w3.org/1999/02/22-rdf-syntax-ns#"
   xmlns:cc="http://creativecommons.org/ns#"
   xmlns:dc="http://purl.org/dc/elements/1.1/"><defs
     id="defs172" /><title
     id="title132">Prism Launcher Logo</title><metadata
     id="metadata166"><rdf:RDF><cc:Work
         rdf:about=""><dc:title>Prism Launcher Logo</dc:title><dc:date>19/10/2022</dc:date><dc:creator><cc:Agent><dc:title>Prism Launcher</dc:title></cc:Agent></dc:creator><dc:contributor><cc:Agent><dc:title>AutiOne, Boba, ely, Fulmine, gon sawa, Pankakes, tobimori, Zeke</dc:title></cc:Agent></dc:contributor><dc:source>https://github.com/PrismLauncher/PrismLauncher</dc:source><dc:rights><cc:Agent><dc:title>CC BY-SA 4.0</dc:title></cc:Agent></dc:rights><dc:publisher><cc:Agent><dc:title>Prism Launcher</dc:title></cc:Agent></dc:publisher></cc:Work></rdf:RDF></metadata><g
     id="i_gear"
     transform="translate(-352)"><path
       id="path26489"
       style="opacity:1;fill:#f3db6c;fill-opacity:1;stroke:none;stroke-width:0.264583;paint-order:stroke markers fill;stop-color:#000000"
       d="m 368,9 c -3.86599,0 -7,3.134007 -7,7 0,3.865993 3.13401,7 7,7 3.86599,0 7,-3.134007 7,-7 0,-3.865993 -3.13401,-7 -7,-7 z m 0,5 c 1.10456,0 2,0.89543 2,2 0,1.10457 -0.89544,2 -2,2 -1.10456,0 -2,-0.89543 -2,-2 0,-1.10457 0.89544,-2 2,-2 z" /><g
       id="g26927"
       style="fill:#f8c527;fill-opacity:1"
       transform="translate(-32)"><path
         id="path23199"
         style="opacity:1;fill:#f8c527;fill-opacity:1;stroke:none;stroke-width:0.148828;paint-order:stroke markers fill;stop-color:#000000"
         d="m 400,7 c -4.97056,0 -9,4.029437 -9,9 0,4.970563 4.02944,9 9,9 4.97056,0 9,-4.029437 9,-9 0,-4.970563 -4.02944,-9 -9,-9 z m 0,3 c 3.31371,0 6,2.686292 6,6 0,3.313708 -2.68629,6 -6,6 -3.31371,0 -6,-2.686292 -6,-6 0,-3.313708 2.68629,-6 6,-6 z" /><rect
         style="opacity:1;fill:#f8c527;fill-opacity:1;stroke:none;stroke-width:0.264583;paint-order:stroke markers fill;stop-color:#000000"
         id="rect25608"
         width="4"
         height="3"
         x="398"
         y="24" /><rect
         style="opacity:1;fill:#f8c527;fill-opacity:1;stroke:none;stroke-width:0.264583;paint-order:stroke markers fill;stop-color:#000000"
         id="rect25610"
         width="4"
         height="3"
         x="398"
         y="5" /><rect
         style="opacity:1;fill:#f8c527;fill-opacity:1;stroke:none;stroke-width:0.264583;paint-order:stroke markers fill;stop-color:#000000"
         id="rect25612"
         width="4"
         height="3"
         x="14"
         y="-392"
         transform="rotate(90)" /><rect
         style="opacity:1;fill:#f8c527;fill-opacity:1;stroke:none;stroke-width:0.264583;paint-order:stroke markers fill;stop-color:#000000"
         id="rect25614"
         width="4"
         height="3"
         x="14"
         y="-411"
         transform="rotate(90)" /><rect
         style="opacity:1;fill:#f8c527;fill-opacity:1;stroke:none;stroke-width:0.264583;paint-order:stroke markers fill;stop-color:#000000"
         id="rect25616"
         width="4"
         height="3"
         x="-273.52899"
         y="-286.15643"
         transform="rotate(135)" /><rect
         style="opacity:1;fill:#f8c527;fill-opacity:1;stroke:none;stroke-width:0.264583;paint-order:stroke markers fill;stop-color:#000000"
         id="rect25618"
         width="4"
         height="3"
         x="-273.52899"
         y="-305.15643"
         transform="rotate(135)" /><rect
         style="opacity:1;fill:#f8c527;fill-opacity:1;stroke:none;stroke-width:0.264583;paint-order:stroke markers fill;stop-color:#000000"
         id="rect25620"
         width="4"
         height="3"
         x="292.15643"
         y="-263.52899"
         transform="rotate(45)" /><rect
         style="opacity:1;fill:#f8c527;fill-opacity:1;stroke:none;stroke-width:0.264583;paint-order:stroke markers fill;stop-color:#000000"
         id="rect25622"
         width="4"
         height="3"
         x="292.15643"
         y="-282.52899"
         transform="rotate(45)" /></g><rect
       style="fill:#ffffff;fill-opacity:0;stroke:none;stroke-width:0.264583;paint-order:stroke markers fill;stop-color:#000000"
       id="rect128412-7-6-0"
       width="32"
       height="32"
       x="352"
       y="0" /></g></svg>
