<?xml version="1.0" encoding="UTF-8" standalone="no"?>
<!-- Created with Inkscape (http://www.inkscape.org/) -->

<svg
   width="24"
   height="24"
   version="1.1"
   viewBox="0 0 24 24"
   id="svg168"
   xml:space="preserve"
   xmlns:xlink="http://www.w3.org/1999/xlink"
   xmlns="http://www.w3.org/2000/svg"
   xmlns:svg="http://www.w3.org/2000/svg"
   xmlns:rdf="http://www.w3.org/1999/02/22-rdf-syntax-ns#"
   xmlns:cc="http://creativecommons.org/ns#"
   xmlns:dc="http://purl.org/dc/elements/1.1/"><defs
     id="defs172"><radialGradient
       xlink:href="#linearGradient21157"
       id="radialGradient21159"
       cx="368"
       cy="16"
       fx="368"
       fy="16"
       r="7"
       gradientUnits="userSpaceOnUse" /><linearGradient
       id="linearGradient21157"><stop
         style="stop-color:#e1edf2;stop-opacity:1;"
         offset="0"
         id="stop21153" /><stop
         style="stop-color:#abbdc4;stop-opacity:1;"
         offset="0.72112602"
         id="stop21161" /><stop
         style="stop-color:#95acb6;stop-opacity:1;"
         offset="1"
         id="stop21155" /></linearGradient><radialGradient
       xlink:href="#linearGradient21167"
       id="radialGradient21309"
       gradientUnits="userSpaceOnUse"
       cx="400"
       cy="16"
       fx="400"
       fy="16"
       r="11"
       gradientTransform="matrix(1.3636364,0,0,1.3636364,-177.45455,-5.8181818)" /><linearGradient
       id="linearGradient21167"><stop
         style="stop-color:#e5e6e9;stop-opacity:1;"
         offset="0.13595749"
         id="stop21163" /><stop
         style="stop-color:#c5c7cf;stop-opacity:1;"
         offset="0.86267382"
         id="stop21165" /></linearGradient></defs><title
     id="title132">Prism Launcher Logo</title><metadata
     id="metadata166"><rdf:RDF><cc:Work
         rdf:about=""><dc:title>Prism Launcher Logo</dc:title><dc:date>19/10/2022</dc:date><dc:creator><cc:Agent><dc:title>Prism Launcher</dc:title></cc:Agent></dc:creator><dc:contributor><cc:Agent><dc:title>AutiOne, Boba, ely, Fulmine, gon sawa, Pankakes, tobimori, Zeke</dc:title></cc:Agent></dc:contributor><dc:source>https://github.com/PrismLauncher/PrismLauncher</dc:source><dc:rights><cc:Agent><dc:title>CC BY-SA 4.0</dc:title></cc:Agent></dc:rights><dc:publisher><cc:Agent><dc:title>Prism Launcher</dc:title></cc:Agent></dc:publisher></cc:Work></rdf:RDF></metadata><g
     id="i_gear"
     transform="translate(-356,-4)"><path
       id="path26489"
       style="opacity:1;fill:url(#radialGradient21159);fill-opacity:1;stroke:none;stroke-width:0.264583;paint-order:stroke markers fill;stop-color:#000000"
       d="m 368,9 c -3.86599,0 -7,3.134007 -7,7 0,3.865993 3.13401,7 7,7 3.86599,0 7,-3.134007 7,-7 0,-3.865993 -3.13401,-7 -7,-7 z m 0,5 c 1.10456,0 2,0.89543 2,2 0,1.10457 -0.89544,2 -2,2 -1.10456,0 -2,-0.89543 -2,-2 0,-1.10457 0.89544,-2 2,-2 z" /><path
       id="path23199"
       style="fill:url(#radialGradient21309);fill-opacity:1;stroke:none;stroke-width:0.148828;paint-order:stroke markers fill;stop-color:#000000"
       d="m 366,5 v 2.2265625 c -1.00464,0.2280151 -1.94322,0.6232232 -2.78906,1.15625 l -1.57422,-1.5742187 -2.82813,2.828125 1.57422,1.5742192 C 359.84979,12.056778 359.45458,12.995357 359.22656,14 H 357 v 4 h 2.22656 c 0.22802,1.004643 0.62323,1.943222 1.15625,2.789062 l -1.57422,1.574219 2.82813,2.830078 1.57422,-1.576171 c 0.84584,0.533026 1.78442,0.928234 2.78906,1.15625 V 27 h 4 v -2.226562 c 1.00464,-0.228016 1.94322,-0.623224 2.78906,-1.15625 l 1.57422,1.576171 2.83008,-2.830078 -1.57617,-1.574219 C 376.15021,19.943222 376.54542,19.004643 376.77344,18 H 379 v -4 h -2.22656 c -0.22802,-1.004643 -0.62323,-1.943222 -1.15625,-2.789062 l 1.57617,-1.5742192 -2.83008,-2.828125 -1.57422,1.5742187 C 371.94322,7.8497857 371.00464,7.4545776 370,7.2265625 V 5 Z m 2,5 c 3.31371,0 6,2.686295 6,6 0,3.313705 -2.68629,6 -6,6 -3.31371,0 -6,-2.686295 -6,-6 0,-3.313705 2.68629,-6 6,-6 z" /><rect
       style="fill:#ffffff;fill-opacity:0;stroke:none;stroke-width:0.264583;paint-order:stroke markers fill;stop-color:#000000"
       id="rect128412-7-6-0"
       width="24"
       height="24"
       x="356"
       y="4" /></g></svg>
