<svg height="24" viewBox="0 0 24 24" width="24" xmlns="http://www.w3.org/2000/svg" xmlns:xlink="http://www.w3.org/1999/xlink">
  <radialGradient id="a" cx="368" cy="16" gradientUnits="userSpaceOnUse" r="7">
    <stop offset="0" stop-color="#e1edf2"/>
    <stop offset=".72112602" stop-color="#abbdc4"/>
    <stop offset="1" stop-color="#95acb6"/>
  </radialGradient>
  <radialGradient id="b" cx="368.00001" cy="16" gradientUnits="userSpaceOnUse" r="15">
    <stop offset=".13595749" stop-color="#e5e6e9"/>
    <stop offset=".86267382" stop-color="#c5c7cf"/>
  </radialGradient>
  <title>Prism Launcher Logo</title>
  <metadata/>
  <g transform="translate(-356 -4)">
    <path d="m368 9c-3.86599 0-7 3.134007-7 7s3.13401 7 7 7 7-3.134007 7-7-3.13401-7-7-7zm0 5c1.10456 0 2 .89543 2 2s-.89544 2-2 2-2-.89543-2-2 .89544-2 2-2z" fill="url(#a)"/>
    <path d="m366 5v2.2265625c-1.00464.2280151-1.94322.6232232-2.78906 1.15625l-1.57422-1.5742187-2.82813 2.828125 1.57422 1.5742192c-.53302.84584-.92823 1.784419-1.15625 2.789062h-2.22656v4h2.22656c.22802 1.004643.62323 1.943222 1.15625 2.789062l-1.57422 1.574219 2.82813 2.830078 1.57422-1.576171c.84584.533026 1.78442.928234 2.78906 1.15625v2.226562h4v-2.226562c1.00464-.228016 1.94322-.623224 2.78906-1.15625l1.57422 1.576171 2.83008-2.830078-1.57617-1.574219c.53302-.84584.92823-1.784419 1.15625-2.789062h2.22656v-4h-2.22656c-.22802-1.004643-.62323-1.943222-1.15625-2.789062l1.57617-1.5742192-2.83008-2.828125-1.57422 1.5742187c-.84584-.5330268-1.78442-.9282349-2.78906-1.15625v-2.2265625zm2 5c3.31371 0 6 2.686295 6 6s-2.68629 6-6 6-6-2.686295-6-6 2.68629-6 6-6z" fill="url(#b)"/>
    <rect fill="none" height="24" width="24" x="356" y="4"/>
  </g>
</svg>
