<svg height="24" viewBox="0 0 24 24" width="24" xmlns="http://www.w3.org/2000/svg" xmlns:xlink="http://www.w3.org/1999/xlink">
  <linearGradient id="a" gradientUnits="userSpaceOnUse" x1="433" x2="433" y1="26" y2="6">
    <stop offset="0" stop-color="#77563b"/>
    <stop offset="1" stop-color="#86674f"/>
  </linearGradient>
  <linearGradient id="b" gradientUnits="userSpaceOnUse" x1="433" x2="433" y1="11" y2="20">
    <stop offset="0" stop-color="#4d3f33" stop-opacity=".5"/>
    <stop offset="1" stop-color="#4d3f33" stop-opacity="0"/>
  </linearGradient>
  <linearGradient id="c" gradientUnits="userSpaceOnUse" x1="430" x2="430" y1="16" y2="6">
    <stop offset="0" stop-color="#99cd61"/>
    <stop offset="1" stop-color="#bccd61"/>
  </linearGradient>
  <title>Prism Launcher Logo</title>
  <metadata/>
  <g transform="translate(-420 -4)">
    <path d="m425 8h14l3 1v14c0 1.662-1.338 3-3 3h-14c-1.662 0-3-1.338-3-3v-14z" fill="url(#a)" stroke-linecap="square" stroke-linejoin="bevel"/>
    <rect fill="none" height="24" width="24" x="420" y="4"/>
    <path d="m424.13672 8c-.07736.00781-.13672.07286-.13672.15234v1.69532c0 .08478.06756.15234.15234.15234h1.69532c.08478 0 .15234-.06756.15234-.15234v-1.69532c0-.08478-.06756-.15234-.15234-.15234h-1.69532c-.005 0-.0105-.00052-.0156 0zm10 2c-.07736.00781-.13672.07286-.13672.15234v1.69532c0 .08478.06756.15234.15234.15234h1.69532c.08478 0 .15234-.06756.15234-.15234v-1.69532c0-.08478-.06756-.15234-.15234-.15234h-1.69532c-.005 0-.0105-.00052-.0156 0zm-8 4c-.07736.00781-.13672.07286-.13672.15234v1.69532c0 .08478.06756.15234.15234.15234h1.69532c.08478 0 .15234-.06756.15234-.15234v-1.69532c0-.08478-.06756-.15234-.15234-.15234h-1.69532c-.005 0-.0105-.00052-.0156 0zm13 2c-.07736.00781-.13672.07286-.13672.15234v1.69532c0 .08478.06756.15234.15234.15234h1.69532c.08478 0 .15234-.06756.15234-.15234v-1.69532c0-.08478-.06756-.15234-.15234-.15234h-1.69532c-.005 0-.0105-.00052-.0156 0zm-7 2c-.07736.00781-.13672.07286-.13672.15234v1.69532c0 .08478.06756.15234.15234.15234h1.69532c.08478 0 .15234-.06756.15234-.15234v-1.69532c0-.08478-.06756-.15234-.15234-.15234h-1.69532c-.005 0-.0105-.00052-.0156 0zm-9 2c-.07736.00781-.13672.07286-.13672.15234v1.69532c0 .08478.06756.15234.15234.15234h1.69532c.08478 0 .15234-.06756.15234-.15234v-1.69532c0-.08478-.06756-.15234-.15234-.15234h-1.69532c-.005 0-.0105-.00052-.0156 0zm15 2c-.07736.00781-.13672.07286-.13672.15234v1.69532c0 .08478.06756.15234.15234.15234h1.69532c.08478 0 .15234-.06756.15234-.15234v-1.69532c0-.08478-.06756-.15234-.15234-.15234h-1.69532c-.005 0-.0105-.00052-.0156 0zm-9 2c-.07736.00781-.13672.07286-.13672.15234v1.69532c0 .08478.06756.15234.15234.15234h1.69532c.08478 0 .15234-.06756.15234-.15234v-1.69532c0-.08478-.06756-.15234-.15234-.15234h-1.69532c-.005 0-.0105-.00052-.0156 0z" fill="#a88356" opacity=".268946" stroke-linecap="square" stroke-linejoin="bevel"/>
    <path d="m425 8h7 7l3 1v14l-3 3h-14l-3-3v-14z" fill="url(#b)" stroke-linecap="square" stroke-linejoin="bevel"/>
    <path d="m425 6c-1.662 0-3 1.3380037-3 3v3 2h2v-2h2v2h4v2h2v-2-2-2h2v2 2h2v-2h2v2 2h2v-2h2v-5c0-1.6619983-1.338-3-3-3h-7z" fill="url(#c)"/>
  </g>
</svg>
