<?xml version="1.0" encoding="UTF-8" standalone="no"?>
<!-- Created with Inkscape (http://www.inkscape.org/) -->

<svg
   width="24"
   height="24"
   version="1.1"
   viewBox="0 0 24 24"
   id="svg168"
   xml:space="preserve"
   xmlns:xlink="http://www.w3.org/1999/xlink"
   xmlns="http://www.w3.org/2000/svg"
   xmlns:svg="http://www.w3.org/2000/svg"
   xmlns:rdf="http://www.w3.org/1999/02/22-rdf-syntax-ns#"
   xmlns:cc="http://creativecommons.org/ns#"
   xmlns:dc="http://purl.org/dc/elements/1.1/"><defs
     id="defs172"><linearGradient
       id="linearGradient53203"><stop
         style="stop-color:#77563b;stop-opacity:1;"
         offset="0"
         id="stop53199" /><stop
         style="stop-color:#86674f;stop-opacity:1;"
         offset="1"
         id="stop53201" /></linearGradient><linearGradient
       id="linearGradient29505"><stop
         style="stop-color:#99cd61;stop-opacity:1;"
         offset="0"
         id="stop29501" /><stop
         style="stop-color:#bccd61;stop-opacity:1;"
         offset="1"
         id="stop29503" /></linearGradient><linearGradient
       xlink:href="#linearGradient53203"
       id="linearGradient56913"
       gradientUnits="userSpaceOnUse"
       x1="785"
       y1="26"
       x2="785"
       y2="6"
       gradientTransform="translate(-352)" /><linearGradient
       xlink:href="#linearGradient56992"
       id="linearGradient56984"
       x1="433"
       y1="11"
       x2="433"
       y2="20"
       gradientUnits="userSpaceOnUse" /><linearGradient
       id="linearGradient56992"><stop
         style="stop-color:#4d3f33;stop-opacity:0.5;"
         offset="0"
         id="stop56986" /><stop
         style="stop-color:#4d3f33;stop-opacity:0;"
         offset="1"
         id="stop56990" /></linearGradient><linearGradient
       xlink:href="#linearGradient29505"
       id="linearGradient29507"
       x1="428"
       y1="14"
       x2="428"
       y2="4"
       gradientUnits="userSpaceOnUse"
       gradientTransform="translate(2,2)" /></defs><title
     id="title132">Prism Launcher Logo</title><metadata
     id="metadata166"><rdf:RDF><cc:Work
         rdf:about=""><dc:title>Prism Launcher Logo</dc:title><dc:date>19/10/2022</dc:date><dc:creator><cc:Agent><dc:title>Prism Launcher</dc:title></cc:Agent></dc:creator><dc:contributor><cc:Agent><dc:title>AutiOne, Boba, ely, Fulmine, gon sawa, Pankakes, tobimori, Zeke</dc:title></cc:Agent></dc:contributor><dc:source>https://github.com/PrismLauncher/PrismLauncher</dc:source><dc:rights><cc:Agent><dc:title>CC BY-SA 4.0</dc:title></cc:Agent></dc:rights><dc:publisher><cc:Agent><dc:title>Prism Launcher</dc:title></cc:Agent></dc:publisher></cc:Work></rdf:RDF></metadata><g
     id="i_grass"
     transform="translate(-420,-4)"><path
       id="rect15088-9-1-7"
       style="fill:url(#linearGradient56913);stroke-linecap:square;stroke-linejoin:bevel;paint-order:stroke markers fill;stop-color:#000000"
       d="m 425,8 h 14 l 3,1 v 14 c 0,1.662 -1.338,3 -3,3 h -14 c -1.662,0 -3,-1.338 -3,-3 V 9 Z" /><rect
       style="fill:#ffffff;fill-opacity:0;stroke:none;stroke-width:0.264583;paint-order:stroke markers fill;stop-color:#000000"
       id="rect128412-7-4-8"
       width="24"
       height="24"
       x="420"
       y="4" /><path
       id="rect48773-2"
       style="opacity:0.268946;fill:#a88356;fill-opacity:1;stroke-linecap:square;stroke-linejoin:bevel;paint-order:stroke markers fill;stop-color:#000000"
       d="M 424.13672,8 C 424.05936,8.00781 424,8.07286 424,8.15234 V 9.84766 C 424,9.93244 424.06756,10 424.15234,10 h 1.69532 C 425.93244,10 426,9.93244 426,9.84766 V 8.15234 C 426,8.06756 425.93244,8 425.84766,8 h -1.69532 c -0.005,0 -0.0105,-5.2e-4 -0.0156,0 z m 10,2 C 434.05936,10.00781 434,10.07286 434,10.15234 v 1.69532 C 434,11.93244 434.06756,12 434.15234,12 h 1.69532 C 435.93244,12 436,11.93244 436,11.84766 V 10.15234 C 436,10.06756 435.93244,10 435.84766,10 h -1.69532 c -0.005,0 -0.0105,-5.2e-4 -0.0156,0 z m -8,4 C 426.05936,14.00781 426,14.07286 426,14.15234 v 1.69532 C 426,15.93244 426.06756,16 426.15234,16 h 1.69532 C 427.93244,16 428,15.93244 428,15.84766 V 14.15234 C 428,14.06756 427.93244,14 427.84766,14 h -1.69532 c -0.005,0 -0.0105,-5.2e-4 -0.0156,0 z m 13,2 C 439.05936,16.00781 439,16.07286 439,16.15234 v 1.69532 C 439,17.93244 439.06756,18 439.15234,18 h 1.69532 C 440.93244,18 441,17.93244 441,17.84766 V 16.15234 C 441,16.06756 440.93244,16 440.84766,16 h -1.69532 c -0.005,0 -0.0105,-5.2e-4 -0.0156,0 z m -7,2 C 432.05936,18.00781 432,18.07286 432,18.15234 v 1.69532 C 432,19.93244 432.06756,20 432.15234,20 h 1.69532 C 433.93244,20 434,19.93244 434,19.84766 V 18.15234 C 434,18.06756 433.93244,18 433.84766,18 h -1.69532 c -0.005,0 -0.0105,-5.2e-4 -0.0156,0 z m -9,2 C 423.05936,20.00781 423,20.07286 423,20.15234 v 1.69532 C 423,21.93244 423.06756,22 423.15234,22 h 1.69532 C 424.93244,22 425,21.93244 425,21.84766 V 20.15234 C 425,20.06756 424.93244,20 424.84766,20 h -1.69532 c -0.005,0 -0.0105,-5.2e-4 -0.0156,0 z m 15,2 C 438.05936,22.00781 438,22.07286 438,22.15234 v 1.69532 C 438,23.93244 438.06756,24 438.15234,24 h 1.69532 C 439.93244,24 440,23.93244 440,23.84766 V 22.15234 C 440,22.06756 439.93244,22 439.84766,22 h -1.69532 c -0.005,0 -0.0105,-5.2e-4 -0.0156,0 z m -9,2 C 429.05936,24.00781 429,24.07286 429,24.15234 v 1.69532 C 429,25.93244 429.06756,26 429.15234,26 h 1.69532 C 430.93244,26 431,25.93244 431,25.84766 V 24.15234 C 431,24.06756 430.93244,24 430.84766,24 h -1.69532 c -0.005,0 -0.0105,-5.2e-4 -0.0156,0 z" /><path
       id="rect56976"
       style="fill:url(#linearGradient56984);stroke-linecap:square;stroke-linejoin:bevel;paint-order:stroke markers fill;stop-color:#000000"
       d="m 425,8 h 7 7 l 3,1 v 14 l -3,3 h -14 l -3,-3 V 9 Z" /><path
       id="rect24023"
       style="fill:url(#linearGradient29507);fill-opacity:1;stroke:none;paint-order:stroke markers fill;stop-color:#000000"
       d="m 425,6 c -1.662,0 -3,1.3380037 -3,3 v 3 2 h 2 v -2 h 2 v 2 h 4 v 2 h 2 v -2 -2 -2 h 2 v 2 2 h 2 v -2 h 2 v 2 2 h 2 v -2 h 2 V 9 c 0,-1.6619983 -1.338,-3 -3,-3 h -7 z" /></g></svg>
