<svg height="24" viewBox="0 0 24 24" width="24" xmlns="http://www.w3.org/2000/svg" xmlns:xlink="http://www.w3.org/1999/xlink">
  <radialGradient id="a" cx="496.06177" cy="17.211182" fx="495.87827" fy="18.730774" gradientTransform="matrix(2.5554022 0 0 1.2337313 -807.57556 -8.266943)" gradientUnits="userSpaceOnUse" r="11">
    <stop offset=".23876573" stop-color="#ceb8aa"/>
    <stop offset=".51858544" stop-color="#b39888"/>
  </radialGradient>
  <linearGradient id="b" gradientUnits="userSpaceOnUse" x1="468" x2="468" y1="11" y2="1">
    <stop offset="0" stop-color="#261a0a"/>
    <stop offset="1" stop-color="#3c2b13"/>
  </linearGradient>
  <linearGradient id="c" gradientUnits="userSpaceOnUse" x1="462" x2="462" y1="23" y2="18">
    <stop offset="0" stop-color="#45362e"/>
    <stop offset="1" stop-color="#59463c"/>
  </linearGradient>
  <title>Prism Launcher Logo</title>
  <metadata/>
  <g transform="translate(-448)">
    <path d="m452 1h16l3 2.999999v16.000002c0 1.661999-1.338 2.999999-3 2.999999h-16c-1.662 0-3-1.338-3-2.999999v-16.000002z" fill="url(#a)" stroke-width=".277182"/>
    <path d="m452 1c-1.662 0-3 1.3380017-3 3v7h2c1.108 0 2-.892002 2-2v-1h14v1c0 1.107998.892 2 2 2h2v-7c0-1.6619983-1.338-3-3-3h-1-14z" fill="url(#b)"/>
    <rect fill="#8a5d54" height="3" ry="0" width="6" x="457" y="18"/>
    <rect fill="#fff" height="3" ry="1" stroke-width=".264583" width="7" x="462" y="13"/>
    <rect fill="#fff" height="3" ry="1" stroke-width=".264583" width="7" x="451" y="13"/>
    <rect fill="#6a493c" height="2" ry="0" width="4" x="458" y="16"/>
    <path d="m457 18a2 2 0 0 0 -2 2v3h3 4 3v-3a2 2 0 0 0 -2-2h-1v2h-4v-2z" fill="url(#c)"/>
    <rect fill="none" height="24" width="24" x="448"/>
  </g>
</svg>
