<svg height="24" viewBox="0 0 24 24" width="24" xmlns="http://www.w3.org/2000/svg" xmlns:xlink="http://www.w3.org/1999/xlink">
  <linearGradient id="a">
    <stop offset="0" stop-color="#ededed"/>
    <stop offset="1" stop-color="#f4f4f4"/>
  </linearGradient>
  <linearGradient id="b" gradientUnits="userSpaceOnUse" x1="496" x2="496" y1="26" y2="6">
    <stop offset="0" stop-color="#c5c7cf"/>
    <stop offset="1" stop-color="#d8d9e0"/>
  </linearGradient>
  <linearGradient id="c" gradientUnits="userSpaceOnUse" x1="503" x2="503" xlink:href="#a" y1="21" y2="19"/>
  <linearGradient id="d" gradientUnits="userSpaceOnUse" x1="503" x2="503" xlink:href="#a" y1="17" y2="15"/>
  <linearGradient id="e" gradientUnits="userSpaceOnUse" x1="503" x2="503" xlink:href="#f" y1="19" y2="17"/>
  <linearGradient id="f">
    <stop offset="0" stop-color="#27414e" stop-opacity="0"/>
    <stop offset=".49837714" stop-color="#27414e" stop-opacity=".74902"/>
    <stop offset=".83958842" stop-color="#27414e"/>
  </linearGradient>
  <linearGradient id="g" gradientUnits="userSpaceOnUse" x1="503" x2="503" xlink:href="#f" y1="15" y2="13"/>
  <linearGradient id="h" gradientUnits="userSpaceOnUse" x1="503" x2="503" xlink:href="#f" y1="11" y2="9"/>
  <linearGradient id="i" gradientUnits="userSpaceOnUse" x1="503" x2="503" xlink:href="#f" y1="23" y2="21"/>
  <linearGradient id="j" gradientUnits="userSpaceOnUse" x1="503" x2="503" xlink:href="#a" y1="13" y2="11"/>
  <linearGradient id="k" gradientUnits="userSpaceOnUse" x1="503" x2="503" xlink:href="#a" y1="9" y2="7"/>
  <title>Prism Launcher Logo</title>
  <metadata/>
  <g transform="translate(-484 -4)">
    <rect fill="url(#b)" height="20" ry="3" stroke-linecap="square" stroke-linejoin="bevel" width="20" x="486" y="6"/>
    <rect fill="none" height="24" width="24" x="484" y="4"/>
    <g stroke-linecap="square" stroke-linejoin="bevel">
      <path d="m487 23c0 1.107999.892 2 2 2h14c1.108 0 2-.892001 2-2z" fill="#efefef"/>
      <g stroke-width=".999996">
        <rect fill="url(#c)" height="2" width="18" x="487" y="19"/>
        <rect fill="url(#d)" height="2" width="18" x="487" y="15"/>
        <rect fill="url(#e)" height="2" opacity=".1" width="18" x="487" y="17"/>
        <rect fill="url(#g)" height="2" opacity=".1" width="18" x="487" y="13"/>
        <rect fill="url(#h)" height="2" opacity=".1" width="18" x="487" y="9"/>
        <rect fill="url(#i)" height="2" opacity=".1" width="18" x="487" y="21"/>
        <rect fill="url(#j)" height="2" width="18" x="487" y="11"/>
        <path d="m489 7c-1.108 0-2 .8920011-2 2h18c0-1.1079989-.892-2-2-2z" fill="url(#k)"/>
      </g>
    </g>
  </g>
</svg>
