<?xml version="1.0" encoding="UTF-8" standalone="no"?>
<!-- Created with Inkscape (http://www.inkscape.org/) -->

<svg
   width="32"
   height="32"
   version="1.1"
   viewBox="0 0 32 32"
   id="svg168"
   xml:space="preserve"
   xmlns="http://www.w3.org/2000/svg"
   xmlns:svg="http://www.w3.org/2000/svg"
   xmlns:rdf="http://www.w3.org/1999/02/22-rdf-syntax-ns#"
   xmlns:cc="http://creativecommons.org/ns#"
   xmlns:dc="http://purl.org/dc/elements/1.1/"><defs
     id="defs172"><clipPath
       clipPathUnits="userSpaceOnUse"
       id="clipPath70915"><path
         style="opacity:1;fill:#bd44b3;fill-opacity:1;stroke:none;stroke-width:0.264583;paint-order:stroke markers fill;stop-color:#000000"
         id="path70917"
         d="m 567.75822,23.780557 c -1.02129,1.017197 -1.40469,3.26498 -2.72399,3.814557 -1.3193,0.549578 -3.76804,-0.657585 -5.20836,-0.687167 -1.44032,-0.02958 -3.32578,1.488919 -4.65697,0.936933 -1.33119,-0.551986 -2.06769,-2.91036 -3.08281,-3.927341 -1.01511,-1.016982 -3.30517,-1.550442 -3.83572,-2.877061 -0.53055,-1.326619 0.75095,-3.615262 0.76004,-5.050859 0.009,-1.435596 -1.30602,-3.611418 -0.75806,-4.936294 0.54796,-1.3248769 2.7981,-1.6627753 3.83368,-2.6540083 1.03559,-0.9912328 1.77327,-3.6016077 3.08037,-4.1709394 1.3071,-0.5693318 3.41767,0.6823629 4.85198,0.6871672 1.43432,0.0048 3.67769,-1.1020263 5.01335,-0.5805511 1.33567,0.5214752 1.68844,2.9320874 2.72643,3.9273412 1.03799,0.9952536 3.30533,1.5532379 3.83572,2.8770604 0.53039,1.323824 -0.73478,3.255376 -0.76004,4.694477 -0.0253,1.439101 1.28343,3.594239 0.75806,4.936295 -0.52537,1.342056 -2.8124,1.993192 -3.83368,3.01039 z"
         transform="matrix(0.60389168,0.3121766,-0.3121766,0.60389168,226.77688,-168.46627)" /></clipPath></defs><title
     id="title132">Prism Launcher Logo</title><metadata
     id="metadata166"><rdf:RDF><cc:Work
         rdf:about=""><dc:title>Prism Launcher Logo</dc:title><dc:date>19/10/2022</dc:date><dc:creator><cc:Agent><dc:title>Prism Launcher</dc:title></cc:Agent></dc:creator><dc:contributor><cc:Agent><dc:title>AutiOne, Boba, ely, Fulmine, gon sawa, Pankakes, tobimori, Zeke</dc:title></cc:Agent></dc:contributor><dc:source>https://github.com/PrismLauncher/PrismLauncher</dc:source><dc:rights><cc:Agent><dc:title>CC BY-SA 4.0</dc:title></cc:Agent></dc:rights><dc:publisher><cc:Agent><dc:title>Prism Launcher</dc:title></cc:Agent></dc:publisher></cc:Work></rdf:RDF></metadata><g
     id="i_magitech"
     transform="translate(-512)"><path
       style="opacity:1;fill:#792aac;fill-opacity:1;stroke:none;stroke-width:0.264583;paint-order:stroke markers fill;stop-color:#000000"
       id="path63885"
       d="m 567.75822,23.780557 c -1.02129,1.017197 -1.40469,3.26498 -2.72399,3.814557 -1.3193,0.549578 -3.76804,-0.657585 -5.20836,-0.687167 -1.44032,-0.02958 -3.32578,1.488919 -4.65697,0.936933 -1.33119,-0.551986 -2.06769,-2.91036 -3.08281,-3.927341 -1.01511,-1.016982 -3.30517,-1.550442 -3.83572,-2.877061 -0.53055,-1.326619 0.75095,-3.615262 0.76004,-5.050859 0.009,-1.435596 -1.30602,-3.611418 -0.75806,-4.936294 0.54796,-1.3248769 2.7981,-1.6627753 3.83368,-2.6540083 1.03559,-0.9912328 1.77327,-3.6016077 3.08037,-4.1709394 1.3071,-0.5693318 3.41767,0.6823629 4.85198,0.6871672 1.43432,0.0048 3.67769,-1.1020263 5.01335,-0.5805511 1.33567,0.5214752 1.68844,2.9320874 2.72643,3.9273412 1.03799,0.9952536 3.30533,1.5532379 3.83572,2.8770604 0.53039,1.323824 -0.73478,3.255376 -0.76004,4.694477 -0.0253,1.439101 1.28343,3.594239 0.75806,4.936295 -0.52537,1.342056 -2.8124,1.993192 -3.83368,3.01039 z"
       transform="rotate(15,543.92119,-105.50919)" /><g
       id="g68167"
       clip-path="url(#clipPath70915)"
       transform="translate(-32)"><rect
         style="opacity:1;fill:#bd44b3;fill-opacity:1;stroke:none;stroke-width:0.264583;paint-order:stroke markers fill;stop-color:#000000"
         id="rect68163"
         width="18"
         height="18"
         x="551"
         y="7" /><rect
         style="opacity:1;fill:#ffffff;fill-opacity:1;stroke:none;stroke-width:0.264583;paint-order:stroke markers fill;stop-color:#000000"
         id="rect67092"
         width="4"
         height="7"
         x="558"
         y="18" /></g><path
       id="path67432"
       style="opacity:1;fill:#ffffff;fill-opacity:1;stroke:none;stroke-width:0.330729;paint-order:stroke markers fill;stop-color:#000000"
       d="M 530,11.419922 V 15 l -2,1 -2,-1 v -3.576172 c -1.82001,0.794313 -2.99746,2.590386 -3,4.576172 0,2.761424 2.23858,5 5,5 2.76142,0 5,-2.238576 5,-5 -9.9e-4,-1.987204 -1.1787,-3.785196 -3,-4.580078 z" /><rect
       style="fill:#ffffff;fill-opacity:0;stroke:none;stroke-width:0.264583;paint-order:stroke markers fill;stop-color:#000000"
       id="rect128412-0"
       width="32"
       height="32"
       x="512"
       y="0" /></g></svg>
