<svg height="24" viewBox="0 0 24 24" width="24" xmlns="http://www.w3.org/2000/svg" xmlns:xlink="http://www.w3.org/1999/xlink">
  <radialGradient id="a" cx="559.9212" cy="16.022875" gradientTransform="matrix(1 0 0 1.0119015 0 -.190697)" gradientUnits="userSpaceOnUse" r="11.80246">
    <stop offset=".4400529" stop-color="#9f0bff"/>
    <stop offset="1" stop-color="#7111f8"/>
  </radialGradient>
  <radialGradient id="b" cx="527.99039" cy="15.999401" gradientUnits="userSpaceOnUse" r="8.238455">
    <stop offset="0" stop-color="#e570f7"/>
    <stop offset="1" stop-color="#d829c8"/>
  </radialGradient>
  <linearGradient id="c" gradientUnits="userSpaceOnUse" x1="528" x2="528" y1="25" y2="11">
    <stop offset="0" stop-color="#f6cff4"/>
    <stop offset="1" stop-color="#fff"/>
  </linearGradient>
  <title>Prism Launcher Logo</title>
  <metadata/>
  <g transform="translate(-516 -4)">
    <path d="m567.75822 23.780557c-1.02129 1.017197-1.40469 3.26498-2.72399 3.814557-1.3193.549578-3.76804-.657585-5.20836-.687167-1.44032-.02958-3.32578 1.488919-4.65697.936933s-2.06769-2.91036-3.08281-3.927341c-1.01511-1.016982-3.30517-1.550442-3.83572-2.877061s.75095-3.615262.76004-5.050859c.009-1.435596-1.30602-3.611418-.75806-4.936294.54796-1.3248769 2.7981-1.6627753 3.83368-2.6540083 1.03559-.9912328 1.77327-3.6016077 3.08037-4.1709394 1.3071-.5693318 3.41767.6823629 4.85198.6871672 1.43432.0048 3.67769-1.1020263 5.01335-.5805511 1.33567.5214752 1.68844 2.9320874 2.72643 3.9273412 1.03799.9952536 3.30533 1.5532379 3.83572 2.8770604.53039 1.323824-.73478 3.255376-.76004 4.694477-.0253 1.439101 1.28343 3.594239.75806 4.936295s-2.8124 1.993192-3.83368 3.01039z" fill="url(#a)" transform="matrix(.77720995 .20825278 -.20825278 .77720995 96.078534 -113.04768)"/>
    <path d="m528.64654 8.1238816c-.88525-.058796-2.03882 1.1746971-2.89455 1.4267114-.85572.2520155-2.19516-.2057082-2.87666.3700866-.68152.5757944-.57701 2.1554034-.99227 2.9463914-.41525.79099-1.77713 1.689562-1.86295 2.574518-.0858.884955 1.02746 1.834893 1.29799 2.687153.27054.85226.002 2.366339.58106 3.051875.57813.685534 2.05494.383747 2.84269.811687.78774.427941 1.79544 1.795111 2.68179 1.868314.88635.07321 1.74074-1.059712 2.59597-1.330167.85524-.270456 2.30644.02321 2.98037-.56854.67391-.591748.56704-2.156299.99225-2.944604.42521-.788304 1.67594-1.494488 1.76105-2.377852.0851-.883365-1.0086-1.840366-1.29799-2.687153-.2894-.846786.20315-2.280018-.38618-2.949967-.58933-.669948-2.14415-.699521-2.93567-1.1120483-.7915-.4125278-1.60167-1.7076097-2.4869-1.7664051z" fill="url(#b)"/>
    <path d="m530 11.419922v3.580078l-2 1-2-1v-3.576172c-1.82001.79431-2.99746 2.590392-3 4.576172 0 2.049733 1.2349 3.810136 3 4.582031v2.435547c.47576.420763.96578.80592 1.42383.84375.87952.07265 1.72754-1.040827 2.57617-1.322266v-1.957031c1.7651-.771895 3-2.532298 3-4.582031-.00099-1.987198-1.1787-3.785199-3-4.580078z" fill="url(#c)"/>
    <rect fill="none" height="24" width="24" x="516" y="4"/>
  </g>
</svg>
