<?xml version="1.0" encoding="UTF-8" standalone="no"?>
<!-- Created with Inkscape (http://www.inkscape.org/) -->

<svg
   width="24"
   height="24"
   version="1.1"
   viewBox="0 0 24 24"
   id="svg168"
   xml:space="preserve"
   xmlns:xlink="http://www.w3.org/1999/xlink"
   xmlns="http://www.w3.org/2000/svg"
   xmlns:svg="http://www.w3.org/2000/svg"
   xmlns:rdf="http://www.w3.org/1999/02/22-rdf-syntax-ns#"
   xmlns:cc="http://creativecommons.org/ns#"
   xmlns:dc="http://purl.org/dc/elements/1.1/"><defs
     id="defs172"><radialGradient
       xlink:href="#linearGradient16441"
       id="radialGradient16443"
       cx="559.9212"
       cy="16.022875"
       fx="559.9212"
       fy="16.022875"
       r="11.80246"
       gradientTransform="matrix(1,0,0,1.0119015,0,-0.19069696)"
       gradientUnits="userSpaceOnUse" /><linearGradient
       id="linearGradient16441"><stop
         style="stop-color:#9f0bff;stop-opacity:1;"
         offset="0.4400529"
         id="stop16439" /><stop
         style="stop-color:#7111f8;stop-opacity:1;"
         offset="1"
         id="stop16437" /></linearGradient><radialGradient
       xlink:href="#linearGradient14255"
       id="radialGradient14257"
       cx="560"
       cy="16"
       fx="560"
       fy="16"
       r="9"
       gradientUnits="userSpaceOnUse"
       gradientTransform="matrix(0.91538385,0,0,0.91538385,15.375434,1.3532593)" /><linearGradient
       id="linearGradient14255"><stop
         style="stop-color:#e570f7;stop-opacity:1;"
         offset="0"
         id="stop14251" /><stop
         style="stop-color:#d829c8;stop-opacity:1;"
         offset="1"
         id="stop14253" /></linearGradient><linearGradient
       xlink:href="#linearGradient16452"
       id="linearGradient16454"
       x1="560"
       y1="25"
       x2="560"
       y2="11"
       gradientUnits="userSpaceOnUse"
       gradientTransform="translate(-32)" /><linearGradient
       id="linearGradient16452"><stop
         style="stop-color:#f6cff4;stop-opacity:1;"
         offset="0"
         id="stop16450" /><stop
         style="stop-color:#ffffff;stop-opacity:1;"
         offset="1"
         id="stop16448" /></linearGradient></defs><title
     id="title132">Prism Launcher Logo</title><metadata
     id="metadata166"><rdf:RDF><cc:Work
         rdf:about=""><dc:title>Prism Launcher Logo</dc:title><dc:date>19/10/2022</dc:date><dc:creator><cc:Agent><dc:title>Prism Launcher</dc:title></cc:Agent></dc:creator><dc:contributor><cc:Agent><dc:title>AutiOne, Boba, ely, Fulmine, gon sawa, Pankakes, tobimori, Zeke</dc:title></cc:Agent></dc:contributor><dc:source>https://github.com/PrismLauncher/PrismLauncher</dc:source><dc:rights><cc:Agent><dc:title>CC BY-SA 4.0</dc:title></cc:Agent></dc:rights><dc:publisher><cc:Agent><dc:title>Prism Launcher</dc:title></cc:Agent></dc:publisher></cc:Work></rdf:RDF></metadata><g
     id="i_magitech"
     transform="translate(-516,-4)"><path
       style="opacity:1;fill:url(#radialGradient16443);fill-opacity:1;stroke:none;stroke-width:0.328827;paint-order:stroke markers fill;stop-color:#000000"
       id="path63885"
       d="m 567.75822,23.780557 c -1.02129,1.017197 -1.40469,3.26498 -2.72399,3.814557 -1.3193,0.549578 -3.76804,-0.657585 -5.20836,-0.687167 -1.44032,-0.02958 -3.32578,1.488919 -4.65697,0.936933 -1.33119,-0.551986 -2.06769,-2.91036 -3.08281,-3.927341 -1.01511,-1.016982 -3.30517,-1.550442 -3.83572,-2.877061 -0.53055,-1.326619 0.75095,-3.615262 0.76004,-5.050859 0.009,-1.435596 -1.30602,-3.611418 -0.75806,-4.936294 0.54796,-1.3248769 2.7981,-1.6627753 3.83368,-2.6540083 1.03559,-0.9912328 1.77327,-3.6016077 3.08037,-4.1709394 1.3071,-0.5693318 3.41767,0.6823629 4.85198,0.6871672 1.43432,0.0048 3.67769,-1.1020263 5.01335,-0.5805511 1.33567,0.5214752 1.68844,2.9320874 2.72643,3.9273412 1.03799,0.9952536 3.30533,1.5532379 3.83572,2.8770604 0.53039,1.323824 -0.73478,3.255376 -0.76004,4.694477 -0.0253,1.439101 1.28343,3.594239 0.75806,4.936295 -0.52537,1.342056 -2.8124,1.993192 -3.83368,3.01039 z"
       transform="matrix(0.77720995,0.20825278,-0.20825278,0.77720995,96.078534,-113.04768)" /><path
       id="rect68163"
       style="fill:url(#radialGradient14257);fill-opacity:1;stroke:none;stroke-width:0.264583;paint-order:stroke markers fill;stop-color:#000000"
       d="m 528.64654,8.1238816 c -0.88525,-0.058796 -2.03882,1.1746971 -2.89455,1.4267114 -0.85572,0.2520155 -2.19516,-0.2057082 -2.87666,0.3700866 -0.68152,0.5757944 -0.57701,2.1554034 -0.99227,2.9463914 -0.41525,0.79099 -1.77713,1.689562 -1.86295,2.574518 -0.0858,0.884955 1.02746,1.834893 1.29799,2.687153 0.27054,0.85226 0.002,2.366339 0.58106,3.051875 0.57813,0.685534 2.05494,0.383747 2.84269,0.811687 0.78774,0.427941 1.79544,1.795111 2.68179,1.868314 0.88635,0.07321 1.74074,-1.059712 2.59597,-1.330167 0.85524,-0.270456 2.30644,0.02321 2.98037,-0.56854 0.67391,-0.591748 0.56704,-2.156299 0.99225,-2.944604 0.42521,-0.788304 1.67594,-1.494488 1.76105,-2.377852 0.0851,-0.883365 -1.0086,-1.840366 -1.29799,-2.687153 -0.2894,-0.846786 0.20315,-2.280018 -0.38618,-2.949967 -0.58933,-0.669948 -2.14415,-0.699521 -2.93567,-1.1120483 -0.7915,-0.4125278 -1.60167,-1.7076097 -2.4869,-1.7664051 z" /><path
       id="rect67092"
       style="fill:url(#linearGradient16454);fill-opacity:1;stroke:none;stroke-width:0.264583;paint-order:stroke markers fill;stop-color:#000000"
       d="M 530,11.419922 V 15 l -2,1 -2,-1 v -3.576172 c -1.82001,0.79431 -2.99746,2.590392 -3,4.576172 0,2.049733 1.2349,3.810136 3,4.582031 v 2.435547 c 0.47576,0.420763 0.96578,0.80592 1.42383,0.84375 0.87952,0.07265 1.72754,-1.040827 2.57617,-1.322266 v -1.957031 c 1.7651,-0.771895 3,-2.532298 3,-4.582031 -9.9e-4,-1.987198 -1.1787,-3.785199 -3,-4.580078 z" /><rect
       style="fill:#ffffff;fill-opacity:0;stroke:none;stroke-width:0.264583;paint-order:stroke markers fill;stop-color:#000000"
       id="rect128412-0"
       width="24"
       height="24"
       x="516"
       y="4" /></g></svg>
