<?xml version="1.0" encoding="UTF-8" standalone="no"?>
<!-- Created with Inkscape (http://www.inkscape.org/) -->

<svg
   width="32"
   height="32"
   version="1.1"
   viewBox="0 0 32 32"
   id="svg168"
   xml:space="preserve"
   xmlns:xlink="http://www.w3.org/1999/xlink"
   xmlns="http://www.w3.org/2000/svg"
   xmlns:svg="http://www.w3.org/2000/svg"
   xmlns:rdf="http://www.w3.org/1999/02/22-rdf-syntax-ns#"
   xmlns:cc="http://creativecommons.org/ns#"
   xmlns:dc="http://purl.org/dc/elements/1.1/"><defs
     id="defs172"><radialGradient
       xlink:href="#linearGradient16441"
       id="radialGradient16443"
       cx="559.9212"
       cy="16.022875"
       fx="559.9212"
       fy="16.022875"
       r="11.80246"
       gradientTransform="matrix(1,0,0,1.0119015,0,-0.19069696)"
       gradientUnits="userSpaceOnUse" /><linearGradient
       id="linearGradient16441"><stop
         style="stop-color:#9f0bff;stop-opacity:1;"
         offset="0.4400529"
         id="stop16439" /><stop
         style="stop-color:#7111f8;stop-opacity:1;"
         offset="1"
         id="stop16437" /></linearGradient><radialGradient
       xlink:href="#linearGradient14255"
       id="radialGradient14257"
       cx="560"
       cy="16"
       fx="560"
       fy="16"
       r="9"
       gradientUnits="userSpaceOnUse"
       gradientTransform="translate(-32)" /><linearGradient
       id="linearGradient14255"><stop
         style="stop-color:#e570f7;stop-opacity:1;"
         offset="0"
         id="stop14251" /><stop
         style="stop-color:#d829c8;stop-opacity:1;"
         offset="1"
         id="stop14253" /></linearGradient><linearGradient
       xlink:href="#linearGradient16452"
       id="linearGradient16454"
       x1="560"
       y1="25"
       x2="560"
       y2="11"
       gradientUnits="userSpaceOnUse"
       gradientTransform="translate(-32)" /><linearGradient
       id="linearGradient16452"><stop
         style="stop-color:#f6cff4;stop-opacity:1;"
         offset="0"
         id="stop16450" /><stop
         style="stop-color:#ffffff;stop-opacity:1;"
         offset="1"
         id="stop16448" /></linearGradient></defs><title
     id="title132">Prism Launcher Logo</title><metadata
     id="metadata166"><rdf:RDF><cc:Work
         rdf:about=""><dc:title>Prism Launcher Logo</dc:title><dc:date>19/10/2022</dc:date><dc:creator><cc:Agent><dc:title>Prism Launcher</dc:title></cc:Agent></dc:creator><dc:contributor><cc:Agent><dc:title>AutiOne, Boba, ely, Fulmine, gon sawa, Pankakes, tobimori, Zeke</dc:title></cc:Agent></dc:contributor><dc:source>https://github.com/PrismLauncher/PrismLauncher</dc:source><dc:rights><cc:Agent><dc:title>CC BY-SA 4.0</dc:title></cc:Agent></dc:rights><dc:publisher><cc:Agent><dc:title>Prism Launcher</dc:title></cc:Agent></dc:publisher></cc:Work></rdf:RDF></metadata><g
     id="i_magitech"
     transform="translate(-512)"><path
       style="opacity:1;fill:url(#radialGradient16443);fill-opacity:1;stroke:none;stroke-width:0.264583;paint-order:stroke markers fill;stop-color:#000000"
       id="path63885"
       d="m 567.75822,23.780557 c -1.02129,1.017197 -1.40469,3.26498 -2.72399,3.814557 -1.3193,0.549578 -3.76804,-0.657585 -5.20836,-0.687167 -1.44032,-0.02958 -3.32578,1.488919 -4.65697,0.936933 -1.33119,-0.551986 -2.06769,-2.91036 -3.08281,-3.927341 -1.01511,-1.016982 -3.30517,-1.550442 -3.83572,-2.877061 -0.53055,-1.326619 0.75095,-3.615262 0.76004,-5.050859 0.009,-1.435596 -1.30602,-3.611418 -0.75806,-4.936294 0.54796,-1.3248769 2.7981,-1.6627753 3.83368,-2.6540083 1.03559,-0.9912328 1.77327,-3.6016077 3.08037,-4.1709394 1.3071,-0.5693318 3.41767,0.6823629 4.85198,0.6871672 1.43432,0.0048 3.67769,-1.1020263 5.01335,-0.5805511 1.33567,0.5214752 1.68844,2.9320874 2.72643,3.9273412 1.03799,0.9952536 3.30533,1.5532379 3.83572,2.8770604 0.53039,1.323824 -0.73478,3.255376 -0.76004,4.694477 -0.0253,1.439101 1.28343,3.594239 0.75806,4.936295 -0.52537,1.342056 -2.8124,1.993192 -3.83368,3.01039 z"
       transform="rotate(15,543.92119,-105.50919)" /><path
       id="rect68163"
       style="fill:url(#radialGradient14257);fill-opacity:1;stroke:none;stroke-width:0.264583;paint-order:stroke markers fill;stop-color:#000000"
       d="m 528.7168,7.3964844 c -0.96708,-0.06423 -2.22729,1.2832831 -3.16211,1.5585937 -0.93482,0.2753107 -2.39808,-0.2247232 -3.14258,0.4042969 -0.74451,0.62902 -0.63034,2.354644 -1.08399,3.21875 -0.45364,0.864106 -1.94141,1.845741 -2.03515,2.8125 -0.0937,0.966759 1.12243,2.004506 1.41797,2.935547 0.29554,0.931041 0.003,2.585079 0.63476,3.333984 0.63158,0.748905 2.24491,0.419221 3.10547,0.886719 0.86056,0.467498 1.96141,1.961046 2.92969,2.041016 0.96828,0.07997 1.90165,-1.157669 2.83594,-1.453125 0.93429,-0.295456 2.51963,0.02535 3.25586,-0.621094 0.73622,-0.646447 0.61947,-2.355623 1.08398,-3.216797 0.46451,-0.861174 1.83086,-1.632635 1.92383,-2.597656 0.093,-0.965021 -1.10183,-2.010486 -1.41797,-2.935547 -0.31614,-0.925061 0.22193,-2.490779 -0.42188,-3.222656 -0.6438,-0.7318773 -2.34235,-0.7641832 -3.20703,-1.2148441 -0.86467,-0.4506611 -1.74972,-1.8654573 -2.71679,-1.9296875 z" /><path
       id="rect67092"
       style="fill:url(#linearGradient16454);fill-opacity:1;stroke:none;stroke-width:0.264583;paint-order:stroke markers fill;stop-color:#000000"
       d="M 530,11.419922 V 15 l -2,1 -2,-1 v -3.576172 c -1.82001,0.794311 -2.99746,2.59039 -3,4.576172 0,2.049735 1.2349,3.810135 3,4.582031 v 3.234375 c 0.46487,0.396828 0.93605,0.734748 1.38086,0.771485 0.89284,0.07374 1.75759,-0.970061 2.61914,-1.365235 v -2.640625 c 1.7651,-0.771896 3,-2.532296 3,-4.582031 -9.9e-4,-1.9872 -1.1787,-3.785198 -3,-4.580078 z" /><rect
       style="fill:#ffffff;fill-opacity:0;stroke:none;stroke-width:0.264583;paint-order:stroke markers fill;stop-color:#000000"
       id="rect128412-0"
       width="32"
       height="32"
       x="512"
       y="0" /></g></svg>
