<?xml version="1.0" encoding="UTF-8" standalone="no"?>
<!-- Created with Inkscape (http://www.inkscape.org/) -->

<svg
   width="32"
   height="32"
   version="1.1"
   viewBox="0 0 32 32"
   id="svg168"
   xml:space="preserve"
   xmlns="http://www.w3.org/2000/svg"
   xmlns:svg="http://www.w3.org/2000/svg"
   xmlns:rdf="http://www.w3.org/1999/02/22-rdf-syntax-ns#"
   xmlns:cc="http://creativecommons.org/ns#"
   xmlns:dc="http://purl.org/dc/elements/1.1/"><defs
     id="defs172" /><title
     id="title132">Prism Launcher Logo</title><metadata
     id="metadata166"><rdf:RDF><cc:Work
         rdf:about=""><dc:title>Prism Launcher Logo</dc:title><dc:date>19/10/2022</dc:date><dc:creator><cc:Agent><dc:title>Prism Launcher</dc:title></cc:Agent></dc:creator><dc:contributor><cc:Agent><dc:title>AutiOne, Boba, ely, Fulmine, gon sawa, Pankakes, tobimori, Zeke</dc:title></cc:Agent></dc:contributor><dc:source>https://github.com/PrismLauncher/PrismLauncher</dc:source><dc:rights><cc:Agent><dc:title>CC BY-SA 4.0</dc:title></cc:Agent></dc:rights><dc:publisher><cc:Agent><dc:title>Prism Launcher</dc:title></cc:Agent></dc:publisher></cc:Work></rdf:RDF></metadata><g
     id="i_meat"
     transform="translate(-544)"><path
       id="rect80640"
       style="opacity:1;fill:#dfdfdf;fill-opacity:1;stroke:none;stroke-width:0.264583;paint-order:stroke markers fill;stop-color:#000000"
       d="m 568.48528,21.449747 a 1.5,1.5 0 0 0 -1.70424,-0.290027 l -2.18485,-2.184846 c -0.39173,-0.391738 -1.02247,-0.391737 -1.41421,0 l -0.70711,0.707106 c -0.39173,0.391737 -0.39173,1.022477 0,1.414214 l 2.18485,2.184847 a 1.5,1.5 0 0 0 0.29003,1.70424 1.5,1.5 0 0 0 2.12132,0 1.5,1.5 0 0 0 0.4378,-0.979175 1.5,1.5 0 0 0 0.97641,-0.435038 1.5,1.5 0 0 0 0,-2.121321 z" /><rect
       style="opacity:1;fill:#956c4a;fill-opacity:1;stroke:none;stroke-width:0.264583;paint-order:stroke markers fill;stop-color:#000000"
       id="rect74200"
       width="16"
       height="11"
       x="397.64703"
       y="-389.8125"
       ry="4"
       rx="0"
       transform="rotate(45)" /><rect
       style="opacity:1;fill:#d15e65;fill-opacity:1;stroke:none;stroke-width:0.264583;paint-order:stroke markers fill;stop-color:#000000"
       id="rect74196"
       width="8"
       height="11"
       x="396.64703"
       y="-389.8125"
       ry="4"
       rx="3"
       transform="rotate(45)" /><rect
       style="opacity:1;fill:#dfdfdf;fill-opacity:1;stroke:none;stroke-width:0.264583;paint-order:stroke markers fill;stop-color:#000000"
       id="rect79410"
       width="2"
       height="3"
       x="399.64703"
       y="-385.8125"
       ry="1"
       transform="rotate(45)" /><rect
       style="fill:#ffffff;fill-opacity:0;stroke:none;stroke-width:0.264583;paint-order:stroke markers fill;stop-color:#000000"
       id="rect128412-7-61"
       width="32"
       height="32"
       x="544"
       y="0" /></g></svg>
