<svg height="24" viewBox="0 0 24 24" width="24" xmlns="http://www.w3.org/2000/svg" xmlns:xlink="http://www.w3.org/1999/xlink">
  <linearGradient id="a" gradientUnits="userSpaceOnUse" x1="565" x2="567" y1="23" y2="21">
    <stop offset="0" stop-color="#cdcdcd"/>
    <stop offset="1" stop-color="#eee"/>
  </linearGradient>
  <linearGradient id="b" gradientUnits="userSpaceOnUse" x1="408.70773" x2="408.70773" y1="-379.00925" y2="-389.8125">
    <stop offset="0" stop-color="#956c4a"/>
    <stop offset="1" stop-color="#bb7c47"/>
  </linearGradient>
  <linearGradient id="c" gradientUnits="userSpaceOnUse" x1="401.63666" x2="401.63666" y1="-379.00925" y2="-389.8125">
    <stop offset="0" stop-color="#d15e65"/>
    <stop offset="1" stop-color="#b2594e"/>
  </linearGradient>
  <title>Prism Launcher Logo</title>
  <metadata/>
  <g transform="translate(-548 -4)">
    <path d="m568.48528 21.449747a1.5 1.5 0 0 0 -1.70424-.290027l-2.18485-2.184846c-.39173-.391738-1.02247-.391737-1.41421 0l-.70711.707106c-.39173.391737-.39173 1.022477 0 1.414214l2.18485 2.184847a1.5 1.5 0 0 0 .29003 1.70424 1.5 1.5 0 0 0 2.12132 0 1.5 1.5 0 0 0 .4378-.979175 1.5 1.5 0 0 0 .97641-.435038 1.5 1.5 0 0 0 0-2.121321z" fill="url(#a)"/>
    <g transform="matrix(.70710678 .70710678 -.70710678 .70710678 0 0)">
      <rect fill="url(#b)" height="11" rx="4" width="16" x="397.64703" y="-389.8125"/>
      <rect fill="url(#c)" height="11" rx="3" ry="4" width="8" x="396.64703" y="-389.8125"/>
      <rect fill="#dfdfdf" height="3" ry="1" width="2" x="399.64703" y="-385.8125"/>
    </g>
    <rect fill="none" height="24" width="24" x="548" y="4"/>
  </g>
</svg>
