<svg width="16" height="16" viewBox="0 0 16 16" fill="none" xmlns="http://www.w3.org/2000/svg">
<mask id="mask0_72_71" style="mask-type:alpha" maskUnits="userSpaceOnUse" x="0" y="0" width="16" height="16">
<rect width="16" height="16" rx="3" fill="#D9AA81"/>
</mask>
<g mask="url(#mask0_72_71)">
<rect width="16" height="16" rx="3" fill="url(#paint0_linear_72_71)"/>
<rect y="2" width="4" height="2" fill="#C9D6D8"/>
<rect x="4" width="2" height="2" fill="#C9D6D8"/>
<rect width="4" height="2" transform="matrix(-1 0 0 1 16 2)" fill="#C9D6D8"/>
<rect width="2" height="2" transform="matrix(-1 0 0 1 12 0)" fill="#C9D6D8"/>
<rect x="12" y="12" width="2" height="2" fill="#ADC0C2"/>
<rect x="2" y="14" width="2" height="2" fill="#ADC0C2"/>
<rect x="6" y="4" width="2" height="6" transform="rotate(90 6 4)" fill="#1C1C1C"/>
<rect x="10" y="12" width="2" height="4" transform="rotate(90 10 12)" fill="#1C1C1C"/>
<path d="M6 6L6 8L4 8L4 12L2 12L2 6L6 6Z" fill="#ADC0C2"/>
<path d="M10 6L10 8L12 8L12 10L14 10L14 6L10 6Z" fill="#ADC0C2"/>
<rect x="10" y="6" width="2" height="6" transform="rotate(-90 10 6)" fill="#1C1C1C"/>
</g>
<defs>
<linearGradient id="paint0_linear_72_71" x1="8" y1="0" x2="8" y2="16" gradientUnits="userSpaceOnUse">
<stop offset="0.0001" stop-color="#ECF0F2"/>
<stop offset="1" stop-color="#E0E6EA"/>
</linearGradient>
</defs>
</svg>
