<svg width="16" height="16" viewBox="0 0 16 16" fill="none" xmlns="http://www.w3.org/2000/svg">
<mask id="mask0_56_1208" style="mask-type:alpha" maskUnits="userSpaceOnUse" x="0" y="0" width="16" height="16">
<rect width="16" height="16" rx="3" fill="#D9AA81"/>
</mask>
<g mask="url(#mask0_56_1208)">
<rect width="16" height="16" rx="3" fill="url(#paint0_linear_56_1208)"/>
<rect y="4" width="16" height="4" fill="#09AACD"/>
<rect y="4" width="2" height="2" fill="#29C8DE"/>
<rect x="14" y="4" width="2" height="2" fill="#29C8DE"/>
<rect x="4" y="6" width="2" height="8" fill="white"/>
<rect x="10" y="6" width="2" height="8" fill="white"/>
<rect width="2" height="8" transform="matrix(-1 0 0 1 14 6)" fill="#A2E1EA"/>
<rect width="2" height="8" transform="matrix(-1 0 0 1 4 6)" fill="#A2E1EA"/>
<path d="M0 0H16V4H0V0Z" fill="#3CDFF5"/>
<rect y="14" width="2" height="2" fill="#09AACD"/>
<rect x="14" y="14" width="2" height="2" fill="#09AACD"/>
</g>
<defs>
<linearGradient id="paint0_linear_56_1208" x1="8" y1="0" x2="8" y2="16" gradientUnits="userSpaceOnUse">
<stop stop-color="#2FCFF2"/>
<stop offset="1" stop-color="#2EBAD9"/>
</linearGradient>
</defs>
</svg>
