<svg width="16" height="16" viewBox="0 0 16 16" fill="none" xmlns="http://www.w3.org/2000/svg">
<mask id="mask0_47_877" style="mask-type:alpha" maskUnits="userSpaceOnUse" x="0" y="0" width="16" height="16">
<rect width="16" height="16" rx="3" fill="#D9AA81"/>
</mask>
<g mask="url(#mask0_47_877)">
<rect width="16" height="16" rx="3" fill="url(#paint0_linear_47_877)"/>
<path d="M14 0V2H12V4H10V6H12V4H14V2H16V0H14Z" fill="#F28E31"/>
<path d="M2 0V2H4V4H6V6H4V4H2V2H0V0H2Z" fill="#F28E31"/>
<path d="M2 4H0V2H2V4H4V6H2V4Z" fill="#E86922"/>
<path d="M14 4H16V2H14V4H12V6H14V4Z" fill="#E86922"/>
<rect y="10" width="2" height="2" fill="#25174D"/>
<path d="M0 12H2V14H4V16H0V12Z" fill="#5B61E9"/>
<path d="M12 14H14V12H16V16H12V14Z" fill="#5B61E9"/>
<rect x="6" y="10" width="4" height="2" fill="#8B3DC9"/>
<rect x="14" y="10" width="2" height="2" fill="#25174D"/>
</g>
<defs>
<linearGradient id="paint0_linear_47_877" x1="8" y1="0" x2="8" y2="16" gradientUnits="userSpaceOnUse">
<stop stop-color="#888DFA"/>
<stop offset="1" stop-color="#6E73ED"/>
</linearGradient>
</defs>
</svg>
