<svg width="16" height="16" viewBox="0 0 16 16" fill="none" xmlns="http://www.w3.org/2000/svg">
<mask id="mask0_47_1009" style="mask-type:alpha" maskUnits="userSpaceOnUse" x="0" y="0" width="16" height="16">
<rect width="16" height="16" rx="3" fill="#D9AA81"/>
</mask>
<g mask="url(#mask0_47_1009)">
<rect width="16" height="16" rx="3" fill="url(#paint0_linear_47_1009)"/>
<path d="M6 4H10V6H6V8H10V6H12V8H16V16H0V8H4V6H6V4Z" fill="url(#paint1_linear_47_1009)"/>
<rect x="4" y="10" width="2" height="2" fill="#E1B46F"/>
<rect x="12" y="10" width="2" height="2" fill="#E1B46F"/>
<rect x="8" y="14" width="2" height="2" fill="#E1B46F"/>
<rect x="10" y="6" width="2" height="2" fill="#E1B46F"/>
<rect x="14" y="6" width="2" height="2" fill="#E1B46F"/>
<rect y="6" width="2" height="2" fill="#E1B46F"/>
<rect x="6" y="8" width="4" height="2" fill="#E1B46F"/>
<rect y="14" width="2" height="2" fill="#E1B46F"/>
<rect x="4" y="2" width="2" height="2" fill="white"/>
<rect x="2" y="2" width="2" height="2" fill="#1C1C1C"/>
<rect x="12" y="2" width="2" height="2" fill="#1C1C1C"/>
<rect x="10" y="2" width="2" height="2" fill="white"/>
<rect x="6" y="6" width="4" height="2" fill="#40321D"/>
</g>
<defs>
<linearGradient id="paint0_linear_47_1009" x1="8" y1="0" x2="8" y2="16" gradientUnits="userSpaceOnUse">
<stop stop-color="#E6AA50"/>
<stop offset="1" stop-color="#B4833B"/>
</linearGradient>
<linearGradient id="paint1_linear_47_1009" x1="8" y1="4" x2="8" y2="16" gradientUnits="userSpaceOnUse">
<stop stop-color="#F0E6C0"/>
<stop offset="1" stop-color="#E8D697"/>
</linearGradient>
</defs>
</svg>
