<svg width="16" height="16" viewBox="0 0 16 16" fill="none" xmlns="http://www.w3.org/2000/svg">
<mask id="mask0_47_746" style="mask-type:alpha" maskUnits="userSpaceOnUse" x="0" y="0" width="16" height="16">
<rect width="16" height="16" rx="3" fill="#D9AA81"/>
</mask>
<g mask="url(#mask0_47_746)">
<rect width="16" height="16" rx="3" fill="url(#paint0_linear_47_746)"/>
<rect y="8" width="4" height="2" fill="#C4D3D3"/>
<rect x="12" y="8" width="4" height="2" fill="#C4D3D3"/>
<rect x="2" y="2" width="2" height="2" fill="#C4D3D3"/>
<path d="M16 0H12V2H14V4H16V0Z" fill="white"/>
<rect width="2" height="2" transform="matrix(-1 0 0 1 14 2)" fill="#C4D3D3"/>
<rect x="6" y="12" width="4" height="2" fill="#1C1C1C"/>
<path d="M0 0H4V2H2V4H0V0Z" fill="white"/>
<rect y="10" width="2" height="2" fill="#1C1C1C"/>
<rect x="2" y="10" width="2" height="2" fill="white"/>
<path d="M4 12H6V14H10V12H12V16H4V12Z" fill="white"/>
<rect x="14" y="10" width="2" height="2" fill="#1C1C1C"/>
<rect x="12" y="10" width="2" height="2" fill="white"/>
</g>
<defs>
<linearGradient id="paint0_linear_47_746" x1="8" y1="0" x2="8" y2="16" gradientUnits="userSpaceOnUse">
<stop stop-color="#F5FFFF"/>
<stop offset="1" stop-color="#ECF1F1"/>
<stop offset="1" stop-color="#E6ECEC"/>
</linearGradient>
</defs>
</svg>
