<svg width="16" height="16" viewBox="0 0 16 16" fill="none" xmlns="http://www.w3.org/2000/svg">
<mask id="mask0_47_999" style="mask-type:alpha" maskUnits="userSpaceOnUse" x="0" y="0" width="16" height="16">
<rect width="16" height="16" rx="3" fill="#D9AA81"/>
</mask>
<g mask="url(#mask0_47_999)">
<rect width="16" height="16" rx="3" fill="url(#paint0_linear_47_999)"/>
<rect x="4" y="6" width="2" height="2" fill="white"/>
<rect x="2" y="6" width="2" height="2" fill="#1C1C1C"/>
<rect x="12" y="6" width="2" height="2" fill="#1C1C1C"/>
<rect x="10" y="6" width="2" height="2" fill="white"/>
<rect x="6" y="10" width="4" height="2" fill="#FABAC2"/>
<rect x="6" y="12" width="4" height="2" fill="#D0868F"/>
<path d="M0 0H16L14 4H2V10H4V14H12V10H14V4L16 0V16H0V0Z" fill="url(#paint1_linear_47_999)"/>
</g>
<defs>
<linearGradient id="paint0_linear_47_999" x1="8" y1="0" x2="8" y2="16" gradientUnits="userSpaceOnUse">
<stop stop-color="#A5876B"/>
<stop offset="1" stop-color="#624E3A"/>
</linearGradient>
<linearGradient id="paint1_linear_47_999" x1="8" y1="0" x2="8" y2="16" gradientUnits="userSpaceOnUse">
<stop stop-color="#FAFAFA"/>
<stop offset="1" stop-color="#E2E2E2"/>
</linearGradient>
</defs>
</svg>
