<svg width="16" height="16" viewBox="0 0 16 16" fill="none" xmlns="http://www.w3.org/2000/svg">
<mask id="mask0_47_952" style="mask-type:alpha" maskUnits="userSpaceOnUse" x="0" y="0" width="16" height="16">
<rect width="16" height="16" rx="3" fill="#D9AA81"/>
</mask>
<g mask="url(#mask0_47_952)">
<rect width="16" height="16" rx="3" fill="url(#paint0_linear_47_952)"/>
<rect y="6" width="2" height="2" fill="#1C1C1C"/>
<path d="M2 6H0V4H4V8H2V6Z" fill="white"/>
<path d="M14 6H16V4H12V8H14V6Z" fill="white"/>
<rect x="14" y="6" width="2" height="2" fill="#1C1C1C"/>
<path d="M4 10H12V12H4V10Z" fill="#B7B7B7"/>
<path d="M6 0H10V2H12V4H10V6H8V8H6V0Z" fill="#AEAEAE"/>
<path d="M4 14H6V12H10V14H12V16H4V14Z" fill="#444444"/>
<path d="M2 12H4V16H2V12Z" fill="#B7B7B7"/>
<path d="M10 0H14V2H10V0Z" fill="#727272"/>
<path d="M12 12H14V16H12V12Z" fill="#B7B7B7"/>
<path d="M10 12H12V14H10V12Z" fill="#1C1C1C"/>
<path d="M4 12H6V14H4V12Z" fill="#1C1C1C"/>
</g>
<defs>
<linearGradient id="paint0_linear_47_952" x1="8" y1="0" x2="8" y2="16" gradientUnits="userSpaceOnUse">
<stop stop-color="#4B3E31"/>
<stop offset="1" stop-color="#392D22"/>
</linearGradient>
</defs>
</svg>
