<svg width="16" height="16" viewBox="0 0 16 16" fill="none" xmlns="http://www.w3.org/2000/svg">
<mask id="mask0_47_912" style="mask-type:alpha" maskUnits="userSpaceOnUse" x="0" y="0" width="16" height="16">
<rect width="16" height="16" rx="3" fill="#D9AA81"/>
</mask>
<g mask="url(#mask0_47_912)">
<rect width="16" height="16" rx="3" fill="url(#paint0_linear_47_912)"/>
<rect x="2" y="6" width="2" height="2" fill="#1E1D20"/>
<rect x="2" y="8" width="2" height="2" fill="#363439"/>
<rect x="4" y="8" width="2" height="2" fill="#1E1D20"/>
<rect x="2" y="10" width="2" height="2" fill="#1E1D20"/>
<rect x="10" y="8" width="2" height="2" fill="#1E1D20"/>
<rect x="10" y="10" width="2" height="2" fill="#363439"/>
<rect x="12" y="10" width="2" height="2" fill="#1E1D20"/>
<rect x="12" y="8" width="2" height="2" fill="#363439"/>
<rect x="12" y="6" width="2" height="2" fill="#1E1D20"/>
<rect x="4" y="10" width="2" height="2" fill="#363439"/>
<rect x="4" y="2" width="2" height="2" fill="#1E1D20"/>
<rect x="10" y="2" width="2" height="2" fill="#1E1D20"/>
<rect x="2" y="4" width="2" height="2" fill="#F79C48"/>
<rect x="12" y="4" width="2" height="2" fill="#F79C48"/>
<rect y="14" width="16" height="2" fill="#F79C48"/>
<rect x="4" y="6" width="2" height="2" fill="#7BD5DB"/>
<rect x="10" y="6" width="2" height="2" fill="#7BD5DB"/>
</g>
<defs>
<linearGradient id="paint0_linear_47_912" x1="8" y1="0" x2="8" y2="16" gradientUnits="userSpaceOnUse">
<stop stop-color="#FFD74A"/>
<stop offset="1" stop-color="#FACE30"/>
</linearGradient>
</defs>
</svg>
