<?xml version="1.0" encoding="UTF-8" standalone="no"?>
<!-- Created with Inkscape (http://www.inkscape.org/) -->

<svg
   width="32"
   height="32"
   version="1.1"
   viewBox="0 0 32 32"
   id="svg168"
   xml:space="preserve"
   sodipodi:docname="modrinth.svg"
   inkscape:version="1.2.1 (9c6d41e4, 2022-07-14)"
   xmlns:inkscape="http://www.inkscape.org/namespaces/inkscape"
   xmlns:sodipodi="http://sodipodi.sourceforge.net/DTD/sodipodi-0.dtd"
   xmlns:xlink="http://www.w3.org/1999/xlink"
   xmlns="http://www.w3.org/2000/svg"
   xmlns:svg="http://www.w3.org/2000/svg"
   xmlns:rdf="http://www.w3.org/1999/02/22-rdf-syntax-ns#"
   xmlns:cc="http://creativecommons.org/ns#"
   xmlns:dc="http://purl.org/dc/elements/1.1/"><sodipodi:namedview
     id="namedview147"
     pagecolor="#ffffff"
     bordercolor="#666666"
     borderopacity="1.0"
     inkscape:showpageshadow="2"
     inkscape:pageopacity="0.0"
     inkscape:pagecheckerboard="0"
     inkscape:deskcolor="#d1d1d1"
     showgrid="false"
     inkscape:zoom="32.09375"
     inkscape:cx="14.53554"
     inkscape:cy="16.155794"
     inkscape:window-width="2365"
     inkscape:window-height="1225"
     inkscape:window-x="0"
     inkscape:window-y="25"
     inkscape:window-maximized="0"
     inkscape:current-layer="i_modrinth" /><defs
     id="defs172"><linearGradient
       id="linearGradient3108"><stop
         style="stop-color:#1bd96a;stop-opacity:1;"
         offset="0"
         id="stop3104" /><stop
         style="stop-color:#1bd9a1;stop-opacity:1;"
         offset="1"
         id="stop3106" /></linearGradient><linearGradient
       xlink:href="#linearGradient3108"
       id="linearGradient3110"
       x1="70.852509"
       y1="141.75883"
       x2="70.852509"
       y2="0.053809531"
       gradientUnits="userSpaceOnUse" /><linearGradient
       xlink:href="#linearGradient3108"
       id="linearGradient50774"
       gradientUnits="userSpaceOnUse"
       x1="70.852509"
       y1="141.75883"
       x2="70.852509"
       y2="0.053809531" /><linearGradient
       xlink:href="#linearGradient3108"
       id="linearGradient50776"
       gradientUnits="userSpaceOnUse"
       x1="70.852509"
       y1="141.75883"
       x2="70.852509"
       y2="0.053809531" /></defs><title
     id="title132">Prism Launcher Logo</title><metadata
     id="metadata166"><rdf:RDF><cc:Work
         rdf:about=""><dc:title>Prism Launcher Logo</dc:title><dc:date>19/10/2022</dc:date><dc:creator><cc:Agent><dc:title>Prism Launcher</dc:title></cc:Agent></dc:creator><dc:contributor><cc:Agent><dc:title>AutiOne, Boba, ely, Fulmine, gon sawa, Pankakes, tobimori, Zeke</dc:title></cc:Agent></dc:contributor><dc:source>https://github.com/PrismLauncher/PrismLauncher</dc:source><dc:rights><cc:Agent><dc:title>CC BY-SA 4.0</dc:title></cc:Agent></dc:rights><dc:publisher><cc:Agent><dc:title>Prism Launcher</dc:title></cc:Agent></dc:publisher></cc:Work></rdf:RDF></metadata><g
     id="i_modrinth"
     transform="translate(-576)"><g
       id="g83832"
       transform="matrix(0.22103871,0,0,0.22233538,576.35444,0.28511145)"
       style="fill:url(#linearGradient3110);fill-opacity:1"><path
         d="M 159.07,89.29 A 70.94,70.94 0 1 0 20,63.52 H 32 A 58.78,58.78 0 0 1 145.23,49.93 l -11.66,3.12 a 46.54,46.54 0 0 0 -29,-26.52 l -2.15,12.13 a 34.31,34.31 0 0 1 2.77,63.26 l 3.19,11.9 a 46.52,46.52 0 0 0 28.33,-49 l 11.62,-3.1 A 57.94,57.94 0 0 1 147.27,85 Z"
         transform="translate(-19.79)"
         fill="var(--color-brand)"
         fill-rule="evenodd"
         id="path83828"
         style="fill:url(#linearGradient50774);fill-opacity:1" /><path
         d="M 108.92,139.3 A 70.93,70.93 0 0 1 19.79,76 h 12 a 59.48,59.48 0 0 0 1.78,9.91 58.73,58.73 0 0 0 3.63,9.91 l 10.68,-6.41 a 46.58,46.58 0 0 1 44.72,-65 L 90.43,36.54 A 34.38,34.38 0 0 0 57.36,79.75 C 57.67,80.88 58,82 58.43,83 L 72.09,74.81 68,63.93 80.9,50.68 97.21,47.17 101.9,53 l -7.52,7.61 -6.55,2.06 -4.69,4.82 2.3,6.38 c 0,0 4.64,4.94 4.65,4.94 l 6.57,-1.74 4.67,-5.13 10.2,-3.24 3,6.84 L 104.05,88.43 86.41,94 78.49,85.19 64.7,93.48 a 34.44,34.44 0 0 0 28.72,11.59 L 96.61,117 A 46.6,46.6 0 0 1 54.13,99.83 l -10.64,6.38 a 58.81,58.81 0 0 0 99.6,-9.77 l 11.8,4.29 a 70.77,70.77 0 0 1 -45.97,38.57 z"
         fill="var(--color-brand)"
         id="path83830"
         style="fill:url(#linearGradient50776);fill-opacity:1"
         transform="translate(-19.79)" /></g><rect
       style="fill:#ffffff;fill-opacity:0;stroke:none;stroke-width:0.264583;paint-order:stroke markers fill;stop-color:#000000"
       id="rect128412-8-5"
       width="32"
       height="32"
       x="576"
       y="0" /></g></svg>
