<?xml version="1.0" encoding="UTF-8"?>
<!-- Created with Inkscape (http://www.inkscape.org/) -->
<svg width="272" height="272" version="1.1" viewBox="0 0 272 272" xml:space="preserve" xmlns="http://www.w3.org/2000/svg" xmlns:cc="http://creativecommons.org/ns#" xmlns:dc="http://purl.org/dc/elements/1.1/" xmlns:rdf="http://www.w3.org/1999/02/22-rdf-syntax-ns#"><g transform="matrix(1.25,0,0,1.25,-544,-34)" stroke-width="0"><path d="m512 224v16h64v-16h32v-16h16v-32h16v-16h-16l-8-8v-32l8-8v-32l-8-8-16 16h-16l-24-24h-32l-24 24h-16l-16-16-8 8v32l8 8v32l-8 8h-16v16h16v32h16v16z" fill="#a44e37"/><path d="m480 176v16l8 8h112l8-8v-16h16v-16l-8-8 16-16-32-32h-16l-8-8h-16l-8 8v16l-16 16v-32l-8-8h-16l-8 8h-16l-32 32 16 16-8 8v16z" fill="#d7742f"/><path d="m528 144h16v-16h16v-32l-8-8h-16l-8 8z" fill="#e68c37"/><path d="m576 96h32v16h-32z" fill="#bf6134"/><path d="m528 80h32v16h-32z" fill="#bf6134"/><path d="m480 96h32v16h-32z" fill="#bb5f33"/><g fill="#bf6134"><path d="m528 160h32v16h-32z"/><path d="m480 192h32v16h-32z"/><path d="m576 192h32v16h-32z"/></g><path d="m512 192v32h16l8-8h16l8 8h16v-32h-16l-8 8h-16l-8-8z" fill="#f9f4f4"/><path d="m528 208v16h32v-16z" fill="#e7d9d3"/><path d="m528 208v-16h32v16z" fill="#13151a"/><path d="m480 128h16l8 8v24l-8 8h-8l-8-8z" fill="#f9f4f4"/><path d="m480 160h16l8 8-8 8h-16z" fill="#e7d9d3"/><path d="m512 128v16l-8 8-8-8v-16z" fill="#e7d9d3"/><path d="m512 144v16l-8 8-8-8v-16z" fill="#262a33"/><path d="m512 160v16h-16v-16z" fill="#13151a"/><g transform="matrix(-1,0,0,1,1088,0)"><path d="m480 128h16l8 8v24l-8 8h-8l-8-8z" fill="#f9f4f4"/><path d="m480 160h16l8 8-8 8h-16z" fill="#e7d9d3"/><path d="m512 128v16l-8 8-8-8v-16z" fill="#e7d9d3"/><path d="m512 144v16l-8 8-8-8v-16z" fill="#262a33"/><path d="m512 160v16h-16v-16z" fill="#13151a"/></g><path d="m608 96v-16h16v-16h-16v-16h-16v-16h-32v48h16l16 16z" fill="#66534d"/><path d="m608 64v16h-16l-16-16v-16h16v16z" fill="#8d7168"/><path d="m584 88-8-8v-16h16v16z" fill="#e7d9d3"/><path d="m576 80v16h16v-16z" fill="#c7a3b9"/><g transform="matrix(-1,0,0,1,1088,0)"><path d="m608 96v-16h16v-16h-16v-16h-16v-16h-32v48h16l16 16z" fill="#66534d"/><path d="m608 64v16h-16l-16-16v-16h16v16z" fill="#8d7168"/><path d="m584 88-8-8v-16h16v16z" fill="#e7d9d3"/><path d="m576 80v16h16v-16z" fill="#c7a3b9"/></g><g fill="#bb5f33"><path d="m480 112h-16v16h16z"/><path d="m464 128h-16v16h16z"/><path d="m480 144h-16v16h16z"/><path d="m624 144h-16v16h16z"/><path d="m640 128h-16v16h16z"/><path d="m624 112h-16v16h16z"/></g></g><metadata><rdf:RDF><cc:Work rdf:about=""><dc:creator><cc:Agent><dc:title>Sefa Eyeoglu &lt;contact@scrumplex.net&gt;</dc:title></cc:Agent></dc:creator></cc:Work></rdf:RDF></metadata></svg>
