<?xml version="1.0" encoding="UTF-8" standalone="no"?>
<!-- Created with Inkscape (http://www.inkscape.org/) -->

<svg
   width="32"
   height="32"
   version="1.1"
   viewBox="0 0 32 32"
   id="svg168"
   xml:space="preserve"
   xmlns:xlink="http://www.w3.org/1999/xlink"
   xmlns="http://www.w3.org/2000/svg"
   xmlns:svg="http://www.w3.org/2000/svg"
   xmlns:rdf="http://www.w3.org/1999/02/22-rdf-syntax-ns#"
   xmlns:cc="http://creativecommons.org/ns#"
   xmlns:dc="http://purl.org/dc/elements/1.1/"><defs
     id="defs172"><radialGradient
       xlink:href="#linearGradient62774"
       id="radialGradient62776"
       cx="624"
       cy="15"
       fx="624"
       fy="15"
       r="12"
       gradientUnits="userSpaceOnUse" /><linearGradient
       id="linearGradient62774"><stop
         style="stop-color:#f2effd;stop-opacity:1;"
         offset="0.45171013"
         id="stop62772" /><stop
         style="stop-color:#d2cbf3;stop-opacity:1;"
         offset="1"
         id="stop62770" /></linearGradient><radialGradient
       xlink:href="#linearGradient62766"
       id="radialGradient62768"
       cx="624"
       cy="16"
       fx="624"
       fy="16"
       r="6"
       gradientUnits="userSpaceOnUse" /><linearGradient
       id="linearGradient62766"><stop
         style="stop-color:#fafbb9;stop-opacity:1;"
         offset="0"
         id="stop62762" /><stop
         style="stop-color:#fafbb9;stop-opacity:0;"
         offset="1"
         id="stop62764" /></linearGradient></defs><title
     id="title132">Prism Launcher Logo</title><metadata
     id="metadata166"><rdf:RDF><cc:Work
         rdf:about=""><dc:title>Prism Launcher Logo</dc:title><dc:date>19/10/2022</dc:date><dc:creator><cc:Agent><dc:title>Prism Launcher</dc:title></cc:Agent></dc:creator><dc:contributor><cc:Agent><dc:title>AutiOne, Boba, ely, Fulmine, gon sawa, Pankakes, tobimori, Zeke</dc:title></cc:Agent></dc:contributor><dc:source>https://github.com/PrismLauncher/PrismLauncher</dc:source><dc:rights><cc:Agent><dc:title>CC BY-SA 4.0</dc:title></cc:Agent></dc:rights><dc:publisher><cc:Agent><dc:title>Prism Launcher</dc:title></cc:Agent></dc:publisher></cc:Work></rdf:RDF></metadata><g
     id="i_netherstar"
     transform="translate(-608)"><path
       id="path87169-8-4"
       style="fill:url(#radialGradient62776);fill-opacity:1;stroke:none;stroke-width:0.264583;paint-order:stroke markers fill;stop-color:#000000"
       d="m 624,4 c -1,1.999998 -2,3.000001 -3,4 -1,0.999999 0,3.000001 -1,4 -1,0.999999 -3,10e-7 -4,1 -1,0.999999 -2,2.000001 -4,3 2,0.999999 3,2.000001 4,3 1,0.999999 3,1e-6 4,1 1,0.999999 0,3.000001 1,4 1,0.999999 2,2.000002 3,4 1,-1.999998 2,-3.000001 3,-4 1,-0.999999 0,-3.000001 1,-4 1,-0.999999 3,-1e-6 4,-1 1,-0.999999 2,-2.000001 4,-3 -2,-0.999999 -3,-2.000001 -4,-3 -1,-0.999999 -3,-10e-7 -4,-1 -1,-0.999999 0,-3.000001 -1,-4 -1,-0.999999 -2,-2.000002 -3,-4 z" /><path
       style="fill:url(#radialGradient62768);fill-opacity:1;stroke:none;stroke-width:0.132291;paint-order:stroke markers fill;stop-color:#000000"
       d="m 624,22 c 1,-3 3,-5 6,-6 -3,-1 -5,-3 -6,-6 -1,3 -3,5 -6,6 3,1 5,3 6,6 z"
       id="path88076" /><rect
       style="fill:#ffffff;fill-opacity:0;stroke:none;stroke-width:0.264583;paint-order:stroke markers fill;stop-color:#000000"
       id="rect128412-7-6-9"
       width="32"
       height="32"
       x="608"
       y="0" /></g></svg>
