<svg height="24" viewBox="0 0 24 24" width="24" xmlns="http://www.w3.org/2000/svg" xmlns:xlink="http://www.w3.org/1999/xlink">
  <radialGradient id="a" cx="624" cy="14" gradientUnits="userSpaceOnUse" r="12">
    <stop offset=".45171013" stop-color="#f2effd"/>
    <stop offset="1" stop-color="#d2cbf3"/>
  </radialGradient>
  <radialGradient id="b" cx="624" cy="16" gradientUnits="userSpaceOnUse" r="6">
    <stop offset="0" stop-color="#fafbb9"/>
    <stop offset="1" stop-color="#fafbb9" stop-opacity="0"/>
  </radialGradient>
  <linearGradient id="c" gradientUnits="userSpaceOnUse" x1="624" x2="624" y1="7" y2="25">
    <stop offset="0" stop-color="#e7e3fb"/>
    <stop offset="1" stop-color="#e7e3fb" stop-opacity="0"/>
  </linearGradient>
  <title>Prism Launcher Logo</title>
  <metadata/>
  <g transform="translate(-612 -4)">
    <path d="m624 7c-1 2.999997-2 2.5857914-2 4 0 .999999 0 1.000001-1 2-1 .999997-1 1-2 1-1.41421 0-1 1.000001-4 2 3 .999999 2.58579 2 4 2 1 0 1 .000003 2 1 1 .999999 1 1.000001 1 2 0 1.414209 1 1.000003 2 4 1-2.999997 2-2.585791 2-4 0-.999999 0-1.000001 1-2 1-.999997 1-1 2-1 1.41421 0 1-1.000001 4-2-3-.999999-2.58579-2-4-2-1 0-1-.000003-2-1-1-.999999-1-1.000001-1-2 0-1.4142086-1-1.000003-2-4z" fill="url(#a)"/>
    <rect fill="none" height="24" width="24" x="612" y="4"/>
    <path d="m624 19c1-2 1-2 3-3-2-1-2-1-3-3-1 2-1 2-3 3 2 1 2 1 3 3z" fill="url(#b)"/>
    <path d="m624 7c-1 2.999994-2 2.5857928-2 4 0 .999998 0 1.000002-1 2-1 .999996-1 1-2 1-1.41421 0-1 1.000002-4 2 3 .999998 2.58579 2 4 2 1 0 1 .000004 2 1 1 .999998 1 1.000002 1 2 0 1.414208 1 1.000006 2 4 1-2.999994 2-2.585792 2-4 0-.999998 0-1.000002 1-2 1-.999996 1-1 2-1 1.41421 0 1-1.000002 4-2-3-.999998-2.58579-2-4-2-1 0-1-.000004-2-1-1-.999998-1-1.000002-1-2 0-1.4142072-1-1.000006-2-4zm0 2.0976562c.20512.3196583.45222.9531658.60742 1.1386718.39793.47563.39258.292271.39258.763672 0 .499999-.0138.958752.23047 1.447266.24426.488512.5625.759767 1.0625 1.259765s.77125.818243 1.25976 1.0625c.48852.244257.94727.230469 1.44727.230469.4714 0 .28804-.0054.76367.392578.18551.155201.81901.402302 1.13867.607422-.31966.20512-.95316.452221-1.13867.607422-.47563.397928-.29227.392578-.76367.392578-.5 0-.95875-.01379-1.44727.230469-.48851.244257-.75976.562502-1.25976 1.0625s-.81824.771253-1.0625 1.259765c-.24426.488514-.23047.947267-.23047 1.447266 0 .471401.005.288042-.39258.763672-.1552.185506-.4023.819013-.60742 1.138672-.20512-.319659-.45222-.953166-.60742-1.138672-.39793-.47563-.39258-.292271-.39258-.763672 0-.499999.0138-.958752-.23047-1.447266-.24426-.488512-.5625-.759767-1.0625-1.259765s-.77125-.818243-1.25976-1.0625c-.48852-.244257-.94727-.230469-1.44727-.230469-.4714 0-.28804.0054-.76367-.392578-.18551-.155201-.81901-.402302-1.13867-.607422.31966-.20512.95316-.452221 1.13867-.607422.47563-.397928.29227-.392578.76367-.392578.5 0 .95875.01379 1.44727-.230469.48851-.244257.75976-.562502 1.25976-1.0625s.81824-.771253 1.0625-1.259765c.24426-.488514.23047-.947267.23047-1.447266 0-.471401-.005-.288042.39258-.763672.1552-.185506.4023-.8190135.60742-1.1386718z" fill="url(#c)"/>
  </g>
</svg>
