<?xml version="1.0" encoding="UTF-8" standalone="no"?>
<!-- Created with Inkscape (http://www.inkscape.org/) -->

<svg
   width="24"
   height="24"
   version="1.1"
   viewBox="0 0 24 24"
   id="svg168"
   xml:space="preserve"
   xmlns:xlink="http://www.w3.org/1999/xlink"
   xmlns="http://www.w3.org/2000/svg"
   xmlns:svg="http://www.w3.org/2000/svg"
   xmlns:rdf="http://www.w3.org/1999/02/22-rdf-syntax-ns#"
   xmlns:cc="http://creativecommons.org/ns#"
   xmlns:dc="http://purl.org/dc/elements/1.1/"><defs
     id="defs172"><linearGradient
       id="linearGradient13104"><stop
         style="stop-color:#e7e3fb;stop-opacity:1;"
         offset="0"
         id="stop13100" /><stop
         style="stop-color:#e7e3fb;stop-opacity:0;"
         offset="1"
         id="stop13102" /></linearGradient><radialGradient
       xlink:href="#linearGradient62774"
       id="radialGradient62776"
       cx="624"
       cy="14"
       fx="624"
       fy="14"
       r="12"
       gradientUnits="userSpaceOnUse" /><linearGradient
       id="linearGradient62774"><stop
         style="stop-color:#f2effd;stop-opacity:1;"
         offset="0.45171013"
         id="stop62772" /><stop
         style="stop-color:#d2cbf3;stop-opacity:1;"
         offset="1"
         id="stop62770" /></linearGradient><radialGradient
       xlink:href="#linearGradient62766"
       id="radialGradient62768"
       cx="624"
       cy="16"
       fx="624"
       fy="16"
       r="6"
       gradientUnits="userSpaceOnUse" /><linearGradient
       id="linearGradient62766"><stop
         style="stop-color:#fafbb9;stop-opacity:1;"
         offset="0"
         id="stop62762" /><stop
         style="stop-color:#fafbb9;stop-opacity:0;"
         offset="1"
         id="stop62764" /></linearGradient><linearGradient
       xlink:href="#linearGradient13104"
       id="linearGradient13106"
       x1="624"
       y1="7"
       x2="624"
       y2="25"
       gradientUnits="userSpaceOnUse" /></defs><title
     id="title132">Prism Launcher Logo</title><metadata
     id="metadata166"><rdf:RDF><cc:Work
         rdf:about=""><dc:title>Prism Launcher Logo</dc:title><dc:date>19/10/2022</dc:date><dc:creator><cc:Agent><dc:title>Prism Launcher</dc:title></cc:Agent></dc:creator><dc:contributor><cc:Agent><dc:title>AutiOne, Boba, ely, Fulmine, gon sawa, Pankakes, tobimori, Zeke</dc:title></cc:Agent></dc:contributor><dc:source>https://github.com/PrismLauncher/PrismLauncher</dc:source><dc:rights><cc:Agent><dc:title>CC BY-SA 4.0</dc:title></cc:Agent></dc:rights><dc:publisher><cc:Agent><dc:title>Prism Launcher</dc:title></cc:Agent></dc:publisher></cc:Work></rdf:RDF></metadata><g
     id="i_netherstar"
     transform="translate(-612,-4)"><path
       id="path87169-8-4"
       style="fill:url(#radialGradient62776);fill-opacity:1;stroke:none;stroke-width:0.264583;paint-order:stroke markers fill;stop-color:#000000"
       d="m 624,7 c -1,2.999997 -2,2.5857914 -2,4 0,0.999999 0,1.000001 -1,2 -1,0.999997 -1,1 -2,1 -1.41421,0 -1,1.000001 -4,2 3,0.999999 2.58579,2 4,2 1,0 1,3e-6 2,1 1,0.999999 1,1.000001 1,2 0,1.414209 1,1.000003 2,4 1,-2.999997 2,-2.585791 2,-4 0,-0.999999 0,-1.000001 1,-2 1,-0.999997 1,-1 2,-1 1.41421,0 1,-1.000001 4,-2 -3,-0.999999 -2.58579,-2 -4,-2 -1,0 -1,-3e-6 -2,-1 -1,-0.999999 -1,-1.000001 -1,-2 0,-1.4142086 -1,-1.000003 -2,-4 z" /><rect
       style="fill:#ffffff;fill-opacity:0;stroke:none;stroke-width:0.264583;paint-order:stroke markers fill;stop-color:#000000"
       id="rect128412-7-6-9"
       width="24"
       height="24"
       x="612"
       y="4" /><path
       style="fill:url(#radialGradient62768);fill-opacity:1;stroke:none;stroke-width:0.132291;paint-order:stroke markers fill;stop-color:#000000"
       d="m 624,19 c 1,-2 1,-2 3,-3 -2,-1 -2,-1 -3,-3 -1,2 -1,2 -3,3 2,1 2,1 3,3 z"
       id="path88076" /><path
       id="path12156"
       style="color:#000000;fill:url(#linearGradient13106);fill-opacity:1;paint-order:stroke markers fill"
       d="m 624,7 c -1,2.999994 -2,2.5857928 -2,4 0,0.999998 0,1.000002 -1,2 -1,0.999996 -1,1 -2,1 -1.41421,0 -1,1.000002 -4,2 3,0.999998 2.58579,2 4,2 1,0 1,4e-6 2,1 1,0.999998 1,1.000002 1,2 0,1.414208 1,1.000006 2,4 1,-2.999994 2,-2.585792 2,-4 0,-0.999998 0,-1.000002 1,-2 1,-0.999996 1,-1 2,-1 1.41421,0 1,-1.000002 4,-2 -3,-0.999998 -2.58579,-2 -4,-2 -1,0 -1,-4e-6 -2,-1 -1,-0.999998 -1,-1.000002 -1,-2 0,-1.4142072 -1,-1.000006 -2,-4 z m 0,2.0976562 c 0.20512,0.3196583 0.45222,0.9531658 0.60742,1.1386718 C 625.00535,10.711958 625,10.528599 625,11 c 0,0.499999 -0.0138,0.958752 0.23047,1.447266 0.24426,0.488512 0.5625,0.759767 1.0625,1.259765 0.5,0.499998 0.77125,0.818243 1.25976,1.0625 C 628.04125,15.013788 628.5,15 629,15 c 0.4714,0 0.28804,-0.0054 0.76367,0.392578 0.18551,0.155201 0.81901,0.402302 1.13867,0.607422 -0.31966,0.20512 -0.95316,0.452221 -1.13867,0.607422 C 629.28804,17.00535 629.4714,17 629,17 c -0.5,0 -0.95875,-0.01379 -1.44727,0.230469 -0.48851,0.244257 -0.75976,0.562502 -1.25976,1.0625 -0.5,0.499998 -0.81824,0.771253 -1.0625,1.259765 C 624.98621,20.041248 625,20.500001 625,21 c 0,0.471401 0.005,0.288042 -0.39258,0.763672 -0.1552,0.185506 -0.4023,0.819013 -0.60742,1.138672 -0.20512,-0.319659 -0.45222,-0.953166 -0.60742,-1.138672 C 622.99465,21.288042 623,21.471401 623,21 c 0,-0.499999 0.0138,-0.958752 -0.23047,-1.447266 -0.24426,-0.488512 -0.5625,-0.759767 -1.0625,-1.259765 -0.5,-0.499998 -0.77125,-0.818243 -1.25976,-1.0625 C 619.95875,16.986212 619.5,17 619,17 c -0.4714,0 -0.28804,0.0054 -0.76367,-0.392578 C 618.05082,16.452221 617.41732,16.20512 617.09766,16 c 0.31966,-0.20512 0.95316,-0.452221 1.13867,-0.607422 C 618.71196,14.99465 618.5286,15 619,15 c 0.5,0 0.95875,0.01379 1.44727,-0.230469 0.48851,-0.244257 0.75976,-0.562502 1.25976,-1.0625 0.5,-0.499998 0.81824,-0.771253 1.0625,-1.259765 C 623.01379,11.958752 623,11.499999 623,11 c 0,-0.471401 -0.005,-0.288042 0.39258,-0.763672 0.1552,-0.185506 0.4023,-0.8190135 0.60742,-1.1386718 z" /></g></svg>
