<svg height="24" viewBox="0 0 24 24" width="24" xmlns="http://www.w3.org/2000/svg" xmlns:xlink="http://www.w3.org/1999/xlink">
  <linearGradient id="a" gradientUnits="userSpaceOnUse" x1="690" x2="690" xlink:href="#b" y1="22" y2="21"/>
  <linearGradient id="b">
    <stop offset="0" stop-color="#cfaf6b"/>
    <stop offset="1" stop-color="#ddc694"/>
  </linearGradient>
  <linearGradient id="c" gradientUnits="userSpaceOnUse" x1="690" x2="690" xlink:href="#b" y1="17" y2="16"/>
  <linearGradient id="d" gradientUnits="userSpaceOnUse" x1="690" x2="690" xlink:href="#b" y1="12" y2="11"/>
  <linearGradient id="e" gradientUnits="userSpaceOnUse" x1="690" x2="690" xlink:href="#b" y1="7" y2="6"/>
  <title>Prism Launcher Logo</title>
  <metadata/>
  <rect fill="#a88a4a" height="20" ry="3" stroke-width=".277182" width="20" x="2" y="2"/>
  <rect fill="none" height="24" width="24"/>
  <g stroke-linecap="square" stroke-linejoin="bevel" transform="translate(-676 -4)">
    <path d="m678 21v2c0 .771066.2909 1.469665.76562 2h18.46876c.47472-.530335.76562-1.228934.76562-2v-2z" fill="url(#a)"/>
    <rect fill="url(#c)" height="4" ry="0" width="20" x="678" y="16"/>
    <rect fill="url(#d)" height="4" ry="0" width="20" x="678" y="11"/>
    <path d="m681 6c-1.662 0-3 1.3380017-3 3v1h20v-1c0-1.6619983-1.338-3-3-3z" fill="url(#e)"/>
  </g>
</svg>
