<svg width="16" height="16" viewBox="0 0 16 16" fill="none" xmlns="http://www.w3.org/2000/svg">
<mask id="mask0_47_485" style="mask-type:alpha" maskUnits="userSpaceOnUse" x="0" y="0" width="16" height="16">
<rect width="16" height="16" rx="3" fill="#D9AA81"/>
</mask>
<g mask="url(#mask0_47_485)">
<rect width="16" height="16" rx="3" fill="url(#paint0_linear_47_485)"/>
<path d="M0 0H16V10H14V4H12V2H10V0H8V2H4V4H2V10H0V0Z" fill="#A44A23"/>
<rect x="4" y="8" width="2" height="2" fill="#2C231F"/>
<rect x="2" y="8" width="2" height="2" fill="white"/>
<rect x="6" y="12" width="4" height="2" fill="#E08D8D"/>
<rect y="10" width="4" height="2" fill="#E49A9A"/>
<rect x="12" y="10" width="4" height="2" fill="#E49A9A"/>
<rect x="10" y="8" width="2" height="2" fill="#2C231F"/>
<rect x="12" y="8" width="2" height="2" fill="white"/>
</g>
<defs>
<linearGradient id="paint0_linear_47_485" x1="8" y1="0" x2="8" y2="16" gradientUnits="userSpaceOnUse">
<stop stop-color="#FAC4AD"/>
<stop offset="1" stop-color="#E6AC94"/>
</linearGradient>
</defs>
</svg>
