<?xml version="1.0" encoding="UTF-8"?>
<!-- Created with Inkscape (http://www.inkscape.org/) -->
<svg width="512" height="512" version="1.1" viewBox="0 0 135.47 135.47" xmlns="http://www.w3.org/2000/svg">
 <g transform="matrix(1.3386 0 0 1.3386 16.155 10.174)">
  <path d="m18.78 50.126c0 1.342 0.356 2.6345 1.0008 3.758l-18.279 10.617c-0.96723-1.6842-1.5023-3.6252-1.5023-5.6404v-31.721c0-2.0152 0.53511-3.9517 1.5001-5.6382l18.281 10.614c-0.6448 1.1235-1.0008 2.416-1.0008 3.7602z" fill="#7a573b"/>
  <path d="m77.065 27.139v15.861h-18.78v-7.1243c0-1.342-0.3559-2.6367-1.003-3.7602l18.279-10.614c0.9694 1.6843 1.5023 3.6252 1.5023 5.6404z" fill="#f3db6c"/>
  <path d="m77.065 43v15.861c0 2.0152-0.5351 3.9562-1.5023 5.6404l-17.278-10.031-1.003-0.5832c0.6471-1.1236 1.003-2.4183 1.003-3.7603v-7.1265z" fill="#7ab392"/>
  <path d="m75.563 64.501c-0.9695 1.6843-2.3711 3.1208-4.1062 4.1296l-13.658 7.9303-9.3924-16.356 6.1392-3.5644c1.1553-0.6733 2.089-1.628 2.736-2.7516l18.279 10.614z" fill="#4b7cbc"/>
  <path d="m57.799 76.559-13.658 7.9303c-1.7352 1.0065-3.6719 1.5109-5.6086 1.5109v-21.226c1.2896 0 2.5792-0.3355 3.739-1.0088l6.1348-3.5644 9.3924 16.356z" fill="#6f488c"/>
  <path d="m57.799 9.4412-9.3924 16.356-6.1348-3.5644c-1.1598-0.6732-2.4494-1.0065-3.739-1.0065v-21.226c1.9367 0 3.8734 0.50437 5.6086 1.5109z" fill="#df6277"/>
  <path d="m38.532 0v21.226c-1.2896 0-2.5793 0.3333-3.7391 1.0065l-12.274 7.1288c-1.1576 0.671-2.0912 1.6279-2.7383 2.7538l-18.281-10.614c0.96947-1.6865 2.3733-3.1208 4.1085-4.1295l27.315-15.861c1.7352-1.0065 3.6719-1.5109 5.6086-1.5109z" fill="#99cd61"/>
  <path d="m75.563 21.501-18.279 10.614c-0.647-1.1236-1.5807-2.0806-2.736-2.7516l-6.1392-3.5644 9.3924-16.356 13.658 7.9303c1.7352 1.0065 3.1368 2.4431 4.1062 4.1296z" fill="#fb9168"/>
  <path d="m38.532 64.776v21.226c-1.9367 0-3.8733-0.5044-5.6085-1.5109l-27.315-15.863c-1.7352-1.0087-3.1368-2.443-4.1062-4.1295l18.279-10.614c0.647 1.1236 1.5807 2.0783 2.736 2.7516l12.274 7.1287c1.1598 0.6733 2.4495 1.0088 3.7391 1.0088z" fill="#4d3f33"/>
  <path d="m58.285 35.876v14.251c0 2.6885-1.424 5.1698-3.7391 6.5118l-12.274 7.1288c-1.1597 0.6732-2.4494 1.0087-3.739 1.0087-1.2897 0-2.5793-0.3355-3.7391-1.0087l-12.274-7.1288c-2.3151-1.342-3.7391-3.8233-3.7391-6.5118v-14.251c0-2.6884 1.424-5.1698 3.7391-6.5118l12.274-7.1287c1.1598-0.6733 2.4494-1.0065 3.7391-1.0065 1.2896 0 2.5793 0.3355 3.739 1.0065l6.1348 3.5643 6.1392 3.5644c1.1553 0.6733 2.089 1.628 2.736 2.7516 0.6471 1.1235 1.0031 2.4182 1.0031 3.7602z" fill="#fff"/>
  <path d="m58.285 35.876v14.251c0 1.342-0.356 2.6367-1.0031 3.7603s-1.5807 2.0783-2.736 2.7515l-6.1392 3.5644-6.1348 3.5644c-1.1598 0.6732-2.4494 1.0087-3.739 1.0087v-21.774l14.728-8.5495 4.0234-2.335c0.6471 1.1236 1.0031 2.4183 1.0031 3.7603z" fill="#dfdfdf"/>
  <path d="m38.532 43v21.774c-1.2897 0-2.5793-0.3355-3.7391-1.0088l-12.274-7.1287c-1.1553-0.6733-2.089-1.628-2.7361-2.7516-0.647-1.1235-1.003-2.4182-1.003-3.7602v-14.251c0-1.342 0.356-2.6367 1.003-3.7603l18.751 10.884z" fill="#d6d2d2"/>
 </g>
</svg>
