<?xml version="1.0" encoding="UTF-8" standalone="no"?>
<svg
   id="Layer_1"
   data-name="Layer 1"
   viewBox="0 0 23.999999 23.999999"
   version="1.1"
   sodipodi:docname="quiltmc.svg"
   width="24"
   height="24"
   inkscape:version="1.2 (dc2aedaf03, 2022-05-15)"
   xmlns:inkscape="http://www.inkscape.org/namespaces/inkscape"
   xmlns:sodipodi="http://sodipodi.sourceforge.net/DTD/sodipodi-0.dtd"
   xmlns="http://www.w3.org/2000/svg"
   xmlns:svg="http://www.w3.org/2000/svg">
  <sodipodi:namedview
     id="namedview1713"
     pagecolor="#ffffff"
     bordercolor="#666666"
     borderopacity="1.0"
     inkscape:showpageshadow="2"
     inkscape:pageopacity="0.0"
     inkscape:pagecheckerboard="0"
     inkscape:deskcolor="#d1d1d1"
     showgrid="false"
     inkscape:zoom="46.764268"
     inkscape:cx="9.5051204"
     inkscape:cy="5.5598005"
     inkscape:window-width="2160"
     inkscape:window-height="3817"
     inkscape:window-x="-8"
     inkscape:window-y="-8"
     inkscape:window-maximized="1"
     inkscape:current-layer="Layer_1" />
  <defs
     id="defs1692">
    <style
       id="style1690">.cls-1{fill:#9722ff}.cls-2{fill:#dc29dd}.cls-3{fill:#27a2fd}.cls-4{fill:#34f}</style>
  </defs>
  <path
     d="m 7.45604,4.5609401 a 0.36671684,0.36671684 0 0 0 0.36623,0.36648 h 0.624 v 1.39199 h -0.624 a 0.36647685,0.36647685 0 0 0 0,0.73271 h 0.624 v 1.06799 a 0.32447721,0.32447721 0 0 1 -0.32448,0.32472 H 7.0538 v -0.624 a 0.36647685,0.36647685 0 0 0 -0.73295,0 v 0.624 H 4.92886 v -0.624 a 0.36647685,0.36647685 0 1 0 -0.73272,0 v 0.624 H 3.12671 A 0.3249572,0.3249572 0 0 1 2.802,8.1201101 v -4.99339 a 0.32471721,0.32471721 0 0 1 0.32471,-0.32472 h 4.99412 a 0.32447721,0.32447721 0 0 1 0.32448,0.32472 v 1.06751 h -0.624 a 0.36647685,0.36647685 0 0 0 -0.36527,0.36671 z"
     class="cls-1"
     id="path1694"
     style="stroke-width:0.05;stroke:#1b112b;stroke-opacity:0.50196081;stroke-dasharray:none" />
  <path
     d="m 13.8323,4.5609401 a 0.36647685,0.36647685 0 0 0 0.36624,0.36648 h 0.62399 v 1.39199 h -0.62399 a 0.36647685,0.36647685 0 0 0 0,0.73271 h 0.62399 v 1.06799 a 0.32471721,0.32471721 0 0 1 -0.32447,0.32472 H 9.50298 A 0.32447721,0.32447721 0 0 1 9.1785,8.1201101 v -1.06799 h 0.62256 a 0.36647685,0.36647685 0 1 0 0,-0.73271 H 9.1785 v -1.39199 h 0.62256 a 0.36671684,0.36671684 0 1 0 0,-0.73319 H 9.1785 v -1.06751 a 0.32423721,0.32423721 0 0 1 0.32448,-0.32472 h 4.99412 a 0.32447721,0.32447721 0 0 1 0.32447,0.32472 v 1.06751 h -0.62399 a 0.36647685,0.36647685 0 0 0 -0.36528,0.36671 z"
     class="cls-2"
     id="path1696"
     style="stroke-width:0.05;stroke:#1b112b;stroke-opacity:0.50196081;stroke-dasharray:none" />
  <path
     d="m 21.1976,3.1267201 v 4.99387 a 0.32447721,0.32447721 0 0 1 -0.32448,0.32472 h -1.06799 v -0.624 a 0.36647685,0.36647685 0 1 0 -0.73271,0 v 0.624 h -1.39199 v -0.624 a 0.36647685,0.36647685 0 1 0 -0.73272,0 v 0.624 h -1.06799 a 0.3249572,0.3249572 0 0 1 -0.32471,-0.32472 v -1.06799 H 16.179 a 0.36647685,0.36647685 0 1 0 0,-0.73271 h -0.62399 v -1.39199 H 16.179 a 0.36671684,0.36671684 0 0 0 0,-0.73319 h -0.62399 v -1.06799 a 0.32471721,0.32471721 0 0 1 0.32471,-0.32472 h 4.9934 a 0.32447721,0.32447721 0 0 1 0.32448,0.32472 z"
     class="cls-3"
     id="path1698"
     style="stroke-width:0.05;stroke:#1b112b;stroke-opacity:0.50196081;stroke-dasharray:none" />
  <path
     d="M 8.44531,9.5025001 V 14.49662 A 0.32447721,0.32447721 0 0 1 8.12083,14.82133 H 7.05284 v -0.62399 a 0.36647685,0.36647685 0 0 0 -0.73295,0 v 0.62399 H 4.9279 v -0.62399 a 0.36647685,0.36647685 0 1 0 -0.73272,0 v 0.62399 H 3.12671 A 0.32471721,0.32471721 0 0 1 2.802,14.49662 V 9.5025001 a 0.3249572,0.3249572 0 0 1 0.32471,-0.32448 H 4.1947 v 0.624 a 0.36647685,0.36647685 0 0 0 0.73272,0 v -0.624 h 1.39199 v 0.624 a 0.36647685,0.36647685 0 0 0 0.73295,0 v -0.624 h 1.06799 a 0.32447721,0.32447721 0 0 1 0.32496,0.32448 z"
     class="cls-2"
     id="path1700"
     style="stroke-width:0.05;stroke:#1b112b;stroke-opacity:0.50196081;stroke-dasharray:none" />
  <path
     d="m 13.8323,10.93697 a 0.36599685,0.36599685 0 0 0 0.36624,0.36623 h 0.62399 v 1.39199 h -0.62399 a 0.36647685,0.36647685 0 0 0 0,0.73272 h 0.62399 v 1.06799 a 0.32447721,0.32447721 0 0 1 -0.32447,0.32471 h -1.06992 v -0.62399 a 0.36647685,0.36647685 0 1 0 -0.73271,0 v 0.62399 h -1.39199 v -0.62399 a 0.36647685,0.36647685 0 1 0 -0.73295,0 v 0.62399 H 9.50298 A 0.32423721,0.32423721 0 0 1 9.1785,14.4959 V 9.5025001 a 0.32447721,0.32447721 0 0 1 0.32448,-0.32448 h 4.99412 a 0.32471721,0.32471721 0 0 1 0.32447,0.32448 V 10.57049 h -0.62399 a 0.36623685,0.36623685 0 0 0 -0.36528,0.36648 z"
     class="cls-3"
     id="path1702"
     style="stroke-width:0.05;stroke:#1b112b;stroke-opacity:0.50196081;stroke-dasharray:none" />
  <path
     d="M 21.1976,9.5025001 V 14.49662 a 0.32447721,0.32447721 0 0 1 -0.32448,0.32471 H 15.879 a 0.32471721,0.32471721 0 0 1 -0.32471,-0.32471 v -1.06871 h 0.62399 a 0.36647685,0.36647685 0 1 0 0,-0.73272 H 15.55429 V 11.3032 h 0.62399 a 0.36647685,0.36647685 0 1 0 0,-0.73271 H 15.55429 V 9.5025001 a 0.3249572,0.3249572 0 0 1 0.32471,-0.32448 h 1.06799 v 0.624 a 0.36647685,0.36647685 0 0 0 0.73272,0 v -0.624 h 1.39199 v 0.624 a 0.36647685,0.36647685 0 0 0 0.73271,0 v -0.624 h 1.06799 a 0.32447721,0.32447721 0 0 1 0.3252,0.32448 z"
     class="cls-4"
     id="path1704"
     style="stroke-width:0.05;stroke:#1b112b;stroke-opacity:0.50196081;stroke-dasharray:none" />
  <path
     d="m 7.45604,17.31323 a 0.36671684,0.36671684 0 0 0 0.36623,0.36648 h 0.624 v 1.39199 h -0.624 a 0.36647685,0.36647685 0 0 0 0,0.73295 h 0.624 v 1.06799 A 0.32447721,0.32447721 0 0 1 8.12179,21.19736 H 3.12671 A 0.3249572,0.3249572 0 0 1 2.802,20.87264 V 15.87901 A 0.32471721,0.32471721 0 0 1 3.12671,15.55429 H 4.1947 v 0.62279 a 0.36647685,0.36647685 0 1 0 0.73272,0 v -0.62279 h 1.39199 v 0.62279 a 0.36647685,0.36647685 0 1 0 0.73295,0 v -0.62279 h 1.06799 a 0.32447721,0.32447721 0 0 1 0.32448,0.32472 v 1.06751 h -0.624 a 0.36671684,0.36671684 0 0 0 -0.36479,0.36671 z"
     class="cls-1"
     id="path1706"
     style="stroke-width:0.05;stroke:#1b112b;stroke-opacity:0.50196081;stroke-dasharray:none" />
  <path
     d="m 14.82157,15.87901 v 4.99387 A 0.32471721,0.32471721 0 0 1 14.4971,21.1976 H 9.50298 A 0.32447721,0.32447721 0 0 1 9.1785,20.87288 v -1.06799 h 0.62256 a 0.36647685,0.36647685 0 1 0 0,-0.73295 H 9.1785 v -1.39199 h 0.62256 a 0.36671684,0.36671684 0 1 0 0,-0.73319 H 9.1785 v -1.06775 a 0.32423721,0.32423721 0 0 1 0.32448,-0.32472 h 1.06775 v 0.62279 a 0.36647685,0.36647685 0 1 0 0.73295,0 v -0.62279 h 1.39199 v 0.62279 a 0.36647685,0.36647685 0 1 0 0.73271,0 v -0.62279 h 1.068 a 0.32447721,0.32447721 0 0 1 0.32519,0.32472 z"
     class="cls-4"
     id="path1708"
     style="stroke-width:0.05;stroke:#1b112b;stroke-opacity:0.50196081;stroke-dasharray:none" />
  <rect
     width="5.6433115"
     height="5.6433115"
     x="-2.8213291"
     y="24.818491"
     class="cls-1"
     rx="0.32471719"
     transform="rotate(-45)"
     id="rect1710"
     style="stroke-width:0.05;stroke:#1b112b;stroke-opacity:0.50196081;stroke-dasharray:none" />
</svg>
