<?xml version="1.0" encoding="UTF-8" standalone="no"?>
<svg
   id="Layer_1"
   data-name="Layer 1"
   viewBox="0 0 23.999999 23.999999"
   version="1.1"
   sodipodi:docname="quiltmc.svg"
   width="24"
   height="24"
   inkscape:version="1.2.2 (b0a8486541, 2022-12-01)"
   xmlns:inkscape="http://www.inkscape.org/namespaces/inkscape"
   xmlns:sodipodi="http://sodipodi.sourceforge.net/DTD/sodipodi-0.dtd"
   xmlns="http://www.w3.org/2000/svg"
   xmlns:svg="http://www.w3.org/2000/svg">
  <sodipodi:namedview
     id="namedview27"
     pagecolor="#ffffff"
     bordercolor="#000000"
     borderopacity="0.25"
     inkscape:showpageshadow="2"
     inkscape:pageopacity="0.0"
     inkscape:pagecheckerboard="0"
     inkscape:deskcolor="#d1d1d1"
     showgrid="false"
     inkscape:zoom="10.390684"
     inkscape:cx="24.685575"
     inkscape:cy="9.5277659"
     inkscape:window-width="1499"
     inkscape:window-height="749"
     inkscape:window-x="100"
     inkscape:window-y="118"
     inkscape:window-maximized="0"
     inkscape:current-layer="Layer_1" />
  <defs
     id="defs4">
    <style
       id="style2">.cls-1{fill:#1b112b;}.cls-2{fill:#9722ff;}.cls-3{fill:#dc29dd;}.cls-4{fill:#27a2fd;}.cls-5{fill:#34f;}</style>
  </defs>
  <rect
     class="cls-1"
     width="24"
     height="24"
     rx="5.9670944"
     id="rect6"
     x="0"
     y="0"
     style="stroke-width:0.0262717" />
  <path
     class="cls-2"
     d="M 8.53568,6.3874419 A 0.27217496,0.27217496 0 0 0 8.8075922,6.6593542 H 9.2699744 V 7.6928834 H 8.8075922 a 0.27191225,0.27191225 0 0 0 0,0.5438245 H 9.2699744 V 9.0293255 A 0.24091162,0.24091162 0 0 1 9.0290628,9.2702371 H 8.2364452 V 8.807855 a 0.27191225,0.27191225 0 0 0 -0.5438245,0 V 9.2702371 H 6.6590914 V 8.807855 a 0.27191224,0.27191224 0 0 0 -0.5438244,0 V 9.2702371 H 5.3226493 A 0.24117434,0.24117434 0 0 1 5.0817377,9.0293255 V 5.322912 A 0.24091162,0.24091162 0 0 1 5.3226493,5.0820004 H 9.0290628 A 0.2406489,0.2406489 0 0 1 9.2699744,5.322912 V 6.115267 H 8.8075922 A 0.27217496,0.27217496 0 0 0 8.53568,6.3874419 Z"
     id="path8"
     style="stroke-width:0.0262717" />
  <path
     class="cls-3"
     d="m 13.267216,6.3874419 a 0.27191224,0.27191224 0 0 0 0.271912,0.2719123 h 0.463696 v 1.0335292 h -0.462382 a 0.27191225,0.27191225 0 0 0 0,0.5438245 h 0.462382 V 9.0293255 A 0.24117434,0.24117434 0 0 1 13.761912,9.2702371 H 10.054973 A 0.24091162,0.24091162 0 0 1 9.8140616,9.0293255 V 8.2367079 h 0.4621194 a 0.27191225,0.27191225 0 1 0 0,-0.5438245 H 9.8140616 V 6.6593542 h 0.4621194 a 0.27217496,0.27217496 0 1 0 0,-0.5440872 H 9.8140616 V 5.322912 A 0.2406489,0.2406489 0 0 1 10.054973,5.0820004 h 3.706414 a 0.24091162,0.24091162 0 0 1 0.240911,0.2409116 v 0.792355 h -0.462382 a 0.27191224,0.27191224 0 0 0 -0.2727,0.2721749 z"
     id="path10"
     style="stroke-width:0.0262717" />
  <path
     class="cls-4"
     d="M 18.73436,5.322912 V 9.0293255 A 0.24091162,0.24091162 0 0 1 18.493448,9.2702371 H 17.70083 V 8.807855 a 0.27191224,0.27191224 0 0 0 -0.543824,0 V 9.2702371 H 16.123477 V 8.807855 a 0.27191251,0.27191251 0 0 0 -0.543825,0 V 9.2702371 H 14.787034 A 0.24117434,0.24117434 0 0 1 14.546123,9.0293255 V 8.2367079 h 0.462382 a 0.27191225,0.27191225 0 1 0 0,-0.5438245 H 14.546123 V 6.6593542 h 0.462382 a 0.27217496,0.27217496 0 0 0 0,-0.5440872 H 14.546123 V 5.322912 a 0.24091162,0.24091162 0 0 1 0.240911,-0.2409116 h 3.706414 A 0.2406489,0.2406489 0 0 1 18.73436,5.322912 Z"
     id="path12"
     style="stroke-width:0.0262717" />
  <path
     class="cls-3"
     d="m 9.2699744,10.054973 v 3.706414 A 0.2406489,0.2406489 0 0 1 9.0290628,14.002298 H 8.2364452 v -0.462382 a 0.27191225,0.27191225 0 1 0 -0.5438245,0 v 0.462908 H 6.6590914 v -0.462382 a 0.27191224,0.27191224 0 0 0 -0.5438244,0 v 0.462382 H 5.3226493 A 0.24091162,0.24091162 0 0 1 5.0817377,13.761912 V 10.054973 A 0.24117434,0.24117434 0 0 1 5.3226493,9.8140616 H 6.115267 v 0.4623824 a 0.27191224,0.27191224 0 0 0 0.5438244,0 V 9.8140616 h 1.0335293 v 0.4623824 a 0.27191225,0.27191225 0 1 0 0.5438245,0 V 9.8140616 h 0.7926176 a 0.24091162,0.24091162 0 0 1 0.2409116,0.2409114 z"
     id="path14"
     style="stroke-width:0.0262717" />
  <path
     class="cls-4"
     d="m 13.267216,11.119503 a 0.27191224,0.27191224 0 0 0 0.271912,0.271912 h 0.463696 v 1.03353 h -0.462382 a 0.27191224,0.27191224 0 0 0 0,0.543824 h 0.462382 v 0.792618 a 0.24091162,0.24091162 0 0 1 -0.240912,0.240911 h -0.793143 v -0.462382 a 0.27191224,0.27191224 0 1 0 -0.543824,0 v 0.462908 h -1.03353 v -0.462382 a 0.27217496,0.27217496 0 0 0 -0.544087,0 v 0.462382 H 10.054973 A 0.2406489,0.2406489 0 0 1 9.8140616,13.761912 V 10.054973 A 0.24091162,0.24091162 0 0 1 10.054973,9.8140616 h 3.706414 a 0.24117434,0.24117434 0 0 1 0.240911,0.2409114 v 0.792618 h -0.462382 a 0.27191224,0.27191224 0 0 0 -0.2727,0.271912 z"
     id="path16"
     style="stroke-width:0.0262717" />
  <path
     class="cls-5"
     d="m 18.73436,10.054973 v 3.706414 a 0.2406489,0.2406489 0 0 1 -0.240912,0.240911 h -3.706414 a 0.24091162,0.24091162 0 0 1 -0.240911,-0.240911 v -0.792618 h 0.462382 a 0.27191224,0.27191224 0 1 0 0,-0.543824 h -0.462382 v -1.03353 h 0.462382 a 0.27191224,0.27191224 0 0 0 0,-0.543824 h -0.462382 v -0.792618 a 0.24117434,0.24117434 0 0 1 0.240911,-0.2409114 h 0.792093 v 0.4623824 a 0.27191224,0.27191224 0 0 0 0.543824,0 V 9.8140616 h 1.033529 v 0.4623824 a 0.27191251,0.27191251 0 0 0 0.543825,0 V 9.8140616 h 0.792617 a 0.24091162,0.24091162 0 0 1 0.241438,0.2409114 z"
     id="path18"
     style="stroke-width:0.0262717" />
  <path
     class="cls-2"
     d="m 8.53568,15.851827 a 0.27217496,0.27217496 0 0 0 0.2719122,0.271912 h 0.4623822 v 1.033267 H 8.8075922 a 0.27217496,0.27217496 0 0 0 0,0.544087 h 0.4623822 v 0.792618 A 0.24091162,0.24091162 0 0 1 9.0290628,18.734622 H 5.3226493 A 0.24117434,0.24117434 0 0 1 5.0817377,18.493711 V 14.787297 A 0.24091162,0.24091162 0 0 1 5.3226493,14.546386 H 6.115267 v 0.462119 a 0.27191224,0.27191224 0 1 0 0.5438244,0 v -0.462119 h 1.0335293 v 0.462119 a 0.27191225,0.27191225 0 1 0 0.5438245,0 v -0.462119 h 0.7926176 a 0.2406489,0.2406489 0 0 1 0.2409116,0.240911 v 0.79183 H 8.8075922 a 0.27217496,0.27217496 0 0 0 -0.2719122,0.2727 z"
     id="path20"
     style="stroke-width:0.0262717" />
  <path
     class="cls-5"
     d="m 14.002824,14.787297 v 3.706414 a 0.24117434,0.24117434 0 0 1 -0.240912,0.240911 H 10.054973 A 0.24091162,0.24091162 0 0 1 9.8140616,18.493711 v -0.792618 h 0.4621194 a 0.27217496,0.27217496 0 1 0 0,-0.544087 H 9.8140616 v -1.033267 h 0.4621194 a 0.27217496,0.27217496 0 1 0 0,-0.544087 H 9.8140616 v -0.792355 a 0.2406489,0.2406489 0 0 1 0.2409114,-0.240911 h 0.792355 v 0.462119 a 0.27217496,0.27217496 0 1 0 0.544087,0 v -0.462119 h 1.03353 v 0.462119 a 0.27191224,0.27191224 0 1 0 0.543824,0 v -0.462119 h 0.792618 a 0.24091162,0.24091162 0 0 1 0.241437,0.240911 z"
     id="path22"
     style="stroke-width:0.0262717" />
  <rect
     class="cls-2"
     x="-2.0941913"
     y="22.665482"
     width="4.1882367"
     height="4.1882367"
     rx="0.24091162"
     transform="rotate(-45)"
     id="rect24"
     style="stroke-width:0.0262717" />
</svg>
