<svg height="24" viewBox="0 0 24 24" width="24" xmlns="http://www.w3.org/2000/svg" xmlns:xlink="http://www.w3.org/1999/xlink">
  <radialGradient id="a" cx="496.06177" cy="17.211182" fx="495.87827" fy="18.730774" gradientTransform="matrix(2.5554022 0 0 1.2337313 -519.57556 -16.266943)" gradientUnits="userSpaceOnUse" r="11">
    <stop offset=".23748928" stop-color="#cca997"/>
    <stop offset=".51858547" stop-color="#bd8e74"/>
  </radialGradient>
  <linearGradient id="b" gradientUnits="userSpaceOnUse" x1="739" x2="739" y1="3" y2="-7">
    <stop offset="0" stop-color="#261a0a"/>
    <stop offset="1" stop-color="#422e11"/>
  </linearGradient>
  <linearGradient id="c" gradientUnits="userSpaceOnUse" x1="751" x2="751" y1="15" y2="10">
    <stop offset="0" stop-color="#45220e"/>
    <stop offset="1" stop-color="#552910"/>
  </linearGradient>
  <linearGradient id="d" gradientUnits="userSpaceOnUse" x1="748" x2="748" y1="20" y2="17">
    <stop offset="0" stop-color="#5c3874"/>
    <stop offset="1" stop-color="#3c3874"/>
  </linearGradient>
  <title>Prism Launcher Logo</title>
  <metadata/>
  <g transform="translate(-736 8)">
    <rect fill="none" height="24" width="24" x="736" y="-8"/>
    <path d="m740-7h16l3 3v16c0 1.662-1.338 3-3 3h-16c-1.662 0-3-1.338-3-3v-16z" fill="url(#a)" stroke-width=".277182"/>
    <path d="m740-7c-1.662 0-3 1.338002-3 3v7h2c1.108 0 2-.892003 2-2v-1h14v1c0 1.107997.892 2 2 2h2v-7c0-1.661998-1.338-3-3-3h-1-14z" fill="url(#b)"/>
    <rect fill="#8a4c3d" height="3" ry="0" width="6" x="745" y="10"/>
    <rect fill="#fff" height="3" ry="1" stroke-width=".264583" width="7" x="750" y="5"/>
    <rect fill="#fff" height="3" ry="1" stroke-width=".264583" width="7" x="739" y="5"/>
    <rect fill="#6a4030" height="2" ry="0" width="4" x="746" y="8"/>
    <path d="m745 10a2 2 0 0 0 -2 2v3h3 4 3v-3a2 2 0 0 0 -2-2h-1v2h-4v-2z" fill="url(#c)"/>
    <g fill="url(#d)" stroke-width=".396874" transform="translate(-4 -12)">
      <rect height="3" width="3" x="746" y="17"/>
      <rect height="3" width="3" x="755" y="17"/>
    </g>
  </g>
</svg>
