<svg height="24" viewBox="0 0 24 24" width="24" xmlns="http://www.w3.org/2000/svg" xmlns:xlink="http://www.w3.org/1999/xlink">
  <linearGradient id="a" gradientUnits="userSpaceOnUse" x1="785" x2="785" y1="26" y2="6">
    <stop offset="0" stop-color="#8e8e86"/>
    <stop offset="1" stop-color="#a2a29b"/>
  </linearGradient>
  <title>Prism Launcher Logo</title>
  <metadata/>
  <g transform="translate(-772 -4)">
    <rect fill="url(#a)" height="20" ry="3" stroke-linecap="square" stroke-linejoin="bevel" width="20" x="774" y="6"/>
    <rect fill="none" height="24" width="24" x="772" y="4"/>
    <g stroke-linecap="square" stroke-linejoin="bevel" stroke-width=".999997">
      <path d="m777 11v1h12v-1zm14 2v1h2v-1zm-17 2v1h8v-1zm16 4v1h4v-1zm-8 2v1h2v-1zm2 3v1h5v-1z" fill="#bfbfbb" opacity=".5"/>
      <path d="m774 8v1h7v-1zm15 0v1h5v-1zm-4 8v1h5v-1zm-11 4v1h6v-1zm3 3v1h2v-1zm14 0v1h3v-1z" fill="#7e7e77" opacity=".5"/>
    </g>
  </g>
</svg>
