<svg height="24" viewBox="0 0 24 24" width="24" xmlns="http://www.w3.org/2000/svg" xmlns:xlink="http://www.w3.org/1999/xlink">
  <linearGradient id="a" gradientUnits="userSpaceOnUse" x1="805" x2="812" xlink:href="#b" y1="16" y2="16"/>
  <linearGradient id="b">
    <stop offset="0" stop-color="#bf454c"/>
    <stop offset=".5" stop-color="#df6277"/>
    <stop offset="1" stop-color="#bf454c"/>
  </linearGradient>
  <linearGradient id="c" gradientUnits="userSpaceOnUse" x1="812" x2="820" xlink:href="#b" y1="16" y2="16"/>
  <linearGradient id="d" gradientTransform="matrix(-1 0 0 1 1632 0)" gradientUnits="userSpaceOnUse" x1="805" x2="812" xlink:href="#b" y1="16" y2="16"/>
  <linearGradient id="e" gradientUnits="userSpaceOnUse" x1="816" x2="816" y1="27" y2="20">
    <stop offset="0" stop-color="#a02722"/>
    <stop offset="1" stop-color="#a02722" stop-opacity="0"/>
  </linearGradient>
  <radialGradient id="f" cx="816" cy="14" gradientTransform="matrix(1.1570249 0 0 1 -128.13223 0)" gradientUnits="userSpaceOnUse" r="11">
    <stop offset="0" stop-color="#fff"/>
    <stop offset="1" stop-color="#f6cff4"/>
  </radialGradient>
  <title>Prism Launcher Logo</title>
  <metadata/>
  <g transform="translate(-804 -4)">
    <rect fill="#a02722" height="20" ry="3" stroke-width=".277182" width="20" x="806" y="6"/>
    <path d="m809 6c-1.662 0-3 1.3380017-3 3v14c0 1.661998 1.338 3 3 3h3v-20z" fill="url(#a)"/>
    <rect fill="url(#c)" height="20" width="6" x="813" y="6"/>
    <path d="m823 6c1.662 0 3 1.3380017 3 3v14c0 1.661998-1.338 3-3 3h-3v-20z" fill="url(#d)"/>
    <rect fill="url(#e)" height="20" ry="3" width="20" x="806" y="6"/>
    <rect fill="url(#f)" height="10" width="20" x="806" y="11"/>
    <path d="m808 13v2h1v4h2v-4h1v-2zm5 0v6h2v-3.171875l2 2v1.171875h2v-6h-2v2l-2-2zm7 0v2h1v4h2v-4h1v-2z" fill="#4d3f33"/>
    <rect fill="none" height="24" width="24" x="804" y="4"/>
  </g>
</svg>
