<?xml version="1.0" encoding="UTF-8" standalone="no"?>
<!-- Created with Inkscape (http://www.inkscape.org/) --><svg height="48px" id="svg7270" inkscape:output_extension="org.inkscape.output.svg.inkscape" inkscape:version="0.46" sodipodi:docname="system-software-update.svg" sodipodi:version="0.32" width="48px" xmlns="http://www.w3.org/2000/svg" xmlns:cc="http://creativecommons.org/ns#" xmlns:dc="http://purl.org/dc/elements/1.1/" xmlns:inkscape="http://www.inkscape.org/namespaces/inkscape" xmlns:rdf="http://www.w3.org/1999/02/22-rdf-syntax-ns#" xmlns:sodipodi="http://sodipodi.sourceforge.net/DTD/sodipodi-0.dtd" xmlns:svg="http://www.w3.org/2000/svg" xmlns:xlink="http://www.w3.org/1999/xlink">
  <metadata>
    <rdf:RDF xmlns:cc="http://web.resource.org/cc/" xmlns:dc="http://purl.org/dc/elements/1.1/" xmlns:rdf="http://www.w3.org/1999/02/22-rdf-syntax-ns#">
      <cc:Work rdf:about="">
        <dc:title></dc:title>
        <dc:description></dc:description>
        <dc:subject>
          <rdf:Bag>
            <rdf:li>unsorted</rdf:li>
          </rdf:Bag>
        </dc:subject>
        <dc:publisher>
          <cc:Agent rdf:about="http://www.openclipart.org/">
            <dc:title>Open Clip Art Library, Source: GNOME-Colors, Source: GNOME-Colors, Source: GNOME-Colors, Source: GNOME-Colors, Source: GNOME-Colors</dc:title>
          </cc:Agent>
        </dc:publisher>
        <dc:creator>
          <cc:Agent>
            <dc:title></dc:title>
          </cc:Agent>
        </dc:creator>
        <dc:rights>
          <cc:Agent>
            <dc:title></dc:title>
          </cc:Agent>
        </dc:rights>
        <dc:date></dc:date>
        <dc:format>image/svg+xml</dc:format>
        <dc:type rdf:resource="http://purl.org/dc/dcmitype/StillImage"/>
        <cc:license rdf:resource="http://creativecommons.org/licenses/GPL/2.0/"/>
        <dc:language>en</dc:language>
      </cc:Work>
    </rdf:RDF>
  </metadata>
  <defs id="defs7272">
    <linearGradient id="linearGradient4873" inkscape:collect="always">
      <stop id="stop4875" offset="0" style="stop-color:#ffffff;stop-opacity:1;"/>
      <stop id="stop4877" offset="1" style="stop-color:#ffffff;stop-opacity:0;"/>
    </linearGradient>
    <linearGradient gradientTransform="matrix(1.5436745,0,0,1.5436393,-63.017183,37.419463)" gradientUnits="userSpaceOnUse" id="linearGradient2704" inkscape:collect="always" x1="62.771355" x2="62.579906" xlink:href="#linearGradient4873" y1="-13.185048" y2="7.4599638"/>
    <linearGradient id="linearGradient3811">
      <stop id="stop3813" offset="0" style="stop-color:#42770c;stop-opacity:1"/>
      <stop id="stop3815" offset="1" style="stop-color:#789e2d;stop-opacity:1"/>
    </linearGradient>
    <linearGradient gradientTransform="matrix(0.7287372,0,0,0.7287206,15.796514,14.228326)" gradientUnits="userSpaceOnUse" id="linearGradient3927" inkscape:collect="always" x1="15.046636" x2="15.046636" xlink:href="#linearGradient3811" y1="44.787998" y2="3.8851264"/>
    <linearGradient id="linearGradient5106">
      <stop id="stop5108" offset="0" style="stop-color:#a7cc5c;stop-opacity:1"/>
      <stop id="stop5110" offset="1" style="stop-color:#789e2d;stop-opacity:1"/>
    </linearGradient>
    <radialGradient cx="62.200348" cy="-8.5060539" fx="62.200348" fy="-8.5060539" gradientTransform="matrix(-5.9025587,-9.7773057e-8,3.8757273e-8,-2.3442794,400.1412,4.1903282)" gradientUnits="userSpaceOnUse" id="radialGradient2707" inkscape:collect="always" r="9.7552834" xlink:href="#linearGradient5106"/>
    <linearGradient id="linearGradient10691" inkscape:collect="always">
      <stop id="stop10693" offset="0" style="stop-color:#000000;stop-opacity:1;"/>
      <stop id="stop10695" offset="1" style="stop-color:#000000;stop-opacity:0;"/>
    </linearGradient>
    <radialGradient cx="6.702713" cy="73.615715" fx="6.702713" fy="73.615715" gradientTransform="scale(1.902215,0.525703)" gradientUnits="userSpaceOnUse" id="radialGradient3042" inkscape:collect="always" r="7.228416" xlink:href="#linearGradient10691"/>
    <linearGradient id="linearGradient3540" inkscape:collect="always">
      <stop id="stop3542" offset="0" style="stop-color:#ffffff;stop-opacity:1;"/>
      <stop id="stop3544" offset="1" style="stop-color:#ffffff;stop-opacity:0;"/>
    </linearGradient>
    <linearGradient gradientUnits="userSpaceOnUse" id="linearGradient7581" inkscape:collect="always" x1="322.26392" x2="329.12961" xlink:href="#linearGradient3540" y1="55.34375" y2="64.329506"/>
    <linearGradient gradientUnits="userSpaceOnUse" id="linearGradient7579" inkscape:collect="always" x1="325.65164" x2="328.24478" xlink:href="#linearGradient3497" y1="62.475075" y2="61.084908"/>
    <linearGradient id="linearGradient7088">
      <stop id="stop7090" offset="0" style="stop-color:#c17d11;stop-opacity:1;"/>
      <stop id="stop7092" offset="1" style="stop-color:#e9b96e;stop-opacity:1"/>
    </linearGradient>
    <linearGradient gradientTransform="matrix(0.1516675,0,0,0.1638445,300.96358,54.165417)" gradientUnits="userSpaceOnUse" id="linearGradient7577" inkscape:collect="always" x1="251.94502" x2="161.94502" xlink:href="#linearGradient7088" y1="18.836056" y2="46.195984"/>
    <linearGradient gradientTransform="matrix(0.8365572,0,0,1,52.219983,0)" gradientUnits="userSpaceOnUse" id="linearGradient7575" inkscape:collect="always" x1="334.77948" x2="327.34198" xlink:href="#linearGradient3582" y1="69.490768" y2="69.490768"/>
    <linearGradient id="linearGradient3532" inkscape:collect="always">
      <stop id="stop3534" offset="0" style="stop-color:#ffffff;stop-opacity:1;"/>
      <stop id="stop3536" offset="1" style="stop-color:#ffffff;stop-opacity:0;"/>
    </linearGradient>
    <linearGradient gradientUnits="userSpaceOnUse" id="linearGradient7573" inkscape:collect="always" x1="316.42142" x2="304.1875" xlink:href="#linearGradient3532" y1="58.144356" y2="67.203125"/>
    <linearGradient id="linearGradient3516" inkscape:collect="always">
      <stop id="stop3518" offset="0" style="stop-color:#ffffff;stop-opacity:1;"/>
      <stop id="stop3520" offset="1" style="stop-color:#ffffff;stop-opacity:0;"/>
    </linearGradient>
    <radialGradient cx="318.26694" cy="81.264877" fx="318.26694" fy="81.264877" gradientTransform="matrix(11.694835,-3.1336215,0.2338827,0.8728621,-3435.8358,1012.645)" gradientUnits="userSpaceOnUse" id="radialGradient7571" inkscape:collect="always" r="15.375" xlink:href="#linearGradient3516"/>
    <linearGradient id="linearGradient3497" inkscape:collect="always">
      <stop id="stop3499" offset="0" style="stop-color:#c17d11;stop-opacity:1;"/>
      <stop id="stop3501" offset="1" style="stop-color:#c17d11;stop-opacity:0;"/>
    </linearGradient>
    <linearGradient gradientUnits="userSpaceOnUse" id="linearGradient7569" inkscape:collect="always" x1="317" x2="313.625" xlink:href="#linearGradient3497" y1="65.25" y2="62.475075"/>
    <linearGradient id="linearGradient7000" inkscape:collect="always">
      <stop id="stop7002" offset="0" style="stop-color:#eeeeec;stop-opacity:1"/>
      <stop id="stop7005" offset="1" style="stop-color:#e9b96e;stop-opacity:1"/>
    </linearGradient>
    <radialGradient cx="93.23716" cy="132.00948" fx="93.23716" fy="132.00948" gradientTransform="matrix(0.194642,-0.362756,0.2778653,0.17262,263.08914,83.463419)" gradientUnits="userSpaceOnUse" id="radialGradient7567" inkscape:collect="always" r="48.719242" xlink:href="#linearGradient7000"/>
    <linearGradient id="linearGradient3582" inkscape:collect="always">
      <stop id="stop3584" offset="0" style="stop-color:#000000;stop-opacity:1;"/>
      <stop id="stop3586" offset="1" style="stop-color:#000000;stop-opacity:0;"/>
    </linearGradient>
    <linearGradient gradientTransform="matrix(0.914635,0,0,1,27.274119,0)" gradientUnits="userSpaceOnUse" id="linearGradient7565" inkscape:collect="always" x1="314.81003" x2="321.78522" xlink:href="#linearGradient3582" y1="69.553268" y2="69.490768"/>
    <linearGradient id="linearGradient3757" inkscape:collect="always">
      <stop id="stop3759" offset="0" style="stop-color:#ffffff;stop-opacity:1;"/>
      <stop id="stop3761" offset="1" style="stop-color:#ffffff;stop-opacity:0;"/>
    </linearGradient>
    <radialGradient cx="321.375" cy="70.5" fx="321.375" fy="70.5" gradientTransform="matrix(1,0,0,0.4274194,0,40.366935)" gradientUnits="userSpaceOnUse" id="radialGradient7563" inkscape:collect="always" r="15.5" xlink:href="#linearGradient3757"/>
    <linearGradient id="linearGradient3737">
      <stop id="stop3739" offset="0" style="stop-color:#faefde;stop-opacity:1"/>
      <stop id="stop3741" offset="0.68321055" style="stop-color:#e9b96e;stop-opacity:1"/>
      <stop id="stop3743" offset="1" style="stop-color:#e9b96e;stop-opacity:0"/>
    </linearGradient>
    <radialGradient cx="320.7493" cy="70.499977" fx="320.7493" fy="70.499977" gradientTransform="matrix(1.1851374,0,0,0.1612901,-56.76846,59.129051)" gradientUnits="userSpaceOnUse" id="radialGradient7561" inkscape:collect="always" r="15.500023" xlink:href="#linearGradient3737"/>
    <linearGradient id="linearGradient3712" inkscape:collect="always">
      <stop id="stop3714" offset="0" style="stop-color:#e9b96e;stop-opacity:1;"/>
      <stop id="stop3716" offset="1" style="stop-color:#e9b96e;stop-opacity:0;"/>
    </linearGradient>
    <radialGradient cx="321.7785" cy="96.847473" fx="321.7785" fy="96.847473" gradientTransform="matrix(4.6140944,0,0,0.6613562,-1154.7032,27.949324)" gradientUnits="userSpaceOnUse" id="radialGradient7559" inkscape:collect="always" r="15.5" xlink:href="#linearGradient3712"/>
    <linearGradient id="linearGradient5967">
      <stop id="stop5969" offset="0" style="stop-color:#c17d11;stop-opacity:1;"/>
      <stop id="stop5971" offset="1" style="stop-color:#e9b96e;stop-opacity:1"/>
    </linearGradient>
    <linearGradient gradientTransform="matrix(0.1549758,0,0,0.1517241,299.35074,56.193103)" gradientUnits="userSpaceOnUse" id="linearGradient7557" inkscape:collect="always" x1="174.01562" x2="30" xlink:href="#linearGradient5967" y1="236" y2="64"/>
    <linearGradient id="linearGradient6977">
      <stop id="stop7039" offset="0" style="stop-color:#ebd3ad;stop-opacity:1;"/>
      <stop id="stop6981" offset="1" style="stop-color:#e9b96e;stop-opacity:1"/>
    </linearGradient>
    <linearGradient gradientTransform="matrix(0.159975,0,0,0.1765787,298.70076,53.371862)" gradientUnits="userSpaceOnUse" id="linearGradient7555" inkscape:collect="always" x1="52" x2="52" xlink:href="#linearGradient6977" y1="40.482288" y2="76.67421"/>
    <linearGradient id="linearGradient3703">
      <stop id="stop3705" offset="0" style="stop-color:black;stop-opacity:0;"/>
      <stop id="stop3711" offset="0.5" style="stop-color:black;stop-opacity:1;"/>
      <stop id="stop3707" offset="1" style="stop-color:black;stop-opacity:0;"/>
    </linearGradient>
    <linearGradient gradientTransform="matrix(1.179548,0,0,1,-4.219389,0)" gradientUnits="userSpaceOnUse" id="linearGradient7462" inkscape:collect="always" x1="17.554192" x2="17.554192" xlink:href="#linearGradient3703" y1="46.000275" y2="34.999718"/>
    <radialGradient cx="5" cy="41.5" fx="5" fy="41.5" gradientTransform="matrix(0.99001,0,0,1.1,-14.88523,-86.15)" gradientUnits="userSpaceOnUse" id="radialGradient7460" inkscape:collect="always" r="5" xlink:href="#linearGradient3681"/>
    <linearGradient id="linearGradient3681" inkscape:collect="always">
      <stop id="stop3683" offset="0" style="stop-color:black;stop-opacity:1;"/>
      <stop id="stop3685" offset="1" style="stop-color:black;stop-opacity:0;"/>
    </linearGradient>
    <radialGradient cx="5" cy="41.5" fx="5" fy="41.5" gradientTransform="matrix(0.990017,0,0,1.1,32.1147,-5.15)" gradientUnits="userSpaceOnUse" id="radialGradient7458" inkscape:collect="always" r="5" xlink:href="#linearGradient3681"/>
  </defs>
  <sodipodi:namedview bordercolor="#666666" borderopacity="1.0" id="base" inkscape:current-layer="layer1" inkscape:cx="24" inkscape:cy="24" inkscape:document-units="px" inkscape:grid-bbox="true" inkscape:pageopacity="0.0" inkscape:pageshadow="2" inkscape:window-height="690" inkscape:window-width="641" inkscape:window-x="0" inkscape:window-y="331" inkscape:zoom="7" pagecolor="#ffffff" showgrid="true"/>
  <g id="layer1" inkscape:groupmode="layer" inkscape:label="Layer 1">
    <g id="g3713" style="opacity:0.4" transform="matrix(1.000001,0,0,1.2727273,-5e-6,-12.545454)">
      <rect height="11" id="rect1907" style="opacity:1;fill:url(#radialGradient7458);fill-opacity:1;stroke:none;stroke-width:1;stroke-linecap:round;stroke-linejoin:miter;stroke-miterlimit:4;stroke-dasharray:none;stroke-dashoffset:1.20000057;stroke-opacity:1" width="4.9352183" x="37.064781" y="35"/>
      <rect height="11" id="rect3689" style="opacity:1;fill:url(#radialGradient7460);fill-opacity:1;stroke:none;stroke-width:1;stroke-linecap:round;stroke-linejoin:miter;stroke-miterlimit:4;stroke-dasharray:none;stroke-dashoffset:1.20000057;stroke-opacity:1" transform="scale(-1,-1)" width="4.9351835" x="-9.9351835" y="-46"/>
      <rect height="11" id="rect3693" style="opacity:1;fill:url(#linearGradient7462);fill-opacity:1;stroke:none;stroke-width:1;stroke-linecap:round;stroke-linejoin:miter;stroke-miterlimit:4;stroke-dasharray:none;stroke-dashoffset:1.20000057;stroke-opacity:1" width="27.129599" x="9.9351835" y="35"/>
    </g>
    <g id="g4045" style="display:inline;enable-background:new" transform="translate(-296.00045,-50)">
      <path d="M 322.875,54.40625 C 322.64926,54.465917 322.49407,54.672835 322.5,54.90625 L 322.59375,61.5 L 318.40625,61.5 L 318.4375,58.9375 C 318.44168,58.796741 318.39241,58.648956 318.28125,58.5625 C 318.17008,58.476044 318.0104,58.461295 317.875,58.5 L 306.5,61.5 C 306.35947,61.54996 306.25368,61.667506 306.21875,61.8125 L 306.15625,62.03125 C 306.05939,62.200213 305.96316,62.375835 305.90625,62.5625 L 303.5625,70.09375 C 303.51406,70.207689 303.5,70.305686 303.5,70.4375 C 303.4981,70.458668 303.5019,70.478889 303.5,70.5 L 303.5,90.84375 C 303.5,91.371002 303.93699,92.499999 304.46875,92.5 L 334.53125,92.5 C 335.06301,92.5 335.5,91.371004 335.5,90.84375 L 335.5,70.5 L 335.4375,70.09375 L 335.40625,70 C 335.40291,69.966972 335.41634,69.938782 335.40625,69.90625 L 332.9375,61.78125 C 332.9115,61.684204 332.85709,61.597145 332.78125,61.53125 L 323.3125,54.5 C 323.18929,54.402174 323.02747,54.367498 322.875,54.40625 z" id="path3678" sodipodi:nodetypes="cccccsccccccsccccccccccccc" style="fill:url(#linearGradient7555);fill-opacity:1;fill-rule:evenodd;stroke:#8f5902;stroke-width:1;stroke-linecap:round;stroke-linejoin:miter;stroke-miterlimit:4;stroke-dashoffset:0.69999992;stroke-opacity:1;display:inline;enable-background:new"/>
      <rect height="1" id="rect3606" style="opacity:0.18918918;fill:#ffffff;fill-opacity:1;stroke:none;stroke-width:2;stroke-linecap:round;stroke-linejoin:round;stroke-miterlimit:4;stroke-dasharray:none;stroke-dashoffset:0.50000001;stroke-opacity:1;display:inline;enable-background:new" width="23.340202" x="309" y="66"/>
      <path d="M 304.92985,70 C 304.41471,70 304,70.406014 304,70.910345 L 304,90.482758 L 304,91.089654 C 304,91.593985 304.41471,91.999999 304.92985,92 L 334.07015,92 C 334.5853,92 335,91.593984 335,91.089654 L 335,70.910345 C 335,70.406014 334.5853,70 334.07015,70 L 304.92985,70 z" id="path3628" sodipodi:nodetypes="cccccccccc" style="fill:url(#linearGradient7557);fill-opacity:1;fill-rule:evenodd;stroke:none;stroke-width:1;stroke-linecap:round;stroke-linejoin:miter;stroke-miterlimit:4;stroke-dashoffset:0.69999992;stroke-opacity:1;display:inline;enable-background:new"/>
      <path d="M 304.92985,70 C 304.41471,70 304,70.406014 304,70.910345 L 304,90.482758 L 304,91.089654 C 304,91.593985 304.41471,91.999999 304.92985,92 L 334.07015,92 C 334.5853,92 335,91.593984 335,91.089654 L 335,70.910345 C 335,70.406014 334.5853,70 334.07015,70 L 304.92985,70 z" id="path3702" sodipodi:nodetypes="cccccccccc" style="opacity:0.81531528;fill:url(#radialGradient7559);fill-opacity:1;fill-rule:evenodd;stroke:none;stroke-width:1;stroke-linecap:round;stroke-linejoin:miter;stroke-miterlimit:4;stroke-dashoffset:0.69999992;stroke-opacity:1;display:inline;enable-background:new"/>
      <path d="M 304.71875,68 L 304.03125,70.25 C 304.03158,70.260414 304.03158,70.270836 304.03125,70.28125 C 304.00957,70.33225 304,70.341241 304,70.4375 C 304.00033,70.447914 304.00033,70.458336 304,70.46875 C 304.00297,70.435653 303.99952,70.489668 304,70.5 C 304.00048,70.510332 304.0049,70.47686 304,70.53125 L 304,73 L 335,73 L 335,70.5625 L 335,70.5 L 334.96875,70.25 L 334.9375,70.15625 L 334.28125,68 L 304.71875,68 z" id="path3723" style="opacity:0.5;fill:url(#radialGradient7561);fill-opacity:1;fill-rule:evenodd;stroke:none;stroke-width:1;stroke-linecap:round;stroke-linejoin:miter;stroke-miterlimit:4;stroke-dashoffset:0.69999992;stroke-opacity:1;display:inline;enable-background:new"/>
      <rect height="1" id="rect3746" style="opacity:0.62330568;fill:url(#radialGradient7563);fill-opacity:1;stroke:none;stroke-width:2;stroke-linecap:round;stroke-linejoin:round;stroke-miterlimit:4;stroke-dasharray:none;stroke-dashoffset:0.50000001;stroke-opacity:1;display:inline;enable-background:new" width="31" x="304" y="70"/>
      <path d="M 307.9375,61.90625 C 307.82039,61.90625 307.7549,61.954412 307.65625,62.09375 C 307.55761,62.233088 307.47013,62.458403 307.40625,62.6875 L 305.28125,70.09375 L 323.5,70.09375 L 323.5,61.90625 L 307.9375,61.90625 z" id="path3558" style="opacity:0.36936939;fill:url(#linearGradient7565);fill-opacity:1;fill-rule:evenodd;stroke:none;stroke-width:1;stroke-linecap:round;stroke-linejoin:miter;stroke-miterlimit:4;stroke-dashoffset:0.69999992;stroke-opacity:1;display:inline;enable-background:new"/>
      <rect height="1" id="rect3602" style="opacity:0.39639641;fill:#c17d11;fill-opacity:1;stroke:none;stroke-width:2;stroke-linecap:round;stroke-linejoin:round;stroke-miterlimit:4;stroke-dasharray:none;stroke-dashoffset:0.50000001;stroke-opacity:1" width="23.340202" x="309" y="65"/>
      <path d="M 317.875,59.09375 L 306.71875,62.03125 L 304.25,69.8125 L 317.75,66.875 L 317.875,59.09375 z" id="path3466" inkscape:original="M 318 58.9375 L 306.625 61.9375 L 304.0625 70 L 317.875 66.96875 L 318 58.9375 z " inkscape:radius="-0.11941363" sodipodi:type="inkscape:offset" style="fill:url(#radialGradient7567);fill-opacity:1;fill-rule:evenodd;stroke:none;stroke-width:1;stroke-linecap:butt;stroke-linejoin:miter;marker:none;marker-start:none;marker-mid:none;marker-end:none;stroke-miterlimit:4;stroke-dasharray:none;stroke-dashoffset:0;stroke-opacity:1;visibility:visible;display:inline;overflow:visible;enable-background:new"/>
      <path d="M 317.875,58.5 L 306.5,61.5 C 306.35947,61.54996 306.25368,61.667506 306.21875,61.8125 L 303.65625,69.875 C 303.61173,70.021945 303.64677,70.181469 303.74877,70.296228 C 303.85078,70.410987 304.0051,70.464488 304.15625,70.4375 L 317.96875,67.40625 C 318.1724,67.360088 318.31583,67.177536 318.3125,66.96875 L 318.4375,58.9375 C 318.44168,58.796741 318.37845,58.662433 318.2673,58.575977 C 318.15614,58.489521 318.0104,58.461295 317.875,58.5 L 317.875,58.5 z" id="path3489" inkscape:original="M 318 58.9375 L 306.625 61.9375 L 304.0625 70 L 317.875 66.96875 L 318 58.9375 z " inkscape:radius="0.44133759" sodipodi:type="inkscape:offset" style="fill:none;fill-opacity:1;fill-rule:evenodd;stroke:url(#linearGradient7569);stroke-width:1;stroke-linecap:butt;stroke-linejoin:miter;marker:none;marker-start:none;marker-mid:none;marker-end:none;stroke-miterlimit:4;stroke-dasharray:none;stroke-dashoffset:0;stroke-opacity:1;visibility:visible;display:inline;overflow:visible;enable-background:new"/>
      <path d="M 323.65625,56.125 L 323.71875,61.46875 C 323.73018,61.77333 323.61637,62.069302 323.40382,62.287756 C 323.19127,62.506209 322.89853,62.628083 322.59375,62.625 L 318.40625,62.625 C 318.10702,62.627829 317.81923,62.510212 317.60763,62.298617 C 317.39604,62.087022 317.27842,61.799227 317.28125,61.5 L 317.3125,59.78125 L 307.1875,62.4375 C 307.18765,62.447916 307.18765,62.458334 307.1875,62.46875 C 307.1693,62.511683 307.14843,62.553432 307.125,62.59375 C 307.03546,62.749944 306.98033,62.837024 306.96875,62.875 C 306.9689,62.885416 306.9689,62.895834 306.96875,62.90625 L 304.625,70.4375 C 304.625,70.405959 304.63178,70.465233 304.625,70.5 L 304.625,70.53125 C 304.64058,70.357706 304.64449,70.377244 304.625,70.59375 L 304.625,90.84375 C 304.625,90.799502 304.68196,91.178267 304.78125,91.375 L 334.21875,91.375 C 334.31804,91.178267 334.375,90.799504 334.375,90.84375 L 334.375,70.5 L 334.375,70.4375 L 334.34375,70.34375 C 334.32611,70.272049 334.31564,70.198772 334.3125,70.125 L 331.9375,62.3125 L 323.65625,56.125 z" id="path3512" inkscape:original="M 322.875 54.40625 C 322.64926 54.465917 322.49407 54.672835 322.5 54.90625 L 322.59375 61.5 L 318.40625 61.5 L 318.4375 58.9375 C 318.44168 58.796741 318.39241 58.648956 318.28125 58.5625 C 318.17008 58.476044 318.0104 58.461295 317.875 58.5 L 306.5 61.5 C 306.35947 61.54996 306.25368 61.667506 306.21875 61.8125 L 306.15625 62.03125 C 306.05939 62.200213 305.96316 62.375835 305.90625 62.5625 L 303.5625 70.09375 C 303.51406 70.207689 303.5 70.305686 303.5 70.4375 C 303.4981 70.458668 303.5019 70.478889 303.5 70.5 L 303.5 90.84375 C 303.5 91.371002 303.93699 92.499999 304.46875 92.5 L 334.53125 92.5 C 335.06301 92.5 335.5 91.371004 335.5 90.84375 L 335.5 70.5 L 335.4375 70.09375 L 335.40625 70 C 335.40291 69.966972 335.41634 69.938782 335.40625 69.90625 L 332.9375 61.78125 C 332.9115 61.684204 332.85709 61.597145 332.78125 61.53125 L 323.3125 54.5 C 323.18929 54.402174 323.02747 54.367498 322.875 54.40625 z " inkscape:radius="-1.1144003" sodipodi:type="inkscape:offset" style="opacity:0.36936939;fill:none;fill-opacity:1;fill-rule:evenodd;stroke:url(#radialGradient7571);stroke-width:1;stroke-linecap:round;stroke-linejoin:miter;stroke-miterlimit:4;stroke-dashoffset:0.69999992;stroke-opacity:1;display:inline;enable-background:new"/>
      <path d="M 317.5625,59.5 L 306.96875,62.28125 L 304.6875,69.40625 L 317.4375,66.59375 L 317.5625,59.5 z" id="path3524" inkscape:original="M 318 58.9375 L 306.625 61.9375 L 304.0625 70 L 317.875 66.96875 L 318 58.9375 z " inkscape:radius="-0.43543664" sodipodi:type="inkscape:offset" style="opacity:0.53153154;fill:none;fill-opacity:1;fill-rule:evenodd;stroke:url(#linearGradient7573);stroke-width:1;stroke-linecap:butt;stroke-linejoin:miter;marker:none;marker-start:none;marker-mid:none;marker-end:none;stroke-miterlimit:4;stroke-dasharray:none;stroke-dashoffset:0;stroke-opacity:1;visibility:visible;display:inline;overflow:visible;enable-background:new"/>
      <path d="M 323.0625,61.90625 L 323.0625,70.09375 L 333.71875,70.09375 L 331.59375,62.5625 C 331.53244,62.342161 331.46293,62.136199 331.375,62.03125 C 331.28708,61.926301 331.20816,61.90625 331.0625,61.90625 L 323.0625,61.90625 z" id="path3593" style="opacity:0.36936939;fill:url(#linearGradient7575);fill-opacity:1;fill-rule:evenodd;stroke:none;stroke-width:1;stroke-linecap:round;stroke-linejoin:miter;stroke-miterlimit:4;stroke-dashoffset:0.69999992;stroke-opacity:1;display:inline;enable-background:new"/>
      <g id="g3562">
        <path d="M 323,54.90625 L 323.125,63.03125 L 334.9375,70.0625 L 332.46875,61.9375 L 323,54.90625 z" id="path3468" inkscape:original="M 323 54.90625 L 323.125 63.03125 L 334.9375 70.0625 L 332.46875 61.9375 L 323 54.90625 z " inkscape:radius="-0.0019137046" sodipodi:type="inkscape:offset" style="fill:url(#linearGradient7577);fill-opacity:1;fill-rule:evenodd;stroke:none;stroke-width:1;stroke-linecap:butt;stroke-linejoin:miter;marker:none;marker-start:none;marker-mid:none;marker-end:none;stroke-miterlimit:4;stroke-dasharray:none;stroke-dashoffset:0;stroke-opacity:1;visibility:visible;display:inline;overflow:visible;enable-background:new"/>
        <path d="M 322.875,54.40625 C 322.64926,54.465917 322.49407,54.672835 322.5,54.90625 L 322.625,63.03125 C 322.62421,63.211268 322.71951,63.378038 322.875,63.46875 L 334.6875,70.5 C 334.86776,70.596275 335.08831,70.574158 335.24586,70.444006 C 335.40342,70.313855 335.46677,70.101441 335.40625,69.90625 L 332.9375,61.78125 C 332.9115,61.684204 332.85709,61.597145 332.78125,61.53125 L 323.3125,54.5 C 323.18929,54.402174 323.02747,54.367498 322.875,54.40625 z" id="path3491" inkscape:original="M 323 54.90625 L 323.125 63.03125 L 334.9375 70.0625 L 332.46875 61.9375 L 323 54.90625 z " inkscape:radius="0.50389111" sodipodi:type="inkscape:offset" style="fill:none;fill-opacity:1;fill-rule:evenodd;stroke:url(#linearGradient7579);stroke-width:1;stroke-linecap:butt;stroke-linejoin:miter;marker:none;marker-start:none;marker-mid:none;marker-end:none;stroke-miterlimit:4;stroke-dasharray:none;stroke-dashoffset:0;stroke-opacity:1;visibility:visible;display:inline;overflow:visible;enable-background:new"/>
        <path d="M 323.46875,55.84375 L 323.59375,62.75 L 334.125,69.03125 L 332.03125,62.21875 L 323.46875,55.84375 z" id="path3526" inkscape:original="M 323 54.90625 L 323.125 63.03125 L 334.9375 70.0625 L 332.46875 61.9375 L 323 54.90625 z " inkscape:radius="-0.47827792" sodipodi:type="inkscape:offset" style="opacity:0.25225226;fill:none;fill-opacity:1;fill-rule:evenodd;stroke:url(#linearGradient7581);stroke-width:1;stroke-linecap:butt;stroke-linejoin:miter;marker:none;marker-start:none;marker-mid:none;marker-end:none;stroke-miterlimit:4;stroke-dasharray:none;stroke-dashoffset:0;stroke-opacity:1;visibility:visible;display:inline;overflow:visible;enable-background:new"/>
        <path d="M 323,54.90625 L 323.125,63.03125 L 334.9375,70.0625 L 324.0625,62.81342 L 324,56.49908 L 332.46875,61.9375 L 323,54.90625 z" id="path3548" sodipodi:nodetypes="ccccccc" style="opacity:0.36936939;fill:#ffffff;fill-opacity:1;fill-rule:evenodd;stroke:none;stroke-width:1;stroke-linecap:butt;stroke-linejoin:miter;marker:none;marker-start:none;marker-mid:none;marker-end:none;stroke-miterlimit:4;stroke-dashoffset:0;stroke-opacity:1;visibility:visible;display:inline;overflow:visible;enable-background:new"/>
      </g>
      <rect height="1" id="rect3604" style="opacity:0.20720723;fill:#ffffff;fill-opacity:1;stroke:none;stroke-width:2;stroke-linecap:round;stroke-linejoin:round;stroke-miterlimit:4;stroke-dasharray:none;stroke-dashoffset:0.50000001;stroke-opacity:1;display:inline;enable-background:new" width="3" x="319" y="62"/>
    </g>
    <path d="M 26.5,38.700001 A 13.75,3.8 0 1 1 -1,38.700001 A 13.75,3.8 0 1 1 26.5,38.700001 z" id="path2858" sodipodi:cx="12.75" sodipodi:cy="38.700001" sodipodi:rx="13.75" sodipodi:ry="3.8" sodipodi:type="arc" style="opacity:0.5;fill:url(#radialGradient3042);fill-opacity:1;fill-rule:nonzero;stroke:none;stroke-width:0.80000001;stroke-linecap:butt;stroke-linejoin:miter;marker:none;marker-start:none;marker-mid:none;marker-end:none;stroke-miterlimit:4;stroke-dashoffset:0;stroke-opacity:1;visibility:visible;display:inline;overflow:visible" transform="matrix(1.0181818,0,0,1.0526316,20.018182,3.2631562)"/>
    <path d="M 47.500174,31.999486 C 47.500174,40.007969 41.007746,46.500175 33.000183,46.500175 C 24.991885,46.500175 18.499825,40.007895 18.499825,31.999486 C 18.499825,23.99137 24.991885,17.499825 33.000183,17.499825 C 41.007746,17.499825 47.500174,23.99137 47.500174,31.999486 L 47.500174,31.999486 z" id="path6495" style="fill:url(#radialGradient2707);fill-opacity:1;fill-rule:nonzero;stroke:url(#linearGradient3927);stroke-width:0.9996503;stroke-miterlimit:4;stroke-dasharray:none"/>
    <path d="M 46.500204,31.99952 C 46.500204,39.455718 40.455512,45.500205 33.00017,45.500205 C 25.544146,45.500205 19.499795,39.45565 19.499795,31.99952 C 19.499795,24.543666 25.544146,18.499795 33.00017,18.499795 C 40.455512,18.499795 46.500204,24.543666 46.500204,31.99952 L 46.500204,31.99952 z" id="path8655" style="opacity:0.6;fill:none;fill-opacity:1;fill-rule:nonzero;stroke:url(#linearGradient2704);stroke-width:0.99959099;stroke-miterlimit:4;stroke-dasharray:none;stroke-opacity:1"/>
    <path d="M 23.5,32.5 L 33,22.5 L 42.5,32.5 L 36.75,32.5 L 36.75,41.5 L 29.25,41.5 L 29.25,32.5 L 23.5,32.5 z" id="path4236" sodipodi:nodetypes="cccccccc" style="opacity:1;fill:#ffffff;fill-opacity:1;fill-rule:nonzero;stroke:#ffffff;stroke-width:1;stroke-linecap:butt;stroke-linejoin:miter;marker:none;marker-start:none;marker-mid:none;marker-end:none;stroke-miterlimit:4;stroke-dasharray:none;stroke-dashoffset:0;stroke-opacity:1;visibility:visible;display:inline;overflow:visible"/>
  </g>
</svg>
