<?xml version="1.0" encoding="utf-8"?>
<!-- Generator: Adobe Illustrator 18.1.0, SVG Export Plug-In . SVG Version: 6.00 Build 0)  -->
<!DOCTYPE svg PUBLIC "-//W3C//DTD SVG 1.1//EN" "http://www.w3.org/Graphics/SVG/1.1/DTD/svg11.dtd">
<svg version="1.1" id="Calque_1" xmlns="http://www.w3.org/2000/svg" xmlns:xlink="http://www.w3.org/1999/xlink" x="0px" y="0px"
	 viewBox="0 0 32 32" enable-background="new 0 0 32 32" xml:space="preserve">
<path fill="#CCCCCC" d="M26,24h-0.4c0-0.1-0.1-0.2-0.1-0.3c-0.7-1.6-1.5-2.8-3.5-3.4V18c0-3.3-2.7-6-6-6c-3.3,0-6,2.7-6,6v2.3
	c-2,0.6-2.9,1.8-3.5,3.4c0,0,0,0.1,0,0.1C2.8,23.1,0,19.9,0,16v-2c0-4.4,3.6-8,8-8c0.8,0,1.5,0.1,2.2,0.3C10.9,2.7,14.2,0,18,0
	c4.4,0,8,3.6,8,8c0,0.7-0.1,1.4-0.3,2c0.1,0,0.2,0,0.3,0c3.3,0,6,2.7,6,6v2C32,21.3,29.3,24,26,24z"/>
<path fill="#F2F2F2" d="M12,24h2v-6c0-1.1,0.9-2,2-2c1.1,0,2,0.9,2,2v6h2c0.8,0,1.5,0.5,1.8,1.2c0.1,0.2,0.1,0.4,0.1,0.6
	c0.1,0.6-0.1,1.2-0.6,1.6l-4,4C17,31.8,16.5,32,16,32c-0.5,0-1-0.2-1.4-0.6l-4-4c-0.4-0.4-0.6-1-0.6-1.6c0-0.2,0.1-0.4,0.1-0.6
	C10.5,24.5,11.2,24,12,24z"/>
<rect fill="none" width="32" height="32"/>
</svg>
