<?xml version="1.0" encoding="UTF-8" standalone="no"?>
<svg
   xmlns:dc="http://purl.org/dc/elements/1.1/"
   xmlns:cc="http://creativecommons.org/ns#"
   xmlns:rdf="http://www.w3.org/1999/02/22-rdf-syntax-ns#"
   xmlns:svg="http://www.w3.org/2000/svg"
   xmlns="http://www.w3.org/2000/svg"
   xml:space="preserve"
   enable-background="new 0 0 32 32"
   viewBox="0 0 32 32"
   y="0px"
   x="0px"
   id="Calque_1"
   version="1.1"><metadata
   id="metadata43"><rdf:RDF><cc:Work
       rdf:about=""><dc:format>image/svg+xml</dc:format><dc:type
         rdf:resource="http://purl.org/dc/dcmitype/StillImage" /><dc:title></dc:title></cc:Work></rdf:RDF></metadata><defs
   id="defs41" />
<path
   id="path2"
   d="M28,6c0-1.1-0.9-2-2-2H6C4.9,4,4,4.9,4,6v20c0,1.1,0.9,2,2,2h20  c1.1,0,2-0.9,2-2V6z"
   fill="#4D4D4D"
   clip-rule="evenodd"
   fill-rule="evenodd" />

<path
   id="path6"
   d="M26,32H6c-3.3,0-6-2.7-6-6V6c0-3.3,2.7-6,6-6h20c3.3,0,6,2.7,6,6  v20C32,29.3,29.3,32,26,32z M28,6c0-1.1-0.9-2-2-2H6C4.9,4,4,4.9,4,6v20c0,1.1,0.9,2,2,2h20c1.1,0,2-0.9,2-2V6z"
   fill="#F2F2F2"
   clip-rule="evenodd"
   fill-rule="evenodd" />
<g
   id="g8">
</g>
<g
   id="g10">
</g>
<g
   id="g12">
</g>
<g
   id="g14">
</g>
<g
   id="g16">
</g>
<g
   id="g18">
</g>
<g
   id="g20">
</g>
<g
   id="g22">
</g>
<g
   id="g24">
</g>
<g
   id="g26">
</g>
<g
   id="g28">
</g>
<g
   id="g30">
</g>
<g
   id="g32">
</g>
<g
   id="g34">
</g>
<g
   id="g36">
</g>
<path
   d="m 9.1897911,10.114301 c -0.48384,0 -0.901101,0.341924 -0.996278,0.815883 l -2.029452,10.155455 c -0.110057,0.55031 0.246085,1.083011 0.795381,1.193069 0.556201,0.113982 1.084021,-0.246085 1.193073,-0.79538 l 0.651882,-3.247122 h 2.8699319 l 0.647785,3.247122 c 0.110996,0.557485 0.658771,0.906193 1.197171,0.79538 0.549363,-0.110056 0.905437,-0.642759 0.795381,-1.193069 L 12.285213,10.930184 c -0.09517,-0.473959 -0.512431,-0.815883 -0.996274,-0.815883 z m 0.614982,2.287746 h 0.4345929 l 0.811779,4.063002 H 8.9929941 Z M 20.710512,9.7002137 c -0.561209,0 -1.016777,0.4578063 -1.016777,1.0208743 v 1.016774 h -3.046227 c -0.561205,0 -1.012673,0.457809 -1.012673,1.020876 0,0.563065 0.451466,1.016776 1.012673,1.016776 h 0.274696 c 0.577658,1.85973 1.425829,3.313572 2.37794,4.460692 -0.745862,0.684158 -1.478369,1.245052 -2.271343,1.873654 -0.437271,0.35118 -0.506831,0.995228 -0.155795,1.434967 0.349411,0.439057 0.990377,0.507857 1.426766,0.155794 0.861615,-0.682321 1.601995,-1.252055 2.410742,-1.996652 0.808748,0.744597 1.618828,1.314331 2.480441,1.996652 0.436393,0.352059 1.077353,0.283261 1.426766,-0.155794 0.351038,-0.439739 0.277375,-1.083787 -0.159884,-1.434967 -0.792979,-0.628602 -1.591082,-1.189496 -2.336946,-1.873654 0.952113,-1.147188 1.869915,-2.601029 2.447642,-4.460692 h 0.270592 c 0.561209,0 1.016774,-0.453711 1.016774,-1.016776 0,-0.563067 -0.455565,-1.020876 -1.016774,-1.020876 h -3.111838 v -1.016774 c 0,-0.563068 -0.455567,-1.0208743 -1.016775,-1.0208743 z m -1.668658,4.0753003 h 3.402916 c -0.438423,1.181552 -1.08891,2.13806 -1.734258,2.951929 -0.645345,-0.813869 -1.230238,-1.770309 -1.668658,-2.951929 z"
   style="color:#000000;display:inline;overflow:visible;visibility:visible;opacity:1;fill:#ffffff;fill-opacity:1;fill-rule:nonzero;stroke:none;stroke-width:6.29744864;stroke-linecap:butt;stroke-linejoin:round;stroke-miterlimit:4;stroke-dasharray:none;stroke-dashoffset:0;stroke-opacity:1;marker:none;enable-background:accumulate"
   id="rect977" /></svg>