<?xml version="1.0" encoding="utf-8"?>
<!-- Generator: Adobe Illustrator 18.1.0, SVG Export Plug-In . SVG Version: 6.00 Build 0)  -->
<!DOCTYPE svg PUBLIC "-//W3C//DTD SVG 1.1//EN" "http://www.w3.org/Graphics/SVG/1.1/DTD/svg11.dtd">
<svg version="1.1" id="Calque_1" xmlns="http://www.w3.org/2000/svg" xmlns:xlink="http://www.w3.org/1999/xlink" x="0px" y="0px"
	 viewBox="0 0 32 32" enable-background="new 0 0 32 32" xml:space="preserve">
<rect fill="#999999" width="32" height="32"/>
<polygon fill="#F2F2F2" points="0,5 1,5 1,4 4,4 4,5 8,5 8,8 9,8 9,2 12,2 12,5 13,5 13,4 16,4 16,8 17,8 17,6 18,6 18,5 20,5 20,8 
	21,8 21,6 22,6 22,5 24,5 24,4 26,4 26,5 29,5 29,4 32,4 32,0 0,0 "/>
<linearGradient id="SVGID_1_" gradientUnits="userSpaceOnUse" x1="2.8" y1="17.35" x2="30.7" y2="17.35">
	<stop  offset="0" style="stop-color:#000000;stop-opacity:0.8"/>
	<stop  offset="1" style="stop-color:#000000;stop-opacity:0.35"/>
</linearGradient>
<path fill="url(#SVGID_1_)" d="M18.5,21.5c-0.5-0.4-1-1-1.8-1.9c-1,1.2-1.9,2.1-2.8,2.7c-1.1,0.7-2.5,1-4.1,1c-2,0-3.6-0.5-4.9-1.6
	c-1.4-1.1-2.1-2.6-2.1-4.4c0-1.7,0.7-3.2,2.1-4.4c1.2-1,2.9-1.6,5-1.6c1.1,0,2,0.2,2.8,0.5c0.9,0.3,1.7,0.8,2.3,1.4
	c0.6,0.5,1.2,1.2,1.8,1.9c1-1.2,1.9-2.1,2.8-2.7c1.1-0.7,2.5-1,4.1-1c2,0,3.6,0.5,4.9,1.6c1.4,1.1,2.1,2.6,2.1,4.4
	c0,1.7-0.7,3.2-2.1,4.4c-1.2,1-2.9,1.6-5,1.6c-1.1,0-2-0.2-2.8-0.5S19.2,22.1,18.5,21.5 M9.6,21.3c2.4,0,4.3-1.2,5.8-3.7
	c-1.9-2.7-3.8-4.1-5.8-4.1c-1.5,0-2.6,0.4-3.3,1.1c-0.8,0.8-1.2,1.7-1.2,2.8c0,1.2,0.4,2.1,1.2,2.8C7.1,20.9,8.2,21.3,9.6,21.3
	 M23.9,13.5c-2.2,0-4.1,1.2-5.8,3.7c1.8,2.7,3.8,4.1,5.8,4.1c1.5,0,2.6-0.4,3.3-1.1c0.8-0.8,1.2-1.7,1.2-2.8c0-1.2-0.4-2.1-1.2-2.8
	C26.3,13.8,25.2,13.5,23.9,13.5"/>
<linearGradient id="SVGID_2_" gradientUnits="userSpaceOnUse" x1="-964.0289" y1="48.0195" x2="-962.7877" y2="48.9627" gradientTransform="matrix(20.79 0 0 14.7315 20047.7695 -696.964)">
	<stop  offset="0" style="stop-color:#CCCCCC"/>
	<stop  offset="1" style="stop-color:#F2F2F2;stop-opacity:0.6"/>
</linearGradient>
<path fill="url(#SVGID_2_)" d="M17.6,20.1c-0.5-0.4-1-1-1.8-1.9c-1,1.2-1.9,2.1-2.8,2.7c-1.1,0.7-2.5,1-4.1,1c-2,0-3.6-0.5-4.9-1.6
	c-1.4-1.1-2.1-2.6-2.1-4.4c0-1.7,0.7-3.2,2.1-4.4c1.2-1,2.9-1.6,5-1.6c1.1,0,2,0.2,2.8,0.5c0.9,0.3,1.7,0.8,2.3,1.4
	c0.6,0.5,1.2,1.2,1.8,1.9c1-1.2,1.9-2.1,2.8-2.7c1.1-0.7,2.5-1,4.1-1c2,0,3.6,0.5,4.9,1.6c1.4,1.1,2.1,2.6,2.1,4.4
	c0,1.7-0.7,3.2-2.1,4.4c-1.2,1-2.9,1.6-5,1.6c-1.1,0-2-0.2-2.8-0.5C19.2,21.2,18.4,20.8,17.6,20.1 M8.7,19.9c2.4,0,4.3-1.2,5.8-3.7
	c-1.9-2.7-3.8-4.1-5.8-4.1c-1.5,0-2.6,0.4-3.3,1.1C4.6,14,4.2,14.9,4.2,16c0,1.2,0.4,2.1,1.2,2.8C6.2,19.5,7.3,19.9,8.7,19.9
	 M23,12.1c-2.2,0-4.1,1.2-5.8,3.7c1.8,2.7,3.8,4.1,5.8,4.1c1.5,0,2.6-0.4,3.3-1.1c0.8-0.8,1.2-1.7,1.2-2.8c0-1.2-0.4-2.1-1.2-2.8
	C25.5,12.5,24.4,12.1,23,12.1"/>
<g>
</g>
<g>
</g>
<g>
</g>
<g>
</g>
<g>
</g>
<g>
</g>
<g>
</g>
<g>
</g>
<g>
</g>
<g>
</g>
<g>
</g>
<g>
</g>
<g>
</g>
<g>
</g>
<g>
</g>
</svg>
