<?xml version="1.0" encoding="utf-8"?>
<!-- Generator: Adobe Illustrator 18.1.0, SVG Export Plug-In . SVG Version: 6.00 Build 0)  -->
<!DOCTYPE svg PUBLIC "-//W3C//DTD SVG 1.1//EN" "http://www.w3.org/Graphics/SVG/1.1/DTD/svg11.dtd">
<svg version="1.1" id="Calque_1" xmlns="http://www.w3.org/2000/svg" xmlns:xlink="http://www.w3.org/1999/xlink" x="0px" y="0px"
	 viewBox="0 0 32 32" enable-background="new 0 0 32 32" xml:space="preserve">
<rect fill="none" width="32" height="32"/>
<path fill="#F2F2F2" d="M26,32H6c-3.3,0-6-2.7-6-6V6c0-3.3,2.7-6,6-6h8c2.6,0,4.8,1.7,5.6,4H26c3.3,0,6,2.7,6,6v16
	C32,29.3,29.3,32,26,32z M28,10c0-1.1-0.9-2-2-2H16V6c0-1.1-0.9-2-2-2H6C4.9,4,4,4.9,4,6v20c0,1.1,0.9,2,2,2h20c1.1,0,2-0.9,2-2V10z
	"/>
<path fill="#CCCCCC" d="M16,10.2l2.2,4.5l5,0.7L19.6,19l0.8,4.9L16,21.6l-4.4,2.3l0.8-4.9l-3.6-3.5l5-0.7L16,10.2z"/>
<g>
</g>
<g>
</g>
<g>
</g>
<g>
</g>
<g>
</g>
<g>
</g>
<g>
</g>
<g>
</g>
<g>
</g>
<g>
</g>
<g>
</g>
<g>
</g>
<g>
</g>
<g>
</g>
<g>
</g>
</svg>
