<?xml version="1.0" encoding="utf-8"?>
<!-- Generator: Adobe Illustrator 18.1.0, SVG Export Plug-In . SVG Version: 6.00 Build 0)  -->
<!DOCTYPE svg PUBLIC "-//W3C//DTD SVG 1.1//EN" "http://www.w3.org/Graphics/SVG/1.1/DTD/svg11.dtd">
<svg version="1.1" id="Calque_1" xmlns="http://www.w3.org/2000/svg" xmlns:xlink="http://www.w3.org/1999/xlink" x="0px" y="0px"
	 viewBox="0 0 32 32" enable-background="new 0 0 32 32" xml:space="preserve">
<path fill-rule="evenodd" clip-rule="evenodd" fill="#F2F2F2" d="M30,28c-3.1,0.1-8.9,0.7-12.1,2.3C17.8,31.3,17,32,16,32
	c-1,0-1.8-0.7-1.9-1.7c-3.2-1.6-9-2.2-12.1-2.3c-1.1,0-2-0.9-2-2V2c0-1.1,0.9-2,2-2c0.1,0,0.1,0,0.2,0C16,0.4,16,4,16,4
	s0-3.6,13.8-4c0.1,0,0.1,0,0.2,0c1.1,0,2,0.9,2,2v24C32,27.1,31.1,28,30,28z"/>
<path fill-rule="evenodd" clip-rule="evenodd" fill="#4D4D4D" d="M14,6.3C11.4,5,7.2,4.4,4,4.2v19.9c5.4,0.3,8.4,1.1,10,1.9V6.3z"/>
<path fill-rule="evenodd" clip-rule="evenodd" fill="#4D4D4D" d="M28,4.2C24.8,4.4,20.6,5,18,6.3V26c1.6-0.8,4.6-1.6,10-1.9V4.2z"/>
<g>
</g>
<g>
</g>
<g>
</g>
<g>
</g>
<g>
</g>
<g>
</g>
<g>
</g>
<g>
</g>
<g>
</g>
<g>
</g>
<g>
</g>
<g>
</g>
<g>
</g>
<g>
</g>
<g>
</g>
</svg>
