<?xml version="1.0" encoding="utf-8"?>
<!-- Generator: Adobe Illustrator 18.1.0, SVG Export Plug-In . SVG Version: 6.00 Build 0)  -->
<!DOCTYPE svg PUBLIC "-//W3C//DTD SVG 1.1//EN" "http://www.w3.org/Graphics/SVG/1.1/DTD/svg11.dtd">
<svg version="1.1" id="Calque_1" xmlns="http://www.w3.org/2000/svg" xmlns:xlink="http://www.w3.org/1999/xlink" x="0px" y="0px"
	 viewBox="0 0 32 32" enable-background="new 0 0 32 32" xml:space="preserve">
<rect fill="none" width="32" height="32"/>
<path fill="#F2F2F2" d="M26,32H6c-3.3,0-6-2.7-6-6V6c0-3.3,2.7-6,6-6h20c3.3,0,6,2.7,6,6v20C32,29.3,29.3,32,26,32z M6,2
	C4.9,2,4,2.9,4,4s0.9,2,2,2s2-0.9,2-2S7.1,2,6,2z M28,8H4v18c0,1.1,0.9,2,2,2h20c1.1,0,2-0.9,2-2V8z"/>
<path fill="#CCCCCC" d="M20,20h-2v2c0,1.1-0.9,2-2,2s-2-0.9-2-2v-2h-2c-1.1,0-2-0.9-2-2s0.9-2,2-2h2v-2c0-1.1,0.9-2,2-2s2,0.9,2,2v2
	h2c1.1,0,2,0.9,2,2S21.1,20,20,20z"/>
<g>
</g>
<g>
</g>
<g>
</g>
<g>
</g>
<g>
</g>
<g>
</g>
<g>
</g>
<g>
</g>
<g>
</g>
<g>
</g>
<g>
</g>
<g>
</g>
<g>
</g>
<g>
</g>
<g>
</g>
</svg>
