<?xml version="1.0" encoding="utf-8"?>
<!-- Generator: Adobe Illustrator 16.0.4, SVG Export Plug-In . SVG Version: 6.00 Build 0)  -->
<!DOCTYPE svg PUBLIC "-//W3C//DTD SVG 1.1//EN" "http://www.w3.org/Graphics/SVG/1.1/DTD/svg11.dtd">
<svg version="1.1" id="Calque_1" xmlns="http://www.w3.org/2000/svg" xmlns:xlink="http://www.w3.org/1999/xlink" x="0px" y="0px"
	 width="32px" height="32px" viewBox="0 0 32 32" enable-background="new 0 0 32 32" xml:space="preserve">
<rect fill="none" width="32" height="32"/>
<linearGradient id="SVGID_1_" gradientUnits="userSpaceOnUse" x1="579" y1="809" x2="579" y2="840.7583" gradientTransform="matrix(1 0 0 1 -563 -809)">
	<stop  offset="0" style="stop-color:#999999"/>
	<stop  offset="0.3" style="stop-color:#FFFFFF"/>
	<stop  offset="0.5216" style="stop-color:#FCFCFC"/>
	<stop  offset="0.6995" style="stop-color:#F2F2F2"/>
	<stop  offset="0.8618" style="stop-color:#E1E1E1"/>
	<stop  offset="1" style="stop-color:#CCCCCC"/>
</linearGradient>
<path fill="url(#SVGID_1_)" d="M25.375,31H6.625C3.519,31,1,28.482,1,25.375V6.625C1,3.519,3.519,1,6.625,1h18.75
	C28.48,1,31,3.519,31,6.625v18.75C31,28.482,28.48,31,25.375,31z M6.625,2.875c-1.036,0-1.875,0.839-1.875,1.875
	s0.839,1.875,1.875,1.875S8.5,5.786,8.5,4.75S7.661,2.875,6.625,2.875z M27.25,8.5H4.75v16.875c0,1.036,0.839,1.875,1.875,1.875
	h18.75c1.036,0,1.875-0.839,1.875-1.875V8.5z M19.75,19.75h-1.875v1.875c0,1.036-0.839,1.875-1.875,1.875s-1.875-0.839-1.875-1.875
	V19.75H12.25c-1.036,0-1.875-0.839-1.875-1.875S11.214,16,12.25,16h1.875v-1.875c0-1.036,0.839-1.875,1.875-1.875
	s1.875,0.839,1.875,1.875V16h1.875c1.036,0,1.875,0.839,1.875,1.875S20.786,19.75,19.75,19.75z"/>
</svg>
