<?xml version="1.0" encoding="UTF-8" standalone="no"?>
<!-- Generator: Adobe Illustrator 16.0.4, SVG Export Plug-In . SVG Version: 6.00 Build 0)  -->

<svg
   xmlns:dc="http://purl.org/dc/elements/1.1/"
   xmlns:cc="http://creativecommons.org/ns#"
   xmlns:rdf="http://www.w3.org/1999/02/22-rdf-syntax-ns#"
   xmlns:svg="http://www.w3.org/2000/svg"
   xmlns="http://www.w3.org/2000/svg"
   xmlns:sodipodi="http://sodipodi.sourceforge.net/DTD/sodipodi-0.dtd"
   xmlns:inkscape="http://www.inkscape.org/namespaces/inkscape"
   version="1.1"
   id="Calque_1"
   x="0px"
   y="0px"
   width="32px"
   height="32px"
   viewBox="0 0 32 32"
   enable-background="new 0 0 32 32"
   xml:space="preserve"
   inkscape:version="0.48.4 r9939"
   sodipodi:docname="patreon.svg"><metadata
     id="metadata28"><rdf:RDF><cc:Work
         rdf:about=""><dc:format>image/svg+xml</dc:format><dc:type
           rdf:resource="http://purl.org/dc/dcmitype/StillImage" /></cc:Work></rdf:RDF></metadata><defs
     id="defs26" /><sodipodi:namedview
     pagecolor="#ffffff"
     bordercolor="#666666"
     borderopacity="1"
     objecttolerance="10"
     gridtolerance="10"
     guidetolerance="10"
     inkscape:pageopacity="0"
     inkscape:pageshadow="2"
     inkscape:window-width="1680"
     inkscape:window-height="1026"
     id="namedview24"
     showgrid="false"
     inkscape:zoom="14.75"
     inkscape:cx="26.831184"
     inkscape:cy="18.081755"
     inkscape:window-x="-3"
     inkscape:window-y="-4"
     inkscape:window-maximized="1"
     inkscape:current-layer="Calque_1" /><rect
     fill="none"
     width="32"
     height="32"
     id="rect3" /><linearGradient
     id="SVGID_1_"
     gradientUnits="userSpaceOnUse"
     x1="579"
     y1="810"
     x2="579"
     y2="841.7578"
     gradientTransform="matrix(1 0 0 1 -563 -809)"><stop
       offset="0"
       style="stop-color:#999999"
       id="stop6" /><stop
       offset="0.3"
       style="stop-color:#FFFFFF"
       id="stop8" /><stop
       offset="0.5216"
       style="stop-color:#FCFCFC"
       id="stop10" /><stop
       offset="0.6995"
       style="stop-color:#F2F2F2"
       id="stop12" /><stop
       offset="0.8618"
       style="stop-color:#E1E1E1"
       id="stop14" /><stop
       offset="1"
       style="stop-color:#CCCCCC"
       id="stop16" /></linearGradient><path
     fill="url(#SVGID_1_)"
     d="M16,2C7.716,2,1,8.716,1,17v14.986h14.371C15.58,31.994,15.789,32,16,32c8.284,0,15-6.716,15-15  S24.284,2,16,2L16,2z"
     id="path18" /><path
     fill="#000000"
     d="M16,5.482C9.639,5.482,4.482,10.639,4.482,17v6.865v4.641v3.48h4.609V17.012  c0-3.803,3.082-6.887,6.886-6.887s6.886,3.084,6.886,6.887c0,3.805-3.082,6.887-6.886,6.887c-1.391,0-2.685-0.414-3.768-1.121v4.949  c0.725,0.446,2.381,0.762,4.323,0.778C22.646,28.227,27.52,23.182,27.52,17C27.52,10.639,22.361,5.482,16,5.482L16,5.482z"
     id="path20" /><path
     fill="#FFFFFF"
     d="M15.518,28.506c0.159,0.008,0.32,0.014,0.482,0.014c0.17,0,0.339-0.006,0.508-0.014H15.518z"
     id="path22" /></svg>