<?xml version="1.0" encoding="UTF-8" standalone="no"?>
<!-- Created with Inkscape (http://www.inkscape.org/) -->

<svg
   xmlns:dc="http://purl.org/dc/elements/1.1/"
   xmlns:cc="http://creativecommons.org/ns#"
   xmlns:rdf="http://www.w3.org/1999/02/22-rdf-syntax-ns#"
   xmlns:svg="http://www.w3.org/2000/svg"
   xmlns="http://www.w3.org/2000/svg"
   xmlns:xlink="http://www.w3.org/1999/xlink"
   xmlns:sodipodi="http://sodipodi.sourceforge.net/DTD/sodipodi-0.dtd"
   xmlns:inkscape="http://www.inkscape.org/namespaces/inkscape"
   id="svg2"
   version="1.1"
   inkscape:version="0.48.5 r10040"
   width="64"
   height="64"
   sodipodi:docname="status-good.png">
  <metadata
     id="metadata8">
    <rdf:RDF>
      <cc:Work
         rdf:about="">
        <dc:format>image/svg+xml</dc:format>
        <dc:type
           rdf:resource="http://purl.org/dc/dcmitype/StillImage" />
        <dc:title></dc:title>
      </cc:Work>
    </rdf:RDF>
  </metadata>
  <defs
     id="defs6">
    <linearGradient
       inkscape:collect="always"
       id="linearGradient3008">
      <stop
         style="stop-color:#00c016;stop-opacity:1"
         offset="0"
         id="stop3010" />
      <stop
         id="stop3022"
         offset="0.21875"
         style="stop-color:#00820f;stop-opacity:1" />
      <stop
         id="stop3018"
         offset="0.37499997"
         style="stop-color:#00730d;stop-opacity:1" />
      <stop
         style="stop-color:#007e0e;stop-opacity:1"
         offset="0.734375"
         id="stop3024" />
      <stop
         style="stop-color:#009511;stop-opacity:1"
         offset="1"
         id="stop3012" />
    </linearGradient>
    <linearGradient
       inkscape:collect="always"
       xlink:href="#linearGradient3008"
       id="linearGradient3020"
       x1="20"
       y1="0"
       x2="20"
       y2="64"
       gradientUnits="userSpaceOnUse"
       gradientTransform="translate(-8,-9.9999994e-8)" />
    <linearGradient
       inkscape:collect="always"
       xlink:href="#linearGradient3008"
       id="linearGradient3036"
       gradientUnits="userSpaceOnUse"
       gradientTransform="translate(-8,0)"
       x1="20"
       y1="0"
       x2="20"
       y2="64" />
  </defs>
  <sodipodi:namedview
     pagecolor="#ffffff"
     bordercolor="#666666"
     borderopacity="1"
     objecttolerance="10"
     gridtolerance="10"
     guidetolerance="10"
     inkscape:pageopacity="0"
     inkscape:pageshadow="2"
     inkscape:window-width="1613"
     inkscape:window-height="1026"
     id="namedview4"
     showgrid="true"
     inkscape:snap-bbox="true"
     inkscape:bbox-paths="true"
     inkscape:snap-bbox-edge-midpoints="true"
     inkscape:bbox-nodes="true"
     inkscape:snap-bbox-midpoints="true"
     inkscape:snap-smooth-nodes="true"
     inkscape:object-nodes="true"
     inkscape:zoom="7.375"
     inkscape:cx="50.974601"
     inkscape:cy="27.721167"
     inkscape:window-x="1677"
     inkscape:window-y="-4"
     inkscape:window-maximized="1"
     inkscape:current-layer="svg2">
    <inkscape:grid
       type="xygrid"
       id="grid2987" />
  </sodipodi:namedview>
  <path
     style="color:#000000;fill:url(#linearGradient3036);fill-opacity:1;fill-rule:nonzero;stroke:none;stroke-width:0.5;marker:none;visibility:visible;display:inline;overflow:visible;enable-background:accumulate"
     d="M 12,0 C 5.352,0 0,5.352 0,12 l 0,40 c 0,6.648 5.352,12 12,12 l 40,0 c 6.648,0 12,-5.352 12,-12 L 64,12 C 64,5.352 58.648,0 52,0 L 12,0 z m 0,8 40,0 c 2.216,0 4,1.784 4,4 l 0,40 c 0,2.216 -1.784,4 -4,4 L 12,56 C 9.784,56 8,54.216 8,52 L 8,12 C 8,9.784 9.784,8 12,8 z m 32.5,11 c -1.15165,0 -2.30882,0.43382 -3.1875,1.3125 l -13.75,13.8125 -4.875,-4.8125 c -1.757359,-1.757359 -4.617641,-1.757359 -6.375,0 -1.757359,1.757359 -1.757359,4.617641 0,6.375 l 8,7.5 c 1.75736,1.757359 4.61764,1.757359 6.375,0 l 17,-16.5 c 1.75736,-1.757359 1.75736,-4.617641 0,-6.375 C 46.80882,19.43382 45.65165,19 44.5,19 z"
     id="rect2989"
     inkscape:connector-curvature="0" />
</svg>
