<?xml version="1.0" encoding="utf-8"?>
<!-- Generator: Adobe Illustrator 18.1.0, SVG Export Plug-In . SVG Version: 6.00 Build 0)  -->
<!DOCTYPE svg PUBLIC "-//W3C//DTD SVG 1.1//EN" "http://www.w3.org/Graphics/SVG/1.1/DTD/svg11.dtd">
<svg version="1.1" id="Calque_1" xmlns="http://www.w3.org/2000/svg" xmlns:xlink="http://www.w3.org/1999/xlink" x="0px" y="0px"
	 viewBox="0 0 32 32" enable-background="new 0 0 32 32" xml:space="preserve">
<path fill-rule="evenodd" clip-rule="evenodd" d="M21.9,4H11.6c-0.8-2.3-3-4-5.6-4C2.7,0,0,2.7,0,6s2.7,6,6,6c2.6,0,4.8-1.7,5.6-4
	h10.3c1.1,0,2,0.9,2,2v1.4h4V10C27.9,6.7,25.2,4,21.9,4z M6,8C4.9,8,4,7.1,4,6s0.9-2,2-2c1.1,0,2,0.9,2,2S7.1,8,6,8z"/>
<path fill-rule="evenodd" clip-rule="evenodd" d="M23.9,20.6V22c0,1.1-0.9,2-2,2H11.6c-0.8-2.3-3-4-5.6-4c-3.3,0-6,2.7-6,6
	s2.7,6,6,6c2.6,0,4.8-1.7,5.6-4h10.3c3.3,0,6-2.7,6-6v-1.4H23.9z M6,28c-1.1,0-2-0.9-2-2s0.9-2,2-2c1.1,0,2,0.9,2,2S7.1,28,6,28z"/>
<g>
	<path fill-rule="evenodd" clip-rule="evenodd" fill="#666666" d="M32,22H20V10h12V22z M28,14h-4v4h4V14z"/>
</g>
<g>
</g>
<g>
</g>
<g>
</g>
<g>
</g>
<g>
</g>
<g>
</g>
<g>
</g>
<g>
</g>
<g>
</g>
<g>
</g>
<g>
</g>
<g>
</g>
<g>
</g>
<g>
</g>
<g>
</g>
</svg>
