<?xml version="1.0" encoding="UTF-8" standalone="no"?>
<svg
   xmlns:dc="http://purl.org/dc/elements/1.1/"
   xmlns:cc="http://creativecommons.org/ns#"
   xmlns:rdf="http://www.w3.org/1999/02/22-rdf-syntax-ns#"
   xmlns:svg="http://www.w3.org/2000/svg"
   xmlns="http://www.w3.org/2000/svg"
   xml:space="preserve"
   enable-background="new 0 0 32 32"
   viewBox="0 0 32 32"
   y="0px"
   x="0px"
   id="Calque_1"
   version="1.1"><metadata
   id="metadata15"><rdf:RDF><cc:Work
       rdf:about=""><dc:format>image/svg+xml</dc:format><dc:type
         rdf:resource="http://purl.org/dc/dcmitype/StillImage" /><dc:title></dc:title></cc:Work></rdf:RDF></metadata><defs
   id="defs13" />
<g
   id="g8">
	
	<path
   id="path6"
   d="M28,32H4c-2.2,0-4-1.8-4-4V4c0-2.2,1.8-4,4-4h24c2.2,0,4,1.8,4,4   v24C32,30.2,30.2,32,28,32z M30,4c0-1.1-0.9-2-2-2H4C2.9,2,2,2.9,2,4v24c0,1.1,0.9,2,2,2h24c1.1,0,2-0.9,2-2V4z"
   fill="#3366CC"
   clip-rule="evenodd"
   fill-rule="evenodd" />
</g>
<path
   d="m 8.8837922,9.8498439 c -0.5055801,0 -0.9415895,0.3572871 -1.0410421,0.8525411 L 5.7221093,21.314148 c -0.1150014,0.575036 0.2571428,1.131673 0.8311203,1.246676 0.5811915,0.119103 1.1327283,-0.257142 1.2466794,-0.831119 l 0.6811731,-3.393021 h 2.9988849 l 0.676892,3.393021 c 0.115982,0.582535 0.688371,0.946911 1.250962,0.831119 0.574046,-0.115001 0.94612,-0.67164 0.831119,-1.246676 L 12.118299,10.702385 C 12.018854,10.207131 11.582843,9.8498439 11.07726,9.8498439 Z m 0.642615,2.3905391 h 0.4541203 l 0.8482535,4.245562 H 8.6781534 Z M 20.922167,9.4171507 c -0.586426,0 -1.062464,0.4783758 -1.062464,1.0667433 v 1.062461 h -3.183102 c -0.58642,0 -1.058175,0.478378 -1.058175,1.066747 0,0.588364 0.471753,1.062461 1.058175,1.062461 h 0.28704 c 0.603613,1.943292 1.489894,3.462457 2.484785,4.661121 -0.779374,0.714899 -1.544795,1.300994 -2.373399,1.957842 -0.456918,0.366958 -0.529604,1.039945 -0.162795,1.499442 0.36511,0.458786 1.034877,0.530676 1.490873,0.162795 0.900329,-0.71298 1.673977,-1.308312 2.519064,-2.086367 0.845087,0.778055 1.691565,1.373387 2.591893,2.086367 0.456001,0.367877 1.125761,0.295987 1.490873,-0.162795 0.366811,-0.459497 0.289838,-1.132484 -0.167067,-1.499442 -0.82861,-0.656848 -1.662574,-1.242943 -2.441951,-1.957842 0.994894,-1.198734 1.953935,-2.7179 2.55762,-4.661121 h 0.28275 c 0.586426,0 1.062461,-0.474097 1.062461,-1.062461 0,-0.588369 -0.476035,-1.066747 -1.062461,-1.066747 h -3.251659 v -1.062461 c 0,-0.5883675 -0.476037,-1.0667433 -1.062461,-1.0667433 z m -1.743636,4.2584123 h 3.555818 c -0.458122,1.234642 -1.137838,2.234128 -1.812182,3.084565 -0.674344,-0.850437 -1.285517,-1.849853 -1.743636,-3.084565 z"
   style="color:#000000;display:inline;overflow:visible;visibility:visible;opacity:1;fill:#3366cc;fill-opacity:1;fill-rule:nonzero;stroke:none;stroke-width:6.58040667;stroke-linecap:butt;stroke-linejoin:round;stroke-miterlimit:4;stroke-dasharray:none;stroke-dashoffset:0;stroke-opacity:1;marker:none;enable-background:accumulate"
   id="rect977" /></svg>