<?xml version="1.0" encoding="utf-8"?>
<!-- Generator: Adobe Illustrator 18.1.0, SVG Export Plug-In . SVG Version: 6.00 Build 0)  -->
<!DOCTYPE svg PUBLIC "-//W3C//DTD SVG 1.1//EN" "http://www.w3.org/Graphics/SVG/1.1/DTD/svg11.dtd">
<svg version="1.1" id="Calque_1" xmlns="http://www.w3.org/2000/svg" xmlns:xlink="http://www.w3.org/1999/xlink" x="0px" y="0px"
	 viewBox="0 0 32 32" enable-background="new 0 0 32 32" xml:space="preserve">
<g id="_x31__2_">
	<g>
		<path fill="#3366CC" d="M22,15h-5v-5c0-0.6-0.4-1-1-1s-1,0.4-1,1v5h-5c-0.6,0-1,0.4-1,1c0,0.6,0.4,1,1,1h5v5c0,0.6,0.4,1,1,1
			s1-0.4,1-1v-5h5c0.6,0,1-0.4,1-1C23,15.4,22.6,15,22,15z M28,0H4C1.8,0,0,1.8,0,4v24c0,2.2,1.8,4,4,4h24c2.2,0,4-1.8,4-4V4
			C32,1.8,30.2,0,28,0z M30,28c0,1.1-0.9,2-2,2H4c-1.1,0-2-0.9-2-2V4c0-1.1,0.9-2,2-2h24c1.1,0,2,0.9,2,2V28z"/>
	</g>
</g>
</svg>
