<?xml version="1.0" encoding="UTF-8" standalone="no"?>
<svg
   xmlns:dc="http://purl.org/dc/elements/1.1/"
   xmlns:cc="http://creativecommons.org/ns#"
   xmlns:rdf="http://www.w3.org/1999/02/22-rdf-syntax-ns#"
   xmlns:svg="http://www.w3.org/2000/svg"
   xmlns="http://www.w3.org/2000/svg"
   xmlns:sodipodi="http://sodipodi.sourceforge.net/DTD/sodipodi-0.dtd"
   xmlns:inkscape="http://www.inkscape.org/namespaces/inkscape"
   fill="#D8DEE9"
   height="24"
   viewBox="0 0 24 24"
   width="24"
   version="1.1"
   id="svg4"
   sodipodi:docname="language.svg"
   inkscape:version="0.92.2 2405546, 2018-03-11">
  <metadata
     id="metadata10">
    <rdf:RDF>
      <cc:Work
         rdf:about="">
        <dc:format>image/svg+xml</dc:format>
        <dc:type
           rdf:resource="http://purl.org/dc/dcmitype/StillImage" />
        <dc:title></dc:title>
      </cc:Work>
    </rdf:RDF>
  </metadata>
  <defs
     id="defs8">















	

	

		
	
		
	</defs>
  <sodipodi:namedview
     pagecolor="#ffffff"
     bordercolor="#666666"
     borderopacity="1"
     objecttolerance="10"
     gridtolerance="10"
     guidetolerance="10"
     inkscape:pageopacity="0"
     inkscape:pageshadow="2"
     inkscape:window-width="3840"
     inkscape:window-height="2123"
     id="namedview6"
     showgrid="true"
     showguides="true"
     inkscape:guide-bbox="true"
     inkscape:zoom="6.9532167"
     inkscape:cx="-18.49351"
     inkscape:cy="-12.477971"
     inkscape:window-x="1200"
     inkscape:window-y="0"
     inkscape:window-maximized="1"
     inkscape:current-layer="svg4">
    <inkscape:grid
       type="xygrid"
       id="grid981" />
    <sodipodi:guide
       position="-8,11.440678"
       orientation="1,0"
       id="guide1060"
       inkscape:locked="false" />
    <sodipodi:guide
       position="-28.34375,24"
       orientation="0,1"
       id="guide1062"
       inkscape:locked="false" />
  </sodipodi:namedview>
  <path
     d="M 5,3 C 3.89,3 3,3.89 3,5 v 14 c 0,1.104569 0.895431,2 2,2 h 14 c 1.104569,0 2,-0.895431 2,-2 V 5 C 21,3.89 20.1,3 19,3 Z m 10.359375,4.505859 c 0.400344,0 0.726563,0.326845 0.726563,0.728516 v 0.724609 h 2.21875 c 0.400344,0 0.726562,0.326845 0.726562,0.728516 0,0.401669 -0.326217,0.726562 -0.726562,0.726562 h -0.191407 c -0.412128,1.326612 -1.066893,2.363281 -1.746093,3.181641 0.53207,0.488052 1.100334,0.887517 1.666015,1.335938 0.311924,0.250518 0.365651,0.709744 0.115235,1.023437 -0.249259,0.313205 -0.708226,0.362473 -1.019532,0.111328 -0.614642,-0.486742 -1.192601,-0.892661 -1.769531,-1.423828 -0.576929,0.531167 -1.104107,0.937086 -1.71875,1.423828 -0.311303,0.251148 -0.768322,0.201879 -1.017578,-0.111328 -0.250416,-0.313693 -0.200604,-0.772919 0.111328,-1.023437 0.565677,-0.448421 1.087072,-0.847886 1.619141,-1.335938 -0.679199,-0.818312 -1.283234,-1.854981 -1.695313,-3.181641 h -0.197265 c -0.400344,0 -0.720704,-0.324893 -0.720704,-0.726562 0,-0.401671 0.320361,-0.728516 0.720704,-0.728516 h 2.173828 V 8.234375 c 0,-0.401671 0.324264,-0.728516 0.724609,-0.728516 z M 7.142578,7.800781 h 1.496094 c 0.345155,0 0.643047,0.243927 0.710937,0.582031 l 1.447266,7.244141 c 0.07851,0.39257 -0.174512,0.773053 -0.566406,0.851563 -0.384074,0.07905 -0.774336,-0.168718 -0.853516,-0.566407 L 8.914062,13.595703 H 6.867188 L 6.402344,15.912109 C 6.324551,16.303955 5.947553,16.559826 5.550781,16.478516 5.158934,16.400005 4.905865,16.019523 4.984375,15.626953 L 6.431641,8.382812 C 6.499536,8.044708 6.797425,7.800781 7.142578,7.800781 Z m 0.4375,1.632813 -0.578125,2.898437 H 8.46875 L 7.890625,9.433594 Z m 6.589844,0.980468 c 0.312752,0.842923 0.729088,1.524886 1.189453,2.105469 0.460366,-0.580583 0.925527,-1.262594 1.238281,-2.105469 z"
     id="path1072"
     inkscape:connector-curvature="0" />
  <g
     style="fill:#000000"
     id="g821"
     transform="matrix(0.0322459,0,0,0.0322459,-17.878956,30.647558)">
    <g
       style="fill:#000000"
       id="g819" />
  </g>
</svg>
