<svg fill="#eee" height="24" viewBox="0 0 24 24" width="24" xmlns="http://www.w3.org/2000/svg">
  <path d="m20 4h-16v16h16zm0 18h-16c-1.1046 0-2-.89543-2-2v-16c0-1.1046.89543-2 2-2h16c1.1046 0 2 .89543 2 2v16c0 1.1046-.89543 2-2 2z"/>
  <path clip-rule="evenodd" d="m7.2 18c-.225 0-.45-.075-.6-.15-.375-.225-.6-.6-.6-1.05v-9.6c0-.45.225-.825.6-1.05.225-.15.375-.15.6-.15.15 0 .375.075.525.15l9.6 4.8c.375.225.675.6.675 1.05s-.225.9-.675 1.05l-9.6 4.8c-.15.075-.375.15-.525.15z" fill="#eee" fill-rule="evenodd" stroke-width=".99999"/>
</svg>
