<svg viewBox="0 0 2084 2084" xmlns="http://www.w3.org/2000/svg" fill-rule="evenodd" clip-rule="evenodd"
     stroke-linejoin="round" stroke-miterlimit="2">
    <g fill-rule="nonzero">
        <path d="M1041.67 81.38l272.437 159.032-825.246 478.685-272.438-157.971L1041.67 81.38zm87.28 371.074l274.024-159.032 463.937 271.945-276.14 153.73-461.821-266.643z"
              fill="#3b3b3b"/>
        <path d="M216.42 561.126v961.081l825.247 479.746V1684.95l-551.222-321.774-1.587-644.079L216.42 561.126z"
              fill="#2e2e2e"/>
        <path d="M1866.91 1517.97l-825.246 483.986v-317.003l550.164-320.714-1.058-645.139 276.14-153.73v952.6z"
              fill="#333"/>
        <path d="M1590.77 719.097l-549.106 310.112v165.393l214.246-122.984v488.757l138.599-81.106V989.451l196.261-115.563V719.097z"
              fill="#89c236"/>
        <path d="M488.858 719.097l1.587 644.079 152.353 90.118v-198.79l230.645 132.527v199.319l168.753 98.6v-655.741L488.858 719.097zm383.527 531.166l-227.471-131.466v-150.02l227.471 127.225v154.261z"
              fill="#7baf31"/>
    </g>
</svg>
