<?xml version="1.0" encoding="UTF-8" standalone="no"?>
<!-- Created with Inkscape (http://www.inkscape.org/) -->

<svg
   xmlns:osb="http://www.openswatchbook.org/uri/2009/osb"
   xmlns:dc="http://purl.org/dc/elements/1.1/"
   xmlns:cc="http://creativecommons.org/ns#"
   xmlns:rdf="http://www.w3.org/1999/02/22-rdf-syntax-ns#"
   xmlns:svg="http://www.w3.org/2000/svg"
   xmlns="http://www.w3.org/2000/svg"
   xmlns:xlink="http://www.w3.org/1999/xlink"
   xmlns:sodipodi="http://sodipodi.sourceforge.net/DTD/sodipodi-0.dtd"
   xmlns:inkscape="http://www.inkscape.org/namespaces/inkscape"
   width="32px"
   height="32px"
   id="svg2985"
   version="1.1"
   inkscape:version="0.48.3.1 r9886"
   sodipodi:docname="console.svg"
   inkscape:export-filename="/home/peterix/projects/MultiMC4/src/resources/console.png"
   inkscape:export-xdpi="90"
   inkscape:export-ydpi="90">
  <defs
     id="defs2987">
    <linearGradient
       id="linearGradient6244">
      <stop
         style="stop-color:#000000;stop-opacity:1;"
         offset="0"
         id="stop6246" />
      <stop
         id="stop6254"
         offset="0.4642857"
         style="stop-color:#000000;stop-opacity:1" />
      <stop
         id="stop6252"
         offset="0.53571427"
         style="stop-color:#ffffff;stop-opacity:1" />
      <stop
         style="stop-color:#ffffff;stop-opacity:1;"
         offset="1"
         id="stop6248" />
    </linearGradient>
    <linearGradient
       id="linearGradient6212">
      <stop
         style="stop-color:#959595;stop-opacity:1"
         offset="0"
         id="stop6214" />
      <stop
         id="stop6224"
         offset="0.14849657"
         style="stop-color:#b0b0b0;stop-opacity:1;" />
      <stop
         id="stop6220"
         offset="0.41380492"
         style="stop-color:#ffffff;stop-opacity:1;" />
      <stop
         style="stop-color:#cacaca;stop-opacity:1;"
         offset="0.65110856"
         id="stop6222" />
      <stop
         id="stop6228"
         offset="0.87847149"
         style="stop-color:#b0b0b0;stop-opacity:1;" />
      <stop
         style="stop-color:#969696;stop-opacity:1;"
         offset="1"
         id="stop6216" />
    </linearGradient>
    <linearGradient
       id="linearGradient6194"
       osb:paint="solid">
      <stop
         style="stop-color:#8e8e8e;stop-opacity:1;"
         offset="0"
         id="stop6196" />
    </linearGradient>
    <linearGradient
       id="linearGradient3050">
      <stop
         style="stop-color:#000000;stop-opacity:1;"
         offset="0"
         id="stop3052" />
      <stop
         id="stop3840"
         offset="0.64285713"
         style="stop-color:#164315;stop-opacity:1" />
      <stop
         id="stop3838"
         offset="0.85714287"
         style="stop-color:#24a91f;stop-opacity:1" />
      <stop
         style="stop-color:#000000;stop-opacity:1"
         offset="1"
         id="stop3054" />
    </linearGradient>
    <linearGradient
       inkscape:collect="always"
       xlink:href="#linearGradient3050"
       id="linearGradient3056"
       x1="15"
       y1="16"
       x2="15"
       y2="2"
       gradientUnits="userSpaceOnUse"
       spreadMethod="reflect" />
    <linearGradient
       inkscape:collect="always"
       xlink:href="#linearGradient6212"
       id="linearGradient6218"
       x1="19.373737"
       y1="18.689655"
       x2="30.317204"
       y2="31.204504"
       gradientUnits="userSpaceOnUse"
       spreadMethod="repeat" />
    <linearGradient
       inkscape:collect="always"
       xlink:href="#linearGradient6244"
       id="linearGradient6250"
       x1="2"
       y1="2"
       x2="30"
       y2="30"
       gradientUnits="userSpaceOnUse" />
    <linearGradient
       inkscape:collect="always"
       xlink:href="#linearGradient6244"
       id="linearGradient6258"
       gradientUnits="userSpaceOnUse"
       x1="2"
       y1="2"
       x2="30"
       y2="30"
       gradientTransform="matrix(1.0666667,0,0,1.0666667,-33.066667,-33.066667)" />
    <filter
       inkscape:collect="always"
       id="filter6272">
      <feGaussianBlur
         inkscape:collect="always"
         stdDeviation="0.32596875"
         id="feGaussianBlur6274" />
    </filter>
  </defs>
  <sodipodi:namedview
     id="base"
     pagecolor="#ffffff"
     bordercolor="#666666"
     borderopacity="1.0"
     inkscape:pageopacity="0.0"
     inkscape:pageshadow="2"
     inkscape:zoom="0.5"
     inkscape:cx="-151.66767"
     inkscape:cy="-123.35228"
     inkscape:current-layer="layer1"
     showgrid="false"
     inkscape:grid-bbox="true"
     inkscape:document-units="px"
     inkscape:window-width="1607"
     inkscape:window-height="1030"
     inkscape:window-x="1676"
     inkscape:window-y="-3"
     inkscape:window-maximized="1">
    <inkscape:grid
       type="xygrid"
       id="grid2995"
       empspacing="2"
       visible="true"
       enabled="true"
       snapvisiblegridlinesonly="true" />
  </sodipodi:namedview>
  <metadata
     id="metadata2990">
    <rdf:RDF>
      <cc:Work
         rdf:about="">
        <dc:format>image/svg+xml</dc:format>
        <dc:type
           rdf:resource="http://purl.org/dc/dcmitype/StillImage" />
        <dc:title></dc:title>
      </cc:Work>
    </rdf:RDF>
  </metadata>
  <g
     id="layer1"
     inkscape:label="Layer 1"
     inkscape:groupmode="layer">
    <rect
       style="fill:#000000;fill-opacity:1;stroke:none"
       id="rect2993"
       width="32"
       height="32"
       x="-1.9984014e-15"
       y="4.4408921e-16"
       ry="2.6666667" />
    <rect
       style="fill:url(#linearGradient3056);fill-opacity:1;stroke:none"
       id="rect2993-1"
       width="28"
       height="28"
       x="2"
       y="2"
       ry="2.3333333" />
    <g
       style="font-size:85.93203735px;font-style:normal;font-weight:normal;line-height:125%;letter-spacing:0px;word-spacing:0px;fill:#00ff00;fill-opacity:1;stroke:none;font-family:Sans"
       id="text3001">
      <path
         style="font-size:45.2372551px;font-style:normal;font-weight:normal;line-height:125%;letter-spacing:0px;word-spacing:0px;fill:#008000;fill-opacity:1;stroke:none;filter:url(#filter6272);font-family:Sans"
         d="m 7.4824597,10.427541 2.2812496,5.78125 0.2812497,-0.71875 -1.9999993,-5.0625 -0.5625,0 z m 8.4687493,0 0,11.34375 -1.875,0 0,0.65625 2.6875,0 0,-12 -0.8125,0 z m 11.625,0.3125 0,2.21875 c -0.5312,-0.3906 -1.046212,-0.693063 -1.5625,-0.875 -0.516305,-0.181918 -1.054102,-0.24999 -1.625,-0.25 -1.022671,10e-6 -1.820457,0.324952 -2.40625,1.03125 -0.585803,0.706316 -0.875004,1.696118 -0.875,2.9375 -4e-6,1.236043 0.289197,2.199946 0.875,2.90625 0.23333,0.281334 0.509858,0.486976 0.8125,0.65625 -0.585803,-0.706304 -0.875004,-1.670207 -0.875,-2.90625 -4e-6,-1.241382 0.289197,-2.231184 0.875,-2.9375 0.585793,-0.706298 1.383579,-1.06249 2.40625,-1.0625 0.570898,10e-6 1.139945,0.09933 1.65625,0.28125 0.516288,0.181937 1.0313,0.45315 1.5625,0.84375 l 0,-2.46875 c -0.271888,-0.152046 -0.55994,-0.261514 -0.84375,-0.375 z m -21.2812493,2.28125 0,8.75 -1.875,0 0,0.65625 2.71875,0 0,-7.28125 -0.84375,-2.125 z m 6.9374993,0 -2.5625,6.46875 -1.2187493,0 0.2499996,0.625 1.8124997,0 1.71875,-4.34375 0,-2.75 z m 15.1875,6.25 c -0.287318,0.211276 -0.560795,0.412277 -0.84375,0.5625 l 0,1.28125 c -0.526236,0.294295 -1.054104,0.537677 -1.625,0.6875 -0.570913,0.149823 -1.191958,0.21875 -1.8125,0.21875 -1.332472,0 -2.440972,-0.298702 -3.375,-0.875 1.063521,0.998245 2.465058,1.5 4.21875,1.5 0.620542,0 1.210337,-0.06893 1.78125,-0.21875 0.570896,-0.149823 1.130014,-0.361955 1.65625,-0.65625 l 0,-2.5 z"
         id="text3022"
         inkscape:connector-curvature="0" />
      <text
         xml:space="preserve"
         style="font-size:45.2372551px;font-style:normal;font-weight:normal;line-height:125%;letter-spacing:0px;word-spacing:0px;fill:#00ff00;fill-opacity:1;stroke:none;font-family:Sans"
         x="2.7196128"
         y="21.15748"
         id="text3014"
         sodipodi:linespacing="125%"
         transform="scale(0.9632149,1.0381899)"><tspan
           sodipodi:role="line"
           id="tspan3016"
           x="2.7196128"
           y="21.15748"
           style="font-size:15.83304024000000076px;font-weight:bold;-inkscape-font-specification:Bitstream Vera Sans Bold;font-family:Bitstream Vera Sans;font-style:normal;font-stretch:normal;font-variant:normal">MC</tspan></text>
    </g>
  </g>
</svg>
