<svg xmlns="http://www.w3.org/2000/svg" width="2500" height="2479" viewBox="0 0 1464.248 1452.156"><path fill="#1389D2" d="M644.592 5.192c159.049-19.094 324.188 14.764 461.941 96.756 143.299 84.188 256.41 218.769 313.509 374.945 62.353 168.133 58.63 359.689-10.432 525.205-63.691 154.529-182.775 285.021-330.227 363.417-149.71 80.709-327.849 105.845-494.333 71.979-172.465-34.279-331.022-133.533-437.232-273.729C51.059 1037.725-2.015 878.924.058 719.941c.548-167.949 63.08-334.559 172.343-461.998C290.451 118.177 462.794 25.934 644.592 5.192m-120.67 181.494c-131.408 49.538-243.479 148.488-308.511 273.003-60.641 114.509-80.038 249.94-54.906 377.018 25.076 130.193 97.609 250.192 200.162 334.012 101.76 84.247 232.924 131.896 365.063 132.754-.795-37.831-.366-75.591-1.04-113.416-.792-31.415-30.866-53.744-59.722-58.563-.917 28.305.119 62.895-24.771 82.113-23.731 16.288-55.638 15.919-82.479 8.782-27.149-7.626-42.216-35.808-43.011-62.532-1.647-40.565-.244-81.196-.729-121.828-10.86-.059-21.781-.059-32.702-.059-.06-35.442-.06-70.892 0-106.273 10.92-.065 21.84-.125 32.762-.125 0-12.076 0-24.093-.06-36.115-14.033-4.635-30.263-10.188-35.934-25.379-14.033-33.186 3.417-70.462-10.188-103.891-13.911-35.203-27.759-74.125-14.825-111.888 7.992-26.598 34.042-43.56 61.007-45.694-.06-76.808 0-153.553-.06-230.358-.429-40.754 16.288-82.725 48.924-108.164 37.215-29.525 86.57-37.092 132.812-36.786 102.921.061 203.701 48.864 270.2 126.893-.124 18.362 0 36.727-.124 55.149-92.185.061-184.359-.063-276.54 0-10.006-1.828-19.523 7.505-17.754 17.569.304 58.812-.549 117.682-.308 176.492 17.021.061 34.104.304 51.125-.488 2.866-11.774 6.038-23.425 9.454-35.019 74.982 18.424 149.893 36.789 224.809 55.335-2.502 8.6-4.938 17.266-7.382 25.927-6.588 2.5-13.177 5.001-19.767 7.504-2.621 203.154-4.331 406.363-6.648 609.514 176.251-60.091 319.795-208.828 369.755-388.73 39.415-137.021 25.262-288.622-39.527-415.699-63.628-126.646-175.579-227.98-307.72-279.104-133.783-52.65-287.092-53.321-421.365-1.954m140.741 710.665c0 11.401 0 22.817.063 34.221 10.125.06 20.253.06 30.381.06.061 35.448.061 70.896 0 106.34-10.128 0-20.315 0-30.442.059v32.333c19.949.06 39.961.06 59.909-.061-.917-57.646-.365-115.305-1.283-172.95a9391.232 9391.232 0 0 0-58.628-.002z"/></svg>